{
  "metadata": {
    "file": "A Town With an Ocean View - Kenzie Smith Piano.mid",
    "duration": 211.88356858333333,
    "bpm": 120.0,
    "totalNotes": 1019
  },
  "notes": [
    {
      "instrumentId": 0,
      "instrumentName": "Umi no Machi Mieru.MID",
      "isPercussion": false,
      "pitch": 57,
      "velocity": 49,
      "startTime": 2.0,
      "duration": 1.94375,
      "endTime": 3.94375
    },
    {
      "instrumentId": 0,
      "instrumentName": "Umi no Machi Mieru.MID",
      "isPercussion": false,
      "pitch": 64,
      "velocity": 48,
      "startTime": 2.089583333333333,
      "duration": 1.8895833333333334,
      "endTime": 3.9791666666666665
    },
    {
      "instrumentId": 0,
      "instrumentName": "Umi no Machi Mieru.MID",
      "isPercussion": false,
      "pitch": 69,
      "velocity": 58,
      "startTime": 2.15,
      "duration": 1.9729166666666669,
      "endTime": 4.122916666666667
    },
    {
      "instrumentId": 0,
      "instrumentName": "Umi no Machi Mieru.MID",
      "isPercussion": false,
      "pitch": 72,
      "velocity": 68,
      "startTime": 2.2,
      "duration": 0.9416666666666664,
      "endTime": 3.1416666666666666
    },
    {
      "instrumentId": 0,
      "instrumentName": "Umi no Machi Mieru.MID",
      "isPercussion": false,
      "pitch": 76,
      "velocity": 72,
      "startTime": 2.2708333333333335,
      "duration": 0.45208333333333295,
      "endTime": 2.7229166666666664
    },
    {
      "instrumentId": 0,
      "instrumentName": "Umi no Machi Mieru.MID",
      "isPercussion": false,
      "pitch": 83,
      "velocity": 86,
      "startTime": 2.3625,
      "duration": 0.34583333333333366,
      "endTime": 2.7083333333333335
    },
    {
      "instrumentId": 0,
      "instrumentName": "Umi no Machi Mieru.MID",
      "isPercussion": false,
      "pitch": 81,
      "velocity": 72,
      "startTime": 2.7041666666666666,
      "duration": 0.15208333333333357,
      "endTime": 2.85625
    },
    {
      "instrumentId": 0,
      "instrumentName": "Umi no Machi Mieru.MID",
      "isPercussion": false,
      "pitch": 79,
      "velocity": 71,
      "startTime": 3.03125,
      "duration": 0.07916666666666661,
      "endTime": 3.1104166666666666
    },
    {
      "instrumentId": 0,
      "instrumentName": "Umi no Machi Mieru.MID",
      "isPercussion": false,
      "pitch": 79,
      "velocity": 74,
      "startTime": 3.3604166666666666,
      "duration": 0.1499999999999999,
      "endTime": 3.5104166666666665
    },
    {
      "instrumentId": 0,
      "instrumentName": "Umi no Machi Mieru.MID",
      "isPercussion": false,
      "pitch": 78,
      "velocity": 61,
      "startTime": 3.70625,
      "duration": 0.2041666666666666,
      "endTime": 3.9104166666666664
    },
    {
      "instrumentId": 0,
      "instrumentName": "Umi no Machi Mieru.MID",
      "isPercussion": false,
      "pitch": 76,
      "velocity": 65,
      "startTime": 4.01875,
      "duration": 0.34375,
      "endTime": 4.3625
    },
    {
      "instrumentId": 0,
      "instrumentName": "Umi no Machi Mieru.MID",
      "isPercussion": false,
      "pitch": 78,
      "velocity": 67,
      "startTime": 4.354166666666667,
      "duration": 0.08333333333333304,
      "endTime": 4.4375
    },
    {
      "instrumentId": 0,
      "instrumentName": "Umi no Machi Mieru.MID",
      "isPercussion": false,
      "pitch": 62,
      "velocity": 48,
      "startTime": 4.491666666666666,
      "duration": 2.614583333333334,
      "endTime": 7.10625
    },
    {
      "instrumentId": 0,
      "instrumentName": "Umi no Machi Mieru.MID",
      "isPercussion": false,
      "pitch": 69,
      "velocity": 53,
      "startTime": 4.577083333333333,
      "duration": 2.595833333333333,
      "endTime": 7.172916666666667
    },
    {
      "instrumentId": 0,
      "instrumentName": "Umi no Machi Mieru.MID",
      "isPercussion": false,
      "pitch": 74,
      "velocity": 68,
      "startTime": 4.64375,
      "duration": 0.47291666666666643,
      "endTime": 5.116666666666666
    },
    {
      "instrumentId": 0,
      "instrumentName": "Umi no Machi Mieru.MID",
      "isPercussion": false,
      "pitch": 81,
      "velocity": 82,
      "startTime": 4.73125,
      "duration": 0.31666666666666643,
      "endTime": 5.047916666666667
    },
    {
      "instrumentId": 0,
      "instrumentName": "Umi no Machi Mieru.MID",
      "isPercussion": false,
      "pitch": 79,
      "velocity": 76,
      "startTime": 5.041666666666667,
      "duration": 0.3125,
      "endTime": 5.354166666666667
    },
    {
      "instrumentId": 0,
      "instrumentName": "Umi no Machi Mieru.MID",
      "isPercussion": false,
      "pitch": 78,
      "velocity": 70,
      "startTime": 5.3625,
      "duration": 0.33958333333333357,
      "endTime": 5.702083333333333
    },
    {
      "instrumentId": 0,
      "instrumentName": "Umi no Machi Mieru.MID",
      "isPercussion": false,
      "pitch": 79,
      "velocity": 73,
      "startTime": 5.69375,
      "duration": 0.03958333333333375,
      "endTime": 5.733333333333333
    },
    {
      "instrumentId": 0,
      "instrumentName": "Umi no Machi Mieru.MID",
      "isPercussion": false,
      "pitch": 76,
      "velocity": 66,
      "startTime": 5.929166666666666,
      "duration": 1.2354166666666666,
      "endTime": 7.164583333333333
    },
    {
      "instrumentId": 0,
      "instrumentName": "Umi no Machi Mieru.MID",
      "isPercussion": false,
      "pitch": 79,
      "velocity": 64,
      "startTime": 5.991666666666666,
      "duration": 1.1416666666666666,
      "endTime": 7.133333333333333
    },
    {
      "instrumentId": 0,
      "instrumentName": "Umi no Machi Mieru.MID",
      "isPercussion": false,
      "pitch": 86,
      "velocity": 94,
      "startTime": 6.060416666666667,
      "duration": 1.0458333333333334,
      "endTime": 7.10625
    },
    {
      "instrumentId": 0,
      "instrumentName": "Umi no Machi Mieru.MID",
      "isPercussion": false,
      "pitch": 84,
      "velocity": 74,
      "startTime": 7.10625,
      "duration": 0.05416666666666625,
      "endTime": 7.160416666666666
    },
    {
      "instrumentId": 0,
      "instrumentName": "Umi no Machi Mieru.MID",
      "isPercussion": false,
      "pitch": 57,
      "velocity": 42,
      "startTime": 7.3999999999999995,
      "duration": 2.4604166666666663,
      "endTime": 9.860416666666666
    },
    {
      "instrumentId": 0,
      "instrumentName": "Umi no Machi Mieru.MID",
      "isPercussion": false,
      "pitch": 64,
      "velocity": 51,
      "startTime": 7.422916666666667,
      "duration": 2.468749999999999,
      "endTime": 9.891666666666666
    },
    {
      "instrumentId": 0,
      "instrumentName": "Umi no Machi Mieru.MID",
      "isPercussion": false,
      "pitch": 69,
      "velocity": 61,
      "startTime": 7.477083333333333,
      "duration": 2.427083333333334,
      "endTime": 9.904166666666667
    },
    {
      "instrumentId": 0,
      "instrumentName": "Umi no Machi Mieru.MID",
      "isPercussion": false,
      "pitch": 73,
      "velocity": 67,
      "startTime": 7.48125,
      "duration": 1.229166666666667,
      "endTime": 8.710416666666667
    },
    {
      "instrumentId": 0,
      "instrumentName": "Umi no Machi Mieru.MID",
      "isPercussion": false,
      "pitch": 76,
      "velocity": 74,
      "startTime": 7.527083333333334,
      "duration": 1.1687499999999993,
      "endTime": 8.695833333333333
    },
    {
      "instrumentId": 0,
      "instrumentName": "Umi no Machi Mieru.MID",
      "isPercussion": false,
      "pitch": 83,
      "velocity": 87,
      "startTime": 7.583333333333333,
      "duration": 1.0937500000000009,
      "endTime": 8.677083333333334
    },
    {
      "instrumentId": 0,
      "instrumentName": "Umi no Machi Mieru.MID",
      "isPercussion": false,
      "pitch": 81,
      "velocity": 79,
      "startTime": 8.660416666666666,
      "duration": 0.09166666666666679,
      "endTime": 8.752083333333333
    },
    {
      "instrumentId": 0,
      "instrumentName": "Umi no Machi Mieru.MID",
      "isPercussion": false,
      "pitch": 81,
      "velocity": 79,
      "startTime": 9.029166666666667,
      "duration": 1.1541666666666668,
      "endTime": 10.183333333333334
    },
    {
      "instrumentId": 0,
      "instrumentName": "Umi no Machi Mieru.MID",
      "isPercussion": false,
      "pitch": 76,
      "velocity": 74,
      "startTime": 9.029166666666667,
      "duration": 1.1833333333333336,
      "endTime": 10.2125
    },
    {
      "instrumentId": 0,
      "instrumentName": "Umi no Machi Mieru.MID",
      "isPercussion": false,
      "pitch": 73,
      "velocity": 71,
      "startTime": 9.029166666666667,
      "duration": 1.2145833333333336,
      "endTime": 10.24375
    },
    {
      "instrumentId": 0,
      "instrumentName": "Umi no Machi Mieru.MID",
      "isPercussion": false,
      "pitch": 79,
      "velocity": 79,
      "startTime": 10.2125,
      "duration": 0.1083333333333325,
      "endTime": 10.320833333333333
    },
    {
      "instrumentId": 0,
      "instrumentName": "Umi no Machi Mieru.MID",
      "isPercussion": false,
      "pitch": 76,
      "velocity": 70,
      "startTime": 10.59375,
      "duration": 0.7312499999999993,
      "endTime": 11.325
    },
    {
      "instrumentId": 0,
      "instrumentName": "Umi no Machi Mieru.MID",
      "isPercussion": false,
      "pitch": 72,
      "velocity": 61,
      "startTime": 10.59375,
      "duration": 0.7708333333333339,
      "endTime": 11.364583333333334
    },
    {
      "instrumentId": 0,
      "instrumentName": "Umi no Machi Mieru.MID",
      "isPercussion": false,
      "pitch": 81,
      "velocity": 69,
      "startTime": 10.59375,
      "duration": 0.7958333333333325,
      "endTime": 11.389583333333333
    },
    {
      "instrumentId": 0,
      "instrumentName": "Umi no Machi Mieru.MID",
      "isPercussion": false,
      "pitch": 62,
      "velocity": 54,
      "startTime": 10.610416666666666,
      "duration": 0.6458333333333339,
      "endTime": 11.25625
    },
    {
      "instrumentId": 0,
      "instrumentName": "Umi no Machi Mieru.MID",
      "isPercussion": false,
      "pitch": 75,
      "velocity": 60,
      "startTime": 12.16875,
      "duration": 1.7333333333333343,
      "endTime": 13.902083333333334
    },
    {
      "instrumentId": 0,
      "instrumentName": "Umi no Machi Mieru.MID",
      "isPercussion": false,
      "pitch": 71,
      "velocity": 49,
      "startTime": 12.16875,
      "duration": 1.7416666666666671,
      "endTime": 13.910416666666666
    },
    {
      "instrumentId": 0,
      "instrumentName": "Umi no Machi Mieru.MID",
      "isPercussion": false,
      "pitch": 66,
      "velocity": 52,
      "startTime": 12.16875,
      "duration": 1.7437500000000004,
      "endTime": 13.9125
    },
    {
      "instrumentId": 0,
      "instrumentName": "Umi no Machi Mieru.MID",
      "isPercussion": false,
      "pitch": 83,
      "velocity": 52,
      "startTime": 12.16875,
      "duration": 1.7520833333333332,
      "endTime": 13.920833333333333
    },
    {
      "instrumentId": 0,
      "instrumentName": "Umi no Machi Mieru.MID",
      "isPercussion": false,
      "pitch": 59,
      "velocity": 45,
      "startTime": 12.16875,
      "duration": 1.7645833333333343,
      "endTime": 13.933333333333334
    },
    {
      "instrumentId": 0,
      "instrumentName": "Umi no Machi Mieru.MID",
      "isPercussion": false,
      "pitch": 71,
      "velocity": 51,
      "startTime": 14.862499999999999,
      "duration": 0.30416666666666714,
      "endTime": 15.166666666666666
    },
    {
      "instrumentId": 0,
      "instrumentName": "Umi no Machi Mieru.MID",
      "isPercussion": false,
      "pitch": 79,
      "velocity": 69,
      "startTime": 15.183333333333334,
      "duration": 1.2062500000000007,
      "endTime": 16.389583333333334
    },
    {
      "instrumentId": 0,
      "instrumentName": "Umi no Machi Mieru.MID",
      "isPercussion": false,
      "pitch": 52,
      "velocity": 43,
      "startTime": 15.19375,
      "duration": 0.22708333333333286,
      "endTime": 15.420833333333333
    },
    {
      "instrumentId": 0,
      "instrumentName": "Umi no Machi Mieru.MID",
      "isPercussion": false,
      "pitch": 59,
      "velocity": 47,
      "startTime": 15.479166666666666,
      "duration": 0.35208333333333286,
      "endTime": 15.831249999999999
    },
    {
      "instrumentId": 0,
      "instrumentName": "Umi no Machi Mieru.MID",
      "isPercussion": false,
      "pitch": 64,
      "velocity": 56,
      "startTime": 15.783333333333333,
      "duration": 0.04374999999999929,
      "endTime": 15.827083333333333
    },
    {
      "instrumentId": 0,
      "instrumentName": "Umi no Machi Mieru.MID",
      "isPercussion": false,
      "pitch": 71,
      "velocity": 55,
      "startTime": 16.06875,
      "duration": 0.3041666666666636,
      "endTime": 16.372916666666665
    },
    {
      "instrumentId": 0,
      "instrumentName": "Umi no Machi Mieru.MID",
      "isPercussion": false,
      "pitch": 47,
      "velocity": 44,
      "startTime": 16.360416666666666,
      "duration": 0.2624999999999993,
      "endTime": 16.622916666666665
    },
    {
      "instrumentId": 0,
      "instrumentName": "Umi no Machi Mieru.MID",
      "isPercussion": false,
      "pitch": 78,
      "velocity": 79,
      "startTime": 16.360416666666666,
      "duration": 0.533333333333335,
      "endTime": 16.89375
    },
    {
      "instrumentId": 0,
      "instrumentName": "Umi no Machi Mieru.MID",
      "isPercussion": false,
      "pitch": 54,
      "velocity": 40,
      "startTime": 16.664583333333333,
      "duration": 0.37083333333333357,
      "endTime": 17.035416666666666
    },
    {
      "instrumentId": 0,
      "instrumentName": "Umi no Machi Mieru.MID",
      "isPercussion": false,
      "pitch": 59,
      "velocity": 54,
      "startTime": 16.952083333333334,
      "duration": 0.5666666666666664,
      "endTime": 17.51875
    },
    {
      "instrumentId": 0,
      "instrumentName": "Umi no Machi Mieru.MID",
      "isPercussion": false,
      "pitch": 71,
      "velocity": 65,
      "startTime": 17.235416666666666,
      "duration": 0.24166666666666714,
      "endTime": 17.477083333333333
    },
    {
      "instrumentId": 0,
      "instrumentName": "Umi no Machi Mieru.MID",
      "isPercussion": false,
      "pitch": 74,
      "velocity": 50,
      "startTime": 17.522916666666667,
      "duration": 0.04791666666666572,
      "endTime": 17.570833333333333
    },
    {
      "instrumentId": 0,
      "instrumentName": "Umi no Machi Mieru.MID",
      "isPercussion": false,
      "pitch": 48,
      "velocity": 49,
      "startTime": 17.54375,
      "duration": 0.2979166666666657,
      "endTime": 17.841666666666665
    },
    {
      "instrumentId": 0,
      "instrumentName": "Umi no Machi Mieru.MID",
      "isPercussion": false,
      "pitch": 76,
      "velocity": 73,
      "startTime": 17.54375,
      "duration": 0.5791666666666657,
      "endTime": 18.122916666666665
    },
    {
      "instrumentId": 0,
      "instrumentName": "Umi no Machi Mieru.MID",
      "isPercussion": false,
      "pitch": 55,
      "velocity": 56,
      "startTime": 17.839583333333334,
      "duration": 0.4541666666666657,
      "endTime": 18.29375
    },
    {
      "instrumentId": 0,
      "instrumentName": "Umi no Machi Mieru.MID",
      "isPercussion": false,
      "pitch": 64,
      "velocity": 55,
      "startTime": 18.139583333333334,
      "duration": 0.06458333333333144,
      "endTime": 18.204166666666666
    },
    {
      "instrumentId": 0,
      "instrumentName": "Umi no Machi Mieru.MID",
      "isPercussion": false,
      "pitch": 74,
      "velocity": 74,
      "startTime": 18.139583333333334,
      "duration": 0.2624999999999993,
      "endTime": 18.402083333333334
    },
    {
      "instrumentId": 0,
      "instrumentName": "Umi no Machi Mieru.MID",
      "isPercussion": false,
      "pitch": 72,
      "velocity": 64,
      "startTime": 18.43125,
      "duration": 0.2687500000000007,
      "endTime": 18.7
    },
    {
      "instrumentId": 0,
      "instrumentName": "Umi no Machi Mieru.MID",
      "isPercussion": false,
      "pitch": 74,
      "velocity": 84,
      "startTime": 18.708333333333332,
      "duration": 0.8708333333333336,
      "endTime": 19.579166666666666
    },
    {
      "instrumentId": 0,
      "instrumentName": "Umi no Machi Mieru.MID",
      "isPercussion": false,
      "pitch": 47,
      "velocity": 55,
      "startTime": 18.725,
      "duration": 0.8520833333333329,
      "endTime": 19.577083333333334
    },
    {
      "instrumentId": 0,
      "instrumentName": "Umi no Machi Mieru.MID",
      "isPercussion": false,
      "pitch": 62,
      "velocity": 55,
      "startTime": 19.0,
      "duration": 0.3562499999999993,
      "endTime": 19.35625
    },
    {
      "instrumentId": 0,
      "instrumentName": "Umi no Machi Mieru.MID",
      "isPercussion": false,
      "pitch": 66,
      "velocity": 62,
      "startTime": 19.329166666666666,
      "duration": 0.19166666666666643,
      "endTime": 19.520833333333332
    },
    {
      "instrumentId": 0,
      "instrumentName": "Umi no Machi Mieru.MID",
      "isPercussion": false,
      "pitch": 67,
      "velocity": 64,
      "startTime": 19.629166666666666,
      "duration": 0.310416666666665,
      "endTime": 19.93958333333333
    },
    {
      "instrumentId": 0,
      "instrumentName": "Umi no Machi Mieru.MID",
      "isPercussion": false,
      "pitch": 69,
      "velocity": 76,
      "startTime": 19.920833333333334,
      "duration": 0.2916666666666643,
      "endTime": 20.2125
    },
    {
      "instrumentId": 0,
      "instrumentName": "Umi no Machi Mieru.MID",
      "isPercussion": false,
      "pitch": 45,
      "velocity": 56,
      "startTime": 19.920833333333334,
      "duration": 0.622916666666665,
      "endTime": 20.54375
    },
    {
      "instrumentId": 0,
      "instrumentName": "Umi no Machi Mieru.MID",
      "isPercussion": false,
      "pitch": 72,
      "velocity": 79,
      "startTime": 20.2125,
      "duration": 0.09791666666666643,
      "endTime": 20.310416666666665
    },
    {
      "instrumentId": 0,
      "instrumentName": "Umi no Machi Mieru.MID",
      "isPercussion": false,
      "pitch": 52,
      "velocity": 55,
      "startTime": 20.2125,
      "duration": 0.3895833333333343,
      "endTime": 20.602083333333333
    },
    {
      "instrumentId": 0,
      "instrumentName": "Umi no Machi Mieru.MID",
      "isPercussion": false,
      "pitch": 57,
      "velocity": 62,
      "startTime": 20.5,
      "duration": 0.03958333333333286,
      "endTime": 20.539583333333333
    },
    {
      "instrumentId": 0,
      "instrumentName": "Umi no Machi Mieru.MID",
      "isPercussion": false,
      "pitch": 76,
      "velocity": 81,
      "startTime": 20.504166666666666,
      "duration": 0.10416666666666785,
      "endTime": 20.608333333333334
    },
    {
      "instrumentId": 0,
      "instrumentName": "Umi no Machi Mieru.MID",
      "isPercussion": false,
      "pitch": 79,
      "velocity": 70,
      "startTime": 20.795833333333334,
      "duration": 0.30833333333333357,
      "endTime": 21.104166666666668
    },
    {
      "instrumentId": 0,
      "instrumentName": "Umi no Machi Mieru.MID",
      "isPercussion": false,
      "pitch": 50,
      "velocity": 58,
      "startTime": 21.09375,
      "duration": 0.6166666666666671,
      "endTime": 21.710416666666667
    },
    {
      "instrumentId": 0,
      "instrumentName": "Umi no Machi Mieru.MID",
      "isPercussion": false,
      "pitch": 78,
      "velocity": 69,
      "startTime": 21.097916666666666,
      "duration": 0.35416666666666785,
      "endTime": 21.452083333333334
    },
    {
      "instrumentId": 0,
      "instrumentName": "Umi no Machi Mieru.MID",
      "isPercussion": false,
      "pitch": 74,
      "velocity": 74,
      "startTime": 21.3875,
      "duration": 0.30833333333333357,
      "endTime": 21.695833333333333
    },
    {
      "instrumentId": 0,
      "instrumentName": "Umi no Machi Mieru.MID",
      "isPercussion": false,
      "pitch": 57,
      "velocity": 47,
      "startTime": 21.395833333333332,
      "duration": 0.408333333333335,
      "endTime": 21.804166666666667
    },
    {
      "instrumentId": 0,
      "instrumentName": "Umi no Machi Mieru.MID",
      "isPercussion": false,
      "pitch": 62,
      "velocity": 58,
      "startTime": 21.66875,
      "duration": 0.05625000000000213,
      "endTime": 21.725
    },
    {
      "instrumentId": 0,
      "instrumentName": "Umi no Machi Mieru.MID",
      "isPercussion": false,
      "pitch": 71,
      "velocity": 75,
      "startTime": 21.683333333333334,
      "duration": 0.24583333333333357,
      "endTime": 21.929166666666667
    },
    {
      "instrumentId": 0,
      "instrumentName": "Umi no Machi Mieru.MID",
      "isPercussion": false,
      "pitch": 69,
      "velocity": 72,
      "startTime": 21.96875,
      "duration": 0.31666666666666643,
      "endTime": 22.285416666666666
    },
    {
      "instrumentId": 0,
      "instrumentName": "Umi no Machi Mieru.MID",
      "isPercussion": false,
      "pitch": 43,
      "velocity": 71,
      "startTime": 22.277083333333334,
      "duration": 0.9791666666666679,
      "endTime": 23.25625
    },
    {
      "instrumentId": 0,
      "instrumentName": "Umi no Machi Mieru.MID",
      "isPercussion": false,
      "pitch": 71,
      "velocity": 76,
      "startTime": 22.279166666666665,
      "duration": 0.59375,
      "endTime": 22.872916666666665
    },
    {
      "instrumentId": 0,
      "instrumentName": "Umi no Machi Mieru.MID",
      "isPercussion": false,
      "pitch": 50,
      "velocity": 45,
      "startTime": 22.591666666666665,
      "duration": 0.7270833333333364,
      "endTime": 23.31875
    },
    {
      "instrumentId": 0,
      "instrumentName": "Umi no Machi Mieru.MID",
      "isPercussion": false,
      "pitch": 62,
      "velocity": 60,
      "startTime": 22.591666666666665,
      "duration": 0.8729166666666686,
      "endTime": 23.464583333333334
    },
    {
      "instrumentId": 0,
      "instrumentName": "Umi no Machi Mieru.MID",
      "isPercussion": false,
      "pitch": 69,
      "velocity": 77,
      "startTime": 22.88125,
      "duration": 0.28958333333333286,
      "endTime": 23.170833333333334
    },
    {
      "instrumentId": 0,
      "instrumentName": "Umi no Machi Mieru.MID",
      "isPercussion": false,
      "pitch": 57,
      "velocity": 59,
      "startTime": 22.885416666666668,
      "duration": 0.11041666666666572,
      "endTime": 22.995833333333334
    },
    {
      "instrumentId": 0,
      "instrumentName": "Umi no Machi Mieru.MID",
      "isPercussion": false,
      "pitch": 55,
      "velocity": 61,
      "startTime": 23.175,
      "duration": 0.05000000000000071,
      "endTime": 23.225
    },
    {
      "instrumentId": 0,
      "instrumentName": "Umi no Machi Mieru.MID",
      "isPercussion": false,
      "pitch": 67,
      "velocity": 67,
      "startTime": 23.191666666666666,
      "duration": 0.3062499999999986,
      "endTime": 23.497916666666665
    },
    {
      "instrumentId": 0,
      "instrumentName": "Umi no Machi Mieru.MID",
      "isPercussion": false,
      "pitch": 47,
      "velocity": 71,
      "startTime": 23.483333333333334,
      "duration": 0.6833333333333336,
      "endTime": 24.166666666666668
    },
    {
      "instrumentId": 0,
      "instrumentName": "Umi no Machi Mieru.MID",
      "isPercussion": false,
      "pitch": 54,
      "velocity": 54,
      "startTime": 23.491666666666667,
      "duration": 0.4562500000000007,
      "endTime": 23.947916666666668
    },
    {
      "instrumentId": 0,
      "instrumentName": "Umi no Machi Mieru.MID",
      "isPercussion": false,
      "pitch": 66,
      "velocity": 80,
      "startTime": 23.497916666666665,
      "duration": 0.29791666666666927,
      "endTime": 23.795833333333334
    },
    {
      "instrumentId": 0,
      "instrumentName": "Umi no Machi Mieru.MID",
      "isPercussion": false,
      "pitch": 67,
      "velocity": 79,
      "startTime": 23.795833333333334,
      "duration": 0.32708333333333073,
      "endTime": 24.122916666666665
    },
    {
      "instrumentId": 0,
      "instrumentName": "Umi no Machi Mieru.MID",
      "isPercussion": false,
      "pitch": 69,
      "velocity": 81,
      "startTime": 24.0875,
      "duration": 0.08750000000000213,
      "endTime": 24.175
    },
    {
      "instrumentId": 0,
      "instrumentName": "Umi no Machi Mieru.MID",
      "isPercussion": false,
      "pitch": 71,
      "velocity": 72,
      "startTime": 24.366666666666667,
      "duration": 0.3062499999999986,
      "endTime": 24.672916666666666
    },
    {
      "instrumentId": 0,
      "instrumentName": "Umi no Machi Mieru.MID",
      "isPercussion": false,
      "pitch": 40,
      "velocity": 65,
      "startTime": 24.678125,
      "duration": 0.39687499999999787,
      "endTime": 25.075
    },
    {
      "instrumentId": 0,
      "instrumentName": "Umi no Machi Mieru.MID",
      "isPercussion": false,
      "pitch": 79,
      "velocity": 90,
      "startTime": 24.678125,
      "duration": 1.1447916666666664,
      "endTime": 25.822916666666668
    },
    {
      "instrumentId": 0,
      "instrumentName": "Umi no Machi Mieru.MID",
      "isPercussion": false,
      "pitch": 47,
      "velocity": 65,
      "startTime": 24.964583333333334,
      "duration": 0.32083333333333286,
      "endTime": 25.285416666666666
    },
    {
      "instrumentId": 0,
      "instrumentName": "Umi no Machi Mieru.MID",
      "isPercussion": false,
      "pitch": 52,
      "velocity": 66,
      "startTime": 25.266666666666666,
      "duration": 0.08958333333333357,
      "endTime": 25.35625
    },
    {
      "instrumentId": 0,
      "instrumentName": "Umi no Machi Mieru.MID",
      "isPercussion": false,
      "pitch": 71,
      "velocity": 68,
      "startTime": 25.541666666666668,
      "duration": 0.31874999999999787,
      "endTime": 25.860416666666666
    },
    {
      "instrumentId": 0,
      "instrumentName": "Umi no Machi Mieru.MID",
      "isPercussion": false,
      "pitch": 75,
      "velocity": 83,
      "startTime": 25.822916666666668,
      "duration": 0.34375,
      "endTime": 26.166666666666668
    },
    {
      "instrumentId": 0,
      "instrumentName": "Umi no Machi Mieru.MID",
      "isPercussion": false,
      "pitch": 42,
      "velocity": 54,
      "startTime": 25.822916666666668,
      "duration": 0.34583333333333144,
      "endTime": 26.16875
    },
    {
      "instrumentId": 0,
      "instrumentName": "Umi no Machi Mieru.MID",
      "isPercussion": false,
      "pitch": 78,
      "velocity": 76,
      "startTime": 25.822916666666668,
      "duration": 0.34583333333333144,
      "endTime": 26.16875
    },
    {
      "instrumentId": 0,
      "instrumentName": "Umi no Machi Mieru.MID",
      "isPercussion": false,
      "pitch": 49,
      "velocity": 53,
      "startTime": 26.131249999999998,
      "duration": 0.8520833333333364,
      "endTime": 26.983333333333334
    },
    {
      "instrumentId": 0,
      "instrumentName": "Umi no Machi Mieru.MID",
      "isPercussion": false,
      "pitch": 54,
      "velocity": 64,
      "startTime": 26.429166666666667,
      "duration": 0.14791666666666714,
      "endTime": 26.577083333333334
    },
    {
      "instrumentId": 0,
      "instrumentName": "Umi no Machi Mieru.MID",
      "isPercussion": false,
      "pitch": 71,
      "velocity": 74,
      "startTime": 26.727083333333333,
      "duration": 0.2937499999999993,
      "endTime": 27.020833333333332
    },
    {
      "instrumentId": 0,
      "instrumentName": "Umi no Machi Mieru.MID",
      "isPercussion": false,
      "pitch": 76,
      "velocity": 82,
      "startTime": 27.006249999999998,
      "duration": 0.5854166666666671,
      "endTime": 27.591666666666665
    },
    {
      "instrumentId": 0,
      "instrumentName": "Umi no Machi Mieru.MID",
      "isPercussion": false,
      "pitch": 43,
      "velocity": 72,
      "startTime": 27.0125,
      "duration": 0.31041666666666856,
      "endTime": 27.322916666666668
    },
    {
      "instrumentId": 0,
      "instrumentName": "Umi no Machi Mieru.MID",
      "isPercussion": false,
      "pitch": 67,
      "velocity": 72,
      "startTime": 27.304166666666667,
      "duration": 0.6458333333333321,
      "endTime": 27.95
    },
    {
      "instrumentId": 0,
      "instrumentName": "Umi no Machi Mieru.MID",
      "isPercussion": false,
      "pitch": 52,
      "velocity": 59,
      "startTime": 27.304166666666667,
      "duration": 0.84375,
      "endTime": 28.147916666666667
    },
    {
      "instrumentId": 0,
      "instrumentName": "Umi no Machi Mieru.MID",
      "isPercussion": false,
      "pitch": 74,
      "velocity": 79,
      "startTime": 27.591666666666665,
      "duration": 0.28125,
      "endTime": 27.872916666666665
    },
    {
      "instrumentId": 0,
      "instrumentName": "Umi no Machi Mieru.MID",
      "isPercussion": false,
      "pitch": 59,
      "velocity": 58,
      "startTime": 27.604166666666668,
      "duration": 0.12083333333333002,
      "endTime": 27.724999999999998
    },
    {
      "instrumentId": 0,
      "instrumentName": "Umi no Machi Mieru.MID",
      "isPercussion": false,
      "pitch": 72,
      "velocity": 84,
      "startTime": 27.883333333333333,
      "duration": 0.28541666666666643,
      "endTime": 28.16875
    },
    {
      "instrumentId": 0,
      "instrumentName": "Umi no Machi Mieru.MID",
      "isPercussion": false,
      "pitch": 74,
      "velocity": 91,
      "startTime": 28.16875,
      "duration": 0.625,
      "endTime": 28.79375
    },
    {
      "instrumentId": 0,
      "instrumentName": "Umi no Machi Mieru.MID",
      "isPercussion": false,
      "pitch": 44,
      "velocity": 75,
      "startTime": 28.177083333333332,
      "duration": 0.33958333333333357,
      "endTime": 28.516666666666666
    },
    {
      "instrumentId": 0,
      "instrumentName": "Umi no Machi Mieru.MID",
      "isPercussion": false,
      "pitch": 62,
      "velocity": 71,
      "startTime": 28.48645833333333,
      "duration": 0.29062500000000213,
      "endTime": 28.777083333333334
    },
    {
      "instrumentId": 0,
      "instrumentName": "Umi no Machi Mieru.MID",
      "isPercussion": false,
      "pitch": 52,
      "velocity": 58,
      "startTime": 28.4875,
      "duration": 0.7833333333333314,
      "endTime": 29.270833333333332
    },
    {
      "instrumentId": 0,
      "instrumentName": "Umi no Machi Mieru.MID",
      "isPercussion": false,
      "pitch": 66,
      "velocity": 83,
      "startTime": 28.769791666666666,
      "duration": 0.265625,
      "endTime": 29.035416666666666
    },
    {
      "instrumentId": 0,
      "instrumentName": "Umi no Machi Mieru.MID",
      "isPercussion": false,
      "pitch": 59,
      "velocity": 46,
      "startTime": 28.770833333333332,
      "duration": 0.09791666666666643,
      "endTime": 28.86875
    },
    {
      "instrumentId": 0,
      "instrumentName": "Umi no Machi Mieru.MID",
      "isPercussion": false,
      "pitch": 71,
      "velocity": 87,
      "startTime": 29.047916666666666,
      "duration": 0.2979166666666657,
      "endTime": 29.34583333333333
    },
    {
      "instrumentId": 0,
      "instrumentName": "Umi no Machi Mieru.MID",
      "isPercussion": false,
      "pitch": 69,
      "velocity": 88,
      "startTime": 29.354166666666668,
      "duration": 0.3041666666666636,
      "endTime": 29.65833333333333
    },
    {
      "instrumentId": 0,
      "instrumentName": "Umi no Machi Mieru.MID",
      "isPercussion": false,
      "pitch": 45,
      "velocity": 74,
      "startTime": 29.354166666666668,
      "duration": 0.7208333333333314,
      "endTime": 30.075
    },
    {
      "instrumentId": 0,
      "instrumentName": "Umi no Machi Mieru.MID",
      "isPercussion": false,
      "pitch": 72,
      "velocity": 87,
      "startTime": 29.654166666666665,
      "duration": 0.10208333333333286,
      "endTime": 29.756249999999998
    },
    {
      "instrumentId": 0,
      "instrumentName": "Umi no Machi Mieru.MID",
      "isPercussion": false,
      "pitch": 52,
      "velocity": 66,
      "startTime": 29.65833333333333,
      "duration": 0.5208333333333357,
      "endTime": 30.179166666666667
    },
    {
      "instrumentId": 0,
      "instrumentName": "Umi no Machi Mieru.MID",
      "isPercussion": false,
      "pitch": 76,
      "velocity": 91,
      "startTime": 29.93958333333333,
      "duration": 0.11875000000000213,
      "endTime": 30.058333333333334
    },
    {
      "instrumentId": 0,
      "instrumentName": "Umi no Machi Mieru.MID",
      "isPercussion": false,
      "pitch": 57,
      "velocity": 63,
      "startTime": 29.93958333333333,
      "duration": 0.18333333333333357,
      "endTime": 30.122916666666665
    },
    {
      "instrumentId": 0,
      "instrumentName": "Umi no Machi Mieru.MID",
      "isPercussion": false,
      "pitch": 79,
      "velocity": 81,
      "startTime": 30.245833333333334,
      "duration": 0.08958333333333357,
      "endTime": 30.335416666666667
    },
    {
      "instrumentId": 0,
      "instrumentName": "Umi no Machi Mieru.MID",
      "isPercussion": false,
      "pitch": 81,
      "velocity": 93,
      "startTime": 30.53125,
      "duration": 0.16249999999999787,
      "endTime": 30.693749999999998
    },
    {
      "instrumentId": 0,
      "instrumentName": "Umi no Machi Mieru.MID",
      "isPercussion": false,
      "pitch": 74,
      "velocity": 79,
      "startTime": 30.539583333333333,
      "duration": 0.17083333333333428,
      "endTime": 30.710416666666667
    },
    {
      "instrumentId": 0,
      "instrumentName": "Umi no Machi Mieru.MID",
      "isPercussion": false,
      "pitch": 47,
      "velocity": 76,
      "startTime": 30.54375,
      "duration": 0.6104166666666657,
      "endTime": 31.154166666666665
    },
    {
      "instrumentId": 0,
      "instrumentName": "Umi no Machi Mieru.MID",
      "isPercussion": false,
      "pitch": 83,
      "velocity": 81,
      "startTime": 30.833333333333332,
      "duration": 0.2979166666666657,
      "endTime": 31.131249999999998
    },
    {
      "instrumentId": 0,
      "instrumentName": "Umi no Machi Mieru.MID",
      "isPercussion": false,
      "pitch": 54,
      "velocity": 59,
      "startTime": 30.849999999999998,
      "duration": 0.408333333333335,
      "endTime": 31.258333333333333
    },
    {
      "instrumentId": 0,
      "instrumentName": "Umi no Machi Mieru.MID",
      "isPercussion": false,
      "pitch": 59,
      "velocity": 63,
      "startTime": 31.131249999999998,
      "duration": 0.04583333333333428,
      "endTime": 31.177083333333332
    },
    {
      "instrumentId": 0,
      "instrumentName": "Umi no Machi Mieru.MID",
      "isPercussion": false,
      "pitch": 78,
      "velocity": 78,
      "startTime": 31.131249999999998,
      "duration": 0.23541666666666927,
      "endTime": 31.366666666666667
    },
    {
      "instrumentId": 0,
      "instrumentName": "Umi no Machi Mieru.MID",
      "isPercussion": false,
      "pitch": 74,
      "velocity": 69,
      "startTime": 31.414583333333333,
      "duration": 0.11041666666666572,
      "endTime": 31.525
    },
    {
      "instrumentId": 0,
      "instrumentName": "Umi no Machi Mieru.MID",
      "isPercussion": false,
      "pitch": 76,
      "velocity": 91,
      "startTime": 31.722916666666666,
      "duration": 0.4770833333333364,
      "endTime": 32.2
    },
    {
      "instrumentId": 0,
      "instrumentName": "Umi no Machi Mieru.MID",
      "isPercussion": false,
      "pitch": 40,
      "velocity": 69,
      "startTime": 31.729166666666668,
      "duration": 0.43749999999999645,
      "endTime": 32.166666666666664
    },
    {
      "instrumentId": 0,
      "instrumentName": "Umi no Machi Mieru.MID",
      "isPercussion": false,
      "pitch": 67,
      "velocity": 69,
      "startTime": 32.04375,
      "duration": 0.31041666666666146,
      "endTime": 32.354166666666664
    },
    {
      "instrumentId": 0,
      "instrumentName": "Umi no Machi Mieru.MID",
      "isPercussion": false,
      "pitch": 47,
      "velocity": 53,
      "startTime": 32.052083333333336,
      "duration": 0.28333333333333144,
      "endTime": 32.33541666666667
    },
    {
      "instrumentId": 0,
      "instrumentName": "Umi no Machi Mieru.MID",
      "isPercussion": false,
      "pitch": 71,
      "velocity": 76,
      "startTime": 32.36666666666667,
      "duration": 0.4750000000000014,
      "endTime": 32.84166666666667
    },
    {
      "instrumentId": 0,
      "instrumentName": "Umi no Machi Mieru.MID",
      "isPercussion": false,
      "pitch": 52,
      "velocity": 58,
      "startTime": 32.37291666666667,
      "duration": 0.2958333333333343,
      "endTime": 32.66875
    },
    {
      "instrumentId": 0,
      "instrumentName": "Umi no Machi Mieru.MID",
      "isPercussion": false,
      "pitch": 67,
      "velocity": 75,
      "startTime": 32.697916666666664,
      "duration": 0.7437499999999986,
      "endTime": 33.44166666666666
    },
    {
      "instrumentId": 0,
      "instrumentName": "Umi no Machi Mieru.MID",
      "isPercussion": false,
      "pitch": 55,
      "velocity": 52,
      "startTime": 32.70625,
      "duration": 0.3395833333333371,
      "endTime": 33.045833333333334
    },
    {
      "instrumentId": 0,
      "instrumentName": "Umi no Machi Mieru.MID",
      "isPercussion": false,
      "pitch": 64,
      "velocity": 72,
      "startTime": 33.03958333333333,
      "duration": 0.34791666666667,
      "endTime": 33.3875
    },
    {
      "instrumentId": 0,
      "instrumentName": "Umi no Machi Mieru.MID",
      "isPercussion": false,
      "pitch": 59,
      "velocity": 59,
      "startTime": 33.05416666666667,
      "duration": 0.6062499999999957,
      "endTime": 33.66041666666666
    },
    {
      "instrumentId": 0,
      "instrumentName": "Umi no Machi Mieru.MID",
      "isPercussion": false,
      "pitch": 71,
      "velocity": 63,
      "startTime": 35.03958333333333,
      "duration": 0.05833333333333002,
      "endTime": 35.09791666666666
    },
    {
      "instrumentId": 0,
      "instrumentName": "Umi no Machi Mieru.MID",
      "isPercussion": false,
      "pitch": 79,
      "velocity": 72,
      "startTime": 35.31875,
      "duration": 1.1395833333333343,
      "endTime": 36.458333333333336
    },
    {
      "instrumentId": 0,
      "instrumentName": "Umi no Machi Mieru.MID",
      "isPercussion": false,
      "pitch": 52,
      "velocity": 46,
      "startTime": 35.329166666666666,
      "duration": 0.05416666666666714,
      "endTime": 35.38333333333333
    },
    {
      "instrumentId": 0,
      "instrumentName": "Umi no Machi Mieru.MID",
      "isPercussion": false,
      "pitch": 59,
      "velocity": 53,
      "startTime": 35.608333333333334,
      "duration": 0.0416666666666643,
      "endTime": 35.65
    },
    {
      "instrumentId": 0,
      "instrumentName": "Umi no Machi Mieru.MID",
      "isPercussion": false,
      "pitch": 64,
      "velocity": 60,
      "startTime": 35.9,
      "duration": 0.03333333333333144,
      "endTime": 35.93333333333333
    },
    {
      "instrumentId": 0,
      "instrumentName": "Umi no Machi Mieru.MID",
      "isPercussion": false,
      "pitch": 71,
      "velocity": 65,
      "startTime": 36.19166666666666,
      "duration": 0.28333333333333854,
      "endTime": 36.475
    },
    {
      "instrumentId": 0,
      "instrumentName": "Umi no Machi Mieru.MID",
      "isPercussion": false,
      "pitch": 78,
      "velocity": 65,
      "startTime": 36.47083333333333,
      "duration": 0.9541666666666657,
      "endTime": 37.425
    },
    {
      "instrumentId": 0,
      "instrumentName": "Umi no Machi Mieru.MID",
      "isPercussion": false,
      "pitch": 50,
      "velocity": 71,
      "startTime": 36.475,
      "duration": 0.06458333333333144,
      "endTime": 36.53958333333333
    },
    {
      "instrumentId": 0,
      "instrumentName": "Umi no Machi Mieru.MID",
      "isPercussion": false,
      "pitch": 54,
      "velocity": 64,
      "startTime": 36.7875,
      "duration": 0.052083333333328596,
      "endTime": 36.83958333333333
    },
    {
      "instrumentId": 0,
      "instrumentName": "Umi no Machi Mieru.MID",
      "isPercussion": false,
      "pitch": 59,
      "velocity": 64,
      "startTime": 37.08541666666667,
      "duration": 0.04999999999999716,
      "endTime": 37.135416666666664
    },
    {
      "instrumentId": 0,
      "instrumentName": "Umi no Machi Mieru.MID",
      "isPercussion": false,
      "pitch": 71,
      "velocity": 67,
      "startTime": 37.354166666666664,
      "duration": 0.28125,
      "endTime": 37.635416666666664
    },
    {
      "instrumentId": 0,
      "instrumentName": "Umi no Machi Mieru.MID",
      "isPercussion": false,
      "pitch": 48,
      "velocity": 55,
      "startTime": 37.639583333333334,
      "duration": 0.10208333333333286,
      "endTime": 37.74166666666667
    },
    {
      "instrumentId": 0,
      "instrumentName": "Umi no Machi Mieru.MID",
      "isPercussion": false,
      "pitch": 76,
      "velocity": 77,
      "startTime": 37.639583333333334,
      "duration": 0.55833333333333,
      "endTime": 38.197916666666664
    },
    {
      "instrumentId": 0,
      "instrumentName": "Umi no Machi Mieru.MID",
      "isPercussion": false,
      "pitch": 52,
      "velocity": 61,
      "startTime": 37.920833333333334,
      "duration": 0.03750000000000142,
      "endTime": 37.958333333333336
    },
    {
      "instrumentId": 0,
      "instrumentName": "Umi no Machi Mieru.MID",
      "isPercussion": false,
      "pitch": 74,
      "velocity": 78,
      "startTime": 38.197916666666664,
      "duration": 0.2291666666666714,
      "endTime": 38.427083333333336
    },
    {
      "instrumentId": 0,
      "instrumentName": "Umi no Machi Mieru.MID",
      "isPercussion": false,
      "pitch": 55,
      "velocity": 69,
      "startTime": 38.21666666666667,
      "duration": 0.03125,
      "endTime": 38.24791666666667
    },
    {
      "instrumentId": 0,
      "instrumentName": "Umi no Machi Mieru.MID",
      "isPercussion": false,
      "pitch": 72,
      "velocity": 74,
      "startTime": 38.47291666666666,
      "duration": 0.25,
      "endTime": 38.72291666666666
    },
    {
      "instrumentId": 0,
      "instrumentName": "Umi no Machi Mieru.MID",
      "isPercussion": false,
      "pitch": 74,
      "velocity": 87,
      "startTime": 38.770833333333336,
      "duration": 0.8791666666666629,
      "endTime": 39.65
    },
    {
      "instrumentId": 0,
      "instrumentName": "Umi no Machi Mieru.MID",
      "isPercussion": false,
      "pitch": 47,
      "velocity": 61,
      "startTime": 38.77708333333333,
      "duration": 0.21041666666666714,
      "endTime": 38.9875
    },
    {
      "instrumentId": 0,
      "instrumentName": "Umi no Machi Mieru.MID",
      "isPercussion": false,
      "pitch": 50,
      "velocity": 61,
      "startTime": 39.04375,
      "duration": 0.04791666666666572,
      "endTime": 39.09166666666667
    },
    {
      "instrumentId": 0,
      "instrumentName": "Umi no Machi Mieru.MID",
      "isPercussion": false,
      "pitch": 54,
      "velocity": 76,
      "startTime": 39.327083333333334,
      "duration": 0.03333333333333144,
      "endTime": 39.360416666666666
    },
    {
      "instrumentId": 0,
      "instrumentName": "Umi no Machi Mieru.MID",
      "isPercussion": false,
      "pitch": 67,
      "velocity": 59,
      "startTime": 39.61875,
      "duration": 0.0416666666666643,
      "endTime": 39.66041666666666
    },
    {
      "instrumentId": 0,
      "instrumentName": "Umi no Machi Mieru.MID",
      "isPercussion": false,
      "pitch": 69,
      "velocity": 69,
      "startTime": 39.91458333333333,
      "duration": 0.25416666666667,
      "endTime": 40.16875
    },
    {
      "instrumentId": 0,
      "instrumentName": "Umi no Machi Mieru.MID",
      "isPercussion": false,
      "pitch": 45,
      "velocity": 54,
      "startTime": 39.91458333333333,
      "duration": 0.33124999999999716,
      "endTime": 40.24583333333333
    },
    {
      "instrumentId": 0,
      "instrumentName": "Umi no Machi Mieru.MID",
      "isPercussion": false,
      "pitch": 52,
      "velocity": 57,
      "startTime": 40.20625,
      "duration": 0.04375000000000284,
      "endTime": 40.25
    },
    {
      "instrumentId": 0,
      "instrumentName": "Umi no Machi Mieru.MID",
      "isPercussion": false,
      "pitch": 72,
      "velocity": 67,
      "startTime": 40.21041666666667,
      "duration": 0.05833333333333002,
      "endTime": 40.26875
    },
    {
      "instrumentId": 0,
      "instrumentName": "Umi no Machi Mieru.MID",
      "isPercussion": false,
      "pitch": 76,
      "velocity": 76,
      "startTime": 40.489583333333336,
      "duration": 0.05416666666666714,
      "endTime": 40.54375
    },
    {
      "instrumentId": 0,
      "instrumentName": "Umi no Machi Mieru.MID",
      "isPercussion": false,
      "pitch": 57,
      "velocity": 59,
      "startTime": 40.5,
      "duration": 0.03333333333333144,
      "endTime": 40.53333333333333
    },
    {
      "instrumentId": 0,
      "instrumentName": "Umi no Machi Mieru.MID",
      "isPercussion": false,
      "pitch": 79,
      "velocity": 83,
      "startTime": 40.760416666666664,
      "duration": 0.25416666666667,
      "endTime": 41.014583333333334
    },
    {
      "instrumentId": 0,
      "instrumentName": "Umi no Machi Mieru.MID",
      "isPercussion": false,
      "pitch": 50,
      "velocity": 67,
      "startTime": 41.03333333333333,
      "duration": 0.3229166666666714,
      "endTime": 41.35625
    },
    {
      "instrumentId": 0,
      "instrumentName": "Umi no Machi Mieru.MID",
      "isPercussion": false,
      "pitch": 78,
      "velocity": 72,
      "startTime": 41.0375,
      "duration": 0.24583333333333002,
      "endTime": 41.28333333333333
    },
    {
      "instrumentId": 0,
      "instrumentName": "Umi no Machi Mieru.MID",
      "isPercussion": false,
      "pitch": 79,
      "velocity": 78,
      "startTime": 41.329166666666666,
      "duration": 0.08541666666666714,
      "endTime": 41.41458333333333
    },
    {
      "instrumentId": 0,
      "instrumentName": "Umi no Machi Mieru.MID",
      "isPercussion": false,
      "pitch": 57,
      "velocity": 40,
      "startTime": 41.35625,
      "duration": 0.11041666666666572,
      "endTime": 41.46666666666667
    },
    {
      "instrumentId": 0,
      "instrumentName": "Umi no Machi Mieru.MID",
      "isPercussion": false,
      "pitch": 78,
      "velocity": 66,
      "startTime": 41.3875,
      "duration": 0.125,
      "endTime": 41.5125
    },
    {
      "instrumentId": 0,
      "instrumentName": "Umi no Machi Mieru.MID",
      "isPercussion": false,
      "pitch": 76,
      "velocity": 74,
      "startTime": 41.5125,
      "duration": 0.08958333333333002,
      "endTime": 41.60208333333333
    },
    {
      "instrumentId": 0,
      "instrumentName": "Umi no Machi Mieru.MID",
      "isPercussion": false,
      "pitch": 62,
      "velocity": 67,
      "startTime": 41.583333333333336,
      "duration": 0.14166666666666572,
      "endTime": 41.725
    },
    {
      "instrumentId": 0,
      "instrumentName": "Umi no Machi Mieru.MID",
      "isPercussion": false,
      "pitch": 74,
      "velocity": 87,
      "startTime": 41.59791666666666,
      "duration": 0.10208333333333997,
      "endTime": 41.7
    },
    {
      "instrumentId": 0,
      "instrumentName": "Umi no Machi Mieru.MID",
      "isPercussion": false,
      "pitch": 69,
      "velocity": 79,
      "startTime": 41.875,
      "duration": 0.04375000000000284,
      "endTime": 41.91875
    },
    {
      "instrumentId": 0,
      "instrumentName": "Umi no Machi Mieru.MID",
      "isPercussion": false,
      "pitch": 57,
      "velocity": 51,
      "startTime": 41.895833333333336,
      "duration": 0.03958333333333286,
      "endTime": 41.93541666666667
    },
    {
      "instrumentId": 0,
      "instrumentName": "Umi no Machi Mieru.MID",
      "isPercussion": false,
      "pitch": 71,
      "velocity": 73,
      "startTime": 42.15208333333333,
      "duration": 0.5708333333333329,
      "endTime": 42.72291666666666
    },
    {
      "instrumentId": 0,
      "instrumentName": "Umi no Machi Mieru.MID",
      "isPercussion": false,
      "pitch": 43,
      "velocity": 43,
      "startTime": 42.19583333333333,
      "duration": 0.5874999999999986,
      "endTime": 42.78333333333333
    },
    {
      "instrumentId": 0,
      "instrumentName": "Umi no Machi Mieru.MID",
      "isPercussion": false,
      "pitch": 62,
      "velocity": 69,
      "startTime": 42.43541666666667,
      "duration": 0.5958333333333314,
      "endTime": 43.03125
    },
    {
      "instrumentId": 0,
      "instrumentName": "Umi no Machi Mieru.MID",
      "isPercussion": false,
      "pitch": 50,
      "velocity": 61,
      "startTime": 42.4375,
      "duration": 0.4937499999999986,
      "endTime": 42.93125
    },
    {
      "instrumentId": 0,
      "instrumentName": "Umi no Machi Mieru.MID",
      "isPercussion": false,
      "pitch": 69,
      "velocity": 88,
      "startTime": 42.725,
      "duration": 0.2708333333333286,
      "endTime": 42.99583333333333
    },
    {
      "instrumentId": 0,
      "instrumentName": "Umi no Machi Mieru.MID",
      "isPercussion": false,
      "pitch": 57,
      "velocity": 61,
      "startTime": 42.729166666666664,
      "duration": 0.06666666666666998,
      "endTime": 42.795833333333334
    },
    {
      "instrumentId": 0,
      "instrumentName": "Umi no Machi Mieru.MID",
      "isPercussion": false,
      "pitch": 67,
      "velocity": 76,
      "startTime": 43.0125,
      "duration": 0.12708333333333144,
      "endTime": 43.139583333333334
    },
    {
      "instrumentId": 0,
      "instrumentName": "Umi no Machi Mieru.MID",
      "isPercussion": false,
      "pitch": 55,
      "velocity": 53,
      "startTime": 43.014583333333334,
      "duration": 0.04583333333333428,
      "endTime": 43.06041666666667
    },
    {
      "instrumentId": 0,
      "instrumentName": "Umi no Machi Mieru.MID",
      "isPercussion": false,
      "pitch": 66,
      "velocity": 84,
      "startTime": 43.297916666666666,
      "duration": 0.2708333333333357,
      "endTime": 43.56875
    },
    {
      "instrumentId": 0,
      "instrumentName": "Umi no Machi Mieru.MID",
      "isPercussion": false,
      "pitch": 54,
      "velocity": 71,
      "startTime": 43.297916666666666,
      "duration": 0.28541666666667,
      "endTime": 43.583333333333336
    },
    {
      "instrumentId": 0,
      "instrumentName": "Umi no Machi Mieru.MID",
      "isPercussion": false,
      "pitch": 47,
      "velocity": 71,
      "startTime": 43.31458333333333,
      "duration": 0.5874999999999986,
      "endTime": 43.90208333333333
    },
    {
      "instrumentId": 0,
      "instrumentName": "Umi no Machi Mieru.MID",
      "isPercussion": false,
      "pitch": 67,
      "velocity": 76,
      "startTime": 43.59375,
      "duration": 0.3270833333333343,
      "endTime": 43.920833333333334
    },
    {
      "instrumentId": 0,
      "instrumentName": "Umi no Machi Mieru.MID",
      "isPercussion": false,
      "pitch": 55,
      "velocity": 69,
      "startTime": 43.86875,
      "duration": 0.0520833333333357,
      "endTime": 43.920833333333334
    },
    {
      "instrumentId": 0,
      "instrumentName": "Umi no Machi Mieru.MID",
      "isPercussion": false,
      "pitch": 69,
      "velocity": 91,
      "startTime": 43.875,
      "duration": 0.08124999999999716,
      "endTime": 43.95625
    },
    {
      "instrumentId": 0,
      "instrumentName": "Umi no Machi Mieru.MID",
      "isPercussion": false,
      "pitch": 71,
      "velocity": 75,
      "startTime": 44.15833333333333,
      "duration": 0.22291666666666998,
      "endTime": 44.38125
    },
    {
      "instrumentId": 0,
      "instrumentName": "Umi no Machi Mieru.MID",
      "isPercussion": false,
      "pitch": 79,
      "velocity": 88,
      "startTime": 44.44375,
      "duration": 1.1583333333333314,
      "endTime": 45.60208333333333
    },
    {
      "instrumentId": 0,
      "instrumentName": "Umi no Machi Mieru.MID",
      "isPercussion": false,
      "pitch": 40,
      "velocity": 72,
      "startTime": 44.446875,
      "duration": 0.03958333333333286,
      "endTime": 44.48645833333333
    },
    {
      "instrumentId": 0,
      "instrumentName": "Umi no Machi Mieru.MID",
      "isPercussion": false,
      "pitch": 47,
      "velocity": 77,
      "startTime": 44.729166666666664,
      "duration": 0.033333333333338544,
      "endTime": 44.7625
    },
    {
      "instrumentId": 0,
      "instrumentName": "Umi no Machi Mieru.MID",
      "isPercussion": false,
      "pitch": 52,
      "velocity": 76,
      "startTime": 45.01875,
      "duration": 0.03125,
      "endTime": 45.05
    },
    {
      "instrumentId": 0,
      "instrumentName": "Umi no Machi Mieru.MID",
      "isPercussion": false,
      "pitch": 71,
      "velocity": 62,
      "startTime": 45.3,
      "duration": 0.31458333333333854,
      "endTime": 45.614583333333336
    },
    {
      "instrumentId": 0,
      "instrumentName": "Umi no Machi Mieru.MID",
      "isPercussion": false,
      "pitch": 78,
      "velocity": 82,
      "startTime": 45.59166666666667,
      "duration": 0.9979166666666615,
      "endTime": 46.58958333333333
    },
    {
      "instrumentId": 0,
      "instrumentName": "Umi no Machi Mieru.MID",
      "isPercussion": false,
      "pitch": 42,
      "velocity": 72,
      "startTime": 45.60625,
      "duration": 0.054166666666660035,
      "endTime": 45.66041666666666
    },
    {
      "instrumentId": 0,
      "instrumentName": "Umi no Machi Mieru.MID",
      "isPercussion": false,
      "pitch": 49,
      "velocity": 59,
      "startTime": 45.895833333333336,
      "duration": 0.0416666666666643,
      "endTime": 45.9375
    },
    {
      "instrumentId": 0,
      "instrumentName": "Umi no Machi Mieru.MID",
      "isPercussion": false,
      "pitch": 54,
      "velocity": 67,
      "startTime": 46.175,
      "duration": 0.04583333333333428,
      "endTime": 46.22083333333333
    },
    {
      "instrumentId": 0,
      "instrumentName": "Umi no Machi Mieru.MID",
      "isPercussion": false,
      "pitch": 71,
      "velocity": 60,
      "startTime": 46.46041666666667,
      "duration": 0.2875000000000014,
      "endTime": 46.74791666666667
    },
    {
      "instrumentId": 0,
      "instrumentName": "Umi no Machi Mieru.MID",
      "isPercussion": false,
      "pitch": 76,
      "velocity": 77,
      "startTime": 46.74166666666667,
      "duration": 0.5812499999999972,
      "endTime": 47.322916666666664
    },
    {
      "instrumentId": 0,
      "instrumentName": "Umi no Machi Mieru.MID",
      "isPercussion": false,
      "pitch": 43,
      "velocity": 73,
      "startTime": 46.74166666666667,
      "duration": 0.9041666666666686,
      "endTime": 47.645833333333336
    },
    {
      "instrumentId": 0,
      "instrumentName": "Umi no Machi Mieru.MID",
      "isPercussion": false,
      "pitch": 52,
      "velocity": 73,
      "startTime": 47.05,
      "duration": 0.04791666666666572,
      "endTime": 47.09791666666666
    },
    {
      "instrumentId": 0,
      "instrumentName": "Umi no Machi Mieru.MID",
      "isPercussion": false,
      "pitch": 74,
      "velocity": 83,
      "startTime": 47.327083333333334,
      "duration": 0.24166666666666714,
      "endTime": 47.56875
    },
    {
      "instrumentId": 0,
      "instrumentName": "Umi no Machi Mieru.MID",
      "isPercussion": false,
      "pitch": 52,
      "velocity": 73,
      "startTime": 47.614583333333336,
      "duration": 0.05833333333333002,
      "endTime": 47.672916666666666
    },
    {
      "instrumentId": 0,
      "instrumentName": "Umi no Machi Mieru.MID",
      "isPercussion": false,
      "pitch": 72,
      "velocity": 72,
      "startTime": 47.61875,
      "duration": 0.27291666666666714,
      "endTime": 47.891666666666666
    },
    {
      "instrumentId": 0,
      "instrumentName": "Umi no Machi Mieru.MID",
      "isPercussion": false,
      "pitch": 74,
      "velocity": 82,
      "startTime": 47.90208333333333,
      "duration": 0.9145833333333329,
      "endTime": 48.81666666666666
    },
    {
      "instrumentId": 0,
      "instrumentName": "Umi no Machi Mieru.MID",
      "isPercussion": false,
      "pitch": 44,
      "velocity": 77,
      "startTime": 47.91041666666666,
      "duration": 0.90625,
      "endTime": 48.81666666666666
    },
    {
      "instrumentId": 0,
      "instrumentName": "Umi no Machi Mieru.MID",
      "isPercussion": false,
      "pitch": 52,
      "velocity": 65,
      "startTime": 48.49583333333333,
      "duration": 0.0520833333333357,
      "endTime": 48.547916666666666
    },
    {
      "instrumentId": 0,
      "instrumentName": "Umi no Machi Mieru.MID",
      "isPercussion": false,
      "pitch": 52,
      "velocity": 66,
      "startTime": 48.78958333333333,
      "duration": 0.04583333333333428,
      "endTime": 48.83541666666667
    },
    {
      "instrumentId": 0,
      "instrumentName": "Umi no Machi Mieru.MID",
      "isPercussion": false,
      "pitch": 71,
      "velocity": 79,
      "startTime": 48.78958333333333,
      "duration": 0.10833333333333428,
      "endTime": 48.89791666666667
    },
    {
      "instrumentId": 0,
      "instrumentName": "Umi no Machi Mieru.MID",
      "isPercussion": false,
      "pitch": 69,
      "velocity": 76,
      "startTime": 49.06875,
      "duration": 0.2749999999999986,
      "endTime": 49.34375
    },
    {
      "instrumentId": 0,
      "instrumentName": "Umi no Machi Mieru.MID",
      "isPercussion": false,
      "pitch": 45,
      "velocity": 66,
      "startTime": 49.08125,
      "duration": 0.6437500000000043,
      "endTime": 49.725
    },
    {
      "instrumentId": 0,
      "instrumentName": "Umi no Machi Mieru.MID",
      "isPercussion": false,
      "pitch": 52,
      "velocity": 61,
      "startTime": 49.358333333333334,
      "duration": 0.4583333333333286,
      "endTime": 49.81666666666666
    },
    {
      "instrumentId": 0,
      "instrumentName": "Umi no Machi Mieru.MID",
      "isPercussion": false,
      "pitch": 72,
      "velocity": 81,
      "startTime": 49.364583333333336,
      "duration": 0.22083333333333144,
      "endTime": 49.58541666666667
    },
    {
      "instrumentId": 0,
      "instrumentName": "Umi no Machi Mieru.MID",
      "isPercussion": false,
      "pitch": 57,
      "velocity": 70,
      "startTime": 49.64791666666667,
      "duration": 0.12916666666666288,
      "endTime": 49.77708333333333
    },
    {
      "instrumentId": 0,
      "instrumentName": "Umi no Machi Mieru.MID",
      "isPercussion": false,
      "pitch": 76,
      "velocity": 74,
      "startTime": 49.65208333333333,
      "duration": 0.09375,
      "endTime": 49.74583333333333
    },
    {
      "instrumentId": 0,
      "instrumentName": "Umi no Machi Mieru.MID",
      "isPercussion": false,
      "pitch": 79,
      "velocity": 88,
      "startTime": 49.922916666666666,
      "duration": 0.0833333333333357,
      "endTime": 50.00625
    },
    {
      "instrumentId": 0,
      "instrumentName": "Umi no Machi Mieru.MID",
      "isPercussion": false,
      "pitch": 81,
      "velocity": 91,
      "startTime": 50.204166666666666,
      "duration": 0.12291666666666856,
      "endTime": 50.327083333333334
    },
    {
      "instrumentId": 0,
      "instrumentName": "Umi no Machi Mieru.MID",
      "isPercussion": false,
      "pitch": 74,
      "velocity": 69,
      "startTime": 50.21458333333333,
      "duration": 0.13750000000000284,
      "endTime": 50.35208333333333
    },
    {
      "instrumentId": 0,
      "instrumentName": "Umi no Machi Mieru.MID",
      "isPercussion": false,
      "pitch": 47,
      "velocity": 72,
      "startTime": 50.21458333333333,
      "duration": 0.8458333333333385,
      "endTime": 51.06041666666667
    },
    {
      "instrumentId": 0,
      "instrumentName": "Umi no Machi Mieru.MID",
      "isPercussion": false,
      "pitch": 83,
      "velocity": 87,
      "startTime": 50.50833333333333,
      "duration": 0.3020833333333357,
      "endTime": 50.81041666666667
    },
    {
      "instrumentId": 0,
      "instrumentName": "Umi no Machi Mieru.MID",
      "isPercussion": false,
      "pitch": 54,
      "velocity": 66,
      "startTime": 50.5125,
      "duration": 0.2749999999999986,
      "endTime": 50.7875
    },
    {
      "instrumentId": 0,
      "instrumentName": "Umi no Machi Mieru.MID",
      "isPercussion": false,
      "pitch": 59,
      "velocity": 69,
      "startTime": 50.797916666666666,
      "duration": 0.28958333333333286,
      "endTime": 51.0875
    },
    {
      "instrumentId": 0,
      "instrumentName": "Umi no Machi Mieru.MID",
      "isPercussion": false,
      "pitch": 78,
      "velocity": 82,
      "startTime": 50.81041666666667,
      "duration": 0.1979166666666643,
      "endTime": 51.00833333333333
    },
    {
      "instrumentId": 0,
      "instrumentName": "Umi no Machi Mieru.MID",
      "isPercussion": false,
      "pitch": 74,
      "velocity": 73,
      "startTime": 51.09166666666667,
      "duration": 0.06458333333333144,
      "endTime": 51.15625
    },
    {
      "instrumentId": 0,
      "instrumentName": "Umi no Machi Mieru.MID",
      "isPercussion": false,
      "pitch": 76,
      "velocity": 94,
      "startTime": 51.387499999999996,
      "duration": 0.5604166666666686,
      "endTime": 51.947916666666664
    },
    {
      "instrumentId": 0,
      "instrumentName": "Umi no Machi Mieru.MID",
      "isPercussion": false,
      "pitch": 40,
      "velocity": 73,
      "startTime": 51.389583333333334,
      "duration": 0.16041666666666288,
      "endTime": 51.55
    },
    {
      "instrumentId": 0,
      "instrumentName": "Umi no Machi Mieru.MID",
      "isPercussion": false,
      "pitch": 67,
      "velocity": 69,
      "startTime": 51.69583333333333,
      "duration": 0.23125000000000284,
      "endTime": 51.927083333333336
    },
    {
      "instrumentId": 0,
      "instrumentName": "Umi no Machi Mieru.MID",
      "isPercussion": false,
      "pitch": 52,
      "velocity": 65,
      "startTime": 51.97708333333333,
      "duration": 0.11041666666666572,
      "endTime": 52.0875
    },
    {
      "instrumentId": 0,
      "instrumentName": "Umi no Machi Mieru.MID",
      "isPercussion": false,
      "pitch": 71,
      "velocity": 79,
      "startTime": 51.9875,
      "duration": 0.46041666666666714,
      "endTime": 52.447916666666664
    },
    {
      "instrumentId": 0,
      "instrumentName": "Umi no Machi Mieru.MID",
      "isPercussion": false,
      "pitch": 55,
      "velocity": 66,
      "startTime": 52.266666666666666,
      "duration": 0.04791666666666572,
      "endTime": 52.31458333333333
    },
    {
      "instrumentId": 0,
      "instrumentName": "Umi no Machi Mieru.MID",
      "isPercussion": false,
      "pitch": 67,
      "velocity": 79,
      "startTime": 52.27291666666667,
      "duration": 0.6187499999999986,
      "endTime": 52.891666666666666
    },
    {
      "instrumentId": 0,
      "instrumentName": "Umi no Machi Mieru.MID",
      "isPercussion": false,
      "pitch": 64,
      "velocity": 74,
      "startTime": 52.57083333333333,
      "duration": 0.2875000000000014,
      "endTime": 52.858333333333334
    },
    {
      "instrumentId": 0,
      "instrumentName": "Umi no Machi Mieru.MID",
      "isPercussion": false,
      "pitch": 76,
      "velocity": 88,
      "startTime": 53.14375,
      "duration": 0.08958333333333712,
      "endTime": 53.233333333333334
    },
    {
      "instrumentId": 0,
      "instrumentName": "Umi no Machi Mieru.MID",
      "isPercussion": false,
      "pitch": 64,
      "velocity": 58,
      "startTime": 53.146875,
      "duration": 0.03541666666666288,
      "endTime": 53.182291666666664
    },
    {
      "instrumentId": 0,
      "instrumentName": "Umi no Machi Mieru.MID",
      "isPercussion": false,
      "pitch": 66,
      "velocity": 79,
      "startTime": 53.44166666666666,
      "duration": 0.0625,
      "endTime": 53.50416666666666
    },
    {
      "instrumentId": 0,
      "instrumentName": "Umi no Machi Mieru.MID",
      "isPercussion": false,
      "pitch": 78,
      "velocity": 83,
      "startTime": 53.44166666666666,
      "duration": 0.11041666666667282,
      "endTime": 53.552083333333336
    },
    {
      "instrumentId": 0,
      "instrumentName": "Umi no Machi Mieru.MID",
      "isPercussion": false,
      "pitch": 67,
      "velocity": 76,
      "startTime": 53.670833333333334,
      "duration": 0.10208333333333286,
      "endTime": 53.77291666666667
    },
    {
      "instrumentId": 0,
      "instrumentName": "Umi no Machi Mieru.MID",
      "isPercussion": false,
      "pitch": 72,
      "velocity": 71,
      "startTime": 53.739583333333336,
      "duration": 0.1145833333333286,
      "endTime": 53.854166666666664
    },
    {
      "instrumentId": 0,
      "instrumentName": "Umi no Machi Mieru.MID",
      "isPercussion": false,
      "pitch": 45,
      "velocity": 56,
      "startTime": 53.74583333333333,
      "duration": 0.40416666666666856,
      "endTime": 54.15
    },
    {
      "instrumentId": 0,
      "instrumentName": "Umi no Machi Mieru.MID",
      "isPercussion": false,
      "pitch": 79,
      "velocity": 91,
      "startTime": 53.76875,
      "duration": 0.12916666666666998,
      "endTime": 53.89791666666667
    },
    {
      "instrumentId": 0,
      "instrumentName": "Umi no Machi Mieru.MID",
      "isPercussion": false,
      "pitch": 52,
      "velocity": 66,
      "startTime": 54.0625,
      "duration": 0.19166666666666288,
      "endTime": 54.25416666666666
    },
    {
      "instrumentId": 0,
      "instrumentName": "Umi no Machi Mieru.MID",
      "isPercussion": false,
      "pitch": 79,
      "velocity": 80,
      "startTime": 54.077083333333334,
      "duration": 0.09791666666666288,
      "endTime": 54.175
    },
    {
      "instrumentId": 0,
      "instrumentName": "Umi no Machi Mieru.MID",
      "isPercussion": false,
      "pitch": 57,
      "velocity": 67,
      "startTime": 54.358333333333334,
      "duration": 0.03750000000000142,
      "endTime": 54.395833333333336
    },
    {
      "instrumentId": 0,
      "instrumentName": "Umi no Machi Mieru.MID",
      "isPercussion": false,
      "pitch": 79,
      "velocity": 83,
      "startTime": 54.358333333333334,
      "duration": 0.1041666666666643,
      "endTime": 54.4625
    },
    {
      "instrumentId": 0,
      "instrumentName": "Umi no Machi Mieru.MID",
      "isPercussion": false,
      "pitch": 60,
      "velocity": 66,
      "startTime": 54.645833333333336,
      "duration": 0.045833333333327175,
      "endTime": 54.69166666666666
    },
    {
      "instrumentId": 0,
      "instrumentName": "Umi no Machi Mieru.MID",
      "isPercussion": false,
      "pitch": 79,
      "velocity": 88,
      "startTime": 54.645833333333336,
      "duration": 0.10624999999999574,
      "endTime": 54.75208333333333
    },
    {
      "instrumentId": 0,
      "instrumentName": "Umi no Machi Mieru.MID",
      "isPercussion": false,
      "pitch": 72,
      "velocity": 87,
      "startTime": 54.925,
      "duration": 0.17916666666666714,
      "endTime": 55.104166666666664
    },
    {
      "instrumentId": 0,
      "instrumentName": "Umi no Machi Mieru.MID",
      "isPercussion": false,
      "pitch": 67,
      "velocity": 82,
      "startTime": 54.925,
      "duration": 0.24583333333333712,
      "endTime": 55.170833333333334
    },
    {
      "instrumentId": 0,
      "instrumentName": "Umi no Machi Mieru.MID",
      "isPercussion": false,
      "pitch": 79,
      "velocity": 87,
      "startTime": 54.925,
      "duration": 0.3500000000000014,
      "endTime": 55.275
    },
    {
      "instrumentId": 0,
      "instrumentName": "Umi no Machi Mieru.MID",
      "isPercussion": false,
      "pitch": 45,
      "velocity": 75,
      "startTime": 54.925,
      "duration": 0.3895833333333343,
      "endTime": 55.31458333333333
    },
    {
      "instrumentId": 0,
      "instrumentName": "Umi no Machi Mieru.MID",
      "isPercussion": false,
      "pitch": 78,
      "velocity": 81,
      "startTime": 55.24375,
      "duration": 0.23333333333333428,
      "endTime": 55.47708333333333
    },
    {
      "instrumentId": 0,
      "instrumentName": "Umi no Machi Mieru.MID",
      "isPercussion": false,
      "pitch": 52,
      "velocity": 59,
      "startTime": 55.24375,
      "duration": 0.33541666666666714,
      "endTime": 55.579166666666666
    },
    {
      "instrumentId": 0,
      "instrumentName": "Umi no Machi Mieru.MID",
      "isPercussion": false,
      "pitch": 76,
      "velocity": 76,
      "startTime": 55.525,
      "duration": 0.3062499999999986,
      "endTime": 55.83125
    },
    {
      "instrumentId": 0,
      "instrumentName": "Umi no Machi Mieru.MID",
      "isPercussion": false,
      "pitch": 57,
      "velocity": 53,
      "startTime": 55.545833333333334,
      "duration": 0.5104166666666643,
      "endTime": 56.05625
    },
    {
      "instrumentId": 0,
      "instrumentName": "Umi no Machi Mieru.MID",
      "isPercussion": false,
      "pitch": 78,
      "velocity": 87,
      "startTime": 55.81041666666667,
      "duration": 0.2979166666666657,
      "endTime": 56.108333333333334
    },
    {
      "instrumentId": 0,
      "instrumentName": "Umi no Machi Mieru.MID",
      "isPercussion": false,
      "pitch": 47,
      "velocity": 78,
      "startTime": 56.08958333333333,
      "duration": 1.8625000000000043,
      "endTime": 57.952083333333334
    },
    {
      "instrumentId": 0,
      "instrumentName": "Umi no Machi Mieru.MID",
      "isPercussion": false,
      "pitch": 74,
      "velocity": 95,
      "startTime": 56.09791666666666,
      "duration": 0.056250000000005684,
      "endTime": 56.15416666666667
    },
    {
      "instrumentId": 0,
      "instrumentName": "Umi no Machi Mieru.MID",
      "isPercussion": false,
      "pitch": 62,
      "velocity": 66,
      "startTime": 56.391666666666666,
      "duration": 0.28333333333333144,
      "endTime": 56.675
    },
    {
      "instrumentId": 0,
      "instrumentName": "Umi no Machi Mieru.MID",
      "isPercussion": false,
      "pitch": 66,
      "velocity": 72,
      "startTime": 56.699999999999996,
      "duration": 0.25833333333333997,
      "endTime": 56.958333333333336
    },
    {
      "instrumentId": 0,
      "instrumentName": "Umi no Machi Mieru.MID",
      "isPercussion": false,
      "pitch": 62,
      "velocity": 67,
      "startTime": 56.9875,
      "duration": 0.8937500000000043,
      "endTime": 57.88125
    },
    {
      "instrumentId": 0,
      "instrumentName": "Umi no Machi Mieru.MID",
      "isPercussion": false,
      "pitch": 74,
      "velocity": 91,
      "startTime": 57.27708333333333,
      "duration": 0.28333333333333854,
      "endTime": 57.56041666666667
    },
    {
      "instrumentId": 0,
      "instrumentName": "Umi no Machi Mieru.MID",
      "isPercussion": false,
      "pitch": 59,
      "velocity": 66,
      "startTime": 57.28333333333333,
      "duration": 0.6395833333333343,
      "endTime": 57.922916666666666
    },
    {
      "instrumentId": 0,
      "instrumentName": "Umi no Machi Mieru.MID",
      "isPercussion": false,
      "pitch": 72,
      "velocity": 73,
      "startTime": 57.58125,
      "duration": 0.25833333333333286,
      "endTime": 57.83958333333333
    },
    {
      "instrumentId": 0,
      "instrumentName": "Umi no Machi Mieru.MID",
      "isPercussion": false,
      "pitch": 54,
      "velocity": 69,
      "startTime": 57.87291666666667,
      "duration": 0.09999999999999432,
      "endTime": 57.97291666666666
    },
    {
      "instrumentId": 0,
      "instrumentName": "Umi no Machi Mieru.MID",
      "isPercussion": false,
      "pitch": 71,
      "velocity": 76,
      "startTime": 57.875,
      "duration": 0.11041666666666572,
      "endTime": 57.985416666666666
    },
    {
      "instrumentId": 0,
      "instrumentName": "Umi no Machi Mieru.MID",
      "isPercussion": false,
      "pitch": 72,
      "velocity": 79,
      "startTime": 58.17916666666667,
      "duration": 0.13958333333333428,
      "endTime": 58.31875
    },
    {
      "instrumentId": 0,
      "instrumentName": "Umi no Machi Mieru.MID",
      "isPercussion": false,
      "pitch": 74,
      "velocity": 88,
      "startTime": 58.31041666666667,
      "duration": 0.125,
      "endTime": 58.43541666666667
    },
    {
      "instrumentId": 0,
      "instrumentName": "Umi no Machi Mieru.MID",
      "isPercussion": false,
      "pitch": 76,
      "velocity": 88,
      "startTime": 58.454166666666666,
      "duration": 0.125,
      "endTime": 58.579166666666666
    },
    {
      "instrumentId": 0,
      "instrumentName": "Umi no Machi Mieru.MID",
      "isPercussion": false,
      "pitch": 67,
      "velocity": 80,
      "startTime": 58.454166666666666,
      "duration": 0.12916666666666998,
      "endTime": 58.583333333333336
    },
    {
      "instrumentId": 0,
      "instrumentName": "Umi no Machi Mieru.MID",
      "isPercussion": false,
      "pitch": 48,
      "velocity": 79,
      "startTime": 58.46458333333333,
      "duration": 0.33125000000000426,
      "endTime": 58.795833333333334
    },
    {
      "instrumentId": 0,
      "instrumentName": "Umi no Machi Mieru.MID",
      "isPercussion": false,
      "pitch": 76,
      "velocity": 81,
      "startTime": 58.75833333333333,
      "duration": 0.09583333333333144,
      "endTime": 58.854166666666664
    },
    {
      "instrumentId": 0,
      "instrumentName": "Umi no Machi Mieru.MID",
      "isPercussion": false,
      "pitch": 55,
      "velocity": 73,
      "startTime": 58.75833333333333,
      "duration": 0.13125000000000142,
      "endTime": 58.889583333333334
    },
    {
      "instrumentId": 0,
      "instrumentName": "Umi no Machi Mieru.MID",
      "isPercussion": false,
      "pitch": 76,
      "velocity": 87,
      "startTime": 59.03958333333333,
      "duration": 0.09375,
      "endTime": 59.13333333333333
    },
    {
      "instrumentId": 0,
      "instrumentName": "Umi no Machi Mieru.MID",
      "isPercussion": false,
      "pitch": 60,
      "velocity": 65,
      "startTime": 59.047916666666666,
      "duration": 0.04791666666666572,
      "endTime": 59.09583333333333
    },
    {
      "instrumentId": 0,
      "instrumentName": "Umi no Machi Mieru.MID",
      "isPercussion": false,
      "pitch": 76,
      "velocity": 74,
      "startTime": 59.327083333333334,
      "duration": 0.11874999999999858,
      "endTime": 59.44583333333333
    },
    {
      "instrumentId": 0,
      "instrumentName": "Umi no Machi Mieru.MID",
      "isPercussion": false,
      "pitch": 64,
      "velocity": 57,
      "startTime": 59.33541666666667,
      "duration": 0.04374999999999574,
      "endTime": 59.37916666666666
    },
    {
      "instrumentId": 0,
      "instrumentName": "Umi no Machi Mieru.MID",
      "isPercussion": false,
      "pitch": 76,
      "velocity": 92,
      "startTime": 59.62083333333333,
      "duration": 0.33541666666666714,
      "endTime": 59.95625
    },
    {
      "instrumentId": 0,
      "instrumentName": "Umi no Machi Mieru.MID",
      "isPercussion": false,
      "pitch": 45,
      "velocity": 66,
      "startTime": 59.62083333333333,
      "duration": 0.3500000000000014,
      "endTime": 59.97083333333333
    },
    {
      "instrumentId": 0,
      "instrumentName": "Umi no Machi Mieru.MID",
      "isPercussion": false,
      "pitch": 67,
      "velocity": 77,
      "startTime": 59.635416666666664,
      "duration": 0.4166666666666714,
      "endTime": 60.052083333333336
    },
    {
      "instrumentId": 0,
      "instrumentName": "Umi no Machi Mieru.MID",
      "isPercussion": false,
      "pitch": 52,
      "velocity": 58,
      "startTime": 59.927083333333336,
      "duration": 0.40625,
      "endTime": 60.333333333333336
    },
    {
      "instrumentId": 0,
      "instrumentName": "Umi no Machi Mieru.MID",
      "isPercussion": false,
      "pitch": 74,
      "velocity": 80,
      "startTime": 59.93125,
      "duration": 0.28541666666667,
      "endTime": 60.21666666666667
    },
    {
      "instrumentId": 0,
      "instrumentName": "Umi no Machi Mieru.MID",
      "isPercussion": false,
      "pitch": 57,
      "velocity": 69,
      "startTime": 60.20625,
      "duration": 0.11250000000000426,
      "endTime": 60.31875
    },
    {
      "instrumentId": 0,
      "instrumentName": "Umi no Machi Mieru.MID",
      "isPercussion": false,
      "pitch": 72,
      "velocity": 83,
      "startTime": 60.20625,
      "duration": 0.25833333333333286,
      "endTime": 60.46458333333333
    },
    {
      "instrumentId": 0,
      "instrumentName": "Umi no Machi Mieru.MID",
      "isPercussion": false,
      "pitch": 74,
      "velocity": 82,
      "startTime": 60.49583333333333,
      "duration": 0.3020833333333357,
      "endTime": 60.797916666666666
    },
    {
      "instrumentId": 0,
      "instrumentName": "Umi no Machi Mieru.MID",
      "isPercussion": false,
      "pitch": 71,
      "velocity": 72,
      "startTime": 60.791666666666664,
      "duration": 1.2375000000000043,
      "endTime": 62.02916666666667
    },
    {
      "instrumentId": 0,
      "instrumentName": "Umi no Machi Mieru.MID",
      "isPercussion": false,
      "pitch": 43,
      "velocity": 71,
      "startTime": 60.791666666666664,
      "duration": 1.7875000000000014,
      "endTime": 62.579166666666666
    },
    {
      "instrumentId": 0,
      "instrumentName": "Umi no Machi Mieru.MID",
      "isPercussion": false,
      "pitch": 62,
      "velocity": 74,
      "startTime": 61.09166666666667,
      "duration": 0.35208333333333286,
      "endTime": 61.44375
    },
    {
      "instrumentId": 0,
      "instrumentName": "Umi no Machi Mieru.MID",
      "isPercussion": false,
      "pitch": 50,
      "velocity": 61,
      "startTime": 61.10208333333333,
      "duration": 1.55833333333333,
      "endTime": 62.66041666666666
    },
    {
      "instrumentId": 0,
      "instrumentName": "Umi no Machi Mieru.MID",
      "isPercussion": false,
      "pitch": 59,
      "velocity": 71,
      "startTime": 61.4,
      "duration": 0.10625000000000284,
      "endTime": 61.50625
    },
    {
      "instrumentId": 0,
      "instrumentName": "Umi no Machi Mieru.MID",
      "isPercussion": false,
      "pitch": 67,
      "velocity": 87,
      "startTime": 61.401041666666664,
      "duration": 0.8052083333333329,
      "endTime": 62.20625
    },
    {
      "instrumentId": 0,
      "instrumentName": "Umi no Machi Mieru.MID",
      "isPercussion": false,
      "pitch": 62,
      "velocity": 74,
      "startTime": 61.702083333333334,
      "duration": 0.2562500000000014,
      "endTime": 61.958333333333336
    },
    {
      "instrumentId": 0,
      "instrumentName": "Umi no Machi Mieru.MID",
      "isPercussion": false,
      "pitch": 55,
      "velocity": 64,
      "startTime": 61.981249999999996,
      "duration": 0.9354166666666686,
      "endTime": 62.916666666666664
    },
    {
      "instrumentId": 0,
      "instrumentName": "Umi no Machi Mieru.MID",
      "isPercussion": false,
      "pitch": 62,
      "velocity": 79,
      "startTime": 62.25416666666666,
      "duration": 0.2562500000000014,
      "endTime": 62.510416666666664
    },
    {
      "instrumentId": 0,
      "instrumentName": "Umi no Machi Mieru.MID",
      "isPercussion": false,
      "pitch": 67,
      "velocity": 87,
      "startTime": 62.547916666666666,
      "duration": 0.2749999999999986,
      "endTime": 62.822916666666664
    },
    {
      "instrumentId": 0,
      "instrumentName": "Umi no Machi Mieru.MID",
      "isPercussion": false,
      "pitch": 71,
      "velocity": 85,
      "startTime": 62.833333333333336,
      "duration": 0.0833333333333286,
      "endTime": 62.916666666666664
    },
    {
      "instrumentId": 0,
      "instrumentName": "Umi no Machi Mieru.MID",
      "isPercussion": false,
      "pitch": 68,
      "velocity": 87,
      "startTime": 63.12291666666667,
      "duration": 0.17291666666666572,
      "endTime": 63.295833333333334
    },
    {
      "instrumentId": 0,
      "instrumentName": "Umi no Machi Mieru.MID",
      "isPercussion": false,
      "pitch": 45,
      "velocity": 75,
      "startTime": 63.12291666666667,
      "duration": 0.7416666666666671,
      "endTime": 63.864583333333336
    },
    {
      "instrumentId": 0,
      "instrumentName": "Umi no Machi Mieru.MID",
      "isPercussion": false,
      "pitch": 69,
      "velocity": 87,
      "startTime": 63.418749999999996,
      "duration": 0.25208333333333854,
      "endTime": 63.670833333333334
    },
    {
      "instrumentId": 0,
      "instrumentName": "Umi no Machi Mieru.MID",
      "isPercussion": false,
      "pitch": 52,
      "velocity": 56,
      "startTime": 63.43958333333333,
      "duration": 0.5,
      "endTime": 63.93958333333333
    },
    {
      "instrumentId": 0,
      "instrumentName": "Umi no Machi Mieru.MID",
      "isPercussion": false,
      "pitch": 72,
      "velocity": 89,
      "startTime": 63.704166666666666,
      "duration": 0.28541666666667,
      "endTime": 63.989583333333336
    },
    {
      "instrumentId": 0,
      "instrumentName": "Umi no Machi Mieru.MID",
      "isPercussion": false,
      "pitch": 57,
      "velocity": 56,
      "startTime": 63.71458333333333,
      "duration": 0.15625,
      "endTime": 63.87083333333333
    },
    {
      "instrumentId": 0,
      "instrumentName": "Umi no Machi Mieru.MID",
      "isPercussion": false,
      "pitch": 76,
      "velocity": 88,
      "startTime": 64.0,
      "duration": 0.2916666666666714,
      "endTime": 64.29166666666667
    },
    {
      "instrumentId": 0,
      "instrumentName": "Umi no Machi Mieru.MID",
      "isPercussion": false,
      "pitch": 74,
      "velocity": 91,
      "startTime": 64.29166666666667,
      "duration": 0.20624999999999716,
      "endTime": 64.49791666666667
    },
    {
      "instrumentId": 0,
      "instrumentName": "Umi no Machi Mieru.MID",
      "isPercussion": false,
      "pitch": 42,
      "velocity": 72,
      "startTime": 64.29166666666667,
      "duration": 0.2958333333333343,
      "endTime": 64.5875
    },
    {
      "instrumentId": 0,
      "instrumentName": "Umi no Machi Mieru.MID",
      "isPercussion": false,
      "pitch": 62,
      "velocity": 71,
      "startTime": 64.58333333333333,
      "duration": 0.1354166666666714,
      "endTime": 64.71875
    },
    {
      "instrumentId": 0,
      "instrumentName": "Umi no Machi Mieru.MID",
      "isPercussion": false,
      "pitch": 49,
      "velocity": 57,
      "startTime": 64.60208333333333,
      "duration": 0.31458333333334565,
      "endTime": 64.91666666666667
    },
    {
      "instrumentId": 0,
      "instrumentName": "Umi no Machi Mieru.MID",
      "isPercussion": false,
      "pitch": 57,
      "velocity": 61,
      "startTime": 64.88958333333333,
      "duration": 0.039583333333325754,
      "endTime": 64.92916666666666
    },
    {
      "instrumentId": 0,
      "instrumentName": "Umi no Machi Mieru.MID",
      "isPercussion": false,
      "pitch": 69,
      "velocity": 80,
      "startTime": 64.88958333333333,
      "duration": 0.2708333333333286,
      "endTime": 65.16041666666666
    },
    {
      "instrumentId": 0,
      "instrumentName": "Umi no Machi Mieru.MID",
      "isPercussion": false,
      "pitch": 72,
      "velocity": 87,
      "startTime": 65.17291666666667,
      "duration": 0.08750000000000568,
      "endTime": 65.26041666666667
    },
    {
      "instrumentId": 0,
      "instrumentName": "Umi no Machi Mieru.MID",
      "isPercussion": false,
      "pitch": 70,
      "velocity": 83,
      "startTime": 65.46666666666667,
      "duration": 0.17291666666666572,
      "endTime": 65.63958333333333
    },
    {
      "instrumentId": 0,
      "instrumentName": "Umi no Machi Mieru.MID",
      "isPercussion": false,
      "pitch": 47,
      "velocity": 73,
      "startTime": 65.47291666666666,
      "duration": 0.5833333333333428,
      "endTime": 66.05625
    },
    {
      "instrumentId": 0,
      "instrumentName": "Umi no Machi Mieru.MID",
      "isPercussion": false,
      "pitch": 71,
      "velocity": 76,
      "startTime": 65.7625,
      "duration": 0.2708333333333286,
      "endTime": 66.03333333333333
    },
    {
      "instrumentId": 0,
      "instrumentName": "Umi no Machi Mieru.MID",
      "isPercussion": false,
      "pitch": 54,
      "velocity": 55,
      "startTime": 65.77916666666667,
      "duration": 0.4104166666666629,
      "endTime": 66.18958333333333
    },
    {
      "instrumentId": 0,
      "instrumentName": "Umi no Machi Mieru.MID",
      "isPercussion": false,
      "pitch": 59,
      "velocity": 69,
      "startTime": 66.05625,
      "duration": 0.04166666666665719,
      "endTime": 66.09791666666666
    },
    {
      "instrumentId": 0,
      "instrumentName": "Umi no Machi Mieru.MID",
      "isPercussion": false,
      "pitch": 74,
      "velocity": 83,
      "startTime": 66.05625,
      "duration": 0.2916666666666572,
      "endTime": 66.34791666666666
    },
    {
      "instrumentId": 0,
      "instrumentName": "Umi no Machi Mieru.MID",
      "isPercussion": false,
      "pitch": 79,
      "velocity": 78,
      "startTime": 66.35416666666667,
      "duration": 0.10416666666665719,
      "endTime": 66.45833333333333
    },
    {
      "instrumentId": 0,
      "instrumentName": "Umi no Machi Mieru.MID",
      "isPercussion": false,
      "pitch": 71,
      "velocity": 64,
      "startTime": 66.53333333333333,
      "duration": 0.6749999999999972,
      "endTime": 67.20833333333333
    },
    {
      "instrumentId": 0,
      "instrumentName": "Umi no Machi Mieru.MID",
      "isPercussion": false,
      "pitch": 74,
      "velocity": 71,
      "startTime": 66.58958333333334,
      "duration": 0.3062499999999915,
      "endTime": 66.89583333333333
    },
    {
      "instrumentId": 0,
      "instrumentName": "Umi no Machi Mieru.MID",
      "isPercussion": false,
      "pitch": 81,
      "velocity": 91,
      "startTime": 66.65833333333333,
      "duration": 0.3333333333333286,
      "endTime": 66.99166666666666
    },
    {
      "instrumentId": 0,
      "instrumentName": "Umi no Machi Mieru.MID",
      "isPercussion": false,
      "pitch": 40,
      "velocity": 68,
      "startTime": 66.65833333333333,
      "duration": 0.59375,
      "endTime": 67.25208333333333
    },
    {
      "instrumentId": 0,
      "instrumentName": "Umi no Machi Mieru.MID",
      "isPercussion": false,
      "pitch": 79,
      "velocity": 72,
      "startTime": 66.96041666666666,
      "duration": 0.2770833333333371,
      "endTime": 67.2375
    },
    {
      "instrumentId": 0,
      "instrumentName": "Umi no Machi Mieru.MID",
      "isPercussion": false,
      "pitch": 78,
      "velocity": 78,
      "startTime": 67.23958333333333,
      "duration": 0.2958333333333343,
      "endTime": 67.53541666666666
    },
    {
      "instrumentId": 0,
      "instrumentName": "Umi no Machi Mieru.MID",
      "isPercussion": false,
      "pitch": 79,
      "velocity": 73,
      "startTime": 67.525,
      "duration": 0.07291666666665719,
      "endTime": 67.59791666666666
    },
    {
      "instrumentId": 0,
      "instrumentName": "Umi no Machi Mieru.MID",
      "isPercussion": false,
      "pitch": 76,
      "velocity": 77,
      "startTime": 67.825,
      "duration": 0.42916666666666003,
      "endTime": 68.25416666666666
    },
    {
      "instrumentId": 0,
      "instrumentName": "Umi no Machi Mieru.MID",
      "isPercussion": false,
      "pitch": 83,
      "velocity": 89,
      "startTime": 67.82916666666667,
      "duration": 0.7083333333333286,
      "endTime": 68.5375
    },
    {
      "instrumentId": 0,
      "instrumentName": "Umi no Machi Mieru.MID",
      "isPercussion": false,
      "pitch": 73,
      "velocity": 65,
      "startTime": 67.82916666666667,
      "duration": 0.7645833333333343,
      "endTime": 68.59375
    },
    {
      "instrumentId": 0,
      "instrumentName": "Umi no Machi Mieru.MID",
      "isPercussion": false,
      "pitch": 45,
      "velocity": 59,
      "startTime": 67.82916666666667,
      "duration": 3.7833333333333314,
      "endTime": 71.6125
    },
    {
      "instrumentId": 0,
      "instrumentName": "Umi no Machi Mieru.MID",
      "isPercussion": false,
      "pitch": 52,
      "velocity": 63,
      "startTime": 67.82916666666667,
      "duration": 3.8145833333333314,
      "endTime": 71.64375
    },
    {
      "instrumentId": 0,
      "instrumentName": "Umi no Machi Mieru.MID",
      "isPercussion": false,
      "pitch": 81,
      "velocity": 73,
      "startTime": 68.66458333333333,
      "duration": 0.11875000000000568,
      "endTime": 68.78333333333333
    },
    {
      "instrumentId": 0,
      "instrumentName": "Umi no Machi Mieru.MID",
      "isPercussion": false,
      "pitch": 83,
      "velocity": 79,
      "startTime": 68.80416666666666,
      "duration": 0.09166666666666856,
      "endTime": 68.89583333333333
    },
    {
      "instrumentId": 0,
      "instrumentName": "Umi no Machi Mieru.MID",
      "isPercussion": false,
      "pitch": 76,
      "velocity": 81,
      "startTime": 68.97916666666667,
      "duration": 0.21666666666665435,
      "endTime": 69.19583333333333
    },
    {
      "instrumentId": 0,
      "instrumentName": "Umi no Machi Mieru.MID",
      "isPercussion": false,
      "pitch": 73,
      "velocity": 81,
      "startTime": 68.97916666666667,
      "duration": 0.22499999999999432,
      "endTime": 69.20416666666667
    },
    {
      "instrumentId": 0,
      "instrumentName": "Umi no Machi Mieru.MID",
      "isPercussion": false,
      "pitch": 74,
      "velocity": 82,
      "startTime": 69.76875,
      "duration": 0.09791666666666288,
      "endTime": 69.86666666666666
    },
    {
      "instrumentId": 0,
      "instrumentName": "Umi no Machi Mieru.MID",
      "isPercussion": false,
      "pitch": 76,
      "velocity": 83,
      "startTime": 69.925,
      "duration": 0.10208333333333997,
      "endTime": 70.02708333333334
    },
    {
      "instrumentId": 0,
      "instrumentName": "Umi no Machi Mieru.MID",
      "isPercussion": false,
      "pitch": 67,
      "velocity": 87,
      "startTime": 70.08333333333333,
      "duration": 0.13125000000000853,
      "endTime": 70.21458333333334
    },
    {
      "instrumentId": 0,
      "instrumentName": "Umi no Machi Mieru.MID",
      "isPercussion": false,
      "pitch": 71,
      "velocity": 84,
      "startTime": 70.09166666666667,
      "duration": 0.16249999999999432,
      "endTime": 70.25416666666666
    },
    {
      "instrumentId": 0,
      "instrumentName": "Umi no Machi Mieru.MID",
      "isPercussion": false,
      "pitch": 69,
      "velocity": 57,
      "startTime": 70.9,
      "duration": 0.0833333333333286,
      "endTime": 70.98333333333333
    },
    {
      "instrumentId": 0,
      "instrumentName": "Umi no Machi Mieru.MID",
      "isPercussion": false,
      "pitch": 71,
      "velocity": 74,
      "startTime": 71.04375,
      "duration": 0.12708333333333144,
      "endTime": 71.17083333333333
    },
    {
      "instrumentId": 0,
      "instrumentName": "Umi no Machi Mieru.MID",
      "isPercussion": false,
      "pitch": 64,
      "velocity": 85,
      "startTime": 71.21041666666666,
      "duration": 0.09166666666666856,
      "endTime": 71.30208333333333
    },
    {
      "instrumentId": 0,
      "instrumentName": "Umi no Machi Mieru.MID",
      "isPercussion": false,
      "pitch": 54,
      "velocity": 55,
      "startTime": 72.4,
      "duration": 1.1604166666666629,
      "endTime": 73.56041666666667
    },
    {
      "instrumentId": 0,
      "instrumentName": "Umi no Machi Mieru.MID",
      "isPercussion": false,
      "pitch": 59,
      "velocity": 58,
      "startTime": 72.4,
      "duration": 1.1958333333333258,
      "endTime": 73.59583333333333
    },
    {
      "instrumentId": 0,
      "instrumentName": "Umi no Machi Mieru.MID",
      "isPercussion": false,
      "pitch": 47,
      "velocity": 53,
      "startTime": 72.4,
      "duration": 1.1979166666666572,
      "endTime": 73.59791666666666
    },
    {
      "instrumentId": 0,
      "instrumentName": "Umi no Machi Mieru.MID",
      "isPercussion": false,
      "pitch": 66,
      "velocity": 69,
      "startTime": 72.4,
      "duration": 1.2312499999999886,
      "endTime": 73.63125
    },
    {
      "instrumentId": 0,
      "instrumentName": "Umi no Machi Mieru.MID",
      "isPercussion": false,
      "pitch": 63,
      "velocity": 64,
      "startTime": 72.41666666666667,
      "duration": 1.1979166666666572,
      "endTime": 73.61458333333333
    },
    {
      "instrumentId": 0,
      "instrumentName": "Umi no Machi Mieru.MID",
      "isPercussion": false,
      "pitch": 59,
      "velocity": 62,
      "startTime": 74.11666666666666,
      "duration": 0.3229166666666714,
      "endTime": 74.43958333333333
    },
    {
      "instrumentId": 0,
      "instrumentName": "Umi no Machi Mieru.MID",
      "isPercussion": false,
      "pitch": 67,
      "velocity": 77,
      "startTime": 74.425,
      "duration": 0.9520833333333343,
      "endTime": 75.37708333333333
    },
    {
      "instrumentId": 0,
      "instrumentName": "Umi no Machi Mieru.MID",
      "isPercussion": false,
      "pitch": 40,
      "velocity": 47,
      "startTime": 74.43333333333334,
      "duration": 0.39374999999999716,
      "endTime": 74.82708333333333
    },
    {
      "instrumentId": 0,
      "instrumentName": "Umi no Machi Mieru.MID",
      "isPercussion": false,
      "pitch": 47,
      "velocity": 53,
      "startTime": 74.71666666666667,
      "duration": 0.32083333333332575,
      "endTime": 75.0375
    },
    {
      "instrumentId": 0,
      "instrumentName": "Umi no Machi Mieru.MID",
      "isPercussion": false,
      "pitch": 52,
      "velocity": 61,
      "startTime": 75.00833333333333,
      "duration": 0.0625,
      "endTime": 75.07083333333333
    },
    {
      "instrumentId": 0,
      "instrumentName": "Umi no Machi Mieru.MID",
      "isPercussion": false,
      "pitch": 59,
      "velocity": 60,
      "startTime": 75.29166666666667,
      "duration": 0.28958333333332575,
      "endTime": 75.58125
    },
    {
      "instrumentId": 0,
      "instrumentName": "Umi no Machi Mieru.MID",
      "isPercussion": false,
      "pitch": 47,
      "velocity": 61,
      "startTime": 75.57291666666667,
      "duration": 0.23541666666666572,
      "endTime": 75.80833333333334
    },
    {
      "instrumentId": 0,
      "instrumentName": "Umi no Machi Mieru.MID",
      "isPercussion": false,
      "pitch": 66,
      "velocity": 76,
      "startTime": 75.5875,
      "duration": 1.0749999999999886,
      "endTime": 76.6625
    },
    {
      "instrumentId": 0,
      "instrumentName": "Umi no Machi Mieru.MID",
      "isPercussion": false,
      "pitch": 50,
      "velocity": 54,
      "startTime": 75.87916666666666,
      "duration": 0.1875,
      "endTime": 76.06666666666666
    },
    {
      "instrumentId": 0,
      "instrumentName": "Umi no Machi Mieru.MID",
      "isPercussion": false,
      "pitch": 54,
      "velocity": 54,
      "startTime": 76.16041666666666,
      "duration": 0.03541666666666288,
      "endTime": 76.19583333333333
    },
    {
      "instrumentId": 0,
      "instrumentName": "Umi no Machi Mieru.MID",
      "isPercussion": false,
      "pitch": 59,
      "velocity": 61,
      "startTime": 76.42291666666667,
      "duration": 0.2708333333333286,
      "endTime": 76.69375
    },
    {
      "instrumentId": 0,
      "instrumentName": "Umi no Machi Mieru.MID",
      "isPercussion": false,
      "pitch": 48,
      "velocity": 59,
      "startTime": 76.69375,
      "duration": 0.5979166666666771,
      "endTime": 77.29166666666667
    },
    {
      "instrumentId": 0,
      "instrumentName": "Umi no Machi Mieru.MID",
      "isPercussion": false,
      "pitch": 64,
      "velocity": 72,
      "startTime": 76.70833333333333,
      "duration": 0.5750000000000028,
      "endTime": 77.28333333333333
    },
    {
      "instrumentId": 0,
      "instrumentName": "Umi no Machi Mieru.MID",
      "isPercussion": false,
      "pitch": 55,
      "velocity": 51,
      "startTime": 77.04166666666667,
      "duration": 0.14166666666666572,
      "endTime": 77.18333333333334
    },
    {
      "instrumentId": 0,
      "instrumentName": "Umi no Machi Mieru.MID",
      "isPercussion": false,
      "pitch": 62,
      "velocity": 72,
      "startTime": 77.30208333333333,
      "duration": 0.26874999999999716,
      "endTime": 77.57083333333333
    },
    {
      "instrumentId": 0,
      "instrumentName": "Umi no Machi Mieru.MID",
      "isPercussion": false,
      "pitch": 60,
      "velocity": 66,
      "startTime": 77.59583333333333,
      "duration": 0.2916666666666714,
      "endTime": 77.8875
    },
    {
      "instrumentId": 0,
      "instrumentName": "Umi no Machi Mieru.MID",
      "isPercussion": false,
      "pitch": 47,
      "velocity": 61,
      "startTime": 77.89166666666667,
      "duration": 0.23333333333333428,
      "endTime": 78.125
    },
    {
      "instrumentId": 0,
      "instrumentName": "Umi no Machi Mieru.MID",
      "isPercussion": false,
      "pitch": 62,
      "velocity": 76,
      "startTime": 77.89166666666667,
      "duration": 0.39374999999999716,
      "endTime": 78.28541666666666
    },
    {
      "instrumentId": 0,
      "instrumentName": "Umi no Machi Mieru.MID",
      "isPercussion": false,
      "pitch": 50,
      "velocity": 53,
      "startTime": 78.16875,
      "duration": 0.3604166666666657,
      "endTime": 78.52916666666667
    },
    {
      "instrumentId": 0,
      "instrumentName": "Umi no Machi Mieru.MID",
      "isPercussion": false,
      "pitch": 54,
      "velocity": 55,
      "startTime": 78.47916666666667,
      "duration": 0.04791666666666572,
      "endTime": 78.52708333333334
    },
    {
      "instrumentId": 0,
      "instrumentName": "Umi no Machi Mieru.MID",
      "isPercussion": false,
      "pitch": 55,
      "velocity": 64,
      "startTime": 78.75833333333333,
      "duration": 0.05208333333334281,
      "endTime": 78.81041666666667
    },
    {
      "instrumentId": 0,
      "instrumentName": "Umi no Machi Mieru.MID",
      "isPercussion": false,
      "pitch": 45,
      "velocity": 71,
      "startTime": 79.03958333333333,
      "duration": 0.39375000000001137,
      "endTime": 79.43333333333334
    },
    {
      "instrumentId": 0,
      "instrumentName": "Umi no Machi Mieru.MID",
      "isPercussion": false,
      "pitch": 57,
      "velocity": 79,
      "startTime": 79.05208333333333,
      "duration": 0.21250000000000568,
      "endTime": 79.26458333333333
    },
    {
      "instrumentId": 0,
      "instrumentName": "Umi no Machi Mieru.MID",
      "isPercussion": false,
      "pitch": 60,
      "velocity": 75,
      "startTime": 79.34583333333333,
      "duration": 0.1770833333333286,
      "endTime": 79.52291666666666
    },
    {
      "instrumentId": 0,
      "instrumentName": "Umi no Machi Mieru.MID",
      "isPercussion": false,
      "pitch": 52,
      "velocity": 57,
      "startTime": 79.36458333333333,
      "duration": 0.3645833333333428,
      "endTime": 79.72916666666667
    },
    {
      "instrumentId": 0,
      "instrumentName": "Umi no Machi Mieru.MID",
      "isPercussion": false,
      "pitch": 57,
      "velocity": 69,
      "startTime": 79.63333333333333,
      "duration": 0.041666666666671404,
      "endTime": 79.675
    },
    {
      "instrumentId": 0,
      "instrumentName": "Umi no Machi Mieru.MID",
      "isPercussion": false,
      "pitch": 64,
      "velocity": 81,
      "startTime": 79.63333333333333,
      "duration": 0.10208333333333997,
      "endTime": 79.73541666666667
    },
    {
      "instrumentId": 0,
      "instrumentName": "Umi no Machi Mieru.MID",
      "isPercussion": false,
      "pitch": 67,
      "velocity": 81,
      "startTime": 79.92083333333333,
      "duration": 0.3083333333333371,
      "endTime": 80.22916666666667
    },
    {
      "instrumentId": 0,
      "instrumentName": "Umi no Machi Mieru.MID",
      "isPercussion": false,
      "pitch": 66,
      "velocity": 89,
      "startTime": 80.21458333333334,
      "duration": 0.26249999999998863,
      "endTime": 80.47708333333333
    },
    {
      "instrumentId": 0,
      "instrumentName": "Umi no Machi Mieru.MID",
      "isPercussion": false,
      "pitch": 38,
      "velocity": 74,
      "startTime": 80.225,
      "duration": 0.34583333333333144,
      "endTime": 80.57083333333333
    },
    {
      "instrumentId": 0,
      "instrumentName": "Umi no Machi Mieru.MID",
      "isPercussion": false,
      "pitch": 62,
      "velocity": 76,
      "startTime": 80.50625,
      "duration": 0.31041666666666856,
      "endTime": 80.81666666666666
    },
    {
      "instrumentId": 0,
      "instrumentName": "Umi no Machi Mieru.MID",
      "isPercussion": false,
      "pitch": 45,
      "velocity": 56,
      "startTime": 80.51041666666667,
      "duration": 0.3062499999999915,
      "endTime": 80.81666666666666
    },
    {
      "instrumentId": 0,
      "instrumentName": "Umi no Machi Mieru.MID",
      "isPercussion": false,
      "pitch": 59,
      "velocity": 84,
      "startTime": 80.79583333333333,
      "duration": 0.23333333333333428,
      "endTime": 81.02916666666667
    },
    {
      "instrumentId": 0,
      "instrumentName": "Umi no Machi Mieru.MID",
      "isPercussion": false,
      "pitch": 50,
      "velocity": 62,
      "startTime": 80.80416666666666,
      "duration": 0.10208333333333997,
      "endTime": 80.90625
    },
    {
      "instrumentId": 0,
      "instrumentName": "Umi no Machi Mieru.MID",
      "isPercussion": false,
      "pitch": 57,
      "velocity": 70,
      "startTime": 81.09375,
      "duration": 0.25,
      "endTime": 81.34375
    },
    {
      "instrumentId": 0,
      "instrumentName": "Umi no Machi Mieru.MID",
      "isPercussion": false,
      "pitch": 43,
      "velocity": 70,
      "startTime": 81.37291666666667,
      "duration": 0.3291666666666657,
      "endTime": 81.70208333333333
    },
    {
      "instrumentId": 0,
      "instrumentName": "Umi no Machi Mieru.MID",
      "isPercussion": false,
      "pitch": 59,
      "velocity": 82,
      "startTime": 81.37291666666667,
      "duration": 0.58541666666666,
      "endTime": 81.95833333333333
    },
    {
      "instrumentId": 0,
      "instrumentName": "Umi no Machi Mieru.MID",
      "isPercussion": false,
      "pitch": 50,
      "velocity": 75,
      "startTime": 81.66458333333333,
      "duration": 0.041666666666671404,
      "endTime": 81.70625
    },
    {
      "instrumentId": 0,
      "instrumentName": "Umi no Machi Mieru.MID",
      "isPercussion": false,
      "pitch": 57,
      "velocity": 83,
      "startTime": 81.96666666666667,
      "duration": 0.27916666666666856,
      "endTime": 82.24583333333334
    },
    {
      "instrumentId": 0,
      "instrumentName": "Umi no Machi Mieru.MID",
      "isPercussion": false,
      "pitch": 55,
      "velocity": 78,
      "startTime": 82.25625,
      "duration": 0.11458333333334281,
      "endTime": 82.37083333333334
    },
    {
      "instrumentId": 0,
      "instrumentName": "Umi no Machi Mieru.MID",
      "isPercussion": false,
      "pitch": 54,
      "velocity": 82,
      "startTime": 82.53958333333333,
      "duration": 0.25208333333334565,
      "endTime": 82.79166666666667
    },
    {
      "instrumentId": 0,
      "instrumentName": "Umi no Machi Mieru.MID",
      "isPercussion": false,
      "pitch": 47,
      "velocity": 78,
      "startTime": 82.54583333333333,
      "duration": 0.5395833333333258,
      "endTime": 83.08541666666666
    },
    {
      "instrumentId": 0,
      "instrumentName": "Umi no Machi Mieru.MID",
      "isPercussion": false,
      "pitch": 55,
      "velocity": 65,
      "startTime": 82.8375,
      "duration": 0.2145833333333229,
      "endTime": 83.05208333333333
    },
    {
      "instrumentId": 0,
      "instrumentName": "Umi no Machi Mieru.MID",
      "isPercussion": false,
      "pitch": 57,
      "velocity": 83,
      "startTime": 83.14166666666667,
      "duration": 0.041666666666671404,
      "endTime": 83.18333333333334
    },
    {
      "instrumentId": 0,
      "instrumentName": "Umi no Machi Mieru.MID",
      "isPercussion": false,
      "pitch": 71,
      "velocity": 75,
      "startTime": 83.41875,
      "duration": 0.10416666666665719,
      "endTime": 83.52291666666666
    },
    {
      "instrumentId": 0,
      "instrumentName": "Umi no Machi Mieru.MID",
      "isPercussion": false,
      "pitch": 40,
      "velocity": 82,
      "startTime": 83.71458333333334,
      "duration": 0.3062499999999915,
      "endTime": 84.02083333333333
    },
    {
      "instrumentId": 0,
      "instrumentName": "Umi no Machi Mieru.MID",
      "isPercussion": false,
      "pitch": 79,
      "velocity": 99,
      "startTime": 83.715625,
      "duration": 1.1656249999999915,
      "endTime": 84.88125
    },
    {
      "instrumentId": 0,
      "instrumentName": "Umi no Machi Mieru.MID",
      "isPercussion": false,
      "pitch": 47,
      "velocity": 72,
      "startTime": 83.99583333333334,
      "duration": 0.2562499999999943,
      "endTime": 84.25208333333333
    },
    {
      "instrumentId": 0,
      "instrumentName": "Umi no Machi Mieru.MID",
      "isPercussion": false,
      "pitch": 52,
      "velocity": 74,
      "startTime": 84.29166666666667,
      "duration": 0.03125,
      "endTime": 84.32291666666667
    },
    {
      "instrumentId": 0,
      "instrumentName": "Umi no Machi Mieru.MID",
      "isPercussion": false,
      "pitch": 71,
      "velocity": 74,
      "startTime": 84.58958333333334,
      "duration": 0.5666666666666629,
      "endTime": 85.15625
    },
    {
      "instrumentId": 0,
      "instrumentName": "Umi no Machi Mieru.MID",
      "isPercussion": false,
      "pitch": 78,
      "velocity": 81,
      "startTime": 84.87916666666666,
      "duration": 0.34375,
      "endTime": 85.22291666666666
    },
    {
      "instrumentId": 0,
      "instrumentName": "Umi no Machi Mieru.MID",
      "isPercussion": false,
      "pitch": 75,
      "velocity": 88,
      "startTime": 84.88125,
      "duration": 0.3375000000000057,
      "endTime": 85.21875
    },
    {
      "instrumentId": 0,
      "instrumentName": "Umi no Machi Mieru.MID",
      "isPercussion": false,
      "pitch": 42,
      "velocity": 71,
      "startTime": 84.89375,
      "duration": 0.2979166666666657,
      "endTime": 85.19166666666666
    },
    {
      "instrumentId": 0,
      "instrumentName": "Umi no Machi Mieru.MID",
      "isPercussion": false,
      "pitch": 49,
      "velocity": 70,
      "startTime": 85.16458333333333,
      "duration": 0.3958333333333428,
      "endTime": 85.56041666666667
    },
    {
      "instrumentId": 0,
      "instrumentName": "Umi no Machi Mieru.MID",
      "isPercussion": false,
      "pitch": 54,
      "velocity": 72,
      "startTime": 85.4625,
      "duration": 0.0833333333333286,
      "endTime": 85.54583333333333
    },
    {
      "instrumentId": 0,
      "instrumentName": "Umi no Machi Mieru.MID",
      "isPercussion": false,
      "pitch": 71,
      "velocity": 77,
      "startTime": 85.74375,
      "duration": 0.27916666666665435,
      "endTime": 86.02291666666666
    },
    {
      "instrumentId": 0,
      "instrumentName": "Umi no Machi Mieru.MID",
      "isPercussion": false,
      "pitch": 76,
      "velocity": 90,
      "startTime": 86.01666666666667,
      "duration": 0.58541666666666,
      "endTime": 86.60208333333333
    },
    {
      "instrumentId": 0,
      "instrumentName": "Umi no Machi Mieru.MID",
      "isPercussion": false,
      "pitch": 43,
      "velocity": 73,
      "startTime": 86.02291666666666,
      "duration": 0.2291666666666714,
      "endTime": 86.25208333333333
    },
    {
      "instrumentId": 0,
      "instrumentName": "Umi no Machi Mieru.MID",
      "isPercussion": false,
      "pitch": 67,
      "velocity": 74,
      "startTime": 86.3125,
      "duration": 0.3395833333333371,
      "endTime": 86.65208333333334
    },
    {
      "instrumentId": 0,
      "instrumentName": "Umi no Machi Mieru.MID",
      "isPercussion": false,
      "pitch": 52,
      "velocity": 62,
      "startTime": 86.3125,
      "duration": 0.39791666666666003,
      "endTime": 86.71041666666666
    },
    {
      "instrumentId": 0,
      "instrumentName": "Umi no Machi Mieru.MID",
      "isPercussion": false,
      "pitch": 59,
      "velocity": 60,
      "startTime": 86.59166666666667,
      "duration": 0.09166666666666856,
      "endTime": 86.68333333333334
    },
    {
      "instrumentId": 0,
      "instrumentName": "Umi no Machi Mieru.MID",
      "isPercussion": false,
      "pitch": 74,
      "velocity": 87,
      "startTime": 86.59166666666667,
      "duration": 0.2770833333333371,
      "endTime": 86.86875
    },
    {
      "instrumentId": 0,
      "instrumentName": "Umi no Machi Mieru.MID",
      "isPercussion": false,
      "pitch": 72,
      "velocity": 83,
      "startTime": 86.87916666666666,
      "duration": 0.13750000000000284,
      "endTime": 87.01666666666667
    },
    {
      "instrumentId": 0,
      "instrumentName": "Umi no Machi Mieru.MID",
      "isPercussion": false,
      "pitch": 44,
      "velocity": 73,
      "startTime": 87.17083333333333,
      "duration": 0.30416666666666003,
      "endTime": 87.475
    },
    {
      "instrumentId": 0,
      "instrumentName": "Umi no Machi Mieru.MID",
      "isPercussion": false,
      "pitch": 74,
      "velocity": 79,
      "startTime": 87.17083333333333,
      "duration": 0.7895833333333258,
      "endTime": 87.96041666666666
    },
    {
      "instrumentId": 0,
      "instrumentName": "Umi no Machi Mieru.MID",
      "isPercussion": false,
      "pitch": 62,
      "velocity": 75,
      "startTime": 87.17916666666666,
      "duration": 0.31041666666666856,
      "endTime": 87.48958333333333
    },
    {
      "instrumentId": 0,
      "instrumentName": "Umi no Machi Mieru.MID",
      "isPercussion": false,
      "pitch": 69,
      "velocity": 81,
      "startTime": 87.17916666666666,
      "duration": 0.8729166666666686,
      "endTime": 88.05208333333333
    },
    {
      "instrumentId": 0,
      "instrumentName": "Umi no Machi Mieru.MID",
      "isPercussion": false,
      "pitch": 52,
      "velocity": 68,
      "startTime": 87.47083333333333,
      "duration": 0.7000000000000028,
      "endTime": 88.17083333333333
    },
    {
      "instrumentId": 0,
      "instrumentName": "Umi no Machi Mieru.MID",
      "isPercussion": false,
      "pitch": 59,
      "velocity": 70,
      "startTime": 87.75416666666666,
      "duration": 0.1041666666666714,
      "endTime": 87.85833333333333
    },
    {
      "instrumentId": 0,
      "instrumentName": "Umi no Machi Mieru.MID",
      "isPercussion": false,
      "pitch": 71,
      "velocity": 87,
      "startTime": 88.04583333333333,
      "duration": 0.08958333333333712,
      "endTime": 88.13541666666667
    },
    {
      "instrumentId": 0,
      "instrumentName": "Umi no Machi Mieru.MID",
      "isPercussion": false,
      "pitch": 69,
      "velocity": 76,
      "startTime": 88.33333333333333,
      "duration": 0.2708333333333428,
      "endTime": 88.60416666666667
    },
    {
      "instrumentId": 0,
      "instrumentName": "Umi no Machi Mieru.MID",
      "isPercussion": false,
      "pitch": 45,
      "velocity": 70,
      "startTime": 88.33333333333333,
      "duration": 0.5791666666666657,
      "endTime": 88.9125
    },
    {
      "instrumentId": 0,
      "instrumentName": "Umi no Machi Mieru.MID",
      "isPercussion": false,
      "pitch": 72,
      "velocity": 79,
      "startTime": 88.62916666666666,
      "duration": 0.2541666666666629,
      "endTime": 88.88333333333333
    },
    {
      "instrumentId": 0,
      "instrumentName": "Umi no Machi Mieru.MID",
      "isPercussion": false,
      "pitch": 52,
      "velocity": 59,
      "startTime": 88.62916666666666,
      "duration": 0.5208333333333428,
      "endTime": 89.15
    },
    {
      "instrumentId": 0,
      "instrumentName": "Umi no Machi Mieru.MID",
      "isPercussion": false,
      "pitch": 76,
      "velocity": 85,
      "startTime": 88.9125,
      "duration": 0.17916666666667425,
      "endTime": 89.09166666666667
    },
    {
      "instrumentId": 0,
      "instrumentName": "Umi no Machi Mieru.MID",
      "isPercussion": false,
      "pitch": 57,
      "velocity": 47,
      "startTime": 88.94166666666666,
      "duration": 0.39791666666667425,
      "endTime": 89.33958333333334
    },
    {
      "instrumentId": 0,
      "instrumentName": "Umi no Machi Mieru.MID",
      "isPercussion": false,
      "pitch": 79,
      "velocity": 69,
      "startTime": 89.19791666666667,
      "duration": 0.09375,
      "endTime": 89.29166666666667
    },
    {
      "instrumentId": 0,
      "instrumentName": "Umi no Machi Mieru.MID",
      "isPercussion": false,
      "pitch": 81,
      "velocity": 81,
      "startTime": 89.5,
      "duration": 0.09583333333333144,
      "endTime": 89.59583333333333
    },
    {
      "instrumentId": 0,
      "instrumentName": "Umi no Machi Mieru.MID",
      "isPercussion": false,
      "pitch": 74,
      "velocity": 64,
      "startTime": 89.5,
      "duration": 0.12291666666666856,
      "endTime": 89.62291666666667
    },
    {
      "instrumentId": 0,
      "instrumentName": "Umi no Machi Mieru.MID",
      "isPercussion": false,
      "pitch": 47,
      "velocity": 75,
      "startTime": 89.5,
      "duration": 0.7041666666666657,
      "endTime": 90.20416666666667
    },
    {
      "instrumentId": 0,
      "instrumentName": "Umi no Machi Mieru.MID",
      "isPercussion": false,
      "pitch": 54,
      "velocity": 62,
      "startTime": 89.8,
      "duration": 0.4645833333333371,
      "endTime": 90.26458333333333
    },
    {
      "instrumentId": 0,
      "instrumentName": "Umi no Machi Mieru.MID",
      "isPercussion": false,
      "pitch": 83,
      "velocity": 73,
      "startTime": 89.81458333333333,
      "duration": 0.08541666666667425,
      "endTime": 89.9
    },
    {
      "instrumentId": 0,
      "instrumentName": "Umi no Machi Mieru.MID",
      "isPercussion": false,
      "pitch": 59,
      "velocity": 72,
      "startTime": 90.08333333333333,
      "duration": 0.11249999999999716,
      "endTime": 90.19583333333333
    },
    {
      "instrumentId": 0,
      "instrumentName": "Umi no Machi Mieru.MID",
      "isPercussion": false,
      "pitch": 78,
      "velocity": 72,
      "startTime": 90.09375,
      "duration": 0.15625,
      "endTime": 90.25
    },
    {
      "instrumentId": 0,
      "instrumentName": "Umi no Machi Mieru.MID",
      "isPercussion": false,
      "pitch": 74,
      "velocity": 85,
      "startTime": 90.375,
      "duration": 0.10833333333333428,
      "endTime": 90.48333333333333
    },
    {
      "instrumentId": 0,
      "instrumentName": "Umi no Machi Mieru.MID",
      "isPercussion": false,
      "pitch": 40,
      "velocity": 73,
      "startTime": 90.66666666666667,
      "duration": 0.48124999999998863,
      "endTime": 91.14791666666666
    },
    {
      "instrumentId": 0,
      "instrumentName": "Umi no Machi Mieru.MID",
      "isPercussion": false,
      "pitch": 67,
      "velocity": 64,
      "startTime": 90.67395833333333,
      "duration": 0.10625000000000284,
      "endTime": 90.78020833333333
    },
    {
      "instrumentId": 0,
      "instrumentName": "Umi no Machi Mieru.MID",
      "isPercussion": false,
      "pitch": 76,
      "velocity": 80,
      "startTime": 90.675,
      "duration": 0.5854166666666742,
      "endTime": 91.26041666666667
    },
    {
      "instrumentId": 0,
      "instrumentName": "Umi no Machi Mieru.MID",
      "isPercussion": false,
      "pitch": 67,
      "velocity": 74,
      "startTime": 90.98125,
      "duration": 0.2749999999999915,
      "endTime": 91.25625
    },
    {
      "instrumentId": 0,
      "instrumentName": "Umi no Machi Mieru.MID",
      "isPercussion": false,
      "pitch": 47,
      "velocity": 61,
      "startTime": 90.9875,
      "duration": 0.28333333333333144,
      "endTime": 91.27083333333333
    },
    {
      "instrumentId": 0,
      "instrumentName": "Umi no Machi Mieru.MID",
      "isPercussion": false,
      "pitch": 71,
      "velocity": 82,
      "startTime": 91.2875,
      "duration": 0.8395833333333371,
      "endTime": 92.12708333333333
    },
    {
      "instrumentId": 0,
      "instrumentName": "Umi no Machi Mieru.MID",
      "isPercussion": false,
      "pitch": 52,
      "velocity": 65,
      "startTime": 91.29583333333333,
      "duration": 0.25208333333333144,
      "endTime": 91.54791666666667
    },
    {
      "instrumentId": 0,
      "instrumentName": "Umi no Machi Mieru.MID",
      "isPercussion": false,
      "pitch": 67,
      "velocity": 81,
      "startTime": 91.59583333333333,
      "duration": 0.47083333333333144,
      "endTime": 92.06666666666666
    },
    {
      "instrumentId": 0,
      "instrumentName": "Umi no Machi Mieru.MID",
      "isPercussion": false,
      "pitch": 55,
      "velocity": 55,
      "startTime": 91.60416666666667,
      "duration": 0.06041666666665435,
      "endTime": 91.66458333333333
    },
    {
      "instrumentId": 0,
      "instrumentName": "Umi no Machi Mieru.MID",
      "isPercussion": false,
      "pitch": 64,
      "velocity": 82,
      "startTime": 91.9,
      "duration": 0.09999999999999432,
      "endTime": 92.0
    },
    {
      "instrumentId": 0,
      "instrumentName": "Umi no Machi Mieru.MID",
      "isPercussion": false,
      "pitch": 40,
      "velocity": 64,
      "startTime": 93.06666666666666,
      "duration": 0.4125000000000085,
      "endTime": 93.47916666666667
    },
    {
      "instrumentId": 0,
      "instrumentName": "Umi no Machi Mieru.MID",
      "isPercussion": false,
      "pitch": 76,
      "velocity": 59,
      "startTime": 93.36041666666667,
      "duration": 0.07708333333333428,
      "endTime": 93.4375
    },
    {
      "instrumentId": 0,
      "instrumentName": "Umi no Machi Mieru.MID",
      "isPercussion": false,
      "pitch": 74,
      "velocity": 73,
      "startTime": 93.50833333333333,
      "duration": 0.09166666666666856,
      "endTime": 93.6
    },
    {
      "instrumentId": 0,
      "instrumentName": "Umi no Machi Mieru.MID",
      "isPercussion": false,
      "pitch": 52,
      "velocity": 58,
      "startTime": 93.66145833333333,
      "duration": 0.053125000000008527,
      "endTime": 93.71458333333334
    },
    {
      "instrumentId": 0,
      "instrumentName": "Umi no Machi Mieru.MID",
      "isPercussion": false,
      "pitch": 76,
      "velocity": 91,
      "startTime": 93.6625,
      "duration": 0.09375,
      "endTime": 93.75625
    },
    {
      "instrumentId": 0,
      "instrumentName": "Umi no Machi Mieru.MID",
      "isPercussion": false,
      "pitch": 72,
      "velocity": 59,
      "startTime": 93.94791666666667,
      "duration": 0.07708333333333428,
      "endTime": 94.025
    },
    {
      "instrumentId": 0,
      "instrumentName": "Umi no Machi Mieru.MID",
      "isPercussion": false,
      "pitch": 71,
      "velocity": 73,
      "startTime": 94.09583333333333,
      "duration": 0.09166666666666856,
      "endTime": 94.1875
    },
    {
      "instrumentId": 0,
      "instrumentName": "Umi no Machi Mieru.MID",
      "isPercussion": false,
      "pitch": 72,
      "velocity": 91,
      "startTime": 94.25,
      "duration": 0.09375,
      "endTime": 94.34375
    },
    {
      "instrumentId": 0,
      "instrumentName": "Umi no Machi Mieru.MID",
      "isPercussion": false,
      "pitch": 45,
      "velocity": 64,
      "startTime": 94.25208333333333,
      "duration": 0.7125000000000057,
      "endTime": 94.96458333333334
    },
    {
      "instrumentId": 0,
      "instrumentName": "Umi no Machi Mieru.MID",
      "isPercussion": false,
      "pitch": 69,
      "velocity": 74,
      "startTime": 94.55,
      "duration": 0.11875000000000568,
      "endTime": 94.66875
    },
    {
      "instrumentId": 0,
      "instrumentName": "Umi no Machi Mieru.MID",
      "isPercussion": false,
      "pitch": 68,
      "velocity": 69,
      "startTime": 94.69375,
      "duration": 0.10625000000000284,
      "endTime": 94.8
    },
    {
      "instrumentId": 0,
      "instrumentName": "Umi no Machi Mieru.MID",
      "isPercussion": false,
      "pitch": 57,
      "velocity": 57,
      "startTime": 94.83125,
      "duration": 0.6000000000000085,
      "endTime": 95.43125
    },
    {
      "instrumentId": 0,
      "instrumentName": "Umi no Machi Mieru.MID",
      "isPercussion": false,
      "pitch": 69,
      "velocity": 90,
      "startTime": 94.83125,
      "duration": 1.0104166666666714,
      "endTime": 95.84166666666667
    },
    {
      "instrumentId": 0,
      "instrumentName": "Umi no Machi Mieru.MID",
      "isPercussion": false,
      "pitch": 50,
      "velocity": 77,
      "startTime": 95.5,
      "duration": 0.6541666666666686,
      "endTime": 96.15416666666667
    },
    {
      "instrumentId": 0,
      "instrumentName": "Umi no Machi Mieru.MID",
      "isPercussion": false,
      "pitch": 74,
      "velocity": 72,
      "startTime": 95.81041666666667,
      "duration": 0.09999999999999432,
      "endTime": 95.91041666666666
    },
    {
      "instrumentId": 0,
      "instrumentName": "Umi no Machi Mieru.MID",
      "isPercussion": false,
      "pitch": 73,
      "velocity": 78,
      "startTime": 95.94791666666667,
      "duration": 0.14791666666666003,
      "endTime": 96.09583333333333
    },
    {
      "instrumentId": 0,
      "instrumentName": "Umi no Machi Mieru.MID",
      "isPercussion": false,
      "pitch": 54,
      "velocity": 59,
      "startTime": 96.09583333333333,
      "duration": 0.08124999999999716,
      "endTime": 96.17708333333333
    },
    {
      "instrumentId": 0,
      "instrumentName": "Umi no Machi Mieru.MID",
      "isPercussion": false,
      "pitch": 74,
      "velocity": 69,
      "startTime": 96.11041666666667,
      "duration": 0.10833333333333428,
      "endTime": 96.21875
    },
    {
      "instrumentId": 0,
      "instrumentName": "Umi no Machi Mieru.MID",
      "isPercussion": false,
      "pitch": 71,
      "velocity": 59,
      "startTime": 96.39375,
      "duration": 0.11041666666666572,
      "endTime": 96.50416666666666
    },
    {
      "instrumentId": 0,
      "instrumentName": "Umi no Machi Mieru.MID",
      "isPercussion": false,
      "pitch": 70,
      "velocity": 55,
      "startTime": 96.53333333333333,
      "duration": 0.10208333333333997,
      "endTime": 96.63541666666667
    },
    {
      "instrumentId": 0,
      "instrumentName": "Umi no Machi Mieru.MID",
      "isPercussion": false,
      "pitch": 71,
      "velocity": 72,
      "startTime": 96.6625,
      "duration": 0.28333333333333144,
      "endTime": 96.94583333333333
    },
    {
      "instrumentId": 0,
      "instrumentName": "Umi no Machi Mieru.MID",
      "isPercussion": false,
      "pitch": 43,
      "velocity": 84,
      "startTime": 96.66666666666667,
      "duration": 0.5812499999999972,
      "endTime": 97.24791666666667
    },
    {
      "instrumentId": 0,
      "instrumentName": "Umi no Machi Mieru.MID",
      "isPercussion": false,
      "pitch": 67,
      "velocity": 73,
      "startTime": 96.95625,
      "duration": 0.04375000000000284,
      "endTime": 97.0
    },
    {
      "instrumentId": 0,
      "instrumentName": "Umi no Machi Mieru.MID",
      "isPercussion": false,
      "pitch": 66,
      "velocity": 73,
      "startTime": 97.10833333333333,
      "duration": 0.039583333333325754,
      "endTime": 97.14791666666666
    },
    {
      "instrumentId": 0,
      "instrumentName": "Umi no Machi Mieru.MID",
      "isPercussion": false,
      "pitch": 67,
      "velocity": 87,
      "startTime": 97.22708333333333,
      "duration": 0.9020833333333371,
      "endTime": 98.12916666666666
    },
    {
      "instrumentId": 0,
      "instrumentName": "Umi no Machi Mieru.MID",
      "isPercussion": false,
      "pitch": 55,
      "velocity": 64,
      "startTime": 97.25208333333333,
      "duration": 0.5229166666666742,
      "endTime": 97.775
    },
    {
      "instrumentId": 0,
      "instrumentName": "Umi no Machi Mieru.MID",
      "isPercussion": false,
      "pitch": 48,
      "velocity": 69,
      "startTime": 97.81666666666666,
      "duration": 0.65625,
      "endTime": 98.47291666666666
    },
    {
      "instrumentId": 0,
      "instrumentName": "Umi no Machi Mieru.MID",
      "isPercussion": false,
      "pitch": 72,
      "velocity": 59,
      "startTime": 98.10833333333333,
      "duration": 0.06041666666666856,
      "endTime": 98.16875
    },
    {
      "instrumentId": 0,
      "instrumentName": "Umi no Machi Mieru.MID",
      "isPercussion": false,
      "pitch": 71,
      "velocity": 51,
      "startTime": 98.228125,
      "duration": 0.07916666666666572,
      "endTime": 98.30729166666667
    },
    {
      "instrumentId": 0,
      "instrumentName": "Umi no Machi Mieru.MID",
      "isPercussion": false,
      "pitch": 72,
      "velocity": 79,
      "startTime": 98.36666666666666,
      "duration": 0.10625000000000284,
      "endTime": 98.47291666666666
    },
    {
      "instrumentId": 0,
      "instrumentName": "Umi no Machi Mieru.MID",
      "isPercussion": false,
      "pitch": 55,
      "velocity": 58,
      "startTime": 98.38958333333333,
      "duration": 0.04999999999999716,
      "endTime": 98.43958333333333
    },
    {
      "instrumentId": 0,
      "instrumentName": "Umi no Machi Mieru.MID",
      "isPercussion": false,
      "pitch": 69,
      "velocity": 52,
      "startTime": 98.66666666666667,
      "duration": 0.08124999999999716,
      "endTime": 98.74791666666667
    },
    {
      "instrumentId": 0,
      "instrumentName": "Umi no Machi Mieru.MID",
      "isPercussion": false,
      "pitch": 68,
      "velocity": 66,
      "startTime": 98.78541666666666,
      "duration": 0.1354166666666714,
      "endTime": 98.92083333333333
    },
    {
      "instrumentId": 0,
      "instrumentName": "Umi no Machi Mieru.MID",
      "isPercussion": false,
      "pitch": 42,
      "velocity": 63,
      "startTime": 98.91041666666666,
      "duration": 0.47708333333333997,
      "endTime": 99.3875
    },
    {
      "instrumentId": 0,
      "instrumentName": "Umi no Machi Mieru.MID",
      "isPercussion": false,
      "pitch": 69,
      "velocity": 79,
      "startTime": 98.92083333333333,
      "duration": 0.125,
      "endTime": 99.04583333333333
    },
    {
      "instrumentId": 0,
      "instrumentName": "Umi no Machi Mieru.MID",
      "isPercussion": false,
      "pitch": 72,
      "velocity": 74,
      "startTime": 99.21875,
      "duration": 0.041666666666671404,
      "endTime": 99.26041666666667
    },
    {
      "instrumentId": 0,
      "instrumentName": "Umi no Machi Mieru.MID",
      "isPercussion": false,
      "pitch": 54,
      "velocity": 62,
      "startTime": 99.51458333333333,
      "duration": 0.11249999999999716,
      "endTime": 99.62708333333333
    },
    {
      "instrumentId": 0,
      "instrumentName": "Umi no Machi Mieru.MID",
      "isPercussion": false,
      "pitch": 76,
      "velocity": 79,
      "startTime": 99.51875,
      "duration": 0.12916666666666288,
      "endTime": 99.64791666666666
    },
    {
      "instrumentId": 0,
      "instrumentName": "Umi no Machi Mieru.MID",
      "isPercussion": false,
      "pitch": 72,
      "velocity": 70,
      "startTime": 99.81666666666666,
      "duration": 0.08958333333333712,
      "endTime": 99.90625
    },
    {
      "instrumentId": 0,
      "instrumentName": "Umi no Machi Mieru.MID",
      "isPercussion": false,
      "pitch": 47,
      "velocity": 68,
      "startTime": 100.10416666666667,
      "duration": 1.2166666666666544,
      "endTime": 101.32083333333333
    },
    {
      "instrumentId": 0,
      "instrumentName": "Umi no Machi Mieru.MID",
      "isPercussion": false,
      "pitch": 69,
      "velocity": 67,
      "startTime": 100.11041666666667,
      "duration": 0.0625,
      "endTime": 100.17291666666667
    },
    {
      "instrumentId": 0,
      "instrumentName": "Umi no Machi Mieru.MID",
      "isPercussion": false,
      "pitch": 72,
      "velocity": 64,
      "startTime": 100.25,
      "duration": 0.12083333333333712,
      "endTime": 100.37083333333334
    },
    {
      "instrumentId": 0,
      "instrumentName": "Umi no Machi Mieru.MID",
      "isPercussion": false,
      "pitch": 71,
      "velocity": 46,
      "startTime": 100.40416666666667,
      "duration": 0.08958333333333712,
      "endTime": 100.49375
    },
    {
      "instrumentId": 0,
      "instrumentName": "Umi no Machi Mieru.MID",
      "isPercussion": false,
      "pitch": 69,
      "velocity": 65,
      "startTime": 100.53125,
      "duration": 0.06041666666666856,
      "endTime": 100.59166666666667
    },
    {
      "instrumentId": 0,
      "instrumentName": "Umi no Machi Mieru.MID",
      "isPercussion": false,
      "pitch": 54,
      "velocity": 57,
      "startTime": 100.66875,
      "duration": 0.6541666666666686,
      "endTime": 101.32291666666667
    },
    {
      "instrumentId": 0,
      "instrumentName": "Umi no Machi Mieru.MID",
      "isPercussion": false,
      "pitch": 67,
      "velocity": 70,
      "startTime": 100.67708333333333,
      "duration": 0.09375,
      "endTime": 100.77083333333333
    },
    {
      "instrumentId": 0,
      "instrumentName": "Umi no Machi Mieru.MID",
      "isPercussion": false,
      "pitch": 66,
      "velocity": 57,
      "startTime": 100.80833333333334,
      "duration": 0.0833333333333286,
      "endTime": 100.89166666666667
    },
    {
      "instrumentId": 0,
      "instrumentName": "Umi no Machi Mieru.MID",
      "isPercussion": false,
      "pitch": 64,
      "velocity": 52,
      "startTime": 100.95833333333333,
      "duration": 0.05833333333333712,
      "endTime": 101.01666666666667
    },
    {
      "instrumentId": 0,
      "instrumentName": "Umi no Machi Mieru.MID",
      "isPercussion": false,
      "pitch": 66,
      "velocity": 80,
      "startTime": 101.09583333333333,
      "duration": 0.10208333333333997,
      "endTime": 101.19791666666667
    },
    {
      "instrumentId": 0,
      "instrumentName": "Umi no Machi Mieru.MID",
      "isPercussion": false,
      "pitch": 59,
      "velocity": 64,
      "startTime": 101.24166666666666,
      "duration": 0.037500000000008527,
      "endTime": 101.27916666666667
    },
    {
      "instrumentId": 0,
      "instrumentName": "Umi no Machi Mieru.MID",
      "isPercussion": false,
      "pitch": 64,
      "velocity": 88,
      "startTime": 101.25,
      "duration": 0.7645833333333343,
      "endTime": 102.01458333333333
    },
    {
      "instrumentId": 0,
      "instrumentName": "Umi no Machi Mieru.MID",
      "isPercussion": false,
      "pitch": 67,
      "velocity": 94,
      "startTime": 101.25,
      "duration": 0.8229166666666714,
      "endTime": 102.07291666666667
    },
    {
      "instrumentId": 0,
      "instrumentName": "Umi no Machi Mieru.MID",
      "isPercussion": false,
      "pitch": 52,
      "velocity": 66,
      "startTime": 101.87916666666666,
      "duration": 0.039583333333339965,
      "endTime": 101.91875
    },
    {
      "instrumentId": 0,
      "instrumentName": "Umi no Machi Mieru.MID",
      "isPercussion": false,
      "pitch": 40,
      "velocity": 74,
      "startTime": 102.45416666666667,
      "duration": 0.47083333333333144,
      "endTime": 102.925
    },
    {
      "instrumentId": 0,
      "instrumentName": "Umi no Machi Mieru.MID",
      "isPercussion": false,
      "pitch": 76,
      "velocity": 82,
      "startTime": 102.74791666666667,
      "duration": 0.09166666666666856,
      "endTime": 102.83958333333334
    },
    {
      "instrumentId": 0,
      "instrumentName": "Umi no Machi Mieru.MID",
      "isPercussion": false,
      "pitch": 75,
      "velocity": 73,
      "startTime": 102.86041666666667,
      "duration": 0.12916666666666288,
      "endTime": 102.98958333333333
    },
    {
      "instrumentId": 0,
      "instrumentName": "Umi no Machi Mieru.MID",
      "isPercussion": false,
      "pitch": 76,
      "velocity": 75,
      "startTime": 103.01875,
      "duration": 0.0625,
      "endTime": 103.08125
    },
    {
      "instrumentId": 0,
      "instrumentName": "Umi no Machi Mieru.MID",
      "isPercussion": false,
      "pitch": 52,
      "velocity": 59,
      "startTime": 103.04791666666667,
      "duration": 0.12083333333333712,
      "endTime": 103.16875
    },
    {
      "instrumentId": 0,
      "instrumentName": "Umi no Machi Mieru.MID",
      "isPercussion": false,
      "pitch": 72,
      "velocity": 69,
      "startTime": 103.309375,
      "duration": 0.07708333333333428,
      "endTime": 103.38645833333334
    },
    {
      "instrumentId": 0,
      "instrumentName": "Umi no Machi Mieru.MID",
      "isPercussion": false,
      "pitch": 71,
      "velocity": 57,
      "startTime": 103.43541666666667,
      "duration": 0.13124999999999432,
      "endTime": 103.56666666666666
    },
    {
      "instrumentId": 0,
      "instrumentName": "Umi no Machi Mieru.MID",
      "isPercussion": false,
      "pitch": 72,
      "velocity": 80,
      "startTime": 103.61354166666666,
      "duration": 0.25,
      "endTime": 103.86354166666666
    },
    {
      "instrumentId": 0,
      "instrumentName": "Umi no Machi Mieru.MID",
      "isPercussion": false,
      "pitch": 45,
      "velocity": 70,
      "startTime": 103.61458333333333,
      "duration": 0.5645833333333314,
      "endTime": 104.17916666666666
    },
    {
      "instrumentId": 0,
      "instrumentName": "Umi no Machi Mieru.MID",
      "isPercussion": false,
      "pitch": 52,
      "velocity": 62,
      "startTime": 104.15104166666667,
      "duration": 0.07916666666666572,
      "endTime": 104.23020833333334
    },
    {
      "instrumentId": 0,
      "instrumentName": "Umi no Machi Mieru.MID",
      "isPercussion": false,
      "pitch": 69,
      "velocity": 79,
      "startTime": 104.15104166666667,
      "duration": 0.09375,
      "endTime": 104.24479166666667
    },
    {
      "instrumentId": 0,
      "instrumentName": "Umi no Machi Mieru.MID",
      "isPercussion": false,
      "pitch": 71,
      "velocity": 62,
      "startTime": 104.29270833333334,
      "duration": 0.12916666666666288,
      "endTime": 104.421875
    },
    {
      "instrumentId": 0,
      "instrumentName": "Umi no Machi Mieru.MID",
      "isPercussion": false,
      "pitch": 72,
      "velocity": 71,
      "startTime": 104.43020833333333,
      "duration": 0.13333333333333997,
      "endTime": 104.56354166666667
    },
    {
      "instrumentId": 0,
      "instrumentName": "Umi no Machi Mieru.MID",
      "isPercussion": false,
      "pitch": 74,
      "velocity": 76,
      "startTime": 104.58020833333333,
      "duration": 0.1666666666666714,
      "endTime": 104.746875
    },
    {
      "instrumentId": 0,
      "instrumentName": "Umi no Machi Mieru.MID",
      "isPercussion": false,
      "pitch": 50,
      "velocity": 59,
      "startTime": 104.684375,
      "duration": 0.6854166666666686,
      "endTime": 105.36979166666667
    },
    {
      "instrumentId": 0,
      "instrumentName": "Umi no Machi Mieru.MID",
      "isPercussion": false,
      "pitch": 76,
      "velocity": 84,
      "startTime": 104.74895833333333,
      "duration": 0.09791666666666288,
      "endTime": 104.846875
    },
    {
      "instrumentId": 0,
      "instrumentName": "Umi no Machi Mieru.MID",
      "isPercussion": false,
      "pitch": 78,
      "velocity": 81,
      "startTime": 104.965625,
      "duration": 0.12083333333332291,
      "endTime": 105.08645833333333
    },
    {
      "instrumentId": 0,
      "instrumentName": "Umi no Machi Mieru.MID",
      "isPercussion": false,
      "pitch": 79,
      "velocity": 85,
      "startTime": 105.13854166666667,
      "duration": 0.14791666666666003,
      "endTime": 105.28645833333333
    },
    {
      "instrumentId": 0,
      "instrumentName": "Umi no Machi Mieru.MID",
      "isPercussion": false,
      "pitch": 78,
      "velocity": 79,
      "startTime": 105.334375,
      "duration": 0.11875000000000568,
      "endTime": 105.453125
    },
    {
      "instrumentId": 0,
      "instrumentName": "Umi no Machi Mieru.MID",
      "isPercussion": false,
      "pitch": 57,
      "velocity": 59,
      "startTime": 105.346875,
      "duration": 0.8510416666666742,
      "endTime": 106.19791666666667
    },
    {
      "instrumentId": 0,
      "instrumentName": "Umi no Machi Mieru.MID",
      "isPercussion": false,
      "pitch": 81,
      "velocity": 83,
      "startTime": 105.521875,
      "duration": 0.11875000000000568,
      "endTime": 105.640625
    },
    {
      "instrumentId": 0,
      "instrumentName": "Umi no Machi Mieru.MID",
      "isPercussion": false,
      "pitch": 79,
      "velocity": 70,
      "startTime": 105.721875,
      "duration": 0.19166666666666288,
      "endTime": 105.91354166666666
    },
    {
      "instrumentId": 0,
      "instrumentName": "Umi no Machi Mieru.MID",
      "isPercussion": false,
      "pitch": 78,
      "velocity": 78,
      "startTime": 105.91979166666667,
      "duration": 0.2458333333333229,
      "endTime": 106.16562499999999
    },
    {
      "instrumentId": 0,
      "instrumentName": "Umi no Machi Mieru.MID",
      "isPercussion": false,
      "pitch": 74,
      "velocity": 89,
      "startTime": 106.20520833333333,
      "duration": 0.29375000000000284,
      "endTime": 106.49895833333333
    },
    {
      "instrumentId": 0,
      "instrumentName": "Umi no Machi Mieru.MID",
      "isPercussion": false,
      "pitch": 57,
      "velocity": 61,
      "startTime": 106.48645833333333,
      "duration": 0.03333333333333144,
      "endTime": 106.51979166666666
    },
    {
      "instrumentId": 0,
      "instrumentName": "Umi no Machi Mieru.MID",
      "isPercussion": false,
      "pitch": 48,
      "velocity": 71,
      "startTime": 107.05208333333333,
      "duration": 0.6812500000000057,
      "endTime": 107.73333333333333
    },
    {
      "instrumentId": 0,
      "instrumentName": "Umi no Machi Mieru.MID",
      "isPercussion": false,
      "pitch": 72,
      "velocity": 78,
      "startTime": 107.3625,
      "duration": 0.0729166666666714,
      "endTime": 107.43541666666667
    },
    {
      "instrumentId": 0,
      "instrumentName": "Umi no Machi Mieru.MID",
      "isPercussion": false,
      "pitch": 71,
      "velocity": 56,
      "startTime": 107.50625,
      "duration": 0.06875000000000853,
      "endTime": 107.575
    },
    {
      "instrumentId": 0,
      "instrumentName": "Umi no Machi Mieru.MID",
      "isPercussion": false,
      "pitch": 72,
      "velocity": 70,
      "startTime": 107.64375,
      "duration": 0.07500000000000284,
      "endTime": 107.71875
    },
    {
      "instrumentId": 0,
      "instrumentName": "Umi no Machi Mieru.MID",
      "isPercussion": false,
      "pitch": 55,
      "velocity": 68,
      "startTime": 107.66666666666667,
      "duration": 0.04374999999998863,
      "endTime": 107.71041666666666
    },
    {
      "instrumentId": 0,
      "instrumentName": "Umi no Machi Mieru.MID",
      "isPercussion": false,
      "pitch": 69,
      "velocity": 59,
      "startTime": 107.95208333333333,
      "duration": 0.06458333333333144,
      "endTime": 108.01666666666667
    },
    {
      "instrumentId": 0,
      "instrumentName": "Umi no Machi Mieru.MID",
      "isPercussion": false,
      "pitch": 68,
      "velocity": 70,
      "startTime": 108.07083333333333,
      "duration": 0.12291666666666856,
      "endTime": 108.19375
    },
    {
      "instrumentId": 0,
      "instrumentName": "Umi no Machi Mieru.MID",
      "isPercussion": false,
      "pitch": 42,
      "velocity": 69,
      "startTime": 108.22291666666666,
      "duration": 0.6166666666666742,
      "endTime": 108.83958333333334
    },
    {
      "instrumentId": 0,
      "instrumentName": "Umi no Machi Mieru.MID",
      "isPercussion": false,
      "pitch": 69,
      "velocity": 83,
      "startTime": 108.225,
      "duration": 0.1458333333333428,
      "endTime": 108.37083333333334
    },
    {
      "instrumentId": 0,
      "instrumentName": "Umi no Machi Mieru.MID",
      "isPercussion": false,
      "pitch": 72,
      "velocity": 76,
      "startTime": 108.53541666666666,
      "duration": 0.037500000000008527,
      "endTime": 108.57291666666667
    },
    {
      "instrumentId": 0,
      "instrumentName": "Umi no Machi Mieru.MID",
      "isPercussion": false,
      "pitch": 54,
      "velocity": 69,
      "startTime": 108.8125,
      "duration": 0.12916666666666288,
      "endTime": 108.94166666666666
    },
    {
      "instrumentId": 0,
      "instrumentName": "Umi no Machi Mieru.MID",
      "isPercussion": false,
      "pitch": 76,
      "velocity": 83,
      "startTime": 108.81875,
      "duration": 0.10208333333333997,
      "endTime": 108.92083333333333
    },
    {
      "instrumentId": 0,
      "instrumentName": "Umi no Machi Mieru.MID",
      "isPercussion": false,
      "pitch": 72,
      "velocity": 79,
      "startTime": 109.11874999999999,
      "duration": 0.04791666666667993,
      "endTime": 109.16666666666667
    },
    {
      "instrumentId": 0,
      "instrumentName": "Umi no Machi Mieru.MID",
      "isPercussion": false,
      "pitch": 69,
      "velocity": 83,
      "startTime": 109.40208333333334,
      "duration": 0.07083333333332575,
      "endTime": 109.47291666666666
    },
    {
      "instrumentId": 0,
      "instrumentName": "Umi no Machi Mieru.MID",
      "isPercussion": false,
      "pitch": 47,
      "velocity": 72,
      "startTime": 109.40208333333334,
      "duration": 1.277083333333323,
      "endTime": 110.67916666666666
    },
    {
      "instrumentId": 0,
      "instrumentName": "Umi no Machi Mieru.MID",
      "isPercussion": false,
      "pitch": 72,
      "velocity": 79,
      "startTime": 109.54791666666667,
      "duration": 0.13124999999999432,
      "endTime": 109.67916666666666
    },
    {
      "instrumentId": 0,
      "instrumentName": "Umi no Machi Mieru.MID",
      "isPercussion": false,
      "pitch": 71,
      "velocity": 52,
      "startTime": 109.71666666666667,
      "duration": 0.11041666666666572,
      "endTime": 109.82708333333333
    },
    {
      "instrumentId": 0,
      "instrumentName": "Umi no Machi Mieru.MID",
      "isPercussion": false,
      "pitch": 69,
      "velocity": 66,
      "startTime": 109.84166666666667,
      "duration": 0.09166666666666856,
      "endTime": 109.93333333333334
    },
    {
      "instrumentId": 0,
      "instrumentName": "Umi no Machi Mieru.MID",
      "isPercussion": false,
      "pitch": 67,
      "velocity": 76,
      "startTime": 109.99166666666666,
      "duration": 0.11875000000000568,
      "endTime": 110.11041666666667
    },
    {
      "instrumentId": 0,
      "instrumentName": "Umi no Machi Mieru.MID",
      "isPercussion": false,
      "pitch": 54,
      "velocity": 60,
      "startTime": 110.00416666666666,
      "duration": 0.60208333333334,
      "endTime": 110.60625
    },
    {
      "instrumentId": 0,
      "instrumentName": "Umi no Machi Mieru.MID",
      "isPercussion": false,
      "pitch": 66,
      "velocity": 65,
      "startTime": 110.1375,
      "duration": 0.08958333333332291,
      "endTime": 110.22708333333333
    },
    {
      "instrumentId": 0,
      "instrumentName": "Umi no Machi Mieru.MID",
      "isPercussion": false,
      "pitch": 64,
      "velocity": 72,
      "startTime": 110.26666666666667,
      "duration": 0.07708333333333428,
      "endTime": 110.34375
    },
    {
      "instrumentId": 0,
      "instrumentName": "Umi no Machi Mieru.MID",
      "isPercussion": false,
      "pitch": 63,
      "velocity": 79,
      "startTime": 110.43541666666667,
      "duration": 0.037499999999994316,
      "endTime": 110.47291666666666
    },
    {
      "instrumentId": 0,
      "instrumentName": "Umi no Machi Mieru.MID",
      "isPercussion": false,
      "pitch": 59,
      "velocity": 74,
      "startTime": 110.58125,
      "duration": 0.11041666666666572,
      "endTime": 110.69166666666666
    },
    {
      "instrumentId": 0,
      "instrumentName": "Umi no Machi Mieru.MID",
      "isPercussion": false,
      "pitch": 64,
      "velocity": 89,
      "startTime": 110.58125,
      "duration": 0.8041666666666742,
      "endTime": 111.38541666666667
    },
    {
      "instrumentId": 0,
      "instrumentName": "Umi no Machi Mieru.MID",
      "isPercussion": false,
      "pitch": 52,
      "velocity": 83,
      "startTime": 111.21041666666666,
      "duration": 0.03541666666667709,
      "endTime": 111.24583333333334
    },
    {
      "instrumentId": 0,
      "instrumentName": "Umi no Machi Mieru.MID",
      "isPercussion": false,
      "pitch": 40,
      "velocity": 87,
      "startTime": 111.83541666666666,
      "duration": 0.5895833333333371,
      "endTime": 112.425
    },
    {
      "instrumentId": 0,
      "instrumentName": "Umi no Machi Mieru.MID",
      "isPercussion": false,
      "pitch": 79,
      "velocity": 79,
      "startTime": 112.15833333333333,
      "duration": 0.08124999999999716,
      "endTime": 112.23958333333333
    },
    {
      "instrumentId": 0,
      "instrumentName": "Umi no Machi Mieru.MID",
      "isPercussion": false,
      "pitch": 67,
      "velocity": 63,
      "startTime": 112.16875,
      "duration": 0.056249999999991473,
      "endTime": 112.225
    },
    {
      "instrumentId": 0,
      "instrumentName": "Umi no Machi Mieru.MID",
      "isPercussion": false,
      "pitch": 78,
      "velocity": 79,
      "startTime": 112.27916666666667,
      "duration": 0.06874999999999432,
      "endTime": 112.34791666666666
    },
    {
      "instrumentId": 0,
      "instrumentName": "Umi no Machi Mieru.MID",
      "isPercussion": false,
      "pitch": 52,
      "velocity": 78,
      "startTime": 112.45625,
      "duration": 0.04999999999999716,
      "endTime": 112.50625
    },
    {
      "instrumentId": 0,
      "instrumentName": "Umi no Machi Mieru.MID",
      "isPercussion": false,
      "pitch": 79,
      "velocity": 76,
      "startTime": 112.45625,
      "duration": 0.054166666666674246,
      "endTime": 112.51041666666667
    },
    {
      "instrumentId": 0,
      "instrumentName": "Umi no Machi Mieru.MID",
      "isPercussion": false,
      "pitch": 69,
      "velocity": 70,
      "startTime": 112.7375,
      "duration": 0.09583333333333144,
      "endTime": 112.83333333333333
    },
    {
      "instrumentId": 0,
      "instrumentName": "Umi no Machi Mieru.MID",
      "isPercussion": false,
      "pitch": 72,
      "velocity": 71,
      "startTime": 113.03333333333333,
      "duration": 0.11041666666666572,
      "endTime": 113.14375
    },
    {
      "instrumentId": 0,
      "instrumentName": "Umi no Machi Mieru.MID",
      "isPercussion": false,
      "pitch": 45,
      "velocity": 83,
      "startTime": 113.0375,
      "duration": 0.5166666666666657,
      "endTime": 113.55416666666666
    },
    {
      "instrumentId": 0,
      "instrumentName": "Umi no Machi Mieru.MID",
      "isPercussion": false,
      "pitch": 74,
      "velocity": 73,
      "startTime": 113.175,
      "duration": 0.12708333333333144,
      "endTime": 113.30208333333333
    },
    {
      "instrumentId": 0,
      "instrumentName": "Umi no Machi Mieru.MID",
      "isPercussion": false,
      "pitch": 72,
      "velocity": 57,
      "startTime": 113.32291666666667,
      "duration": 0.10833333333332007,
      "endTime": 113.43124999999999
    },
    {
      "instrumentId": 0,
      "instrumentName": "Umi no Machi Mieru.MID",
      "isPercussion": false,
      "pitch": 71,
      "velocity": 62,
      "startTime": 113.44791666666667,
      "duration": 0.06666666666666288,
      "endTime": 113.51458333333333
    },
    {
      "instrumentId": 0,
      "instrumentName": "Umi no Machi Mieru.MID",
      "isPercussion": false,
      "pitch": 52,
      "velocity": 66,
      "startTime": 113.625,
      "duration": 0.04999999999999716,
      "endTime": 113.675
    },
    {
      "instrumentId": 0,
      "instrumentName": "Umi no Machi Mieru.MID",
      "isPercussion": false,
      "pitch": 72,
      "velocity": 84,
      "startTime": 113.625,
      "duration": 0.8791666666666629,
      "endTime": 114.50416666666666
    },
    {
      "instrumentId": 0,
      "instrumentName": "Umi no Machi Mieru.MID",
      "isPercussion": false,
      "pitch": 50,
      "velocity": 79,
      "startTime": 114.25,
      "duration": 0.67916666666666,
      "endTime": 114.92916666666666
    },
    {
      "instrumentId": 0,
      "instrumentName": "Umi no Machi Mieru.MID",
      "isPercussion": false,
      "pitch": 78,
      "velocity": 79,
      "startTime": 114.55416666666666,
      "duration": 0.09791666666667709,
      "endTime": 114.65208333333334
    },
    {
      "instrumentId": 0,
      "instrumentName": "Umi no Machi Mieru.MID",
      "isPercussion": false,
      "pitch": 66,
      "velocity": 59,
      "startTime": 114.5625,
      "duration": 0.057291666666671404,
      "endTime": 114.61979166666667
    },
    {
      "instrumentId": 0,
      "instrumentName": "Umi no Machi Mieru.MID",
      "isPercussion": false,
      "pitch": 77,
      "velocity": 67,
      "startTime": 114.715625,
      "duration": 0.06666666666666288,
      "endTime": 114.78229166666667
    },
    {
      "instrumentId": 0,
      "instrumentName": "Umi no Machi Mieru.MID",
      "isPercussion": false,
      "pitch": 78,
      "velocity": 92,
      "startTime": 114.82916666666667,
      "duration": 0.08541666666666003,
      "endTime": 114.91458333333333
    },
    {
      "instrumentId": 0,
      "instrumentName": "Umi no Machi Mieru.MID",
      "isPercussion": false,
      "pitch": 54,
      "velocity": 64,
      "startTime": 114.84375,
      "duration": 0.1041666666666714,
      "endTime": 114.94791666666667
    },
    {
      "instrumentId": 0,
      "instrumentName": "Umi no Machi Mieru.MID",
      "isPercussion": false,
      "pitch": 69,
      "velocity": 70,
      "startTime": 115.13125,
      "duration": 0.11458333333334281,
      "endTime": 115.24583333333334
    },
    {
      "instrumentId": 0,
      "instrumentName": "Umi no Machi Mieru.MID",
      "isPercussion": false,
      "pitch": 45,
      "velocity": 75,
      "startTime": 115.43333333333334,
      "duration": 0.36378706666666005,
      "endTime": 115.7971204
    },
    {
      "instrumentId": 0,
      "instrumentName": "Umi no Machi Mieru.MID",
      "isPercussion": false,
      "pitch": 71,
      "velocity": 64,
      "startTime": 115.434375,
      "duration": 0.13124999999999432,
      "endTime": 115.565625
    },
    {
      "instrumentId": 0,
      "instrumentName": "Umi no Machi Mieru.MID",
      "isPercussion": false,
      "pitch": 72,
      "velocity": 76,
      "startTime": 115.58333333333333,
      "duration": 0.08958333333333712,
      "endTime": 115.67291666666667
    },
    {
      "instrumentId": 0,
      "instrumentName": "Umi no Machi Mieru.MID",
      "isPercussion": false,
      "pitch": 71,
      "velocity": 57,
      "startTime": 115.75,
      "duration": 0.06937170000000492,
      "endTime": 115.8193717
    },
    {
      "instrumentId": 0,
      "instrumentName": "Umi no Machi Mieru.MID",
      "isPercussion": false,
      "pitch": 69,
      "velocity": 64,
      "startTime": 115.90589,
      "duration": 0.10416666666665719,
      "endTime": 116.01005666666666
    },
    {
      "instrumentId": 0,
      "instrumentName": "Umi no Machi Mieru.MID",
      "isPercussion": false,
      "pitch": 71,
      "velocity": 84,
      "startTime": 116.07880666666667,
      "duration": 0.5166666666666657,
      "endTime": 116.59547333333333
    },
    {
      "instrumentId": 0,
      "instrumentName": "Umi no Machi Mieru.MID",
      "isPercussion": false,
      "pitch": 52,
      "velocity": 61,
      "startTime": 116.08297333333333,
      "duration": 0.4645833333333371,
      "endTime": 116.54755666666667
    },
    {
      "instrumentId": 0,
      "instrumentName": "Umi no Machi Mieru.MID",
      "isPercussion": false,
      "pitch": 48,
      "velocity": 85,
      "startTime": 116.64339,
      "duration": 0.6229166666666686,
      "endTime": 117.26630666666667
    },
    {
      "instrumentId": 0,
      "instrumentName": "Umi no Machi Mieru.MID",
      "isPercussion": false,
      "pitch": 76,
      "velocity": 70,
      "startTime": 116.94755666666667,
      "duration": 0.07083333333332575,
      "endTime": 117.01839
    },
    {
      "instrumentId": 0,
      "instrumentName": "Umi no Machi Mieru.MID",
      "isPercussion": false,
      "pitch": 64,
      "velocity": 61,
      "startTime": 116.95068166666667,
      "duration": 0.07604166666666856,
      "endTime": 117.02672333333334
    },
    {
      "instrumentId": 0,
      "instrumentName": "Umi no Machi Mieru.MID",
      "isPercussion": false,
      "pitch": 75,
      "velocity": 57,
      "startTime": 117.08714,
      "duration": 0.125,
      "endTime": 117.21214
    },
    {
      "instrumentId": 0,
      "instrumentName": "Umi no Machi Mieru.MID",
      "isPercussion": false,
      "pitch": 52,
      "velocity": 65,
      "startTime": 117.22255666666666,
      "duration": 0.08750000000000568,
      "endTime": 117.31005666666667
    },
    {
      "instrumentId": 0,
      "instrumentName": "Umi no Machi Mieru.MID",
      "isPercussion": false,
      "pitch": 76,
      "velocity": 87,
      "startTime": 117.23505666666667,
      "duration": 0.08958333333333712,
      "endTime": 117.32464
    },
    {
      "instrumentId": 0,
      "instrumentName": "Umi no Machi Mieru.MID",
      "isPercussion": false,
      "pitch": 67,
      "velocity": 74,
      "startTime": 117.52464,
      "duration": 0.08541666666666003,
      "endTime": 117.61005666666667
    },
    {
      "instrumentId": 0,
      "instrumentName": "Umi no Machi Mieru.MID",
      "isPercussion": false,
      "pitch": 42,
      "velocity": 62,
      "startTime": 117.83922333333334,
      "duration": 0.12083333333332291,
      "endTime": 117.96005666666666
    },
    {
      "instrumentId": 0,
      "instrumentName": "Umi no Machi Mieru.MID",
      "isPercussion": false,
      "pitch": 69,
      "velocity": 72,
      "startTime": 117.84547333333333,
      "duration": 0.12083333333333712,
      "endTime": 117.96630666666667
    },
    {
      "instrumentId": 0,
      "instrumentName": "Umi no Machi Mieru.MID",
      "isPercussion": false,
      "pitch": 71,
      "velocity": 70,
      "startTime": 118.01630666666667,
      "duration": 0.09375,
      "endTime": 118.11005666666667
    },
    {
      "instrumentId": 0,
      "instrumentName": "Umi no Machi Mieru.MID",
      "isPercussion": false,
      "pitch": 69,
      "velocity": 65,
      "startTime": 118.15172333333334,
      "duration": 0.07708333333333428,
      "endTime": 118.22880666666667
    },
    {
      "instrumentId": 0,
      "instrumentName": "Umi no Machi Mieru.MID",
      "isPercussion": false,
      "pitch": 68,
      "velocity": 66,
      "startTime": 118.30380666666666,
      "duration": 0.07708333333333428,
      "endTime": 118.38089
    },
    {
      "instrumentId": 0,
      "instrumentName": "Umi no Machi Mieru.MID",
      "isPercussion": false,
      "pitch": 54,
      "velocity": 62,
      "startTime": 118.48505666666667,
      "duration": 0.08958333333333712,
      "endTime": 118.57464
    },
    {
      "instrumentId": 0,
      "instrumentName": "Umi no Machi Mieru.MID",
      "isPercussion": false,
      "pitch": 69,
      "velocity": 87,
      "startTime": 118.48505666666667,
      "duration": 0.9729166666666629,
      "endTime": 119.45797333333333
    },
    {
      "instrumentId": 0,
      "instrumentName": "Umi no Machi Mieru.MID",
      "isPercussion": false,
      "pitch": 47,
      "velocity": 76,
      "startTime": 119.12047333333334,
      "duration": 0.6895833333333314,
      "endTime": 119.81005666666667
    },
    {
      "instrumentId": 0,
      "instrumentName": "Umi no Machi Mieru.MID",
      "isPercussion": false,
      "pitch": 75,
      "velocity": 63,
      "startTime": 119.42464,
      "duration": 0.10625000000000284,
      "endTime": 119.53089
    },
    {
      "instrumentId": 0,
      "instrumentName": "Umi no Machi Mieru.MID",
      "isPercussion": false,
      "pitch": 73,
      "velocity": 60,
      "startTime": 119.56422333333333,
      "duration": 0.16249999999999432,
      "endTime": 119.72672333333333
    },
    {
      "instrumentId": 0,
      "instrumentName": "Umi no Machi Mieru.MID",
      "isPercussion": false,
      "pitch": 75,
      "velocity": 87,
      "startTime": 119.71005666666666,
      "duration": 0.09583333333334565,
      "endTime": 119.80589
    },
    {
      "instrumentId": 0,
      "instrumentName": "Umi no Machi Mieru.MID",
      "isPercussion": false,
      "pitch": 54,
      "velocity": 64,
      "startTime": 119.71839,
      "duration": 0.3125,
      "endTime": 120.03089
    },
    {
      "instrumentId": 0,
      "instrumentName": "Umi no Machi Mieru.MID",
      "isPercussion": false,
      "pitch": 66,
      "velocity": 68,
      "startTime": 120.01630666666667,
      "duration": 0.052083333333328596,
      "endTime": 120.06839
    },
    {
      "instrumentId": 0,
      "instrumentName": "Umi no Machi Mieru.MID",
      "isPercussion": false,
      "pitch": 67,
      "velocity": 77,
      "startTime": 120.30589,
      "duration": 0.12083333333332291,
      "endTime": 120.42672333333333
    },
    {
      "instrumentId": 0,
      "instrumentName": "Umi no Machi Mieru.MID",
      "isPercussion": false,
      "pitch": 40,
      "velocity": 71,
      "startTime": 120.30589,
      "duration": 0.40416666666665435,
      "endTime": 120.71005666666666
    },
    {
      "instrumentId": 0,
      "instrumentName": "Umi no Machi Mieru.MID",
      "isPercussion": false,
      "pitch": 69,
      "velocity": 72,
      "startTime": 120.46214,
      "duration": 0.1354166666666572,
      "endTime": 120.59755666666666
    },
    {
      "instrumentId": 0,
      "instrumentName": "Umi no Machi Mieru.MID",
      "isPercussion": false,
      "pitch": 67,
      "velocity": 54,
      "startTime": 120.61214,
      "duration": 0.11249999999999716,
      "endTime": 120.72464
    },
    {
      "instrumentId": 0,
      "instrumentName": "Umi no Machi Mieru.MID",
      "isPercussion": false,
      "pitch": 66,
      "velocity": 72,
      "startTime": 120.74130666666666,
      "duration": 0.1666666666666714,
      "endTime": 120.90797333333333
    },
    {
      "instrumentId": 0,
      "instrumentName": "Umi no Machi Mieru.MID",
      "isPercussion": false,
      "pitch": 52,
      "velocity": 67,
      "startTime": 120.88714,
      "duration": 0.054166666666660035,
      "endTime": 120.94130666666666
    },
    {
      "instrumentId": 0,
      "instrumentName": "Umi no Machi Mieru.MID",
      "isPercussion": false,
      "pitch": 67,
      "velocity": 87,
      "startTime": 120.88714,
      "duration": 0.08749999999999147,
      "endTime": 120.97464
    },
    {
      "instrumentId": 0,
      "instrumentName": "Umi no Machi Mieru.MID",
      "isPercussion": false,
      "pitch": 74,
      "velocity": 87,
      "startTime": 121.49755666666667,
      "duration": 0.8145833333333314,
      "endTime": 122.31214
    },
    {
      "instrumentId": 0,
      "instrumentName": "Umi no Machi Mieru.MID",
      "isPercussion": false,
      "pitch": 41,
      "velocity": 69,
      "startTime": 121.50797333333333,
      "duration": 0.12291666666666856,
      "endTime": 121.63089
    },
    {
      "instrumentId": 0,
      "instrumentName": "Umi no Machi Mieru.MID",
      "isPercussion": false,
      "pitch": 69,
      "velocity": 76,
      "startTime": 121.50797333333333,
      "duration": 0.48541666666667993,
      "endTime": 121.99339
    },
    {
      "instrumentId": 0,
      "instrumentName": "Umi no Machi Mieru.MID",
      "isPercussion": false,
      "pitch": 62,
      "velocity": 68,
      "startTime": 121.50797333333333,
      "duration": 0.9083333333333456,
      "endTime": 122.41630666666667
    },
    {
      "instrumentId": 0,
      "instrumentName": "Umi no Machi Mieru.MID",
      "isPercussion": false,
      "pitch": 48,
      "velocity": 83,
      "startTime": 121.80172333333333,
      "duration": 0.03333333333333144,
      "endTime": 121.83505666666666
    },
    {
      "instrumentId": 0,
      "instrumentName": "Umi no Machi Mieru.MID",
      "isPercussion": false,
      "pitch": 72,
      "velocity": 76,
      "startTime": 122.31839,
      "duration": 0.1041666666666714,
      "endTime": 122.42255666666667
    },
    {
      "instrumentId": 0,
      "instrumentName": "Umi no Machi Mieru.MID",
      "isPercussion": false,
      "pitch": 48,
      "velocity": 73,
      "startTime": 122.32880666666667,
      "duration": 0.037499999999994316,
      "endTime": 122.36630666666666
    },
    {
      "instrumentId": 0,
      "instrumentName": "Umi no Machi Mieru.MID",
      "isPercussion": false,
      "pitch": 69,
      "velocity": 76,
      "startTime": 122.33297333333333,
      "duration": 0.08333333333334281,
      "endTime": 122.41630666666667
    },
    {
      "instrumentId": 0,
      "instrumentName": "Umi no Machi Mieru.MID",
      "isPercussion": false,
      "pitch": 41,
      "velocity": 68,
      "startTime": 122.64130666666667,
      "duration": 0.33541666666666003,
      "endTime": 122.97672333333333
    },
    {
      "instrumentId": 0,
      "instrumentName": "Umi no Machi Mieru.MID",
      "isPercussion": false,
      "pitch": 72,
      "velocity": 76,
      "startTime": 122.64130666666667,
      "duration": 0.8562500000000028,
      "endTime": 123.49755666666667
    },
    {
      "instrumentId": 0,
      "instrumentName": "Umi no Machi Mieru.MID",
      "isPercussion": false,
      "pitch": 62,
      "velocity": 72,
      "startTime": 122.64130666666667,
      "duration": 0.96041666666666,
      "endTime": 123.60172333333333
    },
    {
      "instrumentId": 0,
      "instrumentName": "Umi no Machi Mieru.MID",
      "isPercussion": false,
      "pitch": 69,
      "velocity": 76,
      "startTime": 122.64964,
      "duration": 0.4624999999999915,
      "endTime": 123.11214
    },
    {
      "instrumentId": 0,
      "instrumentName": "Umi no Machi Mieru.MID",
      "isPercussion": false,
      "pitch": 48,
      "velocity": 79,
      "startTime": 122.93505666666667,
      "duration": 0.09375,
      "endTime": 123.02880666666667
    },
    {
      "instrumentId": 0,
      "instrumentName": "Umi no Machi Mieru.MID",
      "isPercussion": false,
      "pitch": 48,
      "velocity": 71,
      "startTime": 123.49755666666667,
      "duration": 0.04583333333333428,
      "endTime": 123.54339
    },
    {
      "instrumentId": 0,
      "instrumentName": "Umi no Machi Mieru.MID",
      "isPercussion": false,
      "pitch": 67,
      "velocity": 69,
      "startTime": 123.50797333333333,
      "duration": 0.039583333333339965,
      "endTime": 123.54755666666667
    },
    {
      "instrumentId": 0,
      "instrumentName": "Umi no Machi Mieru.MID",
      "isPercussion": false,
      "pitch": 71,
      "velocity": 60,
      "startTime": 123.51630666666667,
      "duration": 0.04999999999999716,
      "endTime": 123.56630666666666
    },
    {
      "instrumentId": 0,
      "instrumentName": "Umi no Machi Mieru.MID",
      "isPercussion": false,
      "pitch": 71,
      "velocity": 76,
      "startTime": 123.81214,
      "duration": 0.8604166666666657,
      "endTime": 124.67255666666667
    },
    {
      "instrumentId": 0,
      "instrumentName": "Umi no Machi Mieru.MID",
      "isPercussion": false,
      "pitch": 41,
      "velocity": 66,
      "startTime": 123.82047333333333,
      "duration": 0.3062500000000057,
      "endTime": 124.12672333333333
    },
    {
      "instrumentId": 0,
      "instrumentName": "Umi no Machi Mieru.MID",
      "isPercussion": false,
      "pitch": 67,
      "velocity": 76,
      "startTime": 123.82047333333333,
      "duration": 0.85208333333334,
      "endTime": 124.67255666666667
    },
    {
      "instrumentId": 0,
      "instrumentName": "Umi no Machi Mieru.MID",
      "isPercussion": false,
      "pitch": 62,
      "velocity": 71,
      "startTime": 123.82047333333333,
      "duration": 0.9541666666666799,
      "endTime": 124.77464
    },
    {
      "instrumentId": 0,
      "instrumentName": "Umi no Machi Mieru.MID",
      "isPercussion": false,
      "pitch": 48,
      "velocity": 81,
      "startTime": 124.11839,
      "duration": 0.04166666666665719,
      "endTime": 124.16005666666666
    },
    {
      "instrumentId": 0,
      "instrumentName": "Umi no Machi Mieru.MID",
      "isPercussion": false,
      "pitch": 69,
      "velocity": 89,
      "startTime": 124.67255666666667,
      "duration": 0.09583333333333144,
      "endTime": 124.76839
    },
    {
      "instrumentId": 0,
      "instrumentName": "Umi no Machi Mieru.MID",
      "isPercussion": false,
      "pitch": 57,
      "velocity": 62,
      "startTime": 124.68714,
      "duration": 0.03333333333333144,
      "endTime": 124.72047333333333
    },
    {
      "instrumentId": 0,
      "instrumentName": "Umi no Machi Mieru.MID",
      "isPercussion": false,
      "pitch": 69,
      "velocity": 76,
      "startTime": 124.98922333333333,
      "duration": 0.9208333333333343,
      "endTime": 125.91005666666666
    },
    {
      "instrumentId": 0,
      "instrumentName": "Umi no Machi Mieru.MID",
      "isPercussion": false,
      "pitch": 62,
      "velocity": 69,
      "startTime": 124.99547333333334,
      "duration": 0.9937499999999915,
      "endTime": 125.98922333333333
    },
    {
      "instrumentId": 0,
      "instrumentName": "Umi no Machi Mieru.MID",
      "isPercussion": false,
      "pitch": 41,
      "velocity": 69,
      "startTime": 124.99964,
      "duration": 0.3125,
      "endTime": 125.31214
    },
    {
      "instrumentId": 0,
      "instrumentName": "Umi no Machi Mieru.MID",
      "isPercussion": false,
      "pitch": 48,
      "velocity": 72,
      "startTime": 125.29755666666667,
      "duration": 0.04999999999999716,
      "endTime": 125.34755666666666
    },
    {
      "instrumentId": 0,
      "instrumentName": "Umi no Machi Mieru.MID",
      "isPercussion": false,
      "pitch": 57,
      "velocity": 61,
      "startTime": 125.87672333333333,
      "duration": 0.04375000000000284,
      "endTime": 125.92047333333333
    },
    {
      "instrumentId": 0,
      "instrumentName": "Umi no Machi Mieru.MID",
      "isPercussion": false,
      "pitch": 67,
      "velocity": 72,
      "startTime": 125.87672333333333,
      "duration": 0.0729166666666714,
      "endTime": 125.94964
    },
    {
      "instrumentId": 0,
      "instrumentName": "Umi no Machi Mieru.MID",
      "isPercussion": false,
      "pitch": 66,
      "velocity": 74,
      "startTime": 126.17880666666666,
      "duration": 0.24791666666666856,
      "endTime": 126.42672333333333
    },
    {
      "instrumentId": 0,
      "instrumentName": "Umi no Machi Mieru.MID",
      "isPercussion": false,
      "pitch": 47,
      "velocity": 61,
      "startTime": 126.19547333333333,
      "duration": 2.11041666666668,
      "endTime": 128.30589
    },
    {
      "instrumentId": 0,
      "instrumentName": "Umi no Machi Mieru.MID",
      "isPercussion": false,
      "pitch": 54,
      "velocity": 54,
      "startTime": 126.48714,
      "duration": 1.816666666666677,
      "endTime": 128.30380666666667
    },
    {
      "instrumentId": 0,
      "instrumentName": "Umi no Machi Mieru.MID",
      "isPercussion": false,
      "pitch": 78,
      "velocity": 72,
      "startTime": 126.79755666666667,
      "duration": 1.1624999999999943,
      "endTime": 127.96005666666666
    },
    {
      "instrumentId": 0,
      "instrumentName": "Umi no Machi Mieru.MID",
      "isPercussion": false,
      "pitch": 66,
      "velocity": 70,
      "startTime": 126.79964,
      "duration": 1.4937499999999915,
      "endTime": 128.29339
    },
    {
      "instrumentId": 0,
      "instrumentName": "Umi no Machi Mieru.MID",
      "isPercussion": false,
      "pitch": 59,
      "velocity": 55,
      "startTime": 126.81005666666667,
      "duration": 1.5374999999999943,
      "endTime": 128.34755666666666
    },
    {
      "instrumentId": 0,
      "instrumentName": "Umi no Machi Mieru.MID",
      "isPercussion": false,
      "pitch": 75,
      "velocity": 74,
      "startTime": 127.94964,
      "duration": 0.2958333333333343,
      "endTime": 128.24547333333334
    },
    {
      "instrumentId": 0,
      "instrumentName": "Umi no Machi Mieru.MID",
      "isPercussion": false,
      "pitch": 73,
      "velocity": 55,
      "startTime": 128.27672333333334,
      "duration": 0.052083333333314386,
      "endTime": 128.32880666666665
    },
    {
      "instrumentId": 0,
      "instrumentName": "Umi no Machi Mieru.MID",
      "isPercussion": false,
      "pitch": 47,
      "velocity": 47,
      "startTime": 128.49964,
      "duration": 3.0374999999999943,
      "endTime": 131.53714
    },
    {
      "instrumentId": 0,
      "instrumentName": "Umi no Machi Mieru.MID",
      "isPercussion": false,
      "pitch": 54,
      "velocity": 54,
      "startTime": 128.54130666666666,
      "duration": 3.0770833333333485,
      "endTime": 131.61839
    },
    {
      "instrumentId": 0,
      "instrumentName": "Umi no Machi Mieru.MID",
      "isPercussion": false,
      "pitch": 59,
      "velocity": 51,
      "startTime": 128.59755666666666,
      "duration": 3.0145833333333485,
      "endTime": 131.61214
    },
    {
      "instrumentId": 0,
      "instrumentName": "Umi no Machi Mieru.MID",
      "isPercussion": false,
      "pitch": 66,
      "velocity": 60,
      "startTime": 128.63089,
      "duration": 0.23541666666667993,
      "endTime": 128.86630666666667
    },
    {
      "instrumentId": 0,
      "instrumentName": "Umi no Machi Mieru.MID",
      "isPercussion": false,
      "pitch": 75,
      "velocity": 75,
      "startTime": 128.63922333333332,
      "duration": 0.5666666666666913,
      "endTime": 129.20589
    },
    {
      "instrumentId": 0,
      "instrumentName": "Umi no Machi Mieru.MID",
      "isPercussion": false,
      "pitch": 83,
      "velocity": 44,
      "startTime": 130.07672333333332,
      "duration": 0.12083333333333712,
      "endTime": 130.19755666666666
    },
    {
      "instrumentId": 0,
      "instrumentName": "Umi no Machi Mieru.MID",
      "isPercussion": false,
      "pitch": 95,
      "velocity": 61,
      "startTime": 130.16214,
      "duration": 0.11666666666667425,
      "endTime": 130.27880666666667
    },
    {
      "instrumentId": 0,
      "instrumentName": "Umi no Machi Mieru.MID",
      "isPercussion": false,
      "pitch": 72,
      "velocity": 48,
      "startTime": 132.43089,
      "duration": 0.06458333333333144,
      "endTime": 132.49547333333334
    },
    {
      "instrumentId": 0,
      "instrumentName": "Umi no Machi Mieru.MID",
      "isPercussion": false,
      "pitch": 53,
      "velocity": 56,
      "startTime": 132.71005666666667,
      "duration": 0.054166666666645824,
      "endTime": 132.76422333333332
    },
    {
      "instrumentId": 0,
      "instrumentName": "Umi no Machi Mieru.MID",
      "isPercussion": false,
      "pitch": 80,
      "velocity": 70,
      "startTime": 132.72672333333333,
      "duration": 1.1500000000000057,
      "endTime": 133.87672333333333
    },
    {
      "instrumentId": 0,
      "instrumentName": "Umi no Machi Mieru.MID",
      "isPercussion": false,
      "pitch": 60,
      "velocity": 59,
      "startTime": 133.00172333333333,
      "duration": 0.037499999999994316,
      "endTime": 133.03922333333333
    },
    {
      "instrumentId": 0,
      "instrumentName": "Umi no Machi Mieru.MID",
      "isPercussion": false,
      "pitch": 65,
      "velocity": 71,
      "startTime": 133.29339,
      "duration": 0.03125,
      "endTime": 133.32464
    },
    {
      "instrumentId": 0,
      "instrumentName": "Umi no Machi Mieru.MID",
      "isPercussion": false,
      "pitch": 72,
      "velocity": 61,
      "startTime": 133.59755666666666,
      "duration": 0.25208333333333144,
      "endTime": 133.84964
    },
    {
      "instrumentId": 0,
      "instrumentName": "Umi no Machi Mieru.MID",
      "isPercussion": false,
      "pitch": 48,
      "velocity": 55,
      "startTime": 133.87672333333333,
      "duration": 0.05208333333334281,
      "endTime": 133.92880666666667
    },
    {
      "instrumentId": 0,
      "instrumentName": "Umi no Machi Mieru.MID",
      "isPercussion": false,
      "pitch": 79,
      "velocity": 67,
      "startTime": 133.87672333333333,
      "duration": 0.9291666666666742,
      "endTime": 134.80589
    },
    {
      "instrumentId": 0,
      "instrumentName": "Umi no Machi Mieru.MID",
      "isPercussion": false,
      "pitch": 55,
      "velocity": 58,
      "startTime": 134.18297333333334,
      "duration": 0.037499999999994316,
      "endTime": 134.22047333333333
    },
    {
      "instrumentId": 0,
      "instrumentName": "Umi no Machi Mieru.MID",
      "isPercussion": false,
      "pitch": 60,
      "velocity": 68,
      "startTime": 134.47672333333333,
      "duration": 0.03333333333333144,
      "endTime": 134.51005666666666
    },
    {
      "instrumentId": 0,
      "instrumentName": "Umi no Machi Mieru.MID",
      "isPercussion": false,
      "pitch": 72,
      "velocity": 59,
      "startTime": 134.76422333333332,
      "duration": 0.06875000000002274,
      "endTime": 134.83297333333334
    },
    {
      "instrumentId": 0,
      "instrumentName": "Umi no Machi Mieru.MID",
      "isPercussion": false,
      "pitch": 75,
      "velocity": 54,
      "startTime": 135.02047333333334,
      "duration": 0.04374999999998863,
      "endTime": 135.06422333333333
    },
    {
      "instrumentId": 0,
      "instrumentName": "Umi no Machi Mieru.MID",
      "isPercussion": false,
      "pitch": 49,
      "velocity": 56,
      "startTime": 135.04130666666666,
      "duration": 0.10625000000001705,
      "endTime": 135.14755666666667
    },
    {
      "instrumentId": 0,
      "instrumentName": "Umi no Machi Mieru.MID",
      "isPercussion": false,
      "pitch": 77,
      "velocity": 74,
      "startTime": 135.06422333333333,
      "duration": 0.5625,
      "endTime": 135.62672333333333
    },
    {
      "instrumentId": 0,
      "instrumentName": "Umi no Machi Mieru.MID",
      "isPercussion": false,
      "pitch": 56,
      "velocity": 45,
      "startTime": 135.34755666666666,
      "duration": 0.05208333333334281,
      "endTime": 135.39964
    },
    {
      "instrumentId": 0,
      "instrumentName": "Umi no Machi Mieru.MID",
      "isPercussion": false,
      "pitch": 75,
      "velocity": 79,
      "startTime": 135.63089,
      "duration": 0.09375,
      "endTime": 135.72464
    },
    {
      "instrumentId": 0,
      "instrumentName": "Umi no Machi Mieru.MID",
      "isPercussion": false,
      "pitch": 61,
      "velocity": 50,
      "startTime": 135.63922333333332,
      "duration": 0.04583333333334849,
      "endTime": 135.68505666666667
    },
    {
      "instrumentId": 0,
      "instrumentName": "Umi no Machi Mieru.MID",
      "isPercussion": false,
      "pitch": 73,
      "velocity": 62,
      "startTime": 135.92047333333332,
      "duration": 0.07291666666668561,
      "endTime": 135.99339
    },
    {
      "instrumentId": 0,
      "instrumentName": "Umi no Machi Mieru.MID",
      "isPercussion": false,
      "pitch": 75,
      "velocity": 76,
      "startTime": 136.20589,
      "duration": 0.7833333333333314,
      "endTime": 136.98922333333334
    },
    {
      "instrumentId": 0,
      "instrumentName": "Umi no Machi Mieru.MID",
      "isPercussion": false,
      "pitch": 48,
      "velocity": 60,
      "startTime": 136.21422333333334,
      "duration": 0.21875,
      "endTime": 136.43297333333334
    },
    {
      "instrumentId": 0,
      "instrumentName": "Umi no Machi Mieru.MID",
      "isPercussion": false,
      "pitch": 51,
      "velocity": 56,
      "startTime": 136.49547333333334,
      "duration": 0.06458333333333144,
      "endTime": 136.56005666666667
    },
    {
      "instrumentId": 0,
      "instrumentName": "Umi no Machi Mieru.MID",
      "isPercussion": false,
      "pitch": 55,
      "velocity": 59,
      "startTime": 136.79339,
      "duration": 0.03333333333333144,
      "endTime": 136.82672333333332
    },
    {
      "instrumentId": 0,
      "instrumentName": "Umi no Machi Mieru.MID",
      "isPercussion": false,
      "pitch": 68,
      "velocity": 61,
      "startTime": 137.06422333333333,
      "duration": 0.04374999999998863,
      "endTime": 137.10797333333332
    },
    {
      "instrumentId": 0,
      "instrumentName": "Umi no Machi Mieru.MID",
      "isPercussion": false,
      "pitch": 46,
      "velocity": 62,
      "startTime": 137.34547333333333,
      "duration": 0.3791666666666629,
      "endTime": 137.72464
    },
    {
      "instrumentId": 0,
      "instrumentName": "Umi no Machi Mieru.MID",
      "isPercussion": false,
      "pitch": 70,
      "velocity": 75,
      "startTime": 137.346515,
      "duration": 0.1260416666666515,
      "endTime": 137.47255666666666
    },
    {
      "instrumentId": 0,
      "instrumentName": "Umi no Machi Mieru.MID",
      "isPercussion": false,
      "pitch": 73,
      "velocity": 76,
      "startTime": 137.63922333333332,
      "duration": 0.07083333333335418,
      "endTime": 137.71005666666667
    },
    {
      "instrumentId": 0,
      "instrumentName": "Umi no Machi Mieru.MID",
      "isPercussion": false,
      "pitch": 53,
      "velocity": 55,
      "startTime": 137.64964,
      "duration": 0.06041666666666856,
      "endTime": 137.71005666666667
    },
    {
      "instrumentId": 0,
      "instrumentName": "Umi no Machi Mieru.MID",
      "isPercussion": false,
      "pitch": 77,
      "velocity": 87,
      "startTime": 137.92255666666665,
      "duration": 0.08750000000000568,
      "endTime": 138.01005666666666
    },
    {
      "instrumentId": 0,
      "instrumentName": "Umi no Machi Mieru.MID",
      "isPercussion": false,
      "pitch": 58,
      "velocity": 68,
      "startTime": 137.92880666666667,
      "duration": 0.03541666666666288,
      "endTime": 137.96422333333334
    },
    {
      "instrumentId": 0,
      "instrumentName": "Umi no Machi Mieru.MID",
      "isPercussion": false,
      "pitch": 80,
      "velocity": 90,
      "startTime": 138.19547333333333,
      "duration": 0.23541666666667993,
      "endTime": 138.43089
    },
    {
      "instrumentId": 0,
      "instrumentName": "Umi no Machi Mieru.MID",
      "isPercussion": false,
      "pitch": 79,
      "velocity": 83,
      "startTime": 138.46839,
      "duration": 0.2541666666666629,
      "endTime": 138.72255666666666
    },
    {
      "instrumentId": 0,
      "instrumentName": "Umi no Machi Mieru.MID",
      "isPercussion": false,
      "pitch": 51,
      "velocity": 64,
      "startTime": 138.46839,
      "duration": 0.2874999999999943,
      "endTime": 138.75589
    },
    {
      "instrumentId": 0,
      "instrumentName": "Umi no Machi Mieru.MID",
      "isPercussion": false,
      "pitch": 80,
      "velocity": 56,
      "startTime": 138.75797333333333,
      "duration": 0.08541666666667425,
      "endTime": 138.84339
    },
    {
      "instrumentId": 0,
      "instrumentName": "Umi no Machi Mieru.MID",
      "isPercussion": false,
      "pitch": 55,
      "velocity": 42,
      "startTime": 138.78297333333333,
      "duration": 0.06458333333333144,
      "endTime": 138.84755666666666
    },
    {
      "instrumentId": 0,
      "instrumentName": "Umi no Machi Mieru.MID",
      "isPercussion": false,
      "pitch": 79,
      "velocity": 52,
      "startTime": 138.84339,
      "duration": 0.10833333333332007,
      "endTime": 138.95172333333332
    },
    {
      "instrumentId": 0,
      "instrumentName": "Umi no Machi Mieru.MID",
      "isPercussion": false,
      "pitch": 77,
      "velocity": 69,
      "startTime": 138.95172333333332,
      "duration": 0.09166666666666856,
      "endTime": 139.04339
    },
    {
      "instrumentId": 0,
      "instrumentName": "Umi no Machi Mieru.MID",
      "isPercussion": false,
      "pitch": 58,
      "velocity": 56,
      "startTime": 139.04339,
      "duration": 0.04791666666667993,
      "endTime": 139.09130666666667
    },
    {
      "instrumentId": 0,
      "instrumentName": "Umi no Machi Mieru.MID",
      "isPercussion": false,
      "pitch": 75,
      "velocity": 87,
      "startTime": 139.04339,
      "duration": 0.09375,
      "endTime": 139.13714
    },
    {
      "instrumentId": 0,
      "instrumentName": "Umi no Machi Mieru.MID",
      "isPercussion": false,
      "pitch": 55,
      "velocity": 58,
      "startTime": 139.32672333333332,
      "duration": 0.041666666666685614,
      "endTime": 139.36839
    },
    {
      "instrumentId": 0,
      "instrumentName": "Umi no Machi Mieru.MID",
      "isPercussion": false,
      "pitch": 70,
      "velocity": 55,
      "startTime": 139.33714,
      "duration": 0.04791666666665151,
      "endTime": 139.38505666666666
    },
    {
      "instrumentId": 0,
      "instrumentName": "Umi no Machi Mieru.MID",
      "isPercussion": false,
      "pitch": 44,
      "velocity": 68,
      "startTime": 139.61005666666665,
      "duration": 0.10625000000001705,
      "endTime": 139.71630666666667
    },
    {
      "instrumentId": 0,
      "instrumentName": "Umi no Machi Mieru.MID",
      "isPercussion": false,
      "pitch": 72,
      "velocity": 78,
      "startTime": 139.61005666666665,
      "duration": 0.6083333333333485,
      "endTime": 140.21839
    },
    {
      "instrumentId": 0,
      "instrumentName": "Umi no Machi Mieru.MID",
      "isPercussion": false,
      "pitch": 63,
      "velocity": 71,
      "startTime": 139.91005666666666,
      "duration": 0.3187499999999943,
      "endTime": 140.22880666666666
    },
    {
      "instrumentId": 0,
      "instrumentName": "Umi no Machi Mieru.MID",
      "isPercussion": false,
      "pitch": 51,
      "velocity": 55,
      "startTime": 139.94130666666666,
      "duration": 0.05833333333333712,
      "endTime": 139.99964
    },
    {
      "instrumentId": 0,
      "instrumentName": "Umi no Machi Mieru.MID",
      "isPercussion": false,
      "pitch": 58,
      "velocity": 72,
      "startTime": 140.20380666666665,
      "duration": 0.08541666666667425,
      "endTime": 140.28922333333333
    },
    {
      "instrumentId": 0,
      "instrumentName": "Umi no Machi Mieru.MID",
      "isPercussion": false,
      "pitch": 70,
      "velocity": 85,
      "startTime": 140.20380666666665,
      "duration": 0.24791666666666856,
      "endTime": 140.45172333333332
    },
    {
      "instrumentId": 0,
      "instrumentName": "Umi no Machi Mieru.MID",
      "isPercussion": false,
      "pitch": 56,
      "velocity": 71,
      "startTime": 140.47880666666666,
      "duration": 0.041666666666685614,
      "endTime": 140.52047333333334
    },
    {
      "instrumentId": 0,
      "instrumentName": "Umi no Machi Mieru.MID",
      "isPercussion": false,
      "pitch": 68,
      "velocity": 82,
      "startTime": 140.49547333333334,
      "duration": 0.1354166666666572,
      "endTime": 140.63089
    },
    {
      "instrumentId": 0,
      "instrumentName": "Umi no Machi Mieru.MID",
      "isPercussion": false,
      "pitch": 48,
      "velocity": 83,
      "startTime": 140.78089,
      "duration": 0.6291666666666629,
      "endTime": 141.41005666666666
    },
    {
      "instrumentId": 0,
      "instrumentName": "Umi no Machi Mieru.MID",
      "isPercussion": false,
      "pitch": 55,
      "velocity": 70,
      "startTime": 140.78297333333333,
      "duration": 0.23750000000001137,
      "endTime": 141.02047333333334
    },
    {
      "instrumentId": 0,
      "instrumentName": "Umi no Machi Mieru.MID",
      "isPercussion": false,
      "pitch": 67,
      "velocity": 84,
      "startTime": 140.78297333333333,
      "duration": 0.2770833333333371,
      "endTime": 141.06005666666667
    },
    {
      "instrumentId": 0,
      "instrumentName": "Umi no Machi Mieru.MID",
      "isPercussion": false,
      "pitch": 68,
      "velocity": 88,
      "startTime": 141.07464,
      "duration": 0.33541666666667425,
      "endTime": 141.41005666666666
    },
    {
      "instrumentId": 0,
      "instrumentName": "Umi no Machi Mieru.MID",
      "isPercussion": false,
      "pitch": 56,
      "velocity": 72,
      "startTime": 141.35797333333332,
      "duration": 0.05208333333334281,
      "endTime": 141.41005666666666
    },
    {
      "instrumentId": 0,
      "instrumentName": "Umi no Machi Mieru.MID",
      "isPercussion": false,
      "pitch": 70,
      "velocity": 91,
      "startTime": 141.35797333333332,
      "duration": 0.08750000000000568,
      "endTime": 141.44547333333333
    },
    {
      "instrumentId": 0,
      "instrumentName": "Umi no Machi Mieru.MID",
      "isPercussion": false,
      "pitch": 72,
      "velocity": 78,
      "startTime": 141.64339,
      "duration": 0.12708333333333144,
      "endTime": 141.77047333333334
    },
    {
      "instrumentId": 0,
      "instrumentName": "Umi no Machi Mieru.MID",
      "isPercussion": false,
      "pitch": 41,
      "velocity": 74,
      "startTime": 141.92047333333332,
      "duration": 0.05833333333333712,
      "endTime": 141.97880666666666
    },
    {
      "instrumentId": 0,
      "instrumentName": "Umi no Machi Mieru.MID",
      "isPercussion": false,
      "pitch": 80,
      "velocity": 89,
      "startTime": 141.92047333333332,
      "duration": 1.1750000000000114,
      "endTime": 143.09547333333333
    },
    {
      "instrumentId": 0,
      "instrumentName": "Umi no Machi Mieru.MID",
      "isPercussion": false,
      "pitch": 48,
      "velocity": 70,
      "startTime": 142.20797333333334,
      "duration": 0.03333333333333144,
      "endTime": 142.24130666666667
    },
    {
      "instrumentId": 0,
      "instrumentName": "Umi no Machi Mieru.MID",
      "isPercussion": false,
      "pitch": 53,
      "velocity": 67,
      "startTime": 142.50797333333333,
      "duration": 0.03333333333333144,
      "endTime": 142.54130666666666
    },
    {
      "instrumentId": 0,
      "instrumentName": "Umi no Machi Mieru.MID",
      "isPercussion": false,
      "pitch": 72,
      "velocity": 69,
      "startTime": 142.79547333333332,
      "duration": 0.2895833333333542,
      "endTime": 143.08505666666667
    },
    {
      "instrumentId": 0,
      "instrumentName": "Umi no Machi Mieru.MID",
      "isPercussion": false,
      "pitch": 79,
      "velocity": 78,
      "startTime": 143.07880666666665,
      "duration": 0.9895833333333428,
      "endTime": 144.06839
    },
    {
      "instrumentId": 0,
      "instrumentName": "Umi no Machi Mieru.MID",
      "isPercussion": false,
      "pitch": 43,
      "velocity": 62,
      "startTime": 143.08505666666667,
      "duration": 0.05833333333333712,
      "endTime": 143.14339
    },
    {
      "instrumentId": 0,
      "instrumentName": "Umi no Machi Mieru.MID",
      "isPercussion": false,
      "pitch": 76,
      "velocity": 81,
      "startTime": 143.08505666666667,
      "duration": 0.8895833333333201,
      "endTime": 143.97464
    },
    {
      "instrumentId": 0,
      "instrumentName": "Umi no Machi Mieru.MID",
      "isPercussion": false,
      "pitch": 50,
      "velocity": 67,
      "startTime": 143.36839,
      "duration": 0.037499999999994316,
      "endTime": 143.40589
    },
    {
      "instrumentId": 0,
      "instrumentName": "Umi no Machi Mieru.MID",
      "isPercussion": false,
      "pitch": 55,
      "velocity": 66,
      "startTime": 143.67047333333332,
      "duration": 0.041666666666685614,
      "endTime": 143.71214
    },
    {
      "instrumentId": 0,
      "instrumentName": "Umi no Machi Mieru.MID",
      "isPercussion": false,
      "pitch": 72,
      "velocity": 68,
      "startTime": 143.96839,
      "duration": 0.24791666666666856,
      "endTime": 144.21630666666667
    },
    {
      "instrumentId": 0,
      "instrumentName": "Umi no Machi Mieru.MID",
      "isPercussion": false,
      "pitch": 44,
      "velocity": 77,
      "startTime": 144.24339,
      "duration": 0.32708333333332007,
      "endTime": 144.57047333333333
    },
    {
      "instrumentId": 0,
      "instrumentName": "Umi no Machi Mieru.MID",
      "isPercussion": false,
      "pitch": 77,
      "velocity": 80,
      "startTime": 144.24339,
      "duration": 0.5916666666666686,
      "endTime": 144.83505666666667
    },
    {
      "instrumentId": 0,
      "instrumentName": "Umi no Machi Mieru.MID",
      "isPercussion": false,
      "pitch": 53,
      "velocity": 59,
      "startTime": 144.54547333333332,
      "duration": 0.20625000000001137,
      "endTime": 144.75172333333333
    },
    {
      "instrumentId": 0,
      "instrumentName": "Umi no Machi Mieru.MID",
      "isPercussion": false,
      "pitch": 68,
      "velocity": 67,
      "startTime": 144.54547333333332,
      "duration": 0.2770833333333371,
      "endTime": 144.82255666666666
    },
    {
      "instrumentId": 0,
      "instrumentName": "Umi no Machi Mieru.MID",
      "isPercussion": false,
      "pitch": 58,
      "velocity": 77,
      "startTime": 144.82255666666666,
      "duration": 0.04583333333334849,
      "endTime": 144.86839
    },
    {
      "instrumentId": 0,
      "instrumentName": "Umi no Machi Mieru.MID",
      "isPercussion": false,
      "pitch": 75,
      "velocity": 87,
      "startTime": 144.82672333333332,
      "duration": 0.2895833333333542,
      "endTime": 145.11630666666667
    },
    {
      "instrumentId": 0,
      "instrumentName": "Umi no Machi Mieru.MID",
      "isPercussion": false,
      "pitch": 73,
      "velocity": 87,
      "startTime": 145.11005666666665,
      "duration": 0.2395833333333428,
      "endTime": 145.34964
    },
    {
      "instrumentId": 0,
      "instrumentName": "Umi no Machi Mieru.MID",
      "isPercussion": false,
      "pitch": 75,
      "velocity": 92,
      "startTime": 145.39964,
      "duration": 0.8458333333333314,
      "endTime": 146.24547333333334
    },
    {
      "instrumentId": 0,
      "instrumentName": "Umi no Machi Mieru.MID",
      "isPercussion": false,
      "pitch": 45,
      "velocity": 75,
      "startTime": 145.40172333333334,
      "duration": 0.4854166666666515,
      "endTime": 145.88714
    },
    {
      "instrumentId": 0,
      "instrumentName": "Umi no Machi Mieru.MID",
      "isPercussion": false,
      "pitch": 67,
      "velocity": 79,
      "startTime": 145.40172333333334,
      "duration": 0.8333333333333144,
      "endTime": 146.23505666666665
    },
    {
      "instrumentId": 0,
      "instrumentName": "Umi no Machi Mieru.MID",
      "isPercussion": false,
      "pitch": 53,
      "velocity": 74,
      "startTime": 145.69755666666666,
      "duration": 0.4124999999999943,
      "endTime": 146.11005666666665
    },
    {
      "instrumentId": 0,
      "instrumentName": "Umi no Machi Mieru.MID",
      "isPercussion": false,
      "pitch": 57,
      "velocity": 77,
      "startTime": 145.98297333333332,
      "duration": 0.04583333333334849,
      "endTime": 146.02880666666667
    },
    {
      "instrumentId": 0,
      "instrumentName": "Umi no Machi Mieru.MID",
      "isPercussion": false,
      "pitch": 72,
      "velocity": 76,
      "startTime": 146.27464,
      "duration": 0.056250000000005684,
      "endTime": 146.33089
    },
    {
      "instrumentId": 0,
      "instrumentName": "Umi no Machi Mieru.MID",
      "isPercussion": false,
      "pitch": 46,
      "velocity": 68,
      "startTime": 146.56422333333333,
      "duration": 0.6270833333333314,
      "endTime": 147.19130666666666
    },
    {
      "instrumentId": 0,
      "instrumentName": "Umi no Machi Mieru.MID",
      "isPercussion": false,
      "pitch": 70,
      "velocity": 81,
      "startTime": 146.56839,
      "duration": 0.20000000000001705,
      "endTime": 146.76839
    },
    {
      "instrumentId": 0,
      "instrumentName": "Umi no Machi Mieru.MID",
      "isPercussion": false,
      "pitch": 73,
      "velocity": 81,
      "startTime": 146.84755666666666,
      "duration": 0.19583333333332575,
      "endTime": 147.04339
    },
    {
      "instrumentId": 0,
      "instrumentName": "Umi no Machi Mieru.MID",
      "isPercussion": false,
      "pitch": 53,
      "velocity": 54,
      "startTime": 146.86005666666665,
      "duration": 0.512500000000017,
      "endTime": 147.37255666666667
    },
    {
      "instrumentId": 0,
      "instrumentName": "Umi no Machi Mieru.MID",
      "isPercussion": false,
      "pitch": 58,
      "velocity": 72,
      "startTime": 147.13297333333333,
      "duration": 0.3854166666666856,
      "endTime": 147.51839
    },
    {
      "instrumentId": 0,
      "instrumentName": "Umi no Machi Mieru.MID",
      "isPercussion": false,
      "pitch": 77,
      "velocity": 83,
      "startTime": 147.13505666666666,
      "duration": 0.13333333333335418,
      "endTime": 147.26839
    },
    {
      "instrumentId": 0,
      "instrumentName": "Umi no Machi Mieru.MID",
      "isPercussion": false,
      "pitch": 80,
      "velocity": 69,
      "startTime": 147.43089,
      "duration": 0.08750000000000568,
      "endTime": 147.51839
    },
    {
      "instrumentId": 0,
      "instrumentName": "Umi no Machi Mieru.MID",
      "isPercussion": false,
      "pitch": 75,
      "velocity": 86,
      "startTime": 147.71422333333334,
      "duration": 0.13124999999999432,
      "endTime": 147.84547333333333
    },
    {
      "instrumentId": 0,
      "instrumentName": "Umi no Machi Mieru.MID",
      "isPercussion": false,
      "pitch": 82,
      "velocity": 91,
      "startTime": 147.71839,
      "duration": 0.13333333333332575,
      "endTime": 147.85172333333333
    },
    {
      "instrumentId": 0,
      "instrumentName": "Umi no Machi Mieru.MID",
      "isPercussion": false,
      "pitch": 48,
      "velocity": 84,
      "startTime": 147.71839,
      "duration": 0.6145833333333428,
      "endTime": 148.33297333333334
    },
    {
      "instrumentId": 0,
      "instrumentName": "Umi no Machi Mieru.MID",
      "isPercussion": false,
      "pitch": 84,
      "velocity": 85,
      "startTime": 148.01422333333332,
      "duration": 0.2750000000000057,
      "endTime": 148.28922333333333
    },
    {
      "instrumentId": 0,
      "instrumentName": "Umi no Machi Mieru.MID",
      "isPercussion": false,
      "pitch": 55,
      "velocity": 65,
      "startTime": 148.01839,
      "duration": 0.40625,
      "endTime": 148.42464
    },
    {
      "instrumentId": 0,
      "instrumentName": "Umi no Machi Mieru.MID",
      "isPercussion": false,
      "pitch": 79,
      "velocity": 86,
      "startTime": 148.30172333333334,
      "duration": 0.18958333333333144,
      "endTime": 148.49130666666667
    },
    {
      "instrumentId": 0,
      "instrumentName": "Umi no Machi Mieru.MID",
      "isPercussion": false,
      "pitch": 60,
      "velocity": 71,
      "startTime": 148.30797333333334,
      "duration": 0.04791666666665151,
      "endTime": 148.35589
    },
    {
      "instrumentId": 0,
      "instrumentName": "Umi no Machi Mieru.MID",
      "isPercussion": false,
      "pitch": 75,
      "velocity": 86,
      "startTime": 148.596515,
      "duration": 0.14479166666666288,
      "endTime": 148.74130666666667
    },
    {
      "instrumentId": 0,
      "instrumentName": "Umi no Machi Mieru.MID",
      "isPercussion": false,
      "pitch": 41,
      "velocity": 72,
      "startTime": 148.87880666666666,
      "duration": 0.37291666666666856,
      "endTime": 149.25172333333333
    },
    {
      "instrumentId": 0,
      "instrumentName": "Umi no Machi Mieru.MID",
      "isPercussion": false,
      "pitch": 77,
      "velocity": 92,
      "startTime": 148.87880666666666,
      "duration": 0.5999999999999943,
      "endTime": 149.47880666666666
    },
    {
      "instrumentId": 0,
      "instrumentName": "Umi no Machi Mieru.MID",
      "isPercussion": false,
      "pitch": 68,
      "velocity": 77,
      "startTime": 149.17255666666665,
      "duration": 0.26250000000001705,
      "endTime": 149.43505666666667
    },
    {
      "instrumentId": 0,
      "instrumentName": "Umi no Machi Mieru.MID",
      "isPercussion": false,
      "pitch": 48,
      "velocity": 59,
      "startTime": 149.18297333333334,
      "duration": 0.24374999999997726,
      "endTime": 149.4267233333333
    },
    {
      "instrumentId": 0,
      "instrumentName": "Umi no Machi Mieru.MID",
      "isPercussion": false,
      "pitch": 53,
      "velocity": 66,
      "startTime": 149.47464,
      "duration": 0.18333333333333712,
      "endTime": 149.65797333333333
    },
    {
      "instrumentId": 0,
      "instrumentName": "Umi no Machi Mieru.MID",
      "isPercussion": false,
      "pitch": 72,
      "velocity": 82,
      "startTime": 149.47880666666666,
      "duration": 0.9729166666666913,
      "endTime": 150.45172333333335
    },
    {
      "instrumentId": 0,
      "instrumentName": "Umi no Machi Mieru.MID",
      "isPercussion": false,
      "pitch": 68,
      "velocity": 79,
      "startTime": 149.76422333333335,
      "duration": 0.6729166666666515,
      "endTime": 150.43714
    },
    {
      "instrumentId": 0,
      "instrumentName": "Umi no Machi Mieru.MID",
      "isPercussion": false,
      "pitch": 56,
      "velocity": 62,
      "startTime": 149.76630666666665,
      "duration": 0.793750000000017,
      "endTime": 150.56005666666667
    },
    {
      "instrumentId": 0,
      "instrumentName": "Umi no Machi Mieru.MID",
      "isPercussion": false,
      "pitch": 65,
      "velocity": 72,
      "startTime": 150.07047333333333,
      "duration": 0.3229166666666856,
      "endTime": 150.39339
    },
    {
      "instrumentId": 0,
      "instrumentName": "Umi no Machi Mieru.MID",
      "isPercussion": false,
      "pitch": 60,
      "velocity": 70,
      "startTime": 150.36005666666665,
      "duration": 0.2020833333333485,
      "endTime": 150.56214
    },
    {
      "instrumentId": 0,
      "instrumentName": "Umi no Machi Mieru.MID",
      "isPercussion": false,
      "pitch": 77,
      "velocity": 93,
      "startTime": 150.65797333333333,
      "duration": 0.09166666666666856,
      "endTime": 150.74964
    },
    {
      "instrumentId": 0,
      "instrumentName": "Umi no Machi Mieru.MID",
      "isPercussion": false,
      "pitch": 65,
      "velocity": 83,
      "startTime": 150.66630666666666,
      "duration": 0.07916666666667993,
      "endTime": 150.74547333333334
    },
    {
      "instrumentId": 0,
      "instrumentName": "Umi no Machi Mieru.MID",
      "isPercussion": false,
      "pitch": 79,
      "velocity": 87,
      "startTime": 150.97672333333333,
      "duration": 0.13333333333332575,
      "endTime": 151.11005666666665
    },
    {
      "instrumentId": 0,
      "instrumentName": "Umi no Machi Mieru.MID",
      "isPercussion": false,
      "pitch": 67,
      "velocity": 69,
      "startTime": 150.98297333333335,
      "duration": 0.05624999999997726,
      "endTime": 151.03922333333333
    },
    {
      "instrumentId": 0,
      "instrumentName": "Umi no Machi Mieru.MID",
      "isPercussion": false,
      "pitch": 68,
      "velocity": 70,
      "startTime": 151.19755666666666,
      "duration": 0.33125000000001137,
      "endTime": 151.52880666666667
    },
    {
      "instrumentId": 0,
      "instrumentName": "Umi no Machi Mieru.MID",
      "isPercussion": false,
      "pitch": 73,
      "velocity": 76,
      "startTime": 151.27255666666667,
      "duration": 0.24166666666667425,
      "endTime": 151.51422333333335
    },
    {
      "instrumentId": 0,
      "instrumentName": "Umi no Machi Mieru.MID",
      "isPercussion": false,
      "pitch": 80,
      "velocity": 83,
      "startTime": 151.32047333333333,
      "duration": 0.18333333333333712,
      "endTime": 151.50380666666666
    },
    {
      "instrumentId": 0,
      "instrumentName": "Umi no Machi Mieru.MID",
      "isPercussion": false,
      "pitch": 46,
      "velocity": 59,
      "startTime": 151.32047333333333,
      "duration": 0.6208333333333371,
      "endTime": 151.94130666666666
    },
    {
      "instrumentId": 0,
      "instrumentName": "Umi no Machi Mieru.MID",
      "isPercussion": false,
      "pitch": 53,
      "velocity": 58,
      "startTime": 151.65589,
      "duration": 0.43958333333333144,
      "endTime": 152.09547333333333
    },
    {
      "instrumentId": 0,
      "instrumentName": "Umi no Machi Mieru.MID",
      "isPercussion": false,
      "pitch": 80,
      "velocity": 85,
      "startTime": 151.66005666666666,
      "duration": 0.11458333333334281,
      "endTime": 151.77464
    },
    {
      "instrumentId": 0,
      "instrumentName": "Umi no Machi Mieru.MID",
      "isPercussion": false,
      "pitch": 58,
      "velocity": 65,
      "startTime": 151.94130666666666,
      "duration": 0.05000000000001137,
      "endTime": 151.99130666666667
    },
    {
      "instrumentId": 0,
      "instrumentName": "Umi no Machi Mieru.MID",
      "isPercussion": false,
      "pitch": 80,
      "velocity": 86,
      "startTime": 151.94130666666666,
      "duration": 0.125,
      "endTime": 152.06630666666666
    },
    {
      "instrumentId": 0,
      "instrumentName": "Umi no Machi Mieru.MID",
      "isPercussion": false,
      "pitch": 61,
      "velocity": 56,
      "startTime": 152.23714,
      "duration": 0.054166666666645824,
      "endTime": 152.29130666666666
    },
    {
      "instrumentId": 0,
      "instrumentName": "Umi no Machi Mieru.MID",
      "isPercussion": false,
      "pitch": 80,
      "velocity": 82,
      "startTime": 152.23714,
      "duration": 0.10624999999998863,
      "endTime": 152.34339
    },
    {
      "instrumentId": 0,
      "instrumentName": "Umi no Machi Mieru.MID",
      "isPercussion": false,
      "pitch": 80,
      "velocity": 87,
      "startTime": 152.53089,
      "duration": 0.3187499999999943,
      "endTime": 152.84964
    },
    {
      "instrumentId": 0,
      "instrumentName": "Umi no Machi Mieru.MID",
      "isPercussion": false,
      "pitch": 46,
      "velocity": 75,
      "startTime": 152.53089,
      "duration": 0.6020833333333258,
      "endTime": 153.13297333333333
    },
    {
      "instrumentId": 0,
      "instrumentName": "Umi no Machi Mieru.MID",
      "isPercussion": false,
      "pitch": 73,
      "velocity": 80,
      "startTime": 152.53714,
      "duration": 0.16458333333335418,
      "endTime": 152.70172333333335
    },
    {
      "instrumentId": 0,
      "instrumentName": "Umi no Machi Mieru.MID",
      "isPercussion": false,
      "pitch": 68,
      "velocity": 76,
      "startTime": 152.53714,
      "duration": 0.24375000000000568,
      "endTime": 152.78089
    },
    {
      "instrumentId": 0,
      "instrumentName": "Umi no Machi Mieru.MID",
      "isPercussion": false,
      "pitch": 79,
      "velocity": 75,
      "startTime": 152.82880666666665,
      "duration": 0.2395833333333428,
      "endTime": 153.06839
    },
    {
      "instrumentId": 0,
      "instrumentName": "Umi no Machi Mieru.MID",
      "isPercussion": false,
      "pitch": 53,
      "velocity": 57,
      "startTime": 152.83922333333334,
      "duration": 0.4791666666666572,
      "endTime": 153.31839
    },
    {
      "instrumentId": 0,
      "instrumentName": "Umi no Machi Mieru.MID",
      "isPercussion": false,
      "pitch": 77,
      "velocity": 81,
      "startTime": 153.1142233333333,
      "duration": 0.30416666666667425,
      "endTime": 153.41839
    },
    {
      "instrumentId": 0,
      "instrumentName": "Umi no Machi Mieru.MID",
      "isPercussion": false,
      "pitch": 58,
      "velocity": 68,
      "startTime": 153.12464,
      "duration": 0.12916666666666288,
      "endTime": 153.25380666666666
    },
    {
      "instrumentId": 0,
      "instrumentName": "Umi no Machi Mieru.MID",
      "isPercussion": false,
      "pitch": 79,
      "velocity": 88,
      "startTime": 153.41214,
      "duration": 0.30000000000001137,
      "endTime": 153.71214
    },
    {
      "instrumentId": 0,
      "instrumentName": "Umi no Machi Mieru.MID",
      "isPercussion": false,
      "pitch": 75,
      "velocity": 90,
      "startTime": 153.69755666666666,
      "duration": 0.037499999999994316,
      "endTime": 153.73505666666665
    },
    {
      "instrumentId": 0,
      "instrumentName": "Umi no Machi Mieru.MID",
      "isPercussion": false,
      "pitch": 48,
      "velocity": 75,
      "startTime": 153.69755666666666,
      "duration": 2.1395833333333485,
      "endTime": 155.83714
    },
    {
      "instrumentId": 0,
      "instrumentName": "Umi no Machi Mieru.MID",
      "isPercussion": false,
      "pitch": 63,
      "velocity": 63,
      "startTime": 154.00797333333333,
      "duration": 0.2854166666666629,
      "endTime": 154.29339
    },
    {
      "instrumentId": 0,
      "instrumentName": "Umi no Machi Mieru.MID",
      "isPercussion": false,
      "pitch": 67,
      "velocity": 76,
      "startTime": 154.29339,
      "duration": 0.2854166666666629,
      "endTime": 154.57880666666665
    },
    {
      "instrumentId": 0,
      "instrumentName": "Umi no Machi Mieru.MID",
      "isPercussion": false,
      "pitch": 63,
      "velocity": 67,
      "startTime": 154.59130666666667,
      "duration": 0.9145833333333258,
      "endTime": 155.50589
    },
    {
      "instrumentId": 0,
      "instrumentName": "Umi no Machi Mieru.MID",
      "isPercussion": false,
      "pitch": 75,
      "velocity": 92,
      "startTime": 154.88297333333333,
      "duration": 0.30000000000001137,
      "endTime": 155.18297333333334
    },
    {
      "instrumentId": 0,
      "instrumentName": "Umi no Machi Mieru.MID",
      "isPercussion": false,
      "pitch": 67,
      "velocity": 80,
      "startTime": 154.89339,
      "duration": 0.26874999999998295,
      "endTime": 155.16214
    },
    {
      "instrumentId": 0,
      "instrumentName": "Umi no Machi Mieru.MID",
      "isPercussion": false,
      "pitch": 60,
      "velocity": 64,
      "startTime": 154.89339,
      "duration": 1.0354166666666629,
      "endTime": 155.92880666666667
    },
    {
      "instrumentId": 0,
      "instrumentName": "Umi no Machi Mieru.MID",
      "isPercussion": false,
      "pitch": 73,
      "velocity": 65,
      "startTime": 155.19130666666666,
      "duration": 0.2604166666666856,
      "endTime": 155.45172333333335
    },
    {
      "instrumentId": 0,
      "instrumentName": "Umi no Machi Mieru.MID",
      "isPercussion": false,
      "pitch": 72,
      "velocity": 75,
      "startTime": 155.4892233333333,
      "duration": 0.1187500000000341,
      "endTime": 155.60797333333335
    },
    {
      "instrumentId": 0,
      "instrumentName": "Umi no Machi Mieru.MID",
      "isPercussion": false,
      "pitch": 73,
      "velocity": 71,
      "startTime": 155.7704733333333,
      "duration": 0.18333333333333712,
      "endTime": 155.95380666666665
    },
    {
      "instrumentId": 0,
      "instrumentName": "Umi no Machi Mieru.MID",
      "isPercussion": false,
      "pitch": 75,
      "velocity": 87,
      "startTime": 155.93714,
      "duration": 0.07916666666665151,
      "endTime": 156.01630666666665
    },
    {
      "instrumentId": 0,
      "instrumentName": "Umi no Machi Mieru.MID",
      "isPercussion": false,
      "pitch": 68,
      "velocity": 79,
      "startTime": 156.09339,
      "duration": 0.08750000000000568,
      "endTime": 156.18089
    },
    {
      "instrumentId": 0,
      "instrumentName": "Umi no Machi Mieru.MID",
      "isPercussion": false,
      "pitch": 77,
      "velocity": 92,
      "startTime": 156.09339,
      "duration": 0.08750000000000568,
      "endTime": 156.18089
    },
    {
      "instrumentId": 0,
      "instrumentName": "Umi no Machi Mieru.MID",
      "isPercussion": false,
      "pitch": 49,
      "velocity": 84,
      "startTime": 156.09339,
      "duration": 0.38333333333332575,
      "endTime": 156.47672333333333
    },
    {
      "instrumentId": 0,
      "instrumentName": "Umi no Machi Mieru.MID",
      "isPercussion": false,
      "pitch": 77,
      "velocity": 63,
      "startTime": 156.39339,
      "duration": 0.04583333333332007,
      "endTime": 156.43922333333333
    },
    {
      "instrumentId": 0,
      "instrumentName": "Umi no Machi Mieru.MID",
      "isPercussion": false,
      "pitch": 56,
      "velocity": 53,
      "startTime": 156.41422333333333,
      "duration": 0.08541666666667425,
      "endTime": 156.49964
    },
    {
      "instrumentId": 0,
      "instrumentName": "Umi no Machi Mieru.MID",
      "isPercussion": false,
      "pitch": 77,
      "velocity": 83,
      "startTime": 156.68505666666667,
      "duration": 0.07708333333332007,
      "endTime": 156.76214
    },
    {
      "instrumentId": 0,
      "instrumentName": "Umi no Machi Mieru.MID",
      "isPercussion": false,
      "pitch": 61,
      "velocity": 59,
      "startTime": 156.69339,
      "duration": 0.04166666666665719,
      "endTime": 156.73505666666665
    },
    {
      "instrumentId": 0,
      "instrumentName": "Umi no Machi Mieru.MID",
      "isPercussion": false,
      "pitch": 77,
      "velocity": 79,
      "startTime": 156.97880666666666,
      "duration": 0.07500000000001705,
      "endTime": 157.05380666666667
    },
    {
      "instrumentId": 0,
      "instrumentName": "Umi no Machi Mieru.MID",
      "isPercussion": false,
      "pitch": 65,
      "velocity": 42,
      "startTime": 156.99547333333334,
      "duration": 0.052083333333314386,
      "endTime": 157.04755666666665
    },
    {
      "instrumentId": 0,
      "instrumentName": "Umi no Machi Mieru.MID",
      "isPercussion": false,
      "pitch": 49,
      "velocity": 72,
      "startTime": 157.26214,
      "duration": 0.3708333333333371,
      "endTime": 157.63297333333333
    },
    {
      "instrumentId": 0,
      "instrumentName": "Umi no Machi Mieru.MID",
      "isPercussion": false,
      "pitch": 77,
      "velocity": 89,
      "startTime": 157.2704733333333,
      "duration": 0.2895833333333542,
      "endTime": 157.56005666666667
    },
    {
      "instrumentId": 0,
      "instrumentName": "Umi no Machi Mieru.MID",
      "isPercussion": false,
      "pitch": 68,
      "velocity": 79,
      "startTime": 157.2704733333333,
      "duration": 0.33125000000001137,
      "endTime": 157.60172333333333
    },
    {
      "instrumentId": 0,
      "instrumentName": "Umi no Machi Mieru.MID",
      "isPercussion": false,
      "pitch": 75,
      "velocity": 77,
      "startTime": 157.56839,
      "duration": 0.2708333333333428,
      "endTime": 157.83922333333334
    },
    {
      "instrumentId": 0,
      "instrumentName": "Umi no Machi Mieru.MID",
      "isPercussion": false,
      "pitch": 56,
      "velocity": 52,
      "startTime": 157.57464,
      "duration": 0.30000000000001137,
      "endTime": 157.87464
    },
    {
      "instrumentId": 0,
      "instrumentName": "Umi no Machi Mieru.MID",
      "isPercussion": false,
      "pitch": 73,
      "velocity": 83,
      "startTime": 157.85172333333333,
      "duration": 0.26875000000001137,
      "endTime": 158.12047333333334
    },
    {
      "instrumentId": 0,
      "instrumentName": "Umi no Machi Mieru.MID",
      "isPercussion": false,
      "pitch": 61,
      "velocity": 65,
      "startTime": 157.85797333333335,
      "duration": 0.037499999999965894,
      "endTime": 157.8954733333333
    },
    {
      "instrumentId": 0,
      "instrumentName": "Umi no Machi Mieru.MID",
      "isPercussion": false,
      "pitch": 75,
      "velocity": 85,
      "startTime": 158.13714,
      "duration": 0.2750000000000057,
      "endTime": 158.41214
    },
    {
      "instrumentId": 0,
      "instrumentName": "Umi no Machi Mieru.MID",
      "isPercussion": false,
      "pitch": 44,
      "velocity": 74,
      "startTime": 158.42255666666665,
      "duration": 1.8312500000000114,
      "endTime": 160.25380666666666
    },
    {
      "instrumentId": 0,
      "instrumentName": "Umi no Machi Mieru.MID",
      "isPercussion": false,
      "pitch": 72,
      "velocity": 84,
      "startTime": 158.42880666666667,
      "duration": 1.23333333333332,
      "endTime": 159.66214
    },
    {
      "instrumentId": 0,
      "instrumentName": "Umi no Machi Mieru.MID",
      "isPercussion": false,
      "pitch": 63,
      "velocity": 71,
      "startTime": 158.72672333333333,
      "duration": 0.28750000000002274,
      "endTime": 159.01422333333335
    },
    {
      "instrumentId": 0,
      "instrumentName": "Umi no Machi Mieru.MID",
      "isPercussion": false,
      "pitch": 51,
      "velocity": 53,
      "startTime": 158.73505666666665,
      "duration": 1.5812500000000114,
      "endTime": 160.31630666666666
    },
    {
      "instrumentId": 0,
      "instrumentName": "Umi no Machi Mieru.MID",
      "isPercussion": false,
      "pitch": 68,
      "velocity": 86,
      "startTime": 159.04547333333335,
      "duration": 0.5666666666666629,
      "endTime": 159.61214
    },
    {
      "instrumentId": 0,
      "instrumentName": "Umi no Machi Mieru.MID",
      "isPercussion": false,
      "pitch": 63,
      "velocity": 75,
      "startTime": 159.33714,
      "duration": 0.16041666666666288,
      "endTime": 159.49755666666667
    },
    {
      "instrumentId": 0,
      "instrumentName": "Umi no Machi Mieru.MID",
      "isPercussion": false,
      "pitch": 56,
      "velocity": 75,
      "startTime": 159.61214,
      "duration": 1.0083333333333258,
      "endTime": 160.62047333333334
    },
    {
      "instrumentId": 0,
      "instrumentName": "Umi no Machi Mieru.MID",
      "isPercussion": false,
      "pitch": 63,
      "velocity": 72,
      "startTime": 159.90589,
      "duration": 0.22083333333333144,
      "endTime": 160.12672333333333
    },
    {
      "instrumentId": 0,
      "instrumentName": "Umi no Machi Mieru.MID",
      "isPercussion": false,
      "pitch": 68,
      "velocity": 82,
      "startTime": 160.20380666666665,
      "duration": 0.23125000000001705,
      "endTime": 160.43505666666667
    },
    {
      "instrumentId": 0,
      "instrumentName": "Umi no Machi Mieru.MID",
      "isPercussion": false,
      "pitch": 72,
      "velocity": 79,
      "startTime": 160.48505666666665,
      "duration": 0.08541666666667425,
      "endTime": 160.57047333333333
    },
    {
      "instrumentId": 0,
      "instrumentName": "Umi no Machi Mieru.MID",
      "isPercussion": false,
      "pitch": 46,
      "velocity": 80,
      "startTime": 160.76422333333335,
      "duration": 0.40416666666664014,
      "endTime": 161.16839
    },
    {
      "instrumentId": 0,
      "instrumentName": "Umi no Machi Mieru.MID",
      "isPercussion": false,
      "pitch": 69,
      "velocity": 87,
      "startTime": 160.76630666666665,
      "duration": 0.15625,
      "endTime": 160.92255666666665
    },
    {
      "instrumentId": 0,
      "instrumentName": "Umi no Machi Mieru.MID",
      "isPercussion": false,
      "pitch": 70,
      "velocity": 74,
      "startTime": 161.06422333333333,
      "duration": 0.19166666666666288,
      "endTime": 161.25589
    },
    {
      "instrumentId": 0,
      "instrumentName": "Umi no Machi Mieru.MID",
      "isPercussion": false,
      "pitch": 53,
      "velocity": 67,
      "startTime": 161.06839,
      "duration": 0.4312500000000057,
      "endTime": 161.49964
    },
    {
      "instrumentId": 0,
      "instrumentName": "Umi no Machi Mieru.MID",
      "isPercussion": false,
      "pitch": 58,
      "velocity": 66,
      "startTime": 161.35589,
      "duration": 0.041666666666685614,
      "endTime": 161.39755666666667
    },
    {
      "instrumentId": 0,
      "instrumentName": "Umi no Machi Mieru.MID",
      "isPercussion": false,
      "pitch": 73,
      "velocity": 86,
      "startTime": 161.35589,
      "duration": 0.2604166666666856,
      "endTime": 161.61630666666667
    },
    {
      "instrumentId": 0,
      "instrumentName": "Umi no Machi Mieru.MID",
      "isPercussion": false,
      "pitch": 77,
      "velocity": 82,
      "startTime": 161.63922333333335,
      "duration": 0.2874999999999659,
      "endTime": 161.9267233333333
    },
    {
      "instrumentId": 0,
      "instrumentName": "Umi no Machi Mieru.MID",
      "isPercussion": false,
      "pitch": 75,
      "velocity": 92,
      "startTime": 161.9267233333333,
      "duration": 0.14375000000001137,
      "endTime": 162.07047333333333
    },
    {
      "instrumentId": 0,
      "instrumentName": "Umi no Machi Mieru.MID",
      "isPercussion": false,
      "pitch": 43,
      "velocity": 80,
      "startTime": 161.9267233333333,
      "duration": 0.2770833333333371,
      "endTime": 162.20380666666665
    },
    {
      "instrumentId": 0,
      "instrumentName": "Umi no Machi Mieru.MID",
      "isPercussion": false,
      "pitch": 63,
      "velocity": 72,
      "startTime": 162.23089,
      "duration": 0.11666666666667425,
      "endTime": 162.34755666666666
    },
    {
      "instrumentId": 0,
      "instrumentName": "Umi no Machi Mieru.MID",
      "isPercussion": false,
      "pitch": 50,
      "velocity": 58,
      "startTime": 162.2392233333333,
      "duration": 0.26666666666667993,
      "endTime": 162.50589
    },
    {
      "instrumentId": 0,
      "instrumentName": "Umi no Machi Mieru.MID",
      "isPercussion": false,
      "pitch": 58,
      "velocity": 68,
      "startTime": 162.5204733333333,
      "duration": 0.03333333333335986,
      "endTime": 162.55380666666667
    },
    {
      "instrumentId": 0,
      "instrumentName": "Umi no Machi Mieru.MID",
      "isPercussion": false,
      "pitch": 70,
      "velocity": 89,
      "startTime": 162.52672333333334,
      "duration": 0.12916666666666288,
      "endTime": 162.65589
    },
    {
      "instrumentId": 0,
      "instrumentName": "Umi no Machi Mieru.MID",
      "isPercussion": false,
      "pitch": 73,
      "velocity": 91,
      "startTime": 162.81422333333333,
      "duration": 0.08750000000000568,
      "endTime": 162.90172333333334
    },
    {
      "instrumentId": 0,
      "instrumentName": "Umi no Machi Mieru.MID",
      "isPercussion": false,
      "pitch": 71,
      "velocity": 91,
      "startTime": 163.10380666666666,
      "duration": 0.15000000000000568,
      "endTime": 163.25380666666666
    },
    {
      "instrumentId": 0,
      "instrumentName": "Umi no Machi Mieru.MID",
      "isPercussion": false,
      "pitch": 48,
      "velocity": 80,
      "startTime": 163.10380666666666,
      "duration": 0.6208333333333371,
      "endTime": 163.72464
    },
    {
      "instrumentId": 0,
      "instrumentName": "Umi no Machi Mieru.MID",
      "isPercussion": false,
      "pitch": 72,
      "velocity": 79,
      "startTime": 163.3954733333333,
      "duration": 0.25208333333335986,
      "endTime": 163.64755666666667
    },
    {
      "instrumentId": 0,
      "instrumentName": "Umi no Machi Mieru.MID",
      "isPercussion": false,
      "pitch": 55,
      "velocity": 56,
      "startTime": 163.41214,
      "duration": 0.3687500000000057,
      "endTime": 163.78089
    },
    {
      "instrumentId": 0,
      "instrumentName": "Umi no Machi Mieru.MID",
      "isPercussion": false,
      "pitch": 60,
      "velocity": 75,
      "startTime": 163.67464,
      "duration": 0.03541666666666288,
      "endTime": 163.71005666666667
    },
    {
      "instrumentId": 0,
      "instrumentName": "Umi no Machi Mieru.MID",
      "isPercussion": false,
      "pitch": 75,
      "velocity": 87,
      "startTime": 163.69130666666666,
      "duration": 0.27291666666667425,
      "endTime": 163.96422333333334
    },
    {
      "instrumentId": 0,
      "instrumentName": "Umi no Machi Mieru.MID",
      "isPercussion": false,
      "pitch": 80,
      "velocity": 84,
      "startTime": 163.97880666666666,
      "duration": 0.11666666666667425,
      "endTime": 164.09547333333333
    },
    {
      "instrumentId": 0,
      "instrumentName": "Umi no Machi Mieru.MID",
      "isPercussion": false,
      "pitch": 41,
      "velocity": 66,
      "startTime": 164.14755666666667,
      "duration": 0.09791666666666288,
      "endTime": 164.24547333333334
    },
    {
      "instrumentId": 0,
      "instrumentName": "Umi no Machi Mieru.MID",
      "isPercussion": false,
      "pitch": 48,
      "velocity": 75,
      "startTime": 164.20172333333335,
      "duration": 0.0999999999999659,
      "endTime": 164.3017233333333
    },
    {
      "instrumentId": 0,
      "instrumentName": "Umi no Machi Mieru.MID",
      "isPercussion": false,
      "pitch": 72,
      "velocity": 62,
      "startTime": 164.20589,
      "duration": 0.6333333333333258,
      "endTime": 164.83922333333334
    },
    {
      "instrumentId": 0,
      "instrumentName": "Umi no Machi Mieru.MID",
      "isPercussion": false,
      "pitch": 53,
      "velocity": 57,
      "startTime": 164.24547333333334,
      "duration": 0.04374999999998863,
      "endTime": 164.28922333333333
    },
    {
      "instrumentId": 0,
      "instrumentName": "Umi no Machi Mieru.MID",
      "isPercussion": false,
      "pitch": 75,
      "velocity": 71,
      "startTime": 164.25380666666666,
      "duration": 0.14791666666667425,
      "endTime": 164.40172333333334
    },
    {
      "instrumentId": 0,
      "instrumentName": "Umi no Machi Mieru.MID",
      "isPercussion": false,
      "pitch": 82,
      "velocity": 95,
      "startTime": 164.31214,
      "duration": 0.2854166666666629,
      "endTime": 164.59755666666666
    },
    {
      "instrumentId": 0,
      "instrumentName": "Umi no Machi Mieru.MID",
      "isPercussion": false,
      "pitch": 80,
      "velocity": 79,
      "startTime": 164.58089,
      "duration": 0.2708333333333144,
      "endTime": 164.85172333333333
    },
    {
      "instrumentId": 0,
      "instrumentName": "Umi no Machi Mieru.MID",
      "isPercussion": false,
      "pitch": 79,
      "velocity": 87,
      "startTime": 164.86630666666667,
      "duration": 0.36249999999998295,
      "endTime": 165.22880666666666
    },
    {
      "instrumentId": 0,
      "instrumentName": "Umi no Machi Mieru.MID",
      "isPercussion": false,
      "pitch": 80,
      "velocity": 74,
      "startTime": 165.16630666666666,
      "duration": 0.09583333333333144,
      "endTime": 165.26214
    },
    {
      "instrumentId": 0,
      "instrumentName": "Umi no Machi Mieru.MID",
      "isPercussion": false,
      "pitch": 46,
      "velocity": 40,
      "startTime": 165.36839,
      "duration": 0.6166666666666458,
      "endTime": 165.98505666666665
    },
    {
      "instrumentId": 0,
      "instrumentName": "Umi no Machi Mieru.MID",
      "isPercussion": false,
      "pitch": 58,
      "velocity": 88,
      "startTime": 165.44339,
      "duration": 4.006249999999994,
      "endTime": 169.44964
    },
    {
      "instrumentId": 0,
      "instrumentName": "Umi no Machi Mieru.MID",
      "isPercussion": false,
      "pitch": 74,
      "velocity": 76,
      "startTime": 165.47672333333333,
      "duration": 0.7270833333333258,
      "endTime": 166.20380666666665
    },
    {
      "instrumentId": 0,
      "instrumentName": "Umi no Machi Mieru.MID",
      "isPercussion": false,
      "pitch": 77,
      "velocity": 72,
      "startTime": 165.4892233333333,
      "duration": 0.7062500000000114,
      "endTime": 166.19547333333333
    },
    {
      "instrumentId": 0,
      "instrumentName": "Umi no Machi Mieru.MID",
      "isPercussion": false,
      "pitch": 84,
      "velocity": 76,
      "startTime": 165.49547333333334,
      "duration": 0.6687499999999886,
      "endTime": 166.16422333333333
    },
    {
      "instrumentId": 0,
      "instrumentName": "Umi no Machi Mieru.MID",
      "isPercussion": false,
      "pitch": 82,
      "velocity": 65,
      "startTime": 166.32047333333333,
      "duration": 0.11041666666667993,
      "endTime": 166.43089
    },
    {
      "instrumentId": 0,
      "instrumentName": "Umi no Machi Mieru.MID",
      "isPercussion": false,
      "pitch": 84,
      "velocity": 87,
      "startTime": 166.43922333333333,
      "duration": 0.11875000000000568,
      "endTime": 166.55797333333334
    },
    {
      "instrumentId": 0,
      "instrumentName": "Umi no Machi Mieru.MID",
      "isPercussion": false,
      "pitch": 74,
      "velocity": 90,
      "startTime": 166.60797333333335,
      "duration": 0.15625,
      "endTime": 166.76422333333335
    },
    {
      "instrumentId": 0,
      "instrumentName": "Umi no Machi Mieru.MID",
      "isPercussion": false,
      "pitch": 77,
      "velocity": 86,
      "startTime": 166.60797333333335,
      "duration": 0.16041666666666288,
      "endTime": 166.76839
    },
    {
      "instrumentId": 0,
      "instrumentName": "Umi no Machi Mieru.MID",
      "isPercussion": false,
      "pitch": 75,
      "velocity": 76,
      "startTime": 167.42047333333335,
      "duration": 0.0625,
      "endTime": 167.48297333333335
    },
    {
      "instrumentId": 0,
      "instrumentName": "Umi no Machi Mieru.MID",
      "isPercussion": false,
      "pitch": 77,
      "velocity": 85,
      "startTime": 167.57047333333333,
      "duration": 0.09166666666666856,
      "endTime": 167.66214
    },
    {
      "instrumentId": 0,
      "instrumentName": "Umi no Machi Mieru.MID",
      "isPercussion": false,
      "pitch": 68,
      "velocity": 81,
      "startTime": 167.72255666666666,
      "duration": 0.16874999999998863,
      "endTime": 167.89130666666665
    },
    {
      "instrumentId": 0,
      "instrumentName": "Umi no Machi Mieru.MID",
      "isPercussion": false,
      "pitch": 72,
      "velocity": 91,
      "startTime": 167.72255666666666,
      "duration": 0.17916666666667425,
      "endTime": 167.90172333333334
    },
    {
      "instrumentId": 0,
      "instrumentName": "Umi no Machi Mieru.MID",
      "isPercussion": false,
      "pitch": 70,
      "velocity": 67,
      "startTime": 168.54339,
      "duration": 0.05000000000001137,
      "endTime": 168.59339
    },
    {
      "instrumentId": 0,
      "instrumentName": "Umi no Machi Mieru.MID",
      "isPercussion": false,
      "pitch": 72,
      "velocity": 79,
      "startTime": 168.67880666666667,
      "duration": 0.11458333333331439,
      "endTime": 168.79339
    },
    {
      "instrumentId": 0,
      "instrumentName": "Umi no Machi Mieru.MID",
      "isPercussion": false,
      "pitch": 65,
      "velocity": 83,
      "startTime": 168.82464,
      "duration": 0.08958333333333712,
      "endTime": 168.91422333333333
    },
    {
      "instrumentId": 0,
      "instrumentName": "Umi no Machi Mieru.MID",
      "isPercussion": false,
      "pitch": 67,
      "velocity": 55,
      "startTime": 170.05797333333334,
      "duration": 0.4333333333333371,
      "endTime": 170.49130666666667
    },
    {
      "instrumentId": 0,
      "instrumentName": "Umi no Machi Mieru.MID",
      "isPercussion": false,
      "pitch": 60,
      "velocity": 48,
      "startTime": 170.07255666666666,
      "duration": 0.2958333333333485,
      "endTime": 170.36839
    },
    {
      "instrumentId": 0,
      "instrumentName": "Umi no Machi Mieru.MID",
      "isPercussion": false,
      "pitch": 48,
      "velocity": 44,
      "startTime": 170.0829733333333,
      "duration": 0.26875000000001137,
      "endTime": 170.35172333333333
    },
    {
      "instrumentId": 0,
      "instrumentName": "Umi no Machi Mieru.MID",
      "isPercussion": false,
      "pitch": 64,
      "velocity": 51,
      "startTime": 170.0829733333333,
      "duration": 0.3541666666666856,
      "endTime": 170.43714
    },
    {
      "instrumentId": 0,
      "instrumentName": "Umi no Machi Mieru.MID",
      "isPercussion": false,
      "pitch": 55,
      "velocity": 47,
      "startTime": 170.09964,
      "duration": 0.2916666666666572,
      "endTime": 170.39130666666665
    },
    {
      "instrumentId": 0,
      "instrumentName": "Umi no Machi Mieru.MID",
      "isPercussion": false,
      "pitch": 84,
      "velocity": 39,
      "startTime": 171.91005666666666,
      "duration": 0.06874999999999432,
      "endTime": 171.97880666666666
    },
    {
      "instrumentId": 0,
      "instrumentName": "Umi no Machi Mieru.MID",
      "isPercussion": false,
      "pitch": 65,
      "velocity": 40,
      "startTime": 172.20172333333335,
      "duration": 0.15833333333330302,
      "endTime": 172.36005666666665
    },
    {
      "instrumentId": 0,
      "instrumentName": "Umi no Machi Mieru.MID",
      "isPercussion": false,
      "pitch": 92,
      "velocity": 53,
      "startTime": 172.20172333333335,
      "duration": 1.1791666666666458,
      "endTime": 173.38089
    },
    {
      "instrumentId": 0,
      "instrumentName": "Umi no Machi Mieru.MID",
      "isPercussion": false,
      "pitch": 72,
      "velocity": 48,
      "startTime": 172.50380666666666,
      "duration": 0.05208333333334281,
      "endTime": 172.55589
    },
    {
      "instrumentId": 0,
      "instrumentName": "Umi no Machi Mieru.MID",
      "isPercussion": false,
      "pitch": 77,
      "velocity": 69,
      "startTime": 172.77672333333334,
      "duration": 0.04791666666665151,
      "endTime": 172.82464
    },
    {
      "instrumentId": 0,
      "instrumentName": "Umi no Machi Mieru.MID",
      "isPercussion": false,
      "pitch": 84,
      "velocity": 50,
      "startTime": 173.07255666666666,
      "duration": 0.30416666666667425,
      "endTime": 173.37672333333333
    },
    {
      "instrumentId": 0,
      "instrumentName": "Umi no Machi Mieru.MID",
      "isPercussion": false,
      "pitch": 60,
      "velocity": 53,
      "startTime": 173.34547333333333,
      "duration": 0.06874999999999432,
      "endTime": 173.41422333333333
    },
    {
      "instrumentId": 0,
      "instrumentName": "Umi no Machi Mieru.MID",
      "isPercussion": false,
      "pitch": 91,
      "velocity": 87,
      "startTime": 173.36214,
      "duration": 0.9624999999999773,
      "endTime": 174.32464
    },
    {
      "instrumentId": 0,
      "instrumentName": "Umi no Machi Mieru.MID",
      "isPercussion": false,
      "pitch": 67,
      "velocity": 63,
      "startTime": 173.64130666666665,
      "duration": 0.054166666666674246,
      "endTime": 173.69547333333333
    },
    {
      "instrumentId": 0,
      "instrumentName": "Umi no Machi Mieru.MID",
      "isPercussion": false,
      "pitch": 72,
      "velocity": 67,
      "startTime": 173.93089,
      "duration": 0.039583333333325754,
      "endTime": 173.97047333333333
    },
    {
      "instrumentId": 0,
      "instrumentName": "Umi no Machi Mieru.MID",
      "isPercussion": false,
      "pitch": 84,
      "velocity": 51,
      "startTime": 174.21839,
      "duration": 0.08541666666667425,
      "endTime": 174.30380666666667
    },
    {
      "instrumentId": 0,
      "instrumentName": "Umi no Machi Mieru.MID",
      "isPercussion": false,
      "pitch": 87,
      "velocity": 59,
      "startTime": 174.46839,
      "duration": 0.052083333333314386,
      "endTime": 174.5204733333333
    },
    {
      "instrumentId": 0,
      "instrumentName": "Umi no Machi Mieru.MID",
      "isPercussion": false,
      "pitch": 61,
      "velocity": 55,
      "startTime": 174.50172333333333,
      "duration": 0.14166666666667993,
      "endTime": 174.64339
    },
    {
      "instrumentId": 0,
      "instrumentName": "Umi no Machi Mieru.MID",
      "isPercussion": false,
      "pitch": 89,
      "velocity": 71,
      "startTime": 174.53089,
      "duration": 0.5416666666666572,
      "endTime": 175.07255666666666
    },
    {
      "instrumentId": 0,
      "instrumentName": "Umi no Machi Mieru.MID",
      "isPercussion": false,
      "pitch": 65,
      "velocity": 55,
      "startTime": 174.80380666666667,
      "duration": 0.08333333333331439,
      "endTime": 174.88714
    },
    {
      "instrumentId": 0,
      "instrumentName": "Umi no Machi Mieru.MID",
      "isPercussion": false,
      "pitch": 87,
      "velocity": 70,
      "startTime": 175.08089,
      "duration": 0.11041666666665151,
      "endTime": 175.19130666666666
    },
    {
      "instrumentId": 0,
      "instrumentName": "Umi no Machi Mieru.MID",
      "isPercussion": false,
      "pitch": 68,
      "velocity": 60,
      "startTime": 175.10589,
      "duration": 0.03750000000002274,
      "endTime": 175.14339
    },
    {
      "instrumentId": 0,
      "instrumentName": "Umi no Machi Mieru.MID",
      "isPercussion": false,
      "pitch": 85,
      "velocity": 58,
      "startTime": 175.37880666666666,
      "duration": 0.06666666666666288,
      "endTime": 175.44547333333333
    },
    {
      "instrumentId": 0,
      "instrumentName": "Umi no Machi Mieru.MID",
      "isPercussion": false,
      "pitch": 87,
      "velocity": 72,
      "startTime": 175.65797333333333,
      "duration": 0.7395833333333428,
      "endTime": 176.39755666666667
    },
    {
      "instrumentId": 0,
      "instrumentName": "Umi no Machi Mieru.MID",
      "isPercussion": false,
      "pitch": 60,
      "velocity": 57,
      "startTime": 175.65797333333333,
      "duration": 0.7541666666666629,
      "endTime": 176.41214
    },
    {
      "instrumentId": 0,
      "instrumentName": "Umi no Machi Mieru.MID",
      "isPercussion": false,
      "pitch": 75,
      "velocity": 59,
      "startTime": 175.94755666666666,
      "duration": 0.3395833333333371,
      "endTime": 176.28714
    },
    {
      "instrumentId": 0,
      "instrumentName": "Umi no Machi Mieru.MID",
      "isPercussion": false,
      "pitch": 79,
      "velocity": 69,
      "startTime": 176.25589,
      "duration": 0.3062500000000057,
      "endTime": 176.56214
    },
    {
      "instrumentId": 0,
      "instrumentName": "Umi no Machi Mieru.MID",
      "isPercussion": false,
      "pitch": 67,
      "velocity": 50,
      "startTime": 176.26422333333335,
      "duration": 0.4291666666666458,
      "endTime": 176.69339
    },
    {
      "instrumentId": 0,
      "instrumentName": "Umi no Machi Mieru.MID",
      "isPercussion": false,
      "pitch": 80,
      "velocity": 50,
      "startTime": 176.540265,
      "duration": 0.15520833333332007,
      "endTime": 176.69547333333333
    },
    {
      "instrumentId": 0,
      "instrumentName": "Umi no Machi Mieru.MID",
      "isPercussion": false,
      "pitch": 82,
      "velocity": 75,
      "startTime": 176.83565191666665,
      "duration": 0.22708333333332575,
      "endTime": 177.06273524999997
    },
    {
      "instrumentId": 0,
      "instrumentName": "Umi no Machi Mieru.MID",
      "isPercussion": false,
      "pitch": 61,
      "velocity": 58,
      "startTime": 176.83565191666665,
      "duration": 0.2541666666666629,
      "endTime": 177.0898185833333
    },
    {
      "instrumentId": 0,
      "instrumentName": "Umi no Machi Mieru.MID",
      "isPercussion": false,
      "pitch": 85,
      "velocity": 84,
      "startTime": 177.11690191666665,
      "duration": 0.09583333333333144,
      "endTime": 177.21273524999998
    },
    {
      "instrumentId": 0,
      "instrumentName": "Umi no Machi Mieru.MID",
      "isPercussion": false,
      "pitch": 65,
      "velocity": 48,
      "startTime": 177.13981858333332,
      "duration": 0.13958333333332007,
      "endTime": 177.27940191666664
    },
    {
      "instrumentId": 0,
      "instrumentName": "Umi no Machi Mieru.MID",
      "isPercussion": false,
      "pitch": 68,
      "velocity": 61,
      "startTime": 177.4023185833333,
      "duration": 0.04791666666667993,
      "endTime": 177.45023525
    },
    {
      "instrumentId": 0,
      "instrumentName": "Umi no Machi Mieru.MID",
      "isPercussion": false,
      "pitch": 89,
      "velocity": 86,
      "startTime": 177.4023185833333,
      "duration": 0.08125000000001137,
      "endTime": 177.48356858333332
    },
    {
      "instrumentId": 0,
      "instrumentName": "Umi no Machi Mieru.MID",
      "isPercussion": false,
      "pitch": 73,
      "velocity": 66,
      "startTime": 177.67940191666665,
      "duration": 0.07916666666665151,
      "endTime": 177.7585685833333
    },
    {
      "instrumentId": 0,
      "instrumentName": "Umi no Machi Mieru.MID",
      "isPercussion": false,
      "pitch": 92,
      "velocity": 86,
      "startTime": 177.6835685833333,
      "duration": 0.1666666666666572,
      "endTime": 177.85023524999997
    },
    {
      "instrumentId": 0,
      "instrumentName": "Umi no Machi Mieru.MID",
      "isPercussion": false,
      "pitch": 63,
      "velocity": 61,
      "startTime": 177.97315191666664,
      "duration": 0.22500000000002274,
      "endTime": 178.19815191666666
    },
    {
      "instrumentId": 0,
      "instrumentName": "Umi no Machi Mieru.MID",
      "isPercussion": false,
      "pitch": 91,
      "velocity": 79,
      "startTime": 177.97940191666666,
      "duration": 0.20208333333332007,
      "endTime": 178.18148524999998
    },
    {
      "instrumentId": 0,
      "instrumentName": "Umi no Machi Mieru.MID",
      "isPercussion": false,
      "pitch": 67,
      "velocity": 57,
      "startTime": 178.2523185833333,
      "duration": 0.07291666666668561,
      "endTime": 178.32523525
    },
    {
      "instrumentId": 0,
      "instrumentName": "Umi no Machi Mieru.MID",
      "isPercussion": false,
      "pitch": 87,
      "velocity": 66,
      "startTime": 178.27315191666665,
      "duration": 0.06458333333333144,
      "endTime": 178.33773524999998
    },
    {
      "instrumentId": 0,
      "instrumentName": "Umi no Machi Mieru.MID",
      "isPercussion": false,
      "pitch": 84,
      "velocity": 65,
      "startTime": 178.54190191666666,
      "duration": 0.11874999999997726,
      "endTime": 178.66065191666664
    },
    {
      "instrumentId": 0,
      "instrumentName": "Umi no Machi Mieru.MID",
      "isPercussion": false,
      "pitch": 70,
      "velocity": 48,
      "startTime": 178.5648185833333,
      "duration": 0.041666666666685614,
      "endTime": 178.60648525
    },
    {
      "instrumentId": 0,
      "instrumentName": "Umi no Machi Mieru.MID",
      "isPercussion": false,
      "pitch": 82,
      "velocity": 74,
      "startTime": 178.81273524999997,
      "duration": 0.14791666666667425,
      "endTime": 178.96065191666665
    },
    {
      "instrumentId": 0,
      "instrumentName": "Umi no Machi Mieru.MID",
      "isPercussion": false,
      "pitch": 56,
      "velocity": 65,
      "startTime": 179.10440191666666,
      "duration": 0.34166666666664014,
      "endTime": 179.4460685833333
    },
    {
      "instrumentId": 0,
      "instrumentName": "Umi no Machi Mieru.MID",
      "isPercussion": false,
      "pitch": 84,
      "velocity": 70,
      "startTime": 179.11065191666665,
      "duration": 0.5083333333333258,
      "endTime": 179.61898524999998
    },
    {
      "instrumentId": 0,
      "instrumentName": "Umi no Machi Mieru.MID",
      "isPercussion": false,
      "pitch": 75,
      "velocity": 72,
      "startTime": 179.4023185833333,
      "duration": 0.2645833333333485,
      "endTime": 179.66690191666666
    },
    {
      "instrumentId": 0,
      "instrumentName": "Umi no Machi Mieru.MID",
      "isPercussion": false,
      "pitch": 63,
      "velocity": 55,
      "startTime": 179.4148185833333,
      "duration": 0.18958333333335986,
      "endTime": 179.60440191666666
    },
    {
      "instrumentId": 0,
      "instrumentName": "Umi no Machi Mieru.MID",
      "isPercussion": false,
      "pitch": 68,
      "velocity": 63,
      "startTime": 179.69398524999997,
      "duration": 0.06875000000002274,
      "endTime": 179.76273525
    },
    {
      "instrumentId": 0,
      "instrumentName": "Umi no Machi Mieru.MID",
      "isPercussion": false,
      "pitch": 82,
      "velocity": 70,
      "startTime": 179.69815191666666,
      "duration": 0.2729166666666458,
      "endTime": 179.9710685833333
    },
    {
      "instrumentId": 0,
      "instrumentName": "Umi no Machi Mieru.MID",
      "isPercussion": false,
      "pitch": 70,
      "velocity": 61,
      "startTime": 179.9710685833333,
      "duration": 0.04791666666667993,
      "endTime": 180.01898525
    },
    {
      "instrumentId": 0,
      "instrumentName": "Umi no Machi Mieru.MID",
      "isPercussion": false,
      "pitch": 80,
      "velocity": 78,
      "startTime": 179.97940191666666,
      "duration": 0.0583333333333087,
      "endTime": 180.03773524999997
    },
    {
      "instrumentId": 0,
      "instrumentName": "Umi no Machi Mieru.MID",
      "isPercussion": false,
      "pitch": 55,
      "velocity": 69,
      "startTime": 180.26898525,
      "duration": 0.28125,
      "endTime": 180.55023525
    },
    {
      "instrumentId": 0,
      "instrumentName": "Umi no Machi Mieru.MID",
      "isPercussion": false,
      "pitch": 79,
      "velocity": 83,
      "startTime": 180.2835685833333,
      "duration": 0.16249999999999432,
      "endTime": 180.4460685833333
    },
    {
      "instrumentId": 0,
      "instrumentName": "Umi no Machi Mieru.MID",
      "isPercussion": false,
      "pitch": 62,
      "velocity": 54,
      "startTime": 180.55648524999998,
      "duration": 0.04583333333332007,
      "endTime": 180.6023185833333
    },
    {
      "instrumentId": 0,
      "instrumentName": "Umi no Machi Mieru.MID",
      "isPercussion": false,
      "pitch": 80,
      "velocity": 69,
      "startTime": 180.56690191666664,
      "duration": 0.32916666666667993,
      "endTime": 180.89606858333332
    },
    {
      "instrumentId": 0,
      "instrumentName": "Umi no Machi Mieru.MID",
      "isPercussion": false,
      "pitch": 67,
      "velocity": 63,
      "startTime": 180.85856858333332,
      "duration": 0.08958333333333712,
      "endTime": 180.94815191666666
    },
    {
      "instrumentId": 0,
      "instrumentName": "Umi no Machi Mieru.MID",
      "isPercussion": false,
      "pitch": 82,
      "velocity": 81,
      "startTime": 180.86481858333332,
      "duration": 0.09791666666666288,
      "endTime": 180.96273524999998
    },
    {
      "instrumentId": 0,
      "instrumentName": "Umi no Machi Mieru.MID",
      "isPercussion": false,
      "pitch": 84,
      "velocity": 58,
      "startTime": 181.17523525,
      "duration": 0.0625,
      "endTime": 181.23773525
    },
    {
      "instrumentId": 0,
      "instrumentName": "Umi no Machi Mieru.MID",
      "isPercussion": false,
      "pitch": 53,
      "velocity": 62,
      "startTime": 181.4398185833333,
      "duration": 0.05000000000001137,
      "endTime": 181.48981858333332
    },
    {
      "instrumentId": 0,
      "instrumentName": "Umi no Machi Mieru.MID",
      "isPercussion": false,
      "pitch": 92,
      "velocity": 85,
      "startTime": 181.4398185833333,
      "duration": 1.1708333333333485,
      "endTime": 182.61065191666665
    },
    {
      "instrumentId": 0,
      "instrumentName": "Umi no Machi Mieru.MID",
      "isPercussion": false,
      "pitch": 60,
      "velocity": 56,
      "startTime": 181.73565191666665,
      "duration": 0.039583333333325754,
      "endTime": 181.77523524999998
    },
    {
      "instrumentId": 0,
      "instrumentName": "Umi no Machi Mieru.MID",
      "isPercussion": false,
      "pitch": 65,
      "velocity": 67,
      "startTime": 182.01065191666666,
      "duration": 0.03333333333333144,
      "endTime": 182.04398525
    },
    {
      "instrumentId": 0,
      "instrumentName": "Umi no Machi Mieru.MID",
      "isPercussion": false,
      "pitch": 84,
      "velocity": 62,
      "startTime": 182.28565191666664,
      "duration": 0.27916666666666856,
      "endTime": 182.5648185833333
    },
    {
      "instrumentId": 0,
      "instrumentName": "Umi no Machi Mieru.MID",
      "isPercussion": false,
      "pitch": 55,
      "velocity": 52,
      "startTime": 182.57731858333332,
      "duration": 0.11249999999998295,
      "endTime": 182.6898185833333
    },
    {
      "instrumentId": 0,
      "instrumentName": "Umi no Machi Mieru.MID",
      "isPercussion": false,
      "pitch": 91,
      "velocity": 74,
      "startTime": 182.57731858333332,
      "duration": 0.9312499999999773,
      "endTime": 183.5085685833333
    },
    {
      "instrumentId": 0,
      "instrumentName": "Umi no Machi Mieru.MID",
      "isPercussion": false,
      "pitch": 62,
      "velocity": 54,
      "startTime": 182.86690191666665,
      "duration": 0.04374999999998863,
      "endTime": 182.91065191666664
    },
    {
      "instrumentId": 0,
      "instrumentName": "Umi no Machi Mieru.MID",
      "isPercussion": false,
      "pitch": 67,
      "velocity": 69,
      "startTime": 183.1648185833333,
      "duration": 0.05000000000001137,
      "endTime": 183.2148185833333
    },
    {
      "instrumentId": 0,
      "instrumentName": "Umi no Machi Mieru.MID",
      "isPercussion": false,
      "pitch": 84,
      "velocity": 62,
      "startTime": 183.4648185833333,
      "duration": 0.11875000000000568,
      "endTime": 183.58356858333332
    },
    {
      "instrumentId": 0,
      "instrumentName": "Umi no Machi Mieru.MID",
      "isPercussion": false,
      "pitch": 87,
      "velocity": 58,
      "startTime": 183.71273524999998,
      "duration": 0.06041666666666856,
      "endTime": 183.77315191666665
    },
    {
      "instrumentId": 0,
      "instrumentName": "Umi no Machi Mieru.MID",
      "isPercussion": false,
      "pitch": 56,
      "velocity": 51,
      "startTime": 183.75023524999997,
      "duration": 0.056250000000005684,
      "endTime": 183.80648524999998
    },
    {
      "instrumentId": 0,
      "instrumentName": "Umi no Machi Mieru.MID",
      "isPercussion": false,
      "pitch": 89,
      "velocity": 70,
      "startTime": 183.78148524999997,
      "duration": 0.5374999999999943,
      "endTime": 184.31898524999997
    },
    {
      "instrumentId": 0,
      "instrumentName": "Umi no Machi Mieru.MID",
      "isPercussion": false,
      "pitch": 65,
      "velocity": 54,
      "startTime": 184.03565191666664,
      "duration": 0.04583333333334849,
      "endTime": 184.08148525
    },
    {
      "instrumentId": 0,
      "instrumentName": "Umi no Machi Mieru.MID",
      "isPercussion": false,
      "pitch": 87,
      "velocity": 72,
      "startTime": 184.32940191666665,
      "duration": 0.23124999999998863,
      "endTime": 184.56065191666664
    },
    {
      "instrumentId": 0,
      "instrumentName": "Umi no Machi Mieru.MID",
      "isPercussion": false,
      "pitch": 85,
      "velocity": 65,
      "startTime": 184.61273525,
      "duration": 0.28125,
      "endTime": 184.89398525
    },
    {
      "instrumentId": 0,
      "instrumentName": "Umi no Machi Mieru.MID",
      "isPercussion": false,
      "pitch": 65,
      "velocity": 39,
      "startTime": 184.64398525,
      "duration": 0.05833333333333712,
      "endTime": 184.70231858333332
    },
    {
      "instrumentId": 0,
      "instrumentName": "Umi no Machi Mieru.MID",
      "isPercussion": false,
      "pitch": 87,
      "velocity": 77,
      "startTime": 184.9023185833333,
      "duration": 0.8729166666666686,
      "endTime": 185.77523524999998
    },
    {
      "instrumentId": 0,
      "instrumentName": "Umi no Machi Mieru.MID",
      "isPercussion": false,
      "pitch": 57,
      "velocity": 59,
      "startTime": 184.9148185833333,
      "duration": 0.6270833333333314,
      "endTime": 185.54190191666663
    },
    {
      "instrumentId": 0,
      "instrumentName": "Umi no Machi Mieru.MID",
      "isPercussion": false,
      "pitch": 65,
      "velocity": 50,
      "startTime": 185.20440191666665,
      "duration": 0.04374999999998863,
      "endTime": 185.24815191666664
    },
    {
      "instrumentId": 0,
      "instrumentName": "Umi no Machi Mieru.MID",
      "isPercussion": false,
      "pitch": 65,
      "velocity": 73,
      "startTime": 185.5023185833333,
      "duration": 0.09583333333333144,
      "endTime": 185.59815191666664
    },
    {
      "instrumentId": 0,
      "instrumentName": "Umi no Machi Mieru.MID",
      "isPercussion": false,
      "pitch": 84,
      "velocity": 68,
      "startTime": 185.77523524999998,
      "duration": 0.16249999999999432,
      "endTime": 185.93773524999997
    },
    {
      "instrumentId": 0,
      "instrumentName": "Umi no Machi Mieru.MID",
      "isPercussion": false,
      "pitch": 82,
      "velocity": 70,
      "startTime": 186.0648185833333,
      "duration": 0.23125000000001705,
      "endTime": 186.29606858333332
    },
    {
      "instrumentId": 0,
      "instrumentName": "Umi no Machi Mieru.MID",
      "isPercussion": false,
      "pitch": 58,
      "velocity": 57,
      "startTime": 186.06898524999997,
      "duration": 0.3208333333333542,
      "endTime": 186.38981858333332
    },
    {
      "instrumentId": 0,
      "instrumentName": "Umi no Machi Mieru.MID",
      "isPercussion": false,
      "pitch": 65,
      "velocity": 59,
      "startTime": 186.35440191666663,
      "duration": 0.4458333333333542,
      "endTime": 186.80023525
    },
    {
      "instrumentId": 0,
      "instrumentName": "Umi no Machi Mieru.MID",
      "isPercussion": false,
      "pitch": 85,
      "velocity": 64,
      "startTime": 186.36273525,
      "duration": 0.17916666666664582,
      "endTime": 186.54190191666663
    },
    {
      "instrumentId": 0,
      "instrumentName": "Umi no Machi Mieru.MID",
      "isPercussion": false,
      "pitch": 70,
      "velocity": 62,
      "startTime": 186.64815191666665,
      "duration": 0.2979166666666515,
      "endTime": 186.9460685833333
    },
    {
      "instrumentId": 0,
      "instrumentName": "Umi no Machi Mieru.MID",
      "isPercussion": false,
      "pitch": 89,
      "velocity": 81,
      "startTime": 186.67315191666665,
      "duration": 0.10416666666665719,
      "endTime": 186.7773185833333
    },
    {
      "instrumentId": 0,
      "instrumentName": "Umi no Machi Mieru.MID",
      "isPercussion": false,
      "pitch": 92,
      "velocity": 74,
      "startTime": 186.95023525,
      "duration": 0.0895833333333087,
      "endTime": 187.0398185833333
    },
    {
      "instrumentId": 0,
      "instrumentName": "Umi no Machi Mieru.MID",
      "isPercussion": false,
      "pitch": 94,
      "velocity": 83,
      "startTime": 187.23773525,
      "duration": 0.11666666666664582,
      "endTime": 187.35440191666663
    },
    {
      "instrumentId": 0,
      "instrumentName": "Umi no Machi Mieru.MID",
      "isPercussion": false,
      "pitch": 87,
      "velocity": 62,
      "startTime": 187.2460685833333,
      "duration": 0.12708333333333144,
      "endTime": 187.37315191666664
    },
    {
      "instrumentId": 0,
      "instrumentName": "Umi no Machi Mieru.MID",
      "isPercussion": false,
      "pitch": 60,
      "velocity": 53,
      "startTime": 187.2585685833333,
      "duration": 0.3687500000000057,
      "endTime": 187.6273185833333
    },
    {
      "instrumentId": 0,
      "instrumentName": "Umi no Machi Mieru.MID",
      "isPercussion": false,
      "pitch": 67,
      "velocity": 60,
      "startTime": 187.55648524999998,
      "duration": 0.40416666666666856,
      "endTime": 187.96065191666665
    },
    {
      "instrumentId": 0,
      "instrumentName": "Umi no Machi Mieru.MID",
      "isPercussion": false,
      "pitch": 96,
      "velocity": 73,
      "startTime": 187.56065191666664,
      "duration": 0.28125,
      "endTime": 187.84190191666664
    },
    {
      "instrumentId": 0,
      "instrumentName": "Umi no Machi Mieru.MID",
      "isPercussion": false,
      "pitch": 91,
      "velocity": 80,
      "startTime": 187.85648525,
      "duration": 0.23958333333331439,
      "endTime": 188.0960685833333
    },
    {
      "instrumentId": 0,
      "instrumentName": "Umi no Machi Mieru.MID",
      "isPercussion": false,
      "pitch": 72,
      "velocity": 64,
      "startTime": 187.86065191666665,
      "duration": 0.05624999999997726,
      "endTime": 187.91690191666663
    },
    {
      "instrumentId": 0,
      "instrumentName": "Umi no Machi Mieru.MID",
      "isPercussion": false,
      "pitch": 87,
      "velocity": 62,
      "startTime": 188.16690191666663,
      "duration": 0.08125000000001137,
      "endTime": 188.24815191666664
    },
    {
      "instrumentId": 0,
      "instrumentName": "Umi no Machi Mieru.MID",
      "isPercussion": false,
      "pitch": 53,
      "velocity": 54,
      "startTime": 188.49190191666665,
      "duration": 0.706249999999983,
      "endTime": 189.19815191666663
    },
    {
      "instrumentId": 0,
      "instrumentName": "Umi no Machi Mieru.MID",
      "isPercussion": false,
      "pitch": 89,
      "velocity": 55,
      "startTime": 188.50023524999997,
      "duration": 0.6520833333333371,
      "endTime": 189.1523185833333
    },
    {
      "instrumentId": 0,
      "instrumentName": "Umi no Machi Mieru.MID",
      "isPercussion": false,
      "pitch": 80,
      "velocity": 52,
      "startTime": 188.84190191666664,
      "duration": 0.33541666666667425,
      "endTime": 189.17731858333332
    },
    {
      "instrumentId": 0,
      "instrumentName": "Umi no Machi Mieru.MID",
      "isPercussion": false,
      "pitch": 60,
      "velocity": 50,
      "startTime": 188.84190191666664,
      "duration": 0.46041666666667425,
      "endTime": 189.30231858333332
    },
    {
      "instrumentId": 0,
      "instrumentName": "Umi no Machi Mieru.MID",
      "isPercussion": false,
      "pitch": 84,
      "velocity": 76,
      "startTime": 189.17106858333332,
      "duration": 1.8291666666666515,
      "endTime": 191.00023524999997
    },
    {
      "instrumentId": 0,
      "instrumentName": "Umi no Machi Mieru.MID",
      "isPercussion": false,
      "pitch": 65,
      "velocity": 55,
      "startTime": 189.18148524999998,
      "duration": 0.06041666666666856,
      "endTime": 189.24190191666665
    },
    {
      "instrumentId": 0,
      "instrumentName": "Umi no Machi Mieru.MID",
      "isPercussion": false,
      "pitch": 68,
      "velocity": 60,
      "startTime": 189.51273525,
      "duration": 0.04999999999998295,
      "endTime": 189.56273524999997
    },
    {
      "instrumentId": 0,
      "instrumentName": "Umi no Machi Mieru.MID",
      "isPercussion": false,
      "pitch": 80,
      "velocity": 63,
      "startTime": 189.52940191666664,
      "duration": 1.3104166666666686,
      "endTime": 190.8398185833333
    },
    {
      "instrumentId": 0,
      "instrumentName": "Umi no Machi Mieru.MID",
      "isPercussion": false,
      "pitch": 77,
      "velocity": 77,
      "startTime": 189.85648525,
      "duration": 0.6666666666666572,
      "endTime": 190.52315191666665
    },
    {
      "instrumentId": 0,
      "instrumentName": "Umi no Machi Mieru.MID",
      "isPercussion": false,
      "pitch": 58,
      "velocity": 44,
      "startTime": 192.1835685833333,
      "duration": 1.9937500000000057,
      "endTime": 194.17731858333332
    },
    {
      "instrumentId": 0,
      "instrumentName": "Umi no Machi Mieru.MID",
      "isPercussion": false,
      "pitch": 65,
      "velocity": 49,
      "startTime": 192.2773185833333,
      "duration": 1.9583333333333428,
      "endTime": 194.23565191666665
    },
    {
      "instrumentId": 0,
      "instrumentName": "Umi no Machi Mieru.MID",
      "isPercussion": false,
      "pitch": 70,
      "velocity": 53,
      "startTime": 192.32523525,
      "duration": 2.104166666666657,
      "endTime": 194.42940191666665
    },
    {
      "instrumentId": 0,
      "instrumentName": "Umi no Machi Mieru.MID",
      "isPercussion": false,
      "pitch": 73,
      "velocity": 71,
      "startTime": 192.35856858333332,
      "duration": 0.9187499999999886,
      "endTime": 193.2773185833333
    },
    {
      "instrumentId": 0,
      "instrumentName": "Umi no Machi Mieru.MID",
      "isPercussion": false,
      "pitch": 77,
      "velocity": 69,
      "startTime": 192.41273524999997,
      "duration": 0.44375000000002274,
      "endTime": 192.85648525
    },
    {
      "instrumentId": 0,
      "instrumentName": "Umi no Machi Mieru.MID",
      "isPercussion": false,
      "pitch": 84,
      "velocity": 91,
      "startTime": 192.5023185833333,
      "duration": 0.32500000000001705,
      "endTime": 192.82731858333332
    },
    {
      "instrumentId": 0,
      "instrumentName": "Umi no Machi Mieru.MID",
      "isPercussion": false,
      "pitch": 82,
      "velocity": 77,
      "startTime": 192.83565191666665,
      "duration": 0.16874999999998863,
      "endTime": 193.00440191666664
    },
    {
      "instrumentId": 0,
      "instrumentName": "Umi no Machi Mieru.MID",
      "isPercussion": false,
      "pitch": 80,
      "velocity": 67,
      "startTime": 193.15440191666664,
      "duration": 0.11666666666667425,
      "endTime": 193.27106858333332
    },
    {
      "instrumentId": 0,
      "instrumentName": "Umi no Machi Mieru.MID",
      "isPercussion": false,
      "pitch": 80,
      "velocity": 81,
      "startTime": 193.4710685833333,
      "duration": 0.32500000000001705,
      "endTime": 193.79606858333332
    },
    {
      "instrumentId": 0,
      "instrumentName": "Umi no Machi Mieru.MID",
      "isPercussion": false,
      "pitch": 79,
      "velocity": 70,
      "startTime": 193.78981858333333,
      "duration": 0.2979166666666515,
      "endTime": 194.08773524999998
    },
    {
      "instrumentId": 0,
      "instrumentName": "Umi no Machi Mieru.MID",
      "isPercussion": false,
      "pitch": 77,
      "velocity": 67,
      "startTime": 194.11273525,
      "duration": 0.3395833333333371,
      "endTime": 194.45231858333332
    },
    {
      "instrumentId": 0,
      "instrumentName": "Umi no Machi Mieru.MID",
      "isPercussion": false,
      "pitch": 79,
      "velocity": 67,
      "startTime": 194.43565191666664,
      "duration": 0.11666666666667425,
      "endTime": 194.55231858333332
    },
    {
      "instrumentId": 0,
      "instrumentName": "Umi no Machi Mieru.MID",
      "isPercussion": false,
      "pitch": 63,
      "velocity": 67,
      "startTime": 194.69398524999997,
      "duration": 2.164583333333354,
      "endTime": 196.85856858333332
    },
    {
      "instrumentId": 0,
      "instrumentName": "Umi no Machi Mieru.MID",
      "isPercussion": false,
      "pitch": 75,
      "velocity": 59,
      "startTime": 194.74190191666665,
      "duration": 0.6729166666666799,
      "endTime": 195.41481858333333
    },
    {
      "instrumentId": 0,
      "instrumentName": "Umi no Machi Mieru.MID",
      "isPercussion": false,
      "pitch": 70,
      "velocity": 50,
      "startTime": 194.76273525,
      "duration": 2.210416666666646,
      "endTime": 196.97315191666664
    },
    {
      "instrumentId": 0,
      "instrumentName": "Umi no Machi Mieru.MID",
      "isPercussion": false,
      "pitch": 67,
      "velocity": 39,
      "startTime": 194.77523524999998,
      "duration": 2.114583333333343,
      "endTime": 196.88981858333332
    },
    {
      "instrumentId": 0,
      "instrumentName": "Umi no Machi Mieru.MID",
      "isPercussion": false,
      "pitch": 82,
      "velocity": 82,
      "startTime": 194.83356858333332,
      "duration": 0.4479166666666572,
      "endTime": 195.28148524999997
    },
    {
      "instrumentId": 0,
      "instrumentName": "Umi no Machi Mieru.MID",
      "isPercussion": false,
      "pitch": 80,
      "velocity": 46,
      "startTime": 195.13773525,
      "duration": 0.2041666666666515,
      "endTime": 195.34190191666664
    },
    {
      "instrumentId": 0,
      "instrumentName": "Umi no Machi Mieru.MID",
      "isPercussion": false,
      "pitch": 79,
      "velocity": 53,
      "startTime": 195.4648185833333,
      "duration": 0.3125,
      "endTime": 195.7773185833333
    },
    {
      "instrumentId": 0,
      "instrumentName": "Umi no Machi Mieru.MID",
      "isPercussion": false,
      "pitch": 80,
      "velocity": 71,
      "startTime": 195.76273525,
      "duration": 0.052083333333314386,
      "endTime": 195.8148185833333
    },
    {
      "instrumentId": 0,
      "instrumentName": "Umi no Machi Mieru.MID",
      "isPercussion": false,
      "pitch": 77,
      "velocity": 69,
      "startTime": 195.99190191666665,
      "duration": 1.1374999999999886,
      "endTime": 197.12940191666664
    },
    {
      "instrumentId": 0,
      "instrumentName": "Umi no Machi Mieru.MID",
      "isPercussion": false,
      "pitch": 80,
      "velocity": 69,
      "startTime": 196.05231858333332,
      "duration": 1.0520833333333144,
      "endTime": 197.10440191666663
    },
    {
      "instrumentId": 0,
      "instrumentName": "Umi no Machi Mieru.MID",
      "isPercussion": false,
      "pitch": 87,
      "velocity": 87,
      "startTime": 196.12315191666664,
      "duration": 0.9645833333333371,
      "endTime": 197.08773524999998
    },
    {
      "instrumentId": 0,
      "instrumentName": "Umi no Machi Mieru.MID",
      "isPercussion": false,
      "pitch": 85,
      "velocity": 78,
      "startTime": 197.08773524999998,
      "duration": 0.0625,
      "endTime": 197.15023524999998
    },
    {
      "instrumentId": 0,
      "instrumentName": "Umi no Machi Mieru.MID",
      "isPercussion": false,
      "pitch": 58,
      "velocity": 52,
      "startTime": 197.29815191666665,
      "duration": 2.402083333333337,
      "endTime": 199.70023525
    },
    {
      "instrumentId": 0,
      "instrumentName": "Umi no Machi Mieru.MID",
      "isPercussion": false,
      "pitch": 65,
      "velocity": 57,
      "startTime": 197.38148524999997,
      "duration": 2.3687500000000057,
      "endTime": 199.75023524999997
    },
    {
      "instrumentId": 0,
      "instrumentName": "Umi no Machi Mieru.MID",
      "isPercussion": false,
      "pitch": 70,
      "velocity": 59,
      "startTime": 197.4023185833333,
      "duration": 2.3812499999999943,
      "endTime": 199.7835685833333
    },
    {
      "instrumentId": 0,
      "instrumentName": "Umi no Machi Mieru.MID",
      "isPercussion": false,
      "pitch": 74,
      "velocity": 68,
      "startTime": 197.4398185833333,
      "duration": 1.1666666666666856,
      "endTime": 198.60648525
    },
    {
      "instrumentId": 0,
      "instrumentName": "Umi no Machi Mieru.MID",
      "isPercussion": false,
      "pitch": 77,
      "velocity": 71,
      "startTime": 197.46273524999998,
      "duration": 1.0999999999999943,
      "endTime": 198.56273524999997
    },
    {
      "instrumentId": 0,
      "instrumentName": "Umi no Machi Mieru.MID",
      "isPercussion": false,
      "pitch": 84,
      "velocity": 70,
      "startTime": 197.52523524999998,
      "duration": 1.0687499999999943,
      "endTime": 198.59398524999997
    },
    {
      "instrumentId": 0,
      "instrumentName": "Umi no Machi Mieru.MID",
      "isPercussion": false,
      "pitch": 82,
      "velocity": 75,
      "startTime": 198.55648524999998,
      "duration": 0.09375,
      "endTime": 198.65023524999998
    },
    {
      "instrumentId": 0,
      "instrumentName": "Umi no Machi Mieru.MID",
      "isPercussion": false,
      "pitch": 82,
      "velocity": 77,
      "startTime": 198.91273524999997,
      "duration": 1.0416666666666856,
      "endTime": 199.95440191666665
    },
    {
      "instrumentId": 0,
      "instrumentName": "Umi no Machi Mieru.MID",
      "isPercussion": false,
      "pitch": 77,
      "velocity": 58,
      "startTime": 198.91273524999997,
      "duration": 1.1020833333333542,
      "endTime": 200.01481858333332
    },
    {
      "instrumentId": 0,
      "instrumentName": "Umi no Machi Mieru.MID",
      "isPercussion": false,
      "pitch": 74,
      "velocity": 57,
      "startTime": 198.92106858333332,
      "duration": 1.1062499999999886,
      "endTime": 200.0273185833333
    },
    {
      "instrumentId": 0,
      "instrumentName": "Umi no Machi Mieru.MID",
      "isPercussion": false,
      "pitch": 80,
      "velocity": 69,
      "startTime": 199.97940191666663,
      "duration": 0.0979166666666913,
      "endTime": 200.07731858333332
    },
    {
      "instrumentId": 0,
      "instrumentName": "Umi no Machi Mieru.MID",
      "isPercussion": false,
      "pitch": 82,
      "velocity": 57,
      "startTime": 200.35231858333333,
      "duration": 1.3645833333333144,
      "endTime": 201.71690191666664
    },
    {
      "instrumentId": 0,
      "instrumentName": "Umi no Machi Mieru.MID",
      "isPercussion": false,
      "pitch": 63,
      "velocity": 52,
      "startTime": 200.36273525,
      "duration": 1.2854166666666629,
      "endTime": 201.64815191666665
    },
    {
      "instrumentId": 0,
      "instrumentName": "Umi no Machi Mieru.MID",
      "isPercussion": false,
      "pitch": 70,
      "velocity": 56,
      "startTime": 200.36273525,
      "duration": 1.3416666666666686,
      "endTime": 201.70440191666665
    },
    {
      "instrumentId": 0,
      "instrumentName": "Umi no Machi Mieru.MID",
      "isPercussion": false,
      "pitch": 67,
      "velocity": 46,
      "startTime": 202.57940191666665,
      "duration": 0.90625,
      "endTime": 203.48565191666665
    },
    {
      "instrumentId": 0,
      "instrumentName": "Umi no Machi Mieru.MID",
      "isPercussion": false,
      "pitch": 84,
      "velocity": 48,
      "startTime": 202.57940191666665,
      "duration": 0.9666666666666686,
      "endTime": 203.54606858333332
    },
    {
      "instrumentId": 0,
      "instrumentName": "Umi no Machi Mieru.MID",
      "isPercussion": false,
      "pitch": 76,
      "velocity": 48,
      "startTime": 202.57940191666665,
      "duration": 1.0916666666666686,
      "endTime": 203.67106858333332
    },
    {
      "instrumentId": 0,
      "instrumentName": "Umi no Machi Mieru.MID",
      "isPercussion": false,
      "pitch": 60,
      "velocity": 49,
      "startTime": 202.5960685833333,
      "duration": 0.9541666666666799,
      "endTime": 203.55023525
    },
    {
      "instrumentId": 0,
      "instrumentName": "Umi no Machi Mieru.MID",
      "isPercussion": false,
      "pitch": 72,
      "velocity": 36,
      "startTime": 202.60648525,
      "duration": 0.924999999999983,
      "endTime": 203.53148524999997
    },
    {
      "instrumentId": 0,
      "instrumentName": "Umi no Machi Mieru.MID",
      "isPercussion": false,
      "pitch": 36,
      "velocity": 41,
      "startTime": 205.5335685833333,
      "duration": 5.78125,
      "endTime": 211.3148185833333
    },
    {
      "instrumentId": 0,
      "instrumentName": "Umi no Machi Mieru.MID",
      "isPercussion": false,
      "pitch": 43,
      "velocity": 46,
      "startTime": 205.57940191666665,
      "duration": 5.731249999999989,
      "endTime": 211.31065191666664
    },
    {
      "instrumentId": 0,
      "instrumentName": "Umi no Machi Mieru.MID",
      "isPercussion": false,
      "pitch": 48,
      "velocity": 46,
      "startTime": 205.65648524999997,
      "duration": 5.629166666666663,
      "endTime": 211.28565191666664
    },
    {
      "instrumentId": 0,
      "instrumentName": "Umi no Machi Mieru.MID",
      "isPercussion": false,
      "pitch": 60,
      "velocity": 49,
      "startTime": 205.69190191666664,
      "duration": 5.59375,
      "endTime": 211.28565191666664
    },
    {
      "instrumentId": 0,
      "instrumentName": "Umi no Machi Mieru.MID",
      "isPercussion": false,
      "pitch": 65,
      "velocity": 61,
      "startTime": 205.7835685833333,
      "duration": 5.518750000000011,
      "endTime": 211.30231858333332
    },
    {
      "instrumentId": 0,
      "instrumentName": "Umi no Machi Mieru.MID",
      "isPercussion": false,
      "pitch": 67,
      "velocity": 60,
      "startTime": 205.84815191666664,
      "duration": 5.46875,
      "endTime": 211.31690191666664
    },
    {
      "instrumentId": 0,
      "instrumentName": "Umi no Machi Mieru.MID",
      "isPercussion": false,
      "pitch": 72,
      "velocity": 64,
      "startTime": 205.94606858333333,
      "duration": 5.34375,
      "endTime": 211.28981858333333
    }
  ]
}