{
  "metadata": {
    "file": "Believe Me - Kenzie Smith Piano.mid",
    "duration": 140.5625,
    "bpm": 120.0,
    "totalNotes": 347
  },
  "notes": [
    {
      "instrumentId": 0,
      "instrumentName": "Yamaha Grand Piano",
      "isPercussion": false,
      "pitch": 84,
      "velocity": 70,
      "startTime": 2.886458333333333,
      "duration": 1.5885416666666665,
      "endTime": 4.475
    },
    {
      "instrumentId": 0,
      "instrumentName": "Yamaha Grand Piano",
      "isPercussion": false,
      "pitch": 89,
      "velocity": 100,
      "startTime": 5.408333333333333,
      "duration": 0.15312500000000018,
      "endTime": 5.561458333333333
    },
    {
      "instrumentId": 0,
      "instrumentName": "Yamaha Grand Piano",
      "isPercussion": false,
      "pitch": 84,
      "velocity": 85,
      "startTime": 5.736458333333333,
      "duration": 0.14687499999999964,
      "endTime": 5.883333333333333
    },
    {
      "instrumentId": 0,
      "instrumentName": "Yamaha Grand Piano",
      "isPercussion": false,
      "pitch": 89,
      "velocity": 90,
      "startTime": 6.034375,
      "duration": 0.10416666666666696,
      "endTime": 6.138541666666667
    },
    {
      "instrumentId": 0,
      "instrumentName": "Yamaha Grand Piano",
      "isPercussion": false,
      "pitch": 67,
      "velocity": 56,
      "startTime": 6.344791666666667,
      "duration": 1.9645833333333327,
      "endTime": 8.309375
    },
    {
      "instrumentId": 0,
      "instrumentName": "Yamaha Grand Piano",
      "isPercussion": false,
      "pitch": 82,
      "velocity": 68,
      "startTime": 6.346875,
      "duration": 1.0145833333333334,
      "endTime": 7.361458333333333
    },
    {
      "instrumentId": 0,
      "instrumentName": "Yamaha Grand Piano",
      "isPercussion": false,
      "pitch": 91,
      "velocity": 96,
      "startTime": 6.346875,
      "duration": 2.7124999999999995,
      "endTime": 9.059375
    },
    {
      "instrumentId": 0,
      "instrumentName": "Yamaha Grand Piano",
      "isPercussion": false,
      "pitch": 72,
      "velocity": 47,
      "startTime": 6.351041666666666,
      "duration": 1.046875,
      "endTime": 7.397916666666666
    },
    {
      "instrumentId": 0,
      "instrumentName": "Yamaha Grand Piano",
      "isPercussion": false,
      "pitch": 75,
      "velocity": 34,
      "startTime": 7.326041666666667,
      "duration": 1.0020833333333332,
      "endTime": 8.328125
    },
    {
      "instrumentId": 0,
      "instrumentName": "Yamaha Grand Piano",
      "isPercussion": false,
      "pitch": 84,
      "velocity": 78,
      "startTime": 7.326041666666667,
      "duration": 1.890625,
      "endTime": 9.216666666666667
    },
    {
      "instrumentId": 0,
      "instrumentName": "Yamaha Grand Piano",
      "isPercussion": false,
      "pitch": 91,
      "velocity": 102,
      "startTime": 9.654166666666667,
      "duration": 0.33958333333333357,
      "endTime": 9.99375
    },
    {
      "instrumentId": 0,
      "instrumentName": "Yamaha Grand Piano",
      "isPercussion": false,
      "pitch": 84,
      "velocity": 78,
      "startTime": 9.98125,
      "duration": 0.30416666666666714,
      "endTime": 10.285416666666666
    },
    {
      "instrumentId": 0,
      "instrumentName": "Yamaha Grand Piano",
      "isPercussion": false,
      "pitch": 91,
      "velocity": 92,
      "startTime": 10.264583333333333,
      "duration": 0.09687500000000071,
      "endTime": 10.361458333333333
    },
    {
      "instrumentId": 0,
      "instrumentName": "Yamaha Grand Piano",
      "isPercussion": false,
      "pitch": 92,
      "velocity": 100,
      "startTime": 10.588541666666666,
      "duration": 1.359375,
      "endTime": 11.947916666666666
    },
    {
      "instrumentId": 0,
      "instrumentName": "Yamaha Grand Piano",
      "isPercussion": false,
      "pitch": 68,
      "velocity": 57,
      "startTime": 10.590625,
      "duration": 2.0947916666666675,
      "endTime": 12.685416666666667
    },
    {
      "instrumentId": 0,
      "instrumentName": "Yamaha Grand Piano",
      "isPercussion": false,
      "pitch": 84,
      "velocity": 90,
      "startTime": 10.595833333333333,
      "duration": 1.3718749999999993,
      "endTime": 11.967708333333333
    },
    {
      "instrumentId": 0,
      "instrumentName": "Yamaha Grand Piano",
      "isPercussion": false,
      "pitch": 73,
      "velocity": 44,
      "startTime": 10.6,
      "duration": 1.0500000000000007,
      "endTime": 11.65
    },
    {
      "instrumentId": 0,
      "instrumentName": "Yamaha Grand Piano",
      "isPercussion": false,
      "pitch": 75,
      "velocity": 74,
      "startTime": 11.648958333333333,
      "duration": 1.0875000000000004,
      "endTime": 12.736458333333333
    },
    {
      "instrumentId": 0,
      "instrumentName": "Yamaha Grand Piano",
      "isPercussion": false,
      "pitch": 92,
      "velocity": 88,
      "startTime": 12.325,
      "duration": 0.2708333333333339,
      "endTime": 12.595833333333333
    },
    {
      "instrumentId": 0,
      "instrumentName": "Yamaha Grand Piano",
      "isPercussion": false,
      "pitch": 84,
      "velocity": 68,
      "startTime": 12.33125,
      "duration": 0.14791666666666536,
      "endTime": 12.479166666666666
    },
    {
      "instrumentId": 0,
      "instrumentName": "Yamaha Grand Piano",
      "isPercussion": false,
      "pitch": 94,
      "velocity": 89,
      "startTime": 12.614583333333334,
      "duration": 0.3374999999999986,
      "endTime": 12.952083333333333
    },
    {
      "instrumentId": 0,
      "instrumentName": "Yamaha Grand Piano",
      "isPercussion": false,
      "pitch": 92,
      "velocity": 92,
      "startTime": 12.889583333333333,
      "duration": 0.16354166666666714,
      "endTime": 13.053125
    },
    {
      "instrumentId": 0,
      "instrumentName": "Yamaha Grand Piano",
      "isPercussion": false,
      "pitch": 91,
      "velocity": 95,
      "startTime": 13.214583333333334,
      "duration": 0.7583333333333329,
      "endTime": 13.972916666666666
    },
    {
      "instrumentId": 0,
      "instrumentName": "Yamaha Grand Piano",
      "isPercussion": false,
      "pitch": 75,
      "velocity": 51,
      "startTime": 13.223958333333334,
      "duration": 0.6510416666666661,
      "endTime": 13.875
    },
    {
      "instrumentId": 0,
      "instrumentName": "Yamaha Grand Piano",
      "isPercussion": false,
      "pitch": 67,
      "velocity": 49,
      "startTime": 13.227083333333333,
      "duration": 1.416666666666666,
      "endTime": 14.643749999999999
    },
    {
      "instrumentId": 0,
      "instrumentName": "Yamaha Grand Piano",
      "isPercussion": false,
      "pitch": 82,
      "velocity": 71,
      "startTime": 13.230208333333334,
      "duration": 0.6052083333333336,
      "endTime": 13.835416666666667
    },
    {
      "instrumentId": 0,
      "instrumentName": "Yamaha Grand Piano",
      "isPercussion": false,
      "pitch": 75,
      "velocity": 65,
      "startTime": 14.185416666666667,
      "duration": 0.47187499999999893,
      "endTime": 14.657291666666666
    },
    {
      "instrumentId": 0,
      "instrumentName": "Yamaha Grand Piano",
      "isPercussion": false,
      "pitch": 91,
      "velocity": 78,
      "startTime": 14.847916666666666,
      "duration": 0.1999999999999993,
      "endTime": 15.047916666666666
    },
    {
      "instrumentId": 0,
      "instrumentName": "Yamaha Grand Piano",
      "isPercussion": false,
      "pitch": 99,
      "velocity": 101,
      "startTime": 15.123958333333333,
      "duration": 0.16458333333333464,
      "endTime": 15.288541666666667
    },
    {
      "instrumentId": 0,
      "instrumentName": "Yamaha Grand Piano",
      "isPercussion": false,
      "pitch": 96,
      "velocity": 104,
      "startTime": 15.389583333333333,
      "duration": 0.30416666666666714,
      "endTime": 15.69375
    },
    {
      "instrumentId": 0,
      "instrumentName": "Yamaha Grand Piano",
      "isPercussion": false,
      "pitch": 65,
      "velocity": 56,
      "startTime": 15.679166666666667,
      "duration": 1.5708333333333329,
      "endTime": 17.25
    },
    {
      "instrumentId": 0,
      "instrumentName": "Yamaha Grand Piano",
      "isPercussion": false,
      "pitch": 72,
      "velocity": 64,
      "startTime": 15.679166666666667,
      "duration": 1.5854166666666671,
      "endTime": 17.264583333333334
    },
    {
      "instrumentId": 0,
      "instrumentName": "Yamaha Grand Piano",
      "isPercussion": false,
      "pitch": 75,
      "velocity": 36,
      "startTime": 16.622916666666665,
      "duration": 0.5854166666666671,
      "endTime": 17.208333333333332
    },
    {
      "instrumentId": 0,
      "instrumentName": "Yamaha Grand Piano",
      "isPercussion": false,
      "pitch": 82,
      "velocity": 76,
      "startTime": 16.623958333333334,
      "duration": 0.669791666666665,
      "endTime": 17.29375
    },
    {
      "instrumentId": 0,
      "instrumentName": "Yamaha Grand Piano",
      "isPercussion": false,
      "pitch": 80,
      "velocity": 68,
      "startTime": 18.307291666666668,
      "duration": 0.23854166666666643,
      "endTime": 18.545833333333334
    },
    {
      "instrumentId": 0,
      "instrumentName": "Yamaha Grand Piano",
      "isPercussion": false,
      "pitch": 79,
      "velocity": 55,
      "startTime": 18.857291666666665,
      "duration": 1.8093750000000028,
      "endTime": 20.666666666666668
    },
    {
      "instrumentId": 0,
      "instrumentName": "Yamaha Grand Piano",
      "isPercussion": false,
      "pitch": 76,
      "velocity": 40,
      "startTime": 18.863541666666666,
      "duration": 0.8895833333333343,
      "endTime": 19.753125
    },
    {
      "instrumentId": 0,
      "instrumentName": "Yamaha Grand Piano",
      "isPercussion": false,
      "pitch": 60,
      "velocity": 37,
      "startTime": 18.865625,
      "duration": 1.8510416666666636,
      "endTime": 20.716666666666665
    },
    {
      "instrumentId": 0,
      "instrumentName": "Yamaha Grand Piano",
      "isPercussion": false,
      "pitch": 70,
      "velocity": 22,
      "startTime": 18.872916666666665,
      "duration": 2.0291666666666686,
      "endTime": 20.902083333333334
    },
    {
      "instrumentId": 0,
      "instrumentName": "Yamaha Grand Piano",
      "isPercussion": false,
      "pitch": 72,
      "velocity": 39,
      "startTime": 19.722916666666666,
      "duration": 0.283333333333335,
      "endTime": 20.00625
    },
    {
      "instrumentId": 0,
      "instrumentName": "Yamaha Grand Piano",
      "isPercussion": false,
      "pitch": 73,
      "velocity": 46,
      "startTime": 20.005208333333332,
      "duration": 0.3000000000000007,
      "endTime": 20.305208333333333
    },
    {
      "instrumentId": 0,
      "instrumentName": "Yamaha Grand Piano",
      "isPercussion": false,
      "pitch": 72,
      "velocity": 48,
      "startTime": 20.288541666666667,
      "duration": 0.27291666666666714,
      "endTime": 20.561458333333334
    },
    {
      "instrumentId": 0,
      "instrumentName": "Yamaha Grand Piano",
      "isPercussion": false,
      "pitch": 65,
      "velocity": 44,
      "startTime": 22.089583333333334,
      "duration": 1.6906250000000007,
      "endTime": 23.780208333333334
    },
    {
      "instrumentId": 0,
      "instrumentName": "Yamaha Grand Piano",
      "isPercussion": false,
      "pitch": 89,
      "velocity": 87,
      "startTime": 22.090625,
      "duration": 3.3239583333333336,
      "endTime": 25.414583333333333
    },
    {
      "instrumentId": 0,
      "instrumentName": "Yamaha Grand Piano",
      "isPercussion": false,
      "pitch": 80,
      "velocity": 64,
      "startTime": 22.096875,
      "duration": 0.9385416666666657,
      "endTime": 23.035416666666666
    },
    {
      "instrumentId": 0,
      "instrumentName": "Yamaha Grand Piano",
      "isPercussion": false,
      "pitch": 72,
      "velocity": 63,
      "startTime": 22.098958333333332,
      "duration": 1.8510416666666671,
      "endTime": 23.95
    },
    {
      "instrumentId": 0,
      "instrumentName": "Yamaha Grand Piano",
      "isPercussion": false,
      "pitch": 84,
      "velocity": 68,
      "startTime": 23.001041666666666,
      "duration": 2.5124999999999993,
      "endTime": 25.513541666666665
    },
    {
      "instrumentId": 0,
      "instrumentName": "Yamaha Grand Piano",
      "isPercussion": false,
      "pitch": 75,
      "velocity": 50,
      "startTime": 23.008333333333333,
      "duration": 0.8979166666666671,
      "endTime": 23.90625
    },
    {
      "instrumentId": 0,
      "instrumentName": "Yamaha Grand Piano",
      "isPercussion": false,
      "pitch": 70,
      "velocity": 43,
      "startTime": 24.440625,
      "duration": 1.1416666666666657,
      "endTime": 25.582291666666666
    },
    {
      "instrumentId": 0,
      "instrumentName": "Yamaha Grand Piano",
      "isPercussion": false,
      "pitch": 72,
      "velocity": 50,
      "startTime": 24.707291666666666,
      "duration": 0.4968749999999993,
      "endTime": 25.204166666666666
    },
    {
      "instrumentId": 0,
      "instrumentName": "Yamaha Grand Piano",
      "isPercussion": false,
      "pitch": 73,
      "velocity": 42,
      "startTime": 24.972916666666666,
      "duration": 0.17083333333333428,
      "endTime": 25.14375
    },
    {
      "instrumentId": 0,
      "instrumentName": "Yamaha Grand Piano",
      "isPercussion": false,
      "pitch": 75,
      "velocity": 56,
      "startTime": 25.214583333333334,
      "duration": 0.33541666666666714,
      "endTime": 25.55
    },
    {
      "instrumentId": 0,
      "instrumentName": "Yamaha Grand Piano",
      "isPercussion": false,
      "pitch": 72,
      "velocity": 87,
      "startTime": 25.482291666666665,
      "duration": 0.8489583333333357,
      "endTime": 26.33125
    },
    {
      "instrumentId": 0,
      "instrumentName": "Yamaha Grand Piano",
      "isPercussion": false,
      "pitch": 89,
      "velocity": 75,
      "startTime": 26.034375,
      "duration": 0.3249999999999993,
      "endTime": 26.359375
    },
    {
      "instrumentId": 0,
      "instrumentName": "Yamaha Grand Piano",
      "isPercussion": false,
      "pitch": 84,
      "velocity": 52,
      "startTime": 26.321875,
      "duration": 0.2156249999999993,
      "endTime": 26.537499999999998
    },
    {
      "instrumentId": 0,
      "instrumentName": "Yamaha Grand Piano",
      "isPercussion": false,
      "pitch": 89,
      "velocity": 79,
      "startTime": 26.559375,
      "duration": 0.11874999999999858,
      "endTime": 26.678124999999998
    },
    {
      "instrumentId": 0,
      "instrumentName": "Yamaha Grand Piano",
      "isPercussion": false,
      "pitch": 79,
      "velocity": 58,
      "startTime": 26.842708333333334,
      "duration": 1.0635416666666657,
      "endTime": 27.90625
    },
    {
      "instrumentId": 0,
      "instrumentName": "Yamaha Grand Piano",
      "isPercussion": false,
      "pitch": 82,
      "velocity": 72,
      "startTime": 26.844791666666666,
      "duration": 0.7552083333333321,
      "endTime": 27.599999999999998
    },
    {
      "instrumentId": 0,
      "instrumentName": "Yamaha Grand Piano",
      "isPercussion": false,
      "pitch": 75,
      "velocity": 55,
      "startTime": 26.844791666666666,
      "duration": 1.2125000000000021,
      "endTime": 28.057291666666668
    },
    {
      "instrumentId": 0,
      "instrumentName": "Yamaha Grand Piano",
      "isPercussion": false,
      "pitch": 91,
      "velocity": 97,
      "startTime": 26.847916666666666,
      "duration": 0.49166666666666714,
      "endTime": 27.339583333333334
    },
    {
      "instrumentId": 0,
      "instrumentName": "Yamaha Grand Piano",
      "isPercussion": false,
      "pitch": 92,
      "velocity": 69,
      "startTime": 27.3625,
      "duration": 0.22499999999999787,
      "endTime": 27.5875
    },
    {
      "instrumentId": 0,
      "instrumentName": "Yamaha Grand Piano",
      "isPercussion": false,
      "pitch": 91,
      "velocity": 86,
      "startTime": 27.634375,
      "duration": 0.21354166666666785,
      "endTime": 27.847916666666666
    },
    {
      "instrumentId": 0,
      "instrumentName": "Yamaha Grand Piano",
      "isPercussion": false,
      "pitch": 84,
      "velocity": 96,
      "startTime": 28.180208333333333,
      "duration": 1.7614583333333336,
      "endTime": 29.941666666666666
    },
    {
      "instrumentId": 0,
      "instrumentName": "Yamaha Grand Piano",
      "isPercussion": false,
      "pitch": 70,
      "velocity": 62,
      "startTime": 28.711458333333333,
      "duration": 1.127083333333335,
      "endTime": 29.838541666666668
    },
    {
      "instrumentId": 0,
      "instrumentName": "Yamaha Grand Piano",
      "isPercussion": false,
      "pitch": 72,
      "velocity": 73,
      "startTime": 28.973958333333332,
      "duration": 0.47708333333333286,
      "endTime": 29.451041666666665
    },
    {
      "instrumentId": 0,
      "instrumentName": "Yamaha Grand Piano",
      "isPercussion": false,
      "pitch": 73,
      "velocity": 72,
      "startTime": 29.251041666666666,
      "duration": 0.16145833333333215,
      "endTime": 29.412499999999998
    },
    {
      "instrumentId": 0,
      "instrumentName": "Yamaha Grand Piano",
      "isPercussion": false,
      "pitch": 75,
      "velocity": 78,
      "startTime": 29.498958333333334,
      "duration": 0.296875,
      "endTime": 29.795833333333334
    },
    {
      "instrumentId": 0,
      "instrumentName": "Yamaha Grand Piano",
      "isPercussion": false,
      "pitch": 72,
      "velocity": 91,
      "startTime": 29.754166666666666,
      "duration": 1.2885416666666671,
      "endTime": 31.042708333333334
    },
    {
      "instrumentId": 0,
      "instrumentName": "Yamaha Grand Piano",
      "isPercussion": false,
      "pitch": 84,
      "velocity": 91,
      "startTime": 30.555208333333333,
      "duration": 0.28645833333333215,
      "endTime": 30.841666666666665
    },
    {
      "instrumentId": 0,
      "instrumentName": "Yamaha Grand Piano",
      "isPercussion": false,
      "pitch": 91,
      "velocity": 111,
      "startTime": 30.825,
      "duration": 0.2979166666666657,
      "endTime": 31.122916666666665
    },
    {
      "instrumentId": 0,
      "instrumentName": "Yamaha Grand Piano",
      "isPercussion": false,
      "pitch": 92,
      "velocity": 96,
      "startTime": 31.089583333333334,
      "duration": 0.1687499999999993,
      "endTime": 31.258333333333333
    },
    {
      "instrumentId": 0,
      "instrumentName": "Yamaha Grand Piano",
      "isPercussion": false,
      "pitch": 68,
      "velocity": 39,
      "startTime": 31.264583333333334,
      "duration": 1.9343749999999957,
      "endTime": 33.19895833333333
    },
    {
      "instrumentId": 0,
      "instrumentName": "Yamaha Grand Piano",
      "isPercussion": false,
      "pitch": 73,
      "velocity": 43,
      "startTime": 31.33125,
      "duration": 0.9677083333333307,
      "endTime": 32.29895833333333
    },
    {
      "instrumentId": 0,
      "instrumentName": "Yamaha Grand Piano",
      "isPercussion": false,
      "pitch": 77,
      "velocity": 56,
      "startTime": 31.35625,
      "duration": 1.8197916666666636,
      "endTime": 33.17604166666666
    },
    {
      "instrumentId": 0,
      "instrumentName": "Yamaha Grand Piano",
      "isPercussion": false,
      "pitch": 94,
      "velocity": 105,
      "startTime": 31.414583333333333,
      "duration": 1.0447916666666686,
      "endTime": 32.459375
    },
    {
      "instrumentId": 0,
      "instrumentName": "Yamaha Grand Piano",
      "isPercussion": false,
      "pitch": 84,
      "velocity": 80,
      "startTime": 31.420833333333334,
      "duration": 1.4041666666666686,
      "endTime": 32.825
    },
    {
      "instrumentId": 0,
      "instrumentName": "Yamaha Grand Piano",
      "isPercussion": false,
      "pitch": 75,
      "velocity": 57,
      "startTime": 32.29895833333333,
      "duration": 0.8677083333333329,
      "endTime": 33.166666666666664
    },
    {
      "instrumentId": 0,
      "instrumentName": "Yamaha Grand Piano",
      "isPercussion": false,
      "pitch": 96,
      "velocity": 94,
      "startTime": 32.84166666666667,
      "duration": 0.3135416666666657,
      "endTime": 33.155208333333334
    },
    {
      "instrumentId": 0,
      "instrumentName": "Yamaha Grand Piano",
      "isPercussion": false,
      "pitch": 92,
      "velocity": 95,
      "startTime": 33.11666666666667,
      "duration": 0.1979166666666643,
      "endTime": 33.31458333333333
    },
    {
      "instrumentId": 0,
      "instrumentName": "Yamaha Grand Piano",
      "isPercussion": false,
      "pitch": 73,
      "velocity": 59,
      "startTime": 33.12291666666667,
      "duration": 0.14374999999999716,
      "endTime": 33.266666666666666
    },
    {
      "instrumentId": 0,
      "instrumentName": "Yamaha Grand Piano",
      "isPercussion": false,
      "pitch": 91,
      "velocity": 105,
      "startTime": 33.380208333333336,
      "duration": 0.40312499999999574,
      "endTime": 33.78333333333333
    },
    {
      "instrumentId": 0,
      "instrumentName": "Yamaha Grand Piano",
      "isPercussion": false,
      "pitch": 63,
      "velocity": 60,
      "startTime": 33.665625,
      "duration": 2.2604166666666643,
      "endTime": 35.92604166666666
    },
    {
      "instrumentId": 0,
      "instrumentName": "Yamaha Grand Piano",
      "isPercussion": false,
      "pitch": 70,
      "velocity": 35,
      "startTime": 33.946875,
      "duration": 2.075000000000003,
      "endTime": 36.021875
    },
    {
      "instrumentId": 0,
      "instrumentName": "Yamaha Grand Piano",
      "isPercussion": false,
      "pitch": 72,
      "velocity": 44,
      "startTime": 34.203125,
      "duration": 1.96458333333333,
      "endTime": 36.16770833333333
    },
    {
      "instrumentId": 0,
      "instrumentName": "Yamaha Grand Piano",
      "isPercussion": false,
      "pitch": 87,
      "velocity": 80,
      "startTime": 34.48020833333333,
      "duration": 0.5885416666666714,
      "endTime": 35.06875
    },
    {
      "instrumentId": 0,
      "instrumentName": "Yamaha Grand Piano",
      "isPercussion": false,
      "pitch": 79,
      "velocity": 73,
      "startTime": 34.485416666666666,
      "duration": 0.5187499999999972,
      "endTime": 35.00416666666666
    },
    {
      "instrumentId": 0,
      "instrumentName": "Yamaha Grand Piano",
      "isPercussion": false,
      "pitch": 89,
      "velocity": 58,
      "startTime": 35.64375,
      "duration": 0.25208333333333854,
      "endTime": 35.895833333333336
    },
    {
      "instrumentId": 0,
      "instrumentName": "Yamaha Grand Piano",
      "isPercussion": false,
      "pitch": 91,
      "velocity": 83,
      "startTime": 35.925,
      "duration": 0.25416666666667,
      "endTime": 36.17916666666667
    },
    {
      "instrumentId": 0,
      "instrumentName": "Yamaha Grand Piano",
      "isPercussion": false,
      "pitch": 89,
      "velocity": 90,
      "startTime": 36.18125,
      "duration": 0.27395833333333286,
      "endTime": 36.45520833333333
    },
    {
      "instrumentId": 0,
      "instrumentName": "Yamaha Grand Piano",
      "isPercussion": false,
      "pitch": 65,
      "velocity": 44,
      "startTime": 36.459375,
      "duration": 2.5645833333333314,
      "endTime": 39.02395833333333
    },
    {
      "instrumentId": 0,
      "instrumentName": "Yamaha Grand Piano",
      "isPercussion": false,
      "pitch": 80,
      "velocity": 53,
      "startTime": 37.36770833333333,
      "duration": 0.7875000000000014,
      "endTime": 38.155208333333334
    },
    {
      "instrumentId": 0,
      "instrumentName": "Yamaha Grand Piano",
      "isPercussion": false,
      "pitch": 75,
      "velocity": 27,
      "startTime": 37.369791666666664,
      "duration": 0.6822916666666714,
      "endTime": 38.052083333333336
    },
    {
      "instrumentId": 0,
      "instrumentName": "Yamaha Grand Piano",
      "isPercussion": false,
      "pitch": 72,
      "velocity": 43,
      "startTime": 37.37916666666666,
      "duration": 0.8447916666666728,
      "endTime": 38.223958333333336
    },
    {
      "instrumentId": 0,
      "instrumentName": "Yamaha Grand Piano",
      "isPercussion": false,
      "pitch": 73,
      "velocity": 44,
      "startTime": 38.61354166666666,
      "duration": 0.8114583333333343,
      "endTime": 39.425
    },
    {
      "instrumentId": 0,
      "instrumentName": "Yamaha Grand Piano",
      "isPercussion": false,
      "pitch": 79,
      "velocity": 82,
      "startTime": 38.62083333333333,
      "duration": 0.5250000000000057,
      "endTime": 39.145833333333336
    },
    {
      "instrumentId": 0,
      "instrumentName": "Yamaha Grand Piano",
      "isPercussion": false,
      "pitch": 75,
      "velocity": 63,
      "startTime": 39.13645833333333,
      "duration": 0.6833333333333371,
      "endTime": 39.81979166666667
    },
    {
      "instrumentId": 0,
      "instrumentName": "Yamaha Grand Piano",
      "isPercussion": false,
      "pitch": 67,
      "velocity": 32,
      "startTime": 39.171875,
      "duration": 0.3291666666666657,
      "endTime": 39.501041666666666
    },
    {
      "instrumentId": 0,
      "instrumentName": "Yamaha Grand Piano",
      "isPercussion": false,
      "pitch": 63,
      "velocity": 22,
      "startTime": 40.08125,
      "duration": 2.5958333333333385,
      "endTime": 42.677083333333336
    },
    {
      "instrumentId": 0,
      "instrumentName": "Yamaha Grand Piano",
      "isPercussion": false,
      "pitch": 65,
      "velocity": 35,
      "startTime": 40.14270833333333,
      "duration": 2.4864583333333314,
      "endTime": 42.62916666666666
    },
    {
      "instrumentId": 0,
      "instrumentName": "Yamaha Grand Piano",
      "isPercussion": false,
      "pitch": 69,
      "velocity": 33,
      "startTime": 40.17604166666666,
      "duration": 2.339583333333337,
      "endTime": 42.515625
    },
    {
      "instrumentId": 0,
      "instrumentName": "Yamaha Grand Piano",
      "isPercussion": false,
      "pitch": 72,
      "velocity": 86,
      "startTime": 40.259375,
      "duration": 2.4281250000000014,
      "endTime": 42.6875
    },
    {
      "instrumentId": 0,
      "instrumentName": "Yamaha Grand Piano",
      "isPercussion": false,
      "pitch": 79,
      "velocity": 94,
      "startTime": 44.4375,
      "duration": 0.08229166666666288,
      "endTime": 44.51979166666666
    },
    {
      "instrumentId": 0,
      "instrumentName": "Yamaha Grand Piano",
      "isPercussion": false,
      "pitch": 81,
      "velocity": 93,
      "startTime": 44.49270833333333,
      "duration": 0.5687500000000014,
      "endTime": 45.061458333333334
    },
    {
      "instrumentId": 0,
      "instrumentName": "Yamaha Grand Piano",
      "isPercussion": false,
      "pitch": 82,
      "velocity": 113,
      "startTime": 44.985416666666666,
      "duration": 0.21041666666666714,
      "endTime": 45.19583333333333
    },
    {
      "instrumentId": 0,
      "instrumentName": "Yamaha Grand Piano",
      "isPercussion": false,
      "pitch": 61,
      "velocity": 30,
      "startTime": 45.346875,
      "duration": 1.7552083333333357,
      "endTime": 47.10208333333333
    },
    {
      "instrumentId": 0,
      "instrumentName": "Yamaha Grand Piano",
      "isPercussion": false,
      "pitch": 65,
      "velocity": 47,
      "startTime": 45.396875,
      "duration": 1.671875,
      "endTime": 47.06875
    },
    {
      "instrumentId": 0,
      "instrumentName": "Yamaha Grand Piano",
      "isPercussion": false,
      "pitch": 68,
      "velocity": 43,
      "startTime": 45.44479166666667,
      "duration": 1.6885416666666657,
      "endTime": 47.13333333333333
    },
    {
      "instrumentId": 0,
      "instrumentName": "Yamaha Grand Piano",
      "isPercussion": false,
      "pitch": 77,
      "velocity": 88,
      "startTime": 45.50729166666667,
      "duration": 0.9635416666666643,
      "endTime": 46.47083333333333
    },
    {
      "instrumentId": 0,
      "instrumentName": "Yamaha Grand Piano",
      "isPercussion": false,
      "pitch": 84,
      "velocity": 101,
      "startTime": 45.509375,
      "duration": 0.9135416666666671,
      "endTime": 46.422916666666666
    },
    {
      "instrumentId": 0,
      "instrumentName": "Yamaha Grand Piano",
      "isPercussion": false,
      "pitch": 82,
      "velocity": 103,
      "startTime": 46.33645833333333,
      "duration": 0.35208333333333286,
      "endTime": 46.688541666666666
    },
    {
      "instrumentId": 0,
      "instrumentName": "Yamaha Grand Piano",
      "isPercussion": false,
      "pitch": 87,
      "velocity": 102,
      "startTime": 47.221875,
      "duration": 0.21770833333333428,
      "endTime": 47.43958333333333
    },
    {
      "instrumentId": 0,
      "instrumentName": "Yamaha Grand Piano",
      "isPercussion": false,
      "pitch": 63,
      "velocity": 22,
      "startTime": 47.598958333333336,
      "duration": 1.6875,
      "endTime": 49.286458333333336
    },
    {
      "instrumentId": 0,
      "instrumentName": "Yamaha Grand Piano",
      "isPercussion": false,
      "pitch": 67,
      "velocity": 32,
      "startTime": 47.655208333333334,
      "duration": 1.5697916666666671,
      "endTime": 49.225
    },
    {
      "instrumentId": 0,
      "instrumentName": "Yamaha Grand Piano",
      "isPercussion": false,
      "pitch": 72,
      "velocity": 49,
      "startTime": 47.66770833333333,
      "duration": 1.4208333333333343,
      "endTime": 49.088541666666664
    },
    {
      "instrumentId": 0,
      "instrumentName": "Yamaha Grand Piano",
      "isPercussion": false,
      "pitch": 84,
      "velocity": 87,
      "startTime": 47.735416666666666,
      "duration": 0.9760416666666671,
      "endTime": 48.71145833333333
    },
    {
      "instrumentId": 0,
      "instrumentName": "Yamaha Grand Piano",
      "isPercussion": false,
      "pitch": 79,
      "velocity": 77,
      "startTime": 47.74270833333333,
      "duration": 1.3458333333333314,
      "endTime": 49.088541666666664
    },
    {
      "instrumentId": 0,
      "instrumentName": "Yamaha Grand Piano",
      "isPercussion": false,
      "pitch": 82,
      "velocity": 85,
      "startTime": 48.547916666666666,
      "duration": 0.4750000000000014,
      "endTime": 49.02291666666667
    },
    {
      "instrumentId": 0,
      "instrumentName": "Yamaha Grand Piano",
      "isPercussion": false,
      "pitch": 79,
      "velocity": 91,
      "startTime": 49.60625,
      "duration": 0.27291666666666003,
      "endTime": 49.87916666666666
    },
    {
      "instrumentId": 0,
      "instrumentName": "Yamaha Grand Piano",
      "isPercussion": false,
      "pitch": 80,
      "velocity": 78,
      "startTime": 49.85104166666667,
      "duration": 0.2666666666666657,
      "endTime": 50.11770833333333
    },
    {
      "instrumentId": 0,
      "instrumentName": "Yamaha Grand Piano",
      "isPercussion": false,
      "pitch": 60,
      "velocity": 34,
      "startTime": 50.02395833333333,
      "duration": 1.3947916666666629,
      "endTime": 51.418749999999996
    },
    {
      "instrumentId": 0,
      "instrumentName": "Yamaha Grand Piano",
      "isPercussion": false,
      "pitch": 63,
      "velocity": 37,
      "startTime": 50.05104166666666,
      "duration": 1.3187500000000014,
      "endTime": 51.369791666666664
    },
    {
      "instrumentId": 0,
      "instrumentName": "Yamaha Grand Piano",
      "isPercussion": false,
      "pitch": 67,
      "velocity": 62,
      "startTime": 50.084375,
      "duration": 1.2979166666666657,
      "endTime": 51.38229166666667
    },
    {
      "instrumentId": 0,
      "instrumentName": "Yamaha Grand Piano",
      "isPercussion": false,
      "pitch": 82,
      "velocity": 94,
      "startTime": 50.14791666666667,
      "duration": 0.7885416666666671,
      "endTime": 50.936458333333334
    },
    {
      "instrumentId": 0,
      "instrumentName": "Yamaha Grand Piano",
      "isPercussion": false,
      "pitch": 75,
      "velocity": 78,
      "startTime": 50.15416666666667,
      "duration": 1.52708333333333,
      "endTime": 51.68125
    },
    {
      "instrumentId": 0,
      "instrumentName": "Yamaha Grand Piano",
      "isPercussion": false,
      "pitch": 80,
      "velocity": 88,
      "startTime": 50.91041666666666,
      "duration": 0.6270833333333385,
      "endTime": 51.5375
    },
    {
      "instrumentId": 0,
      "instrumentName": "Yamaha Grand Piano",
      "isPercussion": false,
      "pitch": 87,
      "velocity": 96,
      "startTime": 51.70520833333333,
      "duration": 0.17812500000000142,
      "endTime": 51.88333333333333
    },
    {
      "instrumentId": 0,
      "instrumentName": "Yamaha Grand Piano",
      "isPercussion": false,
      "pitch": 65,
      "velocity": 29,
      "startTime": 52.0625,
      "duration": 0.4010416666666643,
      "endTime": 52.463541666666664
    },
    {
      "instrumentId": 0,
      "instrumentName": "Yamaha Grand Piano",
      "isPercussion": false,
      "pitch": 68,
      "velocity": 24,
      "startTime": 52.115625,
      "duration": 0.33124999999999716,
      "endTime": 52.446875
    },
    {
      "instrumentId": 0,
      "instrumentName": "Yamaha Grand Piano",
      "isPercussion": false,
      "pitch": 72,
      "velocity": 44,
      "startTime": 52.15625,
      "duration": 0.2593749999999986,
      "endTime": 52.415625
    },
    {
      "instrumentId": 0,
      "instrumentName": "Yamaha Grand Piano",
      "isPercussion": false,
      "pitch": 75,
      "velocity": 63,
      "startTime": 52.21041666666667,
      "duration": 0.3166666666666629,
      "endTime": 52.52708333333333
    },
    {
      "instrumentId": 0,
      "instrumentName": "Yamaha Grand Piano",
      "isPercussion": false,
      "pitch": 79,
      "velocity": 86,
      "startTime": 52.215624999999996,
      "duration": 0.2875000000000014,
      "endTime": 52.503125
    },
    {
      "instrumentId": 0,
      "instrumentName": "Yamaha Grand Piano",
      "isPercussion": false,
      "pitch": 65,
      "velocity": 68,
      "startTime": 53.015625,
      "duration": 1.2447916666666643,
      "endTime": 54.260416666666664
    },
    {
      "instrumentId": 0,
      "instrumentName": "Yamaha Grand Piano",
      "isPercussion": false,
      "pitch": 80,
      "velocity": 77,
      "startTime": 53.015625,
      "duration": 1.3093749999999957,
      "endTime": 54.324999999999996
    },
    {
      "instrumentId": 0,
      "instrumentName": "Yamaha Grand Piano",
      "isPercussion": false,
      "pitch": 75,
      "velocity": 59,
      "startTime": 53.020833333333336,
      "duration": 1.3218749999999986,
      "endTime": 54.342708333333334
    },
    {
      "instrumentId": 0,
      "instrumentName": "Yamaha Grand Piano",
      "isPercussion": false,
      "pitch": 60,
      "velocity": 34,
      "startTime": 53.02395833333333,
      "duration": 1.2000000000000028,
      "endTime": 54.223958333333336
    },
    {
      "instrumentId": 0,
      "instrumentName": "Yamaha Grand Piano",
      "isPercussion": false,
      "pitch": 61,
      "velocity": 32,
      "startTime": 54.921875,
      "duration": 1.8406249999999957,
      "endTime": 56.762499999999996
    },
    {
      "instrumentId": 0,
      "instrumentName": "Yamaha Grand Piano",
      "isPercussion": false,
      "pitch": 65,
      "velocity": 57,
      "startTime": 54.981249999999996,
      "duration": 1.7906250000000057,
      "endTime": 56.771875
    },
    {
      "instrumentId": 0,
      "instrumentName": "Yamaha Grand Piano",
      "isPercussion": false,
      "pitch": 68,
      "velocity": 57,
      "startTime": 55.00729166666667,
      "duration": 1.859375,
      "endTime": 56.86666666666667
    },
    {
      "instrumentId": 0,
      "instrumentName": "Yamaha Grand Piano",
      "isPercussion": false,
      "pitch": 79,
      "velocity": 71,
      "startTime": 55.084375,
      "duration": 1.0385416666666671,
      "endTime": 56.12291666666667
    },
    {
      "instrumentId": 0,
      "instrumentName": "Yamaha Grand Piano",
      "isPercussion": false,
      "pitch": 84,
      "velocity": 84,
      "startTime": 55.094791666666666,
      "duration": 0.8260416666666686,
      "endTime": 55.920833333333334
    },
    {
      "instrumentId": 0,
      "instrumentName": "Yamaha Grand Piano",
      "isPercussion": false,
      "pitch": 82,
      "velocity": 109,
      "startTime": 55.86770833333333,
      "duration": 0.33645833333333286,
      "endTime": 56.204166666666666
    },
    {
      "instrumentId": 0,
      "instrumentName": "Yamaha Grand Piano",
      "isPercussion": false,
      "pitch": 87,
      "velocity": 98,
      "startTime": 56.755208333333336,
      "duration": 0.19999999999999574,
      "endTime": 56.95520833333333
    },
    {
      "instrumentId": 0,
      "instrumentName": "Yamaha Grand Piano",
      "isPercussion": false,
      "pitch": 63,
      "velocity": 28,
      "startTime": 57.1125,
      "duration": 1.78125,
      "endTime": 58.89375
    },
    {
      "instrumentId": 0,
      "instrumentName": "Yamaha Grand Piano",
      "isPercussion": false,
      "pitch": 67,
      "velocity": 46,
      "startTime": 57.16041666666666,
      "duration": 1.7197916666666728,
      "endTime": 58.880208333333336
    },
    {
      "instrumentId": 0,
      "instrumentName": "Yamaha Grand Piano",
      "isPercussion": false,
      "pitch": 70,
      "velocity": 44,
      "startTime": 57.192708333333336,
      "duration": 1.6999999999999957,
      "endTime": 58.89270833333333
    },
    {
      "instrumentId": 0,
      "instrumentName": "Yamaha Grand Piano",
      "isPercussion": false,
      "pitch": 89,
      "velocity": 105,
      "startTime": 57.271875,
      "duration": 0.8635416666666629,
      "endTime": 58.135416666666664
    },
    {
      "instrumentId": 0,
      "instrumentName": "Yamaha Grand Piano",
      "isPercussion": false,
      "pitch": 78,
      "velocity": 90,
      "startTime": 57.271875,
      "duration": 0.9166666666666643,
      "endTime": 58.188541666666666
    },
    {
      "instrumentId": 0,
      "instrumentName": "Yamaha Grand Piano",
      "isPercussion": false,
      "pitch": 87,
      "velocity": 95,
      "startTime": 58.074999999999996,
      "duration": 0.30520833333333997,
      "endTime": 58.380208333333336
    },
    {
      "instrumentId": 0,
      "instrumentName": "Yamaha Grand Piano",
      "isPercussion": false,
      "pitch": 92,
      "velocity": 96,
      "startTime": 58.65833333333333,
      "duration": 0.18333333333333712,
      "endTime": 58.84166666666667
    },
    {
      "instrumentId": 0,
      "instrumentName": "Yamaha Grand Piano",
      "isPercussion": false,
      "pitch": 91,
      "velocity": 102,
      "startTime": 58.916666666666664,
      "duration": 0.22083333333333144,
      "endTime": 59.137499999999996
    },
    {
      "instrumentId": 0,
      "instrumentName": "Yamaha Grand Piano",
      "isPercussion": false,
      "pitch": 84,
      "velocity": 105,
      "startTime": 59.17604166666666,
      "duration": 0.21145833333333286,
      "endTime": 59.387499999999996
    },
    {
      "instrumentId": 0,
      "instrumentName": "Yamaha Grand Piano",
      "isPercussion": false,
      "pitch": 65,
      "velocity": 65,
      "startTime": 59.4125,
      "duration": 2.1656249999999986,
      "endTime": 61.578125
    },
    {
      "instrumentId": 0,
      "instrumentName": "Yamaha Grand Piano",
      "isPercussion": false,
      "pitch": 60,
      "velocity": 48,
      "startTime": 59.41770833333333,
      "duration": 2.1552083333333343,
      "endTime": 61.572916666666664
    },
    {
      "instrumentId": 0,
      "instrumentName": "Yamaha Grand Piano",
      "isPercussion": false,
      "pitch": 67,
      "velocity": 44,
      "startTime": 59.6875,
      "duration": 0.2645833333333343,
      "endTime": 59.952083333333334
    },
    {
      "instrumentId": 0,
      "instrumentName": "Yamaha Grand Piano",
      "isPercussion": false,
      "pitch": 68,
      "velocity": 37,
      "startTime": 59.94583333333333,
      "duration": 0.2979166666666657,
      "endTime": 60.24375
    },
    {
      "instrumentId": 0,
      "instrumentName": "Yamaha Grand Piano",
      "isPercussion": false,
      "pitch": 75,
      "velocity": 72,
      "startTime": 60.20729166666666,
      "duration": 1.6302083333333357,
      "endTime": 61.8375
    },
    {
      "instrumentId": 0,
      "instrumentName": "Yamaha Grand Piano",
      "isPercussion": false,
      "pitch": 60,
      "velocity": 60,
      "startTime": 61.918749999999996,
      "duration": 1.6895833333333385,
      "endTime": 63.608333333333334
    },
    {
      "instrumentId": 0,
      "instrumentName": "Yamaha Grand Piano",
      "isPercussion": false,
      "pitch": 65,
      "velocity": 60,
      "startTime": 61.994791666666664,
      "duration": 1.5916666666666686,
      "endTime": 63.58645833333333
    },
    {
      "instrumentId": 0,
      "instrumentName": "Yamaha Grand Piano",
      "isPercussion": false,
      "pitch": 67,
      "velocity": 104,
      "startTime": 62.06979166666667,
      "duration": 1.3812500000000014,
      "endTime": 63.45104166666667
    },
    {
      "instrumentId": 0,
      "instrumentName": "Yamaha Grand Piano",
      "isPercussion": false,
      "pitch": 70,
      "velocity": 85,
      "startTime": 62.3125,
      "duration": 0.234375,
      "endTime": 62.546875
    },
    {
      "instrumentId": 0,
      "instrumentName": "Yamaha Grand Piano",
      "isPercussion": false,
      "pitch": 72,
      "velocity": 90,
      "startTime": 62.56458333333333,
      "duration": 0.21145833333333286,
      "endTime": 62.776041666666664
    },
    {
      "instrumentId": 0,
      "instrumentName": "Yamaha Grand Piano",
      "isPercussion": false,
      "pitch": 79,
      "velocity": 118,
      "startTime": 62.815625,
      "duration": 0.5427083333333371,
      "endTime": 63.358333333333334
    },
    {
      "instrumentId": 0,
      "instrumentName": "Yamaha Grand Piano",
      "isPercussion": false,
      "pitch": 68,
      "velocity": 99,
      "startTime": 65.02083333333333,
      "duration": 0.3479166666666771,
      "endTime": 65.36875
    },
    {
      "instrumentId": 0,
      "instrumentName": "Yamaha Grand Piano",
      "isPercussion": false,
      "pitch": 70,
      "velocity": 92,
      "startTime": 65.27083333333333,
      "duration": 0.2958333333333343,
      "endTime": 65.56666666666666
    },
    {
      "instrumentId": 0,
      "instrumentName": "Yamaha Grand Piano",
      "isPercussion": false,
      "pitch": 49,
      "velocity": 92,
      "startTime": 65.51979166666666,
      "duration": 1.6281249999999972,
      "endTime": 67.14791666666666
    },
    {
      "instrumentId": 0,
      "instrumentName": "Yamaha Grand Piano",
      "isPercussion": false,
      "pitch": 72,
      "velocity": 112,
      "startTime": 65.52083333333333,
      "duration": 0.6854166666666686,
      "endTime": 66.20625
    },
    {
      "instrumentId": 0,
      "instrumentName": "Yamaha Grand Piano",
      "isPercussion": false,
      "pitch": 67,
      "velocity": 104,
      "startTime": 65.52708333333334,
      "duration": 0.42395833333333144,
      "endTime": 65.95104166666667
    },
    {
      "instrumentId": 0,
      "instrumentName": "Yamaha Grand Piano",
      "isPercussion": false,
      "pitch": 53,
      "velocity": 71,
      "startTime": 65.74583333333334,
      "duration": 1.402083333333323,
      "endTime": 67.14791666666666
    },
    {
      "instrumentId": 0,
      "instrumentName": "Yamaha Grand Piano",
      "isPercussion": false,
      "pitch": 56,
      "velocity": 86,
      "startTime": 65.99270833333333,
      "duration": 0.27916666666666856,
      "endTime": 66.271875
    },
    {
      "instrumentId": 0,
      "instrumentName": "Yamaha Grand Piano",
      "isPercussion": false,
      "pitch": 70,
      "velocity": 113,
      "startTime": 66.228125,
      "duration": 0.6677083333333229,
      "endTime": 66.89583333333333
    },
    {
      "instrumentId": 0,
      "instrumentName": "Yamaha Grand Piano",
      "isPercussion": false,
      "pitch": 65,
      "velocity": 106,
      "startTime": 66.23333333333333,
      "duration": 0.390625,
      "endTime": 66.62395833333333
    },
    {
      "instrumentId": 0,
      "instrumentName": "Yamaha Grand Piano",
      "isPercussion": false,
      "pitch": 56,
      "velocity": 76,
      "startTime": 66.72604166666666,
      "duration": 0.6739583333333456,
      "endTime": 67.4
    },
    {
      "instrumentId": 0,
      "instrumentName": "Yamaha Grand Piano",
      "isPercussion": false,
      "pitch": 75,
      "velocity": 102,
      "startTime": 66.95833333333333,
      "duration": 0.21562500000000284,
      "endTime": 67.17395833333333
    },
    {
      "instrumentId": 0,
      "instrumentName": "Yamaha Grand Piano",
      "isPercussion": false,
      "pitch": 72,
      "velocity": 117,
      "startTime": 67.43229166666667,
      "duration": 0.45520833333333144,
      "endTime": 67.8875
    },
    {
      "instrumentId": 0,
      "instrumentName": "Yamaha Grand Piano",
      "isPercussion": false,
      "pitch": 67,
      "velocity": 112,
      "startTime": 67.43541666666667,
      "duration": 0.3802083333333286,
      "endTime": 67.815625
    },
    {
      "instrumentId": 0,
      "instrumentName": "Yamaha Grand Piano",
      "isPercussion": false,
      "pitch": 51,
      "velocity": 84,
      "startTime": 67.43541666666667,
      "duration": 1.4645833333333371,
      "endTime": 68.9
    },
    {
      "instrumentId": 0,
      "instrumentName": "Yamaha Grand Piano",
      "isPercussion": false,
      "pitch": 55,
      "velocity": 84,
      "startTime": 67.89791666666666,
      "duration": 1.0114583333333371,
      "endTime": 68.909375
    },
    {
      "instrumentId": 0,
      "instrumentName": "Yamaha Grand Piano",
      "isPercussion": false,
      "pitch": 70,
      "velocity": 123,
      "startTime": 68.128125,
      "duration": 0.7208333333333314,
      "endTime": 68.84895833333333
    },
    {
      "instrumentId": 0,
      "instrumentName": "Yamaha Grand Piano",
      "isPercussion": false,
      "pitch": 63,
      "velocity": 97,
      "startTime": 68.13541666666667,
      "duration": 0.5968749999999972,
      "endTime": 68.73229166666667
    },
    {
      "instrumentId": 0,
      "instrumentName": "Yamaha Grand Piano",
      "isPercussion": false,
      "pitch": 58,
      "velocity": 96,
      "startTime": 68.603125,
      "duration": 0.3239583333333229,
      "endTime": 68.92708333333333
    },
    {
      "instrumentId": 0,
      "instrumentName": "Yamaha Grand Piano",
      "isPercussion": false,
      "pitch": 67,
      "velocity": 114,
      "startTime": 68.84479166666667,
      "duration": 0.26250000000000284,
      "endTime": 69.10729166666667
    },
    {
      "instrumentId": 0,
      "instrumentName": "Yamaha Grand Piano",
      "isPercussion": false,
      "pitch": 68,
      "velocity": 94,
      "startTime": 69.06979166666666,
      "duration": 0.2802083333333343,
      "endTime": 69.35
    },
    {
      "instrumentId": 0,
      "instrumentName": "Yamaha Grand Piano",
      "isPercussion": false,
      "pitch": 48,
      "velocity": 100,
      "startTime": 69.29583333333333,
      "duration": 1.5656249999999972,
      "endTime": 70.86145833333333
    },
    {
      "instrumentId": 0,
      "instrumentName": "Yamaha Grand Piano",
      "isPercussion": false,
      "pitch": 70,
      "velocity": 110,
      "startTime": 69.3,
      "duration": 0.41875000000000284,
      "endTime": 69.71875
    },
    {
      "instrumentId": 0,
      "instrumentName": "Yamaha Grand Piano",
      "isPercussion": false,
      "pitch": 63,
      "velocity": 104,
      "startTime": 69.303125,
      "duration": 0.27916666666666856,
      "endTime": 69.58229166666666
    },
    {
      "instrumentId": 0,
      "instrumentName": "Yamaha Grand Piano",
      "isPercussion": false,
      "pitch": 51,
      "velocity": 51,
      "startTime": 69.553125,
      "duration": 1.2531250000000114,
      "endTime": 70.80625
    },
    {
      "instrumentId": 0,
      "instrumentName": "Yamaha Grand Piano",
      "isPercussion": false,
      "pitch": 55,
      "velocity": 77,
      "startTime": 69.77916666666667,
      "duration": 0.9833333333333343,
      "endTime": 70.7625
    },
    {
      "instrumentId": 0,
      "instrumentName": "Yamaha Grand Piano",
      "isPercussion": false,
      "pitch": 68,
      "velocity": 109,
      "startTime": 70.01041666666667,
      "duration": 0.31041666666665435,
      "endTime": 70.32083333333333
    },
    {
      "instrumentId": 0,
      "instrumentName": "Yamaha Grand Piano",
      "isPercussion": false,
      "pitch": 60,
      "velocity": 113,
      "startTime": 70.0125,
      "duration": 0.1677083333333229,
      "endTime": 70.18020833333333
    },
    {
      "instrumentId": 0,
      "instrumentName": "Yamaha Grand Piano",
      "isPercussion": false,
      "pitch": 75,
      "velocity": 107,
      "startTime": 70.746875,
      "duration": 0.21145833333332575,
      "endTime": 70.95833333333333
    },
    {
      "instrumentId": 0,
      "instrumentName": "Yamaha Grand Piano",
      "isPercussion": false,
      "pitch": 53,
      "velocity": 102,
      "startTime": 71.2375,
      "duration": 0.4322916666666714,
      "endTime": 71.66979166666667
    },
    {
      "instrumentId": 0,
      "instrumentName": "Yamaha Grand Piano",
      "isPercussion": false,
      "pitch": 56,
      "velocity": 80,
      "startTime": 71.23958333333333,
      "duration": 0.36666666666667425,
      "endTime": 71.60625
    },
    {
      "instrumentId": 0,
      "instrumentName": "Yamaha Grand Piano",
      "isPercussion": false,
      "pitch": 67,
      "velocity": 106,
      "startTime": 71.24166666666666,
      "duration": 0.2697916666666771,
      "endTime": 71.51145833333334
    },
    {
      "instrumentId": 0,
      "instrumentName": "Yamaha Grand Piano",
      "isPercussion": false,
      "pitch": 63,
      "velocity": 87,
      "startTime": 71.24479166666667,
      "duration": 0.2958333333333343,
      "endTime": 71.540625
    },
    {
      "instrumentId": 0,
      "instrumentName": "Yamaha Grand Piano",
      "isPercussion": false,
      "pitch": 48,
      "velocity": 74,
      "startTime": 71.984375,
      "duration": 0.7229166666666629,
      "endTime": 72.70729166666666
    },
    {
      "instrumentId": 0,
      "instrumentName": "Yamaha Grand Piano",
      "isPercussion": false,
      "pitch": 68,
      "velocity": 98,
      "startTime": 71.98645833333333,
      "duration": 0.7750000000000057,
      "endTime": 72.76145833333334
    },
    {
      "instrumentId": 0,
      "instrumentName": "Yamaha Grand Piano",
      "isPercussion": false,
      "pitch": 63,
      "velocity": 101,
      "startTime": 71.98958333333333,
      "duration": 0.8250000000000028,
      "endTime": 72.81458333333333
    },
    {
      "instrumentId": 0,
      "instrumentName": "Yamaha Grand Piano",
      "isPercussion": false,
      "pitch": 60,
      "velocity": 98,
      "startTime": 71.99583333333334,
      "duration": 0.7114583333333258,
      "endTime": 72.70729166666666
    },
    {
      "instrumentId": 0,
      "instrumentName": "Yamaha Grand Piano",
      "isPercussion": false,
      "pitch": 58,
      "velocity": 61,
      "startTime": 73.22604166666666,
      "duration": 0.3239583333333371,
      "endTime": 73.55
    },
    {
      "instrumentId": 0,
      "instrumentName": "Yamaha Grand Piano",
      "isPercussion": false,
      "pitch": 63,
      "velocity": 62,
      "startTime": 73.30520833333333,
      "duration": 0.28125,
      "endTime": 73.58645833333333
    },
    {
      "instrumentId": 0,
      "instrumentName": "Yamaha Grand Piano",
      "isPercussion": false,
      "pitch": 42,
      "velocity": 102,
      "startTime": 73.36041666666667,
      "duration": 0.6812500000000057,
      "endTime": 74.04166666666667
    },
    {
      "instrumentId": 0,
      "instrumentName": "Yamaha Grand Piano",
      "isPercussion": false,
      "pitch": 70,
      "velocity": 107,
      "startTime": 73.36666666666666,
      "duration": 0.36250000000001137,
      "endTime": 73.72916666666667
    },
    {
      "instrumentId": 0,
      "instrumentName": "Yamaha Grand Piano",
      "isPercussion": false,
      "pitch": 49,
      "velocity": 67,
      "startTime": 73.61458333333333,
      "duration": 1.5583333333333371,
      "endTime": 75.17291666666667
    },
    {
      "instrumentId": 0,
      "instrumentName": "Yamaha Grand Piano",
      "isPercussion": false,
      "pitch": 54,
      "velocity": 70,
      "startTime": 73.83541666666666,
      "duration": 0.14895833333333997,
      "endTime": 73.984375
    },
    {
      "instrumentId": 0,
      "instrumentName": "Yamaha Grand Piano",
      "isPercussion": false,
      "pitch": 72,
      "velocity": 101,
      "startTime": 73.84375,
      "duration": 0.14270833333333144,
      "endTime": 73.98645833333333
    },
    {
      "instrumentId": 0,
      "instrumentName": "Yamaha Grand Piano",
      "isPercussion": false,
      "pitch": 73,
      "velocity": 113,
      "startTime": 74.07916666666667,
      "duration": 0.3947916666666629,
      "endTime": 74.47395833333333
    },
    {
      "instrumentId": 0,
      "instrumentName": "Yamaha Grand Piano",
      "isPercussion": false,
      "pitch": 56,
      "velocity": 64,
      "startTime": 74.08125,
      "duration": 1.1468750000000085,
      "endTime": 75.228125
    },
    {
      "instrumentId": 0,
      "instrumentName": "Yamaha Grand Piano",
      "isPercussion": false,
      "pitch": 75,
      "velocity": 103,
      "startTime": 75.20520833333333,
      "duration": 0.3395833333333371,
      "endTime": 75.54479166666667
    },
    {
      "instrumentId": 0,
      "instrumentName": "Yamaha Grand Piano",
      "isPercussion": false,
      "pitch": 53,
      "velocity": 40,
      "startTime": 75.60833333333333,
      "duration": 2.097916666666663,
      "endTime": 77.70625
    },
    {
      "instrumentId": 0,
      "instrumentName": "Yamaha Grand Piano",
      "isPercussion": false,
      "pitch": 58,
      "velocity": 63,
      "startTime": 75.66041666666666,
      "duration": 2.1166666666666742,
      "endTime": 77.77708333333334
    },
    {
      "instrumentId": 0,
      "instrumentName": "Yamaha Grand Piano",
      "isPercussion": false,
      "pitch": 77,
      "velocity": 117,
      "startTime": 75.746875,
      "duration": 0.86666666666666,
      "endTime": 76.61354166666666
    },
    {
      "instrumentId": 0,
      "instrumentName": "Yamaha Grand Piano",
      "isPercussion": false,
      "pitch": 77,
      "velocity": 94,
      "startTime": 77.12395833333333,
      "duration": 0.6958333333333258,
      "endTime": 77.81979166666666
    },
    {
      "instrumentId": 0,
      "instrumentName": "Yamaha Grand Piano",
      "isPercussion": false,
      "pitch": 82,
      "velocity": 89,
      "startTime": 77.7,
      "duration": 0.2802083333333343,
      "endTime": 77.98020833333334
    },
    {
      "instrumentId": 0,
      "instrumentName": "Yamaha Grand Piano",
      "isPercussion": false,
      "pitch": 65,
      "velocity": 40,
      "startTime": 78.26458333333333,
      "duration": 1.7541666666666629,
      "endTime": 80.01875
    },
    {
      "instrumentId": 0,
      "instrumentName": "Yamaha Grand Piano",
      "isPercussion": false,
      "pitch": 70,
      "velocity": 32,
      "startTime": 78.33020833333333,
      "duration": 1.5968749999999972,
      "endTime": 79.92708333333333
    },
    {
      "instrumentId": 0,
      "instrumentName": "Yamaha Grand Piano",
      "isPercussion": false,
      "pitch": 77,
      "velocity": 55,
      "startTime": 78.428125,
      "duration": 1.4010416666666714,
      "endTime": 79.82916666666667
    },
    {
      "instrumentId": 0,
      "instrumentName": "Yamaha Grand Piano",
      "isPercussion": false,
      "pitch": 82,
      "velocity": 85,
      "startTime": 78.43125,
      "duration": 1.46875,
      "endTime": 79.9
    },
    {
      "instrumentId": 0,
      "instrumentName": "Yamaha Grand Piano",
      "isPercussion": false,
      "pitch": 77,
      "velocity": 53,
      "startTime": 80.759375,
      "duration": 2.3927083333333314,
      "endTime": 83.15208333333334
    },
    {
      "instrumentId": 0,
      "instrumentName": "Yamaha Grand Piano",
      "isPercussion": false,
      "pitch": 81,
      "velocity": 40,
      "startTime": 80.7625,
      "duration": 2.472916666666663,
      "endTime": 83.23541666666667
    },
    {
      "instrumentId": 0,
      "instrumentName": "Yamaha Grand Piano",
      "isPercussion": false,
      "pitch": 69,
      "velocity": 29,
      "startTime": 80.76458333333333,
      "duration": 2.3458333333333314,
      "endTime": 83.11041666666667
    },
    {
      "instrumentId": 0,
      "instrumentName": "Yamaha Grand Piano",
      "isPercussion": false,
      "pitch": 72,
      "velocity": 35,
      "startTime": 80.77083333333333,
      "duration": 2.253124999999997,
      "endTime": 83.02395833333333
    },
    {
      "instrumentId": 0,
      "instrumentName": "Yamaha Grand Piano",
      "isPercussion": false,
      "pitch": 65,
      "velocity": 34,
      "startTime": 80.78333333333333,
      "duration": 2.3687500000000057,
      "endTime": 83.15208333333334
    },
    {
      "instrumentId": 0,
      "instrumentName": "Yamaha Grand Piano",
      "isPercussion": false,
      "pitch": 60,
      "velocity": 29,
      "startTime": 80.78854166666666,
      "duration": 2.2802083333333343,
      "endTime": 83.06875
    },
    {
      "instrumentId": 0,
      "instrumentName": "Yamaha Grand Piano",
      "isPercussion": false,
      "pitch": 72,
      "velocity": 83,
      "startTime": 85.70208333333333,
      "duration": 3.0104166666666714,
      "endTime": 88.7125
    },
    {
      "instrumentId": 0,
      "instrumentName": "Yamaha Grand Piano",
      "isPercussion": false,
      "pitch": 65,
      "velocity": 57,
      "startTime": 85.70520833333333,
      "duration": 3.1479166666666742,
      "endTime": 88.853125
    },
    {
      "instrumentId": 0,
      "instrumentName": "Yamaha Grand Piano",
      "isPercussion": false,
      "pitch": 89,
      "velocity": 101,
      "startTime": 85.70729166666666,
      "duration": 2.5375000000000085,
      "endTime": 88.24479166666667
    },
    {
      "instrumentId": 0,
      "instrumentName": "Yamaha Grand Piano",
      "isPercussion": false,
      "pitch": 80,
      "velocity": 72,
      "startTime": 85.71145833333333,
      "duration": 0.9750000000000085,
      "endTime": 86.68645833333333
    },
    {
      "instrumentId": 0,
      "instrumentName": "Yamaha Grand Piano",
      "isPercussion": false,
      "pitch": 84,
      "velocity": 85,
      "startTime": 86.67083333333333,
      "duration": 1.7989583333333314,
      "endTime": 88.46979166666667
    },
    {
      "instrumentId": 0,
      "instrumentName": "Yamaha Grand Piano",
      "isPercussion": false,
      "pitch": 75,
      "velocity": 60,
      "startTime": 86.68229166666667,
      "duration": 1.8114583333333343,
      "endTime": 88.49375
    },
    {
      "instrumentId": 0,
      "instrumentName": "Yamaha Grand Piano",
      "isPercussion": false,
      "pitch": 89,
      "velocity": 107,
      "startTime": 88.76875,
      "duration": 0.3010416666666629,
      "endTime": 89.06979166666666
    },
    {
      "instrumentId": 0,
      "instrumentName": "Yamaha Grand Piano",
      "isPercussion": false,
      "pitch": 84,
      "velocity": 81,
      "startTime": 89.084375,
      "duration": 0.3010416666666771,
      "endTime": 89.38541666666667
    },
    {
      "instrumentId": 0,
      "instrumentName": "Yamaha Grand Piano",
      "isPercussion": false,
      "pitch": 89,
      "velocity": 107,
      "startTime": 89.37708333333333,
      "duration": 0.11875000000000568,
      "endTime": 89.49583333333334
    },
    {
      "instrumentId": 0,
      "instrumentName": "Yamaha Grand Piano",
      "isPercussion": false,
      "pitch": 82,
      "velocity": 88,
      "startTime": 89.68958333333333,
      "duration": 0.9572916666666629,
      "endTime": 90.646875
    },
    {
      "instrumentId": 0,
      "instrumentName": "Yamaha Grand Piano",
      "isPercussion": false,
      "pitch": 91,
      "velocity": 103,
      "startTime": 89.68958333333333,
      "duration": 2.2874999999999943,
      "endTime": 91.97708333333333
    },
    {
      "instrumentId": 0,
      "instrumentName": "Yamaha Grand Piano",
      "isPercussion": false,
      "pitch": 72,
      "velocity": 76,
      "startTime": 89.69270833333333,
      "duration": 3.1552083333333343,
      "endTime": 92.84791666666666
    },
    {
      "instrumentId": 0,
      "instrumentName": "Yamaha Grand Piano",
      "isPercussion": false,
      "pitch": 67,
      "velocity": 68,
      "startTime": 89.696875,
      "duration": 2.932291666666657,
      "endTime": 92.62916666666666
    },
    {
      "instrumentId": 0,
      "instrumentName": "Yamaha Grand Piano",
      "isPercussion": false,
      "pitch": 84,
      "velocity": 85,
      "startTime": 90.62916666666666,
      "duration": 1.328125,
      "endTime": 91.95729166666666
    },
    {
      "instrumentId": 0,
      "instrumentName": "Yamaha Grand Piano",
      "isPercussion": false,
      "pitch": 75,
      "velocity": 38,
      "startTime": 90.63229166666666,
      "duration": 2.058333333333337,
      "endTime": 92.690625
    },
    {
      "instrumentId": 0,
      "instrumentName": "Yamaha Grand Piano",
      "isPercussion": false,
      "pitch": 91,
      "velocity": 112,
      "startTime": 92.92083333333333,
      "duration": 0.3229166666666714,
      "endTime": 93.24375
    },
    {
      "instrumentId": 0,
      "instrumentName": "Yamaha Grand Piano",
      "isPercussion": false,
      "pitch": 84,
      "velocity": 79,
      "startTime": 93.25520833333333,
      "duration": 0.25833333333333997,
      "endTime": 93.51354166666667
    },
    {
      "instrumentId": 0,
      "instrumentName": "Yamaha Grand Piano",
      "isPercussion": false,
      "pitch": 91,
      "velocity": 105,
      "startTime": 93.52916666666667,
      "duration": 0.13645833333333712,
      "endTime": 93.665625
    },
    {
      "instrumentId": 0,
      "instrumentName": "Yamaha Grand Piano",
      "isPercussion": false,
      "pitch": 92,
      "velocity": 110,
      "startTime": 93.83333333333333,
      "duration": 1.2041666666666657,
      "endTime": 95.0375
    },
    {
      "instrumentId": 0,
      "instrumentName": "Yamaha Grand Piano",
      "isPercussion": false,
      "pitch": 73,
      "velocity": 69,
      "startTime": 93.83854166666667,
      "duration": 0.9583333333333286,
      "endTime": 94.796875
    },
    {
      "instrumentId": 0,
      "instrumentName": "Yamaha Grand Piano",
      "isPercussion": false,
      "pitch": 84,
      "velocity": 96,
      "startTime": 93.83958333333334,
      "duration": 1.1895833333333314,
      "endTime": 95.02916666666667
    },
    {
      "instrumentId": 0,
      "instrumentName": "Yamaha Grand Piano",
      "isPercussion": false,
      "pitch": 68,
      "velocity": 65,
      "startTime": 93.83958333333334,
      "duration": 2.00729166666666,
      "endTime": 95.846875
    },
    {
      "instrumentId": 0,
      "instrumentName": "Yamaha Grand Piano",
      "isPercussion": false,
      "pitch": 75,
      "velocity": 86,
      "startTime": 94.78541666666666,
      "duration": 1.1520833333333371,
      "endTime": 95.9375
    },
    {
      "instrumentId": 0,
      "instrumentName": "Yamaha Grand Piano",
      "isPercussion": false,
      "pitch": 92,
      "velocity": 110,
      "startTime": 95.36875,
      "duration": 0.27916666666665435,
      "endTime": 95.64791666666666
    },
    {
      "instrumentId": 0,
      "instrumentName": "Yamaha Grand Piano",
      "isPercussion": false,
      "pitch": 84,
      "velocity": 102,
      "startTime": 95.36979166666667,
      "duration": 0.14166666666666572,
      "endTime": 95.51145833333334
    },
    {
      "instrumentId": 0,
      "instrumentName": "Yamaha Grand Piano",
      "isPercussion": false,
      "pitch": 94,
      "velocity": 98,
      "startTime": 95.64479166666666,
      "duration": 0.3218750000000057,
      "endTime": 95.96666666666667
    },
    {
      "instrumentId": 0,
      "instrumentName": "Yamaha Grand Piano",
      "isPercussion": false,
      "pitch": 92,
      "velocity": 96,
      "startTime": 95.909375,
      "duration": 0.13437500000000568,
      "endTime": 96.04375
    },
    {
      "instrumentId": 0,
      "instrumentName": "Yamaha Grand Piano",
      "isPercussion": false,
      "pitch": 75,
      "velocity": 55,
      "startTime": 96.20729166666666,
      "duration": 0.5499999999999972,
      "endTime": 96.75729166666666
    },
    {
      "instrumentId": 0,
      "instrumentName": "Yamaha Grand Piano",
      "isPercussion": false,
      "pitch": 91,
      "velocity": 102,
      "startTime": 96.20729166666666,
      "duration": 0.9166666666666714,
      "endTime": 97.12395833333333
    },
    {
      "instrumentId": 0,
      "instrumentName": "Yamaha Grand Piano",
      "isPercussion": false,
      "pitch": 82,
      "velocity": 84,
      "startTime": 96.21458333333334,
      "duration": 0.5666666666666629,
      "endTime": 96.78125
    },
    {
      "instrumentId": 0,
      "instrumentName": "Yamaha Grand Piano",
      "isPercussion": false,
      "pitch": 67,
      "velocity": 59,
      "startTime": 96.215625,
      "duration": 1.5354166666666629,
      "endTime": 97.75104166666667
    },
    {
      "instrumentId": 0,
      "instrumentName": "Yamaha Grand Piano",
      "isPercussion": false,
      "pitch": 75,
      "velocity": 77,
      "startTime": 97.109375,
      "duration": 0.6260416666666657,
      "endTime": 97.73541666666667
    },
    {
      "instrumentId": 0,
      "instrumentName": "Yamaha Grand Piano",
      "isPercussion": false,
      "pitch": 91,
      "velocity": 91,
      "startTime": 97.68020833333333,
      "duration": 0.17083333333333428,
      "endTime": 97.85104166666666
    },
    {
      "instrumentId": 0,
      "instrumentName": "Yamaha Grand Piano",
      "isPercussion": false,
      "pitch": 99,
      "velocity": 102,
      "startTime": 97.95833333333333,
      "duration": 0.24166666666667425,
      "endTime": 98.2
    },
    {
      "instrumentId": 0,
      "instrumentName": "Yamaha Grand Piano",
      "isPercussion": false,
      "pitch": 96,
      "velocity": 117,
      "startTime": 98.21979166666667,
      "duration": 0.2958333333333343,
      "endTime": 98.515625
    },
    {
      "instrumentId": 0,
      "instrumentName": "Yamaha Grand Piano",
      "isPercussion": false,
      "pitch": 72,
      "velocity": 87,
      "startTime": 98.5,
      "duration": 1.7333333333333343,
      "endTime": 100.23333333333333
    },
    {
      "instrumentId": 0,
      "instrumentName": "Yamaha Grand Piano",
      "isPercussion": false,
      "pitch": 65,
      "velocity": 67,
      "startTime": 98.50208333333333,
      "duration": 1.7593750000000057,
      "endTime": 100.26145833333334
    },
    {
      "instrumentId": 0,
      "instrumentName": "Yamaha Grand Piano",
      "isPercussion": false,
      "pitch": 82,
      "velocity": 99,
      "startTime": 99.41145833333333,
      "duration": 0.4177083333333371,
      "endTime": 99.82916666666667
    },
    {
      "instrumentId": 0,
      "instrumentName": "Yamaha Grand Piano",
      "isPercussion": false,
      "pitch": 75,
      "velocity": 46,
      "startTime": 99.415625,
      "duration": 0.71041666666666,
      "endTime": 100.12604166666667
    },
    {
      "instrumentId": 0,
      "instrumentName": "Yamaha Grand Piano",
      "isPercussion": false,
      "pitch": 80,
      "velocity": 90,
      "startTime": 100.75833333333333,
      "duration": 0.22812500000000568,
      "endTime": 100.98645833333333
    },
    {
      "instrumentId": 0,
      "instrumentName": "Yamaha Grand Piano",
      "isPercussion": false,
      "pitch": 76,
      "velocity": 72,
      "startTime": 101.30833333333334,
      "duration": 1.9812499999999886,
      "endTime": 103.28958333333333
    },
    {
      "instrumentId": 0,
      "instrumentName": "Yamaha Grand Piano",
      "isPercussion": false,
      "pitch": 79,
      "velocity": 83,
      "startTime": 101.3125,
      "duration": 2.0145833333333343,
      "endTime": 103.32708333333333
    },
    {
      "instrumentId": 0,
      "instrumentName": "Yamaha Grand Piano",
      "isPercussion": false,
      "pitch": 70,
      "velocity": 49,
      "startTime": 101.31979166666666,
      "duration": 0.78958333333334,
      "endTime": 102.109375
    },
    {
      "instrumentId": 0,
      "instrumentName": "Yamaha Grand Piano",
      "isPercussion": false,
      "pitch": 60,
      "velocity": 68,
      "startTime": 101.325,
      "duration": 0.75,
      "endTime": 102.075
    },
    {
      "instrumentId": 0,
      "instrumentName": "Yamaha Grand Piano",
      "isPercussion": false,
      "pitch": 60,
      "velocity": 54,
      "startTime": 102.27291666666666,
      "duration": 0.2614583333333371,
      "endTime": 102.534375
    },
    {
      "instrumentId": 0,
      "instrumentName": "Yamaha Grand Piano",
      "isPercussion": false,
      "pitch": 61,
      "velocity": 50,
      "startTime": 102.54479166666667,
      "duration": 0.26250000000000284,
      "endTime": 102.80729166666667
    },
    {
      "instrumentId": 0,
      "instrumentName": "Yamaha Grand Piano",
      "isPercussion": false,
      "pitch": 60,
      "velocity": 63,
      "startTime": 102.80416666666666,
      "duration": 0.3291666666666657,
      "endTime": 103.13333333333333
    },
    {
      "instrumentId": 0,
      "instrumentName": "Yamaha Grand Piano",
      "isPercussion": false,
      "pitch": 65,
      "velocity": 66,
      "startTime": 104.36770833333333,
      "duration": 1.8125,
      "endTime": 106.18020833333333
    },
    {
      "instrumentId": 0,
      "instrumentName": "Yamaha Grand Piano",
      "isPercussion": false,
      "pitch": 89,
      "velocity": 101,
      "startTime": 104.36770833333333,
      "duration": 1.9468750000000057,
      "endTime": 106.31458333333333
    },
    {
      "instrumentId": 0,
      "instrumentName": "Yamaha Grand Piano",
      "isPercussion": false,
      "pitch": 80,
      "velocity": 82,
      "startTime": 104.371875,
      "duration": 0.9333333333333229,
      "endTime": 105.30520833333333
    },
    {
      "instrumentId": 0,
      "instrumentName": "Yamaha Grand Piano",
      "isPercussion": false,
      "pitch": 72,
      "velocity": 80,
      "startTime": 104.378125,
      "duration": 1.8385416666666714,
      "endTime": 106.21666666666667
    },
    {
      "instrumentId": 0,
      "instrumentName": "Yamaha Grand Piano",
      "isPercussion": false,
      "pitch": 75,
      "velocity": 66,
      "startTime": 105.265625,
      "duration": 0.8833333333333258,
      "endTime": 106.14895833333333
    },
    {
      "instrumentId": 0,
      "instrumentName": "Yamaha Grand Piano",
      "isPercussion": false,
      "pitch": 84,
      "velocity": 97,
      "startTime": 105.265625,
      "duration": 1.0999999999999943,
      "endTime": 106.365625
    },
    {
      "instrumentId": 0,
      "instrumentName": "Yamaha Grand Piano",
      "isPercussion": false,
      "pitch": 70,
      "velocity": 62,
      "startTime": 106.68229166666667,
      "duration": 1.1291666666666629,
      "endTime": 107.81145833333333
    },
    {
      "instrumentId": 0,
      "instrumentName": "Yamaha Grand Piano",
      "isPercussion": false,
      "pitch": 72,
      "velocity": 74,
      "startTime": 106.94791666666667,
      "duration": 0.4791666666666572,
      "endTime": 107.42708333333333
    },
    {
      "instrumentId": 0,
      "instrumentName": "Yamaha Grand Piano",
      "isPercussion": false,
      "pitch": 73,
      "velocity": 72,
      "startTime": 107.20416666666667,
      "duration": 0.17812499999999432,
      "endTime": 107.38229166666666
    },
    {
      "instrumentId": 0,
      "instrumentName": "Yamaha Grand Piano",
      "isPercussion": false,
      "pitch": 75,
      "velocity": 84,
      "startTime": 107.44687499999999,
      "duration": 1.1343750000000057,
      "endTime": 108.58125
    },
    {
      "instrumentId": 0,
      "instrumentName": "Yamaha Grand Piano",
      "isPercussion": false,
      "pitch": 72,
      "velocity": 101,
      "startTime": 107.715625,
      "duration": 0.7947916666666686,
      "endTime": 108.51041666666667
    },
    {
      "instrumentId": 0,
      "instrumentName": "Yamaha Grand Piano",
      "isPercussion": false,
      "pitch": 89,
      "velocity": 106,
      "startTime": 108.25104166666667,
      "duration": 0.28854166666666003,
      "endTime": 108.53958333333333
    },
    {
      "instrumentId": 0,
      "instrumentName": "Yamaha Grand Piano",
      "isPercussion": false,
      "pitch": 84,
      "velocity": 71,
      "startTime": 108.52604166666667,
      "duration": 0.22708333333332575,
      "endTime": 108.753125
    },
    {
      "instrumentId": 0,
      "instrumentName": "Yamaha Grand Piano",
      "isPercussion": false,
      "pitch": 89,
      "velocity": 92,
      "startTime": 108.77916666666667,
      "duration": 0.11770833333332575,
      "endTime": 108.896875
    },
    {
      "instrumentId": 0,
      "instrumentName": "Yamaha Grand Piano",
      "isPercussion": false,
      "pitch": 82,
      "velocity": 92,
      "startTime": 109.06354166666667,
      "duration": 0.734375,
      "endTime": 109.79791666666667
    },
    {
      "instrumentId": 0,
      "instrumentName": "Yamaha Grand Piano",
      "isPercussion": false,
      "pitch": 91,
      "velocity": 103,
      "startTime": 109.06666666666666,
      "duration": 0.5499999999999972,
      "endTime": 109.61666666666666
    },
    {
      "instrumentId": 0,
      "instrumentName": "Yamaha Grand Piano",
      "isPercussion": false,
      "pitch": 75,
      "velocity": 79,
      "startTime": 109.06875,
      "duration": 1.2302083333333371,
      "endTime": 110.29895833333333
    },
    {
      "instrumentId": 0,
      "instrumentName": "Yamaha Grand Piano",
      "isPercussion": false,
      "pitch": 79,
      "velocity": 97,
      "startTime": 109.07187499999999,
      "duration": 1.1166666666666742,
      "endTime": 110.18854166666667
    },
    {
      "instrumentId": 0,
      "instrumentName": "Yamaha Grand Piano",
      "isPercussion": false,
      "pitch": 92,
      "velocity": 80,
      "startTime": 109.59375,
      "duration": 0.2239583333333286,
      "endTime": 109.81770833333333
    },
    {
      "instrumentId": 0,
      "instrumentName": "Yamaha Grand Piano",
      "isPercussion": false,
      "pitch": 91,
      "velocity": 93,
      "startTime": 109.859375,
      "duration": 0.2927083333333371,
      "endTime": 110.15208333333334
    },
    {
      "instrumentId": 0,
      "instrumentName": "Yamaha Grand Piano",
      "isPercussion": false,
      "pitch": 84,
      "velocity": 88,
      "startTime": 110.40729166666667,
      "duration": 0.14895833333332575,
      "endTime": 110.55624999999999
    },
    {
      "instrumentId": 0,
      "instrumentName": "Yamaha Grand Piano",
      "isPercussion": false,
      "pitch": 84,
      "velocity": 92,
      "startTime": 110.94687499999999,
      "duration": 0.27812500000000284,
      "endTime": 111.225
    },
    {
      "instrumentId": 0,
      "instrumentName": "Yamaha Grand Piano",
      "isPercussion": false,
      "pitch": 70,
      "velocity": 67,
      "startTime": 110.94687499999999,
      "duration": 0.4052083333333343,
      "endTime": 111.35208333333333
    },
    {
      "instrumentId": 0,
      "instrumentName": "Yamaha Grand Piano",
      "isPercussion": false,
      "pitch": 72,
      "velocity": 58,
      "startTime": 111.20416666666667,
      "duration": 0.40937499999999716,
      "endTime": 111.61354166666666
    },
    {
      "instrumentId": 0,
      "instrumentName": "Yamaha Grand Piano",
      "isPercussion": false,
      "pitch": 82,
      "velocity": 85,
      "startTime": 111.20833333333333,
      "duration": 0.32083333333333997,
      "endTime": 111.52916666666667
    },
    {
      "instrumentId": 0,
      "instrumentName": "Yamaha Grand Piano",
      "isPercussion": false,
      "pitch": 80,
      "velocity": 83,
      "startTime": 111.46770833333333,
      "duration": 0.3322916666666629,
      "endTime": 111.8
    },
    {
      "instrumentId": 0,
      "instrumentName": "Yamaha Grand Piano",
      "isPercussion": false,
      "pitch": 73,
      "velocity": 61,
      "startTime": 111.47083333333333,
      "duration": 0.14166666666666572,
      "endTime": 111.6125
    },
    {
      "instrumentId": 0,
      "instrumentName": "Yamaha Grand Piano",
      "isPercussion": false,
      "pitch": 75,
      "velocity": 45,
      "startTime": 111.71354166666667,
      "duration": 0.19374999999999432,
      "endTime": 111.90729166666667
    },
    {
      "instrumentId": 0,
      "instrumentName": "Yamaha Grand Piano",
      "isPercussion": false,
      "pitch": 79,
      "velocity": 91,
      "startTime": 111.71875,
      "duration": 0.3020833333333286,
      "endTime": 112.02083333333333
    },
    {
      "instrumentId": 0,
      "instrumentName": "Yamaha Grand Piano",
      "isPercussion": false,
      "pitch": 75,
      "velocity": 96,
      "startTime": 111.97916666666667,
      "duration": 0.21979166666666572,
      "endTime": 112.19895833333334
    },
    {
      "instrumentId": 0,
      "instrumentName": "Yamaha Grand Piano",
      "isPercussion": false,
      "pitch": 72,
      "velocity": 92,
      "startTime": 111.9875,
      "duration": 1.3385416666666714,
      "endTime": 113.32604166666667
    },
    {
      "instrumentId": 0,
      "instrumentName": "Yamaha Grand Piano",
      "isPercussion": false,
      "pitch": 84,
      "velocity": 103,
      "startTime": 112.825,
      "duration": 0.3218749999999915,
      "endTime": 113.146875
    },
    {
      "instrumentId": 0,
      "instrumentName": "Yamaha Grand Piano",
      "isPercussion": false,
      "pitch": 91,
      "velocity": 104,
      "startTime": 113.08958333333334,
      "duration": 0.31562499999999716,
      "endTime": 113.40520833333333
    },
    {
      "instrumentId": 0,
      "instrumentName": "Yamaha Grand Piano",
      "isPercussion": false,
      "pitch": 92,
      "velocity": 98,
      "startTime": 113.35625,
      "duration": 0.17499999999999716,
      "endTime": 113.53125
    },
    {
      "instrumentId": 0,
      "instrumentName": "Yamaha Grand Piano",
      "isPercussion": false,
      "pitch": 68,
      "velocity": 26,
      "startTime": 113.584375,
      "duration": 1.8760416666666657,
      "endTime": 115.46041666666666
    },
    {
      "instrumentId": 0,
      "instrumentName": "Yamaha Grand Piano",
      "isPercussion": false,
      "pitch": 73,
      "velocity": 43,
      "startTime": 113.62291666666667,
      "duration": 0.6541666666666686,
      "endTime": 114.27708333333334
    },
    {
      "instrumentId": 0,
      "instrumentName": "Yamaha Grand Piano",
      "isPercussion": false,
      "pitch": 77,
      "velocity": 72,
      "startTime": 113.68020833333333,
      "duration": 0.9625000000000057,
      "endTime": 114.64270833333333
    },
    {
      "instrumentId": 0,
      "instrumentName": "Yamaha Grand Piano",
      "isPercussion": false,
      "pitch": 94,
      "velocity": 112,
      "startTime": 113.71458333333334,
      "duration": 1.0218749999999943,
      "endTime": 114.73645833333333
    },
    {
      "instrumentId": 0,
      "instrumentName": "Yamaha Grand Piano",
      "isPercussion": false,
      "pitch": 84,
      "velocity": 62,
      "startTime": 113.72812499999999,
      "duration": 1.5843750000000085,
      "endTime": 115.3125
    },
    {
      "instrumentId": 0,
      "instrumentName": "Yamaha Grand Piano",
      "isPercussion": false,
      "pitch": 75,
      "velocity": 68,
      "startTime": 114.58125,
      "duration": 0.9489583333333371,
      "endTime": 115.53020833333333
    },
    {
      "instrumentId": 0,
      "instrumentName": "Yamaha Grand Piano",
      "isPercussion": false,
      "pitch": 96,
      "velocity": 98,
      "startTime": 115.14166666666667,
      "duration": 0.35104166666666003,
      "endTime": 115.49270833333333
    },
    {
      "instrumentId": 0,
      "instrumentName": "Yamaha Grand Piano",
      "isPercussion": false,
      "pitch": 92,
      "velocity": 92,
      "startTime": 115.43124999999999,
      "duration": 0.23229166666666856,
      "endTime": 115.66354166666666
    },
    {
      "instrumentId": 0,
      "instrumentName": "Yamaha Grand Piano",
      "isPercussion": false,
      "pitch": 73,
      "velocity": 66,
      "startTime": 115.434375,
      "duration": 0.1510416666666572,
      "endTime": 115.58541666666666
    },
    {
      "instrumentId": 0,
      "instrumentName": "Yamaha Grand Piano",
      "isPercussion": false,
      "pitch": 91,
      "velocity": 104,
      "startTime": 115.69791666666667,
      "duration": 0.4645833333333229,
      "endTime": 116.1625
    },
    {
      "instrumentId": 0,
      "instrumentName": "Yamaha Grand Piano",
      "isPercussion": false,
      "pitch": 63,
      "velocity": 60,
      "startTime": 115.98541666666667,
      "duration": 2.3062500000000057,
      "endTime": 118.29166666666667
    },
    {
      "instrumentId": 0,
      "instrumentName": "Yamaha Grand Piano",
      "isPercussion": false,
      "pitch": 70,
      "velocity": 45,
      "startTime": 116.25520833333333,
      "duration": 2.0541666666666742,
      "endTime": 118.309375
    },
    {
      "instrumentId": 0,
      "instrumentName": "Yamaha Grand Piano",
      "isPercussion": false,
      "pitch": 72,
      "velocity": 44,
      "startTime": 116.53229166666667,
      "duration": 1.9500000000000028,
      "endTime": 118.48229166666667
    },
    {
      "instrumentId": 0,
      "instrumentName": "Yamaha Grand Piano",
      "isPercussion": false,
      "pitch": 87,
      "velocity": 71,
      "startTime": 116.82291666666667,
      "duration": 0.7281249999999915,
      "endTime": 117.55104166666666
    },
    {
      "instrumentId": 0,
      "instrumentName": "Yamaha Grand Piano",
      "isPercussion": false,
      "pitch": 79,
      "velocity": 72,
      "startTime": 116.83229166666666,
      "duration": 0.7447916666666714,
      "endTime": 117.57708333333333
    },
    {
      "instrumentId": 0,
      "instrumentName": "Yamaha Grand Piano",
      "isPercussion": false,
      "pitch": 89,
      "velocity": 88,
      "startTime": 118.11354166666666,
      "duration": 0.26354166666666856,
      "endTime": 118.37708333333333
    },
    {
      "instrumentId": 0,
      "instrumentName": "Yamaha Grand Piano",
      "isPercussion": false,
      "pitch": 91,
      "velocity": 98,
      "startTime": 118.38541666666667,
      "duration": 0.22291666666666288,
      "endTime": 118.60833333333333
    },
    {
      "instrumentId": 0,
      "instrumentName": "Yamaha Grand Piano",
      "isPercussion": false,
      "pitch": 89,
      "velocity": 105,
      "startTime": 118.63854166666667,
      "duration": 0.52291666666666,
      "endTime": 119.16145833333333
    },
    {
      "instrumentId": 0,
      "instrumentName": "Yamaha Grand Piano",
      "isPercussion": false,
      "pitch": 72,
      "velocity": 56,
      "startTime": 118.92916666666666,
      "duration": 0.421875,
      "endTime": 119.35104166666666
    },
    {
      "instrumentId": 0,
      "instrumentName": "Yamaha Grand Piano",
      "isPercussion": false,
      "pitch": 65,
      "velocity": 35,
      "startTime": 118.93854166666667,
      "duration": 0.9020833333333371,
      "endTime": 119.840625
    },
    {
      "instrumentId": 0,
      "instrumentName": "Yamaha Grand Piano",
      "isPercussion": false,
      "pitch": 82,
      "velocity": 69,
      "startTime": 119.75937499999999,
      "duration": 3.03958333333334,
      "endTime": 122.79895833333333
    },
    {
      "instrumentId": 0,
      "instrumentName": "Yamaha Grand Piano",
      "isPercussion": false,
      "pitch": 75,
      "velocity": 49,
      "startTime": 119.76666666666667,
      "duration": 1.2687499999999972,
      "endTime": 121.03541666666666
    },
    {
      "instrumentId": 0,
      "instrumentName": "Yamaha Grand Piano",
      "isPercussion": false,
      "pitch": 77,
      "velocity": 58,
      "startTime": 119.76666666666667,
      "duration": 3.0447916666666686,
      "endTime": 122.81145833333333
    },
    {
      "instrumentId": 0,
      "instrumentName": "Yamaha Grand Piano",
      "isPercussion": false,
      "pitch": 70,
      "velocity": 73,
      "startTime": 122.49479166666667,
      "duration": 0.17604166666666288,
      "endTime": 122.67083333333333
    },
    {
      "instrumentId": 0,
      "instrumentName": "Yamaha Grand Piano",
      "isPercussion": false,
      "pitch": 63,
      "velocity": 51,
      "startTime": 122.50208333333333,
      "duration": 0.13645833333333712,
      "endTime": 122.63854166666667
    },
    {
      "instrumentId": 0,
      "instrumentName": "Yamaha Grand Piano",
      "isPercussion": false,
      "pitch": 84,
      "velocity": 88,
      "startTime": 123.5,
      "duration": 1.5916666666666686,
      "endTime": 125.09166666666667
    },
    {
      "instrumentId": 0,
      "instrumentName": "Yamaha Grand Piano",
      "isPercussion": false,
      "pitch": 75,
      "velocity": 60,
      "startTime": 123.50416666666666,
      "duration": 1.0645833333333314,
      "endTime": 124.56875
    },
    {
      "instrumentId": 0,
      "instrumentName": "Yamaha Grand Piano",
      "isPercussion": false,
      "pitch": 77,
      "velocity": 73,
      "startTime": 123.51145833333334,
      "duration": 1.5906249999999886,
      "endTime": 125.10208333333333
    },
    {
      "instrumentId": 0,
      "instrumentName": "Yamaha Grand Piano",
      "isPercussion": false,
      "pitch": 61,
      "velocity": 63,
      "startTime": 126.79270833333334,
      "duration": 2.9656249999999886,
      "endTime": 129.75833333333333
    },
    {
      "instrumentId": 0,
      "instrumentName": "Yamaha Grand Piano",
      "isPercussion": false,
      "pitch": 68,
      "velocity": 58,
      "startTime": 126.803125,
      "duration": 2.9604166666666742,
      "endTime": 129.76354166666667
    },
    {
      "instrumentId": 0,
      "instrumentName": "Yamaha Grand Piano",
      "isPercussion": false,
      "pitch": 72,
      "velocity": 39,
      "startTime": 127.18541666666667,
      "duration": 0.4072916666666657,
      "endTime": 127.59270833333333
    },
    {
      "instrumentId": 0,
      "instrumentName": "Yamaha Grand Piano",
      "isPercussion": false,
      "pitch": 75,
      "velocity": 54,
      "startTime": 127.553125,
      "duration": 0.07187500000000568,
      "endTime": 127.625
    },
    {
      "instrumentId": 0,
      "instrumentName": "Yamaha Grand Piano",
      "isPercussion": false,
      "pitch": 85,
      "velocity": 56,
      "startTime": 127.96249999999999,
      "duration": 1.00833333333334,
      "endTime": 128.97083333333333
    },
    {
      "instrumentId": 0,
      "instrumentName": "Yamaha Grand Piano",
      "isPercussion": false,
      "pitch": 77,
      "velocity": 49,
      "startTime": 127.96770833333333,
      "duration": 0.9437500000000085,
      "endTime": 128.91145833333334
    },
    {
      "instrumentId": 0,
      "instrumentName": "Yamaha Grand Piano",
      "isPercussion": false,
      "pitch": 80,
      "velocity": 22,
      "startTime": 130.18229166666666,
      "duration": 1.3312500000000114,
      "endTime": 131.51354166666667
    },
    {
      "instrumentId": 0,
      "instrumentName": "Yamaha Grand Piano",
      "isPercussion": false,
      "pitch": 84,
      "velocity": 53,
      "startTime": 130.25104166666665,
      "duration": 1.2385416666666913,
      "endTime": 131.48958333333334
    },
    {
      "instrumentId": 0,
      "instrumentName": "Yamaha Grand Piano",
      "isPercussion": false,
      "pitch": 72,
      "velocity": 46,
      "startTime": 130.30416666666667,
      "duration": 2.2156249999999886,
      "endTime": 132.51979166666666
    },
    {
      "instrumentId": 0,
      "instrumentName": "Yamaha Grand Piano",
      "isPercussion": false,
      "pitch": 89,
      "velocity": 74,
      "startTime": 130.31666666666666,
      "duration": 1.17291666666668,
      "endTime": 131.48958333333334
    },
    {
      "instrumentId": 0,
      "instrumentName": "Yamaha Grand Piano",
      "isPercussion": false,
      "pitch": 84,
      "velocity": 52,
      "startTime": 133.015625,
      "duration": 5.382291666666674,
      "endTime": 138.39791666666667
    },
    {
      "instrumentId": 0,
      "instrumentName": "Yamaha Grand Piano",
      "isPercussion": false,
      "pitch": 88,
      "velocity": 45,
      "startTime": 133.02291666666667,
      "duration": 5.366666666666646,
      "endTime": 138.38958333333332
    },
    {
      "instrumentId": 0,
      "instrumentName": "Yamaha Grand Piano",
      "isPercussion": false,
      "pitch": 72,
      "velocity": 39,
      "startTime": 133.02395833333333,
      "duration": 5.290625000000006,
      "endTime": 138.31458333333333
    },
    {
      "instrumentId": 0,
      "instrumentName": "Yamaha Grand Piano",
      "isPercussion": false,
      "pitch": 60,
      "velocity": 38,
      "startTime": 133.02708333333334,
      "duration": 5.31145833333332,
      "endTime": 138.33854166666666
    },
    {
      "instrumentId": 0,
      "instrumentName": "Yamaha Grand Piano",
      "isPercussion": false,
      "pitch": 79,
      "velocity": 43,
      "startTime": 133.02708333333334,
      "duration": 5.331249999999983,
      "endTime": 138.35833333333332
    }
  ]
}