{
  "metadata": {
    "file": "Ed Sheeran - Shape of You.mid",
    "duration": 277.42421875,
    "bpm": 160.0,
    "totalNotes": 2290
  },
  "notes": [
    {
      "instrumentId": 1,
      "instrumentName": "Instrument_1",
      "isPercussion": false,
      "pitch": 56,
      "velocity": 49,
      "startTime": 0.0,
      "duration": 0.17734375000000002,
      "endTime": 0.17734375000000002
    },
    {
      "instrumentId": 1,
      "instrumentName": "Instrument_1",
      "isPercussion": false,
      "pitch": 61,
      "velocity": 49,
      "startTime": 0.0,
      "duration": 0.17734375000000002,
      "endTime": 0.17734375000000002
    },
    {
      "instrumentId": 1,
      "instrumentName": "Instrument_1",
      "isPercussion": false,
      "pitch": 56,
      "velocity": 49,
      "startTime": 0.5625,
      "duration": 0.17734375000000002,
      "endTime": 0.73984375
    },
    {
      "instrumentId": 1,
      "instrumentName": "Instrument_1",
      "isPercussion": false,
      "pitch": 64,
      "velocity": 49,
      "startTime": 0.5625,
      "duration": 0.17734375000000002,
      "endTime": 0.73984375
    },
    {
      "instrumentId": 1,
      "instrumentName": "Instrument_1",
      "isPercussion": false,
      "pitch": 56,
      "velocity": 49,
      "startTime": 1.125,
      "duration": 0.17734375000000013,
      "endTime": 1.3023437500000001
    },
    {
      "instrumentId": 1,
      "instrumentName": "Instrument_1",
      "isPercussion": false,
      "pitch": 61,
      "velocity": 49,
      "startTime": 1.125,
      "duration": 0.17734375000000013,
      "endTime": 1.3023437500000001
    },
    {
      "instrumentId": 1,
      "instrumentName": "Instrument_1",
      "isPercussion": false,
      "pitch": 54,
      "velocity": 49,
      "startTime": 1.5,
      "duration": 0.17734375000000013,
      "endTime": 1.6773437500000001
    },
    {
      "instrumentId": 1,
      "instrumentName": "Instrument_1",
      "isPercussion": false,
      "pitch": 61,
      "velocity": 49,
      "startTime": 1.5,
      "duration": 0.17734375000000013,
      "endTime": 1.6773437500000001
    },
    {
      "instrumentId": 1,
      "instrumentName": "Instrument_1",
      "isPercussion": false,
      "pitch": 54,
      "velocity": 49,
      "startTime": 2.0625,
      "duration": 0.1773437499999999,
      "endTime": 2.23984375
    },
    {
      "instrumentId": 1,
      "instrumentName": "Instrument_1",
      "isPercussion": false,
      "pitch": 64,
      "velocity": 49,
      "startTime": 2.0625,
      "duration": 0.1773437499999999,
      "endTime": 2.23984375
    },
    {
      "instrumentId": 1,
      "instrumentName": "Instrument_1",
      "isPercussion": false,
      "pitch": 54,
      "velocity": 49,
      "startTime": 2.625,
      "duration": 0.17734375000000036,
      "endTime": 2.8023437500000004
    },
    {
      "instrumentId": 1,
      "instrumentName": "Instrument_1",
      "isPercussion": false,
      "pitch": 61,
      "velocity": 49,
      "startTime": 2.625,
      "duration": 0.17734375000000036,
      "endTime": 2.8023437500000004
    },
    {
      "instrumentId": 1,
      "instrumentName": "Instrument_1",
      "isPercussion": false,
      "pitch": 57,
      "velocity": 49,
      "startTime": 3.0,
      "duration": 0.17734375000000036,
      "endTime": 3.1773437500000004
    },
    {
      "instrumentId": 1,
      "instrumentName": "Instrument_1",
      "isPercussion": false,
      "pitch": 61,
      "velocity": 49,
      "startTime": 3.0,
      "duration": 0.17734375000000036,
      "endTime": 3.1773437500000004
    },
    {
      "instrumentId": 1,
      "instrumentName": "Instrument_1",
      "isPercussion": false,
      "pitch": 57,
      "velocity": 49,
      "startTime": 3.5625,
      "duration": 0.17734375000000036,
      "endTime": 3.7398437500000004
    },
    {
      "instrumentId": 1,
      "instrumentName": "Instrument_1",
      "isPercussion": false,
      "pitch": 64,
      "velocity": 49,
      "startTime": 3.5625,
      "duration": 0.17734375000000036,
      "endTime": 3.7398437500000004
    },
    {
      "instrumentId": 1,
      "instrumentName": "Instrument_1",
      "isPercussion": false,
      "pitch": 57,
      "velocity": 49,
      "startTime": 4.125,
      "duration": 0.17734375000000036,
      "endTime": 4.30234375
    },
    {
      "instrumentId": 1,
      "instrumentName": "Instrument_1",
      "isPercussion": false,
      "pitch": 61,
      "velocity": 49,
      "startTime": 4.125,
      "duration": 0.17734375000000036,
      "endTime": 4.30234375
    },
    {
      "instrumentId": 1,
      "instrumentName": "Instrument_1",
      "isPercussion": false,
      "pitch": 54,
      "velocity": 49,
      "startTime": 4.5,
      "duration": 0.17734375000000036,
      "endTime": 4.67734375
    },
    {
      "instrumentId": 1,
      "instrumentName": "Instrument_1",
      "isPercussion": false,
      "pitch": 59,
      "velocity": 49,
      "startTime": 4.5,
      "duration": 0.17734375000000036,
      "endTime": 4.67734375
    },
    {
      "instrumentId": 1,
      "instrumentName": "Instrument_1",
      "isPercussion": false,
      "pitch": 63,
      "velocity": 49,
      "startTime": 4.5,
      "duration": 0.17734375000000036,
      "endTime": 4.67734375
    },
    {
      "instrumentId": 1,
      "instrumentName": "Instrument_1",
      "isPercussion": false,
      "pitch": 54,
      "velocity": 49,
      "startTime": 5.0625,
      "duration": 0.17734375000000036,
      "endTime": 5.23984375
    },
    {
      "instrumentId": 1,
      "instrumentName": "Instrument_1",
      "isPercussion": false,
      "pitch": 59,
      "velocity": 49,
      "startTime": 5.0625,
      "duration": 0.17734375000000036,
      "endTime": 5.23984375
    },
    {
      "instrumentId": 1,
      "instrumentName": "Instrument_1",
      "isPercussion": false,
      "pitch": 61,
      "velocity": 49,
      "startTime": 5.0625,
      "duration": 0.17734375000000036,
      "endTime": 5.23984375
    },
    {
      "instrumentId": 1,
      "instrumentName": "Instrument_1",
      "isPercussion": false,
      "pitch": 54,
      "velocity": 49,
      "startTime": 5.625,
      "duration": 0.17734375000000036,
      "endTime": 5.80234375
    },
    {
      "instrumentId": 1,
      "instrumentName": "Instrument_1",
      "isPercussion": false,
      "pitch": 59,
      "velocity": 49,
      "startTime": 5.625,
      "duration": 0.17734375000000036,
      "endTime": 5.80234375
    },
    {
      "instrumentId": 1,
      "instrumentName": "Instrument_1",
      "isPercussion": false,
      "pitch": 56,
      "velocity": 49,
      "startTime": 6.0,
      "duration": 0.17734375000000036,
      "endTime": 6.17734375
    },
    {
      "instrumentId": 1,
      "instrumentName": "Instrument_1",
      "isPercussion": false,
      "pitch": 61,
      "velocity": 49,
      "startTime": 6.0,
      "duration": 0.17734375000000036,
      "endTime": 6.17734375
    },
    {
      "instrumentId": 1,
      "instrumentName": "Instrument_1",
      "isPercussion": false,
      "pitch": 56,
      "velocity": 49,
      "startTime": 6.5625,
      "duration": 0.17734375000000036,
      "endTime": 6.73984375
    },
    {
      "instrumentId": 1,
      "instrumentName": "Instrument_1",
      "isPercussion": false,
      "pitch": 64,
      "velocity": 49,
      "startTime": 6.5625,
      "duration": 0.17734375000000036,
      "endTime": 6.73984375
    },
    {
      "instrumentId": 1,
      "instrumentName": "Instrument_1",
      "isPercussion": false,
      "pitch": 56,
      "velocity": 49,
      "startTime": 7.125,
      "duration": 0.17734375000000036,
      "endTime": 7.30234375
    },
    {
      "instrumentId": 1,
      "instrumentName": "Instrument_1",
      "isPercussion": false,
      "pitch": 61,
      "velocity": 49,
      "startTime": 7.125,
      "duration": 0.17734375000000036,
      "endTime": 7.30234375
    },
    {
      "instrumentId": 1,
      "instrumentName": "Instrument_1",
      "isPercussion": false,
      "pitch": 54,
      "velocity": 49,
      "startTime": 7.5,
      "duration": 0.17734375000000036,
      "endTime": 7.67734375
    },
    {
      "instrumentId": 1,
      "instrumentName": "Instrument_1",
      "isPercussion": false,
      "pitch": 61,
      "velocity": 49,
      "startTime": 7.5,
      "duration": 0.17734375000000036,
      "endTime": 7.67734375
    },
    {
      "instrumentId": 1,
      "instrumentName": "Instrument_1",
      "isPercussion": false,
      "pitch": 54,
      "velocity": 49,
      "startTime": 8.0625,
      "duration": 0.17734375000000036,
      "endTime": 8.23984375
    },
    {
      "instrumentId": 1,
      "instrumentName": "Instrument_1",
      "isPercussion": false,
      "pitch": 64,
      "velocity": 49,
      "startTime": 8.0625,
      "duration": 0.17734375000000036,
      "endTime": 8.23984375
    },
    {
      "instrumentId": 1,
      "instrumentName": "Instrument_1",
      "isPercussion": false,
      "pitch": 54,
      "velocity": 49,
      "startTime": 8.625,
      "duration": 0.17734375000000036,
      "endTime": 8.80234375
    },
    {
      "instrumentId": 1,
      "instrumentName": "Instrument_1",
      "isPercussion": false,
      "pitch": 61,
      "velocity": 49,
      "startTime": 8.625,
      "duration": 0.17734375000000036,
      "endTime": 8.80234375
    },
    {
      "instrumentId": 1,
      "instrumentName": "Instrument_1",
      "isPercussion": false,
      "pitch": 57,
      "velocity": 49,
      "startTime": 9.0,
      "duration": 0.17734375000000036,
      "endTime": 9.17734375
    },
    {
      "instrumentId": 1,
      "instrumentName": "Instrument_1",
      "isPercussion": false,
      "pitch": 61,
      "velocity": 49,
      "startTime": 9.0,
      "duration": 0.17734375000000036,
      "endTime": 9.17734375
    },
    {
      "instrumentId": 1,
      "instrumentName": "Instrument_1",
      "isPercussion": false,
      "pitch": 57,
      "velocity": 49,
      "startTime": 9.5625,
      "duration": 0.17734375000000036,
      "endTime": 9.73984375
    },
    {
      "instrumentId": 1,
      "instrumentName": "Instrument_1",
      "isPercussion": false,
      "pitch": 64,
      "velocity": 49,
      "startTime": 9.5625,
      "duration": 0.17734375000000036,
      "endTime": 9.73984375
    },
    {
      "instrumentId": 1,
      "instrumentName": "Instrument_1",
      "isPercussion": false,
      "pitch": 57,
      "velocity": 49,
      "startTime": 10.125,
      "duration": 0.17734375000000036,
      "endTime": 10.30234375
    },
    {
      "instrumentId": 1,
      "instrumentName": "Instrument_1",
      "isPercussion": false,
      "pitch": 61,
      "velocity": 49,
      "startTime": 10.125,
      "duration": 0.17734375000000036,
      "endTime": 10.30234375
    },
    {
      "instrumentId": 1,
      "instrumentName": "Instrument_1",
      "isPercussion": false,
      "pitch": 54,
      "velocity": 49,
      "startTime": 10.5,
      "duration": 0.17734375000000036,
      "endTime": 10.67734375
    },
    {
      "instrumentId": 1,
      "instrumentName": "Instrument_1",
      "isPercussion": false,
      "pitch": 59,
      "velocity": 49,
      "startTime": 10.5,
      "duration": 0.17734375000000036,
      "endTime": 10.67734375
    },
    {
      "instrumentId": 1,
      "instrumentName": "Instrument_1",
      "isPercussion": false,
      "pitch": 63,
      "velocity": 49,
      "startTime": 10.5,
      "duration": 0.17734375000000036,
      "endTime": 10.67734375
    },
    {
      "instrumentId": 1,
      "instrumentName": "Instrument_1",
      "isPercussion": false,
      "pitch": 54,
      "velocity": 49,
      "startTime": 11.0625,
      "duration": 0.17734375000000036,
      "endTime": 11.23984375
    },
    {
      "instrumentId": 1,
      "instrumentName": "Instrument_1",
      "isPercussion": false,
      "pitch": 59,
      "velocity": 49,
      "startTime": 11.0625,
      "duration": 0.17734375000000036,
      "endTime": 11.23984375
    },
    {
      "instrumentId": 1,
      "instrumentName": "Instrument_1",
      "isPercussion": false,
      "pitch": 61,
      "velocity": 49,
      "startTime": 11.0625,
      "duration": 0.17734375000000036,
      "endTime": 11.23984375
    },
    {
      "instrumentId": 1,
      "instrumentName": "Instrument_1",
      "isPercussion": false,
      "pitch": 54,
      "velocity": 49,
      "startTime": 11.625,
      "duration": 0.17734375000000036,
      "endTime": 11.80234375
    },
    {
      "instrumentId": 1,
      "instrumentName": "Instrument_1",
      "isPercussion": false,
      "pitch": 59,
      "velocity": 49,
      "startTime": 11.625,
      "duration": 0.17734375000000036,
      "endTime": 11.80234375
    },
    {
      "instrumentId": 0,
      "instrumentName": "Instrument_0",
      "isPercussion": false,
      "pitch": 73,
      "velocity": 49,
      "startTime": 11.8125,
      "duration": 0.17734375000000036,
      "endTime": 11.98984375
    },
    {
      "instrumentId": 0,
      "instrumentName": "Instrument_0",
      "isPercussion": false,
      "pitch": 73,
      "velocity": 49,
      "startTime": 12.0,
      "duration": 0.35546875,
      "endTime": 12.35546875
    },
    {
      "instrumentId": 0,
      "instrumentName": "Instrument_0",
      "isPercussion": false,
      "pitch": 76,
      "velocity": 49,
      "startTime": 12.0,
      "duration": 0.35546875,
      "endTime": 12.35546875
    },
    {
      "instrumentId": 1,
      "instrumentName": "Instrument_1",
      "isPercussion": false,
      "pitch": 56,
      "velocity": 49,
      "startTime": 12.0,
      "duration": 0.17734375000000036,
      "endTime": 12.17734375
    },
    {
      "instrumentId": 1,
      "instrumentName": "Instrument_1",
      "isPercussion": false,
      "pitch": 61,
      "velocity": 49,
      "startTime": 12.0,
      "duration": 0.17734375000000036,
      "endTime": 12.17734375
    },
    {
      "instrumentId": 0,
      "instrumentName": "Instrument_0",
      "isPercussion": false,
      "pitch": 73,
      "velocity": 49,
      "startTime": 12.375,
      "duration": 0.17734375000000036,
      "endTime": 12.55234375
    },
    {
      "instrumentId": 0,
      "instrumentName": "Instrument_0",
      "isPercussion": false,
      "pitch": 76,
      "velocity": 49,
      "startTime": 12.375,
      "duration": 0.17734375000000036,
      "endTime": 12.55234375
    },
    {
      "instrumentId": 0,
      "instrumentName": "Instrument_0",
      "isPercussion": false,
      "pitch": 76,
      "velocity": 49,
      "startTime": 12.5625,
      "duration": 0.17734375000000036,
      "endTime": 12.73984375
    },
    {
      "instrumentId": 1,
      "instrumentName": "Instrument_1",
      "isPercussion": false,
      "pitch": 56,
      "velocity": 49,
      "startTime": 12.5625,
      "duration": 0.17734375000000036,
      "endTime": 12.73984375
    },
    {
      "instrumentId": 1,
      "instrumentName": "Instrument_1",
      "isPercussion": false,
      "pitch": 64,
      "velocity": 49,
      "startTime": 12.5625,
      "duration": 0.17734375000000036,
      "endTime": 12.73984375
    },
    {
      "instrumentId": 0,
      "instrumentName": "Instrument_0",
      "isPercussion": false,
      "pitch": 76,
      "velocity": 49,
      "startTime": 12.75,
      "duration": 0.17734375000000036,
      "endTime": 12.92734375
    },
    {
      "instrumentId": 0,
      "instrumentName": "Instrument_0",
      "isPercussion": false,
      "pitch": 73,
      "velocity": 49,
      "startTime": 12.9375,
      "duration": 0.35546875,
      "endTime": 13.29296875
    },
    {
      "instrumentId": 0,
      "instrumentName": "Instrument_0",
      "isPercussion": false,
      "pitch": 76,
      "velocity": 49,
      "startTime": 12.9375,
      "duration": 0.35546875,
      "endTime": 13.29296875
    },
    {
      "instrumentId": 1,
      "instrumentName": "Instrument_1",
      "isPercussion": false,
      "pitch": 56,
      "velocity": 49,
      "startTime": 13.125,
      "duration": 0.17734375000000036,
      "endTime": 13.30234375
    },
    {
      "instrumentId": 1,
      "instrumentName": "Instrument_1",
      "isPercussion": false,
      "pitch": 61,
      "velocity": 49,
      "startTime": 13.125,
      "duration": 0.17734375000000036,
      "endTime": 13.30234375
    },
    {
      "instrumentId": 0,
      "instrumentName": "Instrument_0",
      "isPercussion": false,
      "pitch": 76,
      "velocity": 49,
      "startTime": 13.3125,
      "duration": 0.35546875,
      "endTime": 13.66796875
    },
    {
      "instrumentId": 1,
      "instrumentName": "Instrument_1",
      "isPercussion": false,
      "pitch": 54,
      "velocity": 49,
      "startTime": 13.5,
      "duration": 0.17734375000000036,
      "endTime": 13.67734375
    },
    {
      "instrumentId": 1,
      "instrumentName": "Instrument_1",
      "isPercussion": false,
      "pitch": 61,
      "velocity": 49,
      "startTime": 13.5,
      "duration": 0.17734375000000036,
      "endTime": 13.67734375
    },
    {
      "instrumentId": 0,
      "instrumentName": "Instrument_0",
      "isPercussion": false,
      "pitch": 76,
      "velocity": 49,
      "startTime": 13.6875,
      "duration": 0.17734375000000036,
      "endTime": 13.86484375
    },
    {
      "instrumentId": 0,
      "instrumentName": "Instrument_0",
      "isPercussion": false,
      "pitch": 73,
      "velocity": 49,
      "startTime": 13.875,
      "duration": 0.35546875,
      "endTime": 14.23046875
    },
    {
      "instrumentId": 0,
      "instrumentName": "Instrument_0",
      "isPercussion": false,
      "pitch": 76,
      "velocity": 49,
      "startTime": 13.875,
      "duration": 0.35546875,
      "endTime": 14.23046875
    },
    {
      "instrumentId": 1,
      "instrumentName": "Instrument_1",
      "isPercussion": false,
      "pitch": 54,
      "velocity": 49,
      "startTime": 14.0625,
      "duration": 0.17734375000000036,
      "endTime": 14.23984375
    },
    {
      "instrumentId": 1,
      "instrumentName": "Instrument_1",
      "isPercussion": false,
      "pitch": 64,
      "velocity": 49,
      "startTime": 14.0625,
      "duration": 0.17734375000000036,
      "endTime": 14.23984375
    },
    {
      "instrumentId": 0,
      "instrumentName": "Instrument_0",
      "isPercussion": false,
      "pitch": 73,
      "velocity": 49,
      "startTime": 14.25,
      "duration": 0.35546875,
      "endTime": 14.60546875
    },
    {
      "instrumentId": 0,
      "instrumentName": "Instrument_0",
      "isPercussion": false,
      "pitch": 76,
      "velocity": 49,
      "startTime": 14.25,
      "duration": 0.35546875,
      "endTime": 14.60546875
    },
    {
      "instrumentId": 0,
      "instrumentName": "Instrument_0",
      "isPercussion": false,
      "pitch": 73,
      "velocity": 49,
      "startTime": 14.625,
      "duration": 0.17734375000000036,
      "endTime": 14.80234375
    },
    {
      "instrumentId": 0,
      "instrumentName": "Instrument_0",
      "isPercussion": false,
      "pitch": 76,
      "velocity": 49,
      "startTime": 14.625,
      "duration": 0.17734375000000036,
      "endTime": 14.80234375
    },
    {
      "instrumentId": 1,
      "instrumentName": "Instrument_1",
      "isPercussion": false,
      "pitch": 54,
      "velocity": 49,
      "startTime": 14.625,
      "duration": 0.17734375000000036,
      "endTime": 14.80234375
    },
    {
      "instrumentId": 1,
      "instrumentName": "Instrument_1",
      "isPercussion": false,
      "pitch": 61,
      "velocity": 49,
      "startTime": 14.625,
      "duration": 0.17734375000000036,
      "endTime": 14.80234375
    },
    {
      "instrumentId": 0,
      "instrumentName": "Instrument_0",
      "isPercussion": false,
      "pitch": 76,
      "velocity": 49,
      "startTime": 14.8125,
      "duration": 0.17734375000000036,
      "endTime": 14.98984375
    },
    {
      "instrumentId": 0,
      "instrumentName": "Instrument_0",
      "isPercussion": false,
      "pitch": 73,
      "velocity": 49,
      "startTime": 15.0,
      "duration": 0.35546875,
      "endTime": 15.35546875
    },
    {
      "instrumentId": 0,
      "instrumentName": "Instrument_0",
      "isPercussion": false,
      "pitch": 76,
      "velocity": 49,
      "startTime": 15.0,
      "duration": 0.35546875,
      "endTime": 15.35546875
    },
    {
      "instrumentId": 1,
      "instrumentName": "Instrument_1",
      "isPercussion": false,
      "pitch": 57,
      "velocity": 49,
      "startTime": 15.0,
      "duration": 0.17734375000000036,
      "endTime": 15.17734375
    },
    {
      "instrumentId": 1,
      "instrumentName": "Instrument_1",
      "isPercussion": false,
      "pitch": 61,
      "velocity": 49,
      "startTime": 15.0,
      "duration": 0.17734375000000036,
      "endTime": 15.17734375
    },
    {
      "instrumentId": 0,
      "instrumentName": "Instrument_0",
      "isPercussion": false,
      "pitch": 73,
      "velocity": 49,
      "startTime": 15.375,
      "duration": 0.35546875,
      "endTime": 15.73046875
    },
    {
      "instrumentId": 0,
      "instrumentName": "Instrument_0",
      "isPercussion": false,
      "pitch": 76,
      "velocity": 49,
      "startTime": 15.375,
      "duration": 0.35546875,
      "endTime": 15.73046875
    },
    {
      "instrumentId": 1,
      "instrumentName": "Instrument_1",
      "isPercussion": false,
      "pitch": 57,
      "velocity": 49,
      "startTime": 15.5625,
      "duration": 0.17734375000000036,
      "endTime": 15.73984375
    },
    {
      "instrumentId": 1,
      "instrumentName": "Instrument_1",
      "isPercussion": false,
      "pitch": 64,
      "velocity": 49,
      "startTime": 15.5625,
      "duration": 0.17734375000000036,
      "endTime": 15.73984375
    },
    {
      "instrumentId": 0,
      "instrumentName": "Instrument_0",
      "isPercussion": false,
      "pitch": 78,
      "velocity": 49,
      "startTime": 15.75,
      "duration": 0.17734375000000036,
      "endTime": 15.92734375
    },
    {
      "instrumentId": 0,
      "instrumentName": "Instrument_0",
      "isPercussion": false,
      "pitch": 76,
      "velocity": 49,
      "startTime": 15.9375,
      "duration": 0.35546875,
      "endTime": 16.29296875
    },
    {
      "instrumentId": 0,
      "instrumentName": "Instrument_0",
      "isPercussion": false,
      "pitch": 80,
      "velocity": 49,
      "startTime": 15.9375,
      "duration": 0.35546875,
      "endTime": 16.29296875
    },
    {
      "instrumentId": 1,
      "instrumentName": "Instrument_1",
      "isPercussion": false,
      "pitch": 57,
      "velocity": 49,
      "startTime": 16.125,
      "duration": 0.17734375000000213,
      "endTime": 16.302343750000002
    },
    {
      "instrumentId": 1,
      "instrumentName": "Instrument_1",
      "isPercussion": false,
      "pitch": 61,
      "velocity": 49,
      "startTime": 16.125,
      "duration": 0.17734375000000213,
      "endTime": 16.302343750000002
    },
    {
      "instrumentId": 0,
      "instrumentName": "Instrument_0",
      "isPercussion": false,
      "pitch": 76,
      "velocity": 49,
      "startTime": 16.3125,
      "duration": 0.8898437500000007,
      "endTime": 17.20234375
    },
    {
      "instrumentId": 0,
      "instrumentName": "Instrument_0",
      "isPercussion": false,
      "pitch": 80,
      "velocity": 49,
      "startTime": 16.3125,
      "duration": 0.8898437500000007,
      "endTime": 17.20234375
    },
    {
      "instrumentId": 1,
      "instrumentName": "Instrument_1",
      "isPercussion": false,
      "pitch": 54,
      "velocity": 49,
      "startTime": 16.5,
      "duration": 0.17734375000000213,
      "endTime": 16.677343750000002
    },
    {
      "instrumentId": 1,
      "instrumentName": "Instrument_1",
      "isPercussion": false,
      "pitch": 59,
      "velocity": 49,
      "startTime": 16.5,
      "duration": 0.17734375000000213,
      "endTime": 16.677343750000002
    },
    {
      "instrumentId": 1,
      "instrumentName": "Instrument_1",
      "isPercussion": false,
      "pitch": 63,
      "velocity": 49,
      "startTime": 16.5,
      "duration": 0.17734375000000213,
      "endTime": 16.677343750000002
    },
    {
      "instrumentId": 1,
      "instrumentName": "Instrument_1",
      "isPercussion": false,
      "pitch": 54,
      "velocity": 49,
      "startTime": 17.0625,
      "duration": 0.17734375000000213,
      "endTime": 17.239843750000002
    },
    {
      "instrumentId": 1,
      "instrumentName": "Instrument_1",
      "isPercussion": false,
      "pitch": 59,
      "velocity": 49,
      "startTime": 17.0625,
      "duration": 0.17734375000000213,
      "endTime": 17.239843750000002
    },
    {
      "instrumentId": 1,
      "instrumentName": "Instrument_1",
      "isPercussion": false,
      "pitch": 61,
      "velocity": 49,
      "startTime": 17.0625,
      "duration": 0.17734375000000213,
      "endTime": 17.239843750000002
    },
    {
      "instrumentId": 1,
      "instrumentName": "Instrument_1",
      "isPercussion": false,
      "pitch": 54,
      "velocity": 49,
      "startTime": 17.625,
      "duration": 0.17734375000000213,
      "endTime": 17.802343750000002
    },
    {
      "instrumentId": 1,
      "instrumentName": "Instrument_1",
      "isPercussion": false,
      "pitch": 59,
      "velocity": 49,
      "startTime": 17.625,
      "duration": 0.17734375000000213,
      "endTime": 17.802343750000002
    },
    {
      "instrumentId": 0,
      "instrumentName": "Instrument_0",
      "isPercussion": false,
      "pitch": 80,
      "velocity": 49,
      "startTime": 18.0,
      "duration": 0.17734375000000213,
      "endTime": 18.177343750000002
    },
    {
      "instrumentId": 0,
      "instrumentName": "Instrument_0",
      "isPercussion": false,
      "pitch": 83,
      "velocity": 49,
      "startTime": 18.0,
      "duration": 0.17734375000000213,
      "endTime": 18.177343750000002
    },
    {
      "instrumentId": 1,
      "instrumentName": "Instrument_1",
      "isPercussion": false,
      "pitch": 56,
      "velocity": 49,
      "startTime": 18.0,
      "duration": 0.17734375000000213,
      "endTime": 18.177343750000002
    },
    {
      "instrumentId": 1,
      "instrumentName": "Instrument_1",
      "isPercussion": false,
      "pitch": 61,
      "velocity": 49,
      "startTime": 18.0,
      "duration": 0.17734375000000213,
      "endTime": 18.177343750000002
    },
    {
      "instrumentId": 0,
      "instrumentName": "Instrument_0",
      "isPercussion": false,
      "pitch": 78,
      "velocity": 49,
      "startTime": 18.1875,
      "duration": 0.17734375000000213,
      "endTime": 18.364843750000002
    },
    {
      "instrumentId": 0,
      "instrumentName": "Instrument_0",
      "isPercussion": false,
      "pitch": 80,
      "velocity": 49,
      "startTime": 18.375,
      "duration": 0.17734375000000213,
      "endTime": 18.552343750000002
    },
    {
      "instrumentId": 0,
      "instrumentName": "Instrument_0",
      "isPercussion": false,
      "pitch": 76,
      "velocity": 49,
      "startTime": 18.5625,
      "duration": 0.35546875,
      "endTime": 18.91796875
    },
    {
      "instrumentId": 0,
      "instrumentName": "Instrument_0",
      "isPercussion": false,
      "pitch": 80,
      "velocity": 49,
      "startTime": 18.5625,
      "duration": 0.35546875,
      "endTime": 18.91796875
    },
    {
      "instrumentId": 1,
      "instrumentName": "Instrument_1",
      "isPercussion": false,
      "pitch": 56,
      "velocity": 49,
      "startTime": 18.5625,
      "duration": 0.17734375000000213,
      "endTime": 18.739843750000002
    },
    {
      "instrumentId": 1,
      "instrumentName": "Instrument_1",
      "isPercussion": false,
      "pitch": 64,
      "velocity": 49,
      "startTime": 18.5625,
      "duration": 0.17734375000000213,
      "endTime": 18.739843750000002
    },
    {
      "instrumentId": 0,
      "instrumentName": "Instrument_0",
      "isPercussion": false,
      "pitch": 76,
      "velocity": 49,
      "startTime": 18.9375,
      "duration": 0.17734375000000213,
      "endTime": 19.114843750000002
    },
    {
      "instrumentId": 0,
      "instrumentName": "Instrument_0",
      "isPercussion": false,
      "pitch": 80,
      "velocity": 49,
      "startTime": 18.9375,
      "duration": 0.17734375000000213,
      "endTime": 19.114843750000002
    },
    {
      "instrumentId": 1,
      "instrumentName": "Instrument_1",
      "isPercussion": false,
      "pitch": 56,
      "velocity": 49,
      "startTime": 19.125,
      "duration": 0.17734375000000213,
      "endTime": 19.302343750000002
    },
    {
      "instrumentId": 1,
      "instrumentName": "Instrument_1",
      "isPercussion": false,
      "pitch": 61,
      "velocity": 49,
      "startTime": 19.125,
      "duration": 0.17734375000000213,
      "endTime": 19.302343750000002
    },
    {
      "instrumentId": 0,
      "instrumentName": "Instrument_0",
      "isPercussion": false,
      "pitch": 76,
      "velocity": 49,
      "startTime": 19.3125,
      "duration": 0.17734375000000213,
      "endTime": 19.489843750000002
    },
    {
      "instrumentId": 0,
      "instrumentName": "Instrument_0",
      "isPercussion": false,
      "pitch": 80,
      "velocity": 49,
      "startTime": 19.3125,
      "duration": 0.17734375000000213,
      "endTime": 19.489843750000002
    },
    {
      "instrumentId": 0,
      "instrumentName": "Instrument_0",
      "isPercussion": false,
      "pitch": 75,
      "velocity": 49,
      "startTime": 19.5,
      "duration": 0.17734375000000213,
      "endTime": 19.677343750000002
    },
    {
      "instrumentId": 0,
      "instrumentName": "Instrument_0",
      "isPercussion": false,
      "pitch": 78,
      "velocity": 49,
      "startTime": 19.5,
      "duration": 0.17734375000000213,
      "endTime": 19.677343750000002
    },
    {
      "instrumentId": 1,
      "instrumentName": "Instrument_1",
      "isPercussion": false,
      "pitch": 54,
      "velocity": 49,
      "startTime": 19.5,
      "duration": 0.17734375000000213,
      "endTime": 19.677343750000002
    },
    {
      "instrumentId": 1,
      "instrumentName": "Instrument_1",
      "isPercussion": false,
      "pitch": 61,
      "velocity": 49,
      "startTime": 19.5,
      "duration": 0.17734375000000213,
      "endTime": 19.677343750000002
    },
    {
      "instrumentId": 0,
      "instrumentName": "Instrument_0",
      "isPercussion": false,
      "pitch": 78,
      "velocity": 49,
      "startTime": 19.6875,
      "duration": 0.17734375000000213,
      "endTime": 19.864843750000002
    },
    {
      "instrumentId": 0,
      "instrumentName": "Instrument_0",
      "isPercussion": false,
      "pitch": 75,
      "velocity": 49,
      "startTime": 19.875,
      "duration": 0.17734375000000213,
      "endTime": 20.052343750000002
    },
    {
      "instrumentId": 0,
      "instrumentName": "Instrument_0",
      "isPercussion": false,
      "pitch": 78,
      "velocity": 49,
      "startTime": 19.875,
      "duration": 0.17734375000000213,
      "endTime": 20.052343750000002
    },
    {
      "instrumentId": 0,
      "instrumentName": "Instrument_0",
      "isPercussion": false,
      "pitch": 80,
      "velocity": 49,
      "startTime": 20.0625,
      "duration": 0.17734375000000213,
      "endTime": 20.239843750000002
    },
    {
      "instrumentId": 1,
      "instrumentName": "Instrument_1",
      "isPercussion": false,
      "pitch": 54,
      "velocity": 49,
      "startTime": 20.0625,
      "duration": 0.17734375000000213,
      "endTime": 20.239843750000002
    },
    {
      "instrumentId": 1,
      "instrumentName": "Instrument_1",
      "isPercussion": false,
      "pitch": 64,
      "velocity": 49,
      "startTime": 20.0625,
      "duration": 0.17734375000000213,
      "endTime": 20.239843750000002
    },
    {
      "instrumentId": 0,
      "instrumentName": "Instrument_0",
      "isPercussion": false,
      "pitch": 75,
      "velocity": 49,
      "startTime": 20.25,
      "duration": 0.35546875,
      "endTime": 20.60546875
    },
    {
      "instrumentId": 0,
      "instrumentName": "Instrument_0",
      "isPercussion": false,
      "pitch": 78,
      "velocity": 49,
      "startTime": 20.25,
      "duration": 0.35546875,
      "endTime": 20.60546875
    },
    {
      "instrumentId": 0,
      "instrumentName": "Instrument_0",
      "isPercussion": false,
      "pitch": 78,
      "velocity": 49,
      "startTime": 20.625,
      "duration": 0.17734375000000213,
      "endTime": 20.802343750000002
    },
    {
      "instrumentId": 1,
      "instrumentName": "Instrument_1",
      "isPercussion": false,
      "pitch": 54,
      "velocity": 49,
      "startTime": 20.625,
      "duration": 0.17734375000000213,
      "endTime": 20.802343750000002
    },
    {
      "instrumentId": 1,
      "instrumentName": "Instrument_1",
      "isPercussion": false,
      "pitch": 61,
      "velocity": 49,
      "startTime": 20.625,
      "duration": 0.17734375000000213,
      "endTime": 20.802343750000002
    },
    {
      "instrumentId": 0,
      "instrumentName": "Instrument_0",
      "isPercussion": false,
      "pitch": 76,
      "velocity": 49,
      "startTime": 20.8125,
      "duration": 0.17734375000000213,
      "endTime": 20.989843750000002
    },
    {
      "instrumentId": 0,
      "instrumentName": "Instrument_0",
      "isPercussion": false,
      "pitch": 75,
      "velocity": 49,
      "startTime": 21.0,
      "duration": 0.35546875,
      "endTime": 21.35546875
    },
    {
      "instrumentId": 0,
      "instrumentName": "Instrument_0",
      "isPercussion": false,
      "pitch": 78,
      "velocity": 49,
      "startTime": 21.0,
      "duration": 0.35546875,
      "endTime": 21.35546875
    },
    {
      "instrumentId": 1,
      "instrumentName": "Instrument_1",
      "isPercussion": false,
      "pitch": 57,
      "velocity": 49,
      "startTime": 21.0,
      "duration": 0.17734375000000213,
      "endTime": 21.177343750000002
    },
    {
      "instrumentId": 1,
      "instrumentName": "Instrument_1",
      "isPercussion": false,
      "pitch": 61,
      "velocity": 49,
      "startTime": 21.0,
      "duration": 0.17734375000000213,
      "endTime": 21.177343750000002
    },
    {
      "instrumentId": 0,
      "instrumentName": "Instrument_0",
      "isPercussion": false,
      "pitch": 75,
      "velocity": 49,
      "startTime": 21.375,
      "duration": 0.17734375000000213,
      "endTime": 21.552343750000002
    },
    {
      "instrumentId": 0,
      "instrumentName": "Instrument_0",
      "isPercussion": false,
      "pitch": 78,
      "velocity": 49,
      "startTime": 21.375,
      "duration": 0.17734375000000213,
      "endTime": 21.552343750000002
    },
    {
      "instrumentId": 0,
      "instrumentName": "Instrument_0",
      "isPercussion": false,
      "pitch": 78,
      "velocity": 49,
      "startTime": 21.5625,
      "duration": 0.17734375000000213,
      "endTime": 21.739843750000002
    },
    {
      "instrumentId": 1,
      "instrumentName": "Instrument_1",
      "isPercussion": false,
      "pitch": 57,
      "velocity": 49,
      "startTime": 21.5625,
      "duration": 0.17734375000000213,
      "endTime": 21.739843750000002
    },
    {
      "instrumentId": 1,
      "instrumentName": "Instrument_1",
      "isPercussion": false,
      "pitch": 64,
      "velocity": 49,
      "startTime": 21.5625,
      "duration": 0.17734375000000213,
      "endTime": 21.739843750000002
    },
    {
      "instrumentId": 0,
      "instrumentName": "Instrument_0",
      "isPercussion": false,
      "pitch": 78,
      "velocity": 49,
      "startTime": 21.75,
      "duration": 0.17734375000000213,
      "endTime": 21.927343750000002
    },
    {
      "instrumentId": 0,
      "instrumentName": "Instrument_0",
      "isPercussion": false,
      "pitch": 73,
      "velocity": 49,
      "startTime": 21.9375,
      "duration": 0.35546875,
      "endTime": 22.29296875
    },
    {
      "instrumentId": 0,
      "instrumentName": "Instrument_0",
      "isPercussion": false,
      "pitch": 76,
      "velocity": 49,
      "startTime": 21.9375,
      "duration": 0.35546875,
      "endTime": 22.29296875
    },
    {
      "instrumentId": 1,
      "instrumentName": "Instrument_1",
      "isPercussion": false,
      "pitch": 57,
      "velocity": 49,
      "startTime": 22.125,
      "duration": 0.17734375000000213,
      "endTime": 22.302343750000002
    },
    {
      "instrumentId": 1,
      "instrumentName": "Instrument_1",
      "isPercussion": false,
      "pitch": 61,
      "velocity": 49,
      "startTime": 22.125,
      "duration": 0.17734375000000213,
      "endTime": 22.302343750000002
    },
    {
      "instrumentId": 0,
      "instrumentName": "Instrument_0",
      "isPercussion": false,
      "pitch": 64,
      "velocity": 49,
      "startTime": 22.3125,
      "duration": 0.8898437500000007,
      "endTime": 23.20234375
    },
    {
      "instrumentId": 0,
      "instrumentName": "Instrument_0",
      "isPercussion": false,
      "pitch": 68,
      "velocity": 49,
      "startTime": 22.3125,
      "duration": 0.8898437500000007,
      "endTime": 23.20234375
    },
    {
      "instrumentId": 0,
      "instrumentName": "Instrument_0",
      "isPercussion": false,
      "pitch": 73,
      "velocity": 49,
      "startTime": 22.3125,
      "duration": 0.8898437500000007,
      "endTime": 23.20234375
    },
    {
      "instrumentId": 1,
      "instrumentName": "Instrument_1",
      "isPercussion": false,
      "pitch": 54,
      "velocity": 49,
      "startTime": 22.5,
      "duration": 0.17734375000000213,
      "endTime": 22.677343750000002
    },
    {
      "instrumentId": 1,
      "instrumentName": "Instrument_1",
      "isPercussion": false,
      "pitch": 59,
      "velocity": 49,
      "startTime": 22.5,
      "duration": 0.17734375000000213,
      "endTime": 22.677343750000002
    },
    {
      "instrumentId": 1,
      "instrumentName": "Instrument_1",
      "isPercussion": false,
      "pitch": 63,
      "velocity": 49,
      "startTime": 22.5,
      "duration": 0.17734375000000213,
      "endTime": 22.677343750000002
    },
    {
      "instrumentId": 1,
      "instrumentName": "Instrument_1",
      "isPercussion": false,
      "pitch": 54,
      "velocity": 49,
      "startTime": 23.0625,
      "duration": 0.17734375000000213,
      "endTime": 23.239843750000002
    },
    {
      "instrumentId": 1,
      "instrumentName": "Instrument_1",
      "isPercussion": false,
      "pitch": 59,
      "velocity": 49,
      "startTime": 23.0625,
      "duration": 0.17734375000000213,
      "endTime": 23.239843750000002
    },
    {
      "instrumentId": 1,
      "instrumentName": "Instrument_1",
      "isPercussion": false,
      "pitch": 61,
      "velocity": 49,
      "startTime": 23.0625,
      "duration": 0.17734375000000213,
      "endTime": 23.239843750000002
    },
    {
      "instrumentId": 1,
      "instrumentName": "Instrument_1",
      "isPercussion": false,
      "pitch": 54,
      "velocity": 49,
      "startTime": 23.625,
      "duration": 0.17734375000000213,
      "endTime": 23.802343750000002
    },
    {
      "instrumentId": 1,
      "instrumentName": "Instrument_1",
      "isPercussion": false,
      "pitch": 59,
      "velocity": 49,
      "startTime": 23.625,
      "duration": 0.17734375000000213,
      "endTime": 23.802343750000002
    },
    {
      "instrumentId": 0,
      "instrumentName": "Instrument_0",
      "isPercussion": false,
      "pitch": 73,
      "velocity": 49,
      "startTime": 23.8125,
      "duration": 0.17734375000000213,
      "endTime": 23.989843750000002
    },
    {
      "instrumentId": 0,
      "instrumentName": "Instrument_0",
      "isPercussion": false,
      "pitch": 76,
      "velocity": 49,
      "startTime": 24.0,
      "duration": 0.17734375000000213,
      "endTime": 24.177343750000002
    },
    {
      "instrumentId": 0,
      "instrumentName": "Instrument_0",
      "isPercussion": false,
      "pitch": 80,
      "velocity": 49,
      "startTime": 24.0,
      "duration": 0.17734375000000213,
      "endTime": 24.177343750000002
    },
    {
      "instrumentId": 1,
      "instrumentName": "Instrument_1",
      "isPercussion": false,
      "pitch": 56,
      "velocity": 49,
      "startTime": 24.0,
      "duration": 0.17734375000000213,
      "endTime": 24.177343750000002
    },
    {
      "instrumentId": 1,
      "instrumentName": "Instrument_1",
      "isPercussion": false,
      "pitch": 61,
      "velocity": 49,
      "startTime": 24.0,
      "duration": 0.17734375000000213,
      "endTime": 24.177343750000002
    },
    {
      "instrumentId": 0,
      "instrumentName": "Instrument_0",
      "isPercussion": false,
      "pitch": 80,
      "velocity": 49,
      "startTime": 24.1875,
      "duration": 0.17734375000000213,
      "endTime": 24.364843750000002
    },
    {
      "instrumentId": 0,
      "instrumentName": "Instrument_0",
      "isPercussion": false,
      "pitch": 76,
      "velocity": 49,
      "startTime": 24.375,
      "duration": 0.17734375000000213,
      "endTime": 24.552343750000002
    },
    {
      "instrumentId": 0,
      "instrumentName": "Instrument_0",
      "isPercussion": false,
      "pitch": 80,
      "velocity": 49,
      "startTime": 24.375,
      "duration": 0.17734375000000213,
      "endTime": 24.552343750000002
    },
    {
      "instrumentId": 0,
      "instrumentName": "Instrument_0",
      "isPercussion": false,
      "pitch": 80,
      "velocity": 49,
      "startTime": 24.5625,
      "duration": 0.17734375000000213,
      "endTime": 24.739843750000002
    },
    {
      "instrumentId": 1,
      "instrumentName": "Instrument_1",
      "isPercussion": false,
      "pitch": 56,
      "velocity": 49,
      "startTime": 24.5625,
      "duration": 0.17734375000000213,
      "endTime": 24.739843750000002
    },
    {
      "instrumentId": 1,
      "instrumentName": "Instrument_1",
      "isPercussion": false,
      "pitch": 64,
      "velocity": 49,
      "startTime": 24.5625,
      "duration": 0.17734375000000213,
      "endTime": 24.739843750000002
    },
    {
      "instrumentId": 0,
      "instrumentName": "Instrument_0",
      "isPercussion": false,
      "pitch": 76,
      "velocity": 49,
      "startTime": 24.75,
      "duration": 0.17734375000000213,
      "endTime": 24.927343750000002
    },
    {
      "instrumentId": 0,
      "instrumentName": "Instrument_0",
      "isPercussion": false,
      "pitch": 80,
      "velocity": 49,
      "startTime": 24.75,
      "duration": 0.17734375000000213,
      "endTime": 24.927343750000002
    },
    {
      "instrumentId": 0,
      "instrumentName": "Instrument_0",
      "isPercussion": false,
      "pitch": 80,
      "velocity": 49,
      "startTime": 24.9375,
      "duration": 0.17734375000000213,
      "endTime": 25.114843750000002
    },
    {
      "instrumentId": 0,
      "instrumentName": "Instrument_0",
      "isPercussion": false,
      "pitch": 76,
      "velocity": 49,
      "startTime": 25.125,
      "duration": 0.17734375000000213,
      "endTime": 25.302343750000002
    },
    {
      "instrumentId": 0,
      "instrumentName": "Instrument_0",
      "isPercussion": false,
      "pitch": 80,
      "velocity": 49,
      "startTime": 25.125,
      "duration": 0.17734375000000213,
      "endTime": 25.302343750000002
    },
    {
      "instrumentId": 1,
      "instrumentName": "Instrument_1",
      "isPercussion": false,
      "pitch": 56,
      "velocity": 49,
      "startTime": 25.125,
      "duration": 0.17734375000000213,
      "endTime": 25.302343750000002
    },
    {
      "instrumentId": 1,
      "instrumentName": "Instrument_1",
      "isPercussion": false,
      "pitch": 61,
      "velocity": 49,
      "startTime": 25.125,
      "duration": 0.17734375000000213,
      "endTime": 25.302343750000002
    },
    {
      "instrumentId": 0,
      "instrumentName": "Instrument_0",
      "isPercussion": false,
      "pitch": 80,
      "velocity": 49,
      "startTime": 25.3125,
      "duration": 0.17734375000000213,
      "endTime": 25.489843750000002
    },
    {
      "instrumentId": 0,
      "instrumentName": "Instrument_0",
      "isPercussion": false,
      "pitch": 76,
      "velocity": 49,
      "startTime": 25.5,
      "duration": 0.17734375000000213,
      "endTime": 25.677343750000002
    },
    {
      "instrumentId": 0,
      "instrumentName": "Instrument_0",
      "isPercussion": false,
      "pitch": 80,
      "velocity": 49,
      "startTime": 25.5,
      "duration": 0.17734375000000213,
      "endTime": 25.677343750000002
    },
    {
      "instrumentId": 1,
      "instrumentName": "Instrument_1",
      "isPercussion": false,
      "pitch": 54,
      "velocity": 49,
      "startTime": 25.5,
      "duration": 0.17734375000000213,
      "endTime": 25.677343750000002
    },
    {
      "instrumentId": 1,
      "instrumentName": "Instrument_1",
      "isPercussion": false,
      "pitch": 61,
      "velocity": 49,
      "startTime": 25.5,
      "duration": 0.17734375000000213,
      "endTime": 25.677343750000002
    },
    {
      "instrumentId": 0,
      "instrumentName": "Instrument_0",
      "isPercussion": false,
      "pitch": 80,
      "velocity": 49,
      "startTime": 25.6875,
      "duration": 0.17734375000000213,
      "endTime": 25.864843750000002
    },
    {
      "instrumentId": 0,
      "instrumentName": "Instrument_0",
      "isPercussion": false,
      "pitch": 76,
      "velocity": 49,
      "startTime": 25.875,
      "duration": 0.17734375000000213,
      "endTime": 26.052343750000002
    },
    {
      "instrumentId": 0,
      "instrumentName": "Instrument_0",
      "isPercussion": false,
      "pitch": 80,
      "velocity": 49,
      "startTime": 25.875,
      "duration": 0.17734375000000213,
      "endTime": 26.052343750000002
    },
    {
      "instrumentId": 0,
      "instrumentName": "Instrument_0",
      "isPercussion": false,
      "pitch": 76,
      "velocity": 49,
      "startTime": 26.0625,
      "duration": 0.35546875,
      "endTime": 26.41796875
    },
    {
      "instrumentId": 0,
      "instrumentName": "Instrument_0",
      "isPercussion": false,
      "pitch": 80,
      "velocity": 49,
      "startTime": 26.0625,
      "duration": 0.35546875,
      "endTime": 26.41796875
    },
    {
      "instrumentId": 1,
      "instrumentName": "Instrument_1",
      "isPercussion": false,
      "pitch": 54,
      "velocity": 49,
      "startTime": 26.0625,
      "duration": 0.17734375000000213,
      "endTime": 26.239843750000002
    },
    {
      "instrumentId": 1,
      "instrumentName": "Instrument_1",
      "isPercussion": false,
      "pitch": 64,
      "velocity": 49,
      "startTime": 26.0625,
      "duration": 0.17734375000000213,
      "endTime": 26.239843750000002
    },
    {
      "instrumentId": 0,
      "instrumentName": "Instrument_0",
      "isPercussion": false,
      "pitch": 76,
      "velocity": 49,
      "startTime": 26.4375,
      "duration": 0.35546875,
      "endTime": 26.79296875
    },
    {
      "instrumentId": 0,
      "instrumentName": "Instrument_0",
      "isPercussion": false,
      "pitch": 80,
      "velocity": 49,
      "startTime": 26.4375,
      "duration": 0.35546875,
      "endTime": 26.79296875
    },
    {
      "instrumentId": 1,
      "instrumentName": "Instrument_1",
      "isPercussion": false,
      "pitch": 54,
      "velocity": 49,
      "startTime": 26.625,
      "duration": 0.17734375000000213,
      "endTime": 26.802343750000002
    },
    {
      "instrumentId": 1,
      "instrumentName": "Instrument_1",
      "isPercussion": false,
      "pitch": 61,
      "velocity": 49,
      "startTime": 26.625,
      "duration": 0.17734375000000213,
      "endTime": 26.802343750000002
    },
    {
      "instrumentId": 0,
      "instrumentName": "Instrument_0",
      "isPercussion": false,
      "pitch": 80,
      "velocity": 49,
      "startTime": 26.8125,
      "duration": 0.17734375000000213,
      "endTime": 26.989843750000002
    },
    {
      "instrumentId": 0,
      "instrumentName": "Instrument_0",
      "isPercussion": false,
      "pitch": 80,
      "velocity": 49,
      "startTime": 27.0,
      "duration": 0.35546875,
      "endTime": 27.35546875
    },
    {
      "instrumentId": 0,
      "instrumentName": "Instrument_0",
      "isPercussion": false,
      "pitch": 83,
      "velocity": 49,
      "startTime": 27.0,
      "duration": 0.35546875,
      "endTime": 27.35546875
    },
    {
      "instrumentId": 1,
      "instrumentName": "Instrument_1",
      "isPercussion": false,
      "pitch": 57,
      "velocity": 49,
      "startTime": 27.0,
      "duration": 0.17734375000000213,
      "endTime": 27.177343750000002
    },
    {
      "instrumentId": 1,
      "instrumentName": "Instrument_1",
      "isPercussion": false,
      "pitch": 61,
      "velocity": 49,
      "startTime": 27.0,
      "duration": 0.17734375000000213,
      "endTime": 27.177343750000002
    },
    {
      "instrumentId": 0,
      "instrumentName": "Instrument_0",
      "isPercussion": false,
      "pitch": 80,
      "velocity": 49,
      "startTime": 27.375,
      "duration": 0.17734375000000213,
      "endTime": 27.552343750000002
    },
    {
      "instrumentId": 0,
      "instrumentName": "Instrument_0",
      "isPercussion": false,
      "pitch": 80,
      "velocity": 49,
      "startTime": 27.5625,
      "duration": 0.17734375000000213,
      "endTime": 27.739843750000002
    },
    {
      "instrumentId": 1,
      "instrumentName": "Instrument_1",
      "isPercussion": false,
      "pitch": 57,
      "velocity": 49,
      "startTime": 27.5625,
      "duration": 0.17734375000000213,
      "endTime": 27.739843750000002
    },
    {
      "instrumentId": 1,
      "instrumentName": "Instrument_1",
      "isPercussion": false,
      "pitch": 64,
      "velocity": 49,
      "startTime": 27.5625,
      "duration": 0.17734375000000213,
      "endTime": 27.739843750000002
    },
    {
      "instrumentId": 0,
      "instrumentName": "Instrument_0",
      "isPercussion": false,
      "pitch": 78,
      "velocity": 49,
      "startTime": 27.75,
      "duration": 0.17734375000000213,
      "endTime": 27.927343750000002
    },
    {
      "instrumentId": 0,
      "instrumentName": "Instrument_0",
      "isPercussion": false,
      "pitch": 78,
      "velocity": 49,
      "startTime": 27.9375,
      "duration": 0.17734375000000213,
      "endTime": 28.114843750000002
    },
    {
      "instrumentId": 0,
      "instrumentName": "Instrument_0",
      "isPercussion": false,
      "pitch": 76,
      "velocity": 49,
      "startTime": 28.125,
      "duration": 0.17734375000000213,
      "endTime": 28.302343750000002
    },
    {
      "instrumentId": 1,
      "instrumentName": "Instrument_1",
      "isPercussion": false,
      "pitch": 57,
      "velocity": 49,
      "startTime": 28.125,
      "duration": 0.17734375000000213,
      "endTime": 28.302343750000002
    },
    {
      "instrumentId": 1,
      "instrumentName": "Instrument_1",
      "isPercussion": false,
      "pitch": 61,
      "velocity": 49,
      "startTime": 28.125,
      "duration": 0.17734375000000213,
      "endTime": 28.302343750000002
    },
    {
      "instrumentId": 0,
      "instrumentName": "Instrument_0",
      "isPercussion": false,
      "pitch": 76,
      "velocity": 49,
      "startTime": 28.3125,
      "duration": 0.8898437500000007,
      "endTime": 29.20234375
    },
    {
      "instrumentId": 0,
      "instrumentName": "Instrument_0",
      "isPercussion": false,
      "pitch": 80,
      "velocity": 49,
      "startTime": 28.3125,
      "duration": 0.8898437500000007,
      "endTime": 29.20234375
    },
    {
      "instrumentId": 1,
      "instrumentName": "Instrument_1",
      "isPercussion": false,
      "pitch": 54,
      "velocity": 49,
      "startTime": 28.5,
      "duration": 0.17734375000000213,
      "endTime": 28.677343750000002
    },
    {
      "instrumentId": 1,
      "instrumentName": "Instrument_1",
      "isPercussion": false,
      "pitch": 59,
      "velocity": 49,
      "startTime": 28.5,
      "duration": 0.17734375000000213,
      "endTime": 28.677343750000002
    },
    {
      "instrumentId": 1,
      "instrumentName": "Instrument_1",
      "isPercussion": false,
      "pitch": 63,
      "velocity": 49,
      "startTime": 28.5,
      "duration": 0.17734375000000213,
      "endTime": 28.677343750000002
    },
    {
      "instrumentId": 1,
      "instrumentName": "Instrument_1",
      "isPercussion": false,
      "pitch": 54,
      "velocity": 49,
      "startTime": 29.0625,
      "duration": 0.17734375000000213,
      "endTime": 29.239843750000002
    },
    {
      "instrumentId": 1,
      "instrumentName": "Instrument_1",
      "isPercussion": false,
      "pitch": 59,
      "velocity": 49,
      "startTime": 29.0625,
      "duration": 0.17734375000000213,
      "endTime": 29.239843750000002
    },
    {
      "instrumentId": 1,
      "instrumentName": "Instrument_1",
      "isPercussion": false,
      "pitch": 61,
      "velocity": 49,
      "startTime": 29.0625,
      "duration": 0.17734375000000213,
      "endTime": 29.239843750000002
    },
    {
      "instrumentId": 0,
      "instrumentName": "Instrument_0",
      "isPercussion": false,
      "pitch": 78,
      "velocity": 49,
      "startTime": 29.25,
      "duration": 0.17734375000000213,
      "endTime": 29.427343750000002
    },
    {
      "instrumentId": 0,
      "instrumentName": "Instrument_0",
      "isPercussion": false,
      "pitch": 76,
      "velocity": 49,
      "startTime": 29.4375,
      "duration": 0.17734375000000213,
      "endTime": 29.614843750000002
    },
    {
      "instrumentId": 0,
      "instrumentName": "Instrument_0",
      "isPercussion": false,
      "pitch": 76,
      "velocity": 49,
      "startTime": 29.625,
      "duration": 0.17734375000000213,
      "endTime": 29.802343750000002
    },
    {
      "instrumentId": 1,
      "instrumentName": "Instrument_1",
      "isPercussion": false,
      "pitch": 54,
      "velocity": 49,
      "startTime": 29.625,
      "duration": 0.17734375000000213,
      "endTime": 29.802343750000002
    },
    {
      "instrumentId": 1,
      "instrumentName": "Instrument_1",
      "isPercussion": false,
      "pitch": 59,
      "velocity": 49,
      "startTime": 29.625,
      "duration": 0.17734375000000213,
      "endTime": 29.802343750000002
    },
    {
      "instrumentId": 0,
      "instrumentName": "Instrument_0",
      "isPercussion": false,
      "pitch": 76,
      "velocity": 49,
      "startTime": 29.8125,
      "duration": 0.17734375000000213,
      "endTime": 29.989843750000002
    },
    {
      "instrumentId": 0,
      "instrumentName": "Instrument_0",
      "isPercussion": false,
      "pitch": 73,
      "velocity": 49,
      "startTime": 30.0,
      "duration": 0.5335937500000014,
      "endTime": 30.53359375
    },
    {
      "instrumentId": 0,
      "instrumentName": "Instrument_0",
      "isPercussion": false,
      "pitch": 76,
      "velocity": 49,
      "startTime": 30.0,
      "duration": 0.5335937500000014,
      "endTime": 30.53359375
    },
    {
      "instrumentId": 1,
      "instrumentName": "Instrument_1",
      "isPercussion": false,
      "pitch": 56,
      "velocity": 49,
      "startTime": 30.0,
      "duration": 0.17734375000000213,
      "endTime": 30.177343750000002
    },
    {
      "instrumentId": 1,
      "instrumentName": "Instrument_1",
      "isPercussion": false,
      "pitch": 61,
      "velocity": 49,
      "startTime": 30.0,
      "duration": 0.17734375000000213,
      "endTime": 30.177343750000002
    },
    {
      "instrumentId": 0,
      "instrumentName": "Instrument_0",
      "isPercussion": false,
      "pitch": 80,
      "velocity": 49,
      "startTime": 30.5625,
      "duration": 0.35546875,
      "endTime": 30.91796875
    },
    {
      "instrumentId": 0,
      "instrumentName": "Instrument_0",
      "isPercussion": false,
      "pitch": 83,
      "velocity": 49,
      "startTime": 30.5625,
      "duration": 0.35546875,
      "endTime": 30.91796875
    },
    {
      "instrumentId": 1,
      "instrumentName": "Instrument_1",
      "isPercussion": false,
      "pitch": 56,
      "velocity": 49,
      "startTime": 30.5625,
      "duration": 0.17734375000000213,
      "endTime": 30.739843750000002
    },
    {
      "instrumentId": 1,
      "instrumentName": "Instrument_1",
      "isPercussion": false,
      "pitch": 64,
      "velocity": 49,
      "startTime": 30.5625,
      "duration": 0.17734375000000213,
      "endTime": 30.739843750000002
    },
    {
      "instrumentId": 0,
      "instrumentName": "Instrument_0",
      "isPercussion": false,
      "pitch": 76,
      "velocity": 49,
      "startTime": 30.9375,
      "duration": 0.17734375000000213,
      "endTime": 31.114843750000002
    },
    {
      "instrumentId": 0,
      "instrumentName": "Instrument_0",
      "isPercussion": false,
      "pitch": 80,
      "velocity": 49,
      "startTime": 30.9375,
      "duration": 0.17734375000000213,
      "endTime": 31.114843750000002
    },
    {
      "instrumentId": 0,
      "instrumentName": "Instrument_0",
      "isPercussion": false,
      "pitch": 80,
      "velocity": 49,
      "startTime": 31.125,
      "duration": 0.17734375000000213,
      "endTime": 31.302343750000002
    },
    {
      "instrumentId": 1,
      "instrumentName": "Instrument_1",
      "isPercussion": false,
      "pitch": 56,
      "velocity": 49,
      "startTime": 31.125,
      "duration": 0.17734375000000213,
      "endTime": 31.302343750000002
    },
    {
      "instrumentId": 1,
      "instrumentName": "Instrument_1",
      "isPercussion": false,
      "pitch": 61,
      "velocity": 49,
      "startTime": 31.125,
      "duration": 0.17734375000000213,
      "endTime": 31.302343750000002
    },
    {
      "instrumentId": 0,
      "instrumentName": "Instrument_0",
      "isPercussion": false,
      "pitch": 80,
      "velocity": 49,
      "startTime": 31.3125,
      "duration": 0.17734375000000213,
      "endTime": 31.489843750000002
    },
    {
      "instrumentId": 0,
      "instrumentName": "Instrument_0",
      "isPercussion": false,
      "pitch": 75,
      "velocity": 49,
      "startTime": 31.5,
      "duration": 0.17734375000000213,
      "endTime": 31.677343750000002
    },
    {
      "instrumentId": 0,
      "instrumentName": "Instrument_0",
      "isPercussion": false,
      "pitch": 78,
      "velocity": 49,
      "startTime": 31.5,
      "duration": 0.17734375000000213,
      "endTime": 31.677343750000002
    },
    {
      "instrumentId": 1,
      "instrumentName": "Instrument_1",
      "isPercussion": false,
      "pitch": 54,
      "velocity": 49,
      "startTime": 31.5,
      "duration": 0.17734375000000213,
      "endTime": 31.677343750000002
    },
    {
      "instrumentId": 1,
      "instrumentName": "Instrument_1",
      "isPercussion": false,
      "pitch": 61,
      "velocity": 49,
      "startTime": 31.5,
      "duration": 0.17734375000000213,
      "endTime": 31.677343750000002
    },
    {
      "instrumentId": 0,
      "instrumentName": "Instrument_0",
      "isPercussion": false,
      "pitch": 78,
      "velocity": 49,
      "startTime": 31.6875,
      "duration": 0.17734375000000213,
      "endTime": 31.864843750000002
    },
    {
      "instrumentId": 0,
      "instrumentName": "Instrument_0",
      "isPercussion": false,
      "pitch": 78,
      "velocity": 49,
      "startTime": 31.875,
      "duration": 0.17734374999999858,
      "endTime": 32.05234375
    },
    {
      "instrumentId": 0,
      "instrumentName": "Instrument_0",
      "isPercussion": false,
      "pitch": 75,
      "velocity": 49,
      "startTime": 32.0625,
      "duration": 0.35546875,
      "endTime": 32.41796875
    },
    {
      "instrumentId": 0,
      "instrumentName": "Instrument_0",
      "isPercussion": false,
      "pitch": 78,
      "velocity": 49,
      "startTime": 32.0625,
      "duration": 0.35546875,
      "endTime": 32.41796875
    },
    {
      "instrumentId": 1,
      "instrumentName": "Instrument_1",
      "isPercussion": false,
      "pitch": 54,
      "velocity": 49,
      "startTime": 32.0625,
      "duration": 0.17734374999999858,
      "endTime": 32.23984375
    },
    {
      "instrumentId": 1,
      "instrumentName": "Instrument_1",
      "isPercussion": false,
      "pitch": 64,
      "velocity": 49,
      "startTime": 32.0625,
      "duration": 0.17734374999999858,
      "endTime": 32.23984375
    },
    {
      "instrumentId": 0,
      "instrumentName": "Instrument_0",
      "isPercussion": false,
      "pitch": 75,
      "velocity": 49,
      "startTime": 32.4375,
      "duration": 0.35546875,
      "endTime": 32.79296875
    },
    {
      "instrumentId": 0,
      "instrumentName": "Instrument_0",
      "isPercussion": false,
      "pitch": 78,
      "velocity": 49,
      "startTime": 32.4375,
      "duration": 0.35546875,
      "endTime": 32.79296875
    },
    {
      "instrumentId": 1,
      "instrumentName": "Instrument_1",
      "isPercussion": false,
      "pitch": 54,
      "velocity": 49,
      "startTime": 32.625,
      "duration": 0.17734374999999858,
      "endTime": 32.80234375
    },
    {
      "instrumentId": 1,
      "instrumentName": "Instrument_1",
      "isPercussion": false,
      "pitch": 61,
      "velocity": 49,
      "startTime": 32.625,
      "duration": 0.17734374999999858,
      "endTime": 32.80234375
    },
    {
      "instrumentId": 0,
      "instrumentName": "Instrument_0",
      "isPercussion": false,
      "pitch": 78,
      "velocity": 49,
      "startTime": 32.8125,
      "duration": 0.17734374999999858,
      "endTime": 32.98984375
    },
    {
      "instrumentId": 0,
      "instrumentName": "Instrument_0",
      "isPercussion": false,
      "pitch": 75,
      "velocity": 49,
      "startTime": 33.0,
      "duration": 0.35546875,
      "endTime": 33.35546875
    },
    {
      "instrumentId": 0,
      "instrumentName": "Instrument_0",
      "isPercussion": false,
      "pitch": 78,
      "velocity": 49,
      "startTime": 33.0,
      "duration": 0.35546875,
      "endTime": 33.35546875
    },
    {
      "instrumentId": 1,
      "instrumentName": "Instrument_1",
      "isPercussion": false,
      "pitch": 57,
      "velocity": 49,
      "startTime": 33.0,
      "duration": 0.17734374999999858,
      "endTime": 33.17734375
    },
    {
      "instrumentId": 1,
      "instrumentName": "Instrument_1",
      "isPercussion": false,
      "pitch": 61,
      "velocity": 49,
      "startTime": 33.0,
      "duration": 0.17734374999999858,
      "endTime": 33.17734375
    },
    {
      "instrumentId": 0,
      "instrumentName": "Instrument_0",
      "isPercussion": false,
      "pitch": 78,
      "velocity": 49,
      "startTime": 33.375,
      "duration": 0.35546875,
      "endTime": 33.73046875
    },
    {
      "instrumentId": 1,
      "instrumentName": "Instrument_1",
      "isPercussion": false,
      "pitch": 57,
      "velocity": 49,
      "startTime": 33.5625,
      "duration": 0.17734374999999858,
      "endTime": 33.73984375
    },
    {
      "instrumentId": 1,
      "instrumentName": "Instrument_1",
      "isPercussion": false,
      "pitch": 64,
      "velocity": 49,
      "startTime": 33.5625,
      "duration": 0.17734374999999858,
      "endTime": 33.73984375
    },
    {
      "instrumentId": 0,
      "instrumentName": "Instrument_0",
      "isPercussion": false,
      "pitch": 75,
      "velocity": 49,
      "startTime": 33.75,
      "duration": 0.35546875,
      "endTime": 34.10546875
    },
    {
      "instrumentId": 0,
      "instrumentName": "Instrument_0",
      "isPercussion": false,
      "pitch": 78,
      "velocity": 49,
      "startTime": 33.75,
      "duration": 0.35546875,
      "endTime": 34.10546875
    },
    {
      "instrumentId": 0,
      "instrumentName": "Instrument_0",
      "isPercussion": false,
      "pitch": 73,
      "velocity": 49,
      "startTime": 34.125,
      "duration": 0.35546875,
      "endTime": 34.48046875
    },
    {
      "instrumentId": 1,
      "instrumentName": "Instrument_1",
      "isPercussion": false,
      "pitch": 57,
      "velocity": 49,
      "startTime": 34.125,
      "duration": 0.17734374999999858,
      "endTime": 34.30234375
    },
    {
      "instrumentId": 1,
      "instrumentName": "Instrument_1",
      "isPercussion": false,
      "pitch": 61,
      "velocity": 49,
      "startTime": 34.125,
      "duration": 0.17734374999999858,
      "endTime": 34.30234375
    },
    {
      "instrumentId": 0,
      "instrumentName": "Instrument_0",
      "isPercussion": false,
      "pitch": 73,
      "velocity": 49,
      "startTime": 34.5,
      "duration": 0.17734374999999858,
      "endTime": 34.67734375
    },
    {
      "instrumentId": 1,
      "instrumentName": "Instrument_1",
      "isPercussion": false,
      "pitch": 54,
      "velocity": 49,
      "startTime": 34.5,
      "duration": 0.17734374999999858,
      "endTime": 34.67734375
    },
    {
      "instrumentId": 1,
      "instrumentName": "Instrument_1",
      "isPercussion": false,
      "pitch": 59,
      "velocity": 49,
      "startTime": 34.5,
      "duration": 0.17734374999999858,
      "endTime": 34.67734375
    },
    {
      "instrumentId": 1,
      "instrumentName": "Instrument_1",
      "isPercussion": false,
      "pitch": 63,
      "velocity": 49,
      "startTime": 34.5,
      "duration": 0.17734374999999858,
      "endTime": 34.67734375
    },
    {
      "instrumentId": 0,
      "instrumentName": "Instrument_0",
      "isPercussion": false,
      "pitch": 68,
      "velocity": 54,
      "startTime": 34.6875,
      "duration": 0.17734374999999858,
      "endTime": 34.86484375
    },
    {
      "instrumentId": 0,
      "instrumentName": "Instrument_0",
      "isPercussion": false,
      "pitch": 68,
      "velocity": 60,
      "startTime": 34.875,
      "duration": 0.17734374999999858,
      "endTime": 35.05234375
    },
    {
      "instrumentId": 0,
      "instrumentName": "Instrument_0",
      "isPercussion": false,
      "pitch": 68,
      "velocity": 66,
      "startTime": 35.0625,
      "duration": 0.17734374999999858,
      "endTime": 35.23984375
    },
    {
      "instrumentId": 1,
      "instrumentName": "Instrument_1",
      "isPercussion": false,
      "pitch": 54,
      "velocity": 66,
      "startTime": 35.0625,
      "duration": 0.17734374999999858,
      "endTime": 35.23984375
    },
    {
      "instrumentId": 1,
      "instrumentName": "Instrument_1",
      "isPercussion": false,
      "pitch": 59,
      "velocity": 66,
      "startTime": 35.0625,
      "duration": 0.17734374999999858,
      "endTime": 35.23984375
    },
    {
      "instrumentId": 1,
      "instrumentName": "Instrument_1",
      "isPercussion": false,
      "pitch": 61,
      "velocity": 66,
      "startTime": 35.0625,
      "duration": 0.17734374999999858,
      "endTime": 35.23984375
    },
    {
      "instrumentId": 0,
      "instrumentName": "Instrument_0",
      "isPercussion": false,
      "pitch": 71,
      "velocity": 72,
      "startTime": 35.25,
      "duration": 0.17734374999999858,
      "endTime": 35.42734375
    },
    {
      "instrumentId": 0,
      "instrumentName": "Instrument_0",
      "isPercussion": false,
      "pitch": 73,
      "velocity": 78,
      "startTime": 35.4375,
      "duration": 0.17734374999999858,
      "endTime": 35.61484375
    },
    {
      "instrumentId": 0,
      "instrumentName": "Instrument_0",
      "isPercussion": false,
      "pitch": 68,
      "velocity": 84,
      "startTime": 35.625,
      "duration": 0.35546875,
      "endTime": 35.98046875
    },
    {
      "instrumentId": 0,
      "instrumentName": "Instrument_0",
      "isPercussion": false,
      "pitch": 73,
      "velocity": 84,
      "startTime": 35.625,
      "duration": 0.35546875,
      "endTime": 35.98046875
    },
    {
      "instrumentId": 1,
      "instrumentName": "Instrument_1",
      "isPercussion": false,
      "pitch": 54,
      "velocity": 84,
      "startTime": 35.625,
      "duration": 0.17734374999999858,
      "endTime": 35.80234375
    },
    {
      "instrumentId": 1,
      "instrumentName": "Instrument_1",
      "isPercussion": false,
      "pitch": 59,
      "velocity": 84,
      "startTime": 35.625,
      "duration": 0.17734374999999858,
      "endTime": 35.80234375
    },
    {
      "instrumentId": 0,
      "instrumentName": "Instrument_0",
      "isPercussion": false,
      "pitch": 68,
      "velocity": 96,
      "startTime": 36.0,
      "duration": 0.35546875,
      "endTime": 36.35546875
    },
    {
      "instrumentId": 0,
      "instrumentName": "Instrument_0",
      "isPercussion": false,
      "pitch": 73,
      "velocity": 96,
      "startTime": 36.0,
      "duration": 0.35546875,
      "endTime": 36.35546875
    },
    {
      "instrumentId": 1,
      "instrumentName": "Instrument_1",
      "isPercussion": false,
      "pitch": 56,
      "velocity": 96,
      "startTime": 36.0,
      "duration": 0.17734374999999858,
      "endTime": 36.17734375
    },
    {
      "instrumentId": 1,
      "instrumentName": "Instrument_1",
      "isPercussion": false,
      "pitch": 61,
      "velocity": 96,
      "startTime": 36.0,
      "duration": 0.17734374999999858,
      "endTime": 36.17734375
    },
    {
      "instrumentId": 0,
      "instrumentName": "Instrument_0",
      "isPercussion": false,
      "pitch": 68,
      "velocity": 96,
      "startTime": 36.375,
      "duration": 0.35546875,
      "endTime": 36.73046875
    },
    {
      "instrumentId": 0,
      "instrumentName": "Instrument_0",
      "isPercussion": false,
      "pitch": 73,
      "velocity": 96,
      "startTime": 36.375,
      "duration": 0.35546875,
      "endTime": 36.73046875
    },
    {
      "instrumentId": 1,
      "instrumentName": "Instrument_1",
      "isPercussion": false,
      "pitch": 56,
      "velocity": 96,
      "startTime": 36.5625,
      "duration": 0.17734374999999858,
      "endTime": 36.73984375
    },
    {
      "instrumentId": 1,
      "instrumentName": "Instrument_1",
      "isPercussion": false,
      "pitch": 64,
      "velocity": 96,
      "startTime": 36.5625,
      "duration": 0.17734374999999858,
      "endTime": 36.73984375
    },
    {
      "instrumentId": 0,
      "instrumentName": "Instrument_0",
      "isPercussion": false,
      "pitch": 68,
      "velocity": 96,
      "startTime": 36.75,
      "duration": 0.35546875,
      "endTime": 37.10546875
    },
    {
      "instrumentId": 0,
      "instrumentName": "Instrument_0",
      "isPercussion": false,
      "pitch": 73,
      "velocity": 96,
      "startTime": 36.75,
      "duration": 0.35546875,
      "endTime": 37.10546875
    },
    {
      "instrumentId": 0,
      "instrumentName": "Instrument_0",
      "isPercussion": false,
      "pitch": 68,
      "velocity": 96,
      "startTime": 37.125,
      "duration": 0.35546875,
      "endTime": 37.48046875
    },
    {
      "instrumentId": 0,
      "instrumentName": "Instrument_0",
      "isPercussion": false,
      "pitch": 71,
      "velocity": 96,
      "startTime": 37.125,
      "duration": 0.35546875,
      "endTime": 37.48046875
    },
    {
      "instrumentId": 1,
      "instrumentName": "Instrument_1",
      "isPercussion": false,
      "pitch": 56,
      "velocity": 96,
      "startTime": 37.125,
      "duration": 0.17734374999999858,
      "endTime": 37.30234375
    },
    {
      "instrumentId": 1,
      "instrumentName": "Instrument_1",
      "isPercussion": false,
      "pitch": 61,
      "velocity": 96,
      "startTime": 37.125,
      "duration": 0.17734374999999858,
      "endTime": 37.30234375
    },
    {
      "instrumentId": 0,
      "instrumentName": "Instrument_0",
      "isPercussion": false,
      "pitch": 69,
      "velocity": 96,
      "startTime": 37.5,
      "duration": 0.35546875,
      "endTime": 37.85546875
    },
    {
      "instrumentId": 0,
      "instrumentName": "Instrument_0",
      "isPercussion": false,
      "pitch": 73,
      "velocity": 96,
      "startTime": 37.5,
      "duration": 0.35546875,
      "endTime": 37.85546875
    },
    {
      "instrumentId": 1,
      "instrumentName": "Instrument_1",
      "isPercussion": false,
      "pitch": 54,
      "velocity": 96,
      "startTime": 37.5,
      "duration": 0.17734374999999858,
      "endTime": 37.67734375
    },
    {
      "instrumentId": 1,
      "instrumentName": "Instrument_1",
      "isPercussion": false,
      "pitch": 61,
      "velocity": 96,
      "startTime": 37.5,
      "duration": 0.17734374999999858,
      "endTime": 37.67734375
    },
    {
      "instrumentId": 0,
      "instrumentName": "Instrument_0",
      "isPercussion": false,
      "pitch": 76,
      "velocity": 96,
      "startTime": 37.875,
      "duration": 0.35546875,
      "endTime": 38.23046875
    },
    {
      "instrumentId": 0,
      "instrumentName": "Instrument_0",
      "isPercussion": false,
      "pitch": 80,
      "velocity": 96,
      "startTime": 37.875,
      "duration": 0.35546875,
      "endTime": 38.23046875
    },
    {
      "instrumentId": 1,
      "instrumentName": "Instrument_1",
      "isPercussion": false,
      "pitch": 54,
      "velocity": 96,
      "startTime": 38.0625,
      "duration": 0.17734374999999858,
      "endTime": 38.23984375
    },
    {
      "instrumentId": 1,
      "instrumentName": "Instrument_1",
      "isPercussion": false,
      "pitch": 64,
      "velocity": 96,
      "startTime": 38.0625,
      "duration": 0.17734374999999858,
      "endTime": 38.23984375
    },
    {
      "instrumentId": 0,
      "instrumentName": "Instrument_0",
      "isPercussion": false,
      "pitch": 75,
      "velocity": 96,
      "startTime": 38.25,
      "duration": 0.7117187500000028,
      "endTime": 38.96171875
    },
    {
      "instrumentId": 0,
      "instrumentName": "Instrument_0",
      "isPercussion": false,
      "pitch": 78,
      "velocity": 96,
      "startTime": 38.25,
      "duration": 0.7117187500000028,
      "endTime": 38.96171875
    },
    {
      "instrumentId": 1,
      "instrumentName": "Instrument_1",
      "isPercussion": false,
      "pitch": 54,
      "velocity": 96,
      "startTime": 38.625,
      "duration": 0.17734375000000568,
      "endTime": 38.802343750000006
    },
    {
      "instrumentId": 1,
      "instrumentName": "Instrument_1",
      "isPercussion": false,
      "pitch": 61,
      "velocity": 96,
      "startTime": 38.625,
      "duration": 0.17734375000000568,
      "endTime": 38.802343750000006
    },
    {
      "instrumentId": 0,
      "instrumentName": "Instrument_0",
      "isPercussion": false,
      "pitch": 76,
      "velocity": 96,
      "startTime": 39.0,
      "duration": 0.17734375000000568,
      "endTime": 39.177343750000006
    },
    {
      "instrumentId": 1,
      "instrumentName": "Instrument_1",
      "isPercussion": false,
      "pitch": 57,
      "velocity": 96,
      "startTime": 39.0,
      "duration": 0.17734375000000568,
      "endTime": 39.177343750000006
    },
    {
      "instrumentId": 1,
      "instrumentName": "Instrument_1",
      "isPercussion": false,
      "pitch": 61,
      "velocity": 96,
      "startTime": 39.0,
      "duration": 0.17734375000000568,
      "endTime": 39.177343750000006
    },
    {
      "instrumentId": 0,
      "instrumentName": "Instrument_0",
      "isPercussion": false,
      "pitch": 75,
      "velocity": 96,
      "startTime": 39.1875,
      "duration": 0.35546875,
      "endTime": 39.54296875
    },
    {
      "instrumentId": 0,
      "instrumentName": "Instrument_0",
      "isPercussion": false,
      "pitch": 78,
      "velocity": 96,
      "startTime": 39.1875,
      "duration": 0.35546875,
      "endTime": 39.54296875
    },
    {
      "instrumentId": 0,
      "instrumentName": "Instrument_0",
      "isPercussion": false,
      "pitch": 80,
      "velocity": 96,
      "startTime": 39.5625,
      "duration": 0.17734375000000568,
      "endTime": 39.739843750000006
    },
    {
      "instrumentId": 1,
      "instrumentName": "Instrument_1",
      "isPercussion": false,
      "pitch": 57,
      "velocity": 96,
      "startTime": 39.5625,
      "duration": 0.17734375000000568,
      "endTime": 39.739843750000006
    },
    {
      "instrumentId": 1,
      "instrumentName": "Instrument_1",
      "isPercussion": false,
      "pitch": 64,
      "velocity": 96,
      "startTime": 39.5625,
      "duration": 0.17734375000000568,
      "endTime": 39.739843750000006
    },
    {
      "instrumentId": 0,
      "instrumentName": "Instrument_0",
      "isPercussion": false,
      "pitch": 78,
      "velocity": 96,
      "startTime": 39.75,
      "duration": 0.35546875,
      "endTime": 40.10546875
    },
    {
      "instrumentId": 0,
      "instrumentName": "Instrument_0",
      "isPercussion": false,
      "pitch": 73,
      "velocity": 96,
      "startTime": 40.125,
      "duration": 0.35546875,
      "endTime": 40.48046875
    },
    {
      "instrumentId": 0,
      "instrumentName": "Instrument_0",
      "isPercussion": false,
      "pitch": 76,
      "velocity": 96,
      "startTime": 40.125,
      "duration": 0.35546875,
      "endTime": 40.48046875
    },
    {
      "instrumentId": 1,
      "instrumentName": "Instrument_1",
      "isPercussion": false,
      "pitch": 57,
      "velocity": 96,
      "startTime": 40.125,
      "duration": 0.17734375000000568,
      "endTime": 40.302343750000006
    },
    {
      "instrumentId": 1,
      "instrumentName": "Instrument_1",
      "isPercussion": false,
      "pitch": 61,
      "velocity": 96,
      "startTime": 40.125,
      "duration": 0.17734375000000568,
      "endTime": 40.302343750000006
    },
    {
      "instrumentId": 0,
      "instrumentName": "Instrument_0",
      "isPercussion": false,
      "pitch": 73,
      "velocity": 96,
      "startTime": 40.5,
      "duration": 0.17734375000000568,
      "endTime": 40.677343750000006
    },
    {
      "instrumentId": 1,
      "instrumentName": "Instrument_1",
      "isPercussion": false,
      "pitch": 54,
      "velocity": 96,
      "startTime": 40.5,
      "duration": 0.17734375000000568,
      "endTime": 40.677343750000006
    },
    {
      "instrumentId": 1,
      "instrumentName": "Instrument_1",
      "isPercussion": false,
      "pitch": 59,
      "velocity": 96,
      "startTime": 40.5,
      "duration": 0.17734375000000568,
      "endTime": 40.677343750000006
    },
    {
      "instrumentId": 1,
      "instrumentName": "Instrument_1",
      "isPercussion": false,
      "pitch": 63,
      "velocity": 96,
      "startTime": 40.5,
      "duration": 0.17734375000000568,
      "endTime": 40.677343750000006
    },
    {
      "instrumentId": 0,
      "instrumentName": "Instrument_0",
      "isPercussion": false,
      "pitch": 73,
      "velocity": 96,
      "startTime": 40.875,
      "duration": 0.35546875,
      "endTime": 41.23046875
    },
    {
      "instrumentId": 0,
      "instrumentName": "Instrument_0",
      "isPercussion": false,
      "pitch": 76,
      "velocity": 96,
      "startTime": 40.875,
      "duration": 0.35546875,
      "endTime": 41.23046875
    },
    {
      "instrumentId": 1,
      "instrumentName": "Instrument_1",
      "isPercussion": false,
      "pitch": 54,
      "velocity": 96,
      "startTime": 41.0625,
      "duration": 0.17734375000000568,
      "endTime": 41.239843750000006
    },
    {
      "instrumentId": 1,
      "instrumentName": "Instrument_1",
      "isPercussion": false,
      "pitch": 59,
      "velocity": 96,
      "startTime": 41.0625,
      "duration": 0.17734375000000568,
      "endTime": 41.239843750000006
    },
    {
      "instrumentId": 1,
      "instrumentName": "Instrument_1",
      "isPercussion": false,
      "pitch": 61,
      "velocity": 96,
      "startTime": 41.0625,
      "duration": 0.17734375000000568,
      "endTime": 41.239843750000006
    },
    {
      "instrumentId": 0,
      "instrumentName": "Instrument_0",
      "isPercussion": false,
      "pitch": 80,
      "velocity": 96,
      "startTime": 41.25,
      "duration": 0.17734375000000568,
      "endTime": 41.427343750000006
    },
    {
      "instrumentId": 0,
      "instrumentName": "Instrument_0",
      "isPercussion": false,
      "pitch": 78,
      "velocity": 96,
      "startTime": 41.4375,
      "duration": 0.17734375000000568,
      "endTime": 41.614843750000006
    },
    {
      "instrumentId": 0,
      "instrumentName": "Instrument_0",
      "isPercussion": false,
      "pitch": 75,
      "velocity": 96,
      "startTime": 41.625,
      "duration": 0.35546875,
      "endTime": 41.98046875
    },
    {
      "instrumentId": 0,
      "instrumentName": "Instrument_0",
      "isPercussion": false,
      "pitch": 78,
      "velocity": 96,
      "startTime": 41.625,
      "duration": 0.35546875,
      "endTime": 41.98046875
    },
    {
      "instrumentId": 1,
      "instrumentName": "Instrument_1",
      "isPercussion": false,
      "pitch": 54,
      "velocity": 96,
      "startTime": 41.625,
      "duration": 0.35546875,
      "endTime": 41.98046875
    },
    {
      "instrumentId": 1,
      "instrumentName": "Instrument_1",
      "isPercussion": false,
      "pitch": 59,
      "velocity": 96,
      "startTime": 41.625,
      "duration": 0.35546875,
      "endTime": 41.98046875
    },
    {
      "instrumentId": 0,
      "instrumentName": "Instrument_0",
      "isPercussion": false,
      "pitch": 68,
      "velocity": 96,
      "startTime": 42.0,
      "duration": 0.7117187500000028,
      "endTime": 42.71171875
    },
    {
      "instrumentId": 0,
      "instrumentName": "Instrument_0",
      "isPercussion": false,
      "pitch": 73,
      "velocity": 96,
      "startTime": 42.0,
      "duration": 0.7117187500000028,
      "endTime": 42.71171875
    },
    {
      "instrumentId": 1,
      "instrumentName": "Instrument_1",
      "isPercussion": false,
      "pitch": 56,
      "velocity": 96,
      "startTime": 42.0,
      "duration": 0.17734375000000568,
      "endTime": 42.177343750000006
    },
    {
      "instrumentId": 1,
      "instrumentName": "Instrument_1",
      "isPercussion": false,
      "pitch": 61,
      "velocity": 96,
      "startTime": 42.0,
      "duration": 0.17734375000000568,
      "endTime": 42.177343750000006
    },
    {
      "instrumentId": 1,
      "instrumentName": "Instrument_1",
      "isPercussion": false,
      "pitch": 56,
      "velocity": 96,
      "startTime": 42.5625,
      "duration": 0.17734375000000568,
      "endTime": 42.739843750000006
    },
    {
      "instrumentId": 1,
      "instrumentName": "Instrument_1",
      "isPercussion": false,
      "pitch": 64,
      "velocity": 96,
      "startTime": 42.5625,
      "duration": 0.17734375000000568,
      "endTime": 42.739843750000006
    },
    {
      "instrumentId": 0,
      "instrumentName": "Instrument_0",
      "isPercussion": false,
      "pitch": 83,
      "velocity": 96,
      "startTime": 42.75,
      "duration": 0.17734375000000568,
      "endTime": 42.927343750000006
    },
    {
      "instrumentId": 0,
      "instrumentName": "Instrument_0",
      "isPercussion": false,
      "pitch": 78,
      "velocity": 96,
      "startTime": 42.9375,
      "duration": 0.17734375000000568,
      "endTime": 43.114843750000006
    },
    {
      "instrumentId": 0,
      "instrumentName": "Instrument_0",
      "isPercussion": false,
      "pitch": 76,
      "velocity": 96,
      "startTime": 43.125,
      "duration": 0.35546875,
      "endTime": 43.48046875
    },
    {
      "instrumentId": 0,
      "instrumentName": "Instrument_0",
      "isPercussion": false,
      "pitch": 80,
      "velocity": 96,
      "startTime": 43.125,
      "duration": 0.35546875,
      "endTime": 43.48046875
    },
    {
      "instrumentId": 1,
      "instrumentName": "Instrument_1",
      "isPercussion": false,
      "pitch": 56,
      "velocity": 96,
      "startTime": 43.125,
      "duration": 0.17734375000000568,
      "endTime": 43.302343750000006
    },
    {
      "instrumentId": 1,
      "instrumentName": "Instrument_1",
      "isPercussion": false,
      "pitch": 61,
      "velocity": 96,
      "startTime": 43.125,
      "duration": 0.17734375000000568,
      "endTime": 43.302343750000006
    },
    {
      "instrumentId": 0,
      "instrumentName": "Instrument_0",
      "isPercussion": false,
      "pitch": 78,
      "velocity": 96,
      "startTime": 43.5,
      "duration": 0.17734375000000568,
      "endTime": 43.677343750000006
    },
    {
      "instrumentId": 1,
      "instrumentName": "Instrument_1",
      "isPercussion": false,
      "pitch": 54,
      "velocity": 96,
      "startTime": 43.5,
      "duration": 0.17734375000000568,
      "endTime": 43.677343750000006
    },
    {
      "instrumentId": 1,
      "instrumentName": "Instrument_1",
      "isPercussion": false,
      "pitch": 61,
      "velocity": 96,
      "startTime": 43.5,
      "duration": 0.17734375000000568,
      "endTime": 43.677343750000006
    },
    {
      "instrumentId": 0,
      "instrumentName": "Instrument_0",
      "isPercussion": false,
      "pitch": 76,
      "velocity": 96,
      "startTime": 43.6875,
      "duration": 0.17734375000000568,
      "endTime": 43.864843750000006
    },
    {
      "instrumentId": 0,
      "instrumentName": "Instrument_0",
      "isPercussion": false,
      "pitch": 73,
      "velocity": 96,
      "startTime": 43.875,
      "duration": 0.35546875,
      "endTime": 44.23046875
    },
    {
      "instrumentId": 0,
      "instrumentName": "Instrument_0",
      "isPercussion": false,
      "pitch": 76,
      "velocity": 96,
      "startTime": 43.875,
      "duration": 0.35546875,
      "endTime": 44.23046875
    },
    {
      "instrumentId": 1,
      "instrumentName": "Instrument_1",
      "isPercussion": false,
      "pitch": 54,
      "velocity": 96,
      "startTime": 44.0625,
      "duration": 0.17734375000000568,
      "endTime": 44.239843750000006
    },
    {
      "instrumentId": 1,
      "instrumentName": "Instrument_1",
      "isPercussion": false,
      "pitch": 64,
      "velocity": 96,
      "startTime": 44.0625,
      "duration": 0.17734375000000568,
      "endTime": 44.239843750000006
    },
    {
      "instrumentId": 0,
      "instrumentName": "Instrument_0",
      "isPercussion": false,
      "pitch": 68,
      "velocity": 96,
      "startTime": 44.25,
      "duration": 0.7117187500000028,
      "endTime": 44.96171875
    },
    {
      "instrumentId": 0,
      "instrumentName": "Instrument_0",
      "isPercussion": false,
      "pitch": 73,
      "velocity": 96,
      "startTime": 44.25,
      "duration": 0.7117187500000028,
      "endTime": 44.96171875
    },
    {
      "instrumentId": 1,
      "instrumentName": "Instrument_1",
      "isPercussion": false,
      "pitch": 54,
      "velocity": 96,
      "startTime": 44.625,
      "duration": 0.17734375000000568,
      "endTime": 44.802343750000006
    },
    {
      "instrumentId": 1,
      "instrumentName": "Instrument_1",
      "isPercussion": false,
      "pitch": 61,
      "velocity": 96,
      "startTime": 44.625,
      "duration": 0.17734375000000568,
      "endTime": 44.802343750000006
    },
    {
      "instrumentId": 0,
      "instrumentName": "Instrument_0",
      "isPercussion": false,
      "pitch": 76,
      "velocity": 96,
      "startTime": 45.0,
      "duration": 0.17734375000000568,
      "endTime": 45.177343750000006
    },
    {
      "instrumentId": 1,
      "instrumentName": "Instrument_1",
      "isPercussion": false,
      "pitch": 57,
      "velocity": 96,
      "startTime": 45.0,
      "duration": 0.17734375000000568,
      "endTime": 45.177343750000006
    },
    {
      "instrumentId": 1,
      "instrumentName": "Instrument_1",
      "isPercussion": false,
      "pitch": 61,
      "velocity": 96,
      "startTime": 45.0,
      "duration": 0.17734375000000568,
      "endTime": 45.177343750000006
    },
    {
      "instrumentId": 0,
      "instrumentName": "Instrument_0",
      "isPercussion": false,
      "pitch": 75,
      "velocity": 96,
      "startTime": 45.1875,
      "duration": 0.35546875,
      "endTime": 45.54296875
    },
    {
      "instrumentId": 0,
      "instrumentName": "Instrument_0",
      "isPercussion": false,
      "pitch": 78,
      "velocity": 96,
      "startTime": 45.1875,
      "duration": 0.35546875,
      "endTime": 45.54296875
    },
    {
      "instrumentId": 0,
      "instrumentName": "Instrument_0",
      "isPercussion": false,
      "pitch": 80,
      "velocity": 96,
      "startTime": 45.5625,
      "duration": 0.17734375000000568,
      "endTime": 45.739843750000006
    },
    {
      "instrumentId": 1,
      "instrumentName": "Instrument_1",
      "isPercussion": false,
      "pitch": 57,
      "velocity": 96,
      "startTime": 45.5625,
      "duration": 0.17734375000000568,
      "endTime": 45.739843750000006
    },
    {
      "instrumentId": 1,
      "instrumentName": "Instrument_1",
      "isPercussion": false,
      "pitch": 64,
      "velocity": 96,
      "startTime": 45.5625,
      "duration": 0.17734375000000568,
      "endTime": 45.739843750000006
    },
    {
      "instrumentId": 0,
      "instrumentName": "Instrument_0",
      "isPercussion": false,
      "pitch": 75,
      "velocity": 96,
      "startTime": 45.75,
      "duration": 0.35546875,
      "endTime": 46.10546875
    },
    {
      "instrumentId": 0,
      "instrumentName": "Instrument_0",
      "isPercussion": false,
      "pitch": 78,
      "velocity": 96,
      "startTime": 45.75,
      "duration": 0.35546875,
      "endTime": 46.10546875
    },
    {
      "instrumentId": 0,
      "instrumentName": "Instrument_0",
      "isPercussion": false,
      "pitch": 73,
      "velocity": 96,
      "startTime": 46.125,
      "duration": 0.35546875,
      "endTime": 46.48046875
    },
    {
      "instrumentId": 0,
      "instrumentName": "Instrument_0",
      "isPercussion": false,
      "pitch": 76,
      "velocity": 96,
      "startTime": 46.125,
      "duration": 0.35546875,
      "endTime": 46.48046875
    },
    {
      "instrumentId": 1,
      "instrumentName": "Instrument_1",
      "isPercussion": false,
      "pitch": 57,
      "velocity": 96,
      "startTime": 46.125,
      "duration": 0.17734375000000568,
      "endTime": 46.302343750000006
    },
    {
      "instrumentId": 1,
      "instrumentName": "Instrument_1",
      "isPercussion": false,
      "pitch": 61,
      "velocity": 96,
      "startTime": 46.125,
      "duration": 0.17734375000000568,
      "endTime": 46.302343750000006
    },
    {
      "instrumentId": 0,
      "instrumentName": "Instrument_0",
      "isPercussion": false,
      "pitch": 75,
      "velocity": 96,
      "startTime": 46.5,
      "duration": 0.35546875,
      "endTime": 46.85546875
    },
    {
      "instrumentId": 0,
      "instrumentName": "Instrument_0",
      "isPercussion": false,
      "pitch": 78,
      "velocity": 96,
      "startTime": 46.5,
      "duration": 0.35546875,
      "endTime": 46.85546875
    },
    {
      "instrumentId": 1,
      "instrumentName": "Instrument_1",
      "isPercussion": false,
      "pitch": 54,
      "velocity": 96,
      "startTime": 46.5,
      "duration": 0.17734375000000568,
      "endTime": 46.677343750000006
    },
    {
      "instrumentId": 1,
      "instrumentName": "Instrument_1",
      "isPercussion": false,
      "pitch": 59,
      "velocity": 96,
      "startTime": 46.5,
      "duration": 0.17734375000000568,
      "endTime": 46.677343750000006
    },
    {
      "instrumentId": 1,
      "instrumentName": "Instrument_1",
      "isPercussion": false,
      "pitch": 63,
      "velocity": 96,
      "startTime": 46.5,
      "duration": 0.17734375000000568,
      "endTime": 46.677343750000006
    },
    {
      "instrumentId": 0,
      "instrumentName": "Instrument_0",
      "isPercussion": false,
      "pitch": 73,
      "velocity": 96,
      "startTime": 46.875,
      "duration": 0.35546875,
      "endTime": 47.23046875
    },
    {
      "instrumentId": 0,
      "instrumentName": "Instrument_0",
      "isPercussion": false,
      "pitch": 76,
      "velocity": 96,
      "startTime": 46.875,
      "duration": 0.35546875,
      "endTime": 47.23046875
    },
    {
      "instrumentId": 1,
      "instrumentName": "Instrument_1",
      "isPercussion": false,
      "pitch": 54,
      "velocity": 96,
      "startTime": 47.0625,
      "duration": 0.17734375000000568,
      "endTime": 47.239843750000006
    },
    {
      "instrumentId": 1,
      "instrumentName": "Instrument_1",
      "isPercussion": false,
      "pitch": 59,
      "velocity": 96,
      "startTime": 47.0625,
      "duration": 0.17734375000000568,
      "endTime": 47.239843750000006
    },
    {
      "instrumentId": 1,
      "instrumentName": "Instrument_1",
      "isPercussion": false,
      "pitch": 61,
      "velocity": 96,
      "startTime": 47.0625,
      "duration": 0.17734375000000568,
      "endTime": 47.239843750000006
    },
    {
      "instrumentId": 0,
      "instrumentName": "Instrument_0",
      "isPercussion": false,
      "pitch": 73,
      "velocity": 96,
      "startTime": 47.25,
      "duration": 0.35546875,
      "endTime": 47.60546875
    },
    {
      "instrumentId": 0,
      "instrumentName": "Instrument_0",
      "isPercussion": false,
      "pitch": 73,
      "velocity": 96,
      "startTime": 47.625,
      "duration": 0.35546875,
      "endTime": 47.98046875
    },
    {
      "instrumentId": 1,
      "instrumentName": "Instrument_1",
      "isPercussion": false,
      "pitch": 54,
      "velocity": 96,
      "startTime": 47.625,
      "duration": 0.17734375000000568,
      "endTime": 47.802343750000006
    },
    {
      "instrumentId": 1,
      "instrumentName": "Instrument_1",
      "isPercussion": false,
      "pitch": 59,
      "velocity": 96,
      "startTime": 47.625,
      "duration": 0.17734375000000568,
      "endTime": 47.802343750000006
    },
    {
      "instrumentId": 0,
      "instrumentName": "Instrument_0",
      "isPercussion": false,
      "pitch": 68,
      "velocity": 96,
      "startTime": 48.0,
      "duration": 0.7117187500000028,
      "endTime": 48.71171875
    },
    {
      "instrumentId": 0,
      "instrumentName": "Instrument_0",
      "isPercussion": false,
      "pitch": 73,
      "velocity": 96,
      "startTime": 48.0,
      "duration": 0.7117187500000028,
      "endTime": 48.71171875
    },
    {
      "instrumentId": 1,
      "instrumentName": "Instrument_1",
      "isPercussion": false,
      "pitch": 56,
      "velocity": 96,
      "startTime": 48.0,
      "duration": 0.17734375000000568,
      "endTime": 48.177343750000006
    },
    {
      "instrumentId": 1,
      "instrumentName": "Instrument_1",
      "isPercussion": false,
      "pitch": 61,
      "velocity": 96,
      "startTime": 48.0,
      "duration": 0.17734375000000568,
      "endTime": 48.177343750000006
    },
    {
      "instrumentId": 1,
      "instrumentName": "Instrument_1",
      "isPercussion": false,
      "pitch": 56,
      "velocity": 96,
      "startTime": 48.5625,
      "duration": 0.17734375000000568,
      "endTime": 48.739843750000006
    },
    {
      "instrumentId": 1,
      "instrumentName": "Instrument_1",
      "isPercussion": false,
      "pitch": 64,
      "velocity": 96,
      "startTime": 48.5625,
      "duration": 0.17734375000000568,
      "endTime": 48.739843750000006
    },
    {
      "instrumentId": 0,
      "instrumentName": "Instrument_0",
      "isPercussion": false,
      "pitch": 68,
      "velocity": 96,
      "startTime": 48.75,
      "duration": 0.35546875,
      "endTime": 49.10546875
    },
    {
      "instrumentId": 0,
      "instrumentName": "Instrument_0",
      "isPercussion": false,
      "pitch": 73,
      "velocity": 96,
      "startTime": 48.75,
      "duration": 0.35546875,
      "endTime": 49.10546875
    },
    {
      "instrumentId": 0,
      "instrumentName": "Instrument_0",
      "isPercussion": false,
      "pitch": 68,
      "velocity": 96,
      "startTime": 49.125,
      "duration": 0.35546875,
      "endTime": 49.48046875
    },
    {
      "instrumentId": 0,
      "instrumentName": "Instrument_0",
      "isPercussion": false,
      "pitch": 71,
      "velocity": 96,
      "startTime": 49.125,
      "duration": 0.35546875,
      "endTime": 49.48046875
    },
    {
      "instrumentId": 1,
      "instrumentName": "Instrument_1",
      "isPercussion": false,
      "pitch": 56,
      "velocity": 96,
      "startTime": 49.125,
      "duration": 0.17734375000000568,
      "endTime": 49.302343750000006
    },
    {
      "instrumentId": 1,
      "instrumentName": "Instrument_1",
      "isPercussion": false,
      "pitch": 61,
      "velocity": 96,
      "startTime": 49.125,
      "duration": 0.17734375000000568,
      "endTime": 49.302343750000006
    },
    {
      "instrumentId": 0,
      "instrumentName": "Instrument_0",
      "isPercussion": false,
      "pitch": 68,
      "velocity": 96,
      "startTime": 49.5,
      "duration": 0.35546875,
      "endTime": 49.85546875
    },
    {
      "instrumentId": 0,
      "instrumentName": "Instrument_0",
      "isPercussion": false,
      "pitch": 73,
      "velocity": 96,
      "startTime": 49.5,
      "duration": 0.35546875,
      "endTime": 49.85546875
    },
    {
      "instrumentId": 1,
      "instrumentName": "Instrument_1",
      "isPercussion": false,
      "pitch": 54,
      "velocity": 96,
      "startTime": 49.5,
      "duration": 0.17734375000000568,
      "endTime": 49.677343750000006
    },
    {
      "instrumentId": 1,
      "instrumentName": "Instrument_1",
      "isPercussion": false,
      "pitch": 61,
      "velocity": 96,
      "startTime": 49.5,
      "duration": 0.17734375000000568,
      "endTime": 49.677343750000006
    },
    {
      "instrumentId": 0,
      "instrumentName": "Instrument_0",
      "isPercussion": false,
      "pitch": 76,
      "velocity": 96,
      "startTime": 49.875,
      "duration": 0.35546875,
      "endTime": 50.23046875
    },
    {
      "instrumentId": 0,
      "instrumentName": "Instrument_0",
      "isPercussion": false,
      "pitch": 80,
      "velocity": 96,
      "startTime": 49.875,
      "duration": 0.35546875,
      "endTime": 50.23046875
    },
    {
      "instrumentId": 1,
      "instrumentName": "Instrument_1",
      "isPercussion": false,
      "pitch": 54,
      "velocity": 96,
      "startTime": 50.0625,
      "duration": 0.17734375000000568,
      "endTime": 50.239843750000006
    },
    {
      "instrumentId": 1,
      "instrumentName": "Instrument_1",
      "isPercussion": false,
      "pitch": 64,
      "velocity": 96,
      "startTime": 50.0625,
      "duration": 0.17734375000000568,
      "endTime": 50.239843750000006
    },
    {
      "instrumentId": 0,
      "instrumentName": "Instrument_0",
      "isPercussion": false,
      "pitch": 75,
      "velocity": 96,
      "startTime": 50.25,
      "duration": 0.7117187500000028,
      "endTime": 50.96171875
    },
    {
      "instrumentId": 0,
      "instrumentName": "Instrument_0",
      "isPercussion": false,
      "pitch": 78,
      "velocity": 96,
      "startTime": 50.25,
      "duration": 0.7117187500000028,
      "endTime": 50.96171875
    },
    {
      "instrumentId": 1,
      "instrumentName": "Instrument_1",
      "isPercussion": false,
      "pitch": 54,
      "velocity": 96,
      "startTime": 50.625,
      "duration": 0.17734375000000568,
      "endTime": 50.802343750000006
    },
    {
      "instrumentId": 1,
      "instrumentName": "Instrument_1",
      "isPercussion": false,
      "pitch": 61,
      "velocity": 96,
      "startTime": 50.625,
      "duration": 0.17734375000000568,
      "endTime": 50.802343750000006
    },
    {
      "instrumentId": 0,
      "instrumentName": "Instrument_0",
      "isPercussion": false,
      "pitch": 76,
      "velocity": 96,
      "startTime": 51.0,
      "duration": 0.17734375000000568,
      "endTime": 51.177343750000006
    },
    {
      "instrumentId": 1,
      "instrumentName": "Instrument_1",
      "isPercussion": false,
      "pitch": 57,
      "velocity": 96,
      "startTime": 51.0,
      "duration": 0.17734375000000568,
      "endTime": 51.177343750000006
    },
    {
      "instrumentId": 1,
      "instrumentName": "Instrument_1",
      "isPercussion": false,
      "pitch": 61,
      "velocity": 96,
      "startTime": 51.0,
      "duration": 0.17734375000000568,
      "endTime": 51.177343750000006
    },
    {
      "instrumentId": 0,
      "instrumentName": "Instrument_0",
      "isPercussion": false,
      "pitch": 75,
      "velocity": 96,
      "startTime": 51.1875,
      "duration": 0.35546875,
      "endTime": 51.54296875
    },
    {
      "instrumentId": 0,
      "instrumentName": "Instrument_0",
      "isPercussion": false,
      "pitch": 78,
      "velocity": 96,
      "startTime": 51.1875,
      "duration": 0.35546875,
      "endTime": 51.54296875
    },
    {
      "instrumentId": 0,
      "instrumentName": "Instrument_0",
      "isPercussion": false,
      "pitch": 80,
      "velocity": 96,
      "startTime": 51.5625,
      "duration": 0.17734375000000568,
      "endTime": 51.739843750000006
    },
    {
      "instrumentId": 1,
      "instrumentName": "Instrument_1",
      "isPercussion": false,
      "pitch": 57,
      "velocity": 96,
      "startTime": 51.5625,
      "duration": 0.17734375000000568,
      "endTime": 51.739843750000006
    },
    {
      "instrumentId": 1,
      "instrumentName": "Instrument_1",
      "isPercussion": false,
      "pitch": 64,
      "velocity": 96,
      "startTime": 51.5625,
      "duration": 0.17734375000000568,
      "endTime": 51.739843750000006
    },
    {
      "instrumentId": 0,
      "instrumentName": "Instrument_0",
      "isPercussion": false,
      "pitch": 75,
      "velocity": 96,
      "startTime": 51.75,
      "duration": 0.35546875,
      "endTime": 52.10546875
    },
    {
      "instrumentId": 0,
      "instrumentName": "Instrument_0",
      "isPercussion": false,
      "pitch": 78,
      "velocity": 96,
      "startTime": 51.75,
      "duration": 0.35546875,
      "endTime": 52.10546875
    },
    {
      "instrumentId": 0,
      "instrumentName": "Instrument_0",
      "isPercussion": false,
      "pitch": 76,
      "velocity": 96,
      "startTime": 52.125,
      "duration": 0.35546875,
      "endTime": 52.48046875
    },
    {
      "instrumentId": 1,
      "instrumentName": "Instrument_1",
      "isPercussion": false,
      "pitch": 57,
      "velocity": 96,
      "startTime": 52.125,
      "duration": 0.17734375000000568,
      "endTime": 52.302343750000006
    },
    {
      "instrumentId": 1,
      "instrumentName": "Instrument_1",
      "isPercussion": false,
      "pitch": 61,
      "velocity": 96,
      "startTime": 52.125,
      "duration": 0.17734375000000568,
      "endTime": 52.302343750000006
    },
    {
      "instrumentId": 0,
      "instrumentName": "Instrument_0",
      "isPercussion": false,
      "pitch": 68,
      "velocity": 96,
      "startTime": 52.5,
      "duration": 0.35546875,
      "endTime": 52.85546875
    },
    {
      "instrumentId": 0,
      "instrumentName": "Instrument_0",
      "isPercussion": false,
      "pitch": 73,
      "velocity": 96,
      "startTime": 52.5,
      "duration": 0.35546875,
      "endTime": 52.85546875
    },
    {
      "instrumentId": 1,
      "instrumentName": "Instrument_1",
      "isPercussion": false,
      "pitch": 54,
      "velocity": 96,
      "startTime": 52.5,
      "duration": 0.17734375000000568,
      "endTime": 52.677343750000006
    },
    {
      "instrumentId": 1,
      "instrumentName": "Instrument_1",
      "isPercussion": false,
      "pitch": 59,
      "velocity": 96,
      "startTime": 52.5,
      "duration": 0.17734375000000568,
      "endTime": 52.677343750000006
    },
    {
      "instrumentId": 1,
      "instrumentName": "Instrument_1",
      "isPercussion": false,
      "pitch": 63,
      "velocity": 96,
      "startTime": 52.5,
      "duration": 0.17734375000000568,
      "endTime": 52.677343750000006
    },
    {
      "instrumentId": 0,
      "instrumentName": "Instrument_0",
      "isPercussion": false,
      "pitch": 73,
      "velocity": 96,
      "startTime": 52.875,
      "duration": 0.35546875,
      "endTime": 53.23046875
    },
    {
      "instrumentId": 0,
      "instrumentName": "Instrument_0",
      "isPercussion": false,
      "pitch": 76,
      "velocity": 96,
      "startTime": 52.875,
      "duration": 0.35546875,
      "endTime": 53.23046875
    },
    {
      "instrumentId": 1,
      "instrumentName": "Instrument_1",
      "isPercussion": false,
      "pitch": 54,
      "velocity": 96,
      "startTime": 53.0625,
      "duration": 0.17734375000000568,
      "endTime": 53.239843750000006
    },
    {
      "instrumentId": 1,
      "instrumentName": "Instrument_1",
      "isPercussion": false,
      "pitch": 59,
      "velocity": 96,
      "startTime": 53.0625,
      "duration": 0.17734375000000568,
      "endTime": 53.239843750000006
    },
    {
      "instrumentId": 1,
      "instrumentName": "Instrument_1",
      "isPercussion": false,
      "pitch": 61,
      "velocity": 96,
      "startTime": 53.0625,
      "duration": 0.17734375000000568,
      "endTime": 53.239843750000006
    },
    {
      "instrumentId": 0,
      "instrumentName": "Instrument_0",
      "isPercussion": false,
      "pitch": 80,
      "velocity": 96,
      "startTime": 53.25,
      "duration": 0.17734375000000568,
      "endTime": 53.427343750000006
    },
    {
      "instrumentId": 0,
      "instrumentName": "Instrument_0",
      "isPercussion": false,
      "pitch": 78,
      "velocity": 96,
      "startTime": 53.4375,
      "duration": 0.17734375000000568,
      "endTime": 53.614843750000006
    },
    {
      "instrumentId": 0,
      "instrumentName": "Instrument_0",
      "isPercussion": false,
      "pitch": 75,
      "velocity": 96,
      "startTime": 53.625,
      "duration": 0.35546875,
      "endTime": 53.98046875
    },
    {
      "instrumentId": 0,
      "instrumentName": "Instrument_0",
      "isPercussion": false,
      "pitch": 78,
      "velocity": 96,
      "startTime": 53.625,
      "duration": 0.35546875,
      "endTime": 53.98046875
    },
    {
      "instrumentId": 1,
      "instrumentName": "Instrument_1",
      "isPercussion": false,
      "pitch": 54,
      "velocity": 96,
      "startTime": 53.625,
      "duration": 0.17734375000000568,
      "endTime": 53.802343750000006
    },
    {
      "instrumentId": 1,
      "instrumentName": "Instrument_1",
      "isPercussion": false,
      "pitch": 59,
      "velocity": 96,
      "startTime": 53.625,
      "duration": 0.17734375000000568,
      "endTime": 53.802343750000006
    },
    {
      "instrumentId": 0,
      "instrumentName": "Instrument_0",
      "isPercussion": false,
      "pitch": 68,
      "velocity": 96,
      "startTime": 54.0,
      "duration": 0.7117187500000028,
      "endTime": 54.71171875
    },
    {
      "instrumentId": 0,
      "instrumentName": "Instrument_0",
      "isPercussion": false,
      "pitch": 73,
      "velocity": 96,
      "startTime": 54.0,
      "duration": 0.7117187500000028,
      "endTime": 54.71171875
    },
    {
      "instrumentId": 1,
      "instrumentName": "Instrument_1",
      "isPercussion": false,
      "pitch": 56,
      "velocity": 96,
      "startTime": 54.0,
      "duration": 0.17734375000000568,
      "endTime": 54.177343750000006
    },
    {
      "instrumentId": 1,
      "instrumentName": "Instrument_1",
      "isPercussion": false,
      "pitch": 61,
      "velocity": 96,
      "startTime": 54.0,
      "duration": 0.17734375000000568,
      "endTime": 54.177343750000006
    },
    {
      "instrumentId": 1,
      "instrumentName": "Instrument_1",
      "isPercussion": false,
      "pitch": 56,
      "velocity": 96,
      "startTime": 54.5625,
      "duration": 0.17734375000000568,
      "endTime": 54.739843750000006
    },
    {
      "instrumentId": 1,
      "instrumentName": "Instrument_1",
      "isPercussion": false,
      "pitch": 64,
      "velocity": 96,
      "startTime": 54.5625,
      "duration": 0.17734375000000568,
      "endTime": 54.739843750000006
    },
    {
      "instrumentId": 0,
      "instrumentName": "Instrument_0",
      "isPercussion": false,
      "pitch": 83,
      "velocity": 96,
      "startTime": 54.75,
      "duration": 0.17734375000000568,
      "endTime": 54.927343750000006
    },
    {
      "instrumentId": 0,
      "instrumentName": "Instrument_0",
      "isPercussion": false,
      "pitch": 78,
      "velocity": 96,
      "startTime": 54.9375,
      "duration": 0.17734375000000568,
      "endTime": 55.114843750000006
    },
    {
      "instrumentId": 0,
      "instrumentName": "Instrument_0",
      "isPercussion": false,
      "pitch": 76,
      "velocity": 96,
      "startTime": 55.125,
      "duration": 0.35546875,
      "endTime": 55.48046875
    },
    {
      "instrumentId": 0,
      "instrumentName": "Instrument_0",
      "isPercussion": false,
      "pitch": 80,
      "velocity": 96,
      "startTime": 55.125,
      "duration": 0.35546875,
      "endTime": 55.48046875
    },
    {
      "instrumentId": 1,
      "instrumentName": "Instrument_1",
      "isPercussion": false,
      "pitch": 56,
      "velocity": 96,
      "startTime": 55.125,
      "duration": 0.17734375000000568,
      "endTime": 55.302343750000006
    },
    {
      "instrumentId": 1,
      "instrumentName": "Instrument_1",
      "isPercussion": false,
      "pitch": 61,
      "velocity": 96,
      "startTime": 55.125,
      "duration": 0.17734375000000568,
      "endTime": 55.302343750000006
    },
    {
      "instrumentId": 0,
      "instrumentName": "Instrument_0",
      "isPercussion": false,
      "pitch": 78,
      "velocity": 96,
      "startTime": 55.5,
      "duration": 0.17734375000000568,
      "endTime": 55.677343750000006
    },
    {
      "instrumentId": 1,
      "instrumentName": "Instrument_1",
      "isPercussion": false,
      "pitch": 54,
      "velocity": 96,
      "startTime": 55.5,
      "duration": 0.17734375000000568,
      "endTime": 55.677343750000006
    },
    {
      "instrumentId": 1,
      "instrumentName": "Instrument_1",
      "isPercussion": false,
      "pitch": 61,
      "velocity": 96,
      "startTime": 55.5,
      "duration": 0.17734375000000568,
      "endTime": 55.677343750000006
    },
    {
      "instrumentId": 0,
      "instrumentName": "Instrument_0",
      "isPercussion": false,
      "pitch": 76,
      "velocity": 96,
      "startTime": 55.6875,
      "duration": 0.17734375000000568,
      "endTime": 55.864843750000006
    },
    {
      "instrumentId": 0,
      "instrumentName": "Instrument_0",
      "isPercussion": false,
      "pitch": 73,
      "velocity": 96,
      "startTime": 55.875,
      "duration": 0.35546875,
      "endTime": 56.23046875
    },
    {
      "instrumentId": 0,
      "instrumentName": "Instrument_0",
      "isPercussion": false,
      "pitch": 76,
      "velocity": 96,
      "startTime": 55.875,
      "duration": 0.35546875,
      "endTime": 56.23046875
    },
    {
      "instrumentId": 1,
      "instrumentName": "Instrument_1",
      "isPercussion": false,
      "pitch": 54,
      "velocity": 96,
      "startTime": 56.0625,
      "duration": 0.17734375000000568,
      "endTime": 56.239843750000006
    },
    {
      "instrumentId": 1,
      "instrumentName": "Instrument_1",
      "isPercussion": false,
      "pitch": 64,
      "velocity": 96,
      "startTime": 56.0625,
      "duration": 0.17734375000000568,
      "endTime": 56.239843750000006
    },
    {
      "instrumentId": 0,
      "instrumentName": "Instrument_0",
      "isPercussion": false,
      "pitch": 68,
      "velocity": 96,
      "startTime": 56.25,
      "duration": 0.35546875,
      "endTime": 56.60546875
    },
    {
      "instrumentId": 0,
      "instrumentName": "Instrument_0",
      "isPercussion": false,
      "pitch": 73,
      "velocity": 96,
      "startTime": 56.25,
      "duration": 0.35546875,
      "endTime": 56.60546875
    },
    {
      "instrumentId": 0,
      "instrumentName": "Instrument_0",
      "isPercussion": false,
      "pitch": 68,
      "velocity": 96,
      "startTime": 56.625,
      "duration": 0.35546875,
      "endTime": 56.98046875
    },
    {
      "instrumentId": 0,
      "instrumentName": "Instrument_0",
      "isPercussion": false,
      "pitch": 73,
      "velocity": 96,
      "startTime": 56.625,
      "duration": 0.35546875,
      "endTime": 56.98046875
    },
    {
      "instrumentId": 1,
      "instrumentName": "Instrument_1",
      "isPercussion": false,
      "pitch": 54,
      "velocity": 96,
      "startTime": 56.625,
      "duration": 0.17734375000000568,
      "endTime": 56.802343750000006
    },
    {
      "instrumentId": 1,
      "instrumentName": "Instrument_1",
      "isPercussion": false,
      "pitch": 61,
      "velocity": 96,
      "startTime": 56.625,
      "duration": 0.17734375000000568,
      "endTime": 56.802343750000006
    },
    {
      "instrumentId": 0,
      "instrumentName": "Instrument_0",
      "isPercussion": false,
      "pitch": 83,
      "velocity": 96,
      "startTime": 57.0,
      "duration": 0.17734375000000568,
      "endTime": 57.177343750000006
    },
    {
      "instrumentId": 1,
      "instrumentName": "Instrument_1",
      "isPercussion": false,
      "pitch": 57,
      "velocity": 96,
      "startTime": 57.0,
      "duration": 0.17734375000000568,
      "endTime": 57.177343750000006
    },
    {
      "instrumentId": 1,
      "instrumentName": "Instrument_1",
      "isPercussion": false,
      "pitch": 61,
      "velocity": 96,
      "startTime": 57.0,
      "duration": 0.17734375000000568,
      "endTime": 57.177343750000006
    },
    {
      "instrumentId": 0,
      "instrumentName": "Instrument_0",
      "isPercussion": false,
      "pitch": 78,
      "velocity": 96,
      "startTime": 57.1875,
      "duration": 0.17734375000000568,
      "endTime": 57.364843750000006
    },
    {
      "instrumentId": 0,
      "instrumentName": "Instrument_0",
      "isPercussion": false,
      "pitch": 76,
      "velocity": 96,
      "startTime": 57.375,
      "duration": 0.35546875,
      "endTime": 57.73046875
    },
    {
      "instrumentId": 0,
      "instrumentName": "Instrument_0",
      "isPercussion": false,
      "pitch": 80,
      "velocity": 96,
      "startTime": 57.375,
      "duration": 0.35546875,
      "endTime": 57.73046875
    },
    {
      "instrumentId": 1,
      "instrumentName": "Instrument_1",
      "isPercussion": false,
      "pitch": 57,
      "velocity": 96,
      "startTime": 57.5625,
      "duration": 0.17734375000000568,
      "endTime": 57.739843750000006
    },
    {
      "instrumentId": 1,
      "instrumentName": "Instrument_1",
      "isPercussion": false,
      "pitch": 64,
      "velocity": 96,
      "startTime": 57.5625,
      "duration": 0.17734375000000568,
      "endTime": 57.739843750000006
    },
    {
      "instrumentId": 0,
      "instrumentName": "Instrument_0",
      "isPercussion": false,
      "pitch": 78,
      "velocity": 96,
      "startTime": 57.75,
      "duration": 0.17734375000000568,
      "endTime": 57.927343750000006
    },
    {
      "instrumentId": 0,
      "instrumentName": "Instrument_0",
      "isPercussion": false,
      "pitch": 76,
      "velocity": 96,
      "startTime": 57.9375,
      "duration": 0.17734375000000568,
      "endTime": 58.114843750000006
    },
    {
      "instrumentId": 0,
      "instrumentName": "Instrument_0",
      "isPercussion": false,
      "pitch": 73,
      "velocity": 96,
      "startTime": 58.125,
      "duration": 0.35546875,
      "endTime": 58.48046875
    },
    {
      "instrumentId": 0,
      "instrumentName": "Instrument_0",
      "isPercussion": false,
      "pitch": 76,
      "velocity": 96,
      "startTime": 58.125,
      "duration": 0.35546875,
      "endTime": 58.48046875
    },
    {
      "instrumentId": 1,
      "instrumentName": "Instrument_1",
      "isPercussion": false,
      "pitch": 57,
      "velocity": 96,
      "startTime": 58.125,
      "duration": 0.17734375000000568,
      "endTime": 58.302343750000006
    },
    {
      "instrumentId": 1,
      "instrumentName": "Instrument_1",
      "isPercussion": false,
      "pitch": 61,
      "velocity": 96,
      "startTime": 58.125,
      "duration": 0.17734375000000568,
      "endTime": 58.302343750000006
    },
    {
      "instrumentId": 0,
      "instrumentName": "Instrument_0",
      "isPercussion": false,
      "pitch": 68,
      "velocity": 96,
      "startTime": 58.5,
      "duration": 0.35546875,
      "endTime": 58.85546875
    },
    {
      "instrumentId": 0,
      "instrumentName": "Instrument_0",
      "isPercussion": false,
      "pitch": 73,
      "velocity": 96,
      "startTime": 58.5,
      "duration": 0.35546875,
      "endTime": 58.85546875
    },
    {
      "instrumentId": 1,
      "instrumentName": "Instrument_1",
      "isPercussion": false,
      "pitch": 54,
      "velocity": 96,
      "startTime": 58.5,
      "duration": 0.17734375000000568,
      "endTime": 58.677343750000006
    },
    {
      "instrumentId": 1,
      "instrumentName": "Instrument_1",
      "isPercussion": false,
      "pitch": 59,
      "velocity": 96,
      "startTime": 58.5,
      "duration": 0.17734375000000568,
      "endTime": 58.677343750000006
    },
    {
      "instrumentId": 1,
      "instrumentName": "Instrument_1",
      "isPercussion": false,
      "pitch": 63,
      "velocity": 96,
      "startTime": 58.5,
      "duration": 0.17734375000000568,
      "endTime": 58.677343750000006
    },
    {
      "instrumentId": 0,
      "instrumentName": "Instrument_0",
      "isPercussion": false,
      "pitch": 64,
      "velocity": 96,
      "startTime": 58.875,
      "duration": 0.35546875,
      "endTime": 59.23046875
    },
    {
      "instrumentId": 0,
      "instrumentName": "Instrument_0",
      "isPercussion": false,
      "pitch": 68,
      "velocity": 96,
      "startTime": 58.875,
      "duration": 0.35546875,
      "endTime": 59.23046875
    },
    {
      "instrumentId": 0,
      "instrumentName": "Instrument_0",
      "isPercussion": false,
      "pitch": 68,
      "velocity": 64,
      "startTime": 59.25,
      "duration": 0.35546875,
      "endTime": 59.60546875
    },
    {
      "instrumentId": 0,
      "instrumentName": "Instrument_0",
      "isPercussion": false,
      "pitch": 71,
      "velocity": 64,
      "startTime": 59.25,
      "duration": 0.35546875,
      "endTime": 59.60546875
    },
    {
      "instrumentId": 0,
      "instrumentName": "Instrument_0",
      "isPercussion": false,
      "pitch": 68,
      "velocity": 64,
      "startTime": 59.625,
      "duration": 1.4242187500000014,
      "endTime": 61.04921875
    },
    {
      "instrumentId": 0,
      "instrumentName": "Instrument_0",
      "isPercussion": false,
      "pitch": 73,
      "velocity": 64,
      "startTime": 59.625,
      "duration": 1.4242187500000014,
      "endTime": 61.04921875
    },
    {
      "instrumentId": 1,
      "instrumentName": "Instrument_1",
      "isPercussion": false,
      "pitch": 56,
      "velocity": 64,
      "startTime": 60.0,
      "duration": 0.17734375000000568,
      "endTime": 60.177343750000006
    },
    {
      "instrumentId": 1,
      "instrumentName": "Instrument_1",
      "isPercussion": false,
      "pitch": 61,
      "velocity": 64,
      "startTime": 60.0,
      "duration": 0.17734375000000568,
      "endTime": 60.177343750000006
    },
    {
      "instrumentId": 1,
      "instrumentName": "Instrument_1",
      "isPercussion": false,
      "pitch": 56,
      "velocity": 64,
      "startTime": 60.5625,
      "duration": 0.17734375000000568,
      "endTime": 60.739843750000006
    },
    {
      "instrumentId": 1,
      "instrumentName": "Instrument_1",
      "isPercussion": false,
      "pitch": 64,
      "velocity": 64,
      "startTime": 60.5625,
      "duration": 0.17734375000000568,
      "endTime": 60.739843750000006
    },
    {
      "instrumentId": 0,
      "instrumentName": "Instrument_0",
      "isPercussion": false,
      "pitch": 76,
      "velocity": 64,
      "startTime": 61.125,
      "duration": 0.17734375000000568,
      "endTime": 61.302343750000006
    },
    {
      "instrumentId": 1,
      "instrumentName": "Instrument_1",
      "isPercussion": false,
      "pitch": 56,
      "velocity": 64,
      "startTime": 61.125,
      "duration": 0.17734375000000568,
      "endTime": 61.302343750000006
    },
    {
      "instrumentId": 1,
      "instrumentName": "Instrument_1",
      "isPercussion": false,
      "pitch": 61,
      "velocity": 64,
      "startTime": 61.125,
      "duration": 0.17734375000000568,
      "endTime": 61.302343750000006
    },
    {
      "instrumentId": 0,
      "instrumentName": "Instrument_0",
      "isPercussion": false,
      "pitch": 78,
      "velocity": 64,
      "startTime": 61.3125,
      "duration": 0.17734375000000568,
      "endTime": 61.489843750000006
    },
    {
      "instrumentId": 0,
      "instrumentName": "Instrument_0",
      "isPercussion": false,
      "pitch": 76,
      "velocity": 64,
      "startTime": 61.5,
      "duration": 0.35546875,
      "endTime": 61.85546875
    },
    {
      "instrumentId": 0,
      "instrumentName": "Instrument_0",
      "isPercussion": false,
      "pitch": 80,
      "velocity": 64,
      "startTime": 61.5,
      "duration": 0.35546875,
      "endTime": 61.85546875
    },
    {
      "instrumentId": 1,
      "instrumentName": "Instrument_1",
      "isPercussion": false,
      "pitch": 54,
      "velocity": 64,
      "startTime": 61.5,
      "duration": 0.17734375000000568,
      "endTime": 61.677343750000006
    },
    {
      "instrumentId": 1,
      "instrumentName": "Instrument_1",
      "isPercussion": false,
      "pitch": 61,
      "velocity": 64,
      "startTime": 61.5,
      "duration": 0.17734375000000568,
      "endTime": 61.677343750000006
    },
    {
      "instrumentId": 0,
      "instrumentName": "Instrument_0",
      "isPercussion": false,
      "pitch": 78,
      "velocity": 64,
      "startTime": 61.875,
      "duration": 0.17734375000000568,
      "endTime": 62.052343750000006
    },
    {
      "instrumentId": 0,
      "instrumentName": "Instrument_0",
      "isPercussion": false,
      "pitch": 76,
      "velocity": 64,
      "startTime": 62.0625,
      "duration": 0.17734375000000568,
      "endTime": 62.239843750000006
    },
    {
      "instrumentId": 1,
      "instrumentName": "Instrument_1",
      "isPercussion": false,
      "pitch": 54,
      "velocity": 64,
      "startTime": 62.0625,
      "duration": 0.17734375000000568,
      "endTime": 62.239843750000006
    },
    {
      "instrumentId": 1,
      "instrumentName": "Instrument_1",
      "isPercussion": false,
      "pitch": 64,
      "velocity": 64,
      "startTime": 62.0625,
      "duration": 0.17734375000000568,
      "endTime": 62.239843750000006
    },
    {
      "instrumentId": 0,
      "instrumentName": "Instrument_0",
      "isPercussion": false,
      "pitch": 73,
      "velocity": 64,
      "startTime": 62.25,
      "duration": 0.35546875,
      "endTime": 62.60546875
    },
    {
      "instrumentId": 0,
      "instrumentName": "Instrument_0",
      "isPercussion": false,
      "pitch": 76,
      "velocity": 64,
      "startTime": 62.25,
      "duration": 0.35546875,
      "endTime": 62.60546875
    },
    {
      "instrumentId": 0,
      "instrumentName": "Instrument_0",
      "isPercussion": false,
      "pitch": 75,
      "velocity": 64,
      "startTime": 62.625,
      "duration": 0.35546875,
      "endTime": 62.98046875
    },
    {
      "instrumentId": 0,
      "instrumentName": "Instrument_0",
      "isPercussion": false,
      "pitch": 78,
      "velocity": 64,
      "startTime": 62.625,
      "duration": 0.35546875,
      "endTime": 62.98046875
    },
    {
      "instrumentId": 1,
      "instrumentName": "Instrument_1",
      "isPercussion": false,
      "pitch": 54,
      "velocity": 64,
      "startTime": 62.625,
      "duration": 0.17734375000000568,
      "endTime": 62.802343750000006
    },
    {
      "instrumentId": 1,
      "instrumentName": "Instrument_1",
      "isPercussion": false,
      "pitch": 61,
      "velocity": 64,
      "startTime": 62.625,
      "duration": 0.17734375000000568,
      "endTime": 62.802343750000006
    },
    {
      "instrumentId": 0,
      "instrumentName": "Instrument_0",
      "isPercussion": false,
      "pitch": 75,
      "velocity": 64,
      "startTime": 63.0,
      "duration": 0.7117187500000028,
      "endTime": 63.71171875
    },
    {
      "instrumentId": 0,
      "instrumentName": "Instrument_0",
      "isPercussion": false,
      "pitch": 78,
      "velocity": 64,
      "startTime": 63.0,
      "duration": 0.7117187500000028,
      "endTime": 63.71171875
    },
    {
      "instrumentId": 1,
      "instrumentName": "Instrument_1",
      "isPercussion": false,
      "pitch": 57,
      "velocity": 64,
      "startTime": 63.0,
      "duration": 0.17734375000000568,
      "endTime": 63.177343750000006
    },
    {
      "instrumentId": 1,
      "instrumentName": "Instrument_1",
      "isPercussion": false,
      "pitch": 61,
      "velocity": 64,
      "startTime": 63.0,
      "duration": 0.17734375000000568,
      "endTime": 63.177343750000006
    },
    {
      "instrumentId": 1,
      "instrumentName": "Instrument_1",
      "isPercussion": false,
      "pitch": 57,
      "velocity": 64,
      "startTime": 63.5625,
      "duration": 0.17734375000000568,
      "endTime": 63.739843750000006
    },
    {
      "instrumentId": 1,
      "instrumentName": "Instrument_1",
      "isPercussion": false,
      "pitch": 64,
      "velocity": 64,
      "startTime": 63.5625,
      "duration": 0.17734375000000568,
      "endTime": 63.739843750000006
    },
    {
      "instrumentId": 0,
      "instrumentName": "Instrument_0",
      "isPercussion": false,
      "pitch": 73,
      "velocity": 64,
      "startTime": 63.9375,
      "duration": 0.17734375000000568,
      "endTime": 64.11484375
    },
    {
      "instrumentId": 0,
      "instrumentName": "Instrument_0",
      "isPercussion": false,
      "pitch": 76,
      "velocity": 64,
      "startTime": 64.125,
      "duration": 0.17734375000000568,
      "endTime": 64.30234375
    },
    {
      "instrumentId": 1,
      "instrumentName": "Instrument_1",
      "isPercussion": false,
      "pitch": 57,
      "velocity": 64,
      "startTime": 64.125,
      "duration": 0.17734375000000568,
      "endTime": 64.30234375
    },
    {
      "instrumentId": 1,
      "instrumentName": "Instrument_1",
      "isPercussion": false,
      "pitch": 61,
      "velocity": 64,
      "startTime": 64.125,
      "duration": 0.17734375000000568,
      "endTime": 64.30234375
    },
    {
      "instrumentId": 0,
      "instrumentName": "Instrument_0",
      "isPercussion": false,
      "pitch": 78,
      "velocity": 64,
      "startTime": 64.3125,
      "duration": 0.17734375000000568,
      "endTime": 64.48984375
    },
    {
      "instrumentId": 0,
      "instrumentName": "Instrument_0",
      "isPercussion": false,
      "pitch": 76,
      "velocity": 64,
      "startTime": 64.5,
      "duration": 0.35546875,
      "endTime": 64.85546875
    },
    {
      "instrumentId": 0,
      "instrumentName": "Instrument_0",
      "isPercussion": false,
      "pitch": 80,
      "velocity": 64,
      "startTime": 64.5,
      "duration": 0.35546875,
      "endTime": 64.85546875
    },
    {
      "instrumentId": 1,
      "instrumentName": "Instrument_1",
      "isPercussion": false,
      "pitch": 54,
      "velocity": 64,
      "startTime": 64.5,
      "duration": 0.17734375000000568,
      "endTime": 64.67734375
    },
    {
      "instrumentId": 1,
      "instrumentName": "Instrument_1",
      "isPercussion": false,
      "pitch": 59,
      "velocity": 64,
      "startTime": 64.5,
      "duration": 0.17734375000000568,
      "endTime": 64.67734375
    },
    {
      "instrumentId": 1,
      "instrumentName": "Instrument_1",
      "isPercussion": false,
      "pitch": 63,
      "velocity": 64,
      "startTime": 64.5,
      "duration": 0.17734375000000568,
      "endTime": 64.67734375
    },
    {
      "instrumentId": 0,
      "instrumentName": "Instrument_0",
      "isPercussion": false,
      "pitch": 78,
      "velocity": 64,
      "startTime": 64.875,
      "duration": 0.17734375000000568,
      "endTime": 65.05234375
    },
    {
      "instrumentId": 0,
      "instrumentName": "Instrument_0",
      "isPercussion": false,
      "pitch": 76,
      "velocity": 64,
      "startTime": 65.0625,
      "duration": 0.17734375000000568,
      "endTime": 65.23984375
    },
    {
      "instrumentId": 1,
      "instrumentName": "Instrument_1",
      "isPercussion": false,
      "pitch": 54,
      "velocity": 64,
      "startTime": 65.0625,
      "duration": 0.17734375000000568,
      "endTime": 65.23984375
    },
    {
      "instrumentId": 1,
      "instrumentName": "Instrument_1",
      "isPercussion": false,
      "pitch": 59,
      "velocity": 64,
      "startTime": 65.0625,
      "duration": 0.17734375000000568,
      "endTime": 65.23984375
    },
    {
      "instrumentId": 1,
      "instrumentName": "Instrument_1",
      "isPercussion": false,
      "pitch": 61,
      "velocity": 64,
      "startTime": 65.0625,
      "duration": 0.17734375000000568,
      "endTime": 65.23984375
    },
    {
      "instrumentId": 0,
      "instrumentName": "Instrument_0",
      "isPercussion": false,
      "pitch": 73,
      "velocity": 64,
      "startTime": 65.25,
      "duration": 0.35546875,
      "endTime": 65.60546875
    },
    {
      "instrumentId": 0,
      "instrumentName": "Instrument_0",
      "isPercussion": false,
      "pitch": 76,
      "velocity": 64,
      "startTime": 65.25,
      "duration": 0.35546875,
      "endTime": 65.60546875
    },
    {
      "instrumentId": 0,
      "instrumentName": "Instrument_0",
      "isPercussion": false,
      "pitch": 75,
      "velocity": 64,
      "startTime": 65.625,
      "duration": 0.35546875,
      "endTime": 65.98046875
    },
    {
      "instrumentId": 0,
      "instrumentName": "Instrument_0",
      "isPercussion": false,
      "pitch": 78,
      "velocity": 64,
      "startTime": 65.625,
      "duration": 0.35546875,
      "endTime": 65.98046875
    },
    {
      "instrumentId": 1,
      "instrumentName": "Instrument_1",
      "isPercussion": false,
      "pitch": 54,
      "velocity": 64,
      "startTime": 65.625,
      "duration": 0.17734375000000568,
      "endTime": 65.80234375
    },
    {
      "instrumentId": 1,
      "instrumentName": "Instrument_1",
      "isPercussion": false,
      "pitch": 59,
      "velocity": 64,
      "startTime": 65.625,
      "duration": 0.17734375000000568,
      "endTime": 65.80234375
    },
    {
      "instrumentId": 0,
      "instrumentName": "Instrument_0",
      "isPercussion": false,
      "pitch": 68,
      "velocity": 64,
      "startTime": 66.0,
      "duration": 0.7117187500000028,
      "endTime": 66.71171875
    },
    {
      "instrumentId": 0,
      "instrumentName": "Instrument_0",
      "isPercussion": false,
      "pitch": 73,
      "velocity": 64,
      "startTime": 66.0,
      "duration": 0.7117187500000028,
      "endTime": 66.71171875
    },
    {
      "instrumentId": 1,
      "instrumentName": "Instrument_1",
      "isPercussion": false,
      "pitch": 56,
      "velocity": 64,
      "startTime": 66.0,
      "duration": 0.17734375000000568,
      "endTime": 66.17734375
    },
    {
      "instrumentId": 1,
      "instrumentName": "Instrument_1",
      "isPercussion": false,
      "pitch": 61,
      "velocity": 64,
      "startTime": 66.0,
      "duration": 0.17734375000000568,
      "endTime": 66.17734375
    },
    {
      "instrumentId": 1,
      "instrumentName": "Instrument_1",
      "isPercussion": false,
      "pitch": 56,
      "velocity": 64,
      "startTime": 66.5625,
      "duration": 0.17734375000000568,
      "endTime": 66.73984375
    },
    {
      "instrumentId": 1,
      "instrumentName": "Instrument_1",
      "isPercussion": false,
      "pitch": 64,
      "velocity": 64,
      "startTime": 66.5625,
      "duration": 0.17734375000000568,
      "endTime": 66.73984375
    },
    {
      "instrumentId": 0,
      "instrumentName": "Instrument_0",
      "isPercussion": false,
      "pitch": 73,
      "velocity": 64,
      "startTime": 66.9375,
      "duration": 0.17734375000000568,
      "endTime": 67.11484375
    },
    {
      "instrumentId": 0,
      "instrumentName": "Instrument_0",
      "isPercussion": false,
      "pitch": 76,
      "velocity": 64,
      "startTime": 67.125,
      "duration": 0.17734375000000568,
      "endTime": 67.30234375
    },
    {
      "instrumentId": 1,
      "instrumentName": "Instrument_1",
      "isPercussion": false,
      "pitch": 56,
      "velocity": 64,
      "startTime": 67.125,
      "duration": 0.17734375000000568,
      "endTime": 67.30234375
    },
    {
      "instrumentId": 1,
      "instrumentName": "Instrument_1",
      "isPercussion": false,
      "pitch": 61,
      "velocity": 64,
      "startTime": 67.125,
      "duration": 0.17734375000000568,
      "endTime": 67.30234375
    },
    {
      "instrumentId": 0,
      "instrumentName": "Instrument_0",
      "isPercussion": false,
      "pitch": 78,
      "velocity": 64,
      "startTime": 67.3125,
      "duration": 0.17734375000000568,
      "endTime": 67.48984375
    },
    {
      "instrumentId": 0,
      "instrumentName": "Instrument_0",
      "isPercussion": false,
      "pitch": 76,
      "velocity": 64,
      "startTime": 67.5,
      "duration": 0.35546875,
      "endTime": 67.85546875
    },
    {
      "instrumentId": 0,
      "instrumentName": "Instrument_0",
      "isPercussion": false,
      "pitch": 80,
      "velocity": 64,
      "startTime": 67.5,
      "duration": 0.35546875,
      "endTime": 67.85546875
    },
    {
      "instrumentId": 1,
      "instrumentName": "Instrument_1",
      "isPercussion": false,
      "pitch": 54,
      "velocity": 64,
      "startTime": 67.5,
      "duration": 0.17734375000000568,
      "endTime": 67.67734375
    },
    {
      "instrumentId": 1,
      "instrumentName": "Instrument_1",
      "isPercussion": false,
      "pitch": 61,
      "velocity": 64,
      "startTime": 67.5,
      "duration": 0.17734375000000568,
      "endTime": 67.67734375
    },
    {
      "instrumentId": 0,
      "instrumentName": "Instrument_0",
      "isPercussion": false,
      "pitch": 68,
      "velocity": 64,
      "startTime": 67.875,
      "duration": 0.35546875,
      "endTime": 68.23046875
    },
    {
      "instrumentId": 0,
      "instrumentName": "Instrument_0",
      "isPercussion": false,
      "pitch": 73,
      "velocity": 64,
      "startTime": 67.875,
      "duration": 0.35546875,
      "endTime": 68.23046875
    },
    {
      "instrumentId": 1,
      "instrumentName": "Instrument_1",
      "isPercussion": false,
      "pitch": 54,
      "velocity": 64,
      "startTime": 68.0625,
      "duration": 0.17734375000000568,
      "endTime": 68.23984375
    },
    {
      "instrumentId": 1,
      "instrumentName": "Instrument_1",
      "isPercussion": false,
      "pitch": 64,
      "velocity": 64,
      "startTime": 68.0625,
      "duration": 0.17734375000000568,
      "endTime": 68.23984375
    },
    {
      "instrumentId": 0,
      "instrumentName": "Instrument_0",
      "isPercussion": false,
      "pitch": 73,
      "velocity": 64,
      "startTime": 68.25,
      "duration": 0.35546875,
      "endTime": 68.60546875
    },
    {
      "instrumentId": 0,
      "instrumentName": "Instrument_0",
      "isPercussion": false,
      "pitch": 76,
      "velocity": 64,
      "startTime": 68.25,
      "duration": 0.35546875,
      "endTime": 68.60546875
    },
    {
      "instrumentId": 0,
      "instrumentName": "Instrument_0",
      "isPercussion": false,
      "pitch": 75,
      "velocity": 64,
      "startTime": 68.625,
      "duration": 0.35546875,
      "endTime": 68.98046875
    },
    {
      "instrumentId": 0,
      "instrumentName": "Instrument_0",
      "isPercussion": false,
      "pitch": 78,
      "velocity": 64,
      "startTime": 68.625,
      "duration": 0.35546875,
      "endTime": 68.98046875
    },
    {
      "instrumentId": 1,
      "instrumentName": "Instrument_1",
      "isPercussion": false,
      "pitch": 54,
      "velocity": 64,
      "startTime": 68.625,
      "duration": 0.17734375000000568,
      "endTime": 68.80234375
    },
    {
      "instrumentId": 1,
      "instrumentName": "Instrument_1",
      "isPercussion": false,
      "pitch": 61,
      "velocity": 64,
      "startTime": 68.625,
      "duration": 0.17734375000000568,
      "endTime": 68.80234375
    },
    {
      "instrumentId": 0,
      "instrumentName": "Instrument_0",
      "isPercussion": false,
      "pitch": 75,
      "velocity": 64,
      "startTime": 69.0,
      "duration": 1.0679687500000057,
      "endTime": 70.06796875
    },
    {
      "instrumentId": 0,
      "instrumentName": "Instrument_0",
      "isPercussion": false,
      "pitch": 78,
      "velocity": 64,
      "startTime": 69.0,
      "duration": 1.0679687500000057,
      "endTime": 70.06796875
    },
    {
      "instrumentId": 1,
      "instrumentName": "Instrument_1",
      "isPercussion": false,
      "pitch": 57,
      "velocity": 64,
      "startTime": 69.0,
      "duration": 0.17734375000000568,
      "endTime": 69.17734375
    },
    {
      "instrumentId": 1,
      "instrumentName": "Instrument_1",
      "isPercussion": false,
      "pitch": 61,
      "velocity": 64,
      "startTime": 69.0,
      "duration": 0.17734375000000568,
      "endTime": 69.17734375
    },
    {
      "instrumentId": 1,
      "instrumentName": "Instrument_1",
      "isPercussion": false,
      "pitch": 57,
      "velocity": 64,
      "startTime": 69.5625,
      "duration": 0.17734375000000568,
      "endTime": 69.73984375
    },
    {
      "instrumentId": 1,
      "instrumentName": "Instrument_1",
      "isPercussion": false,
      "pitch": 64,
      "velocity": 64,
      "startTime": 69.5625,
      "duration": 0.17734375000000568,
      "endTime": 69.73984375
    },
    {
      "instrumentId": 0,
      "instrumentName": "Instrument_0",
      "isPercussion": false,
      "pitch": 76,
      "velocity": 64,
      "startTime": 70.125,
      "duration": 0.17734375000000568,
      "endTime": 70.30234375
    },
    {
      "instrumentId": 1,
      "instrumentName": "Instrument_1",
      "isPercussion": false,
      "pitch": 57,
      "velocity": 64,
      "startTime": 70.125,
      "duration": 0.17734375000000568,
      "endTime": 70.30234375
    },
    {
      "instrumentId": 1,
      "instrumentName": "Instrument_1",
      "isPercussion": false,
      "pitch": 61,
      "velocity": 64,
      "startTime": 70.125,
      "duration": 0.17734375000000568,
      "endTime": 70.30234375
    },
    {
      "instrumentId": 0,
      "instrumentName": "Instrument_0",
      "isPercussion": false,
      "pitch": 78,
      "velocity": 64,
      "startTime": 70.3125,
      "duration": 0.17734375000000568,
      "endTime": 70.48984375
    },
    {
      "instrumentId": 0,
      "instrumentName": "Instrument_0",
      "isPercussion": false,
      "pitch": 76,
      "velocity": 64,
      "startTime": 70.5,
      "duration": 0.35546875,
      "endTime": 70.85546875
    },
    {
      "instrumentId": 0,
      "instrumentName": "Instrument_0",
      "isPercussion": false,
      "pitch": 80,
      "velocity": 64,
      "startTime": 70.5,
      "duration": 0.35546875,
      "endTime": 70.85546875
    },
    {
      "instrumentId": 1,
      "instrumentName": "Instrument_1",
      "isPercussion": false,
      "pitch": 54,
      "velocity": 64,
      "startTime": 70.5,
      "duration": 0.17734375000000568,
      "endTime": 70.67734375
    },
    {
      "instrumentId": 1,
      "instrumentName": "Instrument_1",
      "isPercussion": false,
      "pitch": 59,
      "velocity": 64,
      "startTime": 70.5,
      "duration": 0.17734375000000568,
      "endTime": 70.67734375
    },
    {
      "instrumentId": 1,
      "instrumentName": "Instrument_1",
      "isPercussion": false,
      "pitch": 63,
      "velocity": 64,
      "startTime": 70.5,
      "duration": 0.17734375000000568,
      "endTime": 70.67734375
    },
    {
      "instrumentId": 0,
      "instrumentName": "Instrument_0",
      "isPercussion": false,
      "pitch": 78,
      "velocity": 64,
      "startTime": 70.875,
      "duration": 0.17734375000000568,
      "endTime": 71.05234375
    },
    {
      "instrumentId": 0,
      "instrumentName": "Instrument_0",
      "isPercussion": false,
      "pitch": 76,
      "velocity": 64,
      "startTime": 71.0625,
      "duration": 0.17734375000000568,
      "endTime": 71.23984375
    },
    {
      "instrumentId": 1,
      "instrumentName": "Instrument_1",
      "isPercussion": false,
      "pitch": 54,
      "velocity": 64,
      "startTime": 71.0625,
      "duration": 0.17734375000000568,
      "endTime": 71.23984375
    },
    {
      "instrumentId": 1,
      "instrumentName": "Instrument_1",
      "isPercussion": false,
      "pitch": 59,
      "velocity": 64,
      "startTime": 71.0625,
      "duration": 0.17734375000000568,
      "endTime": 71.23984375
    },
    {
      "instrumentId": 1,
      "instrumentName": "Instrument_1",
      "isPercussion": false,
      "pitch": 61,
      "velocity": 64,
      "startTime": 71.0625,
      "duration": 0.17734375000000568,
      "endTime": 71.23984375
    },
    {
      "instrumentId": 0,
      "instrumentName": "Instrument_0",
      "isPercussion": false,
      "pitch": 75,
      "velocity": 64,
      "startTime": 71.25,
      "duration": 0.5335937500000085,
      "endTime": 71.78359375000001
    },
    {
      "instrumentId": 0,
      "instrumentName": "Instrument_0",
      "isPercussion": false,
      "pitch": 78,
      "velocity": 64,
      "startTime": 71.25,
      "duration": 0.5335937500000085,
      "endTime": 71.78359375000001
    },
    {
      "instrumentId": 1,
      "instrumentName": "Instrument_1",
      "isPercussion": false,
      "pitch": 54,
      "velocity": 64,
      "startTime": 71.625,
      "duration": 0.17734375000000568,
      "endTime": 71.80234375
    },
    {
      "instrumentId": 1,
      "instrumentName": "Instrument_1",
      "isPercussion": false,
      "pitch": 59,
      "velocity": 64,
      "startTime": 71.625,
      "duration": 0.17734375000000568,
      "endTime": 71.80234375
    },
    {
      "instrumentId": 0,
      "instrumentName": "Instrument_0",
      "isPercussion": false,
      "pitch": 68,
      "velocity": 64,
      "startTime": 71.8125,
      "duration": 1.24609375,
      "endTime": 73.05859375
    },
    {
      "instrumentId": 0,
      "instrumentName": "Instrument_0",
      "isPercussion": false,
      "pitch": 73,
      "velocity": 64,
      "startTime": 71.8125,
      "duration": 1.24609375,
      "endTime": 73.05859375
    },
    {
      "instrumentId": 1,
      "instrumentName": "Instrument_1",
      "isPercussion": false,
      "pitch": 56,
      "velocity": 64,
      "startTime": 72.0,
      "duration": 0.17734375000000568,
      "endTime": 72.17734375
    },
    {
      "instrumentId": 1,
      "instrumentName": "Instrument_1",
      "isPercussion": false,
      "pitch": 61,
      "velocity": 64,
      "startTime": 72.0,
      "duration": 0.17734375000000568,
      "endTime": 72.17734375
    },
    {
      "instrumentId": 1,
      "instrumentName": "Instrument_1",
      "isPercussion": false,
      "pitch": 56,
      "velocity": 64,
      "startTime": 72.5625,
      "duration": 0.17734375000000568,
      "endTime": 72.73984375
    },
    {
      "instrumentId": 1,
      "instrumentName": "Instrument_1",
      "isPercussion": false,
      "pitch": 64,
      "velocity": 64,
      "startTime": 72.5625,
      "duration": 0.17734375000000568,
      "endTime": 72.73984375
    },
    {
      "instrumentId": 0,
      "instrumentName": "Instrument_0",
      "isPercussion": false,
      "pitch": 68,
      "velocity": 64,
      "startTime": 73.125,
      "duration": 0.35546875,
      "endTime": 73.48046875
    },
    {
      "instrumentId": 0,
      "instrumentName": "Instrument_0",
      "isPercussion": false,
      "pitch": 73,
      "velocity": 64,
      "startTime": 73.125,
      "duration": 0.35546875,
      "endTime": 73.48046875
    },
    {
      "instrumentId": 1,
      "instrumentName": "Instrument_1",
      "isPercussion": false,
      "pitch": 56,
      "velocity": 64,
      "startTime": 73.125,
      "duration": 0.17734375000000568,
      "endTime": 73.30234375
    },
    {
      "instrumentId": 1,
      "instrumentName": "Instrument_1",
      "isPercussion": false,
      "pitch": 61,
      "velocity": 64,
      "startTime": 73.125,
      "duration": 0.17734375000000568,
      "endTime": 73.30234375
    },
    {
      "instrumentId": 0,
      "instrumentName": "Instrument_0",
      "isPercussion": false,
      "pitch": 76,
      "velocity": 64,
      "startTime": 73.5,
      "duration": 0.35546875,
      "endTime": 73.85546875
    },
    {
      "instrumentId": 0,
      "instrumentName": "Instrument_0",
      "isPercussion": false,
      "pitch": 80,
      "velocity": 64,
      "startTime": 73.5,
      "duration": 0.35546875,
      "endTime": 73.85546875
    },
    {
      "instrumentId": 1,
      "instrumentName": "Instrument_1",
      "isPercussion": false,
      "pitch": 54,
      "velocity": 64,
      "startTime": 73.5,
      "duration": 0.17734375000000568,
      "endTime": 73.67734375
    },
    {
      "instrumentId": 1,
      "instrumentName": "Instrument_1",
      "isPercussion": false,
      "pitch": 61,
      "velocity": 64,
      "startTime": 73.5,
      "duration": 0.17734375000000568,
      "endTime": 73.67734375
    },
    {
      "instrumentId": 0,
      "instrumentName": "Instrument_0",
      "isPercussion": false,
      "pitch": 83,
      "velocity": 64,
      "startTime": 73.875,
      "duration": 0.17734375000000568,
      "endTime": 74.05234375
    },
    {
      "instrumentId": 0,
      "instrumentName": "Instrument_0",
      "isPercussion": false,
      "pitch": 80,
      "velocity": 64,
      "startTime": 74.0625,
      "duration": 0.17734375000000568,
      "endTime": 74.23984375
    },
    {
      "instrumentId": 1,
      "instrumentName": "Instrument_1",
      "isPercussion": false,
      "pitch": 54,
      "velocity": 64,
      "startTime": 74.0625,
      "duration": 0.17734375000000568,
      "endTime": 74.23984375
    },
    {
      "instrumentId": 1,
      "instrumentName": "Instrument_1",
      "isPercussion": false,
      "pitch": 64,
      "velocity": 64,
      "startTime": 74.0625,
      "duration": 0.17734375000000568,
      "endTime": 74.23984375
    },
    {
      "instrumentId": 0,
      "instrumentName": "Instrument_0",
      "isPercussion": false,
      "pitch": 75,
      "velocity": 64,
      "startTime": 74.25,
      "duration": 0.35546875,
      "endTime": 74.60546875
    },
    {
      "instrumentId": 0,
      "instrumentName": "Instrument_0",
      "isPercussion": false,
      "pitch": 78,
      "velocity": 64,
      "startTime": 74.25,
      "duration": 0.35546875,
      "endTime": 74.60546875
    },
    {
      "instrumentId": 0,
      "instrumentName": "Instrument_0",
      "isPercussion": false,
      "pitch": 73,
      "velocity": 64,
      "startTime": 74.625,
      "duration": 0.35546875,
      "endTime": 74.98046875
    },
    {
      "instrumentId": 0,
      "instrumentName": "Instrument_0",
      "isPercussion": false,
      "pitch": 76,
      "velocity": 64,
      "startTime": 74.625,
      "duration": 0.35546875,
      "endTime": 74.98046875
    },
    {
      "instrumentId": 1,
      "instrumentName": "Instrument_1",
      "isPercussion": false,
      "pitch": 54,
      "velocity": 64,
      "startTime": 74.625,
      "duration": 0.17734375000000568,
      "endTime": 74.80234375
    },
    {
      "instrumentId": 1,
      "instrumentName": "Instrument_1",
      "isPercussion": false,
      "pitch": 61,
      "velocity": 64,
      "startTime": 74.625,
      "duration": 0.17734375000000568,
      "endTime": 74.80234375
    },
    {
      "instrumentId": 0,
      "instrumentName": "Instrument_0",
      "isPercussion": false,
      "pitch": 75,
      "velocity": 64,
      "startTime": 75.0,
      "duration": 0.7117187500000028,
      "endTime": 75.71171875
    },
    {
      "instrumentId": 0,
      "instrumentName": "Instrument_0",
      "isPercussion": false,
      "pitch": 78,
      "velocity": 64,
      "startTime": 75.0,
      "duration": 0.7117187500000028,
      "endTime": 75.71171875
    },
    {
      "instrumentId": 1,
      "instrumentName": "Instrument_1",
      "isPercussion": false,
      "pitch": 57,
      "velocity": 64,
      "startTime": 75.0,
      "duration": 0.17734375000000568,
      "endTime": 75.17734375
    },
    {
      "instrumentId": 1,
      "instrumentName": "Instrument_1",
      "isPercussion": false,
      "pitch": 61,
      "velocity": 64,
      "startTime": 75.0,
      "duration": 0.17734375000000568,
      "endTime": 75.17734375
    },
    {
      "instrumentId": 1,
      "instrumentName": "Instrument_1",
      "isPercussion": false,
      "pitch": 57,
      "velocity": 64,
      "startTime": 75.5625,
      "duration": 0.17734375000000568,
      "endTime": 75.73984375
    },
    {
      "instrumentId": 1,
      "instrumentName": "Instrument_1",
      "isPercussion": false,
      "pitch": 64,
      "velocity": 64,
      "startTime": 75.5625,
      "duration": 0.17734375000000568,
      "endTime": 75.73984375
    },
    {
      "instrumentId": 0,
      "instrumentName": "Instrument_0",
      "isPercussion": false,
      "pitch": 73,
      "velocity": 64,
      "startTime": 75.9375,
      "duration": 0.17734375000000568,
      "endTime": 76.11484375
    },
    {
      "instrumentId": 0,
      "instrumentName": "Instrument_0",
      "isPercussion": false,
      "pitch": 76,
      "velocity": 64,
      "startTime": 76.125,
      "duration": 0.17734375000000568,
      "endTime": 76.30234375
    },
    {
      "instrumentId": 1,
      "instrumentName": "Instrument_1",
      "isPercussion": false,
      "pitch": 57,
      "velocity": 64,
      "startTime": 76.125,
      "duration": 0.17734375000000568,
      "endTime": 76.30234375
    },
    {
      "instrumentId": 1,
      "instrumentName": "Instrument_1",
      "isPercussion": false,
      "pitch": 61,
      "velocity": 64,
      "startTime": 76.125,
      "duration": 0.17734375000000568,
      "endTime": 76.30234375
    },
    {
      "instrumentId": 0,
      "instrumentName": "Instrument_0",
      "isPercussion": false,
      "pitch": 78,
      "velocity": 64,
      "startTime": 76.3125,
      "duration": 0.17734375000000568,
      "endTime": 76.48984375
    },
    {
      "instrumentId": 0,
      "instrumentName": "Instrument_0",
      "isPercussion": false,
      "pitch": 76,
      "velocity": 64,
      "startTime": 76.5,
      "duration": 0.35546875,
      "endTime": 76.85546875
    },
    {
      "instrumentId": 0,
      "instrumentName": "Instrument_0",
      "isPercussion": false,
      "pitch": 80,
      "velocity": 64,
      "startTime": 76.5,
      "duration": 0.35546875,
      "endTime": 76.85546875
    },
    {
      "instrumentId": 1,
      "instrumentName": "Instrument_1",
      "isPercussion": false,
      "pitch": 54,
      "velocity": 64,
      "startTime": 76.5,
      "duration": 0.17734375000000568,
      "endTime": 76.67734375
    },
    {
      "instrumentId": 1,
      "instrumentName": "Instrument_1",
      "isPercussion": false,
      "pitch": 59,
      "velocity": 64,
      "startTime": 76.5,
      "duration": 0.17734375000000568,
      "endTime": 76.67734375
    },
    {
      "instrumentId": 1,
      "instrumentName": "Instrument_1",
      "isPercussion": false,
      "pitch": 63,
      "velocity": 64,
      "startTime": 76.5,
      "duration": 0.17734375000000568,
      "endTime": 76.67734375
    },
    {
      "instrumentId": 0,
      "instrumentName": "Instrument_0",
      "isPercussion": false,
      "pitch": 75,
      "velocity": 64,
      "startTime": 76.875,
      "duration": 0.35546875,
      "endTime": 77.23046875
    },
    {
      "instrumentId": 0,
      "instrumentName": "Instrument_0",
      "isPercussion": false,
      "pitch": 78,
      "velocity": 64,
      "startTime": 76.875,
      "duration": 0.35546875,
      "endTime": 77.23046875
    },
    {
      "instrumentId": 1,
      "instrumentName": "Instrument_1",
      "isPercussion": false,
      "pitch": 54,
      "velocity": 64,
      "startTime": 77.0625,
      "duration": 0.17734375000000568,
      "endTime": 77.23984375
    },
    {
      "instrumentId": 1,
      "instrumentName": "Instrument_1",
      "isPercussion": false,
      "pitch": 59,
      "velocity": 64,
      "startTime": 77.0625,
      "duration": 0.17734375000000568,
      "endTime": 77.23984375
    },
    {
      "instrumentId": 1,
      "instrumentName": "Instrument_1",
      "isPercussion": false,
      "pitch": 61,
      "velocity": 64,
      "startTime": 77.0625,
      "duration": 0.17734375000000568,
      "endTime": 77.23984375
    },
    {
      "instrumentId": 0,
      "instrumentName": "Instrument_0",
      "isPercussion": false,
      "pitch": 73,
      "velocity": 64,
      "startTime": 77.25,
      "duration": 0.35546875,
      "endTime": 77.60546875
    },
    {
      "instrumentId": 0,
      "instrumentName": "Instrument_0",
      "isPercussion": false,
      "pitch": 76,
      "velocity": 64,
      "startTime": 77.25,
      "duration": 0.35546875,
      "endTime": 77.60546875
    },
    {
      "instrumentId": 0,
      "instrumentName": "Instrument_0",
      "isPercussion": false,
      "pitch": 75,
      "velocity": 64,
      "startTime": 77.625,
      "duration": 0.35546875,
      "endTime": 77.98046875
    },
    {
      "instrumentId": 0,
      "instrumentName": "Instrument_0",
      "isPercussion": false,
      "pitch": 78,
      "velocity": 64,
      "startTime": 77.625,
      "duration": 0.35546875,
      "endTime": 77.98046875
    },
    {
      "instrumentId": 1,
      "instrumentName": "Instrument_1",
      "isPercussion": false,
      "pitch": 54,
      "velocity": 64,
      "startTime": 77.625,
      "duration": 0.17734375000000568,
      "endTime": 77.80234375
    },
    {
      "instrumentId": 1,
      "instrumentName": "Instrument_1",
      "isPercussion": false,
      "pitch": 59,
      "velocity": 64,
      "startTime": 77.625,
      "duration": 0.17734375000000568,
      "endTime": 77.80234375
    },
    {
      "instrumentId": 0,
      "instrumentName": "Instrument_0",
      "isPercussion": false,
      "pitch": 68,
      "velocity": 64,
      "startTime": 78.0,
      "duration": 0.35546875,
      "endTime": 78.35546875
    },
    {
      "instrumentId": 0,
      "instrumentName": "Instrument_0",
      "isPercussion": false,
      "pitch": 73,
      "velocity": 64,
      "startTime": 78.0,
      "duration": 0.35546875,
      "endTime": 78.35546875
    },
    {
      "instrumentId": 1,
      "instrumentName": "Instrument_1",
      "isPercussion": false,
      "pitch": 56,
      "velocity": 64,
      "startTime": 78.0,
      "duration": 0.17734375000000568,
      "endTime": 78.17734375
    },
    {
      "instrumentId": 1,
      "instrumentName": "Instrument_1",
      "isPercussion": false,
      "pitch": 61,
      "velocity": 64,
      "startTime": 78.0,
      "duration": 0.17734375000000568,
      "endTime": 78.17734375
    },
    {
      "instrumentId": 0,
      "instrumentName": "Instrument_0",
      "isPercussion": false,
      "pitch": 68,
      "velocity": 64,
      "startTime": 78.375,
      "duration": 0.17734375000000568,
      "endTime": 78.55234375
    },
    {
      "instrumentId": 0,
      "instrumentName": "Instrument_0",
      "isPercussion": false,
      "pitch": 73,
      "velocity": 64,
      "startTime": 78.375,
      "duration": 0.17734375000000568,
      "endTime": 78.55234375
    },
    {
      "instrumentId": 0,
      "instrumentName": "Instrument_0",
      "isPercussion": false,
      "pitch": 73,
      "velocity": 64,
      "startTime": 78.5625,
      "duration": 0.17734375000000568,
      "endTime": 78.73984375
    },
    {
      "instrumentId": 1,
      "instrumentName": "Instrument_1",
      "isPercussion": false,
      "pitch": 56,
      "velocity": 64,
      "startTime": 78.5625,
      "duration": 0.17734375000000568,
      "endTime": 78.73984375
    },
    {
      "instrumentId": 1,
      "instrumentName": "Instrument_1",
      "isPercussion": false,
      "pitch": 64,
      "velocity": 64,
      "startTime": 78.5625,
      "duration": 0.17734375000000568,
      "endTime": 78.73984375
    },
    {
      "instrumentId": 0,
      "instrumentName": "Instrument_0",
      "isPercussion": false,
      "pitch": 68,
      "velocity": 64,
      "startTime": 78.75,
      "duration": 0.17734375000000568,
      "endTime": 78.92734375
    },
    {
      "instrumentId": 0,
      "instrumentName": "Instrument_0",
      "isPercussion": false,
      "pitch": 73,
      "velocity": 64,
      "startTime": 78.75,
      "duration": 0.17734375000000568,
      "endTime": 78.92734375
    },
    {
      "instrumentId": 0,
      "instrumentName": "Instrument_0",
      "isPercussion": false,
      "pitch": 73,
      "velocity": 64,
      "startTime": 78.9375,
      "duration": 0.17734375000000568,
      "endTime": 79.11484375
    },
    {
      "instrumentId": 0,
      "instrumentName": "Instrument_0",
      "isPercussion": false,
      "pitch": 73,
      "velocity": 64,
      "startTime": 79.125,
      "duration": 0.17734375000000568,
      "endTime": 79.30234375
    },
    {
      "instrumentId": 0,
      "instrumentName": "Instrument_0",
      "isPercussion": false,
      "pitch": 76,
      "velocity": 64,
      "startTime": 79.125,
      "duration": 0.17734375000000568,
      "endTime": 79.30234375
    },
    {
      "instrumentId": 1,
      "instrumentName": "Instrument_1",
      "isPercussion": false,
      "pitch": 56,
      "velocity": 64,
      "startTime": 79.125,
      "duration": 0.17734375000000568,
      "endTime": 79.30234375
    },
    {
      "instrumentId": 1,
      "instrumentName": "Instrument_1",
      "isPercussion": false,
      "pitch": 61,
      "velocity": 64,
      "startTime": 79.125,
      "duration": 0.17734375000000568,
      "endTime": 79.30234375
    },
    {
      "instrumentId": 0,
      "instrumentName": "Instrument_0",
      "isPercussion": false,
      "pitch": 78,
      "velocity": 64,
      "startTime": 79.3125,
      "duration": 0.17734375000000568,
      "endTime": 79.48984375
    },
    {
      "instrumentId": 0,
      "instrumentName": "Instrument_0",
      "isPercussion": false,
      "pitch": 76,
      "velocity": 64,
      "startTime": 79.5,
      "duration": 0.35546875,
      "endTime": 79.85546875
    },
    {
      "instrumentId": 0,
      "instrumentName": "Instrument_0",
      "isPercussion": false,
      "pitch": 80,
      "velocity": 64,
      "startTime": 79.5,
      "duration": 0.35546875,
      "endTime": 79.85546875
    },
    {
      "instrumentId": 1,
      "instrumentName": "Instrument_1",
      "isPercussion": false,
      "pitch": 54,
      "velocity": 64,
      "startTime": 79.5,
      "duration": 0.17734375000000568,
      "endTime": 79.67734375
    },
    {
      "instrumentId": 1,
      "instrumentName": "Instrument_1",
      "isPercussion": false,
      "pitch": 61,
      "velocity": 64,
      "startTime": 79.5,
      "duration": 0.17734375000000568,
      "endTime": 79.67734375
    },
    {
      "instrumentId": 0,
      "instrumentName": "Instrument_0",
      "isPercussion": false,
      "pitch": 68,
      "velocity": 64,
      "startTime": 79.875,
      "duration": 0.35546875,
      "endTime": 80.23046875
    },
    {
      "instrumentId": 0,
      "instrumentName": "Instrument_0",
      "isPercussion": false,
      "pitch": 73,
      "velocity": 64,
      "startTime": 79.875,
      "duration": 0.35546875,
      "endTime": 80.23046875
    },
    {
      "instrumentId": 1,
      "instrumentName": "Instrument_1",
      "isPercussion": false,
      "pitch": 54,
      "velocity": 64,
      "startTime": 80.0625,
      "duration": 0.17734375000000568,
      "endTime": 80.23984375
    },
    {
      "instrumentId": 1,
      "instrumentName": "Instrument_1",
      "isPercussion": false,
      "pitch": 64,
      "velocity": 64,
      "startTime": 80.0625,
      "duration": 0.17734375000000568,
      "endTime": 80.23984375
    },
    {
      "instrumentId": 0,
      "instrumentName": "Instrument_0",
      "isPercussion": false,
      "pitch": 73,
      "velocity": 64,
      "startTime": 80.25,
      "duration": 0.35546875,
      "endTime": 80.60546875
    },
    {
      "instrumentId": 0,
      "instrumentName": "Instrument_0",
      "isPercussion": false,
      "pitch": 76,
      "velocity": 64,
      "startTime": 80.25,
      "duration": 0.35546875,
      "endTime": 80.60546875
    },
    {
      "instrumentId": 0,
      "instrumentName": "Instrument_0",
      "isPercussion": false,
      "pitch": 75,
      "velocity": 64,
      "startTime": 80.625,
      "duration": 0.35546875,
      "endTime": 80.98046875
    },
    {
      "instrumentId": 0,
      "instrumentName": "Instrument_0",
      "isPercussion": false,
      "pitch": 78,
      "velocity": 64,
      "startTime": 80.625,
      "duration": 0.35546875,
      "endTime": 80.98046875
    },
    {
      "instrumentId": 1,
      "instrumentName": "Instrument_1",
      "isPercussion": false,
      "pitch": 54,
      "velocity": 64,
      "startTime": 80.625,
      "duration": 0.17734375000000568,
      "endTime": 80.80234375
    },
    {
      "instrumentId": 1,
      "instrumentName": "Instrument_1",
      "isPercussion": false,
      "pitch": 61,
      "velocity": 64,
      "startTime": 80.625,
      "duration": 0.17734375000000568,
      "endTime": 80.80234375
    },
    {
      "instrumentId": 0,
      "instrumentName": "Instrument_0",
      "isPercussion": false,
      "pitch": 75,
      "velocity": 64,
      "startTime": 81.0,
      "duration": 1.0679687500000057,
      "endTime": 82.06796875
    },
    {
      "instrumentId": 0,
      "instrumentName": "Instrument_0",
      "isPercussion": false,
      "pitch": 78,
      "velocity": 64,
      "startTime": 81.0,
      "duration": 1.0679687500000057,
      "endTime": 82.06796875
    },
    {
      "instrumentId": 1,
      "instrumentName": "Instrument_1",
      "isPercussion": false,
      "pitch": 57,
      "velocity": 64,
      "startTime": 81.0,
      "duration": 0.17734375000000568,
      "endTime": 81.17734375
    },
    {
      "instrumentId": 1,
      "instrumentName": "Instrument_1",
      "isPercussion": false,
      "pitch": 61,
      "velocity": 64,
      "startTime": 81.0,
      "duration": 0.17734375000000568,
      "endTime": 81.17734375
    },
    {
      "instrumentId": 1,
      "instrumentName": "Instrument_1",
      "isPercussion": false,
      "pitch": 57,
      "velocity": 64,
      "startTime": 81.5625,
      "duration": 0.17734375000000568,
      "endTime": 81.73984375
    },
    {
      "instrumentId": 1,
      "instrumentName": "Instrument_1",
      "isPercussion": false,
      "pitch": 64,
      "velocity": 64,
      "startTime": 81.5625,
      "duration": 0.17734375000000568,
      "endTime": 81.73984375
    },
    {
      "instrumentId": 0,
      "instrumentName": "Instrument_0",
      "isPercussion": false,
      "pitch": 76,
      "velocity": 64,
      "startTime": 82.125,
      "duration": 0.17734375000000568,
      "endTime": 82.30234375
    },
    {
      "instrumentId": 1,
      "instrumentName": "Instrument_1",
      "isPercussion": false,
      "pitch": 57,
      "velocity": 64,
      "startTime": 82.125,
      "duration": 0.17734375000000568,
      "endTime": 82.30234375
    },
    {
      "instrumentId": 1,
      "instrumentName": "Instrument_1",
      "isPercussion": false,
      "pitch": 61,
      "velocity": 64,
      "startTime": 82.125,
      "duration": 0.17734375000000568,
      "endTime": 82.30234375
    },
    {
      "instrumentId": 0,
      "instrumentName": "Instrument_0",
      "isPercussion": false,
      "pitch": 78,
      "velocity": 64,
      "startTime": 82.3125,
      "duration": 0.17734375000000568,
      "endTime": 82.48984375
    },
    {
      "instrumentId": 0,
      "instrumentName": "Instrument_0",
      "isPercussion": false,
      "pitch": 76,
      "velocity": 64,
      "startTime": 82.5,
      "duration": 0.35546875,
      "endTime": 82.85546875
    },
    {
      "instrumentId": 0,
      "instrumentName": "Instrument_0",
      "isPercussion": false,
      "pitch": 80,
      "velocity": 64,
      "startTime": 82.5,
      "duration": 0.35546875,
      "endTime": 82.85546875
    },
    {
      "instrumentId": 1,
      "instrumentName": "Instrument_1",
      "isPercussion": false,
      "pitch": 54,
      "velocity": 64,
      "startTime": 82.5,
      "duration": 0.17734375000000568,
      "endTime": 82.67734375
    },
    {
      "instrumentId": 1,
      "instrumentName": "Instrument_1",
      "isPercussion": false,
      "pitch": 59,
      "velocity": 64,
      "startTime": 82.5,
      "duration": 0.17734375000000568,
      "endTime": 82.67734375
    },
    {
      "instrumentId": 1,
      "instrumentName": "Instrument_1",
      "isPercussion": false,
      "pitch": 63,
      "velocity": 64,
      "startTime": 82.5,
      "duration": 0.17734375000000568,
      "endTime": 82.67734375
    },
    {
      "instrumentId": 0,
      "instrumentName": "Instrument_0",
      "isPercussion": false,
      "pitch": 78,
      "velocity": 72,
      "startTime": 82.875,
      "duration": 0.17734375000000568,
      "endTime": 83.05234375
    },
    {
      "instrumentId": 0,
      "instrumentName": "Instrument_0",
      "isPercussion": false,
      "pitch": 76,
      "velocity": 76,
      "startTime": 83.0625,
      "duration": 0.17734375000000568,
      "endTime": 83.23984375
    },
    {
      "instrumentId": 1,
      "instrumentName": "Instrument_1",
      "isPercussion": false,
      "pitch": 54,
      "velocity": 76,
      "startTime": 83.0625,
      "duration": 0.17734375000000568,
      "endTime": 83.23984375
    },
    {
      "instrumentId": 1,
      "instrumentName": "Instrument_1",
      "isPercussion": false,
      "pitch": 59,
      "velocity": 76,
      "startTime": 83.0625,
      "duration": 0.17734375000000568,
      "endTime": 83.23984375
    },
    {
      "instrumentId": 1,
      "instrumentName": "Instrument_1",
      "isPercussion": false,
      "pitch": 61,
      "velocity": 76,
      "startTime": 83.0625,
      "duration": 0.17734375000000568,
      "endTime": 83.23984375
    },
    {
      "instrumentId": 0,
      "instrumentName": "Instrument_0",
      "isPercussion": false,
      "pitch": 75,
      "velocity": 80,
      "startTime": 83.25,
      "duration": 0.5335937500000085,
      "endTime": 83.78359375000001
    },
    {
      "instrumentId": 0,
      "instrumentName": "Instrument_0",
      "isPercussion": false,
      "pitch": 78,
      "velocity": 80,
      "startTime": 83.25,
      "duration": 0.5335937500000085,
      "endTime": 83.78359375000001
    },
    {
      "instrumentId": 1,
      "instrumentName": "Instrument_1",
      "isPercussion": false,
      "pitch": 54,
      "velocity": 88,
      "startTime": 83.625,
      "duration": 0.17734375000000568,
      "endTime": 83.80234375
    },
    {
      "instrumentId": 1,
      "instrumentName": "Instrument_1",
      "isPercussion": false,
      "pitch": 59,
      "velocity": 88,
      "startTime": 83.625,
      "duration": 0.17734375000000568,
      "endTime": 83.80234375
    },
    {
      "instrumentId": 0,
      "instrumentName": "Instrument_0",
      "isPercussion": false,
      "pitch": 73,
      "velocity": 92,
      "startTime": 83.8125,
      "duration": 0.17734375000000568,
      "endTime": 83.98984375
    },
    {
      "instrumentId": 0,
      "instrumentName": "Instrument_0",
      "isPercussion": false,
      "pitch": 68,
      "velocity": 96,
      "startTime": 84.0,
      "duration": 0.35546875,
      "endTime": 84.35546875
    },
    {
      "instrumentId": 0,
      "instrumentName": "Instrument_0",
      "isPercussion": false,
      "pitch": 73,
      "velocity": 96,
      "startTime": 84.0,
      "duration": 0.35546875,
      "endTime": 84.35546875
    },
    {
      "instrumentId": 1,
      "instrumentName": "Instrument_1",
      "isPercussion": false,
      "pitch": 56,
      "velocity": 96,
      "startTime": 84.0,
      "duration": 0.17734375000000568,
      "endTime": 84.17734375
    },
    {
      "instrumentId": 1,
      "instrumentName": "Instrument_1",
      "isPercussion": false,
      "pitch": 61,
      "velocity": 96,
      "startTime": 84.0,
      "duration": 0.17734375000000568,
      "endTime": 84.17734375
    },
    {
      "instrumentId": 0,
      "instrumentName": "Instrument_0",
      "isPercussion": false,
      "pitch": 68,
      "velocity": 96,
      "startTime": 84.375,
      "duration": 0.35546875,
      "endTime": 84.73046875
    },
    {
      "instrumentId": 0,
      "instrumentName": "Instrument_0",
      "isPercussion": false,
      "pitch": 73,
      "velocity": 96,
      "startTime": 84.375,
      "duration": 0.35546875,
      "endTime": 84.73046875
    },
    {
      "instrumentId": 1,
      "instrumentName": "Instrument_1",
      "isPercussion": false,
      "pitch": 56,
      "velocity": 96,
      "startTime": 84.5625,
      "duration": 0.17734375000000568,
      "endTime": 84.73984375
    },
    {
      "instrumentId": 1,
      "instrumentName": "Instrument_1",
      "isPercussion": false,
      "pitch": 64,
      "velocity": 96,
      "startTime": 84.5625,
      "duration": 0.17734375000000568,
      "endTime": 84.73984375
    },
    {
      "instrumentId": 0,
      "instrumentName": "Instrument_0",
      "isPercussion": false,
      "pitch": 68,
      "velocity": 96,
      "startTime": 84.75,
      "duration": 0.35546875,
      "endTime": 85.10546875
    },
    {
      "instrumentId": 0,
      "instrumentName": "Instrument_0",
      "isPercussion": false,
      "pitch": 76,
      "velocity": 96,
      "startTime": 84.75,
      "duration": 0.35546875,
      "endTime": 85.10546875
    },
    {
      "instrumentId": 0,
      "instrumentName": "Instrument_0",
      "isPercussion": false,
      "pitch": 68,
      "velocity": 96,
      "startTime": 85.125,
      "duration": 0.35546875,
      "endTime": 85.48046875
    },
    {
      "instrumentId": 0,
      "instrumentName": "Instrument_0",
      "isPercussion": false,
      "pitch": 76,
      "velocity": 96,
      "startTime": 85.125,
      "duration": 0.35546875,
      "endTime": 85.48046875
    },
    {
      "instrumentId": 1,
      "instrumentName": "Instrument_1",
      "isPercussion": false,
      "pitch": 56,
      "velocity": 96,
      "startTime": 85.125,
      "duration": 0.17734375000000568,
      "endTime": 85.30234375
    },
    {
      "instrumentId": 1,
      "instrumentName": "Instrument_1",
      "isPercussion": false,
      "pitch": 61,
      "velocity": 96,
      "startTime": 85.125,
      "duration": 0.17734375000000568,
      "endTime": 85.30234375
    },
    {
      "instrumentId": 0,
      "instrumentName": "Instrument_0",
      "isPercussion": false,
      "pitch": 69,
      "velocity": 96,
      "startTime": 85.5,
      "duration": 0.35546875,
      "endTime": 85.85546875
    },
    {
      "instrumentId": 0,
      "instrumentName": "Instrument_0",
      "isPercussion": false,
      "pitch": 78,
      "velocity": 96,
      "startTime": 85.5,
      "duration": 0.35546875,
      "endTime": 85.85546875
    },
    {
      "instrumentId": 1,
      "instrumentName": "Instrument_1",
      "isPercussion": false,
      "pitch": 54,
      "velocity": 96,
      "startTime": 85.5,
      "duration": 0.17734375000000568,
      "endTime": 85.67734375
    },
    {
      "instrumentId": 1,
      "instrumentName": "Instrument_1",
      "isPercussion": false,
      "pitch": 61,
      "velocity": 96,
      "startTime": 85.5,
      "duration": 0.17734375000000568,
      "endTime": 85.67734375
    },
    {
      "instrumentId": 0,
      "instrumentName": "Instrument_0",
      "isPercussion": false,
      "pitch": 69,
      "velocity": 96,
      "startTime": 85.875,
      "duration": 0.35546875,
      "endTime": 86.23046875
    },
    {
      "instrumentId": 0,
      "instrumentName": "Instrument_0",
      "isPercussion": false,
      "pitch": 78,
      "velocity": 96,
      "startTime": 85.875,
      "duration": 0.35546875,
      "endTime": 86.23046875
    },
    {
      "instrumentId": 1,
      "instrumentName": "Instrument_1",
      "isPercussion": false,
      "pitch": 54,
      "velocity": 96,
      "startTime": 86.0625,
      "duration": 0.17734375000000568,
      "endTime": 86.23984375
    },
    {
      "instrumentId": 1,
      "instrumentName": "Instrument_1",
      "isPercussion": false,
      "pitch": 64,
      "velocity": 96,
      "startTime": 86.0625,
      "duration": 0.17734375000000568,
      "endTime": 86.23984375
    },
    {
      "instrumentId": 0,
      "instrumentName": "Instrument_0",
      "isPercussion": false,
      "pitch": 69,
      "velocity": 96,
      "startTime": 86.25,
      "duration": 0.35546875,
      "endTime": 86.60546875
    },
    {
      "instrumentId": 0,
      "instrumentName": "Instrument_0",
      "isPercussion": false,
      "pitch": 80,
      "velocity": 96,
      "startTime": 86.25,
      "duration": 0.35546875,
      "endTime": 86.60546875
    },
    {
      "instrumentId": 0,
      "instrumentName": "Instrument_0",
      "isPercussion": false,
      "pitch": 69,
      "velocity": 96,
      "startTime": 86.625,
      "duration": 1.4242187500000085,
      "endTime": 88.04921875000001
    },
    {
      "instrumentId": 0,
      "instrumentName": "Instrument_0",
      "isPercussion": false,
      "pitch": 80,
      "velocity": 96,
      "startTime": 86.625,
      "duration": 1.4242187500000085,
      "endTime": 88.04921875000001
    },
    {
      "instrumentId": 1,
      "instrumentName": "Instrument_1",
      "isPercussion": false,
      "pitch": 54,
      "velocity": 96,
      "startTime": 86.625,
      "duration": 0.17734375000000568,
      "endTime": 86.80234375
    },
    {
      "instrumentId": 1,
      "instrumentName": "Instrument_1",
      "isPercussion": false,
      "pitch": 61,
      "velocity": 96,
      "startTime": 86.625,
      "duration": 0.17734375000000568,
      "endTime": 86.80234375
    },
    {
      "instrumentId": 1,
      "instrumentName": "Instrument_1",
      "isPercussion": false,
      "pitch": 57,
      "velocity": 96,
      "startTime": 87.0,
      "duration": 0.17734375000000568,
      "endTime": 87.17734375
    },
    {
      "instrumentId": 1,
      "instrumentName": "Instrument_1",
      "isPercussion": false,
      "pitch": 61,
      "velocity": 96,
      "startTime": 87.0,
      "duration": 0.17734375000000568,
      "endTime": 87.17734375
    },
    {
      "instrumentId": 1,
      "instrumentName": "Instrument_1",
      "isPercussion": false,
      "pitch": 57,
      "velocity": 96,
      "startTime": 87.5625,
      "duration": 0.17734375000000568,
      "endTime": 87.73984375
    },
    {
      "instrumentId": 1,
      "instrumentName": "Instrument_1",
      "isPercussion": false,
      "pitch": 64,
      "velocity": 96,
      "startTime": 87.5625,
      "duration": 0.17734375000000568,
      "endTime": 87.73984375
    },
    {
      "instrumentId": 0,
      "instrumentName": "Instrument_0",
      "isPercussion": false,
      "pitch": 76,
      "velocity": 96,
      "startTime": 88.125,
      "duration": 0.17734375000000568,
      "endTime": 88.30234375
    },
    {
      "instrumentId": 1,
      "instrumentName": "Instrument_1",
      "isPercussion": false,
      "pitch": 57,
      "velocity": 96,
      "startTime": 88.125,
      "duration": 0.17734375000000568,
      "endTime": 88.30234375
    },
    {
      "instrumentId": 1,
      "instrumentName": "Instrument_1",
      "isPercussion": false,
      "pitch": 61,
      "velocity": 96,
      "startTime": 88.125,
      "duration": 0.17734375000000568,
      "endTime": 88.30234375
    },
    {
      "instrumentId": 0,
      "instrumentName": "Instrument_0",
      "isPercussion": false,
      "pitch": 78,
      "velocity": 96,
      "startTime": 88.3125,
      "duration": 0.17734375000000568,
      "endTime": 88.48984375
    },
    {
      "instrumentId": 0,
      "instrumentName": "Instrument_0",
      "isPercussion": false,
      "pitch": 80,
      "velocity": 96,
      "startTime": 88.5,
      "duration": 0.35546875,
      "endTime": 88.85546875
    },
    {
      "instrumentId": 1,
      "instrumentName": "Instrument_1",
      "isPercussion": false,
      "pitch": 54,
      "velocity": 96,
      "startTime": 88.5,
      "duration": 0.17734375000000568,
      "endTime": 88.67734375
    },
    {
      "instrumentId": 1,
      "instrumentName": "Instrument_1",
      "isPercussion": false,
      "pitch": 59,
      "velocity": 96,
      "startTime": 88.5,
      "duration": 0.17734375000000568,
      "endTime": 88.67734375
    },
    {
      "instrumentId": 1,
      "instrumentName": "Instrument_1",
      "isPercussion": false,
      "pitch": 63,
      "velocity": 96,
      "startTime": 88.5,
      "duration": 0.17734375000000568,
      "endTime": 88.67734375
    },
    {
      "instrumentId": 0,
      "instrumentName": "Instrument_0",
      "isPercussion": false,
      "pitch": 78,
      "velocity": 96,
      "startTime": 88.875,
      "duration": 0.17734375000000568,
      "endTime": 89.05234375
    },
    {
      "instrumentId": 0,
      "instrumentName": "Instrument_0",
      "isPercussion": false,
      "pitch": 76,
      "velocity": 96,
      "startTime": 89.0625,
      "duration": 0.17734375000000568,
      "endTime": 89.23984375
    },
    {
      "instrumentId": 1,
      "instrumentName": "Instrument_1",
      "isPercussion": false,
      "pitch": 54,
      "velocity": 96,
      "startTime": 89.0625,
      "duration": 0.17734375000000568,
      "endTime": 89.23984375
    },
    {
      "instrumentId": 1,
      "instrumentName": "Instrument_1",
      "isPercussion": false,
      "pitch": 59,
      "velocity": 96,
      "startTime": 89.0625,
      "duration": 0.17734375000000568,
      "endTime": 89.23984375
    },
    {
      "instrumentId": 1,
      "instrumentName": "Instrument_1",
      "isPercussion": false,
      "pitch": 61,
      "velocity": 96,
      "startTime": 89.0625,
      "duration": 0.17734375000000568,
      "endTime": 89.23984375
    },
    {
      "instrumentId": 0,
      "instrumentName": "Instrument_0",
      "isPercussion": false,
      "pitch": 78,
      "velocity": 96,
      "startTime": 89.25,
      "duration": 0.5335937500000085,
      "endTime": 89.78359375000001
    },
    {
      "instrumentId": 1,
      "instrumentName": "Instrument_1",
      "isPercussion": false,
      "pitch": 54,
      "velocity": 96,
      "startTime": 89.625,
      "duration": 0.17734375000000568,
      "endTime": 89.80234375
    },
    {
      "instrumentId": 1,
      "instrumentName": "Instrument_1",
      "isPercussion": false,
      "pitch": 59,
      "velocity": 96,
      "startTime": 89.625,
      "duration": 0.17734375000000568,
      "endTime": 89.80234375
    },
    {
      "instrumentId": 0,
      "instrumentName": "Instrument_0",
      "isPercussion": false,
      "pitch": 73,
      "velocity": 96,
      "startTime": 89.8125,
      "duration": 0.17734375000000568,
      "endTime": 89.98984375
    },
    {
      "instrumentId": 0,
      "instrumentName": "Instrument_0",
      "isPercussion": false,
      "pitch": 68,
      "velocity": 96,
      "startTime": 90.0,
      "duration": 0.35546875,
      "endTime": 90.35546875
    },
    {
      "instrumentId": 0,
      "instrumentName": "Instrument_0",
      "isPercussion": false,
      "pitch": 73,
      "velocity": 96,
      "startTime": 90.0,
      "duration": 0.35546875,
      "endTime": 90.35546875
    },
    {
      "instrumentId": 1,
      "instrumentName": "Instrument_1",
      "isPercussion": false,
      "pitch": 56,
      "velocity": 96,
      "startTime": 90.0,
      "duration": 0.17734375000000568,
      "endTime": 90.17734375
    },
    {
      "instrumentId": 1,
      "instrumentName": "Instrument_1",
      "isPercussion": false,
      "pitch": 61,
      "velocity": 96,
      "startTime": 90.0,
      "duration": 0.17734375000000568,
      "endTime": 90.17734375
    },
    {
      "instrumentId": 0,
      "instrumentName": "Instrument_0",
      "isPercussion": false,
      "pitch": 68,
      "velocity": 96,
      "startTime": 90.375,
      "duration": 0.35546875,
      "endTime": 90.73046875
    },
    {
      "instrumentId": 0,
      "instrumentName": "Instrument_0",
      "isPercussion": false,
      "pitch": 73,
      "velocity": 96,
      "startTime": 90.375,
      "duration": 0.35546875,
      "endTime": 90.73046875
    },
    {
      "instrumentId": 1,
      "instrumentName": "Instrument_1",
      "isPercussion": false,
      "pitch": 56,
      "velocity": 96,
      "startTime": 90.5625,
      "duration": 0.17734375000000568,
      "endTime": 90.73984375
    },
    {
      "instrumentId": 1,
      "instrumentName": "Instrument_1",
      "isPercussion": false,
      "pitch": 64,
      "velocity": 96,
      "startTime": 90.5625,
      "duration": 0.17734375000000568,
      "endTime": 90.73984375
    },
    {
      "instrumentId": 0,
      "instrumentName": "Instrument_0",
      "isPercussion": false,
      "pitch": 68,
      "velocity": 96,
      "startTime": 90.75,
      "duration": 0.35546875,
      "endTime": 91.10546875
    },
    {
      "instrumentId": 0,
      "instrumentName": "Instrument_0",
      "isPercussion": false,
      "pitch": 76,
      "velocity": 96,
      "startTime": 90.75,
      "duration": 0.35546875,
      "endTime": 91.10546875
    },
    {
      "instrumentId": 0,
      "instrumentName": "Instrument_0",
      "isPercussion": false,
      "pitch": 68,
      "velocity": 96,
      "startTime": 91.125,
      "duration": 0.35546875,
      "endTime": 91.48046875
    },
    {
      "instrumentId": 0,
      "instrumentName": "Instrument_0",
      "isPercussion": false,
      "pitch": 76,
      "velocity": 96,
      "startTime": 91.125,
      "duration": 0.35546875,
      "endTime": 91.48046875
    },
    {
      "instrumentId": 1,
      "instrumentName": "Instrument_1",
      "isPercussion": false,
      "pitch": 56,
      "velocity": 96,
      "startTime": 91.125,
      "duration": 0.17734375000000568,
      "endTime": 91.30234375
    },
    {
      "instrumentId": 1,
      "instrumentName": "Instrument_1",
      "isPercussion": false,
      "pitch": 61,
      "velocity": 96,
      "startTime": 91.125,
      "duration": 0.17734375000000568,
      "endTime": 91.30234375
    },
    {
      "instrumentId": 0,
      "instrumentName": "Instrument_0",
      "isPercussion": false,
      "pitch": 69,
      "velocity": 96,
      "startTime": 91.5,
      "duration": 0.35546875,
      "endTime": 91.85546875
    },
    {
      "instrumentId": 0,
      "instrumentName": "Instrument_0",
      "isPercussion": false,
      "pitch": 78,
      "velocity": 96,
      "startTime": 91.5,
      "duration": 0.35546875,
      "endTime": 91.85546875
    },
    {
      "instrumentId": 1,
      "instrumentName": "Instrument_1",
      "isPercussion": false,
      "pitch": 54,
      "velocity": 96,
      "startTime": 91.5,
      "duration": 0.17734375000000568,
      "endTime": 91.67734375
    },
    {
      "instrumentId": 1,
      "instrumentName": "Instrument_1",
      "isPercussion": false,
      "pitch": 61,
      "velocity": 96,
      "startTime": 91.5,
      "duration": 0.17734375000000568,
      "endTime": 91.67734375
    },
    {
      "instrumentId": 0,
      "instrumentName": "Instrument_0",
      "isPercussion": false,
      "pitch": 69,
      "velocity": 96,
      "startTime": 91.875,
      "duration": 0.35546875,
      "endTime": 92.23046875
    },
    {
      "instrumentId": 0,
      "instrumentName": "Instrument_0",
      "isPercussion": false,
      "pitch": 78,
      "velocity": 96,
      "startTime": 91.875,
      "duration": 0.35546875,
      "endTime": 92.23046875
    },
    {
      "instrumentId": 1,
      "instrumentName": "Instrument_1",
      "isPercussion": false,
      "pitch": 54,
      "velocity": 96,
      "startTime": 92.0625,
      "duration": 0.17734375000000568,
      "endTime": 92.23984375
    },
    {
      "instrumentId": 1,
      "instrumentName": "Instrument_1",
      "isPercussion": false,
      "pitch": 64,
      "velocity": 96,
      "startTime": 92.0625,
      "duration": 0.17734375000000568,
      "endTime": 92.23984375
    },
    {
      "instrumentId": 0,
      "instrumentName": "Instrument_0",
      "isPercussion": false,
      "pitch": 69,
      "velocity": 96,
      "startTime": 92.25,
      "duration": 0.35546875,
      "endTime": 92.60546875
    },
    {
      "instrumentId": 0,
      "instrumentName": "Instrument_0",
      "isPercussion": false,
      "pitch": 80,
      "velocity": 96,
      "startTime": 92.25,
      "duration": 0.35546875,
      "endTime": 92.60546875
    },
    {
      "instrumentId": 0,
      "instrumentName": "Instrument_0",
      "isPercussion": false,
      "pitch": 69,
      "velocity": 96,
      "startTime": 92.625,
      "duration": 1.4242187500000085,
      "endTime": 94.04921875000001
    },
    {
      "instrumentId": 0,
      "instrumentName": "Instrument_0",
      "isPercussion": false,
      "pitch": 80,
      "velocity": 96,
      "startTime": 92.625,
      "duration": 1.4242187500000085,
      "endTime": 94.04921875000001
    },
    {
      "instrumentId": 1,
      "instrumentName": "Instrument_1",
      "isPercussion": false,
      "pitch": 54,
      "velocity": 96,
      "startTime": 92.625,
      "duration": 0.17734375000000568,
      "endTime": 92.80234375
    },
    {
      "instrumentId": 1,
      "instrumentName": "Instrument_1",
      "isPercussion": false,
      "pitch": 61,
      "velocity": 96,
      "startTime": 92.625,
      "duration": 0.17734375000000568,
      "endTime": 92.80234375
    },
    {
      "instrumentId": 1,
      "instrumentName": "Instrument_1",
      "isPercussion": false,
      "pitch": 57,
      "velocity": 96,
      "startTime": 93.0,
      "duration": 0.17734375000000568,
      "endTime": 93.17734375
    },
    {
      "instrumentId": 1,
      "instrumentName": "Instrument_1",
      "isPercussion": false,
      "pitch": 61,
      "velocity": 96,
      "startTime": 93.0,
      "duration": 0.17734375000000568,
      "endTime": 93.17734375
    },
    {
      "instrumentId": 1,
      "instrumentName": "Instrument_1",
      "isPercussion": false,
      "pitch": 57,
      "velocity": 96,
      "startTime": 93.5625,
      "duration": 0.17734375000000568,
      "endTime": 93.73984375
    },
    {
      "instrumentId": 1,
      "instrumentName": "Instrument_1",
      "isPercussion": false,
      "pitch": 64,
      "velocity": 96,
      "startTime": 93.5625,
      "duration": 0.17734375000000568,
      "endTime": 93.73984375
    },
    {
      "instrumentId": 0,
      "instrumentName": "Instrument_0",
      "isPercussion": false,
      "pitch": 76,
      "velocity": 96,
      "startTime": 94.125,
      "duration": 0.17734375000000568,
      "endTime": 94.30234375
    },
    {
      "instrumentId": 1,
      "instrumentName": "Instrument_1",
      "isPercussion": false,
      "pitch": 57,
      "velocity": 96,
      "startTime": 94.125,
      "duration": 0.17734375000000568,
      "endTime": 94.30234375
    },
    {
      "instrumentId": 1,
      "instrumentName": "Instrument_1",
      "isPercussion": false,
      "pitch": 61,
      "velocity": 96,
      "startTime": 94.125,
      "duration": 0.17734375000000568,
      "endTime": 94.30234375
    },
    {
      "instrumentId": 0,
      "instrumentName": "Instrument_0",
      "isPercussion": false,
      "pitch": 78,
      "velocity": 96,
      "startTime": 94.3125,
      "duration": 0.17734375000000568,
      "endTime": 94.48984375
    },
    {
      "instrumentId": 0,
      "instrumentName": "Instrument_0",
      "isPercussion": false,
      "pitch": 76,
      "velocity": 96,
      "startTime": 94.5,
      "duration": 0.35546875,
      "endTime": 94.85546875
    },
    {
      "instrumentId": 0,
      "instrumentName": "Instrument_0",
      "isPercussion": false,
      "pitch": 80,
      "velocity": 96,
      "startTime": 94.5,
      "duration": 0.35546875,
      "endTime": 94.85546875
    },
    {
      "instrumentId": 1,
      "instrumentName": "Instrument_1",
      "isPercussion": false,
      "pitch": 54,
      "velocity": 96,
      "startTime": 94.5,
      "duration": 0.17734375000000568,
      "endTime": 94.67734375
    },
    {
      "instrumentId": 1,
      "instrumentName": "Instrument_1",
      "isPercussion": false,
      "pitch": 59,
      "velocity": 96,
      "startTime": 94.5,
      "duration": 0.17734375000000568,
      "endTime": 94.67734375
    },
    {
      "instrumentId": 1,
      "instrumentName": "Instrument_1",
      "isPercussion": false,
      "pitch": 63,
      "velocity": 96,
      "startTime": 94.5,
      "duration": 0.17734375000000568,
      "endTime": 94.67734375
    },
    {
      "instrumentId": 0,
      "instrumentName": "Instrument_0",
      "isPercussion": false,
      "pitch": 78,
      "velocity": 96,
      "startTime": 94.875,
      "duration": 0.17734375000000568,
      "endTime": 95.05234375
    },
    {
      "instrumentId": 0,
      "instrumentName": "Instrument_0",
      "isPercussion": false,
      "pitch": 76,
      "velocity": 96,
      "startTime": 95.0625,
      "duration": 0.17734375000000568,
      "endTime": 95.23984375
    },
    {
      "instrumentId": 1,
      "instrumentName": "Instrument_1",
      "isPercussion": false,
      "pitch": 54,
      "velocity": 96,
      "startTime": 95.0625,
      "duration": 0.17734375000000568,
      "endTime": 95.23984375
    },
    {
      "instrumentId": 1,
      "instrumentName": "Instrument_1",
      "isPercussion": false,
      "pitch": 59,
      "velocity": 96,
      "startTime": 95.0625,
      "duration": 0.17734375000000568,
      "endTime": 95.23984375
    },
    {
      "instrumentId": 1,
      "instrumentName": "Instrument_1",
      "isPercussion": false,
      "pitch": 61,
      "velocity": 96,
      "startTime": 95.0625,
      "duration": 0.17734375000000568,
      "endTime": 95.23984375
    },
    {
      "instrumentId": 0,
      "instrumentName": "Instrument_0",
      "isPercussion": false,
      "pitch": 75,
      "velocity": 96,
      "startTime": 95.25,
      "duration": 0.5335937500000085,
      "endTime": 95.78359375000001
    },
    {
      "instrumentId": 0,
      "instrumentName": "Instrument_0",
      "isPercussion": false,
      "pitch": 78,
      "velocity": 96,
      "startTime": 95.25,
      "duration": 0.5335937500000085,
      "endTime": 95.78359375000001
    },
    {
      "instrumentId": 1,
      "instrumentName": "Instrument_1",
      "isPercussion": false,
      "pitch": 54,
      "velocity": 96,
      "startTime": 95.625,
      "duration": 0.17734375000000568,
      "endTime": 95.80234375
    },
    {
      "instrumentId": 1,
      "instrumentName": "Instrument_1",
      "isPercussion": false,
      "pitch": 59,
      "velocity": 96,
      "startTime": 95.625,
      "duration": 0.17734375000000568,
      "endTime": 95.80234375
    },
    {
      "instrumentId": 0,
      "instrumentName": "Instrument_0",
      "isPercussion": false,
      "pitch": 73,
      "velocity": 96,
      "startTime": 95.8125,
      "duration": 0.17734375000000568,
      "endTime": 95.98984375
    },
    {
      "instrumentId": 0,
      "instrumentName": "Instrument_0",
      "isPercussion": false,
      "pitch": 68,
      "velocity": 96,
      "startTime": 96.0,
      "duration": 0.35546875,
      "endTime": 96.35546875
    },
    {
      "instrumentId": 0,
      "instrumentName": "Instrument_0",
      "isPercussion": false,
      "pitch": 73,
      "velocity": 96,
      "startTime": 96.0,
      "duration": 0.35546875,
      "endTime": 96.35546875
    },
    {
      "instrumentId": 1,
      "instrumentName": "Instrument_1",
      "isPercussion": false,
      "pitch": 56,
      "velocity": 96,
      "startTime": 96.0,
      "duration": 0.17734375000000568,
      "endTime": 96.17734375
    },
    {
      "instrumentId": 1,
      "instrumentName": "Instrument_1",
      "isPercussion": false,
      "pitch": 61,
      "velocity": 96,
      "startTime": 96.0,
      "duration": 0.17734375000000568,
      "endTime": 96.17734375
    },
    {
      "instrumentId": 0,
      "instrumentName": "Instrument_0",
      "isPercussion": false,
      "pitch": 68,
      "velocity": 96,
      "startTime": 96.375,
      "duration": 0.35546875,
      "endTime": 96.73046875
    },
    {
      "instrumentId": 0,
      "instrumentName": "Instrument_0",
      "isPercussion": false,
      "pitch": 73,
      "velocity": 96,
      "startTime": 96.375,
      "duration": 0.35546875,
      "endTime": 96.73046875
    },
    {
      "instrumentId": 1,
      "instrumentName": "Instrument_1",
      "isPercussion": false,
      "pitch": 56,
      "velocity": 96,
      "startTime": 96.5625,
      "duration": 0.17734375000000568,
      "endTime": 96.73984375
    },
    {
      "instrumentId": 1,
      "instrumentName": "Instrument_1",
      "isPercussion": false,
      "pitch": 64,
      "velocity": 96,
      "startTime": 96.5625,
      "duration": 0.17734375000000568,
      "endTime": 96.73984375
    },
    {
      "instrumentId": 0,
      "instrumentName": "Instrument_0",
      "isPercussion": false,
      "pitch": 68,
      "velocity": 96,
      "startTime": 96.75,
      "duration": 0.35546875,
      "endTime": 97.10546875
    },
    {
      "instrumentId": 0,
      "instrumentName": "Instrument_0",
      "isPercussion": false,
      "pitch": 76,
      "velocity": 96,
      "startTime": 96.75,
      "duration": 0.35546875,
      "endTime": 97.10546875
    },
    {
      "instrumentId": 0,
      "instrumentName": "Instrument_0",
      "isPercussion": false,
      "pitch": 68,
      "velocity": 96,
      "startTime": 97.125,
      "duration": 0.35546875,
      "endTime": 97.48046875
    },
    {
      "instrumentId": 0,
      "instrumentName": "Instrument_0",
      "isPercussion": false,
      "pitch": 76,
      "velocity": 96,
      "startTime": 97.125,
      "duration": 0.35546875,
      "endTime": 97.48046875
    },
    {
      "instrumentId": 1,
      "instrumentName": "Instrument_1",
      "isPercussion": false,
      "pitch": 56,
      "velocity": 96,
      "startTime": 97.125,
      "duration": 0.17734375000000568,
      "endTime": 97.30234375
    },
    {
      "instrumentId": 1,
      "instrumentName": "Instrument_1",
      "isPercussion": false,
      "pitch": 61,
      "velocity": 96,
      "startTime": 97.125,
      "duration": 0.17734375000000568,
      "endTime": 97.30234375
    },
    {
      "instrumentId": 0,
      "instrumentName": "Instrument_0",
      "isPercussion": false,
      "pitch": 69,
      "velocity": 96,
      "startTime": 97.5,
      "duration": 0.35546875,
      "endTime": 97.85546875
    },
    {
      "instrumentId": 0,
      "instrumentName": "Instrument_0",
      "isPercussion": false,
      "pitch": 78,
      "velocity": 96,
      "startTime": 97.5,
      "duration": 0.35546875,
      "endTime": 97.85546875
    },
    {
      "instrumentId": 1,
      "instrumentName": "Instrument_1",
      "isPercussion": false,
      "pitch": 54,
      "velocity": 96,
      "startTime": 97.5,
      "duration": 0.17734375000000568,
      "endTime": 97.67734375
    },
    {
      "instrumentId": 1,
      "instrumentName": "Instrument_1",
      "isPercussion": false,
      "pitch": 61,
      "velocity": 96,
      "startTime": 97.5,
      "duration": 0.17734375000000568,
      "endTime": 97.67734375
    },
    {
      "instrumentId": 0,
      "instrumentName": "Instrument_0",
      "isPercussion": false,
      "pitch": 69,
      "velocity": 96,
      "startTime": 97.875,
      "duration": 0.35546875,
      "endTime": 98.23046875
    },
    {
      "instrumentId": 0,
      "instrumentName": "Instrument_0",
      "isPercussion": false,
      "pitch": 78,
      "velocity": 96,
      "startTime": 97.875,
      "duration": 0.35546875,
      "endTime": 98.23046875
    },
    {
      "instrumentId": 1,
      "instrumentName": "Instrument_1",
      "isPercussion": false,
      "pitch": 54,
      "velocity": 96,
      "startTime": 98.0625,
      "duration": 0.17734375000000568,
      "endTime": 98.23984375
    },
    {
      "instrumentId": 1,
      "instrumentName": "Instrument_1",
      "isPercussion": false,
      "pitch": 64,
      "velocity": 96,
      "startTime": 98.0625,
      "duration": 0.17734375000000568,
      "endTime": 98.23984375
    },
    {
      "instrumentId": 0,
      "instrumentName": "Instrument_0",
      "isPercussion": false,
      "pitch": 69,
      "velocity": 96,
      "startTime": 98.25,
      "duration": 0.35546875,
      "endTime": 98.60546875
    },
    {
      "instrumentId": 0,
      "instrumentName": "Instrument_0",
      "isPercussion": false,
      "pitch": 80,
      "velocity": 96,
      "startTime": 98.25,
      "duration": 0.35546875,
      "endTime": 98.60546875
    },
    {
      "instrumentId": 0,
      "instrumentName": "Instrument_0",
      "isPercussion": false,
      "pitch": 69,
      "velocity": 96,
      "startTime": 98.625,
      "duration": 1.4242187500000085,
      "endTime": 100.04921875000001
    },
    {
      "instrumentId": 0,
      "instrumentName": "Instrument_0",
      "isPercussion": false,
      "pitch": 80,
      "velocity": 96,
      "startTime": 98.625,
      "duration": 1.4242187500000085,
      "endTime": 100.04921875000001
    },
    {
      "instrumentId": 1,
      "instrumentName": "Instrument_1",
      "isPercussion": false,
      "pitch": 54,
      "velocity": 96,
      "startTime": 98.625,
      "duration": 0.17734375000000568,
      "endTime": 98.80234375
    },
    {
      "instrumentId": 1,
      "instrumentName": "Instrument_1",
      "isPercussion": false,
      "pitch": 61,
      "velocity": 96,
      "startTime": 98.625,
      "duration": 0.17734375000000568,
      "endTime": 98.80234375
    },
    {
      "instrumentId": 1,
      "instrumentName": "Instrument_1",
      "isPercussion": false,
      "pitch": 57,
      "velocity": 96,
      "startTime": 99.0,
      "duration": 0.17734375000000568,
      "endTime": 99.17734375
    },
    {
      "instrumentId": 1,
      "instrumentName": "Instrument_1",
      "isPercussion": false,
      "pitch": 61,
      "velocity": 96,
      "startTime": 99.0,
      "duration": 0.17734375000000568,
      "endTime": 99.17734375
    },
    {
      "instrumentId": 1,
      "instrumentName": "Instrument_1",
      "isPercussion": false,
      "pitch": 57,
      "velocity": 96,
      "startTime": 99.5625,
      "duration": 0.17734375000000568,
      "endTime": 99.73984375
    },
    {
      "instrumentId": 1,
      "instrumentName": "Instrument_1",
      "isPercussion": false,
      "pitch": 64,
      "velocity": 96,
      "startTime": 99.5625,
      "duration": 0.17734375000000568,
      "endTime": 99.73984375
    },
    {
      "instrumentId": 0,
      "instrumentName": "Instrument_0",
      "isPercussion": false,
      "pitch": 76,
      "velocity": 96,
      "startTime": 100.125,
      "duration": 0.17734375000000568,
      "endTime": 100.30234375
    },
    {
      "instrumentId": 1,
      "instrumentName": "Instrument_1",
      "isPercussion": false,
      "pitch": 57,
      "velocity": 96,
      "startTime": 100.125,
      "duration": 0.17734375000000568,
      "endTime": 100.30234375
    },
    {
      "instrumentId": 1,
      "instrumentName": "Instrument_1",
      "isPercussion": false,
      "pitch": 61,
      "velocity": 96,
      "startTime": 100.125,
      "duration": 0.17734375000000568,
      "endTime": 100.30234375
    },
    {
      "instrumentId": 0,
      "instrumentName": "Instrument_0",
      "isPercussion": false,
      "pitch": 78,
      "velocity": 96,
      "startTime": 100.3125,
      "duration": 0.17734375000000568,
      "endTime": 100.48984375
    },
    {
      "instrumentId": 0,
      "instrumentName": "Instrument_0",
      "isPercussion": false,
      "pitch": 76,
      "velocity": 96,
      "startTime": 100.5,
      "duration": 0.35546875,
      "endTime": 100.85546875
    },
    {
      "instrumentId": 0,
      "instrumentName": "Instrument_0",
      "isPercussion": false,
      "pitch": 80,
      "velocity": 96,
      "startTime": 100.5,
      "duration": 0.35546875,
      "endTime": 100.85546875
    },
    {
      "instrumentId": 1,
      "instrumentName": "Instrument_1",
      "isPercussion": false,
      "pitch": 54,
      "velocity": 96,
      "startTime": 100.5,
      "duration": 0.17734375000000568,
      "endTime": 100.67734375
    },
    {
      "instrumentId": 1,
      "instrumentName": "Instrument_1",
      "isPercussion": false,
      "pitch": 59,
      "velocity": 96,
      "startTime": 100.5,
      "duration": 0.17734375000000568,
      "endTime": 100.67734375
    },
    {
      "instrumentId": 1,
      "instrumentName": "Instrument_1",
      "isPercussion": false,
      "pitch": 63,
      "velocity": 96,
      "startTime": 100.5,
      "duration": 0.17734375000000568,
      "endTime": 100.67734375
    },
    {
      "instrumentId": 0,
      "instrumentName": "Instrument_0",
      "isPercussion": false,
      "pitch": 78,
      "velocity": 96,
      "startTime": 100.875,
      "duration": 0.17734375000000568,
      "endTime": 101.05234375
    },
    {
      "instrumentId": 0,
      "instrumentName": "Instrument_0",
      "isPercussion": false,
      "pitch": 76,
      "velocity": 96,
      "startTime": 101.0625,
      "duration": 0.17734375000000568,
      "endTime": 101.23984375
    },
    {
      "instrumentId": 1,
      "instrumentName": "Instrument_1",
      "isPercussion": false,
      "pitch": 54,
      "velocity": 96,
      "startTime": 101.0625,
      "duration": 0.17734375000000568,
      "endTime": 101.23984375
    },
    {
      "instrumentId": 1,
      "instrumentName": "Instrument_1",
      "isPercussion": false,
      "pitch": 59,
      "velocity": 96,
      "startTime": 101.0625,
      "duration": 0.17734375000000568,
      "endTime": 101.23984375
    },
    {
      "instrumentId": 1,
      "instrumentName": "Instrument_1",
      "isPercussion": false,
      "pitch": 61,
      "velocity": 96,
      "startTime": 101.0625,
      "duration": 0.17734375000000568,
      "endTime": 101.23984375
    },
    {
      "instrumentId": 0,
      "instrumentName": "Instrument_0",
      "isPercussion": false,
      "pitch": 75,
      "velocity": 96,
      "startTime": 101.25,
      "duration": 0.5335937500000085,
      "endTime": 101.78359375000001
    },
    {
      "instrumentId": 0,
      "instrumentName": "Instrument_0",
      "isPercussion": false,
      "pitch": 78,
      "velocity": 96,
      "startTime": 101.25,
      "duration": 0.5335937500000085,
      "endTime": 101.78359375000001
    },
    {
      "instrumentId": 1,
      "instrumentName": "Instrument_1",
      "isPercussion": false,
      "pitch": 54,
      "velocity": 96,
      "startTime": 101.625,
      "duration": 0.17734375000000568,
      "endTime": 101.80234375
    },
    {
      "instrumentId": 1,
      "instrumentName": "Instrument_1",
      "isPercussion": false,
      "pitch": 59,
      "velocity": 96,
      "startTime": 101.625,
      "duration": 0.17734375000000568,
      "endTime": 101.80234375
    },
    {
      "instrumentId": 0,
      "instrumentName": "Instrument_0",
      "isPercussion": false,
      "pitch": 68,
      "velocity": 96,
      "startTime": 101.8125,
      "duration": 0.5335937500000085,
      "endTime": 102.34609375000001
    },
    {
      "instrumentId": 0,
      "instrumentName": "Instrument_0",
      "isPercussion": false,
      "pitch": 73,
      "velocity": 96,
      "startTime": 101.8125,
      "duration": 0.5335937500000085,
      "endTime": 102.34609375000001
    },
    {
      "instrumentId": 1,
      "instrumentName": "Instrument_1",
      "isPercussion": false,
      "pitch": 56,
      "velocity": 96,
      "startTime": 102.0,
      "duration": 0.17734375000000568,
      "endTime": 102.17734375
    },
    {
      "instrumentId": 1,
      "instrumentName": "Instrument_1",
      "isPercussion": false,
      "pitch": 61,
      "velocity": 96,
      "startTime": 102.0,
      "duration": 0.17734375000000568,
      "endTime": 102.17734375
    },
    {
      "instrumentId": 0,
      "instrumentName": "Instrument_0",
      "isPercussion": false,
      "pitch": 68,
      "velocity": 96,
      "startTime": 102.375,
      "duration": 0.17734375000000568,
      "endTime": 102.55234375
    },
    {
      "instrumentId": 0,
      "instrumentName": "Instrument_0",
      "isPercussion": false,
      "pitch": 73,
      "velocity": 96,
      "startTime": 102.375,
      "duration": 0.17734375000000568,
      "endTime": 102.55234375
    },
    {
      "instrumentId": 0,
      "instrumentName": "Instrument_0",
      "isPercussion": false,
      "pitch": 73,
      "velocity": 96,
      "startTime": 102.5625,
      "duration": 0.17734375000000568,
      "endTime": 102.73984375
    },
    {
      "instrumentId": 1,
      "instrumentName": "Instrument_1",
      "isPercussion": false,
      "pitch": 56,
      "velocity": 96,
      "startTime": 102.5625,
      "duration": 0.17734375000000568,
      "endTime": 102.73984375
    },
    {
      "instrumentId": 1,
      "instrumentName": "Instrument_1",
      "isPercussion": false,
      "pitch": 64,
      "velocity": 96,
      "startTime": 102.5625,
      "duration": 0.17734375000000568,
      "endTime": 102.73984375
    },
    {
      "instrumentId": 0,
      "instrumentName": "Instrument_0",
      "isPercussion": false,
      "pitch": 68,
      "velocity": 96,
      "startTime": 102.75,
      "duration": 0.17734375000000568,
      "endTime": 102.92734375
    },
    {
      "instrumentId": 0,
      "instrumentName": "Instrument_0",
      "isPercussion": false,
      "pitch": 73,
      "velocity": 96,
      "startTime": 102.75,
      "duration": 0.17734375000000568,
      "endTime": 102.92734375
    },
    {
      "instrumentId": 0,
      "instrumentName": "Instrument_0",
      "isPercussion": false,
      "pitch": 73,
      "velocity": 96,
      "startTime": 102.9375,
      "duration": 0.17734375000000568,
      "endTime": 103.11484375
    },
    {
      "instrumentId": 0,
      "instrumentName": "Instrument_0",
      "isPercussion": false,
      "pitch": 73,
      "velocity": 96,
      "startTime": 103.125,
      "duration": 0.35546875,
      "endTime": 103.48046875
    },
    {
      "instrumentId": 0,
      "instrumentName": "Instrument_0",
      "isPercussion": false,
      "pitch": 76,
      "velocity": 96,
      "startTime": 103.125,
      "duration": 0.35546875,
      "endTime": 103.48046875
    },
    {
      "instrumentId": 1,
      "instrumentName": "Instrument_1",
      "isPercussion": false,
      "pitch": 56,
      "velocity": 96,
      "startTime": 103.125,
      "duration": 0.17734375000000568,
      "endTime": 103.30234375
    },
    {
      "instrumentId": 1,
      "instrumentName": "Instrument_1",
      "isPercussion": false,
      "pitch": 61,
      "velocity": 96,
      "startTime": 103.125,
      "duration": 0.17734375000000568,
      "endTime": 103.30234375
    },
    {
      "instrumentId": 0,
      "instrumentName": "Instrument_0",
      "isPercussion": false,
      "pitch": 76,
      "velocity": 96,
      "startTime": 103.5,
      "duration": 0.35546875,
      "endTime": 103.85546875
    },
    {
      "instrumentId": 0,
      "instrumentName": "Instrument_0",
      "isPercussion": false,
      "pitch": 80,
      "velocity": 96,
      "startTime": 103.5,
      "duration": 0.35546875,
      "endTime": 103.85546875
    },
    {
      "instrumentId": 1,
      "instrumentName": "Instrument_1",
      "isPercussion": false,
      "pitch": 54,
      "velocity": 96,
      "startTime": 103.5,
      "duration": 0.17734375000000568,
      "endTime": 103.67734375
    },
    {
      "instrumentId": 1,
      "instrumentName": "Instrument_1",
      "isPercussion": false,
      "pitch": 61,
      "velocity": 96,
      "startTime": 103.5,
      "duration": 0.17734375000000568,
      "endTime": 103.67734375
    },
    {
      "instrumentId": 0,
      "instrumentName": "Instrument_0",
      "isPercussion": false,
      "pitch": 68,
      "velocity": 96,
      "startTime": 103.875,
      "duration": 0.35546875,
      "endTime": 104.23046875
    },
    {
      "instrumentId": 0,
      "instrumentName": "Instrument_0",
      "isPercussion": false,
      "pitch": 73,
      "velocity": 96,
      "startTime": 103.875,
      "duration": 0.35546875,
      "endTime": 104.23046875
    },
    {
      "instrumentId": 1,
      "instrumentName": "Instrument_1",
      "isPercussion": false,
      "pitch": 54,
      "velocity": 96,
      "startTime": 104.0625,
      "duration": 0.17734375000000568,
      "endTime": 104.23984375
    },
    {
      "instrumentId": 1,
      "instrumentName": "Instrument_1",
      "isPercussion": false,
      "pitch": 64,
      "velocity": 96,
      "startTime": 104.0625,
      "duration": 0.17734375000000568,
      "endTime": 104.23984375
    },
    {
      "instrumentId": 0,
      "instrumentName": "Instrument_0",
      "isPercussion": false,
      "pitch": 73,
      "velocity": 96,
      "startTime": 104.25,
      "duration": 0.35546875,
      "endTime": 104.60546875
    },
    {
      "instrumentId": 0,
      "instrumentName": "Instrument_0",
      "isPercussion": false,
      "pitch": 76,
      "velocity": 96,
      "startTime": 104.25,
      "duration": 0.35546875,
      "endTime": 104.60546875
    },
    {
      "instrumentId": 0,
      "instrumentName": "Instrument_0",
      "isPercussion": false,
      "pitch": 75,
      "velocity": 96,
      "startTime": 104.625,
      "duration": 0.35546875,
      "endTime": 104.98046875
    },
    {
      "instrumentId": 0,
      "instrumentName": "Instrument_0",
      "isPercussion": false,
      "pitch": 78,
      "velocity": 96,
      "startTime": 104.625,
      "duration": 0.35546875,
      "endTime": 104.98046875
    },
    {
      "instrumentId": 1,
      "instrumentName": "Instrument_1",
      "isPercussion": false,
      "pitch": 54,
      "velocity": 96,
      "startTime": 104.625,
      "duration": 0.17734375000000568,
      "endTime": 104.80234375
    },
    {
      "instrumentId": 1,
      "instrumentName": "Instrument_1",
      "isPercussion": false,
      "pitch": 61,
      "velocity": 96,
      "startTime": 104.625,
      "duration": 0.17734375000000568,
      "endTime": 104.80234375
    },
    {
      "instrumentId": 0,
      "instrumentName": "Instrument_0",
      "isPercussion": false,
      "pitch": 75,
      "velocity": 96,
      "startTime": 105.0,
      "duration": 1.0679687500000057,
      "endTime": 106.06796875
    },
    {
      "instrumentId": 0,
      "instrumentName": "Instrument_0",
      "isPercussion": false,
      "pitch": 78,
      "velocity": 96,
      "startTime": 105.0,
      "duration": 1.0679687500000057,
      "endTime": 106.06796875
    },
    {
      "instrumentId": 1,
      "instrumentName": "Instrument_1",
      "isPercussion": false,
      "pitch": 57,
      "velocity": 96,
      "startTime": 105.0,
      "duration": 0.17734375000000568,
      "endTime": 105.17734375
    },
    {
      "instrumentId": 1,
      "instrumentName": "Instrument_1",
      "isPercussion": false,
      "pitch": 61,
      "velocity": 96,
      "startTime": 105.0,
      "duration": 0.17734375000000568,
      "endTime": 105.17734375
    },
    {
      "instrumentId": 1,
      "instrumentName": "Instrument_1",
      "isPercussion": false,
      "pitch": 57,
      "velocity": 96,
      "startTime": 105.5625,
      "duration": 0.17734375000000568,
      "endTime": 105.73984375
    },
    {
      "instrumentId": 1,
      "instrumentName": "Instrument_1",
      "isPercussion": false,
      "pitch": 64,
      "velocity": 96,
      "startTime": 105.5625,
      "duration": 0.17734375000000568,
      "endTime": 105.73984375
    },
    {
      "instrumentId": 0,
      "instrumentName": "Instrument_0",
      "isPercussion": false,
      "pitch": 76,
      "velocity": 96,
      "startTime": 106.125,
      "duration": 0.17734375000000568,
      "endTime": 106.30234375
    },
    {
      "instrumentId": 1,
      "instrumentName": "Instrument_1",
      "isPercussion": false,
      "pitch": 57,
      "velocity": 96,
      "startTime": 106.125,
      "duration": 0.17734375000000568,
      "endTime": 106.30234375
    },
    {
      "instrumentId": 1,
      "instrumentName": "Instrument_1",
      "isPercussion": false,
      "pitch": 61,
      "velocity": 96,
      "startTime": 106.125,
      "duration": 0.17734375000000568,
      "endTime": 106.30234375
    },
    {
      "instrumentId": 0,
      "instrumentName": "Instrument_0",
      "isPercussion": false,
      "pitch": 78,
      "velocity": 96,
      "startTime": 106.3125,
      "duration": 0.17734375000000568,
      "endTime": 106.48984375
    },
    {
      "instrumentId": 0,
      "instrumentName": "Instrument_0",
      "isPercussion": false,
      "pitch": 76,
      "velocity": 96,
      "startTime": 106.5,
      "duration": 0.35546875,
      "endTime": 106.85546875
    },
    {
      "instrumentId": 0,
      "instrumentName": "Instrument_0",
      "isPercussion": false,
      "pitch": 80,
      "velocity": 96,
      "startTime": 106.5,
      "duration": 0.35546875,
      "endTime": 106.85546875
    },
    {
      "instrumentId": 1,
      "instrumentName": "Instrument_1",
      "isPercussion": false,
      "pitch": 54,
      "velocity": 96,
      "startTime": 106.5,
      "duration": 0.17734375000000568,
      "endTime": 106.67734375
    },
    {
      "instrumentId": 1,
      "instrumentName": "Instrument_1",
      "isPercussion": false,
      "pitch": 59,
      "velocity": 96,
      "startTime": 106.5,
      "duration": 0.17734375000000568,
      "endTime": 106.67734375
    },
    {
      "instrumentId": 1,
      "instrumentName": "Instrument_1",
      "isPercussion": false,
      "pitch": 63,
      "velocity": 96,
      "startTime": 106.5,
      "duration": 0.17734375000000568,
      "endTime": 106.67734375
    },
    {
      "instrumentId": 0,
      "instrumentName": "Instrument_0",
      "isPercussion": false,
      "pitch": 78,
      "velocity": 96,
      "startTime": 106.875,
      "duration": 0.17734375000000568,
      "endTime": 107.05234375
    },
    {
      "instrumentId": 0,
      "instrumentName": "Instrument_0",
      "isPercussion": false,
      "pitch": 76,
      "velocity": 96,
      "startTime": 107.0625,
      "duration": 0.17734375000000568,
      "endTime": 107.23984375
    },
    {
      "instrumentId": 1,
      "instrumentName": "Instrument_1",
      "isPercussion": false,
      "pitch": 54,
      "velocity": 96,
      "startTime": 107.0625,
      "duration": 0.17734375000000568,
      "endTime": 107.23984375
    },
    {
      "instrumentId": 1,
      "instrumentName": "Instrument_1",
      "isPercussion": false,
      "pitch": 59,
      "velocity": 96,
      "startTime": 107.0625,
      "duration": 0.17734375000000568,
      "endTime": 107.23984375
    },
    {
      "instrumentId": 1,
      "instrumentName": "Instrument_1",
      "isPercussion": false,
      "pitch": 61,
      "velocity": 96,
      "startTime": 107.0625,
      "duration": 0.17734375000000568,
      "endTime": 107.23984375
    },
    {
      "instrumentId": 0,
      "instrumentName": "Instrument_0",
      "isPercussion": false,
      "pitch": 73,
      "velocity": 96,
      "startTime": 107.25,
      "duration": 0.35546875,
      "endTime": 107.60546875
    },
    {
      "instrumentId": 0,
      "instrumentName": "Instrument_0",
      "isPercussion": false,
      "pitch": 76,
      "velocity": 96,
      "startTime": 107.25,
      "duration": 0.35546875,
      "endTime": 107.60546875
    },
    {
      "instrumentId": 0,
      "instrumentName": "Instrument_0",
      "isPercussion": false,
      "pitch": 75,
      "velocity": 96,
      "startTime": 107.625,
      "duration": 0.35546875,
      "endTime": 107.98046875
    },
    {
      "instrumentId": 0,
      "instrumentName": "Instrument_0",
      "isPercussion": false,
      "pitch": 78,
      "velocity": 96,
      "startTime": 107.625,
      "duration": 0.35546875,
      "endTime": 107.98046875
    },
    {
      "instrumentId": 1,
      "instrumentName": "Instrument_1",
      "isPercussion": false,
      "pitch": 54,
      "velocity": 96,
      "startTime": 107.625,
      "duration": 0.17734375000000568,
      "endTime": 107.80234375
    },
    {
      "instrumentId": 1,
      "instrumentName": "Instrument_1",
      "isPercussion": false,
      "pitch": 59,
      "velocity": 96,
      "startTime": 107.625,
      "duration": 0.17734375000000568,
      "endTime": 107.80234375
    },
    {
      "instrumentId": 0,
      "instrumentName": "Instrument_0",
      "isPercussion": false,
      "pitch": 73,
      "velocity": 49,
      "startTime": 108.0,
      "duration": 0.17734375000000568,
      "endTime": 108.17734375
    },
    {
      "instrumentId": 1,
      "instrumentName": "Instrument_1",
      "isPercussion": false,
      "pitch": 56,
      "velocity": 49,
      "startTime": 108.0,
      "duration": 0.17734375000000568,
      "endTime": 108.17734375
    },
    {
      "instrumentId": 1,
      "instrumentName": "Instrument_1",
      "isPercussion": false,
      "pitch": 61,
      "velocity": 49,
      "startTime": 108.0,
      "duration": 0.17734375000000568,
      "endTime": 108.17734375
    },
    {
      "instrumentId": 0,
      "instrumentName": "Instrument_0",
      "isPercussion": false,
      "pitch": 73,
      "velocity": 49,
      "startTime": 108.1875,
      "duration": 0.35546875,
      "endTime": 108.54296875
    },
    {
      "instrumentId": 0,
      "instrumentName": "Instrument_0",
      "isPercussion": false,
      "pitch": 76,
      "velocity": 49,
      "startTime": 108.1875,
      "duration": 0.35546875,
      "endTime": 108.54296875
    },
    {
      "instrumentId": 0,
      "instrumentName": "Instrument_0",
      "isPercussion": false,
      "pitch": 73,
      "velocity": 49,
      "startTime": 108.5625,
      "duration": 0.35546875,
      "endTime": 108.91796875
    },
    {
      "instrumentId": 0,
      "instrumentName": "Instrument_0",
      "isPercussion": false,
      "pitch": 76,
      "velocity": 49,
      "startTime": 108.5625,
      "duration": 0.35546875,
      "endTime": 108.91796875
    },
    {
      "instrumentId": 1,
      "instrumentName": "Instrument_1",
      "isPercussion": false,
      "pitch": 56,
      "velocity": 49,
      "startTime": 108.5625,
      "duration": 0.17734375000000568,
      "endTime": 108.73984375
    },
    {
      "instrumentId": 1,
      "instrumentName": "Instrument_1",
      "isPercussion": false,
      "pitch": 64,
      "velocity": 49,
      "startTime": 108.5625,
      "duration": 0.17734375000000568,
      "endTime": 108.73984375
    },
    {
      "instrumentId": 0,
      "instrumentName": "Instrument_0",
      "isPercussion": false,
      "pitch": 73,
      "velocity": 49,
      "startTime": 108.9375,
      "duration": 0.17734375000000568,
      "endTime": 109.11484375
    },
    {
      "instrumentId": 0,
      "instrumentName": "Instrument_0",
      "isPercussion": false,
      "pitch": 76,
      "velocity": 49,
      "startTime": 108.9375,
      "duration": 0.17734375000000568,
      "endTime": 109.11484375
    },
    {
      "instrumentId": 0,
      "instrumentName": "Instrument_0",
      "isPercussion": false,
      "pitch": 76,
      "velocity": 49,
      "startTime": 109.125,
      "duration": 0.17734375000000568,
      "endTime": 109.30234375
    },
    {
      "instrumentId": 1,
      "instrumentName": "Instrument_1",
      "isPercussion": false,
      "pitch": 56,
      "velocity": 49,
      "startTime": 109.125,
      "duration": 0.17734375000000568,
      "endTime": 109.30234375
    },
    {
      "instrumentId": 1,
      "instrumentName": "Instrument_1",
      "isPercussion": false,
      "pitch": 61,
      "velocity": 49,
      "startTime": 109.125,
      "duration": 0.17734375000000568,
      "endTime": 109.30234375
    },
    {
      "instrumentId": 0,
      "instrumentName": "Instrument_0",
      "isPercussion": false,
      "pitch": 76,
      "velocity": 49,
      "startTime": 109.3125,
      "duration": 0.17734375000000568,
      "endTime": 109.48984375
    },
    {
      "instrumentId": 0,
      "instrumentName": "Instrument_0",
      "isPercussion": false,
      "pitch": 73,
      "velocity": 49,
      "startTime": 109.5,
      "duration": 0.17734375000000568,
      "endTime": 109.67734375
    },
    {
      "instrumentId": 0,
      "instrumentName": "Instrument_0",
      "isPercussion": false,
      "pitch": 76,
      "velocity": 49,
      "startTime": 109.5,
      "duration": 0.17734375000000568,
      "endTime": 109.67734375
    },
    {
      "instrumentId": 1,
      "instrumentName": "Instrument_1",
      "isPercussion": false,
      "pitch": 54,
      "velocity": 49,
      "startTime": 109.5,
      "duration": 0.17734375000000568,
      "endTime": 109.67734375
    },
    {
      "instrumentId": 1,
      "instrumentName": "Instrument_1",
      "isPercussion": false,
      "pitch": 61,
      "velocity": 49,
      "startTime": 109.5,
      "duration": 0.17734375000000568,
      "endTime": 109.67734375
    },
    {
      "instrumentId": 0,
      "instrumentName": "Instrument_0",
      "isPercussion": false,
      "pitch": 76,
      "velocity": 49,
      "startTime": 109.6875,
      "duration": 0.17734375000000568,
      "endTime": 109.86484375
    },
    {
      "instrumentId": 0,
      "instrumentName": "Instrument_0",
      "isPercussion": false,
      "pitch": 76,
      "velocity": 49,
      "startTime": 109.875,
      "duration": 0.17734375000000568,
      "endTime": 110.05234375
    },
    {
      "instrumentId": 0,
      "instrumentName": "Instrument_0",
      "isPercussion": false,
      "pitch": 73,
      "velocity": 49,
      "startTime": 110.0625,
      "duration": 0.35546875,
      "endTime": 110.41796875
    },
    {
      "instrumentId": 0,
      "instrumentName": "Instrument_0",
      "isPercussion": false,
      "pitch": 76,
      "velocity": 49,
      "startTime": 110.0625,
      "duration": 0.35546875,
      "endTime": 110.41796875
    },
    {
      "instrumentId": 1,
      "instrumentName": "Instrument_1",
      "isPercussion": false,
      "pitch": 54,
      "velocity": 49,
      "startTime": 110.0625,
      "duration": 0.17734375000000568,
      "endTime": 110.23984375
    },
    {
      "instrumentId": 1,
      "instrumentName": "Instrument_1",
      "isPercussion": false,
      "pitch": 64,
      "velocity": 49,
      "startTime": 110.0625,
      "duration": 0.17734375000000568,
      "endTime": 110.23984375
    },
    {
      "instrumentId": 0,
      "instrumentName": "Instrument_0",
      "isPercussion": false,
      "pitch": 73,
      "velocity": 49,
      "startTime": 110.4375,
      "duration": 0.17734375000000568,
      "endTime": 110.61484375
    },
    {
      "instrumentId": 0,
      "instrumentName": "Instrument_0",
      "isPercussion": false,
      "pitch": 76,
      "velocity": 49,
      "startTime": 110.4375,
      "duration": 0.17734375000000568,
      "endTime": 110.61484375
    },
    {
      "instrumentId": 0,
      "instrumentName": "Instrument_0",
      "isPercussion": false,
      "pitch": 76,
      "velocity": 49,
      "startTime": 110.625,
      "duration": 0.17734375000000568,
      "endTime": 110.80234375
    },
    {
      "instrumentId": 1,
      "instrumentName": "Instrument_1",
      "isPercussion": false,
      "pitch": 54,
      "velocity": 49,
      "startTime": 110.625,
      "duration": 0.17734375000000568,
      "endTime": 110.80234375
    },
    {
      "instrumentId": 1,
      "instrumentName": "Instrument_1",
      "isPercussion": false,
      "pitch": 61,
      "velocity": 49,
      "startTime": 110.625,
      "duration": 0.17734375000000568,
      "endTime": 110.80234375
    },
    {
      "instrumentId": 0,
      "instrumentName": "Instrument_0",
      "isPercussion": false,
      "pitch": 76,
      "velocity": 49,
      "startTime": 110.8125,
      "duration": 0.17734375000000568,
      "endTime": 110.98984375
    },
    {
      "instrumentId": 0,
      "instrumentName": "Instrument_0",
      "isPercussion": false,
      "pitch": 73,
      "velocity": 49,
      "startTime": 111.0,
      "duration": 0.35546875,
      "endTime": 111.35546875
    },
    {
      "instrumentId": 0,
      "instrumentName": "Instrument_0",
      "isPercussion": false,
      "pitch": 76,
      "velocity": 49,
      "startTime": 111.0,
      "duration": 0.35546875,
      "endTime": 111.35546875
    },
    {
      "instrumentId": 1,
      "instrumentName": "Instrument_1",
      "isPercussion": false,
      "pitch": 57,
      "velocity": 49,
      "startTime": 111.0,
      "duration": 0.17734375000000568,
      "endTime": 111.17734375
    },
    {
      "instrumentId": 1,
      "instrumentName": "Instrument_1",
      "isPercussion": false,
      "pitch": 61,
      "velocity": 49,
      "startTime": 111.0,
      "duration": 0.17734375000000568,
      "endTime": 111.17734375
    },
    {
      "instrumentId": 0,
      "instrumentName": "Instrument_0",
      "isPercussion": false,
      "pitch": 73,
      "velocity": 49,
      "startTime": 111.375,
      "duration": 0.35546875,
      "endTime": 111.73046875
    },
    {
      "instrumentId": 0,
      "instrumentName": "Instrument_0",
      "isPercussion": false,
      "pitch": 76,
      "velocity": 49,
      "startTime": 111.375,
      "duration": 0.35546875,
      "endTime": 111.73046875
    },
    {
      "instrumentId": 1,
      "instrumentName": "Instrument_1",
      "isPercussion": false,
      "pitch": 57,
      "velocity": 49,
      "startTime": 111.5625,
      "duration": 0.17734375000000568,
      "endTime": 111.73984375
    },
    {
      "instrumentId": 1,
      "instrumentName": "Instrument_1",
      "isPercussion": false,
      "pitch": 64,
      "velocity": 49,
      "startTime": 111.5625,
      "duration": 0.17734375000000568,
      "endTime": 111.73984375
    },
    {
      "instrumentId": 0,
      "instrumentName": "Instrument_0",
      "isPercussion": false,
      "pitch": 78,
      "velocity": 49,
      "startTime": 111.75,
      "duration": 0.17734375000000568,
      "endTime": 111.92734375
    },
    {
      "instrumentId": 0,
      "instrumentName": "Instrument_0",
      "isPercussion": false,
      "pitch": 76,
      "velocity": 49,
      "startTime": 111.9375,
      "duration": 0.35546875,
      "endTime": 112.29296875
    },
    {
      "instrumentId": 0,
      "instrumentName": "Instrument_0",
      "isPercussion": false,
      "pitch": 80,
      "velocity": 49,
      "startTime": 111.9375,
      "duration": 0.35546875,
      "endTime": 112.29296875
    },
    {
      "instrumentId": 1,
      "instrumentName": "Instrument_1",
      "isPercussion": false,
      "pitch": 57,
      "velocity": 49,
      "startTime": 112.125,
      "duration": 0.17734375000000568,
      "endTime": 112.30234375
    },
    {
      "instrumentId": 1,
      "instrumentName": "Instrument_1",
      "isPercussion": false,
      "pitch": 61,
      "velocity": 49,
      "startTime": 112.125,
      "duration": 0.17734375000000568,
      "endTime": 112.30234375
    },
    {
      "instrumentId": 0,
      "instrumentName": "Instrument_0",
      "isPercussion": false,
      "pitch": 76,
      "velocity": 49,
      "startTime": 112.3125,
      "duration": 0.8898437500000114,
      "endTime": 113.20234375000001
    },
    {
      "instrumentId": 0,
      "instrumentName": "Instrument_0",
      "isPercussion": false,
      "pitch": 80,
      "velocity": 49,
      "startTime": 112.3125,
      "duration": 0.8898437500000114,
      "endTime": 113.20234375000001
    },
    {
      "instrumentId": 1,
      "instrumentName": "Instrument_1",
      "isPercussion": false,
      "pitch": 54,
      "velocity": 49,
      "startTime": 112.5,
      "duration": 0.17734375000000568,
      "endTime": 112.67734375
    },
    {
      "instrumentId": 1,
      "instrumentName": "Instrument_1",
      "isPercussion": false,
      "pitch": 59,
      "velocity": 49,
      "startTime": 112.5,
      "duration": 0.17734375000000568,
      "endTime": 112.67734375
    },
    {
      "instrumentId": 1,
      "instrumentName": "Instrument_1",
      "isPercussion": false,
      "pitch": 63,
      "velocity": 49,
      "startTime": 112.5,
      "duration": 0.17734375000000568,
      "endTime": 112.67734375
    },
    {
      "instrumentId": 1,
      "instrumentName": "Instrument_1",
      "isPercussion": false,
      "pitch": 54,
      "velocity": 49,
      "startTime": 113.0625,
      "duration": 0.17734375000000568,
      "endTime": 113.23984375
    },
    {
      "instrumentId": 1,
      "instrumentName": "Instrument_1",
      "isPercussion": false,
      "pitch": 59,
      "velocity": 49,
      "startTime": 113.0625,
      "duration": 0.17734375000000568,
      "endTime": 113.23984375
    },
    {
      "instrumentId": 1,
      "instrumentName": "Instrument_1",
      "isPercussion": false,
      "pitch": 61,
      "velocity": 49,
      "startTime": 113.0625,
      "duration": 0.17734375000000568,
      "endTime": 113.23984375
    },
    {
      "instrumentId": 0,
      "instrumentName": "Instrument_0",
      "isPercussion": false,
      "pitch": 80,
      "velocity": 49,
      "startTime": 113.4375,
      "duration": 0.17734375000000568,
      "endTime": 113.61484375
    },
    {
      "instrumentId": 0,
      "instrumentName": "Instrument_0",
      "isPercussion": false,
      "pitch": 80,
      "velocity": 49,
      "startTime": 113.625,
      "duration": 0.17734375000000568,
      "endTime": 113.80234375
    },
    {
      "instrumentId": 1,
      "instrumentName": "Instrument_1",
      "isPercussion": false,
      "pitch": 54,
      "velocity": 49,
      "startTime": 113.625,
      "duration": 0.17734375000000568,
      "endTime": 113.80234375
    },
    {
      "instrumentId": 1,
      "instrumentName": "Instrument_1",
      "isPercussion": false,
      "pitch": 59,
      "velocity": 49,
      "startTime": 113.625,
      "duration": 0.17734375000000568,
      "endTime": 113.80234375
    },
    {
      "instrumentId": 0,
      "instrumentName": "Instrument_0",
      "isPercussion": false,
      "pitch": 80,
      "velocity": 49,
      "startTime": 113.8125,
      "duration": 0.17734375000000568,
      "endTime": 113.98984375
    },
    {
      "instrumentId": 0,
      "instrumentName": "Instrument_0",
      "isPercussion": false,
      "pitch": 80,
      "velocity": 49,
      "startTime": 114.0,
      "duration": 0.35546875,
      "endTime": 114.35546875
    },
    {
      "instrumentId": 0,
      "instrumentName": "Instrument_0",
      "isPercussion": false,
      "pitch": 83,
      "velocity": 49,
      "startTime": 114.0,
      "duration": 0.35546875,
      "endTime": 114.35546875
    },
    {
      "instrumentId": 1,
      "instrumentName": "Instrument_1",
      "isPercussion": false,
      "pitch": 56,
      "velocity": 49,
      "startTime": 114.0,
      "duration": 0.17734375000000568,
      "endTime": 114.17734375
    },
    {
      "instrumentId": 1,
      "instrumentName": "Instrument_1",
      "isPercussion": false,
      "pitch": 61,
      "velocity": 49,
      "startTime": 114.0,
      "duration": 0.17734375000000568,
      "endTime": 114.17734375
    },
    {
      "instrumentId": 0,
      "instrumentName": "Instrument_0",
      "isPercussion": false,
      "pitch": 80,
      "velocity": 49,
      "startTime": 114.375,
      "duration": 0.17734375000000568,
      "endTime": 114.55234375
    },
    {
      "instrumentId": 0,
      "instrumentName": "Instrument_0",
      "isPercussion": false,
      "pitch": 75,
      "velocity": 49,
      "startTime": 114.5625,
      "duration": 0.35546875,
      "endTime": 114.91796875
    },
    {
      "instrumentId": 0,
      "instrumentName": "Instrument_0",
      "isPercussion": false,
      "pitch": 78,
      "velocity": 49,
      "startTime": 114.5625,
      "duration": 0.35546875,
      "endTime": 114.91796875
    },
    {
      "instrumentId": 1,
      "instrumentName": "Instrument_1",
      "isPercussion": false,
      "pitch": 56,
      "velocity": 49,
      "startTime": 114.5625,
      "duration": 0.17734375000000568,
      "endTime": 114.73984375
    },
    {
      "instrumentId": 1,
      "instrumentName": "Instrument_1",
      "isPercussion": false,
      "pitch": 64,
      "velocity": 49,
      "startTime": 114.5625,
      "duration": 0.17734375000000568,
      "endTime": 114.73984375
    },
    {
      "instrumentId": 0,
      "instrumentName": "Instrument_0",
      "isPercussion": false,
      "pitch": 75,
      "velocity": 49,
      "startTime": 114.9375,
      "duration": 0.17734375000000568,
      "endTime": 115.11484375
    },
    {
      "instrumentId": 0,
      "instrumentName": "Instrument_0",
      "isPercussion": false,
      "pitch": 78,
      "velocity": 49,
      "startTime": 114.9375,
      "duration": 0.17734375000000568,
      "endTime": 115.11484375
    },
    {
      "instrumentId": 0,
      "instrumentName": "Instrument_0",
      "isPercussion": false,
      "pitch": 78,
      "velocity": 49,
      "startTime": 115.125,
      "duration": 0.17734375000000568,
      "endTime": 115.30234375
    },
    {
      "instrumentId": 1,
      "instrumentName": "Instrument_1",
      "isPercussion": false,
      "pitch": 56,
      "velocity": 49,
      "startTime": 115.125,
      "duration": 0.17734375000000568,
      "endTime": 115.30234375
    },
    {
      "instrumentId": 1,
      "instrumentName": "Instrument_1",
      "isPercussion": false,
      "pitch": 61,
      "velocity": 49,
      "startTime": 115.125,
      "duration": 0.17734375000000568,
      "endTime": 115.30234375
    },
    {
      "instrumentId": 0,
      "instrumentName": "Instrument_0",
      "isPercussion": false,
      "pitch": 78,
      "velocity": 49,
      "startTime": 115.3125,
      "duration": 0.17734375000000568,
      "endTime": 115.48984375
    },
    {
      "instrumentId": 0,
      "instrumentName": "Instrument_0",
      "isPercussion": false,
      "pitch": 75,
      "velocity": 49,
      "startTime": 115.5,
      "duration": 0.17734375000000568,
      "endTime": 115.67734375
    },
    {
      "instrumentId": 0,
      "instrumentName": "Instrument_0",
      "isPercussion": false,
      "pitch": 78,
      "velocity": 49,
      "startTime": 115.5,
      "duration": 0.17734375000000568,
      "endTime": 115.67734375
    },
    {
      "instrumentId": 1,
      "instrumentName": "Instrument_1",
      "isPercussion": false,
      "pitch": 54,
      "velocity": 49,
      "startTime": 115.5,
      "duration": 0.17734375000000568,
      "endTime": 115.67734375
    },
    {
      "instrumentId": 1,
      "instrumentName": "Instrument_1",
      "isPercussion": false,
      "pitch": 61,
      "velocity": 49,
      "startTime": 115.5,
      "duration": 0.17734375000000568,
      "endTime": 115.67734375
    },
    {
      "instrumentId": 0,
      "instrumentName": "Instrument_0",
      "isPercussion": false,
      "pitch": 78,
      "velocity": 49,
      "startTime": 115.6875,
      "duration": 0.17734375000000568,
      "endTime": 115.86484375
    },
    {
      "instrumentId": 0,
      "instrumentName": "Instrument_0",
      "isPercussion": false,
      "pitch": 78,
      "velocity": 49,
      "startTime": 115.875,
      "duration": 0.17734375000000568,
      "endTime": 116.05234375
    },
    {
      "instrumentId": 0,
      "instrumentName": "Instrument_0",
      "isPercussion": false,
      "pitch": 75,
      "velocity": 49,
      "startTime": 116.0625,
      "duration": 0.35546875,
      "endTime": 116.41796875
    },
    {
      "instrumentId": 0,
      "instrumentName": "Instrument_0",
      "isPercussion": false,
      "pitch": 78,
      "velocity": 49,
      "startTime": 116.0625,
      "duration": 0.35546875,
      "endTime": 116.41796875
    },
    {
      "instrumentId": 1,
      "instrumentName": "Instrument_1",
      "isPercussion": false,
      "pitch": 54,
      "velocity": 49,
      "startTime": 116.0625,
      "duration": 0.17734375000000568,
      "endTime": 116.23984375
    },
    {
      "instrumentId": 1,
      "instrumentName": "Instrument_1",
      "isPercussion": false,
      "pitch": 64,
      "velocity": 49,
      "startTime": 116.0625,
      "duration": 0.17734375000000568,
      "endTime": 116.23984375
    },
    {
      "instrumentId": 0,
      "instrumentName": "Instrument_0",
      "isPercussion": false,
      "pitch": 75,
      "velocity": 49,
      "startTime": 116.4375,
      "duration": 0.17734375000000568,
      "endTime": 116.61484375
    },
    {
      "instrumentId": 0,
      "instrumentName": "Instrument_0",
      "isPercussion": false,
      "pitch": 78,
      "velocity": 49,
      "startTime": 116.4375,
      "duration": 0.17734375000000568,
      "endTime": 116.61484375
    },
    {
      "instrumentId": 0,
      "instrumentName": "Instrument_0",
      "isPercussion": false,
      "pitch": 78,
      "velocity": 49,
      "startTime": 116.625,
      "duration": 0.17734375000000568,
      "endTime": 116.80234375
    },
    {
      "instrumentId": 1,
      "instrumentName": "Instrument_1",
      "isPercussion": false,
      "pitch": 54,
      "velocity": 49,
      "startTime": 116.625,
      "duration": 0.17734375000000568,
      "endTime": 116.80234375
    },
    {
      "instrumentId": 1,
      "instrumentName": "Instrument_1",
      "isPercussion": false,
      "pitch": 61,
      "velocity": 49,
      "startTime": 116.625,
      "duration": 0.17734375000000568,
      "endTime": 116.80234375
    },
    {
      "instrumentId": 0,
      "instrumentName": "Instrument_0",
      "isPercussion": false,
      "pitch": 78,
      "velocity": 49,
      "startTime": 116.8125,
      "duration": 0.17734375000000568,
      "endTime": 116.98984375
    },
    {
      "instrumentId": 0,
      "instrumentName": "Instrument_0",
      "isPercussion": false,
      "pitch": 75,
      "velocity": 49,
      "startTime": 117.0,
      "duration": 0.35546875,
      "endTime": 117.35546875
    },
    {
      "instrumentId": 0,
      "instrumentName": "Instrument_0",
      "isPercussion": false,
      "pitch": 78,
      "velocity": 49,
      "startTime": 117.0,
      "duration": 0.35546875,
      "endTime": 117.35546875
    },
    {
      "instrumentId": 1,
      "instrumentName": "Instrument_1",
      "isPercussion": false,
      "pitch": 57,
      "velocity": 49,
      "startTime": 117.0,
      "duration": 0.17734375000000568,
      "endTime": 117.17734375
    },
    {
      "instrumentId": 1,
      "instrumentName": "Instrument_1",
      "isPercussion": false,
      "pitch": 61,
      "velocity": 49,
      "startTime": 117.0,
      "duration": 0.17734375000000568,
      "endTime": 117.17734375
    },
    {
      "instrumentId": 0,
      "instrumentName": "Instrument_0",
      "isPercussion": false,
      "pitch": 75,
      "velocity": 49,
      "startTime": 117.375,
      "duration": 0.17734375000000568,
      "endTime": 117.55234375
    },
    {
      "instrumentId": 0,
      "instrumentName": "Instrument_0",
      "isPercussion": false,
      "pitch": 78,
      "velocity": 49,
      "startTime": 117.375,
      "duration": 0.17734375000000568,
      "endTime": 117.55234375
    },
    {
      "instrumentId": 0,
      "instrumentName": "Instrument_0",
      "isPercussion": false,
      "pitch": 78,
      "velocity": 49,
      "startTime": 117.5625,
      "duration": 0.17734375000000568,
      "endTime": 117.73984375
    },
    {
      "instrumentId": 1,
      "instrumentName": "Instrument_1",
      "isPercussion": false,
      "pitch": 57,
      "velocity": 49,
      "startTime": 117.5625,
      "duration": 0.17734375000000568,
      "endTime": 117.73984375
    },
    {
      "instrumentId": 1,
      "instrumentName": "Instrument_1",
      "isPercussion": false,
      "pitch": 64,
      "velocity": 49,
      "startTime": 117.5625,
      "duration": 0.17734375000000568,
      "endTime": 117.73984375
    },
    {
      "instrumentId": 0,
      "instrumentName": "Instrument_0",
      "isPercussion": false,
      "pitch": 75,
      "velocity": 49,
      "startTime": 117.75,
      "duration": 0.17734375000000568,
      "endTime": 117.92734375
    },
    {
      "instrumentId": 0,
      "instrumentName": "Instrument_0",
      "isPercussion": false,
      "pitch": 78,
      "velocity": 49,
      "startTime": 117.75,
      "duration": 0.17734375000000568,
      "endTime": 117.92734375
    },
    {
      "instrumentId": 0,
      "instrumentName": "Instrument_0",
      "isPercussion": false,
      "pitch": 76,
      "velocity": 49,
      "startTime": 117.9375,
      "duration": 0.17734375000000568,
      "endTime": 118.11484375
    },
    {
      "instrumentId": 0,
      "instrumentName": "Instrument_0",
      "isPercussion": false,
      "pitch": 71,
      "velocity": 49,
      "startTime": 118.125,
      "duration": 0.17734375000000568,
      "endTime": 118.30234375
    },
    {
      "instrumentId": 0,
      "instrumentName": "Instrument_0",
      "isPercussion": false,
      "pitch": 76,
      "velocity": 49,
      "startTime": 118.125,
      "duration": 0.17734375000000568,
      "endTime": 118.30234375
    },
    {
      "instrumentId": 1,
      "instrumentName": "Instrument_1",
      "isPercussion": false,
      "pitch": 57,
      "velocity": 49,
      "startTime": 118.125,
      "duration": 0.17734375000000568,
      "endTime": 118.30234375
    },
    {
      "instrumentId": 1,
      "instrumentName": "Instrument_1",
      "isPercussion": false,
      "pitch": 61,
      "velocity": 49,
      "startTime": 118.125,
      "duration": 0.17734375000000568,
      "endTime": 118.30234375
    },
    {
      "instrumentId": 0,
      "instrumentName": "Instrument_0",
      "isPercussion": false,
      "pitch": 73,
      "velocity": 49,
      "startTime": 118.3125,
      "duration": 0.8898437500000114,
      "endTime": 119.20234375000001
    },
    {
      "instrumentId": 0,
      "instrumentName": "Instrument_0",
      "isPercussion": false,
      "pitch": 76,
      "velocity": 49,
      "startTime": 118.3125,
      "duration": 0.8898437500000114,
      "endTime": 119.20234375000001
    },
    {
      "instrumentId": 0,
      "instrumentName": "Instrument_0",
      "isPercussion": false,
      "pitch": 76,
      "velocity": 49,
      "startTime": 119.4375,
      "duration": 0.17734375000000568,
      "endTime": 119.61484375
    },
    {
      "instrumentId": 0,
      "instrumentName": "Instrument_0",
      "isPercussion": false,
      "pitch": 80,
      "velocity": 49,
      "startTime": 119.4375,
      "duration": 0.17734375000000568,
      "endTime": 119.61484375
    },
    {
      "instrumentId": 0,
      "instrumentName": "Instrument_0",
      "isPercussion": false,
      "pitch": 80,
      "velocity": 49,
      "startTime": 119.625,
      "duration": 0.17734375000000568,
      "endTime": 119.80234375
    },
    {
      "instrumentId": 0,
      "instrumentName": "Instrument_0",
      "isPercussion": false,
      "pitch": 80,
      "velocity": 49,
      "startTime": 119.8125,
      "duration": 0.17734375000000568,
      "endTime": 119.98984375
    },
    {
      "instrumentId": 0,
      "instrumentName": "Instrument_0",
      "isPercussion": false,
      "pitch": 81,
      "velocity": 49,
      "startTime": 120.0,
      "duration": 0.17734375000000568,
      "endTime": 120.17734375
    },
    {
      "instrumentId": 0,
      "instrumentName": "Instrument_0",
      "isPercussion": false,
      "pitch": 85,
      "velocity": 49,
      "startTime": 120.0,
      "duration": 0.17734375000000568,
      "endTime": 120.17734375
    },
    {
      "instrumentId": 1,
      "instrumentName": "Instrument_1",
      "isPercussion": false,
      "pitch": 56,
      "velocity": 49,
      "startTime": 120.0,
      "duration": 0.17734375000000568,
      "endTime": 120.17734375
    },
    {
      "instrumentId": 1,
      "instrumentName": "Instrument_1",
      "isPercussion": false,
      "pitch": 61,
      "velocity": 49,
      "startTime": 120.0,
      "duration": 0.17734375000000568,
      "endTime": 120.17734375
    },
    {
      "instrumentId": 0,
      "instrumentName": "Instrument_0",
      "isPercussion": false,
      "pitch": 85,
      "velocity": 49,
      "startTime": 120.1875,
      "duration": 0.17734375000000568,
      "endTime": 120.36484375
    },
    {
      "instrumentId": 0,
      "instrumentName": "Instrument_0",
      "isPercussion": false,
      "pitch": 81,
      "velocity": 49,
      "startTime": 120.375,
      "duration": 0.17734375000000568,
      "endTime": 120.55234375
    },
    {
      "instrumentId": 0,
      "instrumentName": "Instrument_0",
      "isPercussion": false,
      "pitch": 85,
      "velocity": 49,
      "startTime": 120.375,
      "duration": 0.17734375000000568,
      "endTime": 120.55234375
    },
    {
      "instrumentId": 0,
      "instrumentName": "Instrument_0",
      "isPercussion": false,
      "pitch": 85,
      "velocity": 49,
      "startTime": 120.5625,
      "duration": 0.17734375000000568,
      "endTime": 120.73984375
    },
    {
      "instrumentId": 1,
      "instrumentName": "Instrument_1",
      "isPercussion": false,
      "pitch": 56,
      "velocity": 49,
      "startTime": 120.5625,
      "duration": 0.17734375000000568,
      "endTime": 120.73984375
    },
    {
      "instrumentId": 1,
      "instrumentName": "Instrument_1",
      "isPercussion": false,
      "pitch": 64,
      "velocity": 49,
      "startTime": 120.5625,
      "duration": 0.17734375000000568,
      "endTime": 120.73984375
    },
    {
      "instrumentId": 0,
      "instrumentName": "Instrument_0",
      "isPercussion": false,
      "pitch": 81,
      "velocity": 49,
      "startTime": 120.75,
      "duration": 0.17734375000000568,
      "endTime": 120.92734375
    },
    {
      "instrumentId": 0,
      "instrumentName": "Instrument_0",
      "isPercussion": false,
      "pitch": 85,
      "velocity": 49,
      "startTime": 120.75,
      "duration": 0.17734375000000568,
      "endTime": 120.92734375
    },
    {
      "instrumentId": 0,
      "instrumentName": "Instrument_0",
      "isPercussion": false,
      "pitch": 83,
      "velocity": 49,
      "startTime": 120.9375,
      "duration": 0.17734375000000568,
      "endTime": 121.11484375
    },
    {
      "instrumentId": 0,
      "instrumentName": "Instrument_0",
      "isPercussion": false,
      "pitch": 76,
      "velocity": 49,
      "startTime": 121.125,
      "duration": 0.17734375000000568,
      "endTime": 121.30234375
    },
    {
      "instrumentId": 0,
      "instrumentName": "Instrument_0",
      "isPercussion": false,
      "pitch": 80,
      "velocity": 49,
      "startTime": 121.125,
      "duration": 0.17734375000000568,
      "endTime": 121.30234375
    },
    {
      "instrumentId": 1,
      "instrumentName": "Instrument_1",
      "isPercussion": false,
      "pitch": 56,
      "velocity": 49,
      "startTime": 121.125,
      "duration": 0.17734375000000568,
      "endTime": 121.30234375
    },
    {
      "instrumentId": 1,
      "instrumentName": "Instrument_1",
      "isPercussion": false,
      "pitch": 61,
      "velocity": 49,
      "startTime": 121.125,
      "duration": 0.17734375000000568,
      "endTime": 121.30234375
    },
    {
      "instrumentId": 0,
      "instrumentName": "Instrument_0",
      "isPercussion": false,
      "pitch": 80,
      "velocity": 49,
      "startTime": 121.5,
      "duration": 0.17734375000000568,
      "endTime": 121.67734375
    },
    {
      "instrumentId": 0,
      "instrumentName": "Instrument_0",
      "isPercussion": false,
      "pitch": 83,
      "velocity": 49,
      "startTime": 121.5,
      "duration": 0.17734375000000568,
      "endTime": 121.67734375
    },
    {
      "instrumentId": 1,
      "instrumentName": "Instrument_1",
      "isPercussion": false,
      "pitch": 54,
      "velocity": 49,
      "startTime": 121.5,
      "duration": 0.17734375000000568,
      "endTime": 121.67734375
    },
    {
      "instrumentId": 1,
      "instrumentName": "Instrument_1",
      "isPercussion": false,
      "pitch": 61,
      "velocity": 49,
      "startTime": 121.5,
      "duration": 0.17734375000000568,
      "endTime": 121.67734375
    },
    {
      "instrumentId": 0,
      "instrumentName": "Instrument_0",
      "isPercussion": false,
      "pitch": 80,
      "velocity": 49,
      "startTime": 121.6875,
      "duration": 0.17734375000000568,
      "endTime": 121.86484375
    },
    {
      "instrumentId": 0,
      "instrumentName": "Instrument_0",
      "isPercussion": false,
      "pitch": 76,
      "velocity": 49,
      "startTime": 121.875,
      "duration": 0.17734375000000568,
      "endTime": 122.05234375
    },
    {
      "instrumentId": 0,
      "instrumentName": "Instrument_0",
      "isPercussion": false,
      "pitch": 80,
      "velocity": 49,
      "startTime": 121.875,
      "duration": 0.17734375000000568,
      "endTime": 122.05234375
    },
    {
      "instrumentId": 0,
      "instrumentName": "Instrument_0",
      "isPercussion": false,
      "pitch": 78,
      "velocity": 49,
      "startTime": 122.0625,
      "duration": 0.17734375000000568,
      "endTime": 122.23984375
    },
    {
      "instrumentId": 1,
      "instrumentName": "Instrument_1",
      "isPercussion": false,
      "pitch": 54,
      "velocity": 49,
      "startTime": 122.0625,
      "duration": 0.17734375000000568,
      "endTime": 122.23984375
    },
    {
      "instrumentId": 1,
      "instrumentName": "Instrument_1",
      "isPercussion": false,
      "pitch": 64,
      "velocity": 49,
      "startTime": 122.0625,
      "duration": 0.17734375000000568,
      "endTime": 122.23984375
    },
    {
      "instrumentId": 0,
      "instrumentName": "Instrument_0",
      "isPercussion": false,
      "pitch": 75,
      "velocity": 49,
      "startTime": 122.25,
      "duration": 0.17734375000000568,
      "endTime": 122.42734375
    },
    {
      "instrumentId": 0,
      "instrumentName": "Instrument_0",
      "isPercussion": false,
      "pitch": 78,
      "velocity": 49,
      "startTime": 122.25,
      "duration": 0.17734375000000568,
      "endTime": 122.42734375
    },
    {
      "instrumentId": 0,
      "instrumentName": "Instrument_0",
      "isPercussion": false,
      "pitch": 78,
      "velocity": 49,
      "startTime": 122.4375,
      "duration": 0.17734375000000568,
      "endTime": 122.61484375
    },
    {
      "instrumentId": 0,
      "instrumentName": "Instrument_0",
      "isPercussion": false,
      "pitch": 75,
      "velocity": 49,
      "startTime": 122.625,
      "duration": 0.17734375000000568,
      "endTime": 122.80234375
    },
    {
      "instrumentId": 0,
      "instrumentName": "Instrument_0",
      "isPercussion": false,
      "pitch": 78,
      "velocity": 49,
      "startTime": 122.625,
      "duration": 0.17734375000000568,
      "endTime": 122.80234375
    },
    {
      "instrumentId": 1,
      "instrumentName": "Instrument_1",
      "isPercussion": false,
      "pitch": 54,
      "velocity": 49,
      "startTime": 122.625,
      "duration": 0.17734375000000568,
      "endTime": 122.80234375
    },
    {
      "instrumentId": 1,
      "instrumentName": "Instrument_1",
      "isPercussion": false,
      "pitch": 61,
      "velocity": 49,
      "startTime": 122.625,
      "duration": 0.17734375000000568,
      "endTime": 122.80234375
    },
    {
      "instrumentId": 0,
      "instrumentName": "Instrument_0",
      "isPercussion": false,
      "pitch": 76,
      "velocity": 49,
      "startTime": 122.8125,
      "duration": 0.17734375000000568,
      "endTime": 122.98984375
    },
    {
      "instrumentId": 0,
      "instrumentName": "Instrument_0",
      "isPercussion": false,
      "pitch": 75,
      "velocity": 49,
      "startTime": 123.0,
      "duration": 0.17734375000000568,
      "endTime": 123.17734375
    },
    {
      "instrumentId": 0,
      "instrumentName": "Instrument_0",
      "isPercussion": false,
      "pitch": 78,
      "velocity": 49,
      "startTime": 123.0,
      "duration": 0.17734375000000568,
      "endTime": 123.17734375
    },
    {
      "instrumentId": 1,
      "instrumentName": "Instrument_1",
      "isPercussion": false,
      "pitch": 57,
      "velocity": 49,
      "startTime": 123.0,
      "duration": 0.17734375000000568,
      "endTime": 123.17734375
    },
    {
      "instrumentId": 1,
      "instrumentName": "Instrument_1",
      "isPercussion": false,
      "pitch": 61,
      "velocity": 49,
      "startTime": 123.0,
      "duration": 0.17734375000000568,
      "endTime": 123.17734375
    },
    {
      "instrumentId": 0,
      "instrumentName": "Instrument_0",
      "isPercussion": false,
      "pitch": 78,
      "velocity": 49,
      "startTime": 123.1875,
      "duration": 0.17734375000000568,
      "endTime": 123.36484375
    },
    {
      "instrumentId": 0,
      "instrumentName": "Instrument_0",
      "isPercussion": false,
      "pitch": 75,
      "velocity": 49,
      "startTime": 123.375,
      "duration": 0.17734375000000568,
      "endTime": 123.55234375
    },
    {
      "instrumentId": 0,
      "instrumentName": "Instrument_0",
      "isPercussion": false,
      "pitch": 78,
      "velocity": 49,
      "startTime": 123.375,
      "duration": 0.17734375000000568,
      "endTime": 123.55234375
    },
    {
      "instrumentId": 0,
      "instrumentName": "Instrument_0",
      "isPercussion": false,
      "pitch": 78,
      "velocity": 49,
      "startTime": 123.5625,
      "duration": 0.17734375000000568,
      "endTime": 123.73984375
    },
    {
      "instrumentId": 1,
      "instrumentName": "Instrument_1",
      "isPercussion": false,
      "pitch": 57,
      "velocity": 49,
      "startTime": 123.5625,
      "duration": 0.17734375000000568,
      "endTime": 123.73984375
    },
    {
      "instrumentId": 1,
      "instrumentName": "Instrument_1",
      "isPercussion": false,
      "pitch": 64,
      "velocity": 49,
      "startTime": 123.5625,
      "duration": 0.17734375000000568,
      "endTime": 123.73984375
    },
    {
      "instrumentId": 0,
      "instrumentName": "Instrument_0",
      "isPercussion": false,
      "pitch": 75,
      "velocity": 49,
      "startTime": 123.75,
      "duration": 0.17734375000000568,
      "endTime": 123.92734375
    },
    {
      "instrumentId": 0,
      "instrumentName": "Instrument_0",
      "isPercussion": false,
      "pitch": 78,
      "velocity": 49,
      "startTime": 123.75,
      "duration": 0.17734375000000568,
      "endTime": 123.92734375
    },
    {
      "instrumentId": 0,
      "instrumentName": "Instrument_0",
      "isPercussion": false,
      "pitch": 78,
      "velocity": 49,
      "startTime": 123.9375,
      "duration": 0.17734375000000568,
      "endTime": 124.11484375
    },
    {
      "instrumentId": 0,
      "instrumentName": "Instrument_0",
      "isPercussion": false,
      "pitch": 73,
      "velocity": 49,
      "startTime": 124.125,
      "duration": 0.17734375000000568,
      "endTime": 124.30234375
    },
    {
      "instrumentId": 0,
      "instrumentName": "Instrument_0",
      "isPercussion": false,
      "pitch": 76,
      "velocity": 49,
      "startTime": 124.125,
      "duration": 0.17734375000000568,
      "endTime": 124.30234375
    },
    {
      "instrumentId": 1,
      "instrumentName": "Instrument_1",
      "isPercussion": false,
      "pitch": 57,
      "velocity": 49,
      "startTime": 124.125,
      "duration": 0.17734375000000568,
      "endTime": 124.30234375
    },
    {
      "instrumentId": 1,
      "instrumentName": "Instrument_1",
      "isPercussion": false,
      "pitch": 61,
      "velocity": 49,
      "startTime": 124.125,
      "duration": 0.17734375000000568,
      "endTime": 124.30234375
    },
    {
      "instrumentId": 0,
      "instrumentName": "Instrument_0",
      "isPercussion": false,
      "pitch": 76,
      "velocity": 49,
      "startTime": 124.3125,
      "duration": 0.8898437500000114,
      "endTime": 125.20234375000001
    },
    {
      "instrumentId": 0,
      "instrumentName": "Instrument_0",
      "isPercussion": false,
      "pitch": 80,
      "velocity": 49,
      "startTime": 124.3125,
      "duration": 0.8898437500000114,
      "endTime": 125.20234375000001
    },
    {
      "instrumentId": 1,
      "instrumentName": "Instrument_1",
      "isPercussion": false,
      "pitch": 54,
      "velocity": 49,
      "startTime": 124.5,
      "duration": 0.17734375000000568,
      "endTime": 124.67734375
    },
    {
      "instrumentId": 1,
      "instrumentName": "Instrument_1",
      "isPercussion": false,
      "pitch": 59,
      "velocity": 49,
      "startTime": 124.5,
      "duration": 0.17734375000000568,
      "endTime": 124.67734375
    },
    {
      "instrumentId": 1,
      "instrumentName": "Instrument_1",
      "isPercussion": false,
      "pitch": 63,
      "velocity": 49,
      "startTime": 124.5,
      "duration": 0.17734375000000568,
      "endTime": 124.67734375
    },
    {
      "instrumentId": 1,
      "instrumentName": "Instrument_1",
      "isPercussion": false,
      "pitch": 54,
      "velocity": 49,
      "startTime": 125.0625,
      "duration": 0.17734375000000568,
      "endTime": 125.23984375
    },
    {
      "instrumentId": 1,
      "instrumentName": "Instrument_1",
      "isPercussion": false,
      "pitch": 59,
      "velocity": 49,
      "startTime": 125.0625,
      "duration": 0.17734375000000568,
      "endTime": 125.23984375
    },
    {
      "instrumentId": 1,
      "instrumentName": "Instrument_1",
      "isPercussion": false,
      "pitch": 61,
      "velocity": 49,
      "startTime": 125.0625,
      "duration": 0.17734375000000568,
      "endTime": 125.23984375
    },
    {
      "instrumentId": 0,
      "instrumentName": "Instrument_0",
      "isPercussion": false,
      "pitch": 73,
      "velocity": 49,
      "startTime": 125.4375,
      "duration": 0.17734375000000568,
      "endTime": 125.61484375
    },
    {
      "instrumentId": 0,
      "instrumentName": "Instrument_0",
      "isPercussion": false,
      "pitch": 76,
      "velocity": 49,
      "startTime": 125.4375,
      "duration": 0.17734375000000568,
      "endTime": 125.61484375
    },
    {
      "instrumentId": 0,
      "instrumentName": "Instrument_0",
      "isPercussion": false,
      "pitch": 76,
      "velocity": 49,
      "startTime": 125.625,
      "duration": 0.17734375000000568,
      "endTime": 125.80234375
    },
    {
      "instrumentId": 1,
      "instrumentName": "Instrument_1",
      "isPercussion": false,
      "pitch": 54,
      "velocity": 49,
      "startTime": 125.625,
      "duration": 0.17734375000000568,
      "endTime": 125.80234375
    },
    {
      "instrumentId": 1,
      "instrumentName": "Instrument_1",
      "isPercussion": false,
      "pitch": 59,
      "velocity": 49,
      "startTime": 125.625,
      "duration": 0.17734375000000568,
      "endTime": 125.80234375
    },
    {
      "instrumentId": 0,
      "instrumentName": "Instrument_0",
      "isPercussion": false,
      "pitch": 76,
      "velocity": 49,
      "startTime": 125.8125,
      "duration": 0.17734375000000568,
      "endTime": 125.98984375
    },
    {
      "instrumentId": 0,
      "instrumentName": "Instrument_0",
      "isPercussion": false,
      "pitch": 73,
      "velocity": 49,
      "startTime": 126.0,
      "duration": 0.17734375000000568,
      "endTime": 126.17734375
    },
    {
      "instrumentId": 0,
      "instrumentName": "Instrument_0",
      "isPercussion": false,
      "pitch": 76,
      "velocity": 49,
      "startTime": 126.0,
      "duration": 0.17734375000000568,
      "endTime": 126.17734375
    },
    {
      "instrumentId": 1,
      "instrumentName": "Instrument_1",
      "isPercussion": false,
      "pitch": 56,
      "velocity": 49,
      "startTime": 126.0,
      "duration": 0.17734375000000568,
      "endTime": 126.17734375
    },
    {
      "instrumentId": 1,
      "instrumentName": "Instrument_1",
      "isPercussion": false,
      "pitch": 61,
      "velocity": 49,
      "startTime": 126.0,
      "duration": 0.17734375000000568,
      "endTime": 126.17734375
    },
    {
      "instrumentId": 0,
      "instrumentName": "Instrument_0",
      "isPercussion": false,
      "pitch": 76,
      "velocity": 49,
      "startTime": 126.1875,
      "duration": 0.17734375000000568,
      "endTime": 126.36484375
    },
    {
      "instrumentId": 0,
      "instrumentName": "Instrument_0",
      "isPercussion": false,
      "pitch": 76,
      "velocity": 49,
      "startTime": 126.375,
      "duration": 0.17734375000000568,
      "endTime": 126.55234375
    },
    {
      "instrumentId": 0,
      "instrumentName": "Instrument_0",
      "isPercussion": false,
      "pitch": 76,
      "velocity": 49,
      "startTime": 126.5625,
      "duration": 0.35546875,
      "endTime": 126.91796875
    },
    {
      "instrumentId": 0,
      "instrumentName": "Instrument_0",
      "isPercussion": false,
      "pitch": 80,
      "velocity": 49,
      "startTime": 126.5625,
      "duration": 0.35546875,
      "endTime": 126.91796875
    },
    {
      "instrumentId": 1,
      "instrumentName": "Instrument_1",
      "isPercussion": false,
      "pitch": 56,
      "velocity": 49,
      "startTime": 126.5625,
      "duration": 0.17734375000000568,
      "endTime": 126.73984375
    },
    {
      "instrumentId": 1,
      "instrumentName": "Instrument_1",
      "isPercussion": false,
      "pitch": 64,
      "velocity": 49,
      "startTime": 126.5625,
      "duration": 0.17734375000000568,
      "endTime": 126.73984375
    },
    {
      "instrumentId": 0,
      "instrumentName": "Instrument_0",
      "isPercussion": false,
      "pitch": 76,
      "velocity": 49,
      "startTime": 126.9375,
      "duration": 0.5335937500000085,
      "endTime": 127.47109375000001
    },
    {
      "instrumentId": 0,
      "instrumentName": "Instrument_0",
      "isPercussion": false,
      "pitch": 80,
      "velocity": 49,
      "startTime": 126.9375,
      "duration": 0.5335937500000085,
      "endTime": 127.47109375000001
    },
    {
      "instrumentId": 1,
      "instrumentName": "Instrument_1",
      "isPercussion": false,
      "pitch": 56,
      "velocity": 49,
      "startTime": 127.125,
      "duration": 0.17734375000000568,
      "endTime": 127.30234375
    },
    {
      "instrumentId": 1,
      "instrumentName": "Instrument_1",
      "isPercussion": false,
      "pitch": 61,
      "velocity": 49,
      "startTime": 127.125,
      "duration": 0.17734375000000568,
      "endTime": 127.30234375
    },
    {
      "instrumentId": 0,
      "instrumentName": "Instrument_0",
      "isPercussion": false,
      "pitch": 73,
      "velocity": 49,
      "startTime": 127.5,
      "duration": 0.17734375000000568,
      "endTime": 127.67734375
    },
    {
      "instrumentId": 0,
      "instrumentName": "Instrument_0",
      "isPercussion": false,
      "pitch": 76,
      "velocity": 49,
      "startTime": 127.5,
      "duration": 0.17734375000000568,
      "endTime": 127.67734375
    },
    {
      "instrumentId": 1,
      "instrumentName": "Instrument_1",
      "isPercussion": false,
      "pitch": 54,
      "velocity": 49,
      "startTime": 127.5,
      "duration": 0.17734375000000568,
      "endTime": 127.67734375
    },
    {
      "instrumentId": 1,
      "instrumentName": "Instrument_1",
      "isPercussion": false,
      "pitch": 61,
      "velocity": 49,
      "startTime": 127.5,
      "duration": 0.17734375000000568,
      "endTime": 127.67734375
    },
    {
      "instrumentId": 0,
      "instrumentName": "Instrument_0",
      "isPercussion": false,
      "pitch": 76,
      "velocity": 49,
      "startTime": 127.6875,
      "duration": 0.17734375000000568,
      "endTime": 127.86484375
    },
    {
      "instrumentId": 0,
      "instrumentName": "Instrument_0",
      "isPercussion": false,
      "pitch": 76,
      "velocity": 49,
      "startTime": 127.875,
      "duration": 0.17734375000000568,
      "endTime": 128.05234375
    },
    {
      "instrumentId": 0,
      "instrumentName": "Instrument_0",
      "isPercussion": false,
      "pitch": 76,
      "velocity": 49,
      "startTime": 128.0625,
      "duration": 0.35546875,
      "endTime": 128.41796875
    },
    {
      "instrumentId": 0,
      "instrumentName": "Instrument_0",
      "isPercussion": false,
      "pitch": 80,
      "velocity": 49,
      "startTime": 128.0625,
      "duration": 0.35546875,
      "endTime": 128.41796875
    },
    {
      "instrumentId": 1,
      "instrumentName": "Instrument_1",
      "isPercussion": false,
      "pitch": 54,
      "velocity": 49,
      "startTime": 128.0625,
      "duration": 0.17734375000000568,
      "endTime": 128.23984375
    },
    {
      "instrumentId": 1,
      "instrumentName": "Instrument_1",
      "isPercussion": false,
      "pitch": 64,
      "velocity": 49,
      "startTime": 128.0625,
      "duration": 0.17734375000000568,
      "endTime": 128.23984375
    },
    {
      "instrumentId": 0,
      "instrumentName": "Instrument_0",
      "isPercussion": false,
      "pitch": 76,
      "velocity": 49,
      "startTime": 128.4375,
      "duration": 0.17734375000000568,
      "endTime": 128.61484375
    },
    {
      "instrumentId": 0,
      "instrumentName": "Instrument_0",
      "isPercussion": false,
      "pitch": 80,
      "velocity": 49,
      "startTime": 128.4375,
      "duration": 0.17734375000000568,
      "endTime": 128.61484375
    },
    {
      "instrumentId": 0,
      "instrumentName": "Instrument_0",
      "isPercussion": false,
      "pitch": 80,
      "velocity": 49,
      "startTime": 128.625,
      "duration": 0.17734375000000568,
      "endTime": 128.80234375
    },
    {
      "instrumentId": 1,
      "instrumentName": "Instrument_1",
      "isPercussion": false,
      "pitch": 54,
      "velocity": 49,
      "startTime": 128.625,
      "duration": 0.17734375000000568,
      "endTime": 128.80234375
    },
    {
      "instrumentId": 1,
      "instrumentName": "Instrument_1",
      "isPercussion": false,
      "pitch": 61,
      "velocity": 49,
      "startTime": 128.625,
      "duration": 0.17734375000000568,
      "endTime": 128.80234375
    },
    {
      "instrumentId": 0,
      "instrumentName": "Instrument_0",
      "isPercussion": false,
      "pitch": 80,
      "velocity": 49,
      "startTime": 128.8125,
      "duration": 0.17734375000000568,
      "endTime": 128.98984375
    },
    {
      "instrumentId": 0,
      "instrumentName": "Instrument_0",
      "isPercussion": false,
      "pitch": 75,
      "velocity": 49,
      "startTime": 129.0,
      "duration": 0.17734375000000568,
      "endTime": 129.17734375
    },
    {
      "instrumentId": 0,
      "instrumentName": "Instrument_0",
      "isPercussion": false,
      "pitch": 78,
      "velocity": 49,
      "startTime": 129.0,
      "duration": 0.17734375000000568,
      "endTime": 129.17734375
    },
    {
      "instrumentId": 1,
      "instrumentName": "Instrument_1",
      "isPercussion": false,
      "pitch": 57,
      "velocity": 49,
      "startTime": 129.0,
      "duration": 0.17734375000000568,
      "endTime": 129.17734375
    },
    {
      "instrumentId": 1,
      "instrumentName": "Instrument_1",
      "isPercussion": false,
      "pitch": 61,
      "velocity": 49,
      "startTime": 129.0,
      "duration": 0.17734375000000568,
      "endTime": 129.17734375
    },
    {
      "instrumentId": 0,
      "instrumentName": "Instrument_0",
      "isPercussion": false,
      "pitch": 78,
      "velocity": 49,
      "startTime": 129.1875,
      "duration": 0.17734375000000568,
      "endTime": 129.36484375
    },
    {
      "instrumentId": 0,
      "instrumentName": "Instrument_0",
      "isPercussion": false,
      "pitch": 75,
      "velocity": 49,
      "startTime": 129.375,
      "duration": 0.17734375000000568,
      "endTime": 129.55234375
    },
    {
      "instrumentId": 0,
      "instrumentName": "Instrument_0",
      "isPercussion": false,
      "pitch": 78,
      "velocity": 49,
      "startTime": 129.375,
      "duration": 0.17734375000000568,
      "endTime": 129.55234375
    },
    {
      "instrumentId": 0,
      "instrumentName": "Instrument_0",
      "isPercussion": false,
      "pitch": 78,
      "velocity": 49,
      "startTime": 129.5625,
      "duration": 0.17734375000000568,
      "endTime": 129.73984375
    },
    {
      "instrumentId": 1,
      "instrumentName": "Instrument_1",
      "isPercussion": false,
      "pitch": 57,
      "velocity": 49,
      "startTime": 129.5625,
      "duration": 0.17734375000000568,
      "endTime": 129.73984375
    },
    {
      "instrumentId": 1,
      "instrumentName": "Instrument_1",
      "isPercussion": false,
      "pitch": 64,
      "velocity": 49,
      "startTime": 129.5625,
      "duration": 0.17734375000000568,
      "endTime": 129.73984375
    },
    {
      "instrumentId": 0,
      "instrumentName": "Instrument_0",
      "isPercussion": false,
      "pitch": 75,
      "velocity": 49,
      "startTime": 129.75,
      "duration": 0.17734375000000568,
      "endTime": 129.92734375
    },
    {
      "instrumentId": 0,
      "instrumentName": "Instrument_0",
      "isPercussion": false,
      "pitch": 78,
      "velocity": 49,
      "startTime": 129.75,
      "duration": 0.17734375000000568,
      "endTime": 129.92734375
    },
    {
      "instrumentId": 0,
      "instrumentName": "Instrument_0",
      "isPercussion": false,
      "pitch": 78,
      "velocity": 49,
      "startTime": 129.9375,
      "duration": 0.17734375000000568,
      "endTime": 130.11484375
    },
    {
      "instrumentId": 0,
      "instrumentName": "Instrument_0",
      "isPercussion": false,
      "pitch": 73,
      "velocity": 49,
      "startTime": 130.125,
      "duration": 0.17734375000000568,
      "endTime": 130.30234375
    },
    {
      "instrumentId": 0,
      "instrumentName": "Instrument_0",
      "isPercussion": false,
      "pitch": 76,
      "velocity": 49,
      "startTime": 130.125,
      "duration": 0.17734375000000568,
      "endTime": 130.30234375
    },
    {
      "instrumentId": 1,
      "instrumentName": "Instrument_1",
      "isPercussion": false,
      "pitch": 57,
      "velocity": 49,
      "startTime": 130.125,
      "duration": 0.17734375000000568,
      "endTime": 130.30234375
    },
    {
      "instrumentId": 1,
      "instrumentName": "Instrument_1",
      "isPercussion": false,
      "pitch": 61,
      "velocity": 49,
      "startTime": 130.125,
      "duration": 0.17734375000000568,
      "endTime": 130.30234375
    },
    {
      "instrumentId": 0,
      "instrumentName": "Instrument_0",
      "isPercussion": false,
      "pitch": 73,
      "velocity": 49,
      "startTime": 130.3125,
      "duration": 0.35546875,
      "endTime": 130.66796875
    },
    {
      "instrumentId": 0,
      "instrumentName": "Instrument_0",
      "isPercussion": false,
      "pitch": 76,
      "velocity": 49,
      "startTime": 130.3125,
      "duration": 0.35546875,
      "endTime": 130.66796875
    },
    {
      "instrumentId": 1,
      "instrumentName": "Instrument_1",
      "isPercussion": false,
      "pitch": 54,
      "velocity": 96,
      "startTime": 130.5,
      "duration": 0.17734375000000568,
      "endTime": 130.67734375
    },
    {
      "instrumentId": 1,
      "instrumentName": "Instrument_1",
      "isPercussion": false,
      "pitch": 59,
      "velocity": 96,
      "startTime": 130.5,
      "duration": 0.17734375000000568,
      "endTime": 130.67734375
    },
    {
      "instrumentId": 1,
      "instrumentName": "Instrument_1",
      "isPercussion": false,
      "pitch": 63,
      "velocity": 96,
      "startTime": 130.5,
      "duration": 0.17734375000000568,
      "endTime": 130.67734375
    },
    {
      "instrumentId": 0,
      "instrumentName": "Instrument_0",
      "isPercussion": false,
      "pitch": 64,
      "velocity": 96,
      "startTime": 130.6875,
      "duration": 0.35546875,
      "endTime": 131.04296875
    },
    {
      "instrumentId": 0,
      "instrumentName": "Instrument_0",
      "isPercussion": false,
      "pitch": 68,
      "velocity": 96,
      "startTime": 130.6875,
      "duration": 0.35546875,
      "endTime": 131.04296875
    },
    {
      "instrumentId": 0,
      "instrumentName": "Instrument_0",
      "isPercussion": false,
      "pitch": 64,
      "velocity": 96,
      "startTime": 131.0625,
      "duration": 0.17734375000000568,
      "endTime": 131.23984375
    },
    {
      "instrumentId": 0,
      "instrumentName": "Instrument_0",
      "isPercussion": false,
      "pitch": 68,
      "velocity": 96,
      "startTime": 131.0625,
      "duration": 0.17734375000000568,
      "endTime": 131.23984375
    },
    {
      "instrumentId": 1,
      "instrumentName": "Instrument_1",
      "isPercussion": false,
      "pitch": 54,
      "velocity": 96,
      "startTime": 131.0625,
      "duration": 0.17734375000000568,
      "endTime": 131.23984375
    },
    {
      "instrumentId": 1,
      "instrumentName": "Instrument_1",
      "isPercussion": false,
      "pitch": 59,
      "velocity": 96,
      "startTime": 131.0625,
      "duration": 0.17734375000000568,
      "endTime": 131.23984375
    },
    {
      "instrumentId": 1,
      "instrumentName": "Instrument_1",
      "isPercussion": false,
      "pitch": 61,
      "velocity": 96,
      "startTime": 131.0625,
      "duration": 0.17734375000000568,
      "endTime": 131.23984375
    },
    {
      "instrumentId": 0,
      "instrumentName": "Instrument_0",
      "isPercussion": false,
      "pitch": 71,
      "velocity": 96,
      "startTime": 131.25,
      "duration": 0.17734375000000568,
      "endTime": 131.42734375
    },
    {
      "instrumentId": 0,
      "instrumentName": "Instrument_0",
      "isPercussion": false,
      "pitch": 73,
      "velocity": 96,
      "startTime": 131.4375,
      "duration": 0.17734375000000568,
      "endTime": 131.61484375
    },
    {
      "instrumentId": 0,
      "instrumentName": "Instrument_0",
      "isPercussion": false,
      "pitch": 68,
      "velocity": 96,
      "startTime": 131.625,
      "duration": 0.35546875,
      "endTime": 131.98046875
    },
    {
      "instrumentId": 0,
      "instrumentName": "Instrument_0",
      "isPercussion": false,
      "pitch": 73,
      "velocity": 96,
      "startTime": 131.625,
      "duration": 0.35546875,
      "endTime": 131.98046875
    },
    {
      "instrumentId": 1,
      "instrumentName": "Instrument_1",
      "isPercussion": false,
      "pitch": 54,
      "velocity": 96,
      "startTime": 131.625,
      "duration": 0.17734375000000568,
      "endTime": 131.80234375
    },
    {
      "instrumentId": 1,
      "instrumentName": "Instrument_1",
      "isPercussion": false,
      "pitch": 59,
      "velocity": 96,
      "startTime": 131.625,
      "duration": 0.17734375000000568,
      "endTime": 131.80234375
    },
    {
      "instrumentId": 0,
      "instrumentName": "Instrument_0",
      "isPercussion": false,
      "pitch": 68,
      "velocity": 96,
      "startTime": 132.0,
      "duration": 0.35546875,
      "endTime": 132.35546875
    },
    {
      "instrumentId": 0,
      "instrumentName": "Instrument_0",
      "isPercussion": false,
      "pitch": 73,
      "velocity": 96,
      "startTime": 132.0,
      "duration": 0.35546875,
      "endTime": 132.35546875
    },
    {
      "instrumentId": 1,
      "instrumentName": "Instrument_1",
      "isPercussion": false,
      "pitch": 56,
      "velocity": 96,
      "startTime": 132.0,
      "duration": 0.17734375000000568,
      "endTime": 132.17734375
    },
    {
      "instrumentId": 1,
      "instrumentName": "Instrument_1",
      "isPercussion": false,
      "pitch": 61,
      "velocity": 96,
      "startTime": 132.0,
      "duration": 0.17734375000000568,
      "endTime": 132.17734375
    },
    {
      "instrumentId": 0,
      "instrumentName": "Instrument_0",
      "isPercussion": false,
      "pitch": 68,
      "velocity": 96,
      "startTime": 132.375,
      "duration": 0.35546875,
      "endTime": 132.73046875
    },
    {
      "instrumentId": 0,
      "instrumentName": "Instrument_0",
      "isPercussion": false,
      "pitch": 73,
      "velocity": 96,
      "startTime": 132.375,
      "duration": 0.35546875,
      "endTime": 132.73046875
    },
    {
      "instrumentId": 1,
      "instrumentName": "Instrument_1",
      "isPercussion": false,
      "pitch": 56,
      "velocity": 96,
      "startTime": 132.5625,
      "duration": 0.17734375000000568,
      "endTime": 132.73984375
    },
    {
      "instrumentId": 1,
      "instrumentName": "Instrument_1",
      "isPercussion": false,
      "pitch": 64,
      "velocity": 96,
      "startTime": 132.5625,
      "duration": 0.17734375000000568,
      "endTime": 132.73984375
    },
    {
      "instrumentId": 0,
      "instrumentName": "Instrument_0",
      "isPercussion": false,
      "pitch": 68,
      "velocity": 96,
      "startTime": 132.75,
      "duration": 0.35546875,
      "endTime": 133.10546875
    },
    {
      "instrumentId": 0,
      "instrumentName": "Instrument_0",
      "isPercussion": false,
      "pitch": 73,
      "velocity": 96,
      "startTime": 132.75,
      "duration": 0.35546875,
      "endTime": 133.10546875
    },
    {
      "instrumentId": 0,
      "instrumentName": "Instrument_0",
      "isPercussion": false,
      "pitch": 68,
      "velocity": 96,
      "startTime": 133.125,
      "duration": 0.35546875,
      "endTime": 133.48046875
    },
    {
      "instrumentId": 0,
      "instrumentName": "Instrument_0",
      "isPercussion": false,
      "pitch": 71,
      "velocity": 96,
      "startTime": 133.125,
      "duration": 0.35546875,
      "endTime": 133.48046875
    },
    {
      "instrumentId": 1,
      "instrumentName": "Instrument_1",
      "isPercussion": false,
      "pitch": 56,
      "velocity": 96,
      "startTime": 133.125,
      "duration": 0.17734375000000568,
      "endTime": 133.30234375
    },
    {
      "instrumentId": 1,
      "instrumentName": "Instrument_1",
      "isPercussion": false,
      "pitch": 61,
      "velocity": 96,
      "startTime": 133.125,
      "duration": 0.17734375000000568,
      "endTime": 133.30234375
    },
    {
      "instrumentId": 0,
      "instrumentName": "Instrument_0",
      "isPercussion": false,
      "pitch": 68,
      "velocity": 96,
      "startTime": 133.5,
      "duration": 0.35546875,
      "endTime": 133.85546875
    },
    {
      "instrumentId": 0,
      "instrumentName": "Instrument_0",
      "isPercussion": false,
      "pitch": 73,
      "velocity": 96,
      "startTime": 133.5,
      "duration": 0.35546875,
      "endTime": 133.85546875
    },
    {
      "instrumentId": 1,
      "instrumentName": "Instrument_1",
      "isPercussion": false,
      "pitch": 54,
      "velocity": 96,
      "startTime": 133.5,
      "duration": 0.17734375000000568,
      "endTime": 133.67734375
    },
    {
      "instrumentId": 1,
      "instrumentName": "Instrument_1",
      "isPercussion": false,
      "pitch": 61,
      "velocity": 96,
      "startTime": 133.5,
      "duration": 0.17734375000000568,
      "endTime": 133.67734375
    },
    {
      "instrumentId": 0,
      "instrumentName": "Instrument_0",
      "isPercussion": false,
      "pitch": 76,
      "velocity": 96,
      "startTime": 133.875,
      "duration": 0.35546875,
      "endTime": 134.23046875
    },
    {
      "instrumentId": 0,
      "instrumentName": "Instrument_0",
      "isPercussion": false,
      "pitch": 80,
      "velocity": 96,
      "startTime": 133.875,
      "duration": 0.35546875,
      "endTime": 134.23046875
    },
    {
      "instrumentId": 1,
      "instrumentName": "Instrument_1",
      "isPercussion": false,
      "pitch": 54,
      "velocity": 96,
      "startTime": 134.0625,
      "duration": 0.17734375000000568,
      "endTime": 134.23984375
    },
    {
      "instrumentId": 1,
      "instrumentName": "Instrument_1",
      "isPercussion": false,
      "pitch": 64,
      "velocity": 96,
      "startTime": 134.0625,
      "duration": 0.17734375000000568,
      "endTime": 134.23984375
    },
    {
      "instrumentId": 0,
      "instrumentName": "Instrument_0",
      "isPercussion": false,
      "pitch": 75,
      "velocity": 96,
      "startTime": 134.25,
      "duration": 0.711718750000017,
      "endTime": 134.96171875000002
    },
    {
      "instrumentId": 0,
      "instrumentName": "Instrument_0",
      "isPercussion": false,
      "pitch": 78,
      "velocity": 96,
      "startTime": 134.25,
      "duration": 0.711718750000017,
      "endTime": 134.96171875000002
    },
    {
      "instrumentId": 1,
      "instrumentName": "Instrument_1",
      "isPercussion": false,
      "pitch": 54,
      "velocity": 96,
      "startTime": 134.625,
      "duration": 0.17734375000000568,
      "endTime": 134.80234375
    },
    {
      "instrumentId": 1,
      "instrumentName": "Instrument_1",
      "isPercussion": false,
      "pitch": 61,
      "velocity": 96,
      "startTime": 134.625,
      "duration": 0.17734375000000568,
      "endTime": 134.80234375
    },
    {
      "instrumentId": 0,
      "instrumentName": "Instrument_0",
      "isPercussion": false,
      "pitch": 76,
      "velocity": 96,
      "startTime": 135.0,
      "duration": 0.17734375000000568,
      "endTime": 135.17734375
    },
    {
      "instrumentId": 1,
      "instrumentName": "Instrument_1",
      "isPercussion": false,
      "pitch": 57,
      "velocity": 96,
      "startTime": 135.0,
      "duration": 0.17734375000000568,
      "endTime": 135.17734375
    },
    {
      "instrumentId": 1,
      "instrumentName": "Instrument_1",
      "isPercussion": false,
      "pitch": 61,
      "velocity": 96,
      "startTime": 135.0,
      "duration": 0.17734375000000568,
      "endTime": 135.17734375
    },
    {
      "instrumentId": 0,
      "instrumentName": "Instrument_0",
      "isPercussion": false,
      "pitch": 75,
      "velocity": 96,
      "startTime": 135.1875,
      "duration": 0.35546875,
      "endTime": 135.54296875
    },
    {
      "instrumentId": 0,
      "instrumentName": "Instrument_0",
      "isPercussion": false,
      "pitch": 78,
      "velocity": 96,
      "startTime": 135.1875,
      "duration": 0.35546875,
      "endTime": 135.54296875
    },
    {
      "instrumentId": 0,
      "instrumentName": "Instrument_0",
      "isPercussion": false,
      "pitch": 80,
      "velocity": 96,
      "startTime": 135.5625,
      "duration": 0.17734375000000568,
      "endTime": 135.73984375
    },
    {
      "instrumentId": 1,
      "instrumentName": "Instrument_1",
      "isPercussion": false,
      "pitch": 57,
      "velocity": 96,
      "startTime": 135.5625,
      "duration": 0.17734375000000568,
      "endTime": 135.73984375
    },
    {
      "instrumentId": 1,
      "instrumentName": "Instrument_1",
      "isPercussion": false,
      "pitch": 64,
      "velocity": 96,
      "startTime": 135.5625,
      "duration": 0.17734375000000568,
      "endTime": 135.73984375
    },
    {
      "instrumentId": 0,
      "instrumentName": "Instrument_0",
      "isPercussion": false,
      "pitch": 75,
      "velocity": 96,
      "startTime": 135.75,
      "duration": 0.35546875,
      "endTime": 136.10546875
    },
    {
      "instrumentId": 0,
      "instrumentName": "Instrument_0",
      "isPercussion": false,
      "pitch": 78,
      "velocity": 96,
      "startTime": 135.75,
      "duration": 0.35546875,
      "endTime": 136.10546875
    },
    {
      "instrumentId": 0,
      "instrumentName": "Instrument_0",
      "isPercussion": false,
      "pitch": 73,
      "velocity": 96,
      "startTime": 136.125,
      "duration": 0.35546875,
      "endTime": 136.48046875
    },
    {
      "instrumentId": 0,
      "instrumentName": "Instrument_0",
      "isPercussion": false,
      "pitch": 76,
      "velocity": 96,
      "startTime": 136.125,
      "duration": 0.35546875,
      "endTime": 136.48046875
    },
    {
      "instrumentId": 1,
      "instrumentName": "Instrument_1",
      "isPercussion": false,
      "pitch": 57,
      "velocity": 96,
      "startTime": 136.125,
      "duration": 0.17734375000000568,
      "endTime": 136.30234375
    },
    {
      "instrumentId": 1,
      "instrumentName": "Instrument_1",
      "isPercussion": false,
      "pitch": 61,
      "velocity": 96,
      "startTime": 136.125,
      "duration": 0.17734375000000568,
      "endTime": 136.30234375
    },
    {
      "instrumentId": 0,
      "instrumentName": "Instrument_0",
      "isPercussion": false,
      "pitch": 68,
      "velocity": 96,
      "startTime": 136.5,
      "duration": 0.35546875,
      "endTime": 136.85546875
    },
    {
      "instrumentId": 0,
      "instrumentName": "Instrument_0",
      "isPercussion": false,
      "pitch": 73,
      "velocity": 96,
      "startTime": 136.5,
      "duration": 0.35546875,
      "endTime": 136.85546875
    },
    {
      "instrumentId": 1,
      "instrumentName": "Instrument_1",
      "isPercussion": false,
      "pitch": 54,
      "velocity": 96,
      "startTime": 136.5,
      "duration": 0.17734375000000568,
      "endTime": 136.67734375
    },
    {
      "instrumentId": 1,
      "instrumentName": "Instrument_1",
      "isPercussion": false,
      "pitch": 59,
      "velocity": 96,
      "startTime": 136.5,
      "duration": 0.17734375000000568,
      "endTime": 136.67734375
    },
    {
      "instrumentId": 1,
      "instrumentName": "Instrument_1",
      "isPercussion": false,
      "pitch": 63,
      "velocity": 96,
      "startTime": 136.5,
      "duration": 0.17734375000000568,
      "endTime": 136.67734375
    },
    {
      "instrumentId": 0,
      "instrumentName": "Instrument_0",
      "isPercussion": false,
      "pitch": 73,
      "velocity": 96,
      "startTime": 136.875,
      "duration": 0.35546875,
      "endTime": 137.23046875
    },
    {
      "instrumentId": 0,
      "instrumentName": "Instrument_0",
      "isPercussion": false,
      "pitch": 76,
      "velocity": 96,
      "startTime": 136.875,
      "duration": 0.35546875,
      "endTime": 137.23046875
    },
    {
      "instrumentId": 1,
      "instrumentName": "Instrument_1",
      "isPercussion": false,
      "pitch": 54,
      "velocity": 96,
      "startTime": 137.0625,
      "duration": 0.17734375000000568,
      "endTime": 137.23984375
    },
    {
      "instrumentId": 1,
      "instrumentName": "Instrument_1",
      "isPercussion": false,
      "pitch": 59,
      "velocity": 96,
      "startTime": 137.0625,
      "duration": 0.17734375000000568,
      "endTime": 137.23984375
    },
    {
      "instrumentId": 1,
      "instrumentName": "Instrument_1",
      "isPercussion": false,
      "pitch": 61,
      "velocity": 96,
      "startTime": 137.0625,
      "duration": 0.17734375000000568,
      "endTime": 137.23984375
    },
    {
      "instrumentId": 0,
      "instrumentName": "Instrument_0",
      "isPercussion": false,
      "pitch": 80,
      "velocity": 96,
      "startTime": 137.25,
      "duration": 0.17734375000000568,
      "endTime": 137.42734375
    },
    {
      "instrumentId": 0,
      "instrumentName": "Instrument_0",
      "isPercussion": false,
      "pitch": 78,
      "velocity": 96,
      "startTime": 137.4375,
      "duration": 0.17734375000000568,
      "endTime": 137.61484375
    },
    {
      "instrumentId": 0,
      "instrumentName": "Instrument_0",
      "isPercussion": false,
      "pitch": 75,
      "velocity": 96,
      "startTime": 137.625,
      "duration": 0.35546875,
      "endTime": 137.98046875
    },
    {
      "instrumentId": 0,
      "instrumentName": "Instrument_0",
      "isPercussion": false,
      "pitch": 78,
      "velocity": 96,
      "startTime": 137.625,
      "duration": 0.35546875,
      "endTime": 137.98046875
    },
    {
      "instrumentId": 1,
      "instrumentName": "Instrument_1",
      "isPercussion": false,
      "pitch": 54,
      "velocity": 96,
      "startTime": 137.625,
      "duration": 0.17734375000000568,
      "endTime": 137.80234375
    },
    {
      "instrumentId": 1,
      "instrumentName": "Instrument_1",
      "isPercussion": false,
      "pitch": 59,
      "velocity": 96,
      "startTime": 137.625,
      "duration": 0.17734375000000568,
      "endTime": 137.80234375
    },
    {
      "instrumentId": 0,
      "instrumentName": "Instrument_0",
      "isPercussion": false,
      "pitch": 68,
      "velocity": 96,
      "startTime": 138.0,
      "duration": 0.711718750000017,
      "endTime": 138.71171875000002
    },
    {
      "instrumentId": 0,
      "instrumentName": "Instrument_0",
      "isPercussion": false,
      "pitch": 73,
      "velocity": 96,
      "startTime": 138.0,
      "duration": 0.711718750000017,
      "endTime": 138.71171875000002
    },
    {
      "instrumentId": 1,
      "instrumentName": "Instrument_1",
      "isPercussion": false,
      "pitch": 56,
      "velocity": 96,
      "startTime": 138.0,
      "duration": 0.17734375000000568,
      "endTime": 138.17734375
    },
    {
      "instrumentId": 1,
      "instrumentName": "Instrument_1",
      "isPercussion": false,
      "pitch": 61,
      "velocity": 96,
      "startTime": 138.0,
      "duration": 0.17734375000000568,
      "endTime": 138.17734375
    },
    {
      "instrumentId": 1,
      "instrumentName": "Instrument_1",
      "isPercussion": false,
      "pitch": 56,
      "velocity": 96,
      "startTime": 138.5625,
      "duration": 0.17734375000000568,
      "endTime": 138.73984375
    },
    {
      "instrumentId": 1,
      "instrumentName": "Instrument_1",
      "isPercussion": false,
      "pitch": 64,
      "velocity": 96,
      "startTime": 138.5625,
      "duration": 0.17734375000000568,
      "endTime": 138.73984375
    },
    {
      "instrumentId": 0,
      "instrumentName": "Instrument_0",
      "isPercussion": false,
      "pitch": 83,
      "velocity": 96,
      "startTime": 138.75,
      "duration": 0.17734375000000568,
      "endTime": 138.92734375
    },
    {
      "instrumentId": 0,
      "instrumentName": "Instrument_0",
      "isPercussion": false,
      "pitch": 78,
      "velocity": 96,
      "startTime": 138.9375,
      "duration": 0.17734375000000568,
      "endTime": 139.11484375
    },
    {
      "instrumentId": 0,
      "instrumentName": "Instrument_0",
      "isPercussion": false,
      "pitch": 76,
      "velocity": 96,
      "startTime": 139.125,
      "duration": 0.35546875,
      "endTime": 139.48046875
    },
    {
      "instrumentId": 0,
      "instrumentName": "Instrument_0",
      "isPercussion": false,
      "pitch": 80,
      "velocity": 96,
      "startTime": 139.125,
      "duration": 0.35546875,
      "endTime": 139.48046875
    },
    {
      "instrumentId": 1,
      "instrumentName": "Instrument_1",
      "isPercussion": false,
      "pitch": 56,
      "velocity": 96,
      "startTime": 139.125,
      "duration": 0.17734375000000568,
      "endTime": 139.30234375
    },
    {
      "instrumentId": 1,
      "instrumentName": "Instrument_1",
      "isPercussion": false,
      "pitch": 61,
      "velocity": 96,
      "startTime": 139.125,
      "duration": 0.17734375000000568,
      "endTime": 139.30234375
    },
    {
      "instrumentId": 0,
      "instrumentName": "Instrument_0",
      "isPercussion": false,
      "pitch": 78,
      "velocity": 96,
      "startTime": 139.5,
      "duration": 0.17734375000000568,
      "endTime": 139.67734375
    },
    {
      "instrumentId": 1,
      "instrumentName": "Instrument_1",
      "isPercussion": false,
      "pitch": 54,
      "velocity": 96,
      "startTime": 139.5,
      "duration": 0.17734375000000568,
      "endTime": 139.67734375
    },
    {
      "instrumentId": 1,
      "instrumentName": "Instrument_1",
      "isPercussion": false,
      "pitch": 61,
      "velocity": 96,
      "startTime": 139.5,
      "duration": 0.17734375000000568,
      "endTime": 139.67734375
    },
    {
      "instrumentId": 0,
      "instrumentName": "Instrument_0",
      "isPercussion": false,
      "pitch": 76,
      "velocity": 96,
      "startTime": 139.6875,
      "duration": 0.17734375000000568,
      "endTime": 139.86484375
    },
    {
      "instrumentId": 0,
      "instrumentName": "Instrument_0",
      "isPercussion": false,
      "pitch": 73,
      "velocity": 96,
      "startTime": 139.875,
      "duration": 0.35546875,
      "endTime": 140.23046875
    },
    {
      "instrumentId": 0,
      "instrumentName": "Instrument_0",
      "isPercussion": false,
      "pitch": 76,
      "velocity": 96,
      "startTime": 139.875,
      "duration": 0.35546875,
      "endTime": 140.23046875
    },
    {
      "instrumentId": 1,
      "instrumentName": "Instrument_1",
      "isPercussion": false,
      "pitch": 54,
      "velocity": 96,
      "startTime": 140.0625,
      "duration": 0.17734375000000568,
      "endTime": 140.23984375
    },
    {
      "instrumentId": 1,
      "instrumentName": "Instrument_1",
      "isPercussion": false,
      "pitch": 64,
      "velocity": 96,
      "startTime": 140.0625,
      "duration": 0.17734375000000568,
      "endTime": 140.23984375
    },
    {
      "instrumentId": 0,
      "instrumentName": "Instrument_0",
      "isPercussion": false,
      "pitch": 68,
      "velocity": 96,
      "startTime": 140.25,
      "duration": 0.711718750000017,
      "endTime": 140.96171875000002
    },
    {
      "instrumentId": 0,
      "instrumentName": "Instrument_0",
      "isPercussion": false,
      "pitch": 73,
      "velocity": 96,
      "startTime": 140.25,
      "duration": 0.711718750000017,
      "endTime": 140.96171875000002
    },
    {
      "instrumentId": 1,
      "instrumentName": "Instrument_1",
      "isPercussion": false,
      "pitch": 54,
      "velocity": 96,
      "startTime": 140.625,
      "duration": 0.17734375000000568,
      "endTime": 140.80234375
    },
    {
      "instrumentId": 1,
      "instrumentName": "Instrument_1",
      "isPercussion": false,
      "pitch": 61,
      "velocity": 96,
      "startTime": 140.625,
      "duration": 0.17734375000000568,
      "endTime": 140.80234375
    },
    {
      "instrumentId": 0,
      "instrumentName": "Instrument_0",
      "isPercussion": false,
      "pitch": 76,
      "velocity": 96,
      "startTime": 141.0,
      "duration": 0.17734375000000568,
      "endTime": 141.17734375
    },
    {
      "instrumentId": 1,
      "instrumentName": "Instrument_1",
      "isPercussion": false,
      "pitch": 57,
      "velocity": 96,
      "startTime": 141.0,
      "duration": 0.17734375000000568,
      "endTime": 141.17734375
    },
    {
      "instrumentId": 1,
      "instrumentName": "Instrument_1",
      "isPercussion": false,
      "pitch": 61,
      "velocity": 96,
      "startTime": 141.0,
      "duration": 0.17734375000000568,
      "endTime": 141.17734375
    },
    {
      "instrumentId": 0,
      "instrumentName": "Instrument_0",
      "isPercussion": false,
      "pitch": 75,
      "velocity": 96,
      "startTime": 141.1875,
      "duration": 0.35546875,
      "endTime": 141.54296875
    },
    {
      "instrumentId": 0,
      "instrumentName": "Instrument_0",
      "isPercussion": false,
      "pitch": 78,
      "velocity": 96,
      "startTime": 141.1875,
      "duration": 0.35546875,
      "endTime": 141.54296875
    },
    {
      "instrumentId": 0,
      "instrumentName": "Instrument_0",
      "isPercussion": false,
      "pitch": 80,
      "velocity": 96,
      "startTime": 141.5625,
      "duration": 0.17734375000000568,
      "endTime": 141.73984375
    },
    {
      "instrumentId": 1,
      "instrumentName": "Instrument_1",
      "isPercussion": false,
      "pitch": 57,
      "velocity": 96,
      "startTime": 141.5625,
      "duration": 0.17734375000000568,
      "endTime": 141.73984375
    },
    {
      "instrumentId": 1,
      "instrumentName": "Instrument_1",
      "isPercussion": false,
      "pitch": 64,
      "velocity": 96,
      "startTime": 141.5625,
      "duration": 0.17734375000000568,
      "endTime": 141.73984375
    },
    {
      "instrumentId": 0,
      "instrumentName": "Instrument_0",
      "isPercussion": false,
      "pitch": 75,
      "velocity": 96,
      "startTime": 141.75,
      "duration": 0.35546875,
      "endTime": 142.10546875
    },
    {
      "instrumentId": 0,
      "instrumentName": "Instrument_0",
      "isPercussion": false,
      "pitch": 78,
      "velocity": 96,
      "startTime": 141.75,
      "duration": 0.35546875,
      "endTime": 142.10546875
    },
    {
      "instrumentId": 0,
      "instrumentName": "Instrument_0",
      "isPercussion": false,
      "pitch": 73,
      "velocity": 96,
      "startTime": 142.125,
      "duration": 0.35546875,
      "endTime": 142.48046875
    },
    {
      "instrumentId": 0,
      "instrumentName": "Instrument_0",
      "isPercussion": false,
      "pitch": 76,
      "velocity": 96,
      "startTime": 142.125,
      "duration": 0.35546875,
      "endTime": 142.48046875
    },
    {
      "instrumentId": 1,
      "instrumentName": "Instrument_1",
      "isPercussion": false,
      "pitch": 57,
      "velocity": 96,
      "startTime": 142.125,
      "duration": 0.17734375000000568,
      "endTime": 142.30234375
    },
    {
      "instrumentId": 1,
      "instrumentName": "Instrument_1",
      "isPercussion": false,
      "pitch": 61,
      "velocity": 96,
      "startTime": 142.125,
      "duration": 0.17734375000000568,
      "endTime": 142.30234375
    },
    {
      "instrumentId": 0,
      "instrumentName": "Instrument_0",
      "isPercussion": false,
      "pitch": 75,
      "velocity": 96,
      "startTime": 142.5,
      "duration": 0.35546875,
      "endTime": 142.85546875
    },
    {
      "instrumentId": 0,
      "instrumentName": "Instrument_0",
      "isPercussion": false,
      "pitch": 78,
      "velocity": 96,
      "startTime": 142.5,
      "duration": 0.35546875,
      "endTime": 142.85546875
    },
    {
      "instrumentId": 1,
      "instrumentName": "Instrument_1",
      "isPercussion": false,
      "pitch": 54,
      "velocity": 96,
      "startTime": 142.5,
      "duration": 0.17734375000000568,
      "endTime": 142.67734375
    },
    {
      "instrumentId": 1,
      "instrumentName": "Instrument_1",
      "isPercussion": false,
      "pitch": 59,
      "velocity": 96,
      "startTime": 142.5,
      "duration": 0.17734375000000568,
      "endTime": 142.67734375
    },
    {
      "instrumentId": 1,
      "instrumentName": "Instrument_1",
      "isPercussion": false,
      "pitch": 63,
      "velocity": 96,
      "startTime": 142.5,
      "duration": 0.17734375000000568,
      "endTime": 142.67734375
    },
    {
      "instrumentId": 0,
      "instrumentName": "Instrument_0",
      "isPercussion": false,
      "pitch": 73,
      "velocity": 96,
      "startTime": 142.875,
      "duration": 0.35546875,
      "endTime": 143.23046875
    },
    {
      "instrumentId": 0,
      "instrumentName": "Instrument_0",
      "isPercussion": false,
      "pitch": 76,
      "velocity": 96,
      "startTime": 142.875,
      "duration": 0.35546875,
      "endTime": 143.23046875
    },
    {
      "instrumentId": 1,
      "instrumentName": "Instrument_1",
      "isPercussion": false,
      "pitch": 54,
      "velocity": 96,
      "startTime": 143.0625,
      "duration": 0.17734375000000568,
      "endTime": 143.23984375
    },
    {
      "instrumentId": 1,
      "instrumentName": "Instrument_1",
      "isPercussion": false,
      "pitch": 59,
      "velocity": 96,
      "startTime": 143.0625,
      "duration": 0.17734375000000568,
      "endTime": 143.23984375
    },
    {
      "instrumentId": 1,
      "instrumentName": "Instrument_1",
      "isPercussion": false,
      "pitch": 61,
      "velocity": 96,
      "startTime": 143.0625,
      "duration": 0.17734375000000568,
      "endTime": 143.23984375
    },
    {
      "instrumentId": 0,
      "instrumentName": "Instrument_0",
      "isPercussion": false,
      "pitch": 68,
      "velocity": 96,
      "startTime": 143.25,
      "duration": 0.35546875,
      "endTime": 143.60546875
    },
    {
      "instrumentId": 0,
      "instrumentName": "Instrument_0",
      "isPercussion": false,
      "pitch": 73,
      "velocity": 96,
      "startTime": 143.25,
      "duration": 0.35546875,
      "endTime": 143.60546875
    },
    {
      "instrumentId": 0,
      "instrumentName": "Instrument_0",
      "isPercussion": false,
      "pitch": 68,
      "velocity": 96,
      "startTime": 143.625,
      "duration": 0.35546875,
      "endTime": 143.98046875
    },
    {
      "instrumentId": 0,
      "instrumentName": "Instrument_0",
      "isPercussion": false,
      "pitch": 73,
      "velocity": 96,
      "startTime": 143.625,
      "duration": 0.35546875,
      "endTime": 143.98046875
    },
    {
      "instrumentId": 1,
      "instrumentName": "Instrument_1",
      "isPercussion": false,
      "pitch": 54,
      "velocity": 96,
      "startTime": 143.625,
      "duration": 0.17734375000000568,
      "endTime": 143.80234375
    },
    {
      "instrumentId": 1,
      "instrumentName": "Instrument_1",
      "isPercussion": false,
      "pitch": 59,
      "velocity": 96,
      "startTime": 143.625,
      "duration": 0.17734375000000568,
      "endTime": 143.80234375
    },
    {
      "instrumentId": 0,
      "instrumentName": "Instrument_0",
      "isPercussion": false,
      "pitch": 68,
      "velocity": 96,
      "startTime": 144.0,
      "duration": 0.711718750000017,
      "endTime": 144.71171875000002
    },
    {
      "instrumentId": 0,
      "instrumentName": "Instrument_0",
      "isPercussion": false,
      "pitch": 73,
      "velocity": 96,
      "startTime": 144.0,
      "duration": 0.711718750000017,
      "endTime": 144.71171875000002
    },
    {
      "instrumentId": 1,
      "instrumentName": "Instrument_1",
      "isPercussion": false,
      "pitch": 56,
      "velocity": 96,
      "startTime": 144.0,
      "duration": 0.17734375000000568,
      "endTime": 144.17734375
    },
    {
      "instrumentId": 1,
      "instrumentName": "Instrument_1",
      "isPercussion": false,
      "pitch": 61,
      "velocity": 96,
      "startTime": 144.0,
      "duration": 0.17734375000000568,
      "endTime": 144.17734375
    },
    {
      "instrumentId": 1,
      "instrumentName": "Instrument_1",
      "isPercussion": false,
      "pitch": 56,
      "velocity": 96,
      "startTime": 144.5625,
      "duration": 0.17734375000000568,
      "endTime": 144.73984375
    },
    {
      "instrumentId": 1,
      "instrumentName": "Instrument_1",
      "isPercussion": false,
      "pitch": 64,
      "velocity": 96,
      "startTime": 144.5625,
      "duration": 0.17734375000000568,
      "endTime": 144.73984375
    },
    {
      "instrumentId": 0,
      "instrumentName": "Instrument_0",
      "isPercussion": false,
      "pitch": 68,
      "velocity": 96,
      "startTime": 144.75,
      "duration": 0.35546875,
      "endTime": 145.10546875
    },
    {
      "instrumentId": 0,
      "instrumentName": "Instrument_0",
      "isPercussion": false,
      "pitch": 73,
      "velocity": 96,
      "startTime": 144.75,
      "duration": 0.35546875,
      "endTime": 145.10546875
    },
    {
      "instrumentId": 0,
      "instrumentName": "Instrument_0",
      "isPercussion": false,
      "pitch": 68,
      "velocity": 96,
      "startTime": 145.125,
      "duration": 0.35546875,
      "endTime": 145.48046875
    },
    {
      "instrumentId": 0,
      "instrumentName": "Instrument_0",
      "isPercussion": false,
      "pitch": 71,
      "velocity": 96,
      "startTime": 145.125,
      "duration": 0.35546875,
      "endTime": 145.48046875
    },
    {
      "instrumentId": 1,
      "instrumentName": "Instrument_1",
      "isPercussion": false,
      "pitch": 56,
      "velocity": 96,
      "startTime": 145.125,
      "duration": 0.17734375000000568,
      "endTime": 145.30234375
    },
    {
      "instrumentId": 1,
      "instrumentName": "Instrument_1",
      "isPercussion": false,
      "pitch": 61,
      "velocity": 96,
      "startTime": 145.125,
      "duration": 0.17734375000000568,
      "endTime": 145.30234375
    },
    {
      "instrumentId": 0,
      "instrumentName": "Instrument_0",
      "isPercussion": false,
      "pitch": 68,
      "velocity": 96,
      "startTime": 145.5,
      "duration": 0.35546875,
      "endTime": 145.85546875
    },
    {
      "instrumentId": 0,
      "instrumentName": "Instrument_0",
      "isPercussion": false,
      "pitch": 73,
      "velocity": 96,
      "startTime": 145.5,
      "duration": 0.35546875,
      "endTime": 145.85546875
    },
    {
      "instrumentId": 1,
      "instrumentName": "Instrument_1",
      "isPercussion": false,
      "pitch": 54,
      "velocity": 96,
      "startTime": 145.5,
      "duration": 0.17734375000000568,
      "endTime": 145.67734375
    },
    {
      "instrumentId": 1,
      "instrumentName": "Instrument_1",
      "isPercussion": false,
      "pitch": 61,
      "velocity": 96,
      "startTime": 145.5,
      "duration": 0.17734375000000568,
      "endTime": 145.67734375
    },
    {
      "instrumentId": 0,
      "instrumentName": "Instrument_0",
      "isPercussion": false,
      "pitch": 76,
      "velocity": 96,
      "startTime": 145.875,
      "duration": 0.35546875,
      "endTime": 146.23046875
    },
    {
      "instrumentId": 0,
      "instrumentName": "Instrument_0",
      "isPercussion": false,
      "pitch": 80,
      "velocity": 96,
      "startTime": 145.875,
      "duration": 0.35546875,
      "endTime": 146.23046875
    },
    {
      "instrumentId": 1,
      "instrumentName": "Instrument_1",
      "isPercussion": false,
      "pitch": 54,
      "velocity": 96,
      "startTime": 146.0625,
      "duration": 0.17734375000000568,
      "endTime": 146.23984375
    },
    {
      "instrumentId": 1,
      "instrumentName": "Instrument_1",
      "isPercussion": false,
      "pitch": 64,
      "velocity": 96,
      "startTime": 146.0625,
      "duration": 0.17734375000000568,
      "endTime": 146.23984375
    },
    {
      "instrumentId": 0,
      "instrumentName": "Instrument_0",
      "isPercussion": false,
      "pitch": 75,
      "velocity": 96,
      "startTime": 146.25,
      "duration": 0.711718750000017,
      "endTime": 146.96171875000002
    },
    {
      "instrumentId": 0,
      "instrumentName": "Instrument_0",
      "isPercussion": false,
      "pitch": 78,
      "velocity": 96,
      "startTime": 146.25,
      "duration": 0.711718750000017,
      "endTime": 146.96171875000002
    },
    {
      "instrumentId": 1,
      "instrumentName": "Instrument_1",
      "isPercussion": false,
      "pitch": 54,
      "velocity": 96,
      "startTime": 146.625,
      "duration": 0.17734375000000568,
      "endTime": 146.80234375
    },
    {
      "instrumentId": 1,
      "instrumentName": "Instrument_1",
      "isPercussion": false,
      "pitch": 61,
      "velocity": 96,
      "startTime": 146.625,
      "duration": 0.17734375000000568,
      "endTime": 146.80234375
    },
    {
      "instrumentId": 0,
      "instrumentName": "Instrument_0",
      "isPercussion": false,
      "pitch": 76,
      "velocity": 96,
      "startTime": 147.0,
      "duration": 0.17734375000000568,
      "endTime": 147.17734375
    },
    {
      "instrumentId": 1,
      "instrumentName": "Instrument_1",
      "isPercussion": false,
      "pitch": 57,
      "velocity": 96,
      "startTime": 147.0,
      "duration": 0.17734375000000568,
      "endTime": 147.17734375
    },
    {
      "instrumentId": 1,
      "instrumentName": "Instrument_1",
      "isPercussion": false,
      "pitch": 61,
      "velocity": 96,
      "startTime": 147.0,
      "duration": 0.17734375000000568,
      "endTime": 147.17734375
    },
    {
      "instrumentId": 0,
      "instrumentName": "Instrument_0",
      "isPercussion": false,
      "pitch": 75,
      "velocity": 96,
      "startTime": 147.1875,
      "duration": 0.35546875,
      "endTime": 147.54296875
    },
    {
      "instrumentId": 0,
      "instrumentName": "Instrument_0",
      "isPercussion": false,
      "pitch": 78,
      "velocity": 96,
      "startTime": 147.1875,
      "duration": 0.35546875,
      "endTime": 147.54296875
    },
    {
      "instrumentId": 0,
      "instrumentName": "Instrument_0",
      "isPercussion": false,
      "pitch": 80,
      "velocity": 96,
      "startTime": 147.5625,
      "duration": 0.17734375000000568,
      "endTime": 147.73984375
    },
    {
      "instrumentId": 1,
      "instrumentName": "Instrument_1",
      "isPercussion": false,
      "pitch": 57,
      "velocity": 96,
      "startTime": 147.5625,
      "duration": 0.17734375000000568,
      "endTime": 147.73984375
    },
    {
      "instrumentId": 1,
      "instrumentName": "Instrument_1",
      "isPercussion": false,
      "pitch": 64,
      "velocity": 96,
      "startTime": 147.5625,
      "duration": 0.17734375000000568,
      "endTime": 147.73984375
    },
    {
      "instrumentId": 0,
      "instrumentName": "Instrument_0",
      "isPercussion": false,
      "pitch": 75,
      "velocity": 96,
      "startTime": 147.75,
      "duration": 0.35546875,
      "endTime": 148.10546875
    },
    {
      "instrumentId": 0,
      "instrumentName": "Instrument_0",
      "isPercussion": false,
      "pitch": 78,
      "velocity": 96,
      "startTime": 147.75,
      "duration": 0.35546875,
      "endTime": 148.10546875
    },
    {
      "instrumentId": 0,
      "instrumentName": "Instrument_0",
      "isPercussion": false,
      "pitch": 73,
      "velocity": 96,
      "startTime": 148.125,
      "duration": 0.35546875,
      "endTime": 148.48046875
    },
    {
      "instrumentId": 0,
      "instrumentName": "Instrument_0",
      "isPercussion": false,
      "pitch": 76,
      "velocity": 96,
      "startTime": 148.125,
      "duration": 0.35546875,
      "endTime": 148.48046875
    },
    {
      "instrumentId": 1,
      "instrumentName": "Instrument_1",
      "isPercussion": false,
      "pitch": 57,
      "velocity": 96,
      "startTime": 148.125,
      "duration": 0.17734375000000568,
      "endTime": 148.30234375
    },
    {
      "instrumentId": 1,
      "instrumentName": "Instrument_1",
      "isPercussion": false,
      "pitch": 61,
      "velocity": 96,
      "startTime": 148.125,
      "duration": 0.17734375000000568,
      "endTime": 148.30234375
    },
    {
      "instrumentId": 0,
      "instrumentName": "Instrument_0",
      "isPercussion": false,
      "pitch": 68,
      "velocity": 96,
      "startTime": 148.5,
      "duration": 0.35546875,
      "endTime": 148.85546875
    },
    {
      "instrumentId": 0,
      "instrumentName": "Instrument_0",
      "isPercussion": false,
      "pitch": 73,
      "velocity": 96,
      "startTime": 148.5,
      "duration": 0.35546875,
      "endTime": 148.85546875
    },
    {
      "instrumentId": 1,
      "instrumentName": "Instrument_1",
      "isPercussion": false,
      "pitch": 54,
      "velocity": 96,
      "startTime": 148.5,
      "duration": 0.17734375000000568,
      "endTime": 148.67734375
    },
    {
      "instrumentId": 1,
      "instrumentName": "Instrument_1",
      "isPercussion": false,
      "pitch": 59,
      "velocity": 96,
      "startTime": 148.5,
      "duration": 0.17734375000000568,
      "endTime": 148.67734375
    },
    {
      "instrumentId": 1,
      "instrumentName": "Instrument_1",
      "isPercussion": false,
      "pitch": 63,
      "velocity": 96,
      "startTime": 148.5,
      "duration": 0.17734375000000568,
      "endTime": 148.67734375
    },
    {
      "instrumentId": 0,
      "instrumentName": "Instrument_0",
      "isPercussion": false,
      "pitch": 73,
      "velocity": 96,
      "startTime": 148.875,
      "duration": 0.35546875,
      "endTime": 149.23046875
    },
    {
      "instrumentId": 0,
      "instrumentName": "Instrument_0",
      "isPercussion": false,
      "pitch": 76,
      "velocity": 96,
      "startTime": 148.875,
      "duration": 0.35546875,
      "endTime": 149.23046875
    },
    {
      "instrumentId": 1,
      "instrumentName": "Instrument_1",
      "isPercussion": false,
      "pitch": 54,
      "velocity": 96,
      "startTime": 149.0625,
      "duration": 0.17734375000000568,
      "endTime": 149.23984375
    },
    {
      "instrumentId": 1,
      "instrumentName": "Instrument_1",
      "isPercussion": false,
      "pitch": 59,
      "velocity": 96,
      "startTime": 149.0625,
      "duration": 0.17734375000000568,
      "endTime": 149.23984375
    },
    {
      "instrumentId": 1,
      "instrumentName": "Instrument_1",
      "isPercussion": false,
      "pitch": 61,
      "velocity": 96,
      "startTime": 149.0625,
      "duration": 0.17734375000000568,
      "endTime": 149.23984375
    },
    {
      "instrumentId": 0,
      "instrumentName": "Instrument_0",
      "isPercussion": false,
      "pitch": 80,
      "velocity": 96,
      "startTime": 149.25,
      "duration": 0.17734375000000568,
      "endTime": 149.42734375
    },
    {
      "instrumentId": 0,
      "instrumentName": "Instrument_0",
      "isPercussion": false,
      "pitch": 78,
      "velocity": 96,
      "startTime": 149.4375,
      "duration": 0.17734375000000568,
      "endTime": 149.61484375
    },
    {
      "instrumentId": 0,
      "instrumentName": "Instrument_0",
      "isPercussion": false,
      "pitch": 75,
      "velocity": 96,
      "startTime": 149.625,
      "duration": 0.35546875,
      "endTime": 149.98046875
    },
    {
      "instrumentId": 0,
      "instrumentName": "Instrument_0",
      "isPercussion": false,
      "pitch": 78,
      "velocity": 96,
      "startTime": 149.625,
      "duration": 0.35546875,
      "endTime": 149.98046875
    },
    {
      "instrumentId": 1,
      "instrumentName": "Instrument_1",
      "isPercussion": false,
      "pitch": 54,
      "velocity": 96,
      "startTime": 149.625,
      "duration": 0.17734375000000568,
      "endTime": 149.80234375
    },
    {
      "instrumentId": 1,
      "instrumentName": "Instrument_1",
      "isPercussion": false,
      "pitch": 59,
      "velocity": 96,
      "startTime": 149.625,
      "duration": 0.17734375000000568,
      "endTime": 149.80234375
    },
    {
      "instrumentId": 0,
      "instrumentName": "Instrument_0",
      "isPercussion": false,
      "pitch": 68,
      "velocity": 96,
      "startTime": 150.0,
      "duration": 0.711718750000017,
      "endTime": 150.71171875000002
    },
    {
      "instrumentId": 0,
      "instrumentName": "Instrument_0",
      "isPercussion": false,
      "pitch": 73,
      "velocity": 96,
      "startTime": 150.0,
      "duration": 0.711718750000017,
      "endTime": 150.71171875000002
    },
    {
      "instrumentId": 1,
      "instrumentName": "Instrument_1",
      "isPercussion": false,
      "pitch": 56,
      "velocity": 96,
      "startTime": 150.0,
      "duration": 0.17734375000000568,
      "endTime": 150.17734375
    },
    {
      "instrumentId": 1,
      "instrumentName": "Instrument_1",
      "isPercussion": false,
      "pitch": 61,
      "velocity": 96,
      "startTime": 150.0,
      "duration": 0.17734375000000568,
      "endTime": 150.17734375
    },
    {
      "instrumentId": 1,
      "instrumentName": "Instrument_1",
      "isPercussion": false,
      "pitch": 56,
      "velocity": 96,
      "startTime": 150.5625,
      "duration": 0.17734375000000568,
      "endTime": 150.73984375
    },
    {
      "instrumentId": 1,
      "instrumentName": "Instrument_1",
      "isPercussion": false,
      "pitch": 64,
      "velocity": 96,
      "startTime": 150.5625,
      "duration": 0.17734375000000568,
      "endTime": 150.73984375
    },
    {
      "instrumentId": 0,
      "instrumentName": "Instrument_0",
      "isPercussion": false,
      "pitch": 83,
      "velocity": 96,
      "startTime": 150.75,
      "duration": 0.17734375000000568,
      "endTime": 150.92734375
    },
    {
      "instrumentId": 0,
      "instrumentName": "Instrument_0",
      "isPercussion": false,
      "pitch": 78,
      "velocity": 96,
      "startTime": 150.9375,
      "duration": 0.17734375000000568,
      "endTime": 151.11484375
    },
    {
      "instrumentId": 0,
      "instrumentName": "Instrument_0",
      "isPercussion": false,
      "pitch": 76,
      "velocity": 96,
      "startTime": 151.125,
      "duration": 0.35546875,
      "endTime": 151.48046875
    },
    {
      "instrumentId": 0,
      "instrumentName": "Instrument_0",
      "isPercussion": false,
      "pitch": 80,
      "velocity": 96,
      "startTime": 151.125,
      "duration": 0.35546875,
      "endTime": 151.48046875
    },
    {
      "instrumentId": 1,
      "instrumentName": "Instrument_1",
      "isPercussion": false,
      "pitch": 56,
      "velocity": 96,
      "startTime": 151.125,
      "duration": 0.17734375000000568,
      "endTime": 151.30234375
    },
    {
      "instrumentId": 1,
      "instrumentName": "Instrument_1",
      "isPercussion": false,
      "pitch": 61,
      "velocity": 96,
      "startTime": 151.125,
      "duration": 0.17734375000000568,
      "endTime": 151.30234375
    },
    {
      "instrumentId": 0,
      "instrumentName": "Instrument_0",
      "isPercussion": false,
      "pitch": 78,
      "velocity": 96,
      "startTime": 151.5,
      "duration": 0.17734375000000568,
      "endTime": 151.67734375
    },
    {
      "instrumentId": 1,
      "instrumentName": "Instrument_1",
      "isPercussion": false,
      "pitch": 54,
      "velocity": 96,
      "startTime": 151.5,
      "duration": 0.17734375000000568,
      "endTime": 151.67734375
    },
    {
      "instrumentId": 1,
      "instrumentName": "Instrument_1",
      "isPercussion": false,
      "pitch": 61,
      "velocity": 96,
      "startTime": 151.5,
      "duration": 0.17734375000000568,
      "endTime": 151.67734375
    },
    {
      "instrumentId": 0,
      "instrumentName": "Instrument_0",
      "isPercussion": false,
      "pitch": 76,
      "velocity": 96,
      "startTime": 151.6875,
      "duration": 0.17734375000000568,
      "endTime": 151.86484375
    },
    {
      "instrumentId": 0,
      "instrumentName": "Instrument_0",
      "isPercussion": false,
      "pitch": 73,
      "velocity": 96,
      "startTime": 151.875,
      "duration": 0.35546875,
      "endTime": 152.23046875
    },
    {
      "instrumentId": 0,
      "instrumentName": "Instrument_0",
      "isPercussion": false,
      "pitch": 76,
      "velocity": 96,
      "startTime": 151.875,
      "duration": 0.35546875,
      "endTime": 152.23046875
    },
    {
      "instrumentId": 1,
      "instrumentName": "Instrument_1",
      "isPercussion": false,
      "pitch": 54,
      "velocity": 96,
      "startTime": 152.0625,
      "duration": 0.17734375000000568,
      "endTime": 152.23984375
    },
    {
      "instrumentId": 1,
      "instrumentName": "Instrument_1",
      "isPercussion": false,
      "pitch": 64,
      "velocity": 96,
      "startTime": 152.0625,
      "duration": 0.17734375000000568,
      "endTime": 152.23984375
    },
    {
      "instrumentId": 0,
      "instrumentName": "Instrument_0",
      "isPercussion": false,
      "pitch": 68,
      "velocity": 96,
      "startTime": 152.25,
      "duration": 0.35546875,
      "endTime": 152.60546875
    },
    {
      "instrumentId": 0,
      "instrumentName": "Instrument_0",
      "isPercussion": false,
      "pitch": 73,
      "velocity": 96,
      "startTime": 152.25,
      "duration": 0.35546875,
      "endTime": 152.60546875
    },
    {
      "instrumentId": 0,
      "instrumentName": "Instrument_0",
      "isPercussion": false,
      "pitch": 68,
      "velocity": 96,
      "startTime": 152.625,
      "duration": 0.35546875,
      "endTime": 152.98046875
    },
    {
      "instrumentId": 0,
      "instrumentName": "Instrument_0",
      "isPercussion": false,
      "pitch": 73,
      "velocity": 96,
      "startTime": 152.625,
      "duration": 0.35546875,
      "endTime": 152.98046875
    },
    {
      "instrumentId": 1,
      "instrumentName": "Instrument_1",
      "isPercussion": false,
      "pitch": 54,
      "velocity": 96,
      "startTime": 152.625,
      "duration": 0.17734375000000568,
      "endTime": 152.80234375
    },
    {
      "instrumentId": 1,
      "instrumentName": "Instrument_1",
      "isPercussion": false,
      "pitch": 61,
      "velocity": 96,
      "startTime": 152.625,
      "duration": 0.17734375000000568,
      "endTime": 152.80234375
    },
    {
      "instrumentId": 0,
      "instrumentName": "Instrument_0",
      "isPercussion": false,
      "pitch": 83,
      "velocity": 96,
      "startTime": 153.0,
      "duration": 0.17734375000000568,
      "endTime": 153.17734375
    },
    {
      "instrumentId": 1,
      "instrumentName": "Instrument_1",
      "isPercussion": false,
      "pitch": 57,
      "velocity": 96,
      "startTime": 153.0,
      "duration": 0.17734375000000568,
      "endTime": 153.17734375
    },
    {
      "instrumentId": 1,
      "instrumentName": "Instrument_1",
      "isPercussion": false,
      "pitch": 61,
      "velocity": 96,
      "startTime": 153.0,
      "duration": 0.17734375000000568,
      "endTime": 153.17734375
    },
    {
      "instrumentId": 0,
      "instrumentName": "Instrument_0",
      "isPercussion": false,
      "pitch": 78,
      "velocity": 96,
      "startTime": 153.1875,
      "duration": 0.17734375000000568,
      "endTime": 153.36484375
    },
    {
      "instrumentId": 0,
      "instrumentName": "Instrument_0",
      "isPercussion": false,
      "pitch": 76,
      "velocity": 96,
      "startTime": 153.375,
      "duration": 0.35546875,
      "endTime": 153.73046875
    },
    {
      "instrumentId": 0,
      "instrumentName": "Instrument_0",
      "isPercussion": false,
      "pitch": 80,
      "velocity": 96,
      "startTime": 153.375,
      "duration": 0.35546875,
      "endTime": 153.73046875
    },
    {
      "instrumentId": 0,
      "instrumentName": "Instrument_0",
      "isPercussion": false,
      "pitch": 78,
      "velocity": 96,
      "startTime": 153.75,
      "duration": 0.17734375000000568,
      "endTime": 153.92734375
    },
    {
      "instrumentId": 0,
      "instrumentName": "Instrument_0",
      "isPercussion": false,
      "pitch": 76,
      "velocity": 96,
      "startTime": 153.9375,
      "duration": 0.17734375000000568,
      "endTime": 154.11484375
    },
    {
      "instrumentId": 0,
      "instrumentName": "Instrument_0",
      "isPercussion": false,
      "pitch": 73,
      "velocity": 96,
      "startTime": 154.125,
      "duration": 0.35546875,
      "endTime": 154.48046875
    },
    {
      "instrumentId": 0,
      "instrumentName": "Instrument_0",
      "isPercussion": false,
      "pitch": 76,
      "velocity": 96,
      "startTime": 154.125,
      "duration": 0.35546875,
      "endTime": 154.48046875
    },
    {
      "instrumentId": 0,
      "instrumentName": "Instrument_0",
      "isPercussion": false,
      "pitch": 68,
      "velocity": 96,
      "startTime": 154.5,
      "duration": 0.35546875,
      "endTime": 154.85546875
    },
    {
      "instrumentId": 0,
      "instrumentName": "Instrument_0",
      "isPercussion": false,
      "pitch": 73,
      "velocity": 96,
      "startTime": 154.5,
      "duration": 0.35546875,
      "endTime": 154.85546875
    },
    {
      "instrumentId": 0,
      "instrumentName": "Instrument_0",
      "isPercussion": false,
      "pitch": 64,
      "velocity": 88,
      "startTime": 154.875,
      "duration": 0.35546875,
      "endTime": 155.23046875
    },
    {
      "instrumentId": 0,
      "instrumentName": "Instrument_0",
      "isPercussion": false,
      "pitch": 68,
      "velocity": 88,
      "startTime": 154.875,
      "duration": 0.35546875,
      "endTime": 155.23046875
    },
    {
      "instrumentId": 0,
      "instrumentName": "Instrument_0",
      "isPercussion": false,
      "pitch": 68,
      "velocity": 80,
      "startTime": 155.25,
      "duration": 0.35546875,
      "endTime": 155.60546875
    },
    {
      "instrumentId": 0,
      "instrumentName": "Instrument_0",
      "isPercussion": false,
      "pitch": 71,
      "velocity": 80,
      "startTime": 155.25,
      "duration": 0.35546875,
      "endTime": 155.60546875
    },
    {
      "instrumentId": 0,
      "instrumentName": "Instrument_0",
      "isPercussion": false,
      "pitch": 68,
      "velocity": 72,
      "startTime": 155.625,
      "duration": 1.4242187500000227,
      "endTime": 157.04921875000002
    },
    {
      "instrumentId": 0,
      "instrumentName": "Instrument_0",
      "isPercussion": false,
      "pitch": 73,
      "velocity": 72,
      "startTime": 155.625,
      "duration": 1.4242187500000227,
      "endTime": 157.04921875000002
    },
    {
      "instrumentId": 1,
      "instrumentName": "Instrument_1",
      "isPercussion": false,
      "pitch": 56,
      "velocity": 64,
      "startTime": 156.0,
      "duration": 0.17734375000000568,
      "endTime": 156.17734375
    },
    {
      "instrumentId": 1,
      "instrumentName": "Instrument_1",
      "isPercussion": false,
      "pitch": 61,
      "velocity": 64,
      "startTime": 156.0,
      "duration": 0.17734375000000568,
      "endTime": 156.17734375
    },
    {
      "instrumentId": 1,
      "instrumentName": "Instrument_1",
      "isPercussion": false,
      "pitch": 56,
      "velocity": 64,
      "startTime": 156.5625,
      "duration": 0.17734375000000568,
      "endTime": 156.73984375
    },
    {
      "instrumentId": 1,
      "instrumentName": "Instrument_1",
      "isPercussion": false,
      "pitch": 64,
      "velocity": 64,
      "startTime": 156.5625,
      "duration": 0.17734375000000568,
      "endTime": 156.73984375
    },
    {
      "instrumentId": 0,
      "instrumentName": "Instrument_0",
      "isPercussion": false,
      "pitch": 76,
      "velocity": 64,
      "startTime": 157.125,
      "duration": 0.17734375000000568,
      "endTime": 157.30234375
    },
    {
      "instrumentId": 1,
      "instrumentName": "Instrument_1",
      "isPercussion": false,
      "pitch": 56,
      "velocity": 64,
      "startTime": 157.125,
      "duration": 0.17734375000000568,
      "endTime": 157.30234375
    },
    {
      "instrumentId": 1,
      "instrumentName": "Instrument_1",
      "isPercussion": false,
      "pitch": 61,
      "velocity": 64,
      "startTime": 157.125,
      "duration": 0.17734375000000568,
      "endTime": 157.30234375
    },
    {
      "instrumentId": 0,
      "instrumentName": "Instrument_0",
      "isPercussion": false,
      "pitch": 78,
      "velocity": 64,
      "startTime": 157.3125,
      "duration": 0.17734375000000568,
      "endTime": 157.48984375
    },
    {
      "instrumentId": 0,
      "instrumentName": "Instrument_0",
      "isPercussion": false,
      "pitch": 76,
      "velocity": 64,
      "startTime": 157.5,
      "duration": 0.35546875,
      "endTime": 157.85546875
    },
    {
      "instrumentId": 0,
      "instrumentName": "Instrument_0",
      "isPercussion": false,
      "pitch": 80,
      "velocity": 64,
      "startTime": 157.5,
      "duration": 0.35546875,
      "endTime": 157.85546875
    },
    {
      "instrumentId": 1,
      "instrumentName": "Instrument_1",
      "isPercussion": false,
      "pitch": 54,
      "velocity": 64,
      "startTime": 157.5,
      "duration": 0.17734375000000568,
      "endTime": 157.67734375
    },
    {
      "instrumentId": 1,
      "instrumentName": "Instrument_1",
      "isPercussion": false,
      "pitch": 61,
      "velocity": 64,
      "startTime": 157.5,
      "duration": 0.17734375000000568,
      "endTime": 157.67734375
    },
    {
      "instrumentId": 0,
      "instrumentName": "Instrument_0",
      "isPercussion": false,
      "pitch": 78,
      "velocity": 64,
      "startTime": 157.875,
      "duration": 0.17734375000000568,
      "endTime": 158.05234375
    },
    {
      "instrumentId": 0,
      "instrumentName": "Instrument_0",
      "isPercussion": false,
      "pitch": 76,
      "velocity": 64,
      "startTime": 158.0625,
      "duration": 0.17734375000000568,
      "endTime": 158.23984375
    },
    {
      "instrumentId": 1,
      "instrumentName": "Instrument_1",
      "isPercussion": false,
      "pitch": 54,
      "velocity": 64,
      "startTime": 158.0625,
      "duration": 0.17734375000000568,
      "endTime": 158.23984375
    },
    {
      "instrumentId": 1,
      "instrumentName": "Instrument_1",
      "isPercussion": false,
      "pitch": 64,
      "velocity": 64,
      "startTime": 158.0625,
      "duration": 0.17734375000000568,
      "endTime": 158.23984375
    },
    {
      "instrumentId": 0,
      "instrumentName": "Instrument_0",
      "isPercussion": false,
      "pitch": 73,
      "velocity": 64,
      "startTime": 158.25,
      "duration": 0.35546875,
      "endTime": 158.60546875
    },
    {
      "instrumentId": 0,
      "instrumentName": "Instrument_0",
      "isPercussion": false,
      "pitch": 76,
      "velocity": 64,
      "startTime": 158.25,
      "duration": 0.35546875,
      "endTime": 158.60546875
    },
    {
      "instrumentId": 0,
      "instrumentName": "Instrument_0",
      "isPercussion": false,
      "pitch": 75,
      "velocity": 64,
      "startTime": 158.625,
      "duration": 0.35546875,
      "endTime": 158.98046875
    },
    {
      "instrumentId": 0,
      "instrumentName": "Instrument_0",
      "isPercussion": false,
      "pitch": 78,
      "velocity": 64,
      "startTime": 158.625,
      "duration": 0.35546875,
      "endTime": 158.98046875
    },
    {
      "instrumentId": 1,
      "instrumentName": "Instrument_1",
      "isPercussion": false,
      "pitch": 54,
      "velocity": 64,
      "startTime": 158.625,
      "duration": 0.17734375000000568,
      "endTime": 158.80234375
    },
    {
      "instrumentId": 1,
      "instrumentName": "Instrument_1",
      "isPercussion": false,
      "pitch": 61,
      "velocity": 64,
      "startTime": 158.625,
      "duration": 0.17734375000000568,
      "endTime": 158.80234375
    },
    {
      "instrumentId": 0,
      "instrumentName": "Instrument_0",
      "isPercussion": false,
      "pitch": 75,
      "velocity": 64,
      "startTime": 159.0,
      "duration": 0.711718750000017,
      "endTime": 159.71171875000002
    },
    {
      "instrumentId": 0,
      "instrumentName": "Instrument_0",
      "isPercussion": false,
      "pitch": 78,
      "velocity": 64,
      "startTime": 159.0,
      "duration": 0.711718750000017,
      "endTime": 159.71171875000002
    },
    {
      "instrumentId": 1,
      "instrumentName": "Instrument_1",
      "isPercussion": false,
      "pitch": 57,
      "velocity": 64,
      "startTime": 159.0,
      "duration": 0.17734375000000568,
      "endTime": 159.17734375
    },
    {
      "instrumentId": 1,
      "instrumentName": "Instrument_1",
      "isPercussion": false,
      "pitch": 61,
      "velocity": 64,
      "startTime": 159.0,
      "duration": 0.17734375000000568,
      "endTime": 159.17734375
    },
    {
      "instrumentId": 1,
      "instrumentName": "Instrument_1",
      "isPercussion": false,
      "pitch": 57,
      "velocity": 64,
      "startTime": 159.5625,
      "duration": 0.17734375000000568,
      "endTime": 159.73984375
    },
    {
      "instrumentId": 1,
      "instrumentName": "Instrument_1",
      "isPercussion": false,
      "pitch": 64,
      "velocity": 64,
      "startTime": 159.5625,
      "duration": 0.17734375000000568,
      "endTime": 159.73984375
    },
    {
      "instrumentId": 0,
      "instrumentName": "Instrument_0",
      "isPercussion": false,
      "pitch": 73,
      "velocity": 64,
      "startTime": 159.9375,
      "duration": 0.17734375000000568,
      "endTime": 160.11484375
    },
    {
      "instrumentId": 0,
      "instrumentName": "Instrument_0",
      "isPercussion": false,
      "pitch": 76,
      "velocity": 64,
      "startTime": 160.125,
      "duration": 0.17734375000000568,
      "endTime": 160.30234375
    },
    {
      "instrumentId": 1,
      "instrumentName": "Instrument_1",
      "isPercussion": false,
      "pitch": 57,
      "velocity": 64,
      "startTime": 160.125,
      "duration": 0.17734375000000568,
      "endTime": 160.30234375
    },
    {
      "instrumentId": 1,
      "instrumentName": "Instrument_1",
      "isPercussion": false,
      "pitch": 61,
      "velocity": 64,
      "startTime": 160.125,
      "duration": 0.17734375000000568,
      "endTime": 160.30234375
    },
    {
      "instrumentId": 0,
      "instrumentName": "Instrument_0",
      "isPercussion": false,
      "pitch": 78,
      "velocity": 64,
      "startTime": 160.3125,
      "duration": 0.17734375000000568,
      "endTime": 160.48984375
    },
    {
      "instrumentId": 0,
      "instrumentName": "Instrument_0",
      "isPercussion": false,
      "pitch": 76,
      "velocity": 64,
      "startTime": 160.5,
      "duration": 0.35546875,
      "endTime": 160.85546875
    },
    {
      "instrumentId": 0,
      "instrumentName": "Instrument_0",
      "isPercussion": false,
      "pitch": 80,
      "velocity": 64,
      "startTime": 160.5,
      "duration": 0.35546875,
      "endTime": 160.85546875
    },
    {
      "instrumentId": 1,
      "instrumentName": "Instrument_1",
      "isPercussion": false,
      "pitch": 54,
      "velocity": 64,
      "startTime": 160.5,
      "duration": 0.17734375000000568,
      "endTime": 160.67734375
    },
    {
      "instrumentId": 1,
      "instrumentName": "Instrument_1",
      "isPercussion": false,
      "pitch": 59,
      "velocity": 64,
      "startTime": 160.5,
      "duration": 0.17734375000000568,
      "endTime": 160.67734375
    },
    {
      "instrumentId": 1,
      "instrumentName": "Instrument_1",
      "isPercussion": false,
      "pitch": 63,
      "velocity": 64,
      "startTime": 160.5,
      "duration": 0.17734375000000568,
      "endTime": 160.67734375
    },
    {
      "instrumentId": 0,
      "instrumentName": "Instrument_0",
      "isPercussion": false,
      "pitch": 78,
      "velocity": 64,
      "startTime": 160.875,
      "duration": 0.17734375000000568,
      "endTime": 161.05234375
    },
    {
      "instrumentId": 0,
      "instrumentName": "Instrument_0",
      "isPercussion": false,
      "pitch": 76,
      "velocity": 64,
      "startTime": 161.0625,
      "duration": 0.17734375000000568,
      "endTime": 161.23984375
    },
    {
      "instrumentId": 1,
      "instrumentName": "Instrument_1",
      "isPercussion": false,
      "pitch": 54,
      "velocity": 64,
      "startTime": 161.0625,
      "duration": 0.17734375000000568,
      "endTime": 161.23984375
    },
    {
      "instrumentId": 1,
      "instrumentName": "Instrument_1",
      "isPercussion": false,
      "pitch": 59,
      "velocity": 64,
      "startTime": 161.0625,
      "duration": 0.17734375000000568,
      "endTime": 161.23984375
    },
    {
      "instrumentId": 1,
      "instrumentName": "Instrument_1",
      "isPercussion": false,
      "pitch": 61,
      "velocity": 64,
      "startTime": 161.0625,
      "duration": 0.17734375000000568,
      "endTime": 161.23984375
    },
    {
      "instrumentId": 0,
      "instrumentName": "Instrument_0",
      "isPercussion": false,
      "pitch": 73,
      "velocity": 64,
      "startTime": 161.25,
      "duration": 0.35546875,
      "endTime": 161.60546875
    },
    {
      "instrumentId": 0,
      "instrumentName": "Instrument_0",
      "isPercussion": false,
      "pitch": 76,
      "velocity": 64,
      "startTime": 161.25,
      "duration": 0.35546875,
      "endTime": 161.60546875
    },
    {
      "instrumentId": 0,
      "instrumentName": "Instrument_0",
      "isPercussion": false,
      "pitch": 75,
      "velocity": 64,
      "startTime": 161.625,
      "duration": 0.35546875,
      "endTime": 161.98046875
    },
    {
      "instrumentId": 0,
      "instrumentName": "Instrument_0",
      "isPercussion": false,
      "pitch": 78,
      "velocity": 64,
      "startTime": 161.625,
      "duration": 0.35546875,
      "endTime": 161.98046875
    },
    {
      "instrumentId": 1,
      "instrumentName": "Instrument_1",
      "isPercussion": false,
      "pitch": 54,
      "velocity": 64,
      "startTime": 161.625,
      "duration": 0.17734375000000568,
      "endTime": 161.80234375
    },
    {
      "instrumentId": 1,
      "instrumentName": "Instrument_1",
      "isPercussion": false,
      "pitch": 59,
      "velocity": 64,
      "startTime": 161.625,
      "duration": 0.17734375000000568,
      "endTime": 161.80234375
    },
    {
      "instrumentId": 0,
      "instrumentName": "Instrument_0",
      "isPercussion": false,
      "pitch": 68,
      "velocity": 64,
      "startTime": 162.0,
      "duration": 0.711718750000017,
      "endTime": 162.71171875000002
    },
    {
      "instrumentId": 0,
      "instrumentName": "Instrument_0",
      "isPercussion": false,
      "pitch": 73,
      "velocity": 64,
      "startTime": 162.0,
      "duration": 0.711718750000017,
      "endTime": 162.71171875000002
    },
    {
      "instrumentId": 1,
      "instrumentName": "Instrument_1",
      "isPercussion": false,
      "pitch": 56,
      "velocity": 64,
      "startTime": 162.0,
      "duration": 0.17734375000000568,
      "endTime": 162.17734375
    },
    {
      "instrumentId": 1,
      "instrumentName": "Instrument_1",
      "isPercussion": false,
      "pitch": 61,
      "velocity": 64,
      "startTime": 162.0,
      "duration": 0.17734375000000568,
      "endTime": 162.17734375
    },
    {
      "instrumentId": 1,
      "instrumentName": "Instrument_1",
      "isPercussion": false,
      "pitch": 56,
      "velocity": 64,
      "startTime": 162.5625,
      "duration": 0.17734375000000568,
      "endTime": 162.73984375
    },
    {
      "instrumentId": 1,
      "instrumentName": "Instrument_1",
      "isPercussion": false,
      "pitch": 64,
      "velocity": 64,
      "startTime": 162.5625,
      "duration": 0.17734375000000568,
      "endTime": 162.73984375
    },
    {
      "instrumentId": 0,
      "instrumentName": "Instrument_0",
      "isPercussion": false,
      "pitch": 73,
      "velocity": 64,
      "startTime": 162.9375,
      "duration": 0.17734375000000568,
      "endTime": 163.11484375
    },
    {
      "instrumentId": 0,
      "instrumentName": "Instrument_0",
      "isPercussion": false,
      "pitch": 76,
      "velocity": 64,
      "startTime": 163.125,
      "duration": 0.17734375000000568,
      "endTime": 163.30234375
    },
    {
      "instrumentId": 1,
      "instrumentName": "Instrument_1",
      "isPercussion": false,
      "pitch": 56,
      "velocity": 64,
      "startTime": 163.125,
      "duration": 0.17734375000000568,
      "endTime": 163.30234375
    },
    {
      "instrumentId": 1,
      "instrumentName": "Instrument_1",
      "isPercussion": false,
      "pitch": 61,
      "velocity": 64,
      "startTime": 163.125,
      "duration": 0.17734375000000568,
      "endTime": 163.30234375
    },
    {
      "instrumentId": 0,
      "instrumentName": "Instrument_0",
      "isPercussion": false,
      "pitch": 78,
      "velocity": 64,
      "startTime": 163.3125,
      "duration": 0.17734375000000568,
      "endTime": 163.48984375
    },
    {
      "instrumentId": 0,
      "instrumentName": "Instrument_0",
      "isPercussion": false,
      "pitch": 76,
      "velocity": 64,
      "startTime": 163.5,
      "duration": 0.35546875,
      "endTime": 163.85546875
    },
    {
      "instrumentId": 0,
      "instrumentName": "Instrument_0",
      "isPercussion": false,
      "pitch": 80,
      "velocity": 64,
      "startTime": 163.5,
      "duration": 0.35546875,
      "endTime": 163.85546875
    },
    {
      "instrumentId": 1,
      "instrumentName": "Instrument_1",
      "isPercussion": false,
      "pitch": 54,
      "velocity": 64,
      "startTime": 163.5,
      "duration": 0.17734375000000568,
      "endTime": 163.67734375
    },
    {
      "instrumentId": 1,
      "instrumentName": "Instrument_1",
      "isPercussion": false,
      "pitch": 61,
      "velocity": 64,
      "startTime": 163.5,
      "duration": 0.17734375000000568,
      "endTime": 163.67734375
    },
    {
      "instrumentId": 0,
      "instrumentName": "Instrument_0",
      "isPercussion": false,
      "pitch": 68,
      "velocity": 64,
      "startTime": 163.875,
      "duration": 0.35546875,
      "endTime": 164.23046875
    },
    {
      "instrumentId": 0,
      "instrumentName": "Instrument_0",
      "isPercussion": false,
      "pitch": 73,
      "velocity": 64,
      "startTime": 163.875,
      "duration": 0.35546875,
      "endTime": 164.23046875
    },
    {
      "instrumentId": 1,
      "instrumentName": "Instrument_1",
      "isPercussion": false,
      "pitch": 54,
      "velocity": 64,
      "startTime": 164.0625,
      "duration": 0.17734375000000568,
      "endTime": 164.23984375
    },
    {
      "instrumentId": 1,
      "instrumentName": "Instrument_1",
      "isPercussion": false,
      "pitch": 64,
      "velocity": 64,
      "startTime": 164.0625,
      "duration": 0.17734375000000568,
      "endTime": 164.23984375
    },
    {
      "instrumentId": 0,
      "instrumentName": "Instrument_0",
      "isPercussion": false,
      "pitch": 73,
      "velocity": 64,
      "startTime": 164.25,
      "duration": 0.35546875,
      "endTime": 164.60546875
    },
    {
      "instrumentId": 0,
      "instrumentName": "Instrument_0",
      "isPercussion": false,
      "pitch": 76,
      "velocity": 64,
      "startTime": 164.25,
      "duration": 0.35546875,
      "endTime": 164.60546875
    },
    {
      "instrumentId": 0,
      "instrumentName": "Instrument_0",
      "isPercussion": false,
      "pitch": 75,
      "velocity": 64,
      "startTime": 164.625,
      "duration": 0.35546875,
      "endTime": 164.98046875
    },
    {
      "instrumentId": 0,
      "instrumentName": "Instrument_0",
      "isPercussion": false,
      "pitch": 78,
      "velocity": 64,
      "startTime": 164.625,
      "duration": 0.35546875,
      "endTime": 164.98046875
    },
    {
      "instrumentId": 1,
      "instrumentName": "Instrument_1",
      "isPercussion": false,
      "pitch": 54,
      "velocity": 64,
      "startTime": 164.625,
      "duration": 0.17734375000000568,
      "endTime": 164.80234375
    },
    {
      "instrumentId": 1,
      "instrumentName": "Instrument_1",
      "isPercussion": false,
      "pitch": 61,
      "velocity": 64,
      "startTime": 164.625,
      "duration": 0.17734375000000568,
      "endTime": 164.80234375
    },
    {
      "instrumentId": 0,
      "instrumentName": "Instrument_0",
      "isPercussion": false,
      "pitch": 75,
      "velocity": 64,
      "startTime": 165.0,
      "duration": 1.0679687500000057,
      "endTime": 166.06796875
    },
    {
      "instrumentId": 0,
      "instrumentName": "Instrument_0",
      "isPercussion": false,
      "pitch": 78,
      "velocity": 64,
      "startTime": 165.0,
      "duration": 1.0679687500000057,
      "endTime": 166.06796875
    },
    {
      "instrumentId": 1,
      "instrumentName": "Instrument_1",
      "isPercussion": false,
      "pitch": 57,
      "velocity": 64,
      "startTime": 165.0,
      "duration": 0.17734375000000568,
      "endTime": 165.17734375
    },
    {
      "instrumentId": 1,
      "instrumentName": "Instrument_1",
      "isPercussion": false,
      "pitch": 61,
      "velocity": 64,
      "startTime": 165.0,
      "duration": 0.17734375000000568,
      "endTime": 165.17734375
    },
    {
      "instrumentId": 1,
      "instrumentName": "Instrument_1",
      "isPercussion": false,
      "pitch": 57,
      "velocity": 64,
      "startTime": 165.5625,
      "duration": 0.17734375000000568,
      "endTime": 165.73984375
    },
    {
      "instrumentId": 1,
      "instrumentName": "Instrument_1",
      "isPercussion": false,
      "pitch": 64,
      "velocity": 64,
      "startTime": 165.5625,
      "duration": 0.17734375000000568,
      "endTime": 165.73984375
    },
    {
      "instrumentId": 0,
      "instrumentName": "Instrument_0",
      "isPercussion": false,
      "pitch": 76,
      "velocity": 64,
      "startTime": 166.125,
      "duration": 0.17734375000000568,
      "endTime": 166.30234375
    },
    {
      "instrumentId": 1,
      "instrumentName": "Instrument_1",
      "isPercussion": false,
      "pitch": 57,
      "velocity": 64,
      "startTime": 166.125,
      "duration": 0.17734375000000568,
      "endTime": 166.30234375
    },
    {
      "instrumentId": 1,
      "instrumentName": "Instrument_1",
      "isPercussion": false,
      "pitch": 61,
      "velocity": 64,
      "startTime": 166.125,
      "duration": 0.17734375000000568,
      "endTime": 166.30234375
    },
    {
      "instrumentId": 0,
      "instrumentName": "Instrument_0",
      "isPercussion": false,
      "pitch": 78,
      "velocity": 64,
      "startTime": 166.3125,
      "duration": 0.17734375000000568,
      "endTime": 166.48984375
    },
    {
      "instrumentId": 0,
      "instrumentName": "Instrument_0",
      "isPercussion": false,
      "pitch": 76,
      "velocity": 64,
      "startTime": 166.5,
      "duration": 0.35546875,
      "endTime": 166.85546875
    },
    {
      "instrumentId": 0,
      "instrumentName": "Instrument_0",
      "isPercussion": false,
      "pitch": 80,
      "velocity": 64,
      "startTime": 166.5,
      "duration": 0.35546875,
      "endTime": 166.85546875
    },
    {
      "instrumentId": 1,
      "instrumentName": "Instrument_1",
      "isPercussion": false,
      "pitch": 54,
      "velocity": 64,
      "startTime": 166.5,
      "duration": 0.17734375000000568,
      "endTime": 166.67734375
    },
    {
      "instrumentId": 1,
      "instrumentName": "Instrument_1",
      "isPercussion": false,
      "pitch": 59,
      "velocity": 64,
      "startTime": 166.5,
      "duration": 0.17734375000000568,
      "endTime": 166.67734375
    },
    {
      "instrumentId": 1,
      "instrumentName": "Instrument_1",
      "isPercussion": false,
      "pitch": 63,
      "velocity": 64,
      "startTime": 166.5,
      "duration": 0.17734375000000568,
      "endTime": 166.67734375
    },
    {
      "instrumentId": 0,
      "instrumentName": "Instrument_0",
      "isPercussion": false,
      "pitch": 78,
      "velocity": 64,
      "startTime": 166.875,
      "duration": 0.17734375000000568,
      "endTime": 167.05234375
    },
    {
      "instrumentId": 0,
      "instrumentName": "Instrument_0",
      "isPercussion": false,
      "pitch": 76,
      "velocity": 64,
      "startTime": 167.0625,
      "duration": 0.17734375000000568,
      "endTime": 167.23984375
    },
    {
      "instrumentId": 1,
      "instrumentName": "Instrument_1",
      "isPercussion": false,
      "pitch": 54,
      "velocity": 64,
      "startTime": 167.0625,
      "duration": 0.17734375000000568,
      "endTime": 167.23984375
    },
    {
      "instrumentId": 1,
      "instrumentName": "Instrument_1",
      "isPercussion": false,
      "pitch": 59,
      "velocity": 64,
      "startTime": 167.0625,
      "duration": 0.17734375000000568,
      "endTime": 167.23984375
    },
    {
      "instrumentId": 1,
      "instrumentName": "Instrument_1",
      "isPercussion": false,
      "pitch": 61,
      "velocity": 64,
      "startTime": 167.0625,
      "duration": 0.17734375000000568,
      "endTime": 167.23984375
    },
    {
      "instrumentId": 0,
      "instrumentName": "Instrument_0",
      "isPercussion": false,
      "pitch": 75,
      "velocity": 64,
      "startTime": 167.25,
      "duration": 0.5335937500000227,
      "endTime": 167.78359375000002
    },
    {
      "instrumentId": 0,
      "instrumentName": "Instrument_0",
      "isPercussion": false,
      "pitch": 78,
      "velocity": 64,
      "startTime": 167.25,
      "duration": 0.5335937500000227,
      "endTime": 167.78359375000002
    },
    {
      "instrumentId": 1,
      "instrumentName": "Instrument_1",
      "isPercussion": false,
      "pitch": 54,
      "velocity": 64,
      "startTime": 167.625,
      "duration": 0.17734375000000568,
      "endTime": 167.80234375
    },
    {
      "instrumentId": 1,
      "instrumentName": "Instrument_1",
      "isPercussion": false,
      "pitch": 59,
      "velocity": 64,
      "startTime": 167.625,
      "duration": 0.17734375000000568,
      "endTime": 167.80234375
    },
    {
      "instrumentId": 0,
      "instrumentName": "Instrument_0",
      "isPercussion": false,
      "pitch": 68,
      "velocity": 64,
      "startTime": 167.8125,
      "duration": 1.24609375,
      "endTime": 169.05859375
    },
    {
      "instrumentId": 0,
      "instrumentName": "Instrument_0",
      "isPercussion": false,
      "pitch": 73,
      "velocity": 64,
      "startTime": 167.8125,
      "duration": 1.24609375,
      "endTime": 169.05859375
    },
    {
      "instrumentId": 1,
      "instrumentName": "Instrument_1",
      "isPercussion": false,
      "pitch": 56,
      "velocity": 64,
      "startTime": 168.0,
      "duration": 0.17734375000000568,
      "endTime": 168.17734375
    },
    {
      "instrumentId": 1,
      "instrumentName": "Instrument_1",
      "isPercussion": false,
      "pitch": 61,
      "velocity": 64,
      "startTime": 168.0,
      "duration": 0.17734375000000568,
      "endTime": 168.17734375
    },
    {
      "instrumentId": 1,
      "instrumentName": "Instrument_1",
      "isPercussion": false,
      "pitch": 56,
      "velocity": 64,
      "startTime": 168.5625,
      "duration": 0.17734375000000568,
      "endTime": 168.73984375
    },
    {
      "instrumentId": 1,
      "instrumentName": "Instrument_1",
      "isPercussion": false,
      "pitch": 64,
      "velocity": 64,
      "startTime": 168.5625,
      "duration": 0.17734375000000568,
      "endTime": 168.73984375
    },
    {
      "instrumentId": 0,
      "instrumentName": "Instrument_0",
      "isPercussion": false,
      "pitch": 73,
      "velocity": 64,
      "startTime": 169.125,
      "duration": 0.35546875,
      "endTime": 169.48046875
    },
    {
      "instrumentId": 0,
      "instrumentName": "Instrument_0",
      "isPercussion": false,
      "pitch": 76,
      "velocity": 64,
      "startTime": 169.125,
      "duration": 0.35546875,
      "endTime": 169.48046875
    },
    {
      "instrumentId": 1,
      "instrumentName": "Instrument_1",
      "isPercussion": false,
      "pitch": 56,
      "velocity": 64,
      "startTime": 169.125,
      "duration": 0.17734375000000568,
      "endTime": 169.30234375
    },
    {
      "instrumentId": 1,
      "instrumentName": "Instrument_1",
      "isPercussion": false,
      "pitch": 61,
      "velocity": 64,
      "startTime": 169.125,
      "duration": 0.17734375000000568,
      "endTime": 169.30234375
    },
    {
      "instrumentId": 0,
      "instrumentName": "Instrument_0",
      "isPercussion": false,
      "pitch": 76,
      "velocity": 64,
      "startTime": 169.5,
      "duration": 0.35546875,
      "endTime": 169.85546875
    },
    {
      "instrumentId": 0,
      "instrumentName": "Instrument_0",
      "isPercussion": false,
      "pitch": 80,
      "velocity": 64,
      "startTime": 169.5,
      "duration": 0.35546875,
      "endTime": 169.85546875
    },
    {
      "instrumentId": 1,
      "instrumentName": "Instrument_1",
      "isPercussion": false,
      "pitch": 54,
      "velocity": 64,
      "startTime": 169.5,
      "duration": 0.17734375000000568,
      "endTime": 169.67734375
    },
    {
      "instrumentId": 1,
      "instrumentName": "Instrument_1",
      "isPercussion": false,
      "pitch": 61,
      "velocity": 64,
      "startTime": 169.5,
      "duration": 0.17734375000000568,
      "endTime": 169.67734375
    },
    {
      "instrumentId": 0,
      "instrumentName": "Instrument_0",
      "isPercussion": false,
      "pitch": 83,
      "velocity": 64,
      "startTime": 169.875,
      "duration": 0.17734375000000568,
      "endTime": 170.05234375
    },
    {
      "instrumentId": 0,
      "instrumentName": "Instrument_0",
      "isPercussion": false,
      "pitch": 80,
      "velocity": 64,
      "startTime": 170.0625,
      "duration": 0.17734375000000568,
      "endTime": 170.23984375
    },
    {
      "instrumentId": 1,
      "instrumentName": "Instrument_1",
      "isPercussion": false,
      "pitch": 54,
      "velocity": 64,
      "startTime": 170.0625,
      "duration": 0.17734375000000568,
      "endTime": 170.23984375
    },
    {
      "instrumentId": 1,
      "instrumentName": "Instrument_1",
      "isPercussion": false,
      "pitch": 64,
      "velocity": 64,
      "startTime": 170.0625,
      "duration": 0.17734375000000568,
      "endTime": 170.23984375
    },
    {
      "instrumentId": 0,
      "instrumentName": "Instrument_0",
      "isPercussion": false,
      "pitch": 75,
      "velocity": 64,
      "startTime": 170.25,
      "duration": 0.35546875,
      "endTime": 170.60546875
    },
    {
      "instrumentId": 0,
      "instrumentName": "Instrument_0",
      "isPercussion": false,
      "pitch": 78,
      "velocity": 64,
      "startTime": 170.25,
      "duration": 0.35546875,
      "endTime": 170.60546875
    },
    {
      "instrumentId": 0,
      "instrumentName": "Instrument_0",
      "isPercussion": false,
      "pitch": 73,
      "velocity": 64,
      "startTime": 170.625,
      "duration": 0.35546875,
      "endTime": 170.98046875
    },
    {
      "instrumentId": 0,
      "instrumentName": "Instrument_0",
      "isPercussion": false,
      "pitch": 76,
      "velocity": 64,
      "startTime": 170.625,
      "duration": 0.35546875,
      "endTime": 170.98046875
    },
    {
      "instrumentId": 1,
      "instrumentName": "Instrument_1",
      "isPercussion": false,
      "pitch": 54,
      "velocity": 64,
      "startTime": 170.625,
      "duration": 0.17734375000000568,
      "endTime": 170.80234375
    },
    {
      "instrumentId": 1,
      "instrumentName": "Instrument_1",
      "isPercussion": false,
      "pitch": 61,
      "velocity": 64,
      "startTime": 170.625,
      "duration": 0.17734375000000568,
      "endTime": 170.80234375
    },
    {
      "instrumentId": 0,
      "instrumentName": "Instrument_0",
      "isPercussion": false,
      "pitch": 75,
      "velocity": 64,
      "startTime": 171.0,
      "duration": 0.711718750000017,
      "endTime": 171.71171875000002
    },
    {
      "instrumentId": 0,
      "instrumentName": "Instrument_0",
      "isPercussion": false,
      "pitch": 78,
      "velocity": 64,
      "startTime": 171.0,
      "duration": 0.711718750000017,
      "endTime": 171.71171875000002
    },
    {
      "instrumentId": 1,
      "instrumentName": "Instrument_1",
      "isPercussion": false,
      "pitch": 57,
      "velocity": 64,
      "startTime": 171.0,
      "duration": 0.17734375000000568,
      "endTime": 171.17734375
    },
    {
      "instrumentId": 1,
      "instrumentName": "Instrument_1",
      "isPercussion": false,
      "pitch": 61,
      "velocity": 64,
      "startTime": 171.0,
      "duration": 0.17734375000000568,
      "endTime": 171.17734375
    },
    {
      "instrumentId": 1,
      "instrumentName": "Instrument_1",
      "isPercussion": false,
      "pitch": 57,
      "velocity": 64,
      "startTime": 171.5625,
      "duration": 0.17734375000000568,
      "endTime": 171.73984375
    },
    {
      "instrumentId": 1,
      "instrumentName": "Instrument_1",
      "isPercussion": false,
      "pitch": 64,
      "velocity": 64,
      "startTime": 171.5625,
      "duration": 0.17734375000000568,
      "endTime": 171.73984375
    },
    {
      "instrumentId": 0,
      "instrumentName": "Instrument_0",
      "isPercussion": false,
      "pitch": 73,
      "velocity": 64,
      "startTime": 171.9375,
      "duration": 0.17734375000000568,
      "endTime": 172.11484375
    },
    {
      "instrumentId": 0,
      "instrumentName": "Instrument_0",
      "isPercussion": false,
      "pitch": 76,
      "velocity": 64,
      "startTime": 172.125,
      "duration": 0.17734375000000568,
      "endTime": 172.30234375
    },
    {
      "instrumentId": 1,
      "instrumentName": "Instrument_1",
      "isPercussion": false,
      "pitch": 57,
      "velocity": 64,
      "startTime": 172.125,
      "duration": 0.17734375000000568,
      "endTime": 172.30234375
    },
    {
      "instrumentId": 1,
      "instrumentName": "Instrument_1",
      "isPercussion": false,
      "pitch": 61,
      "velocity": 64,
      "startTime": 172.125,
      "duration": 0.17734375000000568,
      "endTime": 172.30234375
    },
    {
      "instrumentId": 0,
      "instrumentName": "Instrument_0",
      "isPercussion": false,
      "pitch": 78,
      "velocity": 64,
      "startTime": 172.3125,
      "duration": 0.17734375000000568,
      "endTime": 172.48984375
    },
    {
      "instrumentId": 0,
      "instrumentName": "Instrument_0",
      "isPercussion": false,
      "pitch": 76,
      "velocity": 64,
      "startTime": 172.5,
      "duration": 0.35546875,
      "endTime": 172.85546875
    },
    {
      "instrumentId": 0,
      "instrumentName": "Instrument_0",
      "isPercussion": false,
      "pitch": 80,
      "velocity": 64,
      "startTime": 172.5,
      "duration": 0.35546875,
      "endTime": 172.85546875
    },
    {
      "instrumentId": 1,
      "instrumentName": "Instrument_1",
      "isPercussion": false,
      "pitch": 54,
      "velocity": 64,
      "startTime": 172.5,
      "duration": 0.17734375000000568,
      "endTime": 172.67734375
    },
    {
      "instrumentId": 1,
      "instrumentName": "Instrument_1",
      "isPercussion": false,
      "pitch": 59,
      "velocity": 64,
      "startTime": 172.5,
      "duration": 0.17734375000000568,
      "endTime": 172.67734375
    },
    {
      "instrumentId": 1,
      "instrumentName": "Instrument_1",
      "isPercussion": false,
      "pitch": 63,
      "velocity": 64,
      "startTime": 172.5,
      "duration": 0.17734375000000568,
      "endTime": 172.67734375
    },
    {
      "instrumentId": 0,
      "instrumentName": "Instrument_0",
      "isPercussion": false,
      "pitch": 75,
      "velocity": 64,
      "startTime": 172.875,
      "duration": 0.35546875,
      "endTime": 173.23046875
    },
    {
      "instrumentId": 0,
      "instrumentName": "Instrument_0",
      "isPercussion": false,
      "pitch": 78,
      "velocity": 64,
      "startTime": 172.875,
      "duration": 0.35546875,
      "endTime": 173.23046875
    },
    {
      "instrumentId": 1,
      "instrumentName": "Instrument_1",
      "isPercussion": false,
      "pitch": 54,
      "velocity": 64,
      "startTime": 173.0625,
      "duration": 0.17734375000000568,
      "endTime": 173.23984375
    },
    {
      "instrumentId": 1,
      "instrumentName": "Instrument_1",
      "isPercussion": false,
      "pitch": 59,
      "velocity": 64,
      "startTime": 173.0625,
      "duration": 0.17734375000000568,
      "endTime": 173.23984375
    },
    {
      "instrumentId": 1,
      "instrumentName": "Instrument_1",
      "isPercussion": false,
      "pitch": 61,
      "velocity": 64,
      "startTime": 173.0625,
      "duration": 0.17734375000000568,
      "endTime": 173.23984375
    },
    {
      "instrumentId": 0,
      "instrumentName": "Instrument_0",
      "isPercussion": false,
      "pitch": 73,
      "velocity": 64,
      "startTime": 173.25,
      "duration": 0.35546875,
      "endTime": 173.60546875
    },
    {
      "instrumentId": 0,
      "instrumentName": "Instrument_0",
      "isPercussion": false,
      "pitch": 76,
      "velocity": 64,
      "startTime": 173.25,
      "duration": 0.35546875,
      "endTime": 173.60546875
    },
    {
      "instrumentId": 0,
      "instrumentName": "Instrument_0",
      "isPercussion": false,
      "pitch": 75,
      "velocity": 64,
      "startTime": 173.625,
      "duration": 0.35546875,
      "endTime": 173.98046875
    },
    {
      "instrumentId": 0,
      "instrumentName": "Instrument_0",
      "isPercussion": false,
      "pitch": 78,
      "velocity": 64,
      "startTime": 173.625,
      "duration": 0.35546875,
      "endTime": 173.98046875
    },
    {
      "instrumentId": 1,
      "instrumentName": "Instrument_1",
      "isPercussion": false,
      "pitch": 54,
      "velocity": 64,
      "startTime": 173.625,
      "duration": 0.17734375000000568,
      "endTime": 173.80234375
    },
    {
      "instrumentId": 1,
      "instrumentName": "Instrument_1",
      "isPercussion": false,
      "pitch": 59,
      "velocity": 64,
      "startTime": 173.625,
      "duration": 0.17734375000000568,
      "endTime": 173.80234375
    },
    {
      "instrumentId": 0,
      "instrumentName": "Instrument_0",
      "isPercussion": false,
      "pitch": 68,
      "velocity": 64,
      "startTime": 174.0,
      "duration": 0.35546875,
      "endTime": 174.35546875
    },
    {
      "instrumentId": 0,
      "instrumentName": "Instrument_0",
      "isPercussion": false,
      "pitch": 73,
      "velocity": 64,
      "startTime": 174.0,
      "duration": 0.35546875,
      "endTime": 174.35546875
    },
    {
      "instrumentId": 1,
      "instrumentName": "Instrument_1",
      "isPercussion": false,
      "pitch": 56,
      "velocity": 64,
      "startTime": 174.0,
      "duration": 0.17734375000000568,
      "endTime": 174.17734375
    },
    {
      "instrumentId": 1,
      "instrumentName": "Instrument_1",
      "isPercussion": false,
      "pitch": 61,
      "velocity": 64,
      "startTime": 174.0,
      "duration": 0.17734375000000568,
      "endTime": 174.17734375
    },
    {
      "instrumentId": 0,
      "instrumentName": "Instrument_0",
      "isPercussion": false,
      "pitch": 68,
      "velocity": 64,
      "startTime": 174.375,
      "duration": 0.17734375000000568,
      "endTime": 174.55234375
    },
    {
      "instrumentId": 0,
      "instrumentName": "Instrument_0",
      "isPercussion": false,
      "pitch": 73,
      "velocity": 64,
      "startTime": 174.375,
      "duration": 0.17734375000000568,
      "endTime": 174.55234375
    },
    {
      "instrumentId": 0,
      "instrumentName": "Instrument_0",
      "isPercussion": false,
      "pitch": 73,
      "velocity": 64,
      "startTime": 174.5625,
      "duration": 0.17734375000000568,
      "endTime": 174.73984375
    },
    {
      "instrumentId": 1,
      "instrumentName": "Instrument_1",
      "isPercussion": false,
      "pitch": 56,
      "velocity": 64,
      "startTime": 174.5625,
      "duration": 0.17734375000000568,
      "endTime": 174.73984375
    },
    {
      "instrumentId": 1,
      "instrumentName": "Instrument_1",
      "isPercussion": false,
      "pitch": 64,
      "velocity": 64,
      "startTime": 174.5625,
      "duration": 0.17734375000000568,
      "endTime": 174.73984375
    },
    {
      "instrumentId": 0,
      "instrumentName": "Instrument_0",
      "isPercussion": false,
      "pitch": 68,
      "velocity": 64,
      "startTime": 174.75,
      "duration": 0.17734375000000568,
      "endTime": 174.92734375
    },
    {
      "instrumentId": 0,
      "instrumentName": "Instrument_0",
      "isPercussion": false,
      "pitch": 73,
      "velocity": 64,
      "startTime": 174.75,
      "duration": 0.17734375000000568,
      "endTime": 174.92734375
    },
    {
      "instrumentId": 0,
      "instrumentName": "Instrument_0",
      "isPercussion": false,
      "pitch": 73,
      "velocity": 64,
      "startTime": 174.9375,
      "duration": 0.17734375000000568,
      "endTime": 175.11484375
    },
    {
      "instrumentId": 0,
      "instrumentName": "Instrument_0",
      "isPercussion": false,
      "pitch": 73,
      "velocity": 64,
      "startTime": 175.125,
      "duration": 0.17734375000000568,
      "endTime": 175.30234375
    },
    {
      "instrumentId": 0,
      "instrumentName": "Instrument_0",
      "isPercussion": false,
      "pitch": 76,
      "velocity": 64,
      "startTime": 175.125,
      "duration": 0.17734375000000568,
      "endTime": 175.30234375
    },
    {
      "instrumentId": 1,
      "instrumentName": "Instrument_1",
      "isPercussion": false,
      "pitch": 56,
      "velocity": 64,
      "startTime": 175.125,
      "duration": 0.17734375000000568,
      "endTime": 175.30234375
    },
    {
      "instrumentId": 1,
      "instrumentName": "Instrument_1",
      "isPercussion": false,
      "pitch": 61,
      "velocity": 64,
      "startTime": 175.125,
      "duration": 0.17734375000000568,
      "endTime": 175.30234375
    },
    {
      "instrumentId": 0,
      "instrumentName": "Instrument_0",
      "isPercussion": false,
      "pitch": 78,
      "velocity": 64,
      "startTime": 175.3125,
      "duration": 0.17734375000000568,
      "endTime": 175.48984375
    },
    {
      "instrumentId": 0,
      "instrumentName": "Instrument_0",
      "isPercussion": false,
      "pitch": 76,
      "velocity": 64,
      "startTime": 175.5,
      "duration": 0.35546875,
      "endTime": 175.85546875
    },
    {
      "instrumentId": 0,
      "instrumentName": "Instrument_0",
      "isPercussion": false,
      "pitch": 80,
      "velocity": 64,
      "startTime": 175.5,
      "duration": 0.35546875,
      "endTime": 175.85546875
    },
    {
      "instrumentId": 1,
      "instrumentName": "Instrument_1",
      "isPercussion": false,
      "pitch": 54,
      "velocity": 64,
      "startTime": 175.5,
      "duration": 0.17734375000000568,
      "endTime": 175.67734375
    },
    {
      "instrumentId": 1,
      "instrumentName": "Instrument_1",
      "isPercussion": false,
      "pitch": 61,
      "velocity": 64,
      "startTime": 175.5,
      "duration": 0.17734375000000568,
      "endTime": 175.67734375
    },
    {
      "instrumentId": 0,
      "instrumentName": "Instrument_0",
      "isPercussion": false,
      "pitch": 68,
      "velocity": 64,
      "startTime": 175.875,
      "duration": 0.35546875,
      "endTime": 176.23046875
    },
    {
      "instrumentId": 0,
      "instrumentName": "Instrument_0",
      "isPercussion": false,
      "pitch": 73,
      "velocity": 64,
      "startTime": 175.875,
      "duration": 0.35546875,
      "endTime": 176.23046875
    },
    {
      "instrumentId": 1,
      "instrumentName": "Instrument_1",
      "isPercussion": false,
      "pitch": 54,
      "velocity": 64,
      "startTime": 176.0625,
      "duration": 0.17734375000000568,
      "endTime": 176.23984375
    },
    {
      "instrumentId": 1,
      "instrumentName": "Instrument_1",
      "isPercussion": false,
      "pitch": 64,
      "velocity": 64,
      "startTime": 176.0625,
      "duration": 0.17734375000000568,
      "endTime": 176.23984375
    },
    {
      "instrumentId": 0,
      "instrumentName": "Instrument_0",
      "isPercussion": false,
      "pitch": 73,
      "velocity": 64,
      "startTime": 176.25,
      "duration": 0.35546875,
      "endTime": 176.60546875
    },
    {
      "instrumentId": 0,
      "instrumentName": "Instrument_0",
      "isPercussion": false,
      "pitch": 76,
      "velocity": 64,
      "startTime": 176.25,
      "duration": 0.35546875,
      "endTime": 176.60546875
    },
    {
      "instrumentId": 0,
      "instrumentName": "Instrument_0",
      "isPercussion": false,
      "pitch": 75,
      "velocity": 64,
      "startTime": 176.625,
      "duration": 0.35546875,
      "endTime": 176.98046875
    },
    {
      "instrumentId": 0,
      "instrumentName": "Instrument_0",
      "isPercussion": false,
      "pitch": 78,
      "velocity": 64,
      "startTime": 176.625,
      "duration": 0.35546875,
      "endTime": 176.98046875
    },
    {
      "instrumentId": 1,
      "instrumentName": "Instrument_1",
      "isPercussion": false,
      "pitch": 54,
      "velocity": 64,
      "startTime": 176.625,
      "duration": 0.17734375000000568,
      "endTime": 176.80234375
    },
    {
      "instrumentId": 1,
      "instrumentName": "Instrument_1",
      "isPercussion": false,
      "pitch": 61,
      "velocity": 64,
      "startTime": 176.625,
      "duration": 0.17734375000000568,
      "endTime": 176.80234375
    },
    {
      "instrumentId": 0,
      "instrumentName": "Instrument_0",
      "isPercussion": false,
      "pitch": 75,
      "velocity": 64,
      "startTime": 177.0,
      "duration": 1.0679687500000057,
      "endTime": 178.06796875
    },
    {
      "instrumentId": 0,
      "instrumentName": "Instrument_0",
      "isPercussion": false,
      "pitch": 78,
      "velocity": 64,
      "startTime": 177.0,
      "duration": 1.0679687500000057,
      "endTime": 178.06796875
    },
    {
      "instrumentId": 1,
      "instrumentName": "Instrument_1",
      "isPercussion": false,
      "pitch": 57,
      "velocity": 64,
      "startTime": 177.0,
      "duration": 0.17734375000000568,
      "endTime": 177.17734375
    },
    {
      "instrumentId": 1,
      "instrumentName": "Instrument_1",
      "isPercussion": false,
      "pitch": 61,
      "velocity": 64,
      "startTime": 177.0,
      "duration": 0.17734375000000568,
      "endTime": 177.17734375
    },
    {
      "instrumentId": 1,
      "instrumentName": "Instrument_1",
      "isPercussion": false,
      "pitch": 57,
      "velocity": 64,
      "startTime": 177.5625,
      "duration": 0.17734375000000568,
      "endTime": 177.73984375
    },
    {
      "instrumentId": 1,
      "instrumentName": "Instrument_1",
      "isPercussion": false,
      "pitch": 64,
      "velocity": 64,
      "startTime": 177.5625,
      "duration": 0.17734375000000568,
      "endTime": 177.73984375
    },
    {
      "instrumentId": 0,
      "instrumentName": "Instrument_0",
      "isPercussion": false,
      "pitch": 76,
      "velocity": 64,
      "startTime": 178.125,
      "duration": 0.17734375000000568,
      "endTime": 178.30234375
    },
    {
      "instrumentId": 1,
      "instrumentName": "Instrument_1",
      "isPercussion": false,
      "pitch": 57,
      "velocity": 64,
      "startTime": 178.125,
      "duration": 0.17734375000000568,
      "endTime": 178.30234375
    },
    {
      "instrumentId": 1,
      "instrumentName": "Instrument_1",
      "isPercussion": false,
      "pitch": 61,
      "velocity": 64,
      "startTime": 178.125,
      "duration": 0.17734375000000568,
      "endTime": 178.30234375
    },
    {
      "instrumentId": 0,
      "instrumentName": "Instrument_0",
      "isPercussion": false,
      "pitch": 78,
      "velocity": 64,
      "startTime": 178.3125,
      "duration": 0.17734375000000568,
      "endTime": 178.48984375
    },
    {
      "instrumentId": 0,
      "instrumentName": "Instrument_0",
      "isPercussion": false,
      "pitch": 76,
      "velocity": 64,
      "startTime": 178.5,
      "duration": 0.35546875,
      "endTime": 178.85546875
    },
    {
      "instrumentId": 0,
      "instrumentName": "Instrument_0",
      "isPercussion": false,
      "pitch": 80,
      "velocity": 64,
      "startTime": 178.5,
      "duration": 0.35546875,
      "endTime": 178.85546875
    },
    {
      "instrumentId": 1,
      "instrumentName": "Instrument_1",
      "isPercussion": false,
      "pitch": 54,
      "velocity": 64,
      "startTime": 178.5,
      "duration": 0.17734375000000568,
      "endTime": 178.67734375
    },
    {
      "instrumentId": 1,
      "instrumentName": "Instrument_1",
      "isPercussion": false,
      "pitch": 59,
      "velocity": 64,
      "startTime": 178.5,
      "duration": 0.17734375000000568,
      "endTime": 178.67734375
    },
    {
      "instrumentId": 1,
      "instrumentName": "Instrument_1",
      "isPercussion": false,
      "pitch": 63,
      "velocity": 64,
      "startTime": 178.5,
      "duration": 0.17734375000000568,
      "endTime": 178.67734375
    },
    {
      "instrumentId": 0,
      "instrumentName": "Instrument_0",
      "isPercussion": false,
      "pitch": 78,
      "velocity": 72,
      "startTime": 178.875,
      "duration": 0.17734375000000568,
      "endTime": 179.05234375
    },
    {
      "instrumentId": 0,
      "instrumentName": "Instrument_0",
      "isPercussion": false,
      "pitch": 76,
      "velocity": 76,
      "startTime": 179.0625,
      "duration": 0.17734375000000568,
      "endTime": 179.23984375
    },
    {
      "instrumentId": 1,
      "instrumentName": "Instrument_1",
      "isPercussion": false,
      "pitch": 54,
      "velocity": 76,
      "startTime": 179.0625,
      "duration": 0.17734375000000568,
      "endTime": 179.23984375
    },
    {
      "instrumentId": 1,
      "instrumentName": "Instrument_1",
      "isPercussion": false,
      "pitch": 59,
      "velocity": 76,
      "startTime": 179.0625,
      "duration": 0.17734375000000568,
      "endTime": 179.23984375
    },
    {
      "instrumentId": 1,
      "instrumentName": "Instrument_1",
      "isPercussion": false,
      "pitch": 61,
      "velocity": 76,
      "startTime": 179.0625,
      "duration": 0.17734375000000568,
      "endTime": 179.23984375
    },
    {
      "instrumentId": 0,
      "instrumentName": "Instrument_0",
      "isPercussion": false,
      "pitch": 75,
      "velocity": 80,
      "startTime": 179.25,
      "duration": 0.5335937500000227,
      "endTime": 179.78359375000002
    },
    {
      "instrumentId": 0,
      "instrumentName": "Instrument_0",
      "isPercussion": false,
      "pitch": 78,
      "velocity": 80,
      "startTime": 179.25,
      "duration": 0.5335937500000227,
      "endTime": 179.78359375000002
    },
    {
      "instrumentId": 1,
      "instrumentName": "Instrument_1",
      "isPercussion": false,
      "pitch": 54,
      "velocity": 88,
      "startTime": 179.625,
      "duration": 0.17734375000000568,
      "endTime": 179.80234375
    },
    {
      "instrumentId": 1,
      "instrumentName": "Instrument_1",
      "isPercussion": false,
      "pitch": 59,
      "velocity": 88,
      "startTime": 179.625,
      "duration": 0.17734375000000568,
      "endTime": 179.80234375
    },
    {
      "instrumentId": 0,
      "instrumentName": "Instrument_0",
      "isPercussion": false,
      "pitch": 73,
      "velocity": 92,
      "startTime": 179.8125,
      "duration": 0.17734375000000568,
      "endTime": 179.98984375
    },
    {
      "instrumentId": 0,
      "instrumentName": "Instrument_0",
      "isPercussion": false,
      "pitch": 68,
      "velocity": 96,
      "startTime": 180.0,
      "duration": 0.35546875,
      "endTime": 180.35546875
    },
    {
      "instrumentId": 0,
      "instrumentName": "Instrument_0",
      "isPercussion": false,
      "pitch": 73,
      "velocity": 96,
      "startTime": 180.0,
      "duration": 0.35546875,
      "endTime": 180.35546875
    },
    {
      "instrumentId": 1,
      "instrumentName": "Instrument_1",
      "isPercussion": false,
      "pitch": 56,
      "velocity": 96,
      "startTime": 180.0,
      "duration": 0.17734375000000568,
      "endTime": 180.17734375
    },
    {
      "instrumentId": 1,
      "instrumentName": "Instrument_1",
      "isPercussion": false,
      "pitch": 61,
      "velocity": 96,
      "startTime": 180.0,
      "duration": 0.17734375000000568,
      "endTime": 180.17734375
    },
    {
      "instrumentId": 0,
      "instrumentName": "Instrument_0",
      "isPercussion": false,
      "pitch": 68,
      "velocity": 96,
      "startTime": 180.375,
      "duration": 0.35546875,
      "endTime": 180.73046875
    },
    {
      "instrumentId": 0,
      "instrumentName": "Instrument_0",
      "isPercussion": false,
      "pitch": 73,
      "velocity": 96,
      "startTime": 180.375,
      "duration": 0.35546875,
      "endTime": 180.73046875
    },
    {
      "instrumentId": 1,
      "instrumentName": "Instrument_1",
      "isPercussion": false,
      "pitch": 56,
      "velocity": 96,
      "startTime": 180.5625,
      "duration": 0.17734375000000568,
      "endTime": 180.73984375
    },
    {
      "instrumentId": 1,
      "instrumentName": "Instrument_1",
      "isPercussion": false,
      "pitch": 64,
      "velocity": 96,
      "startTime": 180.5625,
      "duration": 0.17734375000000568,
      "endTime": 180.73984375
    },
    {
      "instrumentId": 0,
      "instrumentName": "Instrument_0",
      "isPercussion": false,
      "pitch": 68,
      "velocity": 96,
      "startTime": 180.75,
      "duration": 0.35546875,
      "endTime": 181.10546875
    },
    {
      "instrumentId": 0,
      "instrumentName": "Instrument_0",
      "isPercussion": false,
      "pitch": 76,
      "velocity": 96,
      "startTime": 180.75,
      "duration": 0.35546875,
      "endTime": 181.10546875
    },
    {
      "instrumentId": 0,
      "instrumentName": "Instrument_0",
      "isPercussion": false,
      "pitch": 68,
      "velocity": 96,
      "startTime": 181.125,
      "duration": 0.35546875,
      "endTime": 181.48046875
    },
    {
      "instrumentId": 0,
      "instrumentName": "Instrument_0",
      "isPercussion": false,
      "pitch": 76,
      "velocity": 96,
      "startTime": 181.125,
      "duration": 0.35546875,
      "endTime": 181.48046875
    },
    {
      "instrumentId": 1,
      "instrumentName": "Instrument_1",
      "isPercussion": false,
      "pitch": 56,
      "velocity": 96,
      "startTime": 181.125,
      "duration": 0.17734375000000568,
      "endTime": 181.30234375
    },
    {
      "instrumentId": 1,
      "instrumentName": "Instrument_1",
      "isPercussion": false,
      "pitch": 61,
      "velocity": 96,
      "startTime": 181.125,
      "duration": 0.17734375000000568,
      "endTime": 181.30234375
    },
    {
      "instrumentId": 0,
      "instrumentName": "Instrument_0",
      "isPercussion": false,
      "pitch": 69,
      "velocity": 96,
      "startTime": 181.5,
      "duration": 0.35546875,
      "endTime": 181.85546875
    },
    {
      "instrumentId": 0,
      "instrumentName": "Instrument_0",
      "isPercussion": false,
      "pitch": 78,
      "velocity": 96,
      "startTime": 181.5,
      "duration": 0.35546875,
      "endTime": 181.85546875
    },
    {
      "instrumentId": 1,
      "instrumentName": "Instrument_1",
      "isPercussion": false,
      "pitch": 54,
      "velocity": 96,
      "startTime": 181.5,
      "duration": 0.17734375000000568,
      "endTime": 181.67734375
    },
    {
      "instrumentId": 1,
      "instrumentName": "Instrument_1",
      "isPercussion": false,
      "pitch": 61,
      "velocity": 96,
      "startTime": 181.5,
      "duration": 0.17734375000000568,
      "endTime": 181.67734375
    },
    {
      "instrumentId": 0,
      "instrumentName": "Instrument_0",
      "isPercussion": false,
      "pitch": 69,
      "velocity": 96,
      "startTime": 181.875,
      "duration": 0.35546875,
      "endTime": 182.23046875
    },
    {
      "instrumentId": 0,
      "instrumentName": "Instrument_0",
      "isPercussion": false,
      "pitch": 78,
      "velocity": 96,
      "startTime": 181.875,
      "duration": 0.35546875,
      "endTime": 182.23046875
    },
    {
      "instrumentId": 1,
      "instrumentName": "Instrument_1",
      "isPercussion": false,
      "pitch": 54,
      "velocity": 96,
      "startTime": 182.0625,
      "duration": 0.17734375000000568,
      "endTime": 182.23984375
    },
    {
      "instrumentId": 1,
      "instrumentName": "Instrument_1",
      "isPercussion": false,
      "pitch": 64,
      "velocity": 96,
      "startTime": 182.0625,
      "duration": 0.17734375000000568,
      "endTime": 182.23984375
    },
    {
      "instrumentId": 0,
      "instrumentName": "Instrument_0",
      "isPercussion": false,
      "pitch": 69,
      "velocity": 96,
      "startTime": 182.25,
      "duration": 0.35546875,
      "endTime": 182.60546875
    },
    {
      "instrumentId": 0,
      "instrumentName": "Instrument_0",
      "isPercussion": false,
      "pitch": 80,
      "velocity": 96,
      "startTime": 182.25,
      "duration": 0.35546875,
      "endTime": 182.60546875
    },
    {
      "instrumentId": 0,
      "instrumentName": "Instrument_0",
      "isPercussion": false,
      "pitch": 69,
      "velocity": 96,
      "startTime": 182.625,
      "duration": 0.35546875,
      "endTime": 182.98046875
    },
    {
      "instrumentId": 0,
      "instrumentName": "Instrument_0",
      "isPercussion": false,
      "pitch": 80,
      "velocity": 96,
      "startTime": 182.625,
      "duration": 1.4242187500000227,
      "endTime": 184.04921875000002
    },
    {
      "instrumentId": 1,
      "instrumentName": "Instrument_1",
      "isPercussion": false,
      "pitch": 54,
      "velocity": 96,
      "startTime": 182.625,
      "duration": 0.17734375000000568,
      "endTime": 182.80234375
    },
    {
      "instrumentId": 1,
      "instrumentName": "Instrument_1",
      "isPercussion": false,
      "pitch": 61,
      "velocity": 96,
      "startTime": 182.625,
      "duration": 0.17734375000000568,
      "endTime": 182.80234375
    },
    {
      "instrumentId": 0,
      "instrumentName": "Instrument_0",
      "isPercussion": false,
      "pitch": 69,
      "velocity": 96,
      "startTime": 183.0,
      "duration": 1.0679687500000057,
      "endTime": 184.06796875
    },
    {
      "instrumentId": 1,
      "instrumentName": "Instrument_1",
      "isPercussion": false,
      "pitch": 57,
      "velocity": 96,
      "startTime": 183.0,
      "duration": 0.17734375000000568,
      "endTime": 183.17734375
    },
    {
      "instrumentId": 1,
      "instrumentName": "Instrument_1",
      "isPercussion": false,
      "pitch": 61,
      "velocity": 96,
      "startTime": 183.0,
      "duration": 0.17734375000000568,
      "endTime": 183.17734375
    },
    {
      "instrumentId": 1,
      "instrumentName": "Instrument_1",
      "isPercussion": false,
      "pitch": 57,
      "velocity": 96,
      "startTime": 183.5625,
      "duration": 0.17734375000000568,
      "endTime": 183.73984375
    },
    {
      "instrumentId": 1,
      "instrumentName": "Instrument_1",
      "isPercussion": false,
      "pitch": 64,
      "velocity": 96,
      "startTime": 183.5625,
      "duration": 0.17734375000000568,
      "endTime": 183.73984375
    },
    {
      "instrumentId": 0,
      "instrumentName": "Instrument_0",
      "isPercussion": false,
      "pitch": 76,
      "velocity": 96,
      "startTime": 184.125,
      "duration": 0.17734375000000568,
      "endTime": 184.30234375
    },
    {
      "instrumentId": 1,
      "instrumentName": "Instrument_1",
      "isPercussion": false,
      "pitch": 57,
      "velocity": 96,
      "startTime": 184.125,
      "duration": 0.17734375000000568,
      "endTime": 184.30234375
    },
    {
      "instrumentId": 1,
      "instrumentName": "Instrument_1",
      "isPercussion": false,
      "pitch": 61,
      "velocity": 96,
      "startTime": 184.125,
      "duration": 0.17734375000000568,
      "endTime": 184.30234375
    },
    {
      "instrumentId": 0,
      "instrumentName": "Instrument_0",
      "isPercussion": false,
      "pitch": 78,
      "velocity": 96,
      "startTime": 184.3125,
      "duration": 0.17734375000000568,
      "endTime": 184.48984375
    },
    {
      "instrumentId": 0,
      "instrumentName": "Instrument_0",
      "isPercussion": false,
      "pitch": 76,
      "velocity": 96,
      "startTime": 184.5,
      "duration": 0.35546875,
      "endTime": 184.85546875
    },
    {
      "instrumentId": 0,
      "instrumentName": "Instrument_0",
      "isPercussion": false,
      "pitch": 80,
      "velocity": 96,
      "startTime": 184.5,
      "duration": 0.35546875,
      "endTime": 184.85546875
    },
    {
      "instrumentId": 1,
      "instrumentName": "Instrument_1",
      "isPercussion": false,
      "pitch": 54,
      "velocity": 96,
      "startTime": 184.5,
      "duration": 0.17734375000000568,
      "endTime": 184.67734375
    },
    {
      "instrumentId": 1,
      "instrumentName": "Instrument_1",
      "isPercussion": false,
      "pitch": 59,
      "velocity": 96,
      "startTime": 184.5,
      "duration": 0.17734375000000568,
      "endTime": 184.67734375
    },
    {
      "instrumentId": 1,
      "instrumentName": "Instrument_1",
      "isPercussion": false,
      "pitch": 63,
      "velocity": 96,
      "startTime": 184.5,
      "duration": 0.17734375000000568,
      "endTime": 184.67734375
    },
    {
      "instrumentId": 0,
      "instrumentName": "Instrument_0",
      "isPercussion": false,
      "pitch": 78,
      "velocity": 96,
      "startTime": 184.875,
      "duration": 0.17734375000000568,
      "endTime": 185.05234375
    },
    {
      "instrumentId": 0,
      "instrumentName": "Instrument_0",
      "isPercussion": false,
      "pitch": 76,
      "velocity": 96,
      "startTime": 185.0625,
      "duration": 0.17734375000000568,
      "endTime": 185.23984375
    },
    {
      "instrumentId": 1,
      "instrumentName": "Instrument_1",
      "isPercussion": false,
      "pitch": 54,
      "velocity": 96,
      "startTime": 185.0625,
      "duration": 0.17734375000000568,
      "endTime": 185.23984375
    },
    {
      "instrumentId": 1,
      "instrumentName": "Instrument_1",
      "isPercussion": false,
      "pitch": 59,
      "velocity": 96,
      "startTime": 185.0625,
      "duration": 0.17734375000000568,
      "endTime": 185.23984375
    },
    {
      "instrumentId": 1,
      "instrumentName": "Instrument_1",
      "isPercussion": false,
      "pitch": 61,
      "velocity": 96,
      "startTime": 185.0625,
      "duration": 0.17734375000000568,
      "endTime": 185.23984375
    },
    {
      "instrumentId": 0,
      "instrumentName": "Instrument_0",
      "isPercussion": false,
      "pitch": 75,
      "velocity": 96,
      "startTime": 185.25,
      "duration": 0.5335937500000227,
      "endTime": 185.78359375000002
    },
    {
      "instrumentId": 0,
      "instrumentName": "Instrument_0",
      "isPercussion": false,
      "pitch": 78,
      "velocity": 96,
      "startTime": 185.25,
      "duration": 0.5335937500000227,
      "endTime": 185.78359375000002
    },
    {
      "instrumentId": 1,
      "instrumentName": "Instrument_1",
      "isPercussion": false,
      "pitch": 54,
      "velocity": 96,
      "startTime": 185.625,
      "duration": 0.17734375000000568,
      "endTime": 185.80234375
    },
    {
      "instrumentId": 1,
      "instrumentName": "Instrument_1",
      "isPercussion": false,
      "pitch": 59,
      "velocity": 96,
      "startTime": 185.625,
      "duration": 0.17734375000000568,
      "endTime": 185.80234375
    },
    {
      "instrumentId": 0,
      "instrumentName": "Instrument_0",
      "isPercussion": false,
      "pitch": 73,
      "velocity": 96,
      "startTime": 185.8125,
      "duration": 0.17734375000000568,
      "endTime": 185.98984375
    },
    {
      "instrumentId": 0,
      "instrumentName": "Instrument_0",
      "isPercussion": false,
      "pitch": 68,
      "velocity": 96,
      "startTime": 186.0,
      "duration": 0.35546875,
      "endTime": 186.35546875
    },
    {
      "instrumentId": 0,
      "instrumentName": "Instrument_0",
      "isPercussion": false,
      "pitch": 73,
      "velocity": 96,
      "startTime": 186.0,
      "duration": 0.35546875,
      "endTime": 186.35546875
    },
    {
      "instrumentId": 1,
      "instrumentName": "Instrument_1",
      "isPercussion": false,
      "pitch": 56,
      "velocity": 96,
      "startTime": 186.0,
      "duration": 0.17734375000000568,
      "endTime": 186.17734375
    },
    {
      "instrumentId": 1,
      "instrumentName": "Instrument_1",
      "isPercussion": false,
      "pitch": 61,
      "velocity": 96,
      "startTime": 186.0,
      "duration": 0.17734375000000568,
      "endTime": 186.17734375
    },
    {
      "instrumentId": 0,
      "instrumentName": "Instrument_0",
      "isPercussion": false,
      "pitch": 68,
      "velocity": 96,
      "startTime": 186.375,
      "duration": 0.35546875,
      "endTime": 186.73046875
    },
    {
      "instrumentId": 0,
      "instrumentName": "Instrument_0",
      "isPercussion": false,
      "pitch": 73,
      "velocity": 96,
      "startTime": 186.375,
      "duration": 0.35546875,
      "endTime": 186.73046875
    },
    {
      "instrumentId": 1,
      "instrumentName": "Instrument_1",
      "isPercussion": false,
      "pitch": 56,
      "velocity": 96,
      "startTime": 186.5625,
      "duration": 0.17734375000000568,
      "endTime": 186.73984375
    },
    {
      "instrumentId": 1,
      "instrumentName": "Instrument_1",
      "isPercussion": false,
      "pitch": 64,
      "velocity": 96,
      "startTime": 186.5625,
      "duration": 0.17734375000000568,
      "endTime": 186.73984375
    },
    {
      "instrumentId": 0,
      "instrumentName": "Instrument_0",
      "isPercussion": false,
      "pitch": 68,
      "velocity": 96,
      "startTime": 186.75,
      "duration": 0.35546875,
      "endTime": 187.10546875
    },
    {
      "instrumentId": 0,
      "instrumentName": "Instrument_0",
      "isPercussion": false,
      "pitch": 76,
      "velocity": 96,
      "startTime": 186.75,
      "duration": 0.35546875,
      "endTime": 187.10546875
    },
    {
      "instrumentId": 0,
      "instrumentName": "Instrument_0",
      "isPercussion": false,
      "pitch": 68,
      "velocity": 96,
      "startTime": 187.125,
      "duration": 0.35546875,
      "endTime": 187.48046875
    },
    {
      "instrumentId": 0,
      "instrumentName": "Instrument_0",
      "isPercussion": false,
      "pitch": 76,
      "velocity": 96,
      "startTime": 187.125,
      "duration": 0.35546875,
      "endTime": 187.48046875
    },
    {
      "instrumentId": 1,
      "instrumentName": "Instrument_1",
      "isPercussion": false,
      "pitch": 56,
      "velocity": 96,
      "startTime": 187.125,
      "duration": 0.17734375000000568,
      "endTime": 187.30234375
    },
    {
      "instrumentId": 1,
      "instrumentName": "Instrument_1",
      "isPercussion": false,
      "pitch": 61,
      "velocity": 96,
      "startTime": 187.125,
      "duration": 0.17734375000000568,
      "endTime": 187.30234375
    },
    {
      "instrumentId": 0,
      "instrumentName": "Instrument_0",
      "isPercussion": false,
      "pitch": 69,
      "velocity": 96,
      "startTime": 187.5,
      "duration": 0.35546875,
      "endTime": 187.85546875
    },
    {
      "instrumentId": 0,
      "instrumentName": "Instrument_0",
      "isPercussion": false,
      "pitch": 78,
      "velocity": 96,
      "startTime": 187.5,
      "duration": 0.35546875,
      "endTime": 187.85546875
    },
    {
      "instrumentId": 1,
      "instrumentName": "Instrument_1",
      "isPercussion": false,
      "pitch": 54,
      "velocity": 96,
      "startTime": 187.5,
      "duration": 0.17734375000000568,
      "endTime": 187.67734375
    },
    {
      "instrumentId": 1,
      "instrumentName": "Instrument_1",
      "isPercussion": false,
      "pitch": 61,
      "velocity": 96,
      "startTime": 187.5,
      "duration": 0.17734375000000568,
      "endTime": 187.67734375
    },
    {
      "instrumentId": 0,
      "instrumentName": "Instrument_0",
      "isPercussion": false,
      "pitch": 69,
      "velocity": 96,
      "startTime": 187.875,
      "duration": 0.35546875,
      "endTime": 188.23046875
    },
    {
      "instrumentId": 0,
      "instrumentName": "Instrument_0",
      "isPercussion": false,
      "pitch": 78,
      "velocity": 96,
      "startTime": 187.875,
      "duration": 0.35546875,
      "endTime": 188.23046875
    },
    {
      "instrumentId": 1,
      "instrumentName": "Instrument_1",
      "isPercussion": false,
      "pitch": 54,
      "velocity": 96,
      "startTime": 188.0625,
      "duration": 0.17734375000000568,
      "endTime": 188.23984375
    },
    {
      "instrumentId": 1,
      "instrumentName": "Instrument_1",
      "isPercussion": false,
      "pitch": 64,
      "velocity": 96,
      "startTime": 188.0625,
      "duration": 0.17734375000000568,
      "endTime": 188.23984375
    },
    {
      "instrumentId": 0,
      "instrumentName": "Instrument_0",
      "isPercussion": false,
      "pitch": 69,
      "velocity": 96,
      "startTime": 188.25,
      "duration": 0.35546875,
      "endTime": 188.60546875
    },
    {
      "instrumentId": 0,
      "instrumentName": "Instrument_0",
      "isPercussion": false,
      "pitch": 80,
      "velocity": 96,
      "startTime": 188.25,
      "duration": 0.35546875,
      "endTime": 188.60546875
    },
    {
      "instrumentId": 0,
      "instrumentName": "Instrument_0",
      "isPercussion": false,
      "pitch": 69,
      "velocity": 96,
      "startTime": 188.625,
      "duration": 1.4242187500000227,
      "endTime": 190.04921875000002
    },
    {
      "instrumentId": 0,
      "instrumentName": "Instrument_0",
      "isPercussion": false,
      "pitch": 80,
      "velocity": 96,
      "startTime": 188.625,
      "duration": 1.4242187500000227,
      "endTime": 190.04921875000002
    },
    {
      "instrumentId": 1,
      "instrumentName": "Instrument_1",
      "isPercussion": false,
      "pitch": 54,
      "velocity": 96,
      "startTime": 188.625,
      "duration": 0.17734375000000568,
      "endTime": 188.80234375
    },
    {
      "instrumentId": 1,
      "instrumentName": "Instrument_1",
      "isPercussion": false,
      "pitch": 61,
      "velocity": 96,
      "startTime": 188.625,
      "duration": 0.17734375000000568,
      "endTime": 188.80234375
    },
    {
      "instrumentId": 1,
      "instrumentName": "Instrument_1",
      "isPercussion": false,
      "pitch": 57,
      "velocity": 96,
      "startTime": 189.0,
      "duration": 0.17734375000000568,
      "endTime": 189.17734375
    },
    {
      "instrumentId": 1,
      "instrumentName": "Instrument_1",
      "isPercussion": false,
      "pitch": 61,
      "velocity": 96,
      "startTime": 189.0,
      "duration": 0.17734375000000568,
      "endTime": 189.17734375
    },
    {
      "instrumentId": 1,
      "instrumentName": "Instrument_1",
      "isPercussion": false,
      "pitch": 57,
      "velocity": 96,
      "startTime": 189.5625,
      "duration": 0.17734375000000568,
      "endTime": 189.73984375
    },
    {
      "instrumentId": 1,
      "instrumentName": "Instrument_1",
      "isPercussion": false,
      "pitch": 64,
      "velocity": 96,
      "startTime": 189.5625,
      "duration": 0.17734375000000568,
      "endTime": 189.73984375
    },
    {
      "instrumentId": 0,
      "instrumentName": "Instrument_0",
      "isPercussion": false,
      "pitch": 76,
      "velocity": 96,
      "startTime": 190.125,
      "duration": 0.17734375000000568,
      "endTime": 190.30234375
    },
    {
      "instrumentId": 1,
      "instrumentName": "Instrument_1",
      "isPercussion": false,
      "pitch": 57,
      "velocity": 96,
      "startTime": 190.125,
      "duration": 0.17734375000000568,
      "endTime": 190.30234375
    },
    {
      "instrumentId": 1,
      "instrumentName": "Instrument_1",
      "isPercussion": false,
      "pitch": 61,
      "velocity": 96,
      "startTime": 190.125,
      "duration": 0.17734375000000568,
      "endTime": 190.30234375
    },
    {
      "instrumentId": 0,
      "instrumentName": "Instrument_0",
      "isPercussion": false,
      "pitch": 78,
      "velocity": 96,
      "startTime": 190.3125,
      "duration": 0.17734375000000568,
      "endTime": 190.48984375
    },
    {
      "instrumentId": 0,
      "instrumentName": "Instrument_0",
      "isPercussion": false,
      "pitch": 76,
      "velocity": 96,
      "startTime": 190.5,
      "duration": 0.35546875,
      "endTime": 190.85546875
    },
    {
      "instrumentId": 0,
      "instrumentName": "Instrument_0",
      "isPercussion": false,
      "pitch": 80,
      "velocity": 96,
      "startTime": 190.5,
      "duration": 0.35546875,
      "endTime": 190.85546875
    },
    {
      "instrumentId": 1,
      "instrumentName": "Instrument_1",
      "isPercussion": false,
      "pitch": 54,
      "velocity": 96,
      "startTime": 190.5,
      "duration": 0.17734375000000568,
      "endTime": 190.67734375
    },
    {
      "instrumentId": 1,
      "instrumentName": "Instrument_1",
      "isPercussion": false,
      "pitch": 59,
      "velocity": 96,
      "startTime": 190.5,
      "duration": 0.17734375000000568,
      "endTime": 190.67734375
    },
    {
      "instrumentId": 1,
      "instrumentName": "Instrument_1",
      "isPercussion": false,
      "pitch": 63,
      "velocity": 96,
      "startTime": 190.5,
      "duration": 0.17734375000000568,
      "endTime": 190.67734375
    },
    {
      "instrumentId": 0,
      "instrumentName": "Instrument_0",
      "isPercussion": false,
      "pitch": 78,
      "velocity": 96,
      "startTime": 190.875,
      "duration": 0.17734375000000568,
      "endTime": 191.05234375
    },
    {
      "instrumentId": 0,
      "instrumentName": "Instrument_0",
      "isPercussion": false,
      "pitch": 76,
      "velocity": 96,
      "startTime": 191.0625,
      "duration": 0.17734375000000568,
      "endTime": 191.23984375
    },
    {
      "instrumentId": 1,
      "instrumentName": "Instrument_1",
      "isPercussion": false,
      "pitch": 54,
      "velocity": 96,
      "startTime": 191.0625,
      "duration": 0.17734375000000568,
      "endTime": 191.23984375
    },
    {
      "instrumentId": 1,
      "instrumentName": "Instrument_1",
      "isPercussion": false,
      "pitch": 59,
      "velocity": 96,
      "startTime": 191.0625,
      "duration": 0.17734375000000568,
      "endTime": 191.23984375
    },
    {
      "instrumentId": 1,
      "instrumentName": "Instrument_1",
      "isPercussion": false,
      "pitch": 61,
      "velocity": 96,
      "startTime": 191.0625,
      "duration": 0.17734375000000568,
      "endTime": 191.23984375
    },
    {
      "instrumentId": 0,
      "instrumentName": "Instrument_0",
      "isPercussion": false,
      "pitch": 75,
      "velocity": 96,
      "startTime": 191.25,
      "duration": 0.5335937500000227,
      "endTime": 191.78359375000002
    },
    {
      "instrumentId": 0,
      "instrumentName": "Instrument_0",
      "isPercussion": false,
      "pitch": 78,
      "velocity": 96,
      "startTime": 191.25,
      "duration": 0.5335937500000227,
      "endTime": 191.78359375000002
    },
    {
      "instrumentId": 1,
      "instrumentName": "Instrument_1",
      "isPercussion": false,
      "pitch": 54,
      "velocity": 96,
      "startTime": 191.625,
      "duration": 0.17734375000000568,
      "endTime": 191.80234375
    },
    {
      "instrumentId": 1,
      "instrumentName": "Instrument_1",
      "isPercussion": false,
      "pitch": 59,
      "velocity": 96,
      "startTime": 191.625,
      "duration": 0.17734375000000568,
      "endTime": 191.80234375
    },
    {
      "instrumentId": 0,
      "instrumentName": "Instrument_0",
      "isPercussion": false,
      "pitch": 73,
      "velocity": 96,
      "startTime": 191.8125,
      "duration": 0.17734375000000568,
      "endTime": 191.98984375
    },
    {
      "instrumentId": 0,
      "instrumentName": "Instrument_0",
      "isPercussion": false,
      "pitch": 68,
      "velocity": 96,
      "startTime": 192.0,
      "duration": 0.35546875,
      "endTime": 192.35546875
    },
    {
      "instrumentId": 0,
      "instrumentName": "Instrument_0",
      "isPercussion": false,
      "pitch": 73,
      "velocity": 96,
      "startTime": 192.0,
      "duration": 0.35546875,
      "endTime": 192.35546875
    },
    {
      "instrumentId": 1,
      "instrumentName": "Instrument_1",
      "isPercussion": false,
      "pitch": 56,
      "velocity": 96,
      "startTime": 192.0,
      "duration": 0.17734375000000568,
      "endTime": 192.17734375
    },
    {
      "instrumentId": 1,
      "instrumentName": "Instrument_1",
      "isPercussion": false,
      "pitch": 61,
      "velocity": 96,
      "startTime": 192.0,
      "duration": 0.17734375000000568,
      "endTime": 192.17734375
    },
    {
      "instrumentId": 0,
      "instrumentName": "Instrument_0",
      "isPercussion": false,
      "pitch": 68,
      "velocity": 96,
      "startTime": 192.375,
      "duration": 0.35546875,
      "endTime": 192.73046875
    },
    {
      "instrumentId": 0,
      "instrumentName": "Instrument_0",
      "isPercussion": false,
      "pitch": 73,
      "velocity": 96,
      "startTime": 192.375,
      "duration": 0.35546875,
      "endTime": 192.73046875
    },
    {
      "instrumentId": 1,
      "instrumentName": "Instrument_1",
      "isPercussion": false,
      "pitch": 56,
      "velocity": 96,
      "startTime": 192.5625,
      "duration": 0.17734375000000568,
      "endTime": 192.73984375
    },
    {
      "instrumentId": 1,
      "instrumentName": "Instrument_1",
      "isPercussion": false,
      "pitch": 64,
      "velocity": 96,
      "startTime": 192.5625,
      "duration": 0.17734375000000568,
      "endTime": 192.73984375
    },
    {
      "instrumentId": 0,
      "instrumentName": "Instrument_0",
      "isPercussion": false,
      "pitch": 68,
      "velocity": 96,
      "startTime": 192.75,
      "duration": 0.35546875,
      "endTime": 193.10546875
    },
    {
      "instrumentId": 0,
      "instrumentName": "Instrument_0",
      "isPercussion": false,
      "pitch": 76,
      "velocity": 96,
      "startTime": 192.75,
      "duration": 0.35546875,
      "endTime": 193.10546875
    },
    {
      "instrumentId": 0,
      "instrumentName": "Instrument_0",
      "isPercussion": false,
      "pitch": 68,
      "velocity": 96,
      "startTime": 193.125,
      "duration": 0.35546875,
      "endTime": 193.48046875
    },
    {
      "instrumentId": 0,
      "instrumentName": "Instrument_0",
      "isPercussion": false,
      "pitch": 76,
      "velocity": 96,
      "startTime": 193.125,
      "duration": 0.35546875,
      "endTime": 193.48046875
    },
    {
      "instrumentId": 1,
      "instrumentName": "Instrument_1",
      "isPercussion": false,
      "pitch": 56,
      "velocity": 96,
      "startTime": 193.125,
      "duration": 0.17734375000000568,
      "endTime": 193.30234375
    },
    {
      "instrumentId": 1,
      "instrumentName": "Instrument_1",
      "isPercussion": false,
      "pitch": 61,
      "velocity": 96,
      "startTime": 193.125,
      "duration": 0.17734375000000568,
      "endTime": 193.30234375
    },
    {
      "instrumentId": 0,
      "instrumentName": "Instrument_0",
      "isPercussion": false,
      "pitch": 69,
      "velocity": 96,
      "startTime": 193.5,
      "duration": 0.35546875,
      "endTime": 193.85546875
    },
    {
      "instrumentId": 0,
      "instrumentName": "Instrument_0",
      "isPercussion": false,
      "pitch": 78,
      "velocity": 96,
      "startTime": 193.5,
      "duration": 0.35546875,
      "endTime": 193.85546875
    },
    {
      "instrumentId": 1,
      "instrumentName": "Instrument_1",
      "isPercussion": false,
      "pitch": 54,
      "velocity": 96,
      "startTime": 193.5,
      "duration": 0.17734375000000568,
      "endTime": 193.67734375
    },
    {
      "instrumentId": 1,
      "instrumentName": "Instrument_1",
      "isPercussion": false,
      "pitch": 61,
      "velocity": 96,
      "startTime": 193.5,
      "duration": 0.17734375000000568,
      "endTime": 193.67734375
    },
    {
      "instrumentId": 0,
      "instrumentName": "Instrument_0",
      "isPercussion": false,
      "pitch": 69,
      "velocity": 96,
      "startTime": 193.875,
      "duration": 0.35546875,
      "endTime": 194.23046875
    },
    {
      "instrumentId": 0,
      "instrumentName": "Instrument_0",
      "isPercussion": false,
      "pitch": 78,
      "velocity": 96,
      "startTime": 193.875,
      "duration": 0.35546875,
      "endTime": 194.23046875
    },
    {
      "instrumentId": 1,
      "instrumentName": "Instrument_1",
      "isPercussion": false,
      "pitch": 54,
      "velocity": 96,
      "startTime": 194.0625,
      "duration": 0.17734375000000568,
      "endTime": 194.23984375
    },
    {
      "instrumentId": 1,
      "instrumentName": "Instrument_1",
      "isPercussion": false,
      "pitch": 64,
      "velocity": 96,
      "startTime": 194.0625,
      "duration": 0.17734375000000568,
      "endTime": 194.23984375
    },
    {
      "instrumentId": 0,
      "instrumentName": "Instrument_0",
      "isPercussion": false,
      "pitch": 69,
      "velocity": 96,
      "startTime": 194.25,
      "duration": 0.35546875,
      "endTime": 194.60546875
    },
    {
      "instrumentId": 0,
      "instrumentName": "Instrument_0",
      "isPercussion": false,
      "pitch": 80,
      "velocity": 96,
      "startTime": 194.25,
      "duration": 0.35546875,
      "endTime": 194.60546875
    },
    {
      "instrumentId": 0,
      "instrumentName": "Instrument_0",
      "isPercussion": false,
      "pitch": 69,
      "velocity": 96,
      "startTime": 194.625,
      "duration": 1.4242187500000227,
      "endTime": 196.04921875000002
    },
    {
      "instrumentId": 0,
      "instrumentName": "Instrument_0",
      "isPercussion": false,
      "pitch": 80,
      "velocity": 96,
      "startTime": 194.625,
      "duration": 1.4242187500000227,
      "endTime": 196.04921875000002
    },
    {
      "instrumentId": 1,
      "instrumentName": "Instrument_1",
      "isPercussion": false,
      "pitch": 54,
      "velocity": 96,
      "startTime": 194.625,
      "duration": 0.17734375000000568,
      "endTime": 194.80234375
    },
    {
      "instrumentId": 1,
      "instrumentName": "Instrument_1",
      "isPercussion": false,
      "pitch": 61,
      "velocity": 96,
      "startTime": 194.625,
      "duration": 0.17734375000000568,
      "endTime": 194.80234375
    },
    {
      "instrumentId": 1,
      "instrumentName": "Instrument_1",
      "isPercussion": false,
      "pitch": 57,
      "velocity": 96,
      "startTime": 195.0,
      "duration": 0.17734375000000568,
      "endTime": 195.17734375
    },
    {
      "instrumentId": 1,
      "instrumentName": "Instrument_1",
      "isPercussion": false,
      "pitch": 61,
      "velocity": 96,
      "startTime": 195.0,
      "duration": 0.17734375000000568,
      "endTime": 195.17734375
    },
    {
      "instrumentId": 1,
      "instrumentName": "Instrument_1",
      "isPercussion": false,
      "pitch": 57,
      "velocity": 96,
      "startTime": 195.5625,
      "duration": 0.17734375000000568,
      "endTime": 195.73984375
    },
    {
      "instrumentId": 1,
      "instrumentName": "Instrument_1",
      "isPercussion": false,
      "pitch": 64,
      "velocity": 96,
      "startTime": 195.5625,
      "duration": 0.17734375000000568,
      "endTime": 195.73984375
    },
    {
      "instrumentId": 0,
      "instrumentName": "Instrument_0",
      "isPercussion": false,
      "pitch": 76,
      "velocity": 96,
      "startTime": 196.125,
      "duration": 0.17734375000000568,
      "endTime": 196.30234375
    },
    {
      "instrumentId": 1,
      "instrumentName": "Instrument_1",
      "isPercussion": false,
      "pitch": 57,
      "velocity": 96,
      "startTime": 196.125,
      "duration": 0.17734375000000568,
      "endTime": 196.30234375
    },
    {
      "instrumentId": 1,
      "instrumentName": "Instrument_1",
      "isPercussion": false,
      "pitch": 61,
      "velocity": 96,
      "startTime": 196.125,
      "duration": 0.17734375000000568,
      "endTime": 196.30234375
    },
    {
      "instrumentId": 0,
      "instrumentName": "Instrument_0",
      "isPercussion": false,
      "pitch": 78,
      "velocity": 96,
      "startTime": 196.3125,
      "duration": 0.17734375000000568,
      "endTime": 196.48984375
    },
    {
      "instrumentId": 0,
      "instrumentName": "Instrument_0",
      "isPercussion": false,
      "pitch": 76,
      "velocity": 96,
      "startTime": 196.5,
      "duration": 0.35546875,
      "endTime": 196.85546875
    },
    {
      "instrumentId": 0,
      "instrumentName": "Instrument_0",
      "isPercussion": false,
      "pitch": 80,
      "velocity": 96,
      "startTime": 196.5,
      "duration": 0.35546875,
      "endTime": 196.85546875
    },
    {
      "instrumentId": 1,
      "instrumentName": "Instrument_1",
      "isPercussion": false,
      "pitch": 54,
      "velocity": 96,
      "startTime": 196.5,
      "duration": 0.17734375000000568,
      "endTime": 196.67734375
    },
    {
      "instrumentId": 1,
      "instrumentName": "Instrument_1",
      "isPercussion": false,
      "pitch": 59,
      "velocity": 96,
      "startTime": 196.5,
      "duration": 0.17734375000000568,
      "endTime": 196.67734375
    },
    {
      "instrumentId": 1,
      "instrumentName": "Instrument_1",
      "isPercussion": false,
      "pitch": 63,
      "velocity": 96,
      "startTime": 196.5,
      "duration": 0.17734375000000568,
      "endTime": 196.67734375
    },
    {
      "instrumentId": 0,
      "instrumentName": "Instrument_0",
      "isPercussion": false,
      "pitch": 78,
      "velocity": 96,
      "startTime": 196.875,
      "duration": 0.17734375000000568,
      "endTime": 197.05234375
    },
    {
      "instrumentId": 0,
      "instrumentName": "Instrument_0",
      "isPercussion": false,
      "pitch": 76,
      "velocity": 96,
      "startTime": 197.0625,
      "duration": 0.17734375000000568,
      "endTime": 197.23984375
    },
    {
      "instrumentId": 1,
      "instrumentName": "Instrument_1",
      "isPercussion": false,
      "pitch": 54,
      "velocity": 96,
      "startTime": 197.0625,
      "duration": 0.17734375000000568,
      "endTime": 197.23984375
    },
    {
      "instrumentId": 1,
      "instrumentName": "Instrument_1",
      "isPercussion": false,
      "pitch": 59,
      "velocity": 96,
      "startTime": 197.0625,
      "duration": 0.17734375000000568,
      "endTime": 197.23984375
    },
    {
      "instrumentId": 1,
      "instrumentName": "Instrument_1",
      "isPercussion": false,
      "pitch": 61,
      "velocity": 96,
      "startTime": 197.0625,
      "duration": 0.17734375000000568,
      "endTime": 197.23984375
    },
    {
      "instrumentId": 0,
      "instrumentName": "Instrument_0",
      "isPercussion": false,
      "pitch": 75,
      "velocity": 96,
      "startTime": 197.25,
      "duration": 0.5335937500000227,
      "endTime": 197.78359375000002
    },
    {
      "instrumentId": 0,
      "instrumentName": "Instrument_0",
      "isPercussion": false,
      "pitch": 78,
      "velocity": 96,
      "startTime": 197.25,
      "duration": 0.5335937500000227,
      "endTime": 197.78359375000002
    },
    {
      "instrumentId": 1,
      "instrumentName": "Instrument_1",
      "isPercussion": false,
      "pitch": 54,
      "velocity": 96,
      "startTime": 197.625,
      "duration": 0.17734375000000568,
      "endTime": 197.80234375
    },
    {
      "instrumentId": 1,
      "instrumentName": "Instrument_1",
      "isPercussion": false,
      "pitch": 59,
      "velocity": 96,
      "startTime": 197.625,
      "duration": 0.17734375000000568,
      "endTime": 197.80234375
    },
    {
      "instrumentId": 0,
      "instrumentName": "Instrument_0",
      "isPercussion": false,
      "pitch": 68,
      "velocity": 96,
      "startTime": 197.8125,
      "duration": 0.5335937500000227,
      "endTime": 198.34609375000002
    },
    {
      "instrumentId": 0,
      "instrumentName": "Instrument_0",
      "isPercussion": false,
      "pitch": 73,
      "velocity": 96,
      "startTime": 197.8125,
      "duration": 0.5335937500000227,
      "endTime": 198.34609375000002
    },
    {
      "instrumentId": 1,
      "instrumentName": "Instrument_1",
      "isPercussion": false,
      "pitch": 56,
      "velocity": 96,
      "startTime": 198.0,
      "duration": 0.17734375000000568,
      "endTime": 198.17734375
    },
    {
      "instrumentId": 1,
      "instrumentName": "Instrument_1",
      "isPercussion": false,
      "pitch": 61,
      "velocity": 96,
      "startTime": 198.0,
      "duration": 0.17734375000000568,
      "endTime": 198.17734375
    },
    {
      "instrumentId": 0,
      "instrumentName": "Instrument_0",
      "isPercussion": false,
      "pitch": 68,
      "velocity": 96,
      "startTime": 198.375,
      "duration": 0.17734375000000568,
      "endTime": 198.55234375
    },
    {
      "instrumentId": 0,
      "instrumentName": "Instrument_0",
      "isPercussion": false,
      "pitch": 73,
      "velocity": 96,
      "startTime": 198.375,
      "duration": 0.17734375000000568,
      "endTime": 198.55234375
    },
    {
      "instrumentId": 0,
      "instrumentName": "Instrument_0",
      "isPercussion": false,
      "pitch": 73,
      "velocity": 96,
      "startTime": 198.5625,
      "duration": 0.17734375000000568,
      "endTime": 198.73984375
    },
    {
      "instrumentId": 1,
      "instrumentName": "Instrument_1",
      "isPercussion": false,
      "pitch": 56,
      "velocity": 96,
      "startTime": 198.5625,
      "duration": 0.17734375000000568,
      "endTime": 198.73984375
    },
    {
      "instrumentId": 1,
      "instrumentName": "Instrument_1",
      "isPercussion": false,
      "pitch": 64,
      "velocity": 96,
      "startTime": 198.5625,
      "duration": 0.17734375000000568,
      "endTime": 198.73984375
    },
    {
      "instrumentId": 0,
      "instrumentName": "Instrument_0",
      "isPercussion": false,
      "pitch": 68,
      "velocity": 96,
      "startTime": 198.75,
      "duration": 0.17734375000000568,
      "endTime": 198.92734375
    },
    {
      "instrumentId": 0,
      "instrumentName": "Instrument_0",
      "isPercussion": false,
      "pitch": 73,
      "velocity": 96,
      "startTime": 198.75,
      "duration": 0.17734375000000568,
      "endTime": 198.92734375
    },
    {
      "instrumentId": 0,
      "instrumentName": "Instrument_0",
      "isPercussion": false,
      "pitch": 73,
      "velocity": 96,
      "startTime": 198.9375,
      "duration": 0.17734375000000568,
      "endTime": 199.11484375
    },
    {
      "instrumentId": 0,
      "instrumentName": "Instrument_0",
      "isPercussion": false,
      "pitch": 73,
      "velocity": 96,
      "startTime": 199.125,
      "duration": 0.17734375000000568,
      "endTime": 199.30234375
    },
    {
      "instrumentId": 0,
      "instrumentName": "Instrument_0",
      "isPercussion": false,
      "pitch": 76,
      "velocity": 96,
      "startTime": 199.125,
      "duration": 0.17734375000000568,
      "endTime": 199.30234375
    },
    {
      "instrumentId": 1,
      "instrumentName": "Instrument_1",
      "isPercussion": false,
      "pitch": 56,
      "velocity": 96,
      "startTime": 199.125,
      "duration": 0.17734375000000568,
      "endTime": 199.30234375
    },
    {
      "instrumentId": 1,
      "instrumentName": "Instrument_1",
      "isPercussion": false,
      "pitch": 61,
      "velocity": 96,
      "startTime": 199.125,
      "duration": 0.17734375000000568,
      "endTime": 199.30234375
    },
    {
      "instrumentId": 0,
      "instrumentName": "Instrument_0",
      "isPercussion": false,
      "pitch": 78,
      "velocity": 96,
      "startTime": 199.3125,
      "duration": 0.17734375000000568,
      "endTime": 199.48984375
    },
    {
      "instrumentId": 0,
      "instrumentName": "Instrument_0",
      "isPercussion": false,
      "pitch": 76,
      "velocity": 96,
      "startTime": 199.5,
      "duration": 0.35546875,
      "endTime": 199.85546875
    },
    {
      "instrumentId": 0,
      "instrumentName": "Instrument_0",
      "isPercussion": false,
      "pitch": 80,
      "velocity": 96,
      "startTime": 199.5,
      "duration": 0.35546875,
      "endTime": 199.85546875
    },
    {
      "instrumentId": 1,
      "instrumentName": "Instrument_1",
      "isPercussion": false,
      "pitch": 54,
      "velocity": 96,
      "startTime": 199.5,
      "duration": 0.17734375000000568,
      "endTime": 199.67734375
    },
    {
      "instrumentId": 1,
      "instrumentName": "Instrument_1",
      "isPercussion": false,
      "pitch": 61,
      "velocity": 96,
      "startTime": 199.5,
      "duration": 0.17734375000000568,
      "endTime": 199.67734375
    },
    {
      "instrumentId": 0,
      "instrumentName": "Instrument_0",
      "isPercussion": false,
      "pitch": 68,
      "velocity": 96,
      "startTime": 199.875,
      "duration": 0.35546875,
      "endTime": 200.23046875
    },
    {
      "instrumentId": 0,
      "instrumentName": "Instrument_0",
      "isPercussion": false,
      "pitch": 73,
      "velocity": 96,
      "startTime": 199.875,
      "duration": 0.35546875,
      "endTime": 200.23046875
    },
    {
      "instrumentId": 1,
      "instrumentName": "Instrument_1",
      "isPercussion": false,
      "pitch": 54,
      "velocity": 96,
      "startTime": 200.0625,
      "duration": 0.17734375000000568,
      "endTime": 200.23984375
    },
    {
      "instrumentId": 1,
      "instrumentName": "Instrument_1",
      "isPercussion": false,
      "pitch": 64,
      "velocity": 96,
      "startTime": 200.0625,
      "duration": 0.17734375000000568,
      "endTime": 200.23984375
    },
    {
      "instrumentId": 0,
      "instrumentName": "Instrument_0",
      "isPercussion": false,
      "pitch": 73,
      "velocity": 96,
      "startTime": 200.25,
      "duration": 0.35546875,
      "endTime": 200.60546875
    },
    {
      "instrumentId": 0,
      "instrumentName": "Instrument_0",
      "isPercussion": false,
      "pitch": 76,
      "velocity": 96,
      "startTime": 200.25,
      "duration": 0.35546875,
      "endTime": 200.60546875
    },
    {
      "instrumentId": 0,
      "instrumentName": "Instrument_0",
      "isPercussion": false,
      "pitch": 75,
      "velocity": 96,
      "startTime": 200.625,
      "duration": 0.35546875,
      "endTime": 200.98046875
    },
    {
      "instrumentId": 0,
      "instrumentName": "Instrument_0",
      "isPercussion": false,
      "pitch": 78,
      "velocity": 96,
      "startTime": 200.625,
      "duration": 0.35546875,
      "endTime": 200.98046875
    },
    {
      "instrumentId": 1,
      "instrumentName": "Instrument_1",
      "isPercussion": false,
      "pitch": 54,
      "velocity": 96,
      "startTime": 200.625,
      "duration": 0.17734375000000568,
      "endTime": 200.80234375
    },
    {
      "instrumentId": 1,
      "instrumentName": "Instrument_1",
      "isPercussion": false,
      "pitch": 61,
      "velocity": 96,
      "startTime": 200.625,
      "duration": 0.17734375000000568,
      "endTime": 200.80234375
    },
    {
      "instrumentId": 0,
      "instrumentName": "Instrument_0",
      "isPercussion": false,
      "pitch": 75,
      "velocity": 96,
      "startTime": 201.0,
      "duration": 1.0679687500000057,
      "endTime": 202.06796875
    },
    {
      "instrumentId": 0,
      "instrumentName": "Instrument_0",
      "isPercussion": false,
      "pitch": 78,
      "velocity": 96,
      "startTime": 201.0,
      "duration": 1.0679687500000057,
      "endTime": 202.06796875
    },
    {
      "instrumentId": 1,
      "instrumentName": "Instrument_1",
      "isPercussion": false,
      "pitch": 57,
      "velocity": 96,
      "startTime": 201.0,
      "duration": 0.17734375000000568,
      "endTime": 201.17734375
    },
    {
      "instrumentId": 1,
      "instrumentName": "Instrument_1",
      "isPercussion": false,
      "pitch": 61,
      "velocity": 96,
      "startTime": 201.0,
      "duration": 0.17734375000000568,
      "endTime": 201.17734375
    },
    {
      "instrumentId": 1,
      "instrumentName": "Instrument_1",
      "isPercussion": false,
      "pitch": 57,
      "velocity": 96,
      "startTime": 201.5625,
      "duration": 0.17734375000000568,
      "endTime": 201.73984375
    },
    {
      "instrumentId": 1,
      "instrumentName": "Instrument_1",
      "isPercussion": false,
      "pitch": 64,
      "velocity": 96,
      "startTime": 201.5625,
      "duration": 0.17734375000000568,
      "endTime": 201.73984375
    },
    {
      "instrumentId": 0,
      "instrumentName": "Instrument_0",
      "isPercussion": false,
      "pitch": 76,
      "velocity": 96,
      "startTime": 202.125,
      "duration": 0.17734375000000568,
      "endTime": 202.30234375
    },
    {
      "instrumentId": 1,
      "instrumentName": "Instrument_1",
      "isPercussion": false,
      "pitch": 57,
      "velocity": 96,
      "startTime": 202.125,
      "duration": 0.17734375000000568,
      "endTime": 202.30234375
    },
    {
      "instrumentId": 1,
      "instrumentName": "Instrument_1",
      "isPercussion": false,
      "pitch": 61,
      "velocity": 96,
      "startTime": 202.125,
      "duration": 0.17734375000000568,
      "endTime": 202.30234375
    },
    {
      "instrumentId": 0,
      "instrumentName": "Instrument_0",
      "isPercussion": false,
      "pitch": 78,
      "velocity": 96,
      "startTime": 202.3125,
      "duration": 0.17734375000000568,
      "endTime": 202.48984375
    },
    {
      "instrumentId": 0,
      "instrumentName": "Instrument_0",
      "isPercussion": false,
      "pitch": 76,
      "velocity": 96,
      "startTime": 202.5,
      "duration": 0.35546875,
      "endTime": 202.85546875
    },
    {
      "instrumentId": 0,
      "instrumentName": "Instrument_0",
      "isPercussion": false,
      "pitch": 80,
      "velocity": 96,
      "startTime": 202.5,
      "duration": 0.35546875,
      "endTime": 202.85546875
    },
    {
      "instrumentId": 1,
      "instrumentName": "Instrument_1",
      "isPercussion": false,
      "pitch": 54,
      "velocity": 96,
      "startTime": 202.5,
      "duration": 0.17734375000000568,
      "endTime": 202.67734375
    },
    {
      "instrumentId": 1,
      "instrumentName": "Instrument_1",
      "isPercussion": false,
      "pitch": 59,
      "velocity": 96,
      "startTime": 202.5,
      "duration": 0.17734375000000568,
      "endTime": 202.67734375
    },
    {
      "instrumentId": 1,
      "instrumentName": "Instrument_1",
      "isPercussion": false,
      "pitch": 63,
      "velocity": 96,
      "startTime": 202.5,
      "duration": 0.17734375000000568,
      "endTime": 202.67734375
    },
    {
      "instrumentId": 0,
      "instrumentName": "Instrument_0",
      "isPercussion": false,
      "pitch": 78,
      "velocity": 96,
      "startTime": 202.875,
      "duration": 0.17734375000000568,
      "endTime": 203.05234375
    },
    {
      "instrumentId": 0,
      "instrumentName": "Instrument_0",
      "isPercussion": false,
      "pitch": 76,
      "velocity": 96,
      "startTime": 203.0625,
      "duration": 0.17734375000000568,
      "endTime": 203.23984375
    },
    {
      "instrumentId": 0,
      "instrumentName": "Instrument_0",
      "isPercussion": false,
      "pitch": 73,
      "velocity": 96,
      "startTime": 203.25,
      "duration": 0.35546875,
      "endTime": 203.60546875
    },
    {
      "instrumentId": 0,
      "instrumentName": "Instrument_0",
      "isPercussion": false,
      "pitch": 76,
      "velocity": 96,
      "startTime": 203.25,
      "duration": 0.35546875,
      "endTime": 203.60546875
    },
    {
      "instrumentId": 1,
      "instrumentName": "Instrument_1",
      "isPercussion": false,
      "pitch": 54,
      "velocity": 96,
      "startTime": 203.25,
      "duration": 0.17734375000000568,
      "endTime": 203.42734375
    },
    {
      "instrumentId": 1,
      "instrumentName": "Instrument_1",
      "isPercussion": false,
      "pitch": 59,
      "velocity": 96,
      "startTime": 203.25,
      "duration": 0.17734375000000568,
      "endTime": 203.42734375
    },
    {
      "instrumentId": 1,
      "instrumentName": "Instrument_1",
      "isPercussion": false,
      "pitch": 61,
      "velocity": 96,
      "startTime": 203.25,
      "duration": 0.17734375000000568,
      "endTime": 203.42734375
    },
    {
      "instrumentId": 0,
      "instrumentName": "Instrument_0",
      "isPercussion": false,
      "pitch": 75,
      "velocity": 96,
      "startTime": 203.625,
      "duration": 0.35546875,
      "endTime": 203.98046875
    },
    {
      "instrumentId": 0,
      "instrumentName": "Instrument_0",
      "isPercussion": false,
      "pitch": 78,
      "velocity": 96,
      "startTime": 203.625,
      "duration": 0.35546875,
      "endTime": 203.98046875
    },
    {
      "instrumentId": 1,
      "instrumentName": "Instrument_1",
      "isPercussion": false,
      "pitch": 54,
      "velocity": 96,
      "startTime": 203.8125,
      "duration": 0.17734375000000568,
      "endTime": 203.98984375
    },
    {
      "instrumentId": 1,
      "instrumentName": "Instrument_1",
      "isPercussion": false,
      "pitch": 59,
      "velocity": 96,
      "startTime": 203.8125,
      "duration": 0.17734375000000568,
      "endTime": 203.98984375
    },
    {
      "instrumentId": 0,
      "instrumentName": "Instrument_0",
      "isPercussion": false,
      "pitch": 73,
      "velocity": 64,
      "startTime": 204.0,
      "duration": 0.35546875,
      "endTime": 204.35546875
    },
    {
      "instrumentId": 0,
      "instrumentName": "Instrument_0",
      "isPercussion": false,
      "pitch": 80,
      "velocity": 64,
      "startTime": 204.375,
      "duration": 0.17734375000000568,
      "endTime": 204.55234375
    },
    {
      "instrumentId": 0,
      "instrumentName": "Instrument_0",
      "isPercussion": false,
      "pitch": 80,
      "velocity": 64,
      "startTime": 204.5625,
      "duration": 0.35546875,
      "endTime": 204.91796875
    },
    {
      "instrumentId": 0,
      "instrumentName": "Instrument_0",
      "isPercussion": false,
      "pitch": 78,
      "velocity": 64,
      "startTime": 204.9375,
      "duration": 0.35546875,
      "endTime": 205.29296875
    },
    {
      "instrumentId": 0,
      "instrumentName": "Instrument_0",
      "isPercussion": false,
      "pitch": 76,
      "velocity": 64,
      "startTime": 205.3125,
      "duration": 0.17734375000000568,
      "endTime": 205.48984375
    },
    {
      "instrumentId": 0,
      "instrumentName": "Instrument_0",
      "isPercussion": false,
      "pitch": 78,
      "velocity": 64,
      "startTime": 205.5,
      "duration": 0.35546875,
      "endTime": 205.85546875
    },
    {
      "instrumentId": 0,
      "instrumentName": "Instrument_0",
      "isPercussion": false,
      "pitch": 80,
      "velocity": 64,
      "startTime": 205.875,
      "duration": 0.35546875,
      "endTime": 206.23046875
    },
    {
      "instrumentId": 0,
      "instrumentName": "Instrument_0",
      "isPercussion": false,
      "pitch": 73,
      "velocity": 64,
      "startTime": 206.25,
      "duration": 0.35546875,
      "endTime": 206.60546875
    },
    {
      "instrumentId": 0,
      "instrumentName": "Instrument_0",
      "isPercussion": false,
      "pitch": 73,
      "velocity": 64,
      "startTime": 206.625,
      "duration": 0.711718750000017,
      "endTime": 207.33671875000002
    },
    {
      "instrumentId": 0,
      "instrumentName": "Instrument_0",
      "isPercussion": false,
      "pitch": 80,
      "velocity": 64,
      "startTime": 207.375,
      "duration": 0.17734375000000568,
      "endTime": 207.55234375
    },
    {
      "instrumentId": 0,
      "instrumentName": "Instrument_0",
      "isPercussion": false,
      "pitch": 80,
      "velocity": 64,
      "startTime": 207.5625,
      "duration": 0.35546875,
      "endTime": 207.91796875
    },
    {
      "instrumentId": 0,
      "instrumentName": "Instrument_0",
      "isPercussion": false,
      "pitch": 78,
      "velocity": 64,
      "startTime": 207.9375,
      "duration": 0.35546875,
      "endTime": 208.29296875
    },
    {
      "instrumentId": 0,
      "instrumentName": "Instrument_0",
      "isPercussion": false,
      "pitch": 76,
      "velocity": 64,
      "startTime": 208.3125,
      "duration": 0.17734375000000568,
      "endTime": 208.48984375
    },
    {
      "instrumentId": 0,
      "instrumentName": "Instrument_0",
      "isPercussion": false,
      "pitch": 78,
      "velocity": 64,
      "startTime": 208.5,
      "duration": 0.35546875,
      "endTime": 208.85546875
    },
    {
      "instrumentId": 0,
      "instrumentName": "Instrument_0",
      "isPercussion": false,
      "pitch": 76,
      "velocity": 64,
      "startTime": 208.875,
      "duration": 0.35546875,
      "endTime": 209.23046875
    },
    {
      "instrumentId": 0,
      "instrumentName": "Instrument_0",
      "isPercussion": false,
      "pitch": 73,
      "velocity": 64,
      "startTime": 209.25,
      "duration": 0.35546875,
      "endTime": 209.60546875
    },
    {
      "instrumentId": 0,
      "instrumentName": "Instrument_0",
      "isPercussion": false,
      "pitch": 73,
      "velocity": 64,
      "startTime": 209.625,
      "duration": 0.711718750000017,
      "endTime": 210.33671875000002
    },
    {
      "instrumentId": 0,
      "instrumentName": "Instrument_0",
      "isPercussion": false,
      "pitch": 80,
      "velocity": 64,
      "startTime": 210.375,
      "duration": 0.17734375000000568,
      "endTime": 210.55234375
    },
    {
      "instrumentId": 0,
      "instrumentName": "Instrument_0",
      "isPercussion": false,
      "pitch": 80,
      "velocity": 64,
      "startTime": 210.5625,
      "duration": 0.35546875,
      "endTime": 210.91796875
    },
    {
      "instrumentId": 0,
      "instrumentName": "Instrument_0",
      "isPercussion": false,
      "pitch": 78,
      "velocity": 64,
      "startTime": 210.9375,
      "duration": 0.35546875,
      "endTime": 211.29296875
    },
    {
      "instrumentId": 0,
      "instrumentName": "Instrument_0",
      "isPercussion": false,
      "pitch": 76,
      "velocity": 64,
      "startTime": 211.3125,
      "duration": 0.17734375000000568,
      "endTime": 211.48984375
    },
    {
      "instrumentId": 0,
      "instrumentName": "Instrument_0",
      "isPercussion": false,
      "pitch": 78,
      "velocity": 64,
      "startTime": 211.5,
      "duration": 0.35546875,
      "endTime": 211.85546875
    },
    {
      "instrumentId": 0,
      "instrumentName": "Instrument_0",
      "isPercussion": false,
      "pitch": 80,
      "velocity": 64,
      "startTime": 211.875,
      "duration": 0.35546875,
      "endTime": 212.23046875
    },
    {
      "instrumentId": 0,
      "instrumentName": "Instrument_0",
      "isPercussion": false,
      "pitch": 73,
      "velocity": 64,
      "startTime": 212.25,
      "duration": 0.35546875,
      "endTime": 212.60546875
    },
    {
      "instrumentId": 0,
      "instrumentName": "Instrument_0",
      "isPercussion": false,
      "pitch": 73,
      "velocity": 64,
      "startTime": 212.625,
      "duration": 0.711718750000017,
      "endTime": 213.33671875000002
    },
    {
      "instrumentId": 0,
      "instrumentName": "Instrument_0",
      "isPercussion": false,
      "pitch": 80,
      "velocity": 64,
      "startTime": 213.375,
      "duration": 0.17734375000000568,
      "endTime": 213.55234375
    },
    {
      "instrumentId": 0,
      "instrumentName": "Instrument_0",
      "isPercussion": false,
      "pitch": 80,
      "velocity": 64,
      "startTime": 213.5625,
      "duration": 0.35546875,
      "endTime": 213.91796875
    },
    {
      "instrumentId": 0,
      "instrumentName": "Instrument_0",
      "isPercussion": false,
      "pitch": 78,
      "velocity": 64,
      "startTime": 213.9375,
      "duration": 0.35546875,
      "endTime": 214.29296875
    },
    {
      "instrumentId": 0,
      "instrumentName": "Instrument_0",
      "isPercussion": false,
      "pitch": 76,
      "velocity": 64,
      "startTime": 214.3125,
      "duration": 0.17734375000000568,
      "endTime": 214.48984375
    },
    {
      "instrumentId": 0,
      "instrumentName": "Instrument_0",
      "isPercussion": false,
      "pitch": 78,
      "velocity": 64,
      "startTime": 214.5,
      "duration": 0.35546875,
      "endTime": 214.85546875
    },
    {
      "instrumentId": 0,
      "instrumentName": "Instrument_0",
      "isPercussion": false,
      "pitch": 76,
      "velocity": 64,
      "startTime": 214.875,
      "duration": 0.35546875,
      "endTime": 215.23046875
    },
    {
      "instrumentId": 0,
      "instrumentName": "Instrument_0",
      "isPercussion": false,
      "pitch": 73,
      "velocity": 64,
      "startTime": 215.25,
      "duration": 0.35546875,
      "endTime": 215.60546875
    },
    {
      "instrumentId": 0,
      "instrumentName": "Instrument_0",
      "isPercussion": false,
      "pitch": 73,
      "velocity": 64,
      "startTime": 215.625,
      "duration": 0.711718750000017,
      "endTime": 216.33671875000002
    },
    {
      "instrumentId": 1,
      "instrumentName": "Instrument_1",
      "isPercussion": false,
      "pitch": 56,
      "velocity": 64,
      "startTime": 216.0,
      "duration": 0.17734375000000568,
      "endTime": 216.17734375
    },
    {
      "instrumentId": 1,
      "instrumentName": "Instrument_1",
      "isPercussion": false,
      "pitch": 61,
      "velocity": 64,
      "startTime": 216.0,
      "duration": 0.17734375000000568,
      "endTime": 216.17734375
    },
    {
      "instrumentId": 0,
      "instrumentName": "Instrument_0",
      "isPercussion": false,
      "pitch": 80,
      "velocity": 64,
      "startTime": 216.375,
      "duration": 0.17734375000000568,
      "endTime": 216.55234375
    },
    {
      "instrumentId": 0,
      "instrumentName": "Instrument_0",
      "isPercussion": false,
      "pitch": 80,
      "velocity": 64,
      "startTime": 216.5625,
      "duration": 0.35546875,
      "endTime": 216.91796875
    },
    {
      "instrumentId": 1,
      "instrumentName": "Instrument_1",
      "isPercussion": false,
      "pitch": 56,
      "velocity": 64,
      "startTime": 216.5625,
      "duration": 0.17734375000000568,
      "endTime": 216.73984375
    },
    {
      "instrumentId": 1,
      "instrumentName": "Instrument_1",
      "isPercussion": false,
      "pitch": 61,
      "velocity": 64,
      "startTime": 216.5625,
      "duration": 0.17734375000000568,
      "endTime": 216.73984375
    },
    {
      "instrumentId": 0,
      "instrumentName": "Instrument_0",
      "isPercussion": false,
      "pitch": 78,
      "velocity": 64,
      "startTime": 216.9375,
      "duration": 0.35546875,
      "endTime": 217.29296875
    },
    {
      "instrumentId": 1,
      "instrumentName": "Instrument_1",
      "isPercussion": false,
      "pitch": 56,
      "velocity": 64,
      "startTime": 217.125,
      "duration": 0.17734375000000568,
      "endTime": 217.30234375
    },
    {
      "instrumentId": 1,
      "instrumentName": "Instrument_1",
      "isPercussion": false,
      "pitch": 61,
      "velocity": 64,
      "startTime": 217.125,
      "duration": 0.17734375000000568,
      "endTime": 217.30234375
    },
    {
      "instrumentId": 0,
      "instrumentName": "Instrument_0",
      "isPercussion": false,
      "pitch": 76,
      "velocity": 64,
      "startTime": 217.3125,
      "duration": 0.17734375000000568,
      "endTime": 217.48984375
    },
    {
      "instrumentId": 0,
      "instrumentName": "Instrument_0",
      "isPercussion": false,
      "pitch": 78,
      "velocity": 64,
      "startTime": 217.5,
      "duration": 0.35546875,
      "endTime": 217.85546875
    },
    {
      "instrumentId": 1,
      "instrumentName": "Instrument_1",
      "isPercussion": false,
      "pitch": 54,
      "velocity": 64,
      "startTime": 217.5,
      "duration": 0.17734375000000568,
      "endTime": 217.67734375
    },
    {
      "instrumentId": 1,
      "instrumentName": "Instrument_1",
      "isPercussion": false,
      "pitch": 61,
      "velocity": 64,
      "startTime": 217.5,
      "duration": 0.17734375000000568,
      "endTime": 217.67734375
    },
    {
      "instrumentId": 0,
      "instrumentName": "Instrument_0",
      "isPercussion": false,
      "pitch": 80,
      "velocity": 64,
      "startTime": 217.875,
      "duration": 0.35546875,
      "endTime": 218.23046875
    },
    {
      "instrumentId": 1,
      "instrumentName": "Instrument_1",
      "isPercussion": false,
      "pitch": 54,
      "velocity": 64,
      "startTime": 218.0625,
      "duration": 0.17734375000000568,
      "endTime": 218.23984375
    },
    {
      "instrumentId": 1,
      "instrumentName": "Instrument_1",
      "isPercussion": false,
      "pitch": 61,
      "velocity": 64,
      "startTime": 218.0625,
      "duration": 0.17734375000000568,
      "endTime": 218.23984375
    },
    {
      "instrumentId": 0,
      "instrumentName": "Instrument_0",
      "isPercussion": false,
      "pitch": 73,
      "velocity": 64,
      "startTime": 218.25,
      "duration": 0.35546875,
      "endTime": 218.60546875
    },
    {
      "instrumentId": 0,
      "instrumentName": "Instrument_0",
      "isPercussion": false,
      "pitch": 73,
      "velocity": 64,
      "startTime": 218.625,
      "duration": 0.711718750000017,
      "endTime": 219.33671875000002
    },
    {
      "instrumentId": 1,
      "instrumentName": "Instrument_1",
      "isPercussion": false,
      "pitch": 54,
      "velocity": 64,
      "startTime": 218.625,
      "duration": 0.17734375000000568,
      "endTime": 218.80234375
    },
    {
      "instrumentId": 1,
      "instrumentName": "Instrument_1",
      "isPercussion": false,
      "pitch": 61,
      "velocity": 64,
      "startTime": 218.625,
      "duration": 0.17734375000000568,
      "endTime": 218.80234375
    },
    {
      "instrumentId": 1,
      "instrumentName": "Instrument_1",
      "isPercussion": false,
      "pitch": 57,
      "velocity": 64,
      "startTime": 219.0,
      "duration": 0.17734375000000568,
      "endTime": 219.17734375
    },
    {
      "instrumentId": 1,
      "instrumentName": "Instrument_1",
      "isPercussion": false,
      "pitch": 61,
      "velocity": 64,
      "startTime": 219.0,
      "duration": 0.17734375000000568,
      "endTime": 219.17734375
    },
    {
      "instrumentId": 0,
      "instrumentName": "Instrument_0",
      "isPercussion": false,
      "pitch": 80,
      "velocity": 64,
      "startTime": 219.375,
      "duration": 0.17734375000000568,
      "endTime": 219.55234375
    },
    {
      "instrumentId": 0,
      "instrumentName": "Instrument_0",
      "isPercussion": false,
      "pitch": 80,
      "velocity": 64,
      "startTime": 219.5625,
      "duration": 0.35546875,
      "endTime": 219.91796875
    },
    {
      "instrumentId": 1,
      "instrumentName": "Instrument_1",
      "isPercussion": false,
      "pitch": 57,
      "velocity": 64,
      "startTime": 219.5625,
      "duration": 0.17734375000000568,
      "endTime": 219.73984375
    },
    {
      "instrumentId": 1,
      "instrumentName": "Instrument_1",
      "isPercussion": false,
      "pitch": 61,
      "velocity": 64,
      "startTime": 219.5625,
      "duration": 0.17734375000000568,
      "endTime": 219.73984375
    },
    {
      "instrumentId": 0,
      "instrumentName": "Instrument_0",
      "isPercussion": false,
      "pitch": 78,
      "velocity": 64,
      "startTime": 219.9375,
      "duration": 0.35546875,
      "endTime": 220.29296875
    },
    {
      "instrumentId": 1,
      "instrumentName": "Instrument_1",
      "isPercussion": false,
      "pitch": 57,
      "velocity": 64,
      "startTime": 220.125,
      "duration": 0.17734375000000568,
      "endTime": 220.30234375
    },
    {
      "instrumentId": 1,
      "instrumentName": "Instrument_1",
      "isPercussion": false,
      "pitch": 61,
      "velocity": 64,
      "startTime": 220.125,
      "duration": 0.17734375000000568,
      "endTime": 220.30234375
    },
    {
      "instrumentId": 0,
      "instrumentName": "Instrument_0",
      "isPercussion": false,
      "pitch": 76,
      "velocity": 64,
      "startTime": 220.3125,
      "duration": 0.17734375000000568,
      "endTime": 220.48984375
    },
    {
      "instrumentId": 0,
      "instrumentName": "Instrument_0",
      "isPercussion": false,
      "pitch": 78,
      "velocity": 64,
      "startTime": 220.5,
      "duration": 0.35546875,
      "endTime": 220.85546875
    },
    {
      "instrumentId": 1,
      "instrumentName": "Instrument_1",
      "isPercussion": false,
      "pitch": 54,
      "velocity": 64,
      "startTime": 220.5,
      "duration": 0.17734375000000568,
      "endTime": 220.67734375
    },
    {
      "instrumentId": 1,
      "instrumentName": "Instrument_1",
      "isPercussion": false,
      "pitch": 59,
      "velocity": 64,
      "startTime": 220.5,
      "duration": 0.17734375000000568,
      "endTime": 220.67734375
    },
    {
      "instrumentId": 0,
      "instrumentName": "Instrument_0",
      "isPercussion": false,
      "pitch": 76,
      "velocity": 64,
      "startTime": 220.875,
      "duration": 0.35546875,
      "endTime": 221.23046875
    },
    {
      "instrumentId": 1,
      "instrumentName": "Instrument_1",
      "isPercussion": false,
      "pitch": 54,
      "velocity": 64,
      "startTime": 221.0625,
      "duration": 0.17734375000000568,
      "endTime": 221.23984375
    },
    {
      "instrumentId": 1,
      "instrumentName": "Instrument_1",
      "isPercussion": false,
      "pitch": 59,
      "velocity": 64,
      "startTime": 221.0625,
      "duration": 0.17734375000000568,
      "endTime": 221.23984375
    },
    {
      "instrumentId": 0,
      "instrumentName": "Instrument_0",
      "isPercussion": false,
      "pitch": 73,
      "velocity": 64,
      "startTime": 221.25,
      "duration": 0.35546875,
      "endTime": 221.60546875
    },
    {
      "instrumentId": 0,
      "instrumentName": "Instrument_0",
      "isPercussion": false,
      "pitch": 73,
      "velocity": 64,
      "startTime": 221.625,
      "duration": 0.711718750000017,
      "endTime": 222.33671875000002
    },
    {
      "instrumentId": 1,
      "instrumentName": "Instrument_1",
      "isPercussion": false,
      "pitch": 54,
      "velocity": 64,
      "startTime": 221.625,
      "duration": 0.17734375000000568,
      "endTime": 221.80234375
    },
    {
      "instrumentId": 1,
      "instrumentName": "Instrument_1",
      "isPercussion": false,
      "pitch": 59,
      "velocity": 64,
      "startTime": 221.625,
      "duration": 0.17734375000000568,
      "endTime": 221.80234375
    },
    {
      "instrumentId": 1,
      "instrumentName": "Instrument_1",
      "isPercussion": false,
      "pitch": 56,
      "velocity": 64,
      "startTime": 222.0,
      "duration": 0.17734375000000568,
      "endTime": 222.17734375
    },
    {
      "instrumentId": 1,
      "instrumentName": "Instrument_1",
      "isPercussion": false,
      "pitch": 61,
      "velocity": 64,
      "startTime": 222.0,
      "duration": 0.17734375000000568,
      "endTime": 222.17734375
    },
    {
      "instrumentId": 0,
      "instrumentName": "Instrument_0",
      "isPercussion": false,
      "pitch": 80,
      "velocity": 64,
      "startTime": 222.375,
      "duration": 0.17734375000000568,
      "endTime": 222.55234375
    },
    {
      "instrumentId": 0,
      "instrumentName": "Instrument_0",
      "isPercussion": false,
      "pitch": 80,
      "velocity": 64,
      "startTime": 222.5625,
      "duration": 0.35546875,
      "endTime": 222.91796875
    },
    {
      "instrumentId": 1,
      "instrumentName": "Instrument_1",
      "isPercussion": false,
      "pitch": 56,
      "velocity": 64,
      "startTime": 222.5625,
      "duration": 0.17734375000000568,
      "endTime": 222.73984375
    },
    {
      "instrumentId": 1,
      "instrumentName": "Instrument_1",
      "isPercussion": false,
      "pitch": 61,
      "velocity": 64,
      "startTime": 222.5625,
      "duration": 0.17734375000000568,
      "endTime": 222.73984375
    },
    {
      "instrumentId": 0,
      "instrumentName": "Instrument_0",
      "isPercussion": false,
      "pitch": 78,
      "velocity": 64,
      "startTime": 222.9375,
      "duration": 0.35546875,
      "endTime": 223.29296875
    },
    {
      "instrumentId": 1,
      "instrumentName": "Instrument_1",
      "isPercussion": false,
      "pitch": 56,
      "velocity": 64,
      "startTime": 223.125,
      "duration": 0.17734375000000568,
      "endTime": 223.30234375
    },
    {
      "instrumentId": 1,
      "instrumentName": "Instrument_1",
      "isPercussion": false,
      "pitch": 61,
      "velocity": 64,
      "startTime": 223.125,
      "duration": 0.17734375000000568,
      "endTime": 223.30234375
    },
    {
      "instrumentId": 0,
      "instrumentName": "Instrument_0",
      "isPercussion": false,
      "pitch": 76,
      "velocity": 64,
      "startTime": 223.3125,
      "duration": 0.17734375000000568,
      "endTime": 223.48984375
    },
    {
      "instrumentId": 0,
      "instrumentName": "Instrument_0",
      "isPercussion": false,
      "pitch": 78,
      "velocity": 64,
      "startTime": 223.5,
      "duration": 0.35546875,
      "endTime": 223.85546875
    },
    {
      "instrumentId": 1,
      "instrumentName": "Instrument_1",
      "isPercussion": false,
      "pitch": 54,
      "velocity": 64,
      "startTime": 223.5,
      "duration": 0.17734375000000568,
      "endTime": 223.67734375
    },
    {
      "instrumentId": 1,
      "instrumentName": "Instrument_1",
      "isPercussion": false,
      "pitch": 61,
      "velocity": 64,
      "startTime": 223.5,
      "duration": 0.17734375000000568,
      "endTime": 223.67734375
    },
    {
      "instrumentId": 0,
      "instrumentName": "Instrument_0",
      "isPercussion": false,
      "pitch": 80,
      "velocity": 64,
      "startTime": 223.875,
      "duration": 0.35546875,
      "endTime": 224.23046875
    },
    {
      "instrumentId": 1,
      "instrumentName": "Instrument_1",
      "isPercussion": false,
      "pitch": 54,
      "velocity": 64,
      "startTime": 224.0625,
      "duration": 0.17734375000000568,
      "endTime": 224.23984375
    },
    {
      "instrumentId": 1,
      "instrumentName": "Instrument_1",
      "isPercussion": false,
      "pitch": 61,
      "velocity": 64,
      "startTime": 224.0625,
      "duration": 0.17734375000000568,
      "endTime": 224.23984375
    },
    {
      "instrumentId": 0,
      "instrumentName": "Instrument_0",
      "isPercussion": false,
      "pitch": 73,
      "velocity": 64,
      "startTime": 224.25,
      "duration": 0.35546875,
      "endTime": 224.60546875
    },
    {
      "instrumentId": 0,
      "instrumentName": "Instrument_0",
      "isPercussion": false,
      "pitch": 73,
      "velocity": 64,
      "startTime": 224.625,
      "duration": 0.711718750000017,
      "endTime": 225.33671875000002
    },
    {
      "instrumentId": 1,
      "instrumentName": "Instrument_1",
      "isPercussion": false,
      "pitch": 54,
      "velocity": 64,
      "startTime": 224.625,
      "duration": 0.17734375000000568,
      "endTime": 224.80234375
    },
    {
      "instrumentId": 1,
      "instrumentName": "Instrument_1",
      "isPercussion": false,
      "pitch": 61,
      "velocity": 64,
      "startTime": 224.625,
      "duration": 0.17734375000000568,
      "endTime": 224.80234375
    },
    {
      "instrumentId": 0,
      "instrumentName": "Instrument_0",
      "isPercussion": false,
      "pitch": 80,
      "velocity": 64,
      "startTime": 225.375,
      "duration": 0.17734375000000568,
      "endTime": 225.55234375
    },
    {
      "instrumentId": 0,
      "instrumentName": "Instrument_0",
      "isPercussion": false,
      "pitch": 80,
      "velocity": 64,
      "startTime": 225.5625,
      "duration": 0.35546875,
      "endTime": 225.91796875
    },
    {
      "instrumentId": 0,
      "instrumentName": "Instrument_0",
      "isPercussion": false,
      "pitch": 78,
      "velocity": 64,
      "startTime": 225.9375,
      "duration": 0.35546875,
      "endTime": 226.29296875
    },
    {
      "instrumentId": 0,
      "instrumentName": "Instrument_0",
      "isPercussion": false,
      "pitch": 76,
      "velocity": 64,
      "startTime": 226.3125,
      "duration": 0.17734375000000568,
      "endTime": 226.48984375
    },
    {
      "instrumentId": 0,
      "instrumentName": "Instrument_0",
      "isPercussion": false,
      "pitch": 78,
      "velocity": 96,
      "startTime": 226.5,
      "duration": 0.35546875,
      "endTime": 226.85546875
    },
    {
      "instrumentId": 0,
      "instrumentName": "Instrument_0",
      "isPercussion": false,
      "pitch": 76,
      "velocity": 100,
      "startTime": 226.875,
      "duration": 0.35546875,
      "endTime": 227.23046875
    },
    {
      "instrumentId": 0,
      "instrumentName": "Instrument_0",
      "isPercussion": false,
      "pitch": 73,
      "velocity": 104,
      "startTime": 227.25,
      "duration": 0.35546875,
      "endTime": 227.60546875
    },
    {
      "instrumentId": 0,
      "instrumentName": "Instrument_0",
      "isPercussion": false,
      "pitch": 73,
      "velocity": 108,
      "startTime": 227.625,
      "duration": 1.4242187500000227,
      "endTime": 229.04921875000002
    },
    {
      "instrumentId": 1,
      "instrumentName": "Instrument_1",
      "isPercussion": false,
      "pitch": 56,
      "velocity": 112,
      "startTime": 228.0,
      "duration": 0.17734375000000568,
      "endTime": 228.17734375
    },
    {
      "instrumentId": 1,
      "instrumentName": "Instrument_1",
      "isPercussion": false,
      "pitch": 61,
      "velocity": 112,
      "startTime": 228.0,
      "duration": 0.17734375000000568,
      "endTime": 228.17734375
    },
    {
      "instrumentId": 1,
      "instrumentName": "Instrument_1",
      "isPercussion": false,
      "pitch": 56,
      "velocity": 112,
      "startTime": 228.5625,
      "duration": 0.17734375000000568,
      "endTime": 228.73984375
    },
    {
      "instrumentId": 1,
      "instrumentName": "Instrument_1",
      "isPercussion": false,
      "pitch": 64,
      "velocity": 112,
      "startTime": 228.5625,
      "duration": 0.17734375000000568,
      "endTime": 228.73984375
    },
    {
      "instrumentId": 0,
      "instrumentName": "Instrument_0",
      "isPercussion": false,
      "pitch": 76,
      "velocity": 112,
      "startTime": 229.125,
      "duration": 0.17734375000000568,
      "endTime": 229.30234375
    },
    {
      "instrumentId": 1,
      "instrumentName": "Instrument_1",
      "isPercussion": false,
      "pitch": 56,
      "velocity": 112,
      "startTime": 229.125,
      "duration": 0.17734375000000568,
      "endTime": 229.30234375
    },
    {
      "instrumentId": 1,
      "instrumentName": "Instrument_1",
      "isPercussion": false,
      "pitch": 61,
      "velocity": 112,
      "startTime": 229.125,
      "duration": 0.17734375000000568,
      "endTime": 229.30234375
    },
    {
      "instrumentId": 0,
      "instrumentName": "Instrument_0",
      "isPercussion": false,
      "pitch": 78,
      "velocity": 112,
      "startTime": 229.3125,
      "duration": 0.17734375000000568,
      "endTime": 229.48984375
    },
    {
      "instrumentId": 0,
      "instrumentName": "Instrument_0",
      "isPercussion": false,
      "pitch": 76,
      "velocity": 112,
      "startTime": 229.5,
      "duration": 0.35546875,
      "endTime": 229.85546875
    },
    {
      "instrumentId": 0,
      "instrumentName": "Instrument_0",
      "isPercussion": false,
      "pitch": 80,
      "velocity": 112,
      "startTime": 229.5,
      "duration": 0.35546875,
      "endTime": 229.85546875
    },
    {
      "instrumentId": 1,
      "instrumentName": "Instrument_1",
      "isPercussion": false,
      "pitch": 54,
      "velocity": 112,
      "startTime": 229.5,
      "duration": 0.17734375000000568,
      "endTime": 229.67734375
    },
    {
      "instrumentId": 1,
      "instrumentName": "Instrument_1",
      "isPercussion": false,
      "pitch": 61,
      "velocity": 112,
      "startTime": 229.5,
      "duration": 0.17734375000000568,
      "endTime": 229.67734375
    },
    {
      "instrumentId": 0,
      "instrumentName": "Instrument_0",
      "isPercussion": false,
      "pitch": 78,
      "velocity": 112,
      "startTime": 229.875,
      "duration": 0.17734375000000568,
      "endTime": 230.05234375
    },
    {
      "instrumentId": 0,
      "instrumentName": "Instrument_0",
      "isPercussion": false,
      "pitch": 76,
      "velocity": 112,
      "startTime": 230.0625,
      "duration": 0.17734375000000568,
      "endTime": 230.23984375
    },
    {
      "instrumentId": 1,
      "instrumentName": "Instrument_1",
      "isPercussion": false,
      "pitch": 54,
      "velocity": 112,
      "startTime": 230.0625,
      "duration": 0.17734375000000568,
      "endTime": 230.23984375
    },
    {
      "instrumentId": 1,
      "instrumentName": "Instrument_1",
      "isPercussion": false,
      "pitch": 64,
      "velocity": 112,
      "startTime": 230.0625,
      "duration": 0.17734375000000568,
      "endTime": 230.23984375
    },
    {
      "instrumentId": 0,
      "instrumentName": "Instrument_0",
      "isPercussion": false,
      "pitch": 73,
      "velocity": 112,
      "startTime": 230.25,
      "duration": 0.35546875,
      "endTime": 230.60546875
    },
    {
      "instrumentId": 0,
      "instrumentName": "Instrument_0",
      "isPercussion": false,
      "pitch": 76,
      "velocity": 112,
      "startTime": 230.25,
      "duration": 0.35546875,
      "endTime": 230.60546875
    },
    {
      "instrumentId": 0,
      "instrumentName": "Instrument_0",
      "isPercussion": false,
      "pitch": 75,
      "velocity": 112,
      "startTime": 230.625,
      "duration": 0.35546875,
      "endTime": 230.98046875
    },
    {
      "instrumentId": 0,
      "instrumentName": "Instrument_0",
      "isPercussion": false,
      "pitch": 78,
      "velocity": 112,
      "startTime": 230.625,
      "duration": 0.35546875,
      "endTime": 230.98046875
    },
    {
      "instrumentId": 1,
      "instrumentName": "Instrument_1",
      "isPercussion": false,
      "pitch": 54,
      "velocity": 112,
      "startTime": 230.625,
      "duration": 0.17734375000000568,
      "endTime": 230.80234375
    },
    {
      "instrumentId": 1,
      "instrumentName": "Instrument_1",
      "isPercussion": false,
      "pitch": 61,
      "velocity": 112,
      "startTime": 230.625,
      "duration": 0.17734375000000568,
      "endTime": 230.80234375
    },
    {
      "instrumentId": 0,
      "instrumentName": "Instrument_0",
      "isPercussion": false,
      "pitch": 75,
      "velocity": 112,
      "startTime": 231.0,
      "duration": 0.711718750000017,
      "endTime": 231.71171875000002
    },
    {
      "instrumentId": 0,
      "instrumentName": "Instrument_0",
      "isPercussion": false,
      "pitch": 78,
      "velocity": 112,
      "startTime": 231.0,
      "duration": 0.711718750000017,
      "endTime": 231.71171875000002
    },
    {
      "instrumentId": 1,
      "instrumentName": "Instrument_1",
      "isPercussion": false,
      "pitch": 57,
      "velocity": 112,
      "startTime": 231.0,
      "duration": 0.17734375000000568,
      "endTime": 231.17734375
    },
    {
      "instrumentId": 1,
      "instrumentName": "Instrument_1",
      "isPercussion": false,
      "pitch": 61,
      "velocity": 112,
      "startTime": 231.0,
      "duration": 0.17734375000000568,
      "endTime": 231.17734375
    },
    {
      "instrumentId": 1,
      "instrumentName": "Instrument_1",
      "isPercussion": false,
      "pitch": 57,
      "velocity": 112,
      "startTime": 231.5625,
      "duration": 0.17734375000000568,
      "endTime": 231.73984375
    },
    {
      "instrumentId": 1,
      "instrumentName": "Instrument_1",
      "isPercussion": false,
      "pitch": 64,
      "velocity": 112,
      "startTime": 231.5625,
      "duration": 0.17734375000000568,
      "endTime": 231.73984375
    },
    {
      "instrumentId": 0,
      "instrumentName": "Instrument_0",
      "isPercussion": false,
      "pitch": 73,
      "velocity": 112,
      "startTime": 231.9375,
      "duration": 0.17734375000000568,
      "endTime": 232.11484375
    },
    {
      "instrumentId": 0,
      "instrumentName": "Instrument_0",
      "isPercussion": false,
      "pitch": 76,
      "velocity": 112,
      "startTime": 232.125,
      "duration": 0.17734375000000568,
      "endTime": 232.30234375
    },
    {
      "instrumentId": 1,
      "instrumentName": "Instrument_1",
      "isPercussion": false,
      "pitch": 57,
      "velocity": 112,
      "startTime": 232.125,
      "duration": 0.17734375000000568,
      "endTime": 232.30234375
    },
    {
      "instrumentId": 1,
      "instrumentName": "Instrument_1",
      "isPercussion": false,
      "pitch": 61,
      "velocity": 112,
      "startTime": 232.125,
      "duration": 0.17734375000000568,
      "endTime": 232.30234375
    },
    {
      "instrumentId": 0,
      "instrumentName": "Instrument_0",
      "isPercussion": false,
      "pitch": 78,
      "velocity": 112,
      "startTime": 232.3125,
      "duration": 0.17734375000000568,
      "endTime": 232.48984375
    },
    {
      "instrumentId": 0,
      "instrumentName": "Instrument_0",
      "isPercussion": false,
      "pitch": 76,
      "velocity": 112,
      "startTime": 232.5,
      "duration": 0.35546875,
      "endTime": 232.85546875
    },
    {
      "instrumentId": 0,
      "instrumentName": "Instrument_0",
      "isPercussion": false,
      "pitch": 80,
      "velocity": 112,
      "startTime": 232.5,
      "duration": 0.35546875,
      "endTime": 232.85546875
    },
    {
      "instrumentId": 1,
      "instrumentName": "Instrument_1",
      "isPercussion": false,
      "pitch": 54,
      "velocity": 112,
      "startTime": 232.5,
      "duration": 0.17734375000000568,
      "endTime": 232.67734375
    },
    {
      "instrumentId": 1,
      "instrumentName": "Instrument_1",
      "isPercussion": false,
      "pitch": 59,
      "velocity": 112,
      "startTime": 232.5,
      "duration": 0.17734375000000568,
      "endTime": 232.67734375
    },
    {
      "instrumentId": 1,
      "instrumentName": "Instrument_1",
      "isPercussion": false,
      "pitch": 63,
      "velocity": 112,
      "startTime": 232.5,
      "duration": 0.17734375000000568,
      "endTime": 232.67734375
    },
    {
      "instrumentId": 0,
      "instrumentName": "Instrument_0",
      "isPercussion": false,
      "pitch": 78,
      "velocity": 112,
      "startTime": 232.875,
      "duration": 0.17734375000000568,
      "endTime": 233.05234375
    },
    {
      "instrumentId": 0,
      "instrumentName": "Instrument_0",
      "isPercussion": false,
      "pitch": 76,
      "velocity": 112,
      "startTime": 233.0625,
      "duration": 0.17734375000000568,
      "endTime": 233.23984375
    },
    {
      "instrumentId": 1,
      "instrumentName": "Instrument_1",
      "isPercussion": false,
      "pitch": 54,
      "velocity": 112,
      "startTime": 233.0625,
      "duration": 0.17734375000000568,
      "endTime": 233.23984375
    },
    {
      "instrumentId": 1,
      "instrumentName": "Instrument_1",
      "isPercussion": false,
      "pitch": 59,
      "velocity": 112,
      "startTime": 233.0625,
      "duration": 0.17734375000000568,
      "endTime": 233.23984375
    },
    {
      "instrumentId": 1,
      "instrumentName": "Instrument_1",
      "isPercussion": false,
      "pitch": 61,
      "velocity": 112,
      "startTime": 233.0625,
      "duration": 0.17734375000000568,
      "endTime": 233.23984375
    },
    {
      "instrumentId": 0,
      "instrumentName": "Instrument_0",
      "isPercussion": false,
      "pitch": 71,
      "velocity": 112,
      "startTime": 233.25,
      "duration": 0.35546875,
      "endTime": 233.60546875
    },
    {
      "instrumentId": 0,
      "instrumentName": "Instrument_0",
      "isPercussion": false,
      "pitch": 76,
      "velocity": 112,
      "startTime": 233.25,
      "duration": 0.35546875,
      "endTime": 233.60546875
    },
    {
      "instrumentId": 0,
      "instrumentName": "Instrument_0",
      "isPercussion": false,
      "pitch": 75,
      "velocity": 112,
      "startTime": 233.625,
      "duration": 0.35546875,
      "endTime": 233.98046875
    },
    {
      "instrumentId": 0,
      "instrumentName": "Instrument_0",
      "isPercussion": false,
      "pitch": 78,
      "velocity": 112,
      "startTime": 233.625,
      "duration": 0.35546875,
      "endTime": 233.98046875
    },
    {
      "instrumentId": 1,
      "instrumentName": "Instrument_1",
      "isPercussion": false,
      "pitch": 54,
      "velocity": 112,
      "startTime": 233.625,
      "duration": 0.17734375000000568,
      "endTime": 233.80234375
    },
    {
      "instrumentId": 1,
      "instrumentName": "Instrument_1",
      "isPercussion": false,
      "pitch": 59,
      "velocity": 112,
      "startTime": 233.625,
      "duration": 0.17734375000000568,
      "endTime": 233.80234375
    },
    {
      "instrumentId": 0,
      "instrumentName": "Instrument_0",
      "isPercussion": false,
      "pitch": 68,
      "velocity": 112,
      "startTime": 234.0,
      "duration": 0.711718750000017,
      "endTime": 234.71171875000002
    },
    {
      "instrumentId": 0,
      "instrumentName": "Instrument_0",
      "isPercussion": false,
      "pitch": 73,
      "velocity": 112,
      "startTime": 234.0,
      "duration": 0.711718750000017,
      "endTime": 234.71171875000002
    },
    {
      "instrumentId": 1,
      "instrumentName": "Instrument_1",
      "isPercussion": false,
      "pitch": 56,
      "velocity": 112,
      "startTime": 234.0,
      "duration": 0.17734375000000568,
      "endTime": 234.17734375
    },
    {
      "instrumentId": 1,
      "instrumentName": "Instrument_1",
      "isPercussion": false,
      "pitch": 61,
      "velocity": 112,
      "startTime": 234.0,
      "duration": 0.17734375000000568,
      "endTime": 234.17734375
    },
    {
      "instrumentId": 1,
      "instrumentName": "Instrument_1",
      "isPercussion": false,
      "pitch": 56,
      "velocity": 112,
      "startTime": 234.5625,
      "duration": 0.17734375000000568,
      "endTime": 234.73984375
    },
    {
      "instrumentId": 1,
      "instrumentName": "Instrument_1",
      "isPercussion": false,
      "pitch": 64,
      "velocity": 112,
      "startTime": 234.5625,
      "duration": 0.17734375000000568,
      "endTime": 234.73984375
    },
    {
      "instrumentId": 0,
      "instrumentName": "Instrument_0",
      "isPercussion": false,
      "pitch": 73,
      "velocity": 112,
      "startTime": 234.9375,
      "duration": 0.17734375000000568,
      "endTime": 235.11484375
    },
    {
      "instrumentId": 0,
      "instrumentName": "Instrument_0",
      "isPercussion": false,
      "pitch": 76,
      "velocity": 112,
      "startTime": 235.125,
      "duration": 0.17734375000000568,
      "endTime": 235.30234375
    },
    {
      "instrumentId": 1,
      "instrumentName": "Instrument_1",
      "isPercussion": false,
      "pitch": 56,
      "velocity": 112,
      "startTime": 235.125,
      "duration": 0.17734375000000568,
      "endTime": 235.30234375
    },
    {
      "instrumentId": 1,
      "instrumentName": "Instrument_1",
      "isPercussion": false,
      "pitch": 61,
      "velocity": 112,
      "startTime": 235.125,
      "duration": 0.17734375000000568,
      "endTime": 235.30234375
    },
    {
      "instrumentId": 0,
      "instrumentName": "Instrument_0",
      "isPercussion": false,
      "pitch": 78,
      "velocity": 112,
      "startTime": 235.3125,
      "duration": 0.17734375000000568,
      "endTime": 235.48984375
    },
    {
      "instrumentId": 0,
      "instrumentName": "Instrument_0",
      "isPercussion": false,
      "pitch": 76,
      "velocity": 112,
      "startTime": 235.5,
      "duration": 0.35546875,
      "endTime": 235.85546875
    },
    {
      "instrumentId": 0,
      "instrumentName": "Instrument_0",
      "isPercussion": false,
      "pitch": 80,
      "velocity": 112,
      "startTime": 235.5,
      "duration": 0.35546875,
      "endTime": 235.85546875
    },
    {
      "instrumentId": 1,
      "instrumentName": "Instrument_1",
      "isPercussion": false,
      "pitch": 54,
      "velocity": 112,
      "startTime": 235.5,
      "duration": 0.17734375000000568,
      "endTime": 235.67734375
    },
    {
      "instrumentId": 1,
      "instrumentName": "Instrument_1",
      "isPercussion": false,
      "pitch": 61,
      "velocity": 112,
      "startTime": 235.5,
      "duration": 0.17734375000000568,
      "endTime": 235.67734375
    },
    {
      "instrumentId": 0,
      "instrumentName": "Instrument_0",
      "isPercussion": false,
      "pitch": 68,
      "velocity": 112,
      "startTime": 235.875,
      "duration": 0.35546875,
      "endTime": 236.23046875
    },
    {
      "instrumentId": 0,
      "instrumentName": "Instrument_0",
      "isPercussion": false,
      "pitch": 73,
      "velocity": 112,
      "startTime": 235.875,
      "duration": 0.35546875,
      "endTime": 236.23046875
    },
    {
      "instrumentId": 1,
      "instrumentName": "Instrument_1",
      "isPercussion": false,
      "pitch": 54,
      "velocity": 112,
      "startTime": 236.0625,
      "duration": 0.17734375000000568,
      "endTime": 236.23984375
    },
    {
      "instrumentId": 1,
      "instrumentName": "Instrument_1",
      "isPercussion": false,
      "pitch": 64,
      "velocity": 112,
      "startTime": 236.0625,
      "duration": 0.17734375000000568,
      "endTime": 236.23984375
    },
    {
      "instrumentId": 0,
      "instrumentName": "Instrument_0",
      "isPercussion": false,
      "pitch": 73,
      "velocity": 112,
      "startTime": 236.25,
      "duration": 0.35546875,
      "endTime": 236.60546875
    },
    {
      "instrumentId": 0,
      "instrumentName": "Instrument_0",
      "isPercussion": false,
      "pitch": 76,
      "velocity": 112,
      "startTime": 236.25,
      "duration": 0.35546875,
      "endTime": 236.60546875
    },
    {
      "instrumentId": 0,
      "instrumentName": "Instrument_0",
      "isPercussion": false,
      "pitch": 75,
      "velocity": 112,
      "startTime": 236.625,
      "duration": 0.35546875,
      "endTime": 236.98046875
    },
    {
      "instrumentId": 0,
      "instrumentName": "Instrument_0",
      "isPercussion": false,
      "pitch": 78,
      "velocity": 112,
      "startTime": 236.625,
      "duration": 0.35546875,
      "endTime": 236.98046875
    },
    {
      "instrumentId": 1,
      "instrumentName": "Instrument_1",
      "isPercussion": false,
      "pitch": 54,
      "velocity": 112,
      "startTime": 236.625,
      "duration": 0.17734375000000568,
      "endTime": 236.80234375
    },
    {
      "instrumentId": 1,
      "instrumentName": "Instrument_1",
      "isPercussion": false,
      "pitch": 61,
      "velocity": 112,
      "startTime": 236.625,
      "duration": 0.17734375000000568,
      "endTime": 236.80234375
    },
    {
      "instrumentId": 0,
      "instrumentName": "Instrument_0",
      "isPercussion": false,
      "pitch": 75,
      "velocity": 112,
      "startTime": 237.0,
      "duration": 1.0679687500000057,
      "endTime": 238.06796875
    },
    {
      "instrumentId": 0,
      "instrumentName": "Instrument_0",
      "isPercussion": false,
      "pitch": 78,
      "velocity": 112,
      "startTime": 237.0,
      "duration": 1.0679687500000057,
      "endTime": 238.06796875
    },
    {
      "instrumentId": 1,
      "instrumentName": "Instrument_1",
      "isPercussion": false,
      "pitch": 57,
      "velocity": 112,
      "startTime": 237.0,
      "duration": 0.17734375000000568,
      "endTime": 237.17734375
    },
    {
      "instrumentId": 1,
      "instrumentName": "Instrument_1",
      "isPercussion": false,
      "pitch": 61,
      "velocity": 112,
      "startTime": 237.0,
      "duration": 0.17734375000000568,
      "endTime": 237.17734375
    },
    {
      "instrumentId": 1,
      "instrumentName": "Instrument_1",
      "isPercussion": false,
      "pitch": 57,
      "velocity": 112,
      "startTime": 237.5625,
      "duration": 0.17734375000000568,
      "endTime": 237.73984375
    },
    {
      "instrumentId": 1,
      "instrumentName": "Instrument_1",
      "isPercussion": false,
      "pitch": 64,
      "velocity": 112,
      "startTime": 237.5625,
      "duration": 0.17734375000000568,
      "endTime": 237.73984375
    },
    {
      "instrumentId": 0,
      "instrumentName": "Instrument_0",
      "isPercussion": false,
      "pitch": 76,
      "velocity": 112,
      "startTime": 238.125,
      "duration": 0.17734375000000568,
      "endTime": 238.30234375
    },
    {
      "instrumentId": 1,
      "instrumentName": "Instrument_1",
      "isPercussion": false,
      "pitch": 57,
      "velocity": 112,
      "startTime": 238.125,
      "duration": 0.17734375000000568,
      "endTime": 238.30234375
    },
    {
      "instrumentId": 1,
      "instrumentName": "Instrument_1",
      "isPercussion": false,
      "pitch": 61,
      "velocity": 112,
      "startTime": 238.125,
      "duration": 0.17734375000000568,
      "endTime": 238.30234375
    },
    {
      "instrumentId": 0,
      "instrumentName": "Instrument_0",
      "isPercussion": false,
      "pitch": 78,
      "velocity": 112,
      "startTime": 238.3125,
      "duration": 0.17734375000000568,
      "endTime": 238.48984375
    },
    {
      "instrumentId": 0,
      "instrumentName": "Instrument_0",
      "isPercussion": false,
      "pitch": 76,
      "velocity": 112,
      "startTime": 238.5,
      "duration": 0.35546875,
      "endTime": 238.85546875
    },
    {
      "instrumentId": 0,
      "instrumentName": "Instrument_0",
      "isPercussion": false,
      "pitch": 80,
      "velocity": 112,
      "startTime": 238.5,
      "duration": 0.35546875,
      "endTime": 238.85546875
    },
    {
      "instrumentId": 1,
      "instrumentName": "Instrument_1",
      "isPercussion": false,
      "pitch": 54,
      "velocity": 112,
      "startTime": 238.5,
      "duration": 0.17734375000000568,
      "endTime": 238.67734375
    },
    {
      "instrumentId": 1,
      "instrumentName": "Instrument_1",
      "isPercussion": false,
      "pitch": 59,
      "velocity": 112,
      "startTime": 238.5,
      "duration": 0.17734375000000568,
      "endTime": 238.67734375
    },
    {
      "instrumentId": 1,
      "instrumentName": "Instrument_1",
      "isPercussion": false,
      "pitch": 63,
      "velocity": 112,
      "startTime": 238.5,
      "duration": 0.17734375000000568,
      "endTime": 238.67734375
    },
    {
      "instrumentId": 0,
      "instrumentName": "Instrument_0",
      "isPercussion": false,
      "pitch": 78,
      "velocity": 112,
      "startTime": 238.875,
      "duration": 0.17734375000000568,
      "endTime": 239.05234375
    },
    {
      "instrumentId": 0,
      "instrumentName": "Instrument_0",
      "isPercussion": false,
      "pitch": 76,
      "velocity": 112,
      "startTime": 239.0625,
      "duration": 0.17734375000000568,
      "endTime": 239.23984375
    },
    {
      "instrumentId": 1,
      "instrumentName": "Instrument_1",
      "isPercussion": false,
      "pitch": 54,
      "velocity": 112,
      "startTime": 239.0625,
      "duration": 0.17734375000000568,
      "endTime": 239.23984375
    },
    {
      "instrumentId": 1,
      "instrumentName": "Instrument_1",
      "isPercussion": false,
      "pitch": 59,
      "velocity": 112,
      "startTime": 239.0625,
      "duration": 0.17734375000000568,
      "endTime": 239.23984375
    },
    {
      "instrumentId": 1,
      "instrumentName": "Instrument_1",
      "isPercussion": false,
      "pitch": 61,
      "velocity": 112,
      "startTime": 239.0625,
      "duration": 0.17734375000000568,
      "endTime": 239.23984375
    },
    {
      "instrumentId": 0,
      "instrumentName": "Instrument_0",
      "isPercussion": false,
      "pitch": 75,
      "velocity": 112,
      "startTime": 239.25,
      "duration": 0.5335937500000227,
      "endTime": 239.78359375000002
    },
    {
      "instrumentId": 0,
      "instrumentName": "Instrument_0",
      "isPercussion": false,
      "pitch": 78,
      "velocity": 112,
      "startTime": 239.25,
      "duration": 0.5335937500000227,
      "endTime": 239.78359375000002
    },
    {
      "instrumentId": 1,
      "instrumentName": "Instrument_1",
      "isPercussion": false,
      "pitch": 54,
      "velocity": 112,
      "startTime": 239.625,
      "duration": 0.17734375000000568,
      "endTime": 239.80234375
    },
    {
      "instrumentId": 1,
      "instrumentName": "Instrument_1",
      "isPercussion": false,
      "pitch": 59,
      "velocity": 112,
      "startTime": 239.625,
      "duration": 0.17734375000000568,
      "endTime": 239.80234375
    },
    {
      "instrumentId": 0,
      "instrumentName": "Instrument_0",
      "isPercussion": false,
      "pitch": 68,
      "velocity": 112,
      "startTime": 239.8125,
      "duration": 1.24609375,
      "endTime": 241.05859375
    },
    {
      "instrumentId": 0,
      "instrumentName": "Instrument_0",
      "isPercussion": false,
      "pitch": 73,
      "velocity": 112,
      "startTime": 239.8125,
      "duration": 1.24609375,
      "endTime": 241.05859375
    },
    {
      "instrumentId": 1,
      "instrumentName": "Instrument_1",
      "isPercussion": false,
      "pitch": 56,
      "velocity": 112,
      "startTime": 240.0,
      "duration": 0.17734375000000568,
      "endTime": 240.17734375
    },
    {
      "instrumentId": 1,
      "instrumentName": "Instrument_1",
      "isPercussion": false,
      "pitch": 61,
      "velocity": 112,
      "startTime": 240.0,
      "duration": 0.17734375000000568,
      "endTime": 240.17734375
    },
    {
      "instrumentId": 1,
      "instrumentName": "Instrument_1",
      "isPercussion": false,
      "pitch": 56,
      "velocity": 112,
      "startTime": 240.5625,
      "duration": 0.17734375000000568,
      "endTime": 240.73984375
    },
    {
      "instrumentId": 1,
      "instrumentName": "Instrument_1",
      "isPercussion": false,
      "pitch": 64,
      "velocity": 112,
      "startTime": 240.5625,
      "duration": 0.17734375000000568,
      "endTime": 240.73984375
    },
    {
      "instrumentId": 0,
      "instrumentName": "Instrument_0",
      "isPercussion": false,
      "pitch": 73,
      "velocity": 112,
      "startTime": 241.125,
      "duration": 0.35546875,
      "endTime": 241.48046875
    },
    {
      "instrumentId": 0,
      "instrumentName": "Instrument_0",
      "isPercussion": false,
      "pitch": 76,
      "velocity": 112,
      "startTime": 241.125,
      "duration": 0.35546875,
      "endTime": 241.48046875
    },
    {
      "instrumentId": 1,
      "instrumentName": "Instrument_1",
      "isPercussion": false,
      "pitch": 56,
      "velocity": 112,
      "startTime": 241.125,
      "duration": 0.17734375000000568,
      "endTime": 241.30234375
    },
    {
      "instrumentId": 1,
      "instrumentName": "Instrument_1",
      "isPercussion": false,
      "pitch": 61,
      "velocity": 112,
      "startTime": 241.125,
      "duration": 0.17734375000000568,
      "endTime": 241.30234375
    },
    {
      "instrumentId": 0,
      "instrumentName": "Instrument_0",
      "isPercussion": false,
      "pitch": 76,
      "velocity": 112,
      "startTime": 241.5,
      "duration": 0.35546875,
      "endTime": 241.85546875
    },
    {
      "instrumentId": 0,
      "instrumentName": "Instrument_0",
      "isPercussion": false,
      "pitch": 80,
      "velocity": 112,
      "startTime": 241.5,
      "duration": 0.35546875,
      "endTime": 241.85546875
    },
    {
      "instrumentId": 1,
      "instrumentName": "Instrument_1",
      "isPercussion": false,
      "pitch": 54,
      "velocity": 112,
      "startTime": 241.5,
      "duration": 0.17734375000000568,
      "endTime": 241.67734375
    },
    {
      "instrumentId": 1,
      "instrumentName": "Instrument_1",
      "isPercussion": false,
      "pitch": 61,
      "velocity": 112,
      "startTime": 241.5,
      "duration": 0.17734375000000568,
      "endTime": 241.67734375
    },
    {
      "instrumentId": 0,
      "instrumentName": "Instrument_0",
      "isPercussion": false,
      "pitch": 83,
      "velocity": 112,
      "startTime": 241.875,
      "duration": 0.17734375000000568,
      "endTime": 242.05234375
    },
    {
      "instrumentId": 0,
      "instrumentName": "Instrument_0",
      "isPercussion": false,
      "pitch": 80,
      "velocity": 112,
      "startTime": 242.0625,
      "duration": 0.17734375000000568,
      "endTime": 242.23984375
    },
    {
      "instrumentId": 1,
      "instrumentName": "Instrument_1",
      "isPercussion": false,
      "pitch": 54,
      "velocity": 112,
      "startTime": 242.0625,
      "duration": 0.17734375000000568,
      "endTime": 242.23984375
    },
    {
      "instrumentId": 1,
      "instrumentName": "Instrument_1",
      "isPercussion": false,
      "pitch": 64,
      "velocity": 112,
      "startTime": 242.0625,
      "duration": 0.17734375000000568,
      "endTime": 242.23984375
    },
    {
      "instrumentId": 0,
      "instrumentName": "Instrument_0",
      "isPercussion": false,
      "pitch": 75,
      "velocity": 112,
      "startTime": 242.25,
      "duration": 0.35546875,
      "endTime": 242.60546875
    },
    {
      "instrumentId": 0,
      "instrumentName": "Instrument_0",
      "isPercussion": false,
      "pitch": 78,
      "velocity": 112,
      "startTime": 242.25,
      "duration": 0.35546875,
      "endTime": 242.60546875
    },
    {
      "instrumentId": 0,
      "instrumentName": "Instrument_0",
      "isPercussion": false,
      "pitch": 73,
      "velocity": 112,
      "startTime": 242.625,
      "duration": 0.35546875,
      "endTime": 242.98046875
    },
    {
      "instrumentId": 0,
      "instrumentName": "Instrument_0",
      "isPercussion": false,
      "pitch": 76,
      "velocity": 112,
      "startTime": 242.625,
      "duration": 0.35546875,
      "endTime": 242.98046875
    },
    {
      "instrumentId": 1,
      "instrumentName": "Instrument_1",
      "isPercussion": false,
      "pitch": 54,
      "velocity": 112,
      "startTime": 242.625,
      "duration": 0.17734375000000568,
      "endTime": 242.80234375
    },
    {
      "instrumentId": 1,
      "instrumentName": "Instrument_1",
      "isPercussion": false,
      "pitch": 61,
      "velocity": 112,
      "startTime": 242.625,
      "duration": 0.17734375000000568,
      "endTime": 242.80234375
    },
    {
      "instrumentId": 0,
      "instrumentName": "Instrument_0",
      "isPercussion": false,
      "pitch": 75,
      "velocity": 112,
      "startTime": 243.0,
      "duration": 0.711718750000017,
      "endTime": 243.71171875000002
    },
    {
      "instrumentId": 0,
      "instrumentName": "Instrument_0",
      "isPercussion": false,
      "pitch": 78,
      "velocity": 112,
      "startTime": 243.0,
      "duration": 0.711718750000017,
      "endTime": 243.71171875000002
    },
    {
      "instrumentId": 1,
      "instrumentName": "Instrument_1",
      "isPercussion": false,
      "pitch": 57,
      "velocity": 112,
      "startTime": 243.0,
      "duration": 0.17734375000000568,
      "endTime": 243.17734375
    },
    {
      "instrumentId": 1,
      "instrumentName": "Instrument_1",
      "isPercussion": false,
      "pitch": 61,
      "velocity": 112,
      "startTime": 243.0,
      "duration": 0.17734375000000568,
      "endTime": 243.17734375
    },
    {
      "instrumentId": 1,
      "instrumentName": "Instrument_1",
      "isPercussion": false,
      "pitch": 57,
      "velocity": 112,
      "startTime": 243.5625,
      "duration": 0.17734375000000568,
      "endTime": 243.73984375
    },
    {
      "instrumentId": 1,
      "instrumentName": "Instrument_1",
      "isPercussion": false,
      "pitch": 64,
      "velocity": 112,
      "startTime": 243.5625,
      "duration": 0.17734375000000568,
      "endTime": 243.73984375
    },
    {
      "instrumentId": 0,
      "instrumentName": "Instrument_0",
      "isPercussion": false,
      "pitch": 73,
      "velocity": 112,
      "startTime": 243.9375,
      "duration": 0.17734375000000568,
      "endTime": 244.11484375
    },
    {
      "instrumentId": 0,
      "instrumentName": "Instrument_0",
      "isPercussion": false,
      "pitch": 76,
      "velocity": 112,
      "startTime": 244.125,
      "duration": 0.17734375000000568,
      "endTime": 244.30234375
    },
    {
      "instrumentId": 1,
      "instrumentName": "Instrument_1",
      "isPercussion": false,
      "pitch": 57,
      "velocity": 112,
      "startTime": 244.125,
      "duration": 0.17734375000000568,
      "endTime": 244.30234375
    },
    {
      "instrumentId": 1,
      "instrumentName": "Instrument_1",
      "isPercussion": false,
      "pitch": 61,
      "velocity": 112,
      "startTime": 244.125,
      "duration": 0.17734375000000568,
      "endTime": 244.30234375
    },
    {
      "instrumentId": 0,
      "instrumentName": "Instrument_0",
      "isPercussion": false,
      "pitch": 78,
      "velocity": 112,
      "startTime": 244.3125,
      "duration": 0.17734375000000568,
      "endTime": 244.48984375
    },
    {
      "instrumentId": 0,
      "instrumentName": "Instrument_0",
      "isPercussion": false,
      "pitch": 76,
      "velocity": 112,
      "startTime": 244.5,
      "duration": 0.35546875,
      "endTime": 244.85546875
    },
    {
      "instrumentId": 0,
      "instrumentName": "Instrument_0",
      "isPercussion": false,
      "pitch": 80,
      "velocity": 112,
      "startTime": 244.5,
      "duration": 0.35546875,
      "endTime": 244.85546875
    },
    {
      "instrumentId": 1,
      "instrumentName": "Instrument_1",
      "isPercussion": false,
      "pitch": 54,
      "velocity": 112,
      "startTime": 244.5,
      "duration": 0.17734375000000568,
      "endTime": 244.67734375
    },
    {
      "instrumentId": 1,
      "instrumentName": "Instrument_1",
      "isPercussion": false,
      "pitch": 59,
      "velocity": 112,
      "startTime": 244.5,
      "duration": 0.17734375000000568,
      "endTime": 244.67734375
    },
    {
      "instrumentId": 1,
      "instrumentName": "Instrument_1",
      "isPercussion": false,
      "pitch": 63,
      "velocity": 112,
      "startTime": 244.5,
      "duration": 0.17734375000000568,
      "endTime": 244.67734375
    },
    {
      "instrumentId": 0,
      "instrumentName": "Instrument_0",
      "isPercussion": false,
      "pitch": 75,
      "velocity": 112,
      "startTime": 244.875,
      "duration": 0.35546875,
      "endTime": 245.23046875
    },
    {
      "instrumentId": 0,
      "instrumentName": "Instrument_0",
      "isPercussion": false,
      "pitch": 78,
      "velocity": 112,
      "startTime": 244.875,
      "duration": 0.35546875,
      "endTime": 245.23046875
    },
    {
      "instrumentId": 1,
      "instrumentName": "Instrument_1",
      "isPercussion": false,
      "pitch": 54,
      "velocity": 112,
      "startTime": 245.0625,
      "duration": 0.17734375000000568,
      "endTime": 245.23984375
    },
    {
      "instrumentId": 1,
      "instrumentName": "Instrument_1",
      "isPercussion": false,
      "pitch": 59,
      "velocity": 112,
      "startTime": 245.0625,
      "duration": 0.17734375000000568,
      "endTime": 245.23984375
    },
    {
      "instrumentId": 1,
      "instrumentName": "Instrument_1",
      "isPercussion": false,
      "pitch": 61,
      "velocity": 112,
      "startTime": 245.0625,
      "duration": 0.17734375000000568,
      "endTime": 245.23984375
    },
    {
      "instrumentId": 0,
      "instrumentName": "Instrument_0",
      "isPercussion": false,
      "pitch": 73,
      "velocity": 112,
      "startTime": 245.25,
      "duration": 0.35546875,
      "endTime": 245.60546875
    },
    {
      "instrumentId": 0,
      "instrumentName": "Instrument_0",
      "isPercussion": false,
      "pitch": 76,
      "velocity": 112,
      "startTime": 245.25,
      "duration": 0.35546875,
      "endTime": 245.60546875
    },
    {
      "instrumentId": 0,
      "instrumentName": "Instrument_0",
      "isPercussion": false,
      "pitch": 75,
      "velocity": 112,
      "startTime": 245.625,
      "duration": 0.35546875,
      "endTime": 245.98046875
    },
    {
      "instrumentId": 0,
      "instrumentName": "Instrument_0",
      "isPercussion": false,
      "pitch": 78,
      "velocity": 112,
      "startTime": 245.625,
      "duration": 0.35546875,
      "endTime": 245.98046875
    },
    {
      "instrumentId": 1,
      "instrumentName": "Instrument_1",
      "isPercussion": false,
      "pitch": 54,
      "velocity": 112,
      "startTime": 245.625,
      "duration": 0.17734375000000568,
      "endTime": 245.80234375
    },
    {
      "instrumentId": 1,
      "instrumentName": "Instrument_1",
      "isPercussion": false,
      "pitch": 59,
      "velocity": 112,
      "startTime": 245.625,
      "duration": 0.17734375000000568,
      "endTime": 245.80234375
    },
    {
      "instrumentId": 0,
      "instrumentName": "Instrument_0",
      "isPercussion": false,
      "pitch": 68,
      "velocity": 112,
      "startTime": 246.0,
      "duration": 0.35546875,
      "endTime": 246.35546875
    },
    {
      "instrumentId": 0,
      "instrumentName": "Instrument_0",
      "isPercussion": false,
      "pitch": 73,
      "velocity": 112,
      "startTime": 246.0,
      "duration": 0.35546875,
      "endTime": 246.35546875
    },
    {
      "instrumentId": 1,
      "instrumentName": "Instrument_1",
      "isPercussion": false,
      "pitch": 56,
      "velocity": 112,
      "startTime": 246.0,
      "duration": 0.17734375000000568,
      "endTime": 246.17734375
    },
    {
      "instrumentId": 1,
      "instrumentName": "Instrument_1",
      "isPercussion": false,
      "pitch": 61,
      "velocity": 112,
      "startTime": 246.0,
      "duration": 0.17734375000000568,
      "endTime": 246.17734375
    },
    {
      "instrumentId": 0,
      "instrumentName": "Instrument_0",
      "isPercussion": false,
      "pitch": 68,
      "velocity": 112,
      "startTime": 246.375,
      "duration": 0.17734375000000568,
      "endTime": 246.55234375
    },
    {
      "instrumentId": 0,
      "instrumentName": "Instrument_0",
      "isPercussion": false,
      "pitch": 73,
      "velocity": 112,
      "startTime": 246.375,
      "duration": 0.17734375000000568,
      "endTime": 246.55234375
    },
    {
      "instrumentId": 0,
      "instrumentName": "Instrument_0",
      "isPercussion": false,
      "pitch": 73,
      "velocity": 112,
      "startTime": 246.5625,
      "duration": 0.17734375000000568,
      "endTime": 246.73984375
    },
    {
      "instrumentId": 1,
      "instrumentName": "Instrument_1",
      "isPercussion": false,
      "pitch": 56,
      "velocity": 112,
      "startTime": 246.5625,
      "duration": 0.17734375000000568,
      "endTime": 246.73984375
    },
    {
      "instrumentId": 1,
      "instrumentName": "Instrument_1",
      "isPercussion": false,
      "pitch": 64,
      "velocity": 112,
      "startTime": 246.5625,
      "duration": 0.17734375000000568,
      "endTime": 246.73984375
    },
    {
      "instrumentId": 0,
      "instrumentName": "Instrument_0",
      "isPercussion": false,
      "pitch": 68,
      "velocity": 112,
      "startTime": 246.75,
      "duration": 0.17734375000000568,
      "endTime": 246.92734375
    },
    {
      "instrumentId": 0,
      "instrumentName": "Instrument_0",
      "isPercussion": false,
      "pitch": 73,
      "velocity": 112,
      "startTime": 246.75,
      "duration": 0.17734375000000568,
      "endTime": 246.92734375
    },
    {
      "instrumentId": 0,
      "instrumentName": "Instrument_0",
      "isPercussion": false,
      "pitch": 73,
      "velocity": 112,
      "startTime": 246.9375,
      "duration": 0.17734375000000568,
      "endTime": 247.11484375
    },
    {
      "instrumentId": 0,
      "instrumentName": "Instrument_0",
      "isPercussion": false,
      "pitch": 73,
      "velocity": 112,
      "startTime": 247.125,
      "duration": 0.17734375000000568,
      "endTime": 247.30234375
    },
    {
      "instrumentId": 0,
      "instrumentName": "Instrument_0",
      "isPercussion": false,
      "pitch": 76,
      "velocity": 112,
      "startTime": 247.125,
      "duration": 0.17734375000000568,
      "endTime": 247.30234375
    },
    {
      "instrumentId": 1,
      "instrumentName": "Instrument_1",
      "isPercussion": false,
      "pitch": 56,
      "velocity": 112,
      "startTime": 247.125,
      "duration": 0.17734375000000568,
      "endTime": 247.30234375
    },
    {
      "instrumentId": 1,
      "instrumentName": "Instrument_1",
      "isPercussion": false,
      "pitch": 61,
      "velocity": 112,
      "startTime": 247.125,
      "duration": 0.17734375000000568,
      "endTime": 247.30234375
    },
    {
      "instrumentId": 0,
      "instrumentName": "Instrument_0",
      "isPercussion": false,
      "pitch": 78,
      "velocity": 112,
      "startTime": 247.3125,
      "duration": 0.17734375000000568,
      "endTime": 247.48984375
    },
    {
      "instrumentId": 0,
      "instrumentName": "Instrument_0",
      "isPercussion": false,
      "pitch": 76,
      "velocity": 112,
      "startTime": 247.5,
      "duration": 0.35546875,
      "endTime": 247.85546875
    },
    {
      "instrumentId": 0,
      "instrumentName": "Instrument_0",
      "isPercussion": false,
      "pitch": 80,
      "velocity": 112,
      "startTime": 247.5,
      "duration": 0.35546875,
      "endTime": 247.85546875
    },
    {
      "instrumentId": 1,
      "instrumentName": "Instrument_1",
      "isPercussion": false,
      "pitch": 54,
      "velocity": 112,
      "startTime": 247.5,
      "duration": 0.17734375000000568,
      "endTime": 247.67734375
    },
    {
      "instrumentId": 1,
      "instrumentName": "Instrument_1",
      "isPercussion": false,
      "pitch": 61,
      "velocity": 112,
      "startTime": 247.5,
      "duration": 0.17734375000000568,
      "endTime": 247.67734375
    },
    {
      "instrumentId": 0,
      "instrumentName": "Instrument_0",
      "isPercussion": false,
      "pitch": 68,
      "velocity": 112,
      "startTime": 247.875,
      "duration": 0.35546875,
      "endTime": 248.23046875
    },
    {
      "instrumentId": 0,
      "instrumentName": "Instrument_0",
      "isPercussion": false,
      "pitch": 73,
      "velocity": 112,
      "startTime": 247.875,
      "duration": 0.35546875,
      "endTime": 248.23046875
    },
    {
      "instrumentId": 1,
      "instrumentName": "Instrument_1",
      "isPercussion": false,
      "pitch": 54,
      "velocity": 112,
      "startTime": 248.0625,
      "duration": 0.17734375000000568,
      "endTime": 248.23984375
    },
    {
      "instrumentId": 1,
      "instrumentName": "Instrument_1",
      "isPercussion": false,
      "pitch": 64,
      "velocity": 112,
      "startTime": 248.0625,
      "duration": 0.17734375000000568,
      "endTime": 248.23984375
    },
    {
      "instrumentId": 0,
      "instrumentName": "Instrument_0",
      "isPercussion": false,
      "pitch": 73,
      "velocity": 112,
      "startTime": 248.25,
      "duration": 0.35546875,
      "endTime": 248.60546875
    },
    {
      "instrumentId": 0,
      "instrumentName": "Instrument_0",
      "isPercussion": false,
      "pitch": 76,
      "velocity": 112,
      "startTime": 248.25,
      "duration": 0.35546875,
      "endTime": 248.60546875
    },
    {
      "instrumentId": 0,
      "instrumentName": "Instrument_0",
      "isPercussion": false,
      "pitch": 75,
      "velocity": 112,
      "startTime": 248.625,
      "duration": 0.35546875,
      "endTime": 248.98046875
    },
    {
      "instrumentId": 0,
      "instrumentName": "Instrument_0",
      "isPercussion": false,
      "pitch": 78,
      "velocity": 112,
      "startTime": 248.625,
      "duration": 0.35546875,
      "endTime": 248.98046875
    },
    {
      "instrumentId": 1,
      "instrumentName": "Instrument_1",
      "isPercussion": false,
      "pitch": 54,
      "velocity": 112,
      "startTime": 248.625,
      "duration": 0.17734375000000568,
      "endTime": 248.80234375
    },
    {
      "instrumentId": 1,
      "instrumentName": "Instrument_1",
      "isPercussion": false,
      "pitch": 61,
      "velocity": 112,
      "startTime": 248.625,
      "duration": 0.17734375000000568,
      "endTime": 248.80234375
    },
    {
      "instrumentId": 0,
      "instrumentName": "Instrument_0",
      "isPercussion": false,
      "pitch": 75,
      "velocity": 112,
      "startTime": 249.0,
      "duration": 1.0679687500000057,
      "endTime": 250.06796875
    },
    {
      "instrumentId": 0,
      "instrumentName": "Instrument_0",
      "isPercussion": false,
      "pitch": 78,
      "velocity": 112,
      "startTime": 249.0,
      "duration": 1.0679687500000057,
      "endTime": 250.06796875
    },
    {
      "instrumentId": 1,
      "instrumentName": "Instrument_1",
      "isPercussion": false,
      "pitch": 57,
      "velocity": 112,
      "startTime": 249.0,
      "duration": 0.17734375000000568,
      "endTime": 249.17734375
    },
    {
      "instrumentId": 1,
      "instrumentName": "Instrument_1",
      "isPercussion": false,
      "pitch": 61,
      "velocity": 112,
      "startTime": 249.0,
      "duration": 0.17734375000000568,
      "endTime": 249.17734375
    },
    {
      "instrumentId": 1,
      "instrumentName": "Instrument_1",
      "isPercussion": false,
      "pitch": 57,
      "velocity": 112,
      "startTime": 249.5625,
      "duration": 0.17734375000000568,
      "endTime": 249.73984375
    },
    {
      "instrumentId": 1,
      "instrumentName": "Instrument_1",
      "isPercussion": false,
      "pitch": 64,
      "velocity": 112,
      "startTime": 249.5625,
      "duration": 0.17734375000000568,
      "endTime": 249.73984375
    },
    {
      "instrumentId": 0,
      "instrumentName": "Instrument_0",
      "isPercussion": false,
      "pitch": 76,
      "velocity": 112,
      "startTime": 250.125,
      "duration": 0.17734375000000568,
      "endTime": 250.30234375
    },
    {
      "instrumentId": 1,
      "instrumentName": "Instrument_1",
      "isPercussion": false,
      "pitch": 57,
      "velocity": 112,
      "startTime": 250.125,
      "duration": 0.17734375000000568,
      "endTime": 250.30234375
    },
    {
      "instrumentId": 1,
      "instrumentName": "Instrument_1",
      "isPercussion": false,
      "pitch": 61,
      "velocity": 112,
      "startTime": 250.125,
      "duration": 0.17734375000000568,
      "endTime": 250.30234375
    },
    {
      "instrumentId": 0,
      "instrumentName": "Instrument_0",
      "isPercussion": false,
      "pitch": 78,
      "velocity": 112,
      "startTime": 250.3125,
      "duration": 0.17734375000000568,
      "endTime": 250.48984375
    },
    {
      "instrumentId": 0,
      "instrumentName": "Instrument_0",
      "isPercussion": false,
      "pitch": 76,
      "velocity": 112,
      "startTime": 250.5,
      "duration": 0.35546875,
      "endTime": 250.85546875
    },
    {
      "instrumentId": 0,
      "instrumentName": "Instrument_0",
      "isPercussion": false,
      "pitch": 80,
      "velocity": 112,
      "startTime": 250.5,
      "duration": 0.35546875,
      "endTime": 250.85546875
    },
    {
      "instrumentId": 1,
      "instrumentName": "Instrument_1",
      "isPercussion": false,
      "pitch": 54,
      "velocity": 112,
      "startTime": 250.5,
      "duration": 0.17734375000000568,
      "endTime": 250.67734375
    },
    {
      "instrumentId": 1,
      "instrumentName": "Instrument_1",
      "isPercussion": false,
      "pitch": 59,
      "velocity": 112,
      "startTime": 250.5,
      "duration": 0.17734375000000568,
      "endTime": 250.67734375
    },
    {
      "instrumentId": 1,
      "instrumentName": "Instrument_1",
      "isPercussion": false,
      "pitch": 63,
      "velocity": 112,
      "startTime": 250.5,
      "duration": 0.17734375000000568,
      "endTime": 250.67734375
    },
    {
      "instrumentId": 0,
      "instrumentName": "Instrument_0",
      "isPercussion": false,
      "pitch": 78,
      "velocity": 112,
      "startTime": 250.875,
      "duration": 0.17734375000000568,
      "endTime": 251.05234375
    },
    {
      "instrumentId": 0,
      "instrumentName": "Instrument_0",
      "isPercussion": false,
      "pitch": 76,
      "velocity": 112,
      "startTime": 251.0625,
      "duration": 0.17734375000000568,
      "endTime": 251.23984375
    },
    {
      "instrumentId": 1,
      "instrumentName": "Instrument_1",
      "isPercussion": false,
      "pitch": 54,
      "velocity": 112,
      "startTime": 251.0625,
      "duration": 0.17734375000000568,
      "endTime": 251.23984375
    },
    {
      "instrumentId": 1,
      "instrumentName": "Instrument_1",
      "isPercussion": false,
      "pitch": 59,
      "velocity": 112,
      "startTime": 251.0625,
      "duration": 0.17734375000000568,
      "endTime": 251.23984375
    },
    {
      "instrumentId": 1,
      "instrumentName": "Instrument_1",
      "isPercussion": false,
      "pitch": 61,
      "velocity": 112,
      "startTime": 251.0625,
      "duration": 0.17734375000000568,
      "endTime": 251.23984375
    },
    {
      "instrumentId": 0,
      "instrumentName": "Instrument_0",
      "isPercussion": false,
      "pitch": 75,
      "velocity": 112,
      "startTime": 251.25,
      "duration": 0.5335937500000227,
      "endTime": 251.78359375000002
    },
    {
      "instrumentId": 0,
      "instrumentName": "Instrument_0",
      "isPercussion": false,
      "pitch": 78,
      "velocity": 112,
      "startTime": 251.25,
      "duration": 0.5335937500000227,
      "endTime": 251.78359375000002
    },
    {
      "instrumentId": 1,
      "instrumentName": "Instrument_1",
      "isPercussion": false,
      "pitch": 54,
      "velocity": 112,
      "startTime": 251.625,
      "duration": 0.17734375000000568,
      "endTime": 251.80234375
    },
    {
      "instrumentId": 1,
      "instrumentName": "Instrument_1",
      "isPercussion": false,
      "pitch": 59,
      "velocity": 112,
      "startTime": 251.625,
      "duration": 0.17734375000000568,
      "endTime": 251.80234375
    },
    {
      "instrumentId": 0,
      "instrumentName": "Instrument_0",
      "isPercussion": false,
      "pitch": 73,
      "velocity": 112,
      "startTime": 251.8125,
      "duration": 0.5335937500000227,
      "endTime": 252.34609375000002
    },
    {
      "instrumentId": 1,
      "instrumentName": "Instrument_1",
      "isPercussion": false,
      "pitch": 56,
      "velocity": 112,
      "startTime": 252.0,
      "duration": 0.17734375000000568,
      "endTime": 252.17734375
    },
    {
      "instrumentId": 1,
      "instrumentName": "Instrument_1",
      "isPercussion": false,
      "pitch": 61,
      "velocity": 112,
      "startTime": 252.0,
      "duration": 0.17734375000000568,
      "endTime": 252.17734375
    },
    {
      "instrumentId": 0,
      "instrumentName": "Instrument_0",
      "isPercussion": false,
      "pitch": 80,
      "velocity": 112,
      "startTime": 252.375,
      "duration": 0.17734375000000568,
      "endTime": 252.55234375
    },
    {
      "instrumentId": 0,
      "instrumentName": "Instrument_0",
      "isPercussion": false,
      "pitch": 76,
      "velocity": 112,
      "startTime": 252.5625,
      "duration": 0.35546875,
      "endTime": 252.91796875
    },
    {
      "instrumentId": 0,
      "instrumentName": "Instrument_0",
      "isPercussion": false,
      "pitch": 80,
      "velocity": 112,
      "startTime": 252.5625,
      "duration": 0.35546875,
      "endTime": 252.91796875
    },
    {
      "instrumentId": 1,
      "instrumentName": "Instrument_1",
      "isPercussion": false,
      "pitch": 56,
      "velocity": 112,
      "startTime": 252.5625,
      "duration": 0.17734375000000568,
      "endTime": 252.73984375
    },
    {
      "instrumentId": 1,
      "instrumentName": "Instrument_1",
      "isPercussion": false,
      "pitch": 64,
      "velocity": 112,
      "startTime": 252.5625,
      "duration": 0.17734375000000568,
      "endTime": 252.73984375
    },
    {
      "instrumentId": 0,
      "instrumentName": "Instrument_0",
      "isPercussion": false,
      "pitch": 75,
      "velocity": 112,
      "startTime": 252.9375,
      "duration": 0.35546875,
      "endTime": 253.29296875
    },
    {
      "instrumentId": 0,
      "instrumentName": "Instrument_0",
      "isPercussion": false,
      "pitch": 78,
      "velocity": 112,
      "startTime": 252.9375,
      "duration": 0.35546875,
      "endTime": 253.29296875
    },
    {
      "instrumentId": 1,
      "instrumentName": "Instrument_1",
      "isPercussion": false,
      "pitch": 56,
      "velocity": 112,
      "startTime": 253.125,
      "duration": 0.17734375000000568,
      "endTime": 253.30234375
    },
    {
      "instrumentId": 1,
      "instrumentName": "Instrument_1",
      "isPercussion": false,
      "pitch": 61,
      "velocity": 112,
      "startTime": 253.125,
      "duration": 0.17734375000000568,
      "endTime": 253.30234375
    },
    {
      "instrumentId": 0,
      "instrumentName": "Instrument_0",
      "isPercussion": false,
      "pitch": 76,
      "velocity": 112,
      "startTime": 253.3125,
      "duration": 0.17734375000000568,
      "endTime": 253.48984375
    },
    {
      "instrumentId": 0,
      "instrumentName": "Instrument_0",
      "isPercussion": false,
      "pitch": 75,
      "velocity": 112,
      "startTime": 253.5,
      "duration": 0.35546875,
      "endTime": 253.85546875
    },
    {
      "instrumentId": 0,
      "instrumentName": "Instrument_0",
      "isPercussion": false,
      "pitch": 78,
      "velocity": 112,
      "startTime": 253.5,
      "duration": 0.35546875,
      "endTime": 253.85546875
    },
    {
      "instrumentId": 1,
      "instrumentName": "Instrument_1",
      "isPercussion": false,
      "pitch": 54,
      "velocity": 112,
      "startTime": 253.5,
      "duration": 0.17734375000000568,
      "endTime": 253.67734375
    },
    {
      "instrumentId": 1,
      "instrumentName": "Instrument_1",
      "isPercussion": false,
      "pitch": 61,
      "velocity": 112,
      "startTime": 253.5,
      "duration": 0.17734375000000568,
      "endTime": 253.67734375
    },
    {
      "instrumentId": 0,
      "instrumentName": "Instrument_0",
      "isPercussion": false,
      "pitch": 76,
      "velocity": 112,
      "startTime": 253.875,
      "duration": 0.35546875,
      "endTime": 254.23046875
    },
    {
      "instrumentId": 0,
      "instrumentName": "Instrument_0",
      "isPercussion": false,
      "pitch": 80,
      "velocity": 112,
      "startTime": 253.875,
      "duration": 0.35546875,
      "endTime": 254.23046875
    },
    {
      "instrumentId": 1,
      "instrumentName": "Instrument_1",
      "isPercussion": false,
      "pitch": 54,
      "velocity": 112,
      "startTime": 254.0625,
      "duration": 0.17734375000000568,
      "endTime": 254.23984375
    },
    {
      "instrumentId": 1,
      "instrumentName": "Instrument_1",
      "isPercussion": false,
      "pitch": 64,
      "velocity": 112,
      "startTime": 254.0625,
      "duration": 0.17734375000000568,
      "endTime": 254.23984375
    },
    {
      "instrumentId": 0,
      "instrumentName": "Instrument_0",
      "isPercussion": false,
      "pitch": 68,
      "velocity": 112,
      "startTime": 254.25,
      "duration": 0.35546875,
      "endTime": 254.60546875
    },
    {
      "instrumentId": 0,
      "instrumentName": "Instrument_0",
      "isPercussion": false,
      "pitch": 73,
      "velocity": 112,
      "startTime": 254.25,
      "duration": 0.35546875,
      "endTime": 254.60546875
    },
    {
      "instrumentId": 0,
      "instrumentName": "Instrument_0",
      "isPercussion": false,
      "pitch": 68,
      "velocity": 112,
      "startTime": 254.625,
      "duration": 0.711718750000017,
      "endTime": 255.33671875000002
    },
    {
      "instrumentId": 0,
      "instrumentName": "Instrument_0",
      "isPercussion": false,
      "pitch": 73,
      "velocity": 112,
      "startTime": 254.625,
      "duration": 0.711718750000017,
      "endTime": 255.33671875000002
    },
    {
      "instrumentId": 1,
      "instrumentName": "Instrument_1",
      "isPercussion": false,
      "pitch": 54,
      "velocity": 112,
      "startTime": 254.625,
      "duration": 0.17734375000000568,
      "endTime": 254.80234375
    },
    {
      "instrumentId": 1,
      "instrumentName": "Instrument_1",
      "isPercussion": false,
      "pitch": 61,
      "velocity": 112,
      "startTime": 254.625,
      "duration": 0.17734375000000568,
      "endTime": 254.80234375
    },
    {
      "instrumentId": 1,
      "instrumentName": "Instrument_1",
      "isPercussion": false,
      "pitch": 57,
      "velocity": 112,
      "startTime": 255.0,
      "duration": 0.17734375000000568,
      "endTime": 255.17734375
    },
    {
      "instrumentId": 1,
      "instrumentName": "Instrument_1",
      "isPercussion": false,
      "pitch": 61,
      "velocity": 112,
      "startTime": 255.0,
      "duration": 0.17734375000000568,
      "endTime": 255.17734375
    },
    {
      "instrumentId": 0,
      "instrumentName": "Instrument_0",
      "isPercussion": false,
      "pitch": 80,
      "velocity": 112,
      "startTime": 255.375,
      "duration": 0.17734375000000568,
      "endTime": 255.55234375
    },
    {
      "instrumentId": 0,
      "instrumentName": "Instrument_0",
      "isPercussion": false,
      "pitch": 76,
      "velocity": 112,
      "startTime": 255.5625,
      "duration": 0.35546875,
      "endTime": 255.91796875
    },
    {
      "instrumentId": 0,
      "instrumentName": "Instrument_0",
      "isPercussion": false,
      "pitch": 80,
      "velocity": 112,
      "startTime": 255.5625,
      "duration": 0.35546875,
      "endTime": 255.91796875
    },
    {
      "instrumentId": 1,
      "instrumentName": "Instrument_1",
      "isPercussion": false,
      "pitch": 57,
      "velocity": 112,
      "startTime": 255.5625,
      "duration": 0.17734375000000568,
      "endTime": 255.73984375
    },
    {
      "instrumentId": 1,
      "instrumentName": "Instrument_1",
      "isPercussion": false,
      "pitch": 64,
      "velocity": 112,
      "startTime": 255.5625,
      "duration": 0.17734375000000568,
      "endTime": 255.73984375
    },
    {
      "instrumentId": 0,
      "instrumentName": "Instrument_0",
      "isPercussion": false,
      "pitch": 75,
      "velocity": 112,
      "startTime": 255.9375,
      "duration": 0.35546875,
      "endTime": 256.29296875
    },
    {
      "instrumentId": 0,
      "instrumentName": "Instrument_0",
      "isPercussion": false,
      "pitch": 78,
      "velocity": 112,
      "startTime": 255.9375,
      "duration": 0.35546875,
      "endTime": 256.29296875
    },
    {
      "instrumentId": 1,
      "instrumentName": "Instrument_1",
      "isPercussion": false,
      "pitch": 57,
      "velocity": 112,
      "startTime": 256.125,
      "duration": 0.1773437500000341,
      "endTime": 256.30234375000003
    },
    {
      "instrumentId": 1,
      "instrumentName": "Instrument_1",
      "isPercussion": false,
      "pitch": 61,
      "velocity": 112,
      "startTime": 256.125,
      "duration": 0.1773437500000341,
      "endTime": 256.30234375000003
    },
    {
      "instrumentId": 0,
      "instrumentName": "Instrument_0",
      "isPercussion": false,
      "pitch": 76,
      "velocity": 112,
      "startTime": 256.3125,
      "duration": 0.1773437500000341,
      "endTime": 256.48984375000003
    },
    {
      "instrumentId": 0,
      "instrumentName": "Instrument_0",
      "isPercussion": false,
      "pitch": 75,
      "velocity": 112,
      "startTime": 256.5,
      "duration": 0.35546875,
      "endTime": 256.85546875
    },
    {
      "instrumentId": 0,
      "instrumentName": "Instrument_0",
      "isPercussion": false,
      "pitch": 78,
      "velocity": 112,
      "startTime": 256.5,
      "duration": 0.35546875,
      "endTime": 256.85546875
    },
    {
      "instrumentId": 1,
      "instrumentName": "Instrument_1",
      "isPercussion": false,
      "pitch": 54,
      "velocity": 112,
      "startTime": 256.5,
      "duration": 0.1773437500000341,
      "endTime": 256.67734375000003
    },
    {
      "instrumentId": 1,
      "instrumentName": "Instrument_1",
      "isPercussion": false,
      "pitch": 59,
      "velocity": 112,
      "startTime": 256.5,
      "duration": 0.1773437500000341,
      "endTime": 256.67734375000003
    },
    {
      "instrumentId": 1,
      "instrumentName": "Instrument_1",
      "isPercussion": false,
      "pitch": 63,
      "velocity": 112,
      "startTime": 256.5,
      "duration": 0.1773437500000341,
      "endTime": 256.67734375000003
    },
    {
      "instrumentId": 0,
      "instrumentName": "Instrument_0",
      "isPercussion": false,
      "pitch": 73,
      "velocity": 112,
      "startTime": 256.875,
      "duration": 0.35546875,
      "endTime": 257.23046875
    },
    {
      "instrumentId": 0,
      "instrumentName": "Instrument_0",
      "isPercussion": false,
      "pitch": 76,
      "velocity": 112,
      "startTime": 256.875,
      "duration": 0.35546875,
      "endTime": 257.23046875
    },
    {
      "instrumentId": 1,
      "instrumentName": "Instrument_1",
      "isPercussion": false,
      "pitch": 54,
      "velocity": 112,
      "startTime": 257.0625,
      "duration": 0.1773437500000341,
      "endTime": 257.23984375000003
    },
    {
      "instrumentId": 1,
      "instrumentName": "Instrument_1",
      "isPercussion": false,
      "pitch": 59,
      "velocity": 112,
      "startTime": 257.0625,
      "duration": 0.1773437500000341,
      "endTime": 257.23984375000003
    },
    {
      "instrumentId": 1,
      "instrumentName": "Instrument_1",
      "isPercussion": false,
      "pitch": 61,
      "velocity": 112,
      "startTime": 257.0625,
      "duration": 0.1773437500000341,
      "endTime": 257.23984375000003
    },
    {
      "instrumentId": 0,
      "instrumentName": "Instrument_0",
      "isPercussion": false,
      "pitch": 68,
      "velocity": 112,
      "startTime": 257.25,
      "duration": 0.35546875,
      "endTime": 257.60546875
    },
    {
      "instrumentId": 0,
      "instrumentName": "Instrument_0",
      "isPercussion": false,
      "pitch": 73,
      "velocity": 112,
      "startTime": 257.25,
      "duration": 0.35546875,
      "endTime": 257.60546875
    },
    {
      "instrumentId": 0,
      "instrumentName": "Instrument_0",
      "isPercussion": false,
      "pitch": 68,
      "velocity": 112,
      "startTime": 257.625,
      "duration": 0.35546875,
      "endTime": 257.98046875
    },
    {
      "instrumentId": 0,
      "instrumentName": "Instrument_0",
      "isPercussion": false,
      "pitch": 73,
      "velocity": 112,
      "startTime": 257.625,
      "duration": 0.35546875,
      "endTime": 257.98046875
    },
    {
      "instrumentId": 1,
      "instrumentName": "Instrument_1",
      "isPercussion": false,
      "pitch": 54,
      "velocity": 112,
      "startTime": 257.625,
      "duration": 0.1773437500000341,
      "endTime": 257.80234375000003
    },
    {
      "instrumentId": 1,
      "instrumentName": "Instrument_1",
      "isPercussion": false,
      "pitch": 59,
      "velocity": 112,
      "startTime": 257.625,
      "duration": 0.1773437500000341,
      "endTime": 257.80234375000003
    },
    {
      "instrumentId": 0,
      "instrumentName": "Instrument_0",
      "isPercussion": false,
      "pitch": 68,
      "velocity": 112,
      "startTime": 258.0,
      "duration": 0.35546875,
      "endTime": 258.35546875
    },
    {
      "instrumentId": 0,
      "instrumentName": "Instrument_0",
      "isPercussion": false,
      "pitch": 73,
      "velocity": 112,
      "startTime": 258.0,
      "duration": 0.35546875,
      "endTime": 258.35546875
    },
    {
      "instrumentId": 1,
      "instrumentName": "Instrument_1",
      "isPercussion": false,
      "pitch": 56,
      "velocity": 112,
      "startTime": 258.0,
      "duration": 0.1773437500000341,
      "endTime": 258.17734375000003
    },
    {
      "instrumentId": 1,
      "instrumentName": "Instrument_1",
      "isPercussion": false,
      "pitch": 61,
      "velocity": 112,
      "startTime": 258.0,
      "duration": 0.1773437500000341,
      "endTime": 258.17734375000003
    },
    {
      "instrumentId": 0,
      "instrumentName": "Instrument_0",
      "isPercussion": false,
      "pitch": 80,
      "velocity": 112,
      "startTime": 258.375,
      "duration": 0.1773437500000341,
      "endTime": 258.55234375000003
    },
    {
      "instrumentId": 0,
      "instrumentName": "Instrument_0",
      "isPercussion": false,
      "pitch": 76,
      "velocity": 112,
      "startTime": 258.5625,
      "duration": 0.35546875,
      "endTime": 258.91796875
    },
    {
      "instrumentId": 0,
      "instrumentName": "Instrument_0",
      "isPercussion": false,
      "pitch": 80,
      "velocity": 112,
      "startTime": 258.5625,
      "duration": 0.35546875,
      "endTime": 258.91796875
    },
    {
      "instrumentId": 1,
      "instrumentName": "Instrument_1",
      "isPercussion": false,
      "pitch": 56,
      "velocity": 112,
      "startTime": 258.5625,
      "duration": 0.1773437500000341,
      "endTime": 258.73984375000003
    },
    {
      "instrumentId": 1,
      "instrumentName": "Instrument_1",
      "isPercussion": false,
      "pitch": 64,
      "velocity": 112,
      "startTime": 258.5625,
      "duration": 0.1773437500000341,
      "endTime": 258.73984375000003
    },
    {
      "instrumentId": 0,
      "instrumentName": "Instrument_0",
      "isPercussion": false,
      "pitch": 75,
      "velocity": 112,
      "startTime": 258.9375,
      "duration": 0.35546875,
      "endTime": 259.29296875
    },
    {
      "instrumentId": 0,
      "instrumentName": "Instrument_0",
      "isPercussion": false,
      "pitch": 78,
      "velocity": 112,
      "startTime": 258.9375,
      "duration": 0.35546875,
      "endTime": 259.29296875
    },
    {
      "instrumentId": 1,
      "instrumentName": "Instrument_1",
      "isPercussion": false,
      "pitch": 56,
      "velocity": 112,
      "startTime": 259.125,
      "duration": 0.1773437500000341,
      "endTime": 259.30234375000003
    },
    {
      "instrumentId": 1,
      "instrumentName": "Instrument_1",
      "isPercussion": false,
      "pitch": 61,
      "velocity": 112,
      "startTime": 259.125,
      "duration": 0.1773437500000341,
      "endTime": 259.30234375000003
    },
    {
      "instrumentId": 0,
      "instrumentName": "Instrument_0",
      "isPercussion": false,
      "pitch": 76,
      "velocity": 112,
      "startTime": 259.3125,
      "duration": 0.1773437500000341,
      "endTime": 259.48984375000003
    },
    {
      "instrumentId": 0,
      "instrumentName": "Instrument_0",
      "isPercussion": false,
      "pitch": 75,
      "velocity": 112,
      "startTime": 259.5,
      "duration": 0.35546875,
      "endTime": 259.85546875
    },
    {
      "instrumentId": 0,
      "instrumentName": "Instrument_0",
      "isPercussion": false,
      "pitch": 78,
      "velocity": 112,
      "startTime": 259.5,
      "duration": 0.35546875,
      "endTime": 259.85546875
    },
    {
      "instrumentId": 1,
      "instrumentName": "Instrument_1",
      "isPercussion": false,
      "pitch": 54,
      "velocity": 112,
      "startTime": 259.5,
      "duration": 0.1773437500000341,
      "endTime": 259.67734375000003
    },
    {
      "instrumentId": 1,
      "instrumentName": "Instrument_1",
      "isPercussion": false,
      "pitch": 61,
      "velocity": 112,
      "startTime": 259.5,
      "duration": 0.1773437500000341,
      "endTime": 259.67734375000003
    },
    {
      "instrumentId": 0,
      "instrumentName": "Instrument_0",
      "isPercussion": false,
      "pitch": 76,
      "velocity": 112,
      "startTime": 259.875,
      "duration": 0.35546875,
      "endTime": 260.23046875
    },
    {
      "instrumentId": 0,
      "instrumentName": "Instrument_0",
      "isPercussion": false,
      "pitch": 80,
      "velocity": 112,
      "startTime": 259.875,
      "duration": 0.35546875,
      "endTime": 260.23046875
    },
    {
      "instrumentId": 1,
      "instrumentName": "Instrument_1",
      "isPercussion": false,
      "pitch": 54,
      "velocity": 112,
      "startTime": 260.0625,
      "duration": 0.1773437500000341,
      "endTime": 260.23984375000003
    },
    {
      "instrumentId": 1,
      "instrumentName": "Instrument_1",
      "isPercussion": false,
      "pitch": 64,
      "velocity": 112,
      "startTime": 260.0625,
      "duration": 0.1773437500000341,
      "endTime": 260.23984375000003
    },
    {
      "instrumentId": 0,
      "instrumentName": "Instrument_0",
      "isPercussion": false,
      "pitch": 68,
      "velocity": 112,
      "startTime": 260.25,
      "duration": 0.35546875,
      "endTime": 260.60546875
    },
    {
      "instrumentId": 0,
      "instrumentName": "Instrument_0",
      "isPercussion": false,
      "pitch": 73,
      "velocity": 112,
      "startTime": 260.25,
      "duration": 0.35546875,
      "endTime": 260.60546875
    },
    {
      "instrumentId": 0,
      "instrumentName": "Instrument_0",
      "isPercussion": false,
      "pitch": 68,
      "velocity": 112,
      "startTime": 260.625,
      "duration": 0.7117187499999886,
      "endTime": 261.33671875
    },
    {
      "instrumentId": 0,
      "instrumentName": "Instrument_0",
      "isPercussion": false,
      "pitch": 73,
      "velocity": 112,
      "startTime": 260.625,
      "duration": 0.7117187499999886,
      "endTime": 261.33671875
    },
    {
      "instrumentId": 1,
      "instrumentName": "Instrument_1",
      "isPercussion": false,
      "pitch": 54,
      "velocity": 112,
      "startTime": 260.625,
      "duration": 0.1773437500000341,
      "endTime": 260.80234375000003
    },
    {
      "instrumentId": 1,
      "instrumentName": "Instrument_1",
      "isPercussion": false,
      "pitch": 61,
      "velocity": 112,
      "startTime": 260.625,
      "duration": 0.1773437500000341,
      "endTime": 260.80234375000003
    },
    {
      "instrumentId": 1,
      "instrumentName": "Instrument_1",
      "isPercussion": false,
      "pitch": 57,
      "velocity": 112,
      "startTime": 261.0,
      "duration": 0.1773437500000341,
      "endTime": 261.17734375000003
    },
    {
      "instrumentId": 1,
      "instrumentName": "Instrument_1",
      "isPercussion": false,
      "pitch": 61,
      "velocity": 112,
      "startTime": 261.0,
      "duration": 0.1773437500000341,
      "endTime": 261.17734375000003
    },
    {
      "instrumentId": 0,
      "instrumentName": "Instrument_0",
      "isPercussion": false,
      "pitch": 80,
      "velocity": 112,
      "startTime": 261.375,
      "duration": 0.1773437500000341,
      "endTime": 261.55234375000003
    },
    {
      "instrumentId": 0,
      "instrumentName": "Instrument_0",
      "isPercussion": false,
      "pitch": 76,
      "velocity": 112,
      "startTime": 261.5625,
      "duration": 0.35546875,
      "endTime": 261.91796875
    },
    {
      "instrumentId": 0,
      "instrumentName": "Instrument_0",
      "isPercussion": false,
      "pitch": 80,
      "velocity": 112,
      "startTime": 261.5625,
      "duration": 0.35546875,
      "endTime": 261.91796875
    },
    {
      "instrumentId": 1,
      "instrumentName": "Instrument_1",
      "isPercussion": false,
      "pitch": 57,
      "velocity": 112,
      "startTime": 261.5625,
      "duration": 0.1773437500000341,
      "endTime": 261.73984375000003
    },
    {
      "instrumentId": 1,
      "instrumentName": "Instrument_1",
      "isPercussion": false,
      "pitch": 64,
      "velocity": 112,
      "startTime": 261.5625,
      "duration": 0.1773437500000341,
      "endTime": 261.73984375000003
    },
    {
      "instrumentId": 0,
      "instrumentName": "Instrument_0",
      "isPercussion": false,
      "pitch": 75,
      "velocity": 112,
      "startTime": 261.9375,
      "duration": 0.35546875,
      "endTime": 262.29296875
    },
    {
      "instrumentId": 0,
      "instrumentName": "Instrument_0",
      "isPercussion": false,
      "pitch": 78,
      "velocity": 112,
      "startTime": 261.9375,
      "duration": 0.35546875,
      "endTime": 262.29296875
    },
    {
      "instrumentId": 1,
      "instrumentName": "Instrument_1",
      "isPercussion": false,
      "pitch": 57,
      "velocity": 112,
      "startTime": 262.125,
      "duration": 0.1773437500000341,
      "endTime": 262.30234375000003
    },
    {
      "instrumentId": 1,
      "instrumentName": "Instrument_1",
      "isPercussion": false,
      "pitch": 61,
      "velocity": 112,
      "startTime": 262.125,
      "duration": 0.1773437500000341,
      "endTime": 262.30234375000003
    },
    {
      "instrumentId": 0,
      "instrumentName": "Instrument_0",
      "isPercussion": false,
      "pitch": 76,
      "velocity": 112,
      "startTime": 262.3125,
      "duration": 0.1773437500000341,
      "endTime": 262.48984375000003
    },
    {
      "instrumentId": 0,
      "instrumentName": "Instrument_0",
      "isPercussion": false,
      "pitch": 75,
      "velocity": 112,
      "startTime": 262.5,
      "duration": 0.35546875,
      "endTime": 262.85546875
    },
    {
      "instrumentId": 0,
      "instrumentName": "Instrument_0",
      "isPercussion": false,
      "pitch": 78,
      "velocity": 112,
      "startTime": 262.5,
      "duration": 0.35546875,
      "endTime": 262.85546875
    },
    {
      "instrumentId": 1,
      "instrumentName": "Instrument_1",
      "isPercussion": false,
      "pitch": 54,
      "velocity": 112,
      "startTime": 262.5,
      "duration": 0.1773437500000341,
      "endTime": 262.67734375000003
    },
    {
      "instrumentId": 1,
      "instrumentName": "Instrument_1",
      "isPercussion": false,
      "pitch": 59,
      "velocity": 112,
      "startTime": 262.5,
      "duration": 0.1773437500000341,
      "endTime": 262.67734375000003
    },
    {
      "instrumentId": 1,
      "instrumentName": "Instrument_1",
      "isPercussion": false,
      "pitch": 63,
      "velocity": 112,
      "startTime": 262.5,
      "duration": 0.1773437500000341,
      "endTime": 262.67734375000003
    },
    {
      "instrumentId": 0,
      "instrumentName": "Instrument_0",
      "isPercussion": false,
      "pitch": 73,
      "velocity": 112,
      "startTime": 262.875,
      "duration": 0.35546875,
      "endTime": 263.23046875
    },
    {
      "instrumentId": 0,
      "instrumentName": "Instrument_0",
      "isPercussion": false,
      "pitch": 76,
      "velocity": 112,
      "startTime": 262.875,
      "duration": 0.35546875,
      "endTime": 263.23046875
    },
    {
      "instrumentId": 1,
      "instrumentName": "Instrument_1",
      "isPercussion": false,
      "pitch": 54,
      "velocity": 112,
      "startTime": 263.0625,
      "duration": 0.1773437500000341,
      "endTime": 263.23984375000003
    },
    {
      "instrumentId": 1,
      "instrumentName": "Instrument_1",
      "isPercussion": false,
      "pitch": 59,
      "velocity": 112,
      "startTime": 263.0625,
      "duration": 0.1773437500000341,
      "endTime": 263.23984375000003
    },
    {
      "instrumentId": 1,
      "instrumentName": "Instrument_1",
      "isPercussion": false,
      "pitch": 61,
      "velocity": 112,
      "startTime": 263.0625,
      "duration": 0.1773437500000341,
      "endTime": 263.23984375000003
    },
    {
      "instrumentId": 0,
      "instrumentName": "Instrument_0",
      "isPercussion": false,
      "pitch": 68,
      "velocity": 112,
      "startTime": 263.25,
      "duration": 0.35546875,
      "endTime": 263.60546875
    },
    {
      "instrumentId": 0,
      "instrumentName": "Instrument_0",
      "isPercussion": false,
      "pitch": 73,
      "velocity": 112,
      "startTime": 263.25,
      "duration": 0.35546875,
      "endTime": 263.60546875
    },
    {
      "instrumentId": 0,
      "instrumentName": "Instrument_0",
      "isPercussion": false,
      "pitch": 68,
      "velocity": 112,
      "startTime": 263.625,
      "duration": 0.7117187499999886,
      "endTime": 264.33671875
    },
    {
      "instrumentId": 0,
      "instrumentName": "Instrument_0",
      "isPercussion": false,
      "pitch": 73,
      "velocity": 112,
      "startTime": 263.625,
      "duration": 0.7117187499999886,
      "endTime": 264.33671875
    },
    {
      "instrumentId": 1,
      "instrumentName": "Instrument_1",
      "isPercussion": false,
      "pitch": 54,
      "velocity": 112,
      "startTime": 263.625,
      "duration": 0.1773437500000341,
      "endTime": 263.80234375000003
    },
    {
      "instrumentId": 1,
      "instrumentName": "Instrument_1",
      "isPercussion": false,
      "pitch": 59,
      "velocity": 112,
      "startTime": 263.625,
      "duration": 0.1773437500000341,
      "endTime": 263.80234375000003
    },
    {
      "instrumentId": 1,
      "instrumentName": "Instrument_1",
      "isPercussion": false,
      "pitch": 56,
      "velocity": 112,
      "startTime": 264.0,
      "duration": 0.1773437500000341,
      "endTime": 264.17734375000003
    },
    {
      "instrumentId": 1,
      "instrumentName": "Instrument_1",
      "isPercussion": false,
      "pitch": 61,
      "velocity": 112,
      "startTime": 264.0,
      "duration": 0.1773437500000341,
      "endTime": 264.17734375000003
    },
    {
      "instrumentId": 0,
      "instrumentName": "Instrument_0",
      "isPercussion": false,
      "pitch": 80,
      "velocity": 112,
      "startTime": 264.375,
      "duration": 0.1773437500000341,
      "endTime": 264.55234375000003
    },
    {
      "instrumentId": 0,
      "instrumentName": "Instrument_0",
      "isPercussion": false,
      "pitch": 76,
      "velocity": 112,
      "startTime": 264.5625,
      "duration": 0.35546875,
      "endTime": 264.91796875
    },
    {
      "instrumentId": 0,
      "instrumentName": "Instrument_0",
      "isPercussion": false,
      "pitch": 80,
      "velocity": 112,
      "startTime": 264.5625,
      "duration": 0.35546875,
      "endTime": 264.91796875
    },
    {
      "instrumentId": 1,
      "instrumentName": "Instrument_1",
      "isPercussion": false,
      "pitch": 56,
      "velocity": 112,
      "startTime": 264.5625,
      "duration": 0.1773437500000341,
      "endTime": 264.73984375000003
    },
    {
      "instrumentId": 1,
      "instrumentName": "Instrument_1",
      "isPercussion": false,
      "pitch": 64,
      "velocity": 112,
      "startTime": 264.5625,
      "duration": 0.1773437500000341,
      "endTime": 264.73984375000003
    },
    {
      "instrumentId": 0,
      "instrumentName": "Instrument_0",
      "isPercussion": false,
      "pitch": 75,
      "velocity": 112,
      "startTime": 264.9375,
      "duration": 0.35546875,
      "endTime": 265.29296875
    },
    {
      "instrumentId": 0,
      "instrumentName": "Instrument_0",
      "isPercussion": false,
      "pitch": 78,
      "velocity": 112,
      "startTime": 264.9375,
      "duration": 0.35546875,
      "endTime": 265.29296875
    },
    {
      "instrumentId": 1,
      "instrumentName": "Instrument_1",
      "isPercussion": false,
      "pitch": 56,
      "velocity": 112,
      "startTime": 265.125,
      "duration": 0.1773437500000341,
      "endTime": 265.30234375000003
    },
    {
      "instrumentId": 1,
      "instrumentName": "Instrument_1",
      "isPercussion": false,
      "pitch": 61,
      "velocity": 112,
      "startTime": 265.125,
      "duration": 0.1773437500000341,
      "endTime": 265.30234375000003
    },
    {
      "instrumentId": 0,
      "instrumentName": "Instrument_0",
      "isPercussion": false,
      "pitch": 76,
      "velocity": 112,
      "startTime": 265.3125,
      "duration": 0.1773437500000341,
      "endTime": 265.48984375000003
    },
    {
      "instrumentId": 0,
      "instrumentName": "Instrument_0",
      "isPercussion": false,
      "pitch": 75,
      "velocity": 112,
      "startTime": 265.5,
      "duration": 0.35546875,
      "endTime": 265.85546875
    },
    {
      "instrumentId": 0,
      "instrumentName": "Instrument_0",
      "isPercussion": false,
      "pitch": 78,
      "velocity": 112,
      "startTime": 265.5,
      "duration": 0.35546875,
      "endTime": 265.85546875
    },
    {
      "instrumentId": 1,
      "instrumentName": "Instrument_1",
      "isPercussion": false,
      "pitch": 54,
      "velocity": 112,
      "startTime": 265.5,
      "duration": 0.1773437500000341,
      "endTime": 265.67734375000003
    },
    {
      "instrumentId": 1,
      "instrumentName": "Instrument_1",
      "isPercussion": false,
      "pitch": 61,
      "velocity": 112,
      "startTime": 265.5,
      "duration": 0.1773437500000341,
      "endTime": 265.67734375000003
    },
    {
      "instrumentId": 0,
      "instrumentName": "Instrument_0",
      "isPercussion": false,
      "pitch": 76,
      "velocity": 112,
      "startTime": 265.875,
      "duration": 0.35546875,
      "endTime": 266.23046875
    },
    {
      "instrumentId": 0,
      "instrumentName": "Instrument_0",
      "isPercussion": false,
      "pitch": 80,
      "velocity": 112,
      "startTime": 265.875,
      "duration": 0.35546875,
      "endTime": 266.23046875
    },
    {
      "instrumentId": 1,
      "instrumentName": "Instrument_1",
      "isPercussion": false,
      "pitch": 54,
      "velocity": 112,
      "startTime": 266.0625,
      "duration": 0.1773437500000341,
      "endTime": 266.23984375000003
    },
    {
      "instrumentId": 1,
      "instrumentName": "Instrument_1",
      "isPercussion": false,
      "pitch": 64,
      "velocity": 112,
      "startTime": 266.0625,
      "duration": 0.1773437500000341,
      "endTime": 266.23984375000003
    },
    {
      "instrumentId": 0,
      "instrumentName": "Instrument_0",
      "isPercussion": false,
      "pitch": 68,
      "velocity": 112,
      "startTime": 266.25,
      "duration": 0.35546875,
      "endTime": 266.60546875
    },
    {
      "instrumentId": 0,
      "instrumentName": "Instrument_0",
      "isPercussion": false,
      "pitch": 73,
      "velocity": 112,
      "startTime": 266.25,
      "duration": 0.35546875,
      "endTime": 266.60546875
    },
    {
      "instrumentId": 0,
      "instrumentName": "Instrument_0",
      "isPercussion": false,
      "pitch": 68,
      "velocity": 112,
      "startTime": 266.625,
      "duration": 0.7117187499999886,
      "endTime": 267.33671875
    },
    {
      "instrumentId": 0,
      "instrumentName": "Instrument_0",
      "isPercussion": false,
      "pitch": 73,
      "velocity": 112,
      "startTime": 266.625,
      "duration": 0.7117187499999886,
      "endTime": 267.33671875
    },
    {
      "instrumentId": 1,
      "instrumentName": "Instrument_1",
      "isPercussion": false,
      "pitch": 54,
      "velocity": 112,
      "startTime": 266.625,
      "duration": 0.1773437500000341,
      "endTime": 266.80234375000003
    },
    {
      "instrumentId": 1,
      "instrumentName": "Instrument_1",
      "isPercussion": false,
      "pitch": 61,
      "velocity": 112,
      "startTime": 266.625,
      "duration": 0.1773437500000341,
      "endTime": 266.80234375000003
    },
    {
      "instrumentId": 1,
      "instrumentName": "Instrument_1",
      "isPercussion": false,
      "pitch": 57,
      "velocity": 112,
      "startTime": 267.0,
      "duration": 0.1773437500000341,
      "endTime": 267.17734375000003
    },
    {
      "instrumentId": 1,
      "instrumentName": "Instrument_1",
      "isPercussion": false,
      "pitch": 61,
      "velocity": 112,
      "startTime": 267.0,
      "duration": 0.1773437500000341,
      "endTime": 267.17734375000003
    },
    {
      "instrumentId": 0,
      "instrumentName": "Instrument_0",
      "isPercussion": false,
      "pitch": 80,
      "velocity": 112,
      "startTime": 267.375,
      "duration": 0.1773437500000341,
      "endTime": 267.55234375000003
    },
    {
      "instrumentId": 0,
      "instrumentName": "Instrument_0",
      "isPercussion": false,
      "pitch": 76,
      "velocity": 112,
      "startTime": 267.5625,
      "duration": 0.35546875,
      "endTime": 267.91796875
    },
    {
      "instrumentId": 0,
      "instrumentName": "Instrument_0",
      "isPercussion": false,
      "pitch": 80,
      "velocity": 112,
      "startTime": 267.5625,
      "duration": 0.35546875,
      "endTime": 267.91796875
    },
    {
      "instrumentId": 1,
      "instrumentName": "Instrument_1",
      "isPercussion": false,
      "pitch": 57,
      "velocity": 112,
      "startTime": 267.5625,
      "duration": 0.1773437500000341,
      "endTime": 267.73984375000003
    },
    {
      "instrumentId": 1,
      "instrumentName": "Instrument_1",
      "isPercussion": false,
      "pitch": 64,
      "velocity": 112,
      "startTime": 267.5625,
      "duration": 0.1773437500000341,
      "endTime": 267.73984375000003
    },
    {
      "instrumentId": 0,
      "instrumentName": "Instrument_0",
      "isPercussion": false,
      "pitch": 75,
      "velocity": 112,
      "startTime": 267.9375,
      "duration": 0.35546875,
      "endTime": 268.29296875
    },
    {
      "instrumentId": 0,
      "instrumentName": "Instrument_0",
      "isPercussion": false,
      "pitch": 78,
      "velocity": 112,
      "startTime": 267.9375,
      "duration": 0.35546875,
      "endTime": 268.29296875
    },
    {
      "instrumentId": 1,
      "instrumentName": "Instrument_1",
      "isPercussion": false,
      "pitch": 57,
      "velocity": 112,
      "startTime": 268.125,
      "duration": 0.1773437500000341,
      "endTime": 268.30234375000003
    },
    {
      "instrumentId": 1,
      "instrumentName": "Instrument_1",
      "isPercussion": false,
      "pitch": 61,
      "velocity": 112,
      "startTime": 268.125,
      "duration": 0.1773437500000341,
      "endTime": 268.30234375000003
    },
    {
      "instrumentId": 0,
      "instrumentName": "Instrument_0",
      "isPercussion": false,
      "pitch": 76,
      "velocity": 112,
      "startTime": 268.3125,
      "duration": 0.1773437500000341,
      "endTime": 268.48984375000003
    },
    {
      "instrumentId": 0,
      "instrumentName": "Instrument_0",
      "isPercussion": false,
      "pitch": 75,
      "velocity": 112,
      "startTime": 268.5,
      "duration": 0.35546875,
      "endTime": 268.85546875
    },
    {
      "instrumentId": 0,
      "instrumentName": "Instrument_0",
      "isPercussion": false,
      "pitch": 78,
      "velocity": 112,
      "startTime": 268.5,
      "duration": 0.35546875,
      "endTime": 268.85546875
    },
    {
      "instrumentId": 1,
      "instrumentName": "Instrument_1",
      "isPercussion": false,
      "pitch": 54,
      "velocity": 112,
      "startTime": 268.5,
      "duration": 0.1773437500000341,
      "endTime": 268.67734375000003
    },
    {
      "instrumentId": 1,
      "instrumentName": "Instrument_1",
      "isPercussion": false,
      "pitch": 59,
      "velocity": 112,
      "startTime": 268.5,
      "duration": 0.1773437500000341,
      "endTime": 268.67734375000003
    },
    {
      "instrumentId": 1,
      "instrumentName": "Instrument_1",
      "isPercussion": false,
      "pitch": 63,
      "velocity": 112,
      "startTime": 268.5,
      "duration": 0.1773437500000341,
      "endTime": 268.67734375000003
    },
    {
      "instrumentId": 0,
      "instrumentName": "Instrument_0",
      "isPercussion": false,
      "pitch": 73,
      "velocity": 112,
      "startTime": 268.875,
      "duration": 0.35546875,
      "endTime": 269.23046875
    },
    {
      "instrumentId": 0,
      "instrumentName": "Instrument_0",
      "isPercussion": false,
      "pitch": 76,
      "velocity": 112,
      "startTime": 268.875,
      "duration": 0.35546875,
      "endTime": 269.23046875
    },
    {
      "instrumentId": 1,
      "instrumentName": "Instrument_1",
      "isPercussion": false,
      "pitch": 54,
      "velocity": 112,
      "startTime": 269.0625,
      "duration": 0.1773437500000341,
      "endTime": 269.23984375000003
    },
    {
      "instrumentId": 1,
      "instrumentName": "Instrument_1",
      "isPercussion": false,
      "pitch": 59,
      "velocity": 112,
      "startTime": 269.0625,
      "duration": 0.1773437500000341,
      "endTime": 269.23984375000003
    },
    {
      "instrumentId": 1,
      "instrumentName": "Instrument_1",
      "isPercussion": false,
      "pitch": 61,
      "velocity": 112,
      "startTime": 269.0625,
      "duration": 0.1773437500000341,
      "endTime": 269.23984375000003
    },
    {
      "instrumentId": 0,
      "instrumentName": "Instrument_0",
      "isPercussion": false,
      "pitch": 68,
      "velocity": 112,
      "startTime": 269.25,
      "duration": 0.35546875,
      "endTime": 269.60546875
    },
    {
      "instrumentId": 0,
      "instrumentName": "Instrument_0",
      "isPercussion": false,
      "pitch": 73,
      "velocity": 112,
      "startTime": 269.25,
      "duration": 0.35546875,
      "endTime": 269.60546875
    },
    {
      "instrumentId": 0,
      "instrumentName": "Instrument_0",
      "isPercussion": false,
      "pitch": 68,
      "velocity": 112,
      "startTime": 269.625,
      "duration": 0.7117187499999886,
      "endTime": 270.33671875
    },
    {
      "instrumentId": 0,
      "instrumentName": "Instrument_0",
      "isPercussion": false,
      "pitch": 73,
      "velocity": 112,
      "startTime": 269.625,
      "duration": 0.7117187499999886,
      "endTime": 270.33671875
    },
    {
      "instrumentId": 1,
      "instrumentName": "Instrument_1",
      "isPercussion": false,
      "pitch": 54,
      "velocity": 112,
      "startTime": 269.625,
      "duration": 0.1773437500000341,
      "endTime": 269.80234375000003
    },
    {
      "instrumentId": 1,
      "instrumentName": "Instrument_1",
      "isPercussion": false,
      "pitch": 59,
      "velocity": 112,
      "startTime": 269.625,
      "duration": 0.1773437500000341,
      "endTime": 269.80234375000003
    },
    {
      "instrumentId": 1,
      "instrumentName": "Instrument_1",
      "isPercussion": false,
      "pitch": 56,
      "velocity": 112,
      "startTime": 270.0,
      "duration": 0.1773437500000341,
      "endTime": 270.17734375000003
    },
    {
      "instrumentId": 1,
      "instrumentName": "Instrument_1",
      "isPercussion": false,
      "pitch": 61,
      "velocity": 112,
      "startTime": 270.0,
      "duration": 0.1773437500000341,
      "endTime": 270.17734375000003
    },
    {
      "instrumentId": 0,
      "instrumentName": "Instrument_0",
      "isPercussion": false,
      "pitch": 68,
      "velocity": 112,
      "startTime": 270.375,
      "duration": 0.1773437500000341,
      "endTime": 270.55234375000003
    },
    {
      "instrumentId": 0,
      "instrumentName": "Instrument_0",
      "isPercussion": false,
      "pitch": 73,
      "velocity": 112,
      "startTime": 270.375,
      "duration": 0.1773437500000341,
      "endTime": 270.55234375000003
    },
    {
      "instrumentId": 0,
      "instrumentName": "Instrument_0",
      "isPercussion": false,
      "pitch": 73,
      "velocity": 112,
      "startTime": 270.5625,
      "duration": 0.1773437500000341,
      "endTime": 270.73984375000003
    },
    {
      "instrumentId": 1,
      "instrumentName": "Instrument_1",
      "isPercussion": false,
      "pitch": 56,
      "velocity": 112,
      "startTime": 270.5625,
      "duration": 0.1773437500000341,
      "endTime": 270.73984375000003
    },
    {
      "instrumentId": 1,
      "instrumentName": "Instrument_1",
      "isPercussion": false,
      "pitch": 64,
      "velocity": 112,
      "startTime": 270.5625,
      "duration": 0.1773437500000341,
      "endTime": 270.73984375000003
    },
    {
      "instrumentId": 0,
      "instrumentName": "Instrument_0",
      "isPercussion": false,
      "pitch": 68,
      "velocity": 112,
      "startTime": 270.75,
      "duration": 0.1773437500000341,
      "endTime": 270.92734375000003
    },
    {
      "instrumentId": 0,
      "instrumentName": "Instrument_0",
      "isPercussion": false,
      "pitch": 73,
      "velocity": 112,
      "startTime": 270.75,
      "duration": 0.1773437500000341,
      "endTime": 270.92734375000003
    },
    {
      "instrumentId": 0,
      "instrumentName": "Instrument_0",
      "isPercussion": false,
      "pitch": 73,
      "velocity": 112,
      "startTime": 270.9375,
      "duration": 0.1773437500000341,
      "endTime": 271.11484375000003
    },
    {
      "instrumentId": 0,
      "instrumentName": "Instrument_0",
      "isPercussion": false,
      "pitch": 73,
      "velocity": 112,
      "startTime": 271.125,
      "duration": 0.1773437500000341,
      "endTime": 271.30234375000003
    },
    {
      "instrumentId": 0,
      "instrumentName": "Instrument_0",
      "isPercussion": false,
      "pitch": 76,
      "velocity": 112,
      "startTime": 271.125,
      "duration": 0.1773437500000341,
      "endTime": 271.30234375000003
    },
    {
      "instrumentId": 1,
      "instrumentName": "Instrument_1",
      "isPercussion": false,
      "pitch": 56,
      "velocity": 112,
      "startTime": 271.125,
      "duration": 0.1773437500000341,
      "endTime": 271.30234375000003
    },
    {
      "instrumentId": 1,
      "instrumentName": "Instrument_1",
      "isPercussion": false,
      "pitch": 61,
      "velocity": 112,
      "startTime": 271.125,
      "duration": 0.1773437500000341,
      "endTime": 271.30234375000003
    },
    {
      "instrumentId": 0,
      "instrumentName": "Instrument_0",
      "isPercussion": false,
      "pitch": 75,
      "velocity": 112,
      "startTime": 271.3125,
      "duration": 0.1773437500000341,
      "endTime": 271.48984375000003
    },
    {
      "instrumentId": 0,
      "instrumentName": "Instrument_0",
      "isPercussion": false,
      "pitch": 78,
      "velocity": 112,
      "startTime": 271.3125,
      "duration": 0.1773437500000341,
      "endTime": 271.48984375000003
    },
    {
      "instrumentId": 0,
      "instrumentName": "Instrument_0",
      "isPercussion": false,
      "pitch": 76,
      "velocity": 112,
      "startTime": 271.5,
      "duration": 0.35546875,
      "endTime": 271.85546875
    },
    {
      "instrumentId": 0,
      "instrumentName": "Instrument_0",
      "isPercussion": false,
      "pitch": 80,
      "velocity": 112,
      "startTime": 271.5,
      "duration": 0.35546875,
      "endTime": 271.85546875
    },
    {
      "instrumentId": 1,
      "instrumentName": "Instrument_1",
      "isPercussion": false,
      "pitch": 54,
      "velocity": 112,
      "startTime": 271.5,
      "duration": 0.1773437500000341,
      "endTime": 271.67734375000003
    },
    {
      "instrumentId": 1,
      "instrumentName": "Instrument_1",
      "isPercussion": false,
      "pitch": 61,
      "velocity": 112,
      "startTime": 271.5,
      "duration": 0.1773437500000341,
      "endTime": 271.67734375000003
    },
    {
      "instrumentId": 0,
      "instrumentName": "Instrument_0",
      "isPercussion": false,
      "pitch": 68,
      "velocity": 112,
      "startTime": 271.875,
      "duration": 0.35546875,
      "endTime": 272.23046875
    },
    {
      "instrumentId": 0,
      "instrumentName": "Instrument_0",
      "isPercussion": false,
      "pitch": 73,
      "velocity": 112,
      "startTime": 271.875,
      "duration": 0.35546875,
      "endTime": 272.23046875
    },
    {
      "instrumentId": 1,
      "instrumentName": "Instrument_1",
      "isPercussion": false,
      "pitch": 54,
      "velocity": 112,
      "startTime": 272.0625,
      "duration": 0.1773437500000341,
      "endTime": 272.23984375000003
    },
    {
      "instrumentId": 1,
      "instrumentName": "Instrument_1",
      "isPercussion": false,
      "pitch": 64,
      "velocity": 112,
      "startTime": 272.0625,
      "duration": 0.1773437500000341,
      "endTime": 272.23984375000003
    },
    {
      "instrumentId": 0,
      "instrumentName": "Instrument_0",
      "isPercussion": false,
      "pitch": 73,
      "velocity": 112,
      "startTime": 272.25,
      "duration": 0.35546875,
      "endTime": 272.60546875
    },
    {
      "instrumentId": 0,
      "instrumentName": "Instrument_0",
      "isPercussion": false,
      "pitch": 76,
      "velocity": 112,
      "startTime": 272.25,
      "duration": 0.35546875,
      "endTime": 272.60546875
    },
    {
      "instrumentId": 0,
      "instrumentName": "Instrument_0",
      "isPercussion": false,
      "pitch": 75,
      "velocity": 112,
      "startTime": 272.625,
      "duration": 0.35546875,
      "endTime": 272.98046875
    },
    {
      "instrumentId": 0,
      "instrumentName": "Instrument_0",
      "isPercussion": false,
      "pitch": 78,
      "velocity": 112,
      "startTime": 272.625,
      "duration": 0.35546875,
      "endTime": 272.98046875
    },
    {
      "instrumentId": 1,
      "instrumentName": "Instrument_1",
      "isPercussion": false,
      "pitch": 54,
      "velocity": 112,
      "startTime": 272.625,
      "duration": 0.1773437500000341,
      "endTime": 272.80234375000003
    },
    {
      "instrumentId": 1,
      "instrumentName": "Instrument_1",
      "isPercussion": false,
      "pitch": 61,
      "velocity": 112,
      "startTime": 272.625,
      "duration": 0.1773437500000341,
      "endTime": 272.80234375000003
    },
    {
      "instrumentId": 0,
      "instrumentName": "Instrument_0",
      "isPercussion": false,
      "pitch": 75,
      "velocity": 112,
      "startTime": 273.0,
      "duration": 1.067968750000034,
      "endTime": 274.06796875000003
    },
    {
      "instrumentId": 0,
      "instrumentName": "Instrument_0",
      "isPercussion": false,
      "pitch": 78,
      "velocity": 112,
      "startTime": 273.0,
      "duration": 1.067968750000034,
      "endTime": 274.06796875000003
    },
    {
      "instrumentId": 1,
      "instrumentName": "Instrument_1",
      "isPercussion": false,
      "pitch": 57,
      "velocity": 112,
      "startTime": 273.0,
      "duration": 0.1773437500000341,
      "endTime": 273.17734375000003
    },
    {
      "instrumentId": 1,
      "instrumentName": "Instrument_1",
      "isPercussion": false,
      "pitch": 61,
      "velocity": 112,
      "startTime": 273.0,
      "duration": 0.1773437500000341,
      "endTime": 273.17734375000003
    },
    {
      "instrumentId": 1,
      "instrumentName": "Instrument_1",
      "isPercussion": false,
      "pitch": 57,
      "velocity": 112,
      "startTime": 273.5625,
      "duration": 0.1773437500000341,
      "endTime": 273.73984375000003
    },
    {
      "instrumentId": 1,
      "instrumentName": "Instrument_1",
      "isPercussion": false,
      "pitch": 64,
      "velocity": 112,
      "startTime": 273.5625,
      "duration": 0.1773437500000341,
      "endTime": 273.73984375000003
    },
    {
      "instrumentId": 0,
      "instrumentName": "Instrument_0",
      "isPercussion": false,
      "pitch": 76,
      "velocity": 112,
      "startTime": 274.125,
      "duration": 0.1773437500000341,
      "endTime": 274.30234375000003
    },
    {
      "instrumentId": 1,
      "instrumentName": "Instrument_1",
      "isPercussion": false,
      "pitch": 57,
      "velocity": 112,
      "startTime": 274.125,
      "duration": 0.1773437500000341,
      "endTime": 274.30234375000003
    },
    {
      "instrumentId": 1,
      "instrumentName": "Instrument_1",
      "isPercussion": false,
      "pitch": 61,
      "velocity": 112,
      "startTime": 274.125,
      "duration": 0.1773437500000341,
      "endTime": 274.30234375000003
    },
    {
      "instrumentId": 0,
      "instrumentName": "Instrument_0",
      "isPercussion": false,
      "pitch": 78,
      "velocity": 112,
      "startTime": 274.3125,
      "duration": 0.1773437500000341,
      "endTime": 274.48984375000003
    },
    {
      "instrumentId": 0,
      "instrumentName": "Instrument_0",
      "isPercussion": false,
      "pitch": 76,
      "velocity": 112,
      "startTime": 274.5,
      "duration": 0.35546875,
      "endTime": 274.85546875
    },
    {
      "instrumentId": 0,
      "instrumentName": "Instrument_0",
      "isPercussion": false,
      "pitch": 80,
      "velocity": 112,
      "startTime": 274.5,
      "duration": 0.35546875,
      "endTime": 274.85546875
    },
    {
      "instrumentId": 1,
      "instrumentName": "Instrument_1",
      "isPercussion": false,
      "pitch": 54,
      "velocity": 112,
      "startTime": 274.5,
      "duration": 0.1773437500000341,
      "endTime": 274.67734375000003
    },
    {
      "instrumentId": 1,
      "instrumentName": "Instrument_1",
      "isPercussion": false,
      "pitch": 59,
      "velocity": 112,
      "startTime": 274.5,
      "duration": 0.1773437500000341,
      "endTime": 274.67734375000003
    },
    {
      "instrumentId": 1,
      "instrumentName": "Instrument_1",
      "isPercussion": false,
      "pitch": 63,
      "velocity": 112,
      "startTime": 274.5,
      "duration": 0.1773437500000341,
      "endTime": 274.67734375000003
    },
    {
      "instrumentId": 0,
      "instrumentName": "Instrument_0",
      "isPercussion": false,
      "pitch": 78,
      "velocity": 112,
      "startTime": 274.875,
      "duration": 0.1773437500000341,
      "endTime": 275.05234375000003
    },
    {
      "instrumentId": 0,
      "instrumentName": "Instrument_0",
      "isPercussion": false,
      "pitch": 76,
      "velocity": 112,
      "startTime": 275.0625,
      "duration": 0.1773437500000341,
      "endTime": 275.23984375000003
    },
    {
      "instrumentId": 0,
      "instrumentName": "Instrument_0",
      "isPercussion": false,
      "pitch": 75,
      "velocity": 112,
      "startTime": 275.25,
      "duration": 0.35546875,
      "endTime": 275.60546875
    },
    {
      "instrumentId": 0,
      "instrumentName": "Instrument_0",
      "isPercussion": false,
      "pitch": 78,
      "velocity": 112,
      "startTime": 275.25,
      "duration": 0.35546875,
      "endTime": 275.60546875
    },
    {
      "instrumentId": 0,
      "instrumentName": "Instrument_0",
      "isPercussion": false,
      "pitch": 75,
      "velocity": 112,
      "startTime": 275.625,
      "duration": 0.35546875,
      "endTime": 275.98046875
    },
    {
      "instrumentId": 0,
      "instrumentName": "Instrument_0",
      "isPercussion": false,
      "pitch": 78,
      "velocity": 112,
      "startTime": 275.625,
      "duration": 0.35546875,
      "endTime": 275.98046875
    },
    {
      "instrumentId": 0,
      "instrumentName": "Instrument_0",
      "isPercussion": false,
      "pitch": 64,
      "velocity": 112,
      "startTime": 276.0,
      "duration": 1.4242187500000227,
      "endTime": 277.42421875
    },
    {
      "instrumentId": 0,
      "instrumentName": "Instrument_0",
      "isPercussion": false,
      "pitch": 68,
      "velocity": 112,
      "startTime": 276.0,
      "duration": 1.4242187500000227,
      "endTime": 277.42421875
    },
    {
      "instrumentId": 0,
      "instrumentName": "Instrument_0",
      "isPercussion": false,
      "pitch": 73,
      "velocity": 112,
      "startTime": 276.0,
      "duration": 1.4242187500000227,
      "endTime": 277.42421875
    }
  ]
}