{
  "metadata": {
    "file": "C418 Sweden MIDI (Your Piano Tutorials).mid",
    "duration": 122.45309234583333,
    "bpm": 88.00002346667293,
    "totalNotes": 276
  },
  "notes": [
    {
      "instrumentId": 0,
      "instrumentName": "Piano",
      "isPercussion": false,
      "pitch": 52,
      "velocity": 49,
      "startTime": 0.0,
      "duration": 1.2940337458333333,
      "endTime": 1.2940337458333333
    },
    {
      "instrumentId": 0,
      "instrumentName": "Piano",
      "isPercussion": false,
      "pitch": 55,
      "velocity": 49,
      "startTime": 0.0,
      "duration": 1.2940337458333333,
      "endTime": 1.2940337458333333
    },
    {
      "instrumentId": 1,
      "instrumentName": "Piano",
      "isPercussion": false,
      "pitch": 40,
      "velocity": 49,
      "startTime": 0.0,
      "duration": 0.6463066458333333,
      "endTime": 0.6463066458333333
    },
    {
      "instrumentId": 1,
      "instrumentName": "Piano",
      "isPercussion": false,
      "pitch": 42,
      "velocity": 49,
      "startTime": 1.3636359999999998,
      "duration": 0.6463066458333333,
      "endTime": 2.009942645833333
    },
    {
      "instrumentId": 0,
      "instrumentName": "Piano",
      "isPercussion": false,
      "pitch": 57,
      "velocity": 49,
      "startTime": 2.7272719999999997,
      "duration": 1.294033745833333,
      "endTime": 4.021305745833333
    },
    {
      "instrumentId": 0,
      "instrumentName": "Piano",
      "isPercussion": false,
      "pitch": 62,
      "velocity": 49,
      "startTime": 2.7272719999999997,
      "duration": 1.294033745833333,
      "endTime": 4.021305745833333
    },
    {
      "instrumentId": 1,
      "instrumentName": "Piano",
      "isPercussion": false,
      "pitch": 43,
      "velocity": 49,
      "startTime": 2.7272719999999997,
      "duration": 0.6463066458333335,
      "endTime": 3.3735786458333332
    },
    {
      "instrumentId": 1,
      "instrumentName": "Piano",
      "isPercussion": false,
      "pitch": 47,
      "velocity": 49,
      "startTime": 4.090908,
      "duration": 0.6463066458333335,
      "endTime": 4.737214645833333
    },
    {
      "instrumentId": 0,
      "instrumentName": "Piano",
      "isPercussion": false,
      "pitch": 54,
      "velocity": 49,
      "startTime": 5.454543999999999,
      "duration": 1.2940337458333335,
      "endTime": 6.748577745833333
    },
    {
      "instrumentId": 0,
      "instrumentName": "Piano",
      "isPercussion": false,
      "pitch": 57,
      "velocity": 49,
      "startTime": 5.454543999999999,
      "duration": 1.2940337458333335,
      "endTime": 6.748577745833333
    },
    {
      "instrumentId": 1,
      "instrumentName": "Piano",
      "isPercussion": false,
      "pitch": 45,
      "velocity": 49,
      "startTime": 5.454543999999999,
      "duration": 0.6463066458333335,
      "endTime": 6.100850645833333
    },
    {
      "instrumentId": 1,
      "instrumentName": "Piano",
      "isPercussion": false,
      "pitch": 43,
      "velocity": 49,
      "startTime": 6.81818,
      "duration": 0.6463066458333335,
      "endTime": 7.464486645833333
    },
    {
      "instrumentId": 0,
      "instrumentName": "Piano",
      "isPercussion": false,
      "pitch": 57,
      "velocity": 49,
      "startTime": 8.181816,
      "duration": 2.5894879458333335,
      "endTime": 10.771303945833333
    },
    {
      "instrumentId": 0,
      "instrumentName": "Piano",
      "isPercussion": false,
      "pitch": 61,
      "velocity": 49,
      "startTime": 8.181816,
      "duration": 2.5894879458333335,
      "endTime": 10.771303945833333
    },
    {
      "instrumentId": 1,
      "instrumentName": "Piano",
      "isPercussion": false,
      "pitch": 38,
      "velocity": 49,
      "startTime": 8.181816,
      "duration": 2.5894879458333335,
      "endTime": 10.771303945833333
    },
    {
      "instrumentId": 0,
      "instrumentName": "Piano",
      "isPercussion": false,
      "pitch": 52,
      "velocity": 49,
      "startTime": 10.909087999999999,
      "duration": 1.2940337458333335,
      "endTime": 12.203121745833332
    },
    {
      "instrumentId": 0,
      "instrumentName": "Piano",
      "isPercussion": false,
      "pitch": 55,
      "velocity": 49,
      "startTime": 10.909087999999999,
      "duration": 1.2940337458333335,
      "endTime": 12.203121745833332
    },
    {
      "instrumentId": 0,
      "instrumentName": "Piano",
      "isPercussion": false,
      "pitch": 59,
      "velocity": 49,
      "startTime": 10.909087999999999,
      "duration": 1.2940337458333335,
      "endTime": 12.203121745833332
    },
    {
      "instrumentId": 1,
      "instrumentName": "Piano",
      "isPercussion": false,
      "pitch": 40,
      "velocity": 49,
      "startTime": 10.909087999999999,
      "duration": 0.6463066458333344,
      "endTime": 11.555394645833333
    },
    {
      "instrumentId": 1,
      "instrumentName": "Piano",
      "isPercussion": false,
      "pitch": 42,
      "velocity": 49,
      "startTime": 12.272724,
      "duration": 0.6463066458333326,
      "endTime": 12.919030645833333
    },
    {
      "instrumentId": 0,
      "instrumentName": "Piano",
      "isPercussion": false,
      "pitch": 57,
      "velocity": 49,
      "startTime": 13.63636,
      "duration": 1.2940337458333335,
      "endTime": 14.930393745833333
    },
    {
      "instrumentId": 0,
      "instrumentName": "Piano",
      "isPercussion": false,
      "pitch": 62,
      "velocity": 49,
      "startTime": 13.63636,
      "duration": 1.2940337458333335,
      "endTime": 14.930393745833333
    },
    {
      "instrumentId": 0,
      "instrumentName": "Piano",
      "isPercussion": false,
      "pitch": 66,
      "velocity": 49,
      "startTime": 13.63636,
      "duration": 1.2940337458333335,
      "endTime": 14.930393745833333
    },
    {
      "instrumentId": 1,
      "instrumentName": "Piano",
      "isPercussion": false,
      "pitch": 43,
      "velocity": 49,
      "startTime": 13.63636,
      "duration": 0.6463066458333326,
      "endTime": 14.282666645833332
    },
    {
      "instrumentId": 1,
      "instrumentName": "Piano",
      "isPercussion": false,
      "pitch": 47,
      "velocity": 49,
      "startTime": 14.999996,
      "duration": 0.6463066458333326,
      "endTime": 15.646302645833332
    },
    {
      "instrumentId": 0,
      "instrumentName": "Piano",
      "isPercussion": false,
      "pitch": 54,
      "velocity": 49,
      "startTime": 16.363632,
      "duration": 1.2940337458333353,
      "endTime": 17.657665745833334
    },
    {
      "instrumentId": 0,
      "instrumentName": "Piano",
      "isPercussion": false,
      "pitch": 57,
      "velocity": 49,
      "startTime": 16.363632,
      "duration": 1.2940337458333353,
      "endTime": 17.657665745833334
    },
    {
      "instrumentId": 0,
      "instrumentName": "Piano",
      "isPercussion": false,
      "pitch": 61,
      "velocity": 49,
      "startTime": 16.363632,
      "duration": 1.2940337458333353,
      "endTime": 17.657665745833334
    },
    {
      "instrumentId": 1,
      "instrumentName": "Piano",
      "isPercussion": false,
      "pitch": 45,
      "velocity": 49,
      "startTime": 16.363632,
      "duration": 0.6463066458333344,
      "endTime": 17.009938645833333
    },
    {
      "instrumentId": 1,
      "instrumentName": "Piano",
      "isPercussion": false,
      "pitch": 43,
      "velocity": 49,
      "startTime": 17.727268,
      "duration": 0.6463066458333344,
      "endTime": 18.373574645833333
    },
    {
      "instrumentId": 0,
      "instrumentName": "Piano",
      "isPercussion": false,
      "pitch": 57,
      "velocity": 49,
      "startTime": 19.090904,
      "duration": 2.5894879458333335,
      "endTime": 21.680391945833332
    },
    {
      "instrumentId": 0,
      "instrumentName": "Piano",
      "isPercussion": false,
      "pitch": 61,
      "velocity": 49,
      "startTime": 19.090904,
      "duration": 2.5894879458333335,
      "endTime": 21.680391945833332
    },
    {
      "instrumentId": 0,
      "instrumentName": "Piano",
      "isPercussion": false,
      "pitch": 64,
      "velocity": 49,
      "startTime": 19.090904,
      "duration": 2.5894879458333335,
      "endTime": 21.680391945833332
    },
    {
      "instrumentId": 1,
      "instrumentName": "Piano",
      "isPercussion": false,
      "pitch": 38,
      "velocity": 49,
      "startTime": 19.090904,
      "duration": 2.5894879458333335,
      "endTime": 21.680391945833332
    },
    {
      "instrumentId": 0,
      "instrumentName": "Piano",
      "isPercussion": false,
      "pitch": 52,
      "velocity": 49,
      "startTime": 21.818175999999998,
      "duration": 1.2940337458333353,
      "endTime": 23.112209745833333
    },
    {
      "instrumentId": 0,
      "instrumentName": "Piano",
      "isPercussion": false,
      "pitch": 55,
      "velocity": 49,
      "startTime": 21.818175999999998,
      "duration": 1.2940337458333353,
      "endTime": 23.112209745833333
    },
    {
      "instrumentId": 0,
      "instrumentName": "Piano",
      "isPercussion": false,
      "pitch": 59,
      "velocity": 49,
      "startTime": 21.818175999999998,
      "duration": 1.2940337458333353,
      "endTime": 23.112209745833333
    },
    {
      "instrumentId": 1,
      "instrumentName": "Piano",
      "isPercussion": false,
      "pitch": 40,
      "velocity": 49,
      "startTime": 21.818175999999998,
      "duration": 0.6463066458333344,
      "endTime": 22.464482645833332
    },
    {
      "instrumentId": 1,
      "instrumentName": "Piano",
      "isPercussion": false,
      "pitch": 42,
      "velocity": 49,
      "startTime": 23.181812,
      "duration": 0.6463066458333309,
      "endTime": 23.82811864583333
    },
    {
      "instrumentId": 0,
      "instrumentName": "Piano",
      "isPercussion": false,
      "pitch": 57,
      "velocity": 49,
      "startTime": 24.545448,
      "duration": 1.2940337458333317,
      "endTime": 25.839481745833332
    },
    {
      "instrumentId": 0,
      "instrumentName": "Piano",
      "isPercussion": false,
      "pitch": 62,
      "velocity": 49,
      "startTime": 24.545448,
      "duration": 1.2940337458333317,
      "endTime": 25.839481745833332
    },
    {
      "instrumentId": 0,
      "instrumentName": "Piano",
      "isPercussion": false,
      "pitch": 66,
      "velocity": 49,
      "startTime": 24.545448,
      "duration": 1.2940337458333317,
      "endTime": 25.839481745833332
    },
    {
      "instrumentId": 1,
      "instrumentName": "Piano",
      "isPercussion": false,
      "pitch": 43,
      "velocity": 49,
      "startTime": 24.545448,
      "duration": 0.6463066458333309,
      "endTime": 25.19175464583333
    },
    {
      "instrumentId": 1,
      "instrumentName": "Piano",
      "isPercussion": false,
      "pitch": 47,
      "velocity": 49,
      "startTime": 25.909084,
      "duration": 0.6463066458333309,
      "endTime": 26.55539064583333
    },
    {
      "instrumentId": 0,
      "instrumentName": "Piano",
      "isPercussion": false,
      "pitch": 54,
      "velocity": 49,
      "startTime": 27.27272,
      "duration": 1.2940337458333317,
      "endTime": 28.56675374583333
    },
    {
      "instrumentId": 0,
      "instrumentName": "Piano",
      "isPercussion": false,
      "pitch": 57,
      "velocity": 49,
      "startTime": 27.27272,
      "duration": 1.2940337458333317,
      "endTime": 28.56675374583333
    },
    {
      "instrumentId": 0,
      "instrumentName": "Piano",
      "isPercussion": false,
      "pitch": 61,
      "velocity": 49,
      "startTime": 27.27272,
      "duration": 1.2940337458333317,
      "endTime": 28.56675374583333
    },
    {
      "instrumentId": 1,
      "instrumentName": "Piano",
      "isPercussion": false,
      "pitch": 45,
      "velocity": 49,
      "startTime": 27.27272,
      "duration": 0.6463066458333309,
      "endTime": 27.91902664583333
    },
    {
      "instrumentId": 1,
      "instrumentName": "Piano",
      "isPercussion": false,
      "pitch": 43,
      "velocity": 49,
      "startTime": 28.636356,
      "duration": 0.6463066458333344,
      "endTime": 29.282662645833334
    },
    {
      "instrumentId": 0,
      "instrumentName": "Piano",
      "isPercussion": false,
      "pitch": 57,
      "velocity": 49,
      "startTime": 29.999992,
      "duration": 2.5894879458333335,
      "endTime": 32.58947994583333
    },
    {
      "instrumentId": 0,
      "instrumentName": "Piano",
      "isPercussion": false,
      "pitch": 61,
      "velocity": 49,
      "startTime": 29.999992,
      "duration": 2.5894879458333335,
      "endTime": 32.58947994583333
    },
    {
      "instrumentId": 0,
      "instrumentName": "Piano",
      "isPercussion": false,
      "pitch": 64,
      "velocity": 49,
      "startTime": 29.999992,
      "duration": 2.5894879458333335,
      "endTime": 32.58947994583333
    },
    {
      "instrumentId": 1,
      "instrumentName": "Piano",
      "isPercussion": false,
      "pitch": 38,
      "velocity": 49,
      "startTime": 29.999992,
      "duration": 2.5894879458333335,
      "endTime": 32.58947994583333
    },
    {
      "instrumentId": 0,
      "instrumentName": "Piano",
      "isPercussion": false,
      "pitch": 52,
      "velocity": 59,
      "startTime": 32.727264,
      "duration": 1.2940337458333317,
      "endTime": 34.02129774583333
    },
    {
      "instrumentId": 0,
      "instrumentName": "Piano",
      "isPercussion": false,
      "pitch": 55,
      "velocity": 59,
      "startTime": 32.727264,
      "duration": 1.2940337458333317,
      "endTime": 34.02129774583333
    },
    {
      "instrumentId": 0,
      "instrumentName": "Piano",
      "isPercussion": false,
      "pitch": 59,
      "velocity": 59,
      "startTime": 32.727264,
      "duration": 1.2940337458333317,
      "endTime": 34.02129774583333
    },
    {
      "instrumentId": 1,
      "instrumentName": "Piano",
      "isPercussion": false,
      "pitch": 40,
      "velocity": 60,
      "startTime": 32.727264,
      "duration": 0.6463066458333344,
      "endTime": 33.37357064583333
    },
    {
      "instrumentId": 0,
      "instrumentName": "Piano",
      "isPercussion": false,
      "pitch": 69,
      "velocity": 49,
      "startTime": 34.0909,
      "duration": 0.6463066458333344,
      "endTime": 34.73720664583333
    },
    {
      "instrumentId": 1,
      "instrumentName": "Piano",
      "isPercussion": false,
      "pitch": 42,
      "velocity": 62,
      "startTime": 34.0909,
      "duration": 0.6463066458333344,
      "endTime": 34.73720664583333
    },
    {
      "instrumentId": 0,
      "instrumentName": "Piano",
      "isPercussion": false,
      "pitch": 71,
      "velocity": 49,
      "startTime": 34.772718,
      "duration": 0.6463066458333344,
      "endTime": 35.41902464583333
    },
    {
      "instrumentId": 0,
      "instrumentName": "Piano",
      "isPercussion": false,
      "pitch": 57,
      "velocity": 49,
      "startTime": 35.454536,
      "duration": 1.2940337458333317,
      "endTime": 36.74856974583333
    },
    {
      "instrumentId": 0,
      "instrumentName": "Piano",
      "isPercussion": false,
      "pitch": 62,
      "velocity": 49,
      "startTime": 35.454536,
      "duration": 1.2940337458333317,
      "endTime": 36.74856974583333
    },
    {
      "instrumentId": 0,
      "instrumentName": "Piano",
      "isPercussion": false,
      "pitch": 66,
      "velocity": 49,
      "startTime": 35.454536,
      "duration": 1.2940337458333317,
      "endTime": 36.74856974583333
    },
    {
      "instrumentId": 1,
      "instrumentName": "Piano",
      "isPercussion": false,
      "pitch": 43,
      "velocity": 49,
      "startTime": 35.454536,
      "duration": 0.6463066458333344,
      "endTime": 36.10084264583333
    },
    {
      "instrumentId": 1,
      "instrumentName": "Piano",
      "isPercussion": false,
      "pitch": 47,
      "velocity": 49,
      "startTime": 36.818172,
      "duration": 0.6463066458333344,
      "endTime": 37.46447864583333
    },
    {
      "instrumentId": 0,
      "instrumentName": "Piano",
      "isPercussion": false,
      "pitch": 62,
      "velocity": 49,
      "startTime": 37.49999,
      "duration": 0.32244309583333575,
      "endTime": 37.82243309583333
    },
    {
      "instrumentId": 0,
      "instrumentName": "Piano",
      "isPercussion": false,
      "pitch": 64,
      "velocity": 49,
      "startTime": 37.840899,
      "duration": 0.16903404583332815,
      "endTime": 38.00993304583333
    },
    {
      "instrumentId": 0,
      "instrumentName": "Piano",
      "isPercussion": false,
      "pitch": 54,
      "velocity": 49,
      "startTime": 38.181808,
      "duration": 1.2940337458333317,
      "endTime": 39.47584174583333
    },
    {
      "instrumentId": 0,
      "instrumentName": "Piano",
      "isPercussion": false,
      "pitch": 57,
      "velocity": 49,
      "startTime": 38.181808,
      "duration": 1.2940337458333317,
      "endTime": 39.47584174583333
    },
    {
      "instrumentId": 0,
      "instrumentName": "Piano",
      "isPercussion": false,
      "pitch": 61,
      "velocity": 49,
      "startTime": 38.181808,
      "duration": 1.2940337458333317,
      "endTime": 39.47584174583333
    },
    {
      "instrumentId": 1,
      "instrumentName": "Piano",
      "isPercussion": false,
      "pitch": 45,
      "velocity": 49,
      "startTime": 38.181808,
      "duration": 0.6463066458333344,
      "endTime": 38.82811464583333
    },
    {
      "instrumentId": 1,
      "instrumentName": "Piano",
      "isPercussion": false,
      "pitch": 43,
      "velocity": 49,
      "startTime": 39.545443999999996,
      "duration": 0.6463066458333344,
      "endTime": 40.19175064583333
    },
    {
      "instrumentId": 0,
      "instrumentName": "Piano",
      "isPercussion": false,
      "pitch": 66,
      "velocity": 49,
      "startTime": 40.227261999999996,
      "duration": 0.32244309583333575,
      "endTime": 40.54970509583333
    },
    {
      "instrumentId": 0,
      "instrumentName": "Piano",
      "isPercussion": false,
      "pitch": 69,
      "velocity": 49,
      "startTime": 40.568171,
      "duration": 0.16903404583333526,
      "endTime": 40.737205045833335
    },
    {
      "instrumentId": 0,
      "instrumentName": "Piano",
      "isPercussion": false,
      "pitch": 57,
      "velocity": 49,
      "startTime": 40.909079999999996,
      "duration": 2.5894879458333335,
      "endTime": 43.49856794583333
    },
    {
      "instrumentId": 0,
      "instrumentName": "Piano",
      "isPercussion": false,
      "pitch": 61,
      "velocity": 49,
      "startTime": 40.909079999999996,
      "duration": 2.5894879458333335,
      "endTime": 43.49856794583333
    },
    {
      "instrumentId": 0,
      "instrumentName": "Piano",
      "isPercussion": false,
      "pitch": 64,
      "velocity": 49,
      "startTime": 40.909079999999996,
      "duration": 2.5894879458333335,
      "endTime": 43.49856794583333
    },
    {
      "instrumentId": 1,
      "instrumentName": "Piano",
      "isPercussion": false,
      "pitch": 38,
      "velocity": 49,
      "startTime": 40.909079999999996,
      "duration": 2.5894879458333335,
      "endTime": 43.49856794583333
    },
    {
      "instrumentId": 0,
      "instrumentName": "Piano",
      "isPercussion": false,
      "pitch": 52,
      "velocity": 59,
      "startTime": 43.636351999999995,
      "duration": 0.6463066458333344,
      "endTime": 44.28265864583333
    },
    {
      "instrumentId": 0,
      "instrumentName": "Piano",
      "isPercussion": false,
      "pitch": 55,
      "velocity": 59,
      "startTime": 43.636351999999995,
      "duration": 0.6463066458333344,
      "endTime": 44.28265864583333
    },
    {
      "instrumentId": 0,
      "instrumentName": "Piano",
      "isPercussion": false,
      "pitch": 59,
      "velocity": 59,
      "startTime": 43.636351999999995,
      "duration": 0.6463066458333344,
      "endTime": 44.28265864583333
    },
    {
      "instrumentId": 1,
      "instrumentName": "Piano",
      "isPercussion": false,
      "pitch": 40,
      "velocity": 60,
      "startTime": 43.636351999999995,
      "duration": 0.6463066458333344,
      "endTime": 44.28265864583333
    },
    {
      "instrumentId": 0,
      "instrumentName": "Piano",
      "isPercussion": false,
      "pitch": 74,
      "velocity": 49,
      "startTime": 44.318169999999995,
      "duration": 0.6463066458333344,
      "endTime": 44.96447664583333
    },
    {
      "instrumentId": 0,
      "instrumentName": "Piano",
      "isPercussion": false,
      "pitch": 71,
      "velocity": 49,
      "startTime": 44.999987999999995,
      "duration": 0.6463066458333344,
      "endTime": 45.64629464583333
    },
    {
      "instrumentId": 1,
      "instrumentName": "Piano",
      "isPercussion": false,
      "pitch": 42,
      "velocity": 62,
      "startTime": 44.999987999999995,
      "duration": 0.6463066458333344,
      "endTime": 45.64629464583333
    },
    {
      "instrumentId": 0,
      "instrumentName": "Piano",
      "isPercussion": false,
      "pitch": 69,
      "velocity": 49,
      "startTime": 45.681806,
      "duration": 0.6463066458333273,
      "endTime": 46.32811264583333
    },
    {
      "instrumentId": 0,
      "instrumentName": "Piano",
      "isPercussion": false,
      "pitch": 57,
      "velocity": 49,
      "startTime": 46.363624,
      "duration": 1.2940337458333317,
      "endTime": 47.65765774583333
    },
    {
      "instrumentId": 0,
      "instrumentName": "Piano",
      "isPercussion": false,
      "pitch": 62,
      "velocity": 49,
      "startTime": 46.363624,
      "duration": 1.2940337458333317,
      "endTime": 47.65765774583333
    },
    {
      "instrumentId": 0,
      "instrumentName": "Piano",
      "isPercussion": false,
      "pitch": 66,
      "velocity": 49,
      "startTime": 46.363624,
      "duration": 1.2940337458333317,
      "endTime": 47.65765774583333
    },
    {
      "instrumentId": 1,
      "instrumentName": "Piano",
      "isPercussion": false,
      "pitch": 43,
      "velocity": 49,
      "startTime": 46.363624,
      "duration": 0.6463066458333273,
      "endTime": 47.00993064583333
    },
    {
      "instrumentId": 1,
      "instrumentName": "Piano",
      "isPercussion": false,
      "pitch": 47,
      "velocity": 49,
      "startTime": 47.72726,
      "duration": 0.6463066458333273,
      "endTime": 48.37356664583333
    },
    {
      "instrumentId": 0,
      "instrumentName": "Piano",
      "isPercussion": false,
      "pitch": 62,
      "velocity": 49,
      "startTime": 48.409078,
      "duration": 0.32244309583332864,
      "endTime": 48.73152109583333
    },
    {
      "instrumentId": 0,
      "instrumentName": "Piano",
      "isPercussion": false,
      "pitch": 64,
      "velocity": 49,
      "startTime": 48.749987,
      "duration": 0.16903404583333526,
      "endTime": 48.91902104583333
    },
    {
      "instrumentId": 0,
      "instrumentName": "Piano",
      "isPercussion": false,
      "pitch": 54,
      "velocity": 49,
      "startTime": 49.090896,
      "duration": 1.2940337458333317,
      "endTime": 50.38492974583333
    },
    {
      "instrumentId": 0,
      "instrumentName": "Piano",
      "isPercussion": false,
      "pitch": 57,
      "velocity": 49,
      "startTime": 49.090896,
      "duration": 1.2940337458333317,
      "endTime": 50.38492974583333
    },
    {
      "instrumentId": 0,
      "instrumentName": "Piano",
      "isPercussion": false,
      "pitch": 61,
      "velocity": 49,
      "startTime": 49.090896,
      "duration": 1.2940337458333317,
      "endTime": 50.38492974583333
    },
    {
      "instrumentId": 1,
      "instrumentName": "Piano",
      "isPercussion": false,
      "pitch": 45,
      "velocity": 49,
      "startTime": 49.090896,
      "duration": 0.6463066458333273,
      "endTime": 49.73720264583333
    },
    {
      "instrumentId": 1,
      "instrumentName": "Piano",
      "isPercussion": false,
      "pitch": 43,
      "velocity": 49,
      "startTime": 50.454532,
      "duration": 0.6463066458333344,
      "endTime": 51.100838645833335
    },
    {
      "instrumentId": 0,
      "instrumentName": "Piano",
      "isPercussion": false,
      "pitch": 69,
      "velocity": 49,
      "startTime": 51.13635,
      "duration": 0.32244309583332864,
      "endTime": 51.45879309583333
    },
    {
      "instrumentId": 0,
      "instrumentName": "Piano",
      "isPercussion": false,
      "pitch": 66,
      "velocity": 49,
      "startTime": 51.477259,
      "duration": 0.16903404583333526,
      "endTime": 51.64629304583333
    },
    {
      "instrumentId": 0,
      "instrumentName": "Piano",
      "isPercussion": false,
      "pitch": 57,
      "velocity": 49,
      "startTime": 51.818168,
      "duration": 2.5894879458333335,
      "endTime": 54.40765594583333
    },
    {
      "instrumentId": 0,
      "instrumentName": "Piano",
      "isPercussion": false,
      "pitch": 61,
      "velocity": 49,
      "startTime": 51.818168,
      "duration": 2.5894879458333335,
      "endTime": 54.40765594583333
    },
    {
      "instrumentId": 0,
      "instrumentName": "Piano",
      "isPercussion": false,
      "pitch": 64,
      "velocity": 49,
      "startTime": 51.818168,
      "duration": 2.5894879458333335,
      "endTime": 54.40765594583333
    },
    {
      "instrumentId": 1,
      "instrumentName": "Piano",
      "isPercussion": false,
      "pitch": 38,
      "velocity": 49,
      "startTime": 51.818168,
      "duration": 2.5894879458333335,
      "endTime": 54.40765594583333
    },
    {
      "instrumentId": 0,
      "instrumentName": "Piano",
      "isPercussion": false,
      "pitch": 52,
      "velocity": 59,
      "startTime": 54.54544,
      "duration": 1.2940337458333317,
      "endTime": 55.83947374583333
    },
    {
      "instrumentId": 0,
      "instrumentName": "Piano",
      "isPercussion": false,
      "pitch": 55,
      "velocity": 59,
      "startTime": 54.54544,
      "duration": 1.2940337458333317,
      "endTime": 55.83947374583333
    },
    {
      "instrumentId": 0,
      "instrumentName": "Piano",
      "isPercussion": false,
      "pitch": 59,
      "velocity": 59,
      "startTime": 54.54544,
      "duration": 1.2940337458333317,
      "endTime": 55.83947374583333
    },
    {
      "instrumentId": 1,
      "instrumentName": "Piano",
      "isPercussion": false,
      "pitch": 40,
      "velocity": 60,
      "startTime": 54.54544,
      "duration": 0.6463066458333344,
      "endTime": 55.191746645833334
    },
    {
      "instrumentId": 0,
      "instrumentName": "Piano",
      "isPercussion": false,
      "pitch": 69,
      "velocity": 49,
      "startTime": 55.909076,
      "duration": 0.6463066458333344,
      "endTime": 56.55538264583333
    },
    {
      "instrumentId": 1,
      "instrumentName": "Piano",
      "isPercussion": false,
      "pitch": 42,
      "velocity": 62,
      "startTime": 55.909076,
      "duration": 0.6463066458333344,
      "endTime": 56.55538264583333
    },
    {
      "instrumentId": 0,
      "instrumentName": "Piano",
      "isPercussion": false,
      "pitch": 71,
      "velocity": 49,
      "startTime": 56.590894,
      "duration": 0.6463066458333344,
      "endTime": 57.23720064583333
    },
    {
      "instrumentId": 0,
      "instrumentName": "Piano",
      "isPercussion": false,
      "pitch": 62,
      "velocity": 49,
      "startTime": 57.272712,
      "duration": 1.2940337458333317,
      "endTime": 58.56674574583333
    },
    {
      "instrumentId": 0,
      "instrumentName": "Piano",
      "isPercussion": false,
      "pitch": 66,
      "velocity": 49,
      "startTime": 57.272712,
      "duration": 1.2940337458333317,
      "endTime": 58.56674574583333
    },
    {
      "instrumentId": 0,
      "instrumentName": "Piano",
      "isPercussion": false,
      "pitch": 74,
      "velocity": 49,
      "startTime": 57.272712,
      "duration": 1.2940337458333317,
      "endTime": 58.56674574583333
    },
    {
      "instrumentId": 1,
      "instrumentName": "Piano",
      "isPercussion": false,
      "pitch": 43,
      "velocity": 49,
      "startTime": 57.272712,
      "duration": 1.2940337458333317,
      "endTime": 58.56674574583333
    },
    {
      "instrumentId": 1,
      "instrumentName": "Piano",
      "isPercussion": false,
      "pitch": 57,
      "velocity": 49,
      "startTime": 57.272712,
      "duration": 1.2940337458333317,
      "endTime": 58.56674574583333
    },
    {
      "instrumentId": 1,
      "instrumentName": "Piano",
      "isPercussion": false,
      "pitch": 47,
      "velocity": 49,
      "startTime": 58.636348,
      "duration": 0.6463066458333344,
      "endTime": 59.28265464583333
    },
    {
      "instrumentId": 0,
      "instrumentName": "Piano",
      "isPercussion": false,
      "pitch": 78,
      "velocity": 49,
      "startTime": 59.318166,
      "duration": 0.32244309583333575,
      "endTime": 59.640609095833334
    },
    {
      "instrumentId": 1,
      "instrumentName": "Piano",
      "isPercussion": false,
      "pitch": 62,
      "velocity": 49,
      "startTime": 59.318166,
      "duration": 0.32244309583333575,
      "endTime": 59.640609095833334
    },
    {
      "instrumentId": 0,
      "instrumentName": "Piano",
      "isPercussion": false,
      "pitch": 76,
      "velocity": 49,
      "startTime": 59.659074999999994,
      "duration": 0.16903404583333526,
      "endTime": 59.82810904583333
    },
    {
      "instrumentId": 1,
      "instrumentName": "Piano",
      "isPercussion": false,
      "pitch": 64,
      "velocity": 49,
      "startTime": 59.659074999999994,
      "duration": 0.16903404583333526,
      "endTime": 59.82810904583333
    },
    {
      "instrumentId": 0,
      "instrumentName": "Piano",
      "isPercussion": false,
      "pitch": 61,
      "velocity": 49,
      "startTime": 59.999984,
      "duration": 1.2940337458333317,
      "endTime": 61.29401774583333
    },
    {
      "instrumentId": 0,
      "instrumentName": "Piano",
      "isPercussion": false,
      "pitch": 69,
      "velocity": 49,
      "startTime": 59.999984,
      "duration": 1.2940337458333317,
      "endTime": 61.29401774583333
    },
    {
      "instrumentId": 0,
      "instrumentName": "Piano",
      "isPercussion": false,
      "pitch": 73,
      "velocity": 49,
      "startTime": 59.999984,
      "duration": 1.2940337458333317,
      "endTime": 61.29401774583333
    },
    {
      "instrumentId": 1,
      "instrumentName": "Piano",
      "isPercussion": false,
      "pitch": 45,
      "velocity": 49,
      "startTime": 59.999984,
      "duration": 1.2940337458333317,
      "endTime": 61.29401774583333
    },
    {
      "instrumentId": 1,
      "instrumentName": "Piano",
      "isPercussion": false,
      "pitch": 54,
      "velocity": 49,
      "startTime": 59.999984,
      "duration": 1.2940337458333317,
      "endTime": 61.29401774583333
    },
    {
      "instrumentId": 1,
      "instrumentName": "Piano",
      "isPercussion": false,
      "pitch": 43,
      "velocity": 49,
      "startTime": 61.36362,
      "duration": 0.6463066458333344,
      "endTime": 62.00992664583333
    },
    {
      "instrumentId": 0,
      "instrumentName": "Piano",
      "isPercussion": false,
      "pitch": 66,
      "velocity": 49,
      "startTime": 62.045438,
      "duration": 0.32244309583333575,
      "endTime": 62.36788109583333
    },
    {
      "instrumentId": 0,
      "instrumentName": "Piano",
      "isPercussion": false,
      "pitch": 74,
      "velocity": 49,
      "startTime": 62.045438,
      "duration": 0.32244309583333575,
      "endTime": 62.36788109583333
    },
    {
      "instrumentId": 0,
      "instrumentName": "Piano",
      "isPercussion": false,
      "pitch": 73,
      "velocity": 49,
      "startTime": 62.386347,
      "duration": 0.16903404583332815,
      "endTime": 62.55538104583333
    },
    {
      "instrumentId": 0,
      "instrumentName": "Piano",
      "isPercussion": false,
      "pitch": 57,
      "velocity": 49,
      "startTime": 62.727256,
      "duration": 2.5894879458333406,
      "endTime": 65.31674394583334
    },
    {
      "instrumentId": 0,
      "instrumentName": "Piano",
      "isPercussion": false,
      "pitch": 61,
      "velocity": 49,
      "startTime": 62.727256,
      "duration": 2.5894879458333406,
      "endTime": 65.31674394583334
    },
    {
      "instrumentId": 0,
      "instrumentName": "Piano",
      "isPercussion": false,
      "pitch": 64,
      "velocity": 49,
      "startTime": 62.727256,
      "duration": 2.5894879458333406,
      "endTime": 65.31674394583334
    },
    {
      "instrumentId": 0,
      "instrumentName": "Piano",
      "isPercussion": false,
      "pitch": 69,
      "velocity": 49,
      "startTime": 62.727256,
      "duration": 2.5894879458333406,
      "endTime": 65.31674394583334
    },
    {
      "instrumentId": 1,
      "instrumentName": "Piano",
      "isPercussion": false,
      "pitch": 38,
      "velocity": 49,
      "startTime": 62.727256,
      "duration": 2.5894879458333406,
      "endTime": 65.31674394583334
    },
    {
      "instrumentId": 1,
      "instrumentName": "Piano",
      "isPercussion": false,
      "pitch": 52,
      "velocity": 49,
      "startTime": 62.727256,
      "duration": 2.5894879458333406,
      "endTime": 65.31674394583334
    },
    {
      "instrumentId": 0,
      "instrumentName": "Piano",
      "isPercussion": false,
      "pitch": 52,
      "velocity": 59,
      "startTime": 65.454528,
      "duration": 1.2940337458333317,
      "endTime": 66.74856174583333
    },
    {
      "instrumentId": 0,
      "instrumentName": "Piano",
      "isPercussion": false,
      "pitch": 55,
      "velocity": 59,
      "startTime": 65.454528,
      "duration": 1.2940337458333317,
      "endTime": 66.74856174583333
    },
    {
      "instrumentId": 0,
      "instrumentName": "Piano",
      "isPercussion": false,
      "pitch": 59,
      "velocity": 59,
      "startTime": 65.454528,
      "duration": 1.2940337458333317,
      "endTime": 66.74856174583333
    },
    {
      "instrumentId": 1,
      "instrumentName": "Piano",
      "isPercussion": false,
      "pitch": 40,
      "velocity": 60,
      "startTime": 65.454528,
      "duration": 0.6463066458333344,
      "endTime": 66.10083464583333
    },
    {
      "instrumentId": 0,
      "instrumentName": "Piano",
      "isPercussion": false,
      "pitch": 71,
      "velocity": 49,
      "startTime": 66.818164,
      "duration": 0.6463066458333344,
      "endTime": 67.46447064583333
    },
    {
      "instrumentId": 1,
      "instrumentName": "Piano",
      "isPercussion": false,
      "pitch": 42,
      "velocity": 62,
      "startTime": 66.818164,
      "duration": 0.6463066458333344,
      "endTime": 67.46447064583333
    },
    {
      "instrumentId": 0,
      "instrumentName": "Piano",
      "isPercussion": false,
      "pitch": 69,
      "velocity": 49,
      "startTime": 67.499982,
      "duration": 0.6463066458333344,
      "endTime": 68.14628864583334
    },
    {
      "instrumentId": 0,
      "instrumentName": "Piano",
      "isPercussion": false,
      "pitch": 57,
      "velocity": 49,
      "startTime": 68.1818,
      "duration": 1.2940337458333317,
      "endTime": 69.47583374583333
    },
    {
      "instrumentId": 0,
      "instrumentName": "Piano",
      "isPercussion": false,
      "pitch": 62,
      "velocity": 49,
      "startTime": 68.1818,
      "duration": 1.2940337458333317,
      "endTime": 69.47583374583333
    },
    {
      "instrumentId": 0,
      "instrumentName": "Piano",
      "isPercussion": false,
      "pitch": 66,
      "velocity": 49,
      "startTime": 68.1818,
      "duration": 1.2940337458333317,
      "endTime": 69.47583374583333
    },
    {
      "instrumentId": 1,
      "instrumentName": "Piano",
      "isPercussion": false,
      "pitch": 43,
      "velocity": 49,
      "startTime": 68.1818,
      "duration": 0.6463066458333344,
      "endTime": 68.82810664583333
    },
    {
      "instrumentId": 1,
      "instrumentName": "Piano",
      "isPercussion": false,
      "pitch": 47,
      "velocity": 49,
      "startTime": 69.545436,
      "duration": 0.6463066458333344,
      "endTime": 70.19174264583333
    },
    {
      "instrumentId": 0,
      "instrumentName": "Piano",
      "isPercussion": false,
      "pitch": 62,
      "velocity": 49,
      "startTime": 70.227254,
      "duration": 0.32244309583332154,
      "endTime": 70.54969709583332
    },
    {
      "instrumentId": 0,
      "instrumentName": "Piano",
      "isPercussion": false,
      "pitch": 64,
      "velocity": 49,
      "startTime": 70.568163,
      "duration": 0.16903404583332815,
      "endTime": 70.73719704583333
    },
    {
      "instrumentId": 0,
      "instrumentName": "Piano",
      "isPercussion": false,
      "pitch": 54,
      "velocity": 49,
      "startTime": 70.909072,
      "duration": 1.2940337458333317,
      "endTime": 72.20310574583333
    },
    {
      "instrumentId": 0,
      "instrumentName": "Piano",
      "isPercussion": false,
      "pitch": 57,
      "velocity": 49,
      "startTime": 70.909072,
      "duration": 1.2940337458333317,
      "endTime": 72.20310574583333
    },
    {
      "instrumentId": 0,
      "instrumentName": "Piano",
      "isPercussion": false,
      "pitch": 61,
      "velocity": 49,
      "startTime": 70.909072,
      "duration": 1.2940337458333317,
      "endTime": 72.20310574583333
    },
    {
      "instrumentId": 1,
      "instrumentName": "Piano",
      "isPercussion": false,
      "pitch": 45,
      "velocity": 49,
      "startTime": 70.909072,
      "duration": 0.6463066458333344,
      "endTime": 71.55537864583333
    },
    {
      "instrumentId": 1,
      "instrumentName": "Piano",
      "isPercussion": false,
      "pitch": 43,
      "velocity": 49,
      "startTime": 72.272708,
      "duration": 0.6463066458333344,
      "endTime": 72.91901464583333
    },
    {
      "instrumentId": 0,
      "instrumentName": "Piano",
      "isPercussion": false,
      "pitch": 66,
      "velocity": 49,
      "startTime": 72.954526,
      "duration": 0.32244309583333575,
      "endTime": 73.27696909583334
    },
    {
      "instrumentId": 0,
      "instrumentName": "Piano",
      "isPercussion": false,
      "pitch": 69,
      "velocity": 49,
      "startTime": 73.295435,
      "duration": 0.16903404583332815,
      "endTime": 73.46446904583333
    },
    {
      "instrumentId": 0,
      "instrumentName": "Piano",
      "isPercussion": false,
      "pitch": 52,
      "velocity": 49,
      "startTime": 73.636344,
      "duration": 2.5894879458333406,
      "endTime": 76.22583194583333
    },
    {
      "instrumentId": 0,
      "instrumentName": "Piano",
      "isPercussion": false,
      "pitch": 57,
      "velocity": 49,
      "startTime": 73.636344,
      "duration": 2.5894879458333406,
      "endTime": 76.22583194583333
    },
    {
      "instrumentId": 0,
      "instrumentName": "Piano",
      "isPercussion": false,
      "pitch": 61,
      "velocity": 49,
      "startTime": 73.636344,
      "duration": 2.5894879458333406,
      "endTime": 76.22583194583333
    },
    {
      "instrumentId": 0,
      "instrumentName": "Piano",
      "isPercussion": false,
      "pitch": 64,
      "velocity": 49,
      "startTime": 73.636344,
      "duration": 2.5894879458333406,
      "endTime": 76.22583194583333
    },
    {
      "instrumentId": 1,
      "instrumentName": "Piano",
      "isPercussion": false,
      "pitch": 38,
      "velocity": 49,
      "startTime": 73.636344,
      "duration": 2.5894879458333406,
      "endTime": 76.22583194583333
    },
    {
      "instrumentId": 0,
      "instrumentName": "Piano",
      "isPercussion": false,
      "pitch": 52,
      "velocity": 59,
      "startTime": 76.363616,
      "duration": 1.2940337458333317,
      "endTime": 77.65764974583333
    },
    {
      "instrumentId": 0,
      "instrumentName": "Piano",
      "isPercussion": false,
      "pitch": 55,
      "velocity": 59,
      "startTime": 76.363616,
      "duration": 1.2940337458333317,
      "endTime": 77.65764974583333
    },
    {
      "instrumentId": 0,
      "instrumentName": "Piano",
      "isPercussion": false,
      "pitch": 59,
      "velocity": 59,
      "startTime": 76.363616,
      "duration": 1.2940337458333317,
      "endTime": 77.65764974583333
    },
    {
      "instrumentId": 1,
      "instrumentName": "Piano",
      "isPercussion": false,
      "pitch": 40,
      "velocity": 60,
      "startTime": 76.363616,
      "duration": 0.6463066458333344,
      "endTime": 77.00992264583333
    },
    {
      "instrumentId": 0,
      "instrumentName": "Piano",
      "isPercussion": false,
      "pitch": 69,
      "velocity": 49,
      "startTime": 77.727252,
      "duration": 0.6463066458333344,
      "endTime": 78.37355864583333
    },
    {
      "instrumentId": 1,
      "instrumentName": "Piano",
      "isPercussion": false,
      "pitch": 42,
      "velocity": 62,
      "startTime": 77.727252,
      "duration": 0.6463066458333344,
      "endTime": 78.37355864583333
    },
    {
      "instrumentId": 0,
      "instrumentName": "Piano",
      "isPercussion": false,
      "pitch": 71,
      "velocity": 49,
      "startTime": 78.40907,
      "duration": 0.6463066458333344,
      "endTime": 79.05537664583333
    },
    {
      "instrumentId": 0,
      "instrumentName": "Piano",
      "isPercussion": false,
      "pitch": 57,
      "velocity": 49,
      "startTime": 79.09088799999999,
      "duration": 1.2940337458333317,
      "endTime": 80.38492174583332
    },
    {
      "instrumentId": 0,
      "instrumentName": "Piano",
      "isPercussion": false,
      "pitch": 62,
      "velocity": 49,
      "startTime": 79.09088799999999,
      "duration": 1.2940337458333317,
      "endTime": 80.38492174583332
    },
    {
      "instrumentId": 0,
      "instrumentName": "Piano",
      "isPercussion": false,
      "pitch": 66,
      "velocity": 49,
      "startTime": 79.09088799999999,
      "duration": 1.2940337458333317,
      "endTime": 80.38492174583332
    },
    {
      "instrumentId": 1,
      "instrumentName": "Piano",
      "isPercussion": false,
      "pitch": 43,
      "velocity": 49,
      "startTime": 79.09088799999999,
      "duration": 0.6463066458333344,
      "endTime": 79.73719464583333
    },
    {
      "instrumentId": 1,
      "instrumentName": "Piano",
      "isPercussion": false,
      "pitch": 47,
      "velocity": 49,
      "startTime": 80.45452399999999,
      "duration": 0.6463066458333344,
      "endTime": 81.10083064583333
    },
    {
      "instrumentId": 0,
      "instrumentName": "Piano",
      "isPercussion": false,
      "pitch": 62,
      "velocity": 49,
      "startTime": 81.136342,
      "duration": 0.32244309583333575,
      "endTime": 81.45878509583333
    },
    {
      "instrumentId": 0,
      "instrumentName": "Piano",
      "isPercussion": false,
      "pitch": 64,
      "velocity": 49,
      "startTime": 81.477251,
      "duration": 0.16903404583332815,
      "endTime": 81.64628504583332
    },
    {
      "instrumentId": 0,
      "instrumentName": "Piano",
      "isPercussion": false,
      "pitch": 54,
      "velocity": 49,
      "startTime": 81.81815999999999,
      "duration": 1.2940337458333317,
      "endTime": 83.11219374583332
    },
    {
      "instrumentId": 0,
      "instrumentName": "Piano",
      "isPercussion": false,
      "pitch": 57,
      "velocity": 49,
      "startTime": 81.81815999999999,
      "duration": 1.2940337458333317,
      "endTime": 83.11219374583332
    },
    {
      "instrumentId": 0,
      "instrumentName": "Piano",
      "isPercussion": false,
      "pitch": 61,
      "velocity": 49,
      "startTime": 81.81815999999999,
      "duration": 1.2940337458333317,
      "endTime": 83.11219374583332
    },
    {
      "instrumentId": 1,
      "instrumentName": "Piano",
      "isPercussion": false,
      "pitch": 45,
      "velocity": 49,
      "startTime": 81.81815999999999,
      "duration": 0.6463066458333344,
      "endTime": 82.46446664583333
    },
    {
      "instrumentId": 1,
      "instrumentName": "Piano",
      "isPercussion": false,
      "pitch": 43,
      "velocity": 49,
      "startTime": 83.18179599999999,
      "duration": 0.6463066458333344,
      "endTime": 83.82810264583333
    },
    {
      "instrumentId": 0,
      "instrumentName": "Piano",
      "isPercussion": false,
      "pitch": 66,
      "velocity": 49,
      "startTime": 83.863614,
      "duration": 0.32244309583333575,
      "endTime": 84.18605709583333
    },
    {
      "instrumentId": 0,
      "instrumentName": "Piano",
      "isPercussion": false,
      "pitch": 69,
      "velocity": 49,
      "startTime": 84.204523,
      "duration": 0.16903404583334236,
      "endTime": 84.37355704583334
    },
    {
      "instrumentId": 0,
      "instrumentName": "Piano",
      "isPercussion": false,
      "pitch": 52,
      "velocity": 49,
      "startTime": 84.54543199999999,
      "duration": 2.5894879458333406,
      "endTime": 87.13491994583333
    },
    {
      "instrumentId": 0,
      "instrumentName": "Piano",
      "isPercussion": false,
      "pitch": 57,
      "velocity": 49,
      "startTime": 84.54543199999999,
      "duration": 2.5894879458333406,
      "endTime": 87.13491994583333
    },
    {
      "instrumentId": 0,
      "instrumentName": "Piano",
      "isPercussion": false,
      "pitch": 61,
      "velocity": 49,
      "startTime": 84.54543199999999,
      "duration": 2.5894879458333406,
      "endTime": 87.13491994583333
    },
    {
      "instrumentId": 0,
      "instrumentName": "Piano",
      "isPercussion": false,
      "pitch": 64,
      "velocity": 49,
      "startTime": 84.54543199999999,
      "duration": 2.5894879458333406,
      "endTime": 87.13491994583333
    },
    {
      "instrumentId": 1,
      "instrumentName": "Piano",
      "isPercussion": false,
      "pitch": 38,
      "velocity": 49,
      "startTime": 84.54543199999999,
      "duration": 2.5894879458333406,
      "endTime": 87.13491994583333
    },
    {
      "instrumentId": 0,
      "instrumentName": "Piano",
      "isPercussion": false,
      "pitch": 52,
      "velocity": 59,
      "startTime": 87.27270399999999,
      "duration": 1.294033745833346,
      "endTime": 88.56673774583334
    },
    {
      "instrumentId": 0,
      "instrumentName": "Piano",
      "isPercussion": false,
      "pitch": 55,
      "velocity": 59,
      "startTime": 87.27270399999999,
      "duration": 1.294033745833346,
      "endTime": 88.56673774583334
    },
    {
      "instrumentId": 0,
      "instrumentName": "Piano",
      "isPercussion": false,
      "pitch": 59,
      "velocity": 59,
      "startTime": 87.27270399999999,
      "duration": 1.294033745833346,
      "endTime": 88.56673774583334
    },
    {
      "instrumentId": 1,
      "instrumentName": "Piano",
      "isPercussion": false,
      "pitch": 40,
      "velocity": 60,
      "startTime": 87.27270399999999,
      "duration": 0.6463066458333344,
      "endTime": 87.91901064583332
    },
    {
      "instrumentId": 0,
      "instrumentName": "Piano",
      "isPercussion": false,
      "pitch": 69,
      "velocity": 49,
      "startTime": 88.63633999999999,
      "duration": 0.6463066458333344,
      "endTime": 89.28264664583332
    },
    {
      "instrumentId": 1,
      "instrumentName": "Piano",
      "isPercussion": false,
      "pitch": 42,
      "velocity": 62,
      "startTime": 88.63633999999999,
      "duration": 0.6463066458333344,
      "endTime": 89.28264664583332
    },
    {
      "instrumentId": 0,
      "instrumentName": "Piano",
      "isPercussion": false,
      "pitch": 71,
      "velocity": 49,
      "startTime": 89.318158,
      "duration": 0.6463066458333344,
      "endTime": 89.96446464583333
    },
    {
      "instrumentId": 0,
      "instrumentName": "Piano",
      "isPercussion": false,
      "pitch": 62,
      "velocity": 49,
      "startTime": 89.99997599999999,
      "duration": 1.294033745833346,
      "endTime": 91.29400974583334
    },
    {
      "instrumentId": 0,
      "instrumentName": "Piano",
      "isPercussion": false,
      "pitch": 66,
      "velocity": 49,
      "startTime": 89.99997599999999,
      "duration": 1.294033745833346,
      "endTime": 91.29400974583334
    },
    {
      "instrumentId": 0,
      "instrumentName": "Piano",
      "isPercussion": false,
      "pitch": 71,
      "velocity": 49,
      "startTime": 89.99997599999999,
      "duration": 1.294033745833346,
      "endTime": 91.29400974583334
    },
    {
      "instrumentId": 0,
      "instrumentName": "Piano",
      "isPercussion": false,
      "pitch": 74,
      "velocity": 49,
      "startTime": 89.99997599999999,
      "duration": 1.294033745833346,
      "endTime": 91.29400974583334
    },
    {
      "instrumentId": 1,
      "instrumentName": "Piano",
      "isPercussion": false,
      "pitch": 43,
      "velocity": 49,
      "startTime": 89.99997599999999,
      "duration": 0.6463066458333344,
      "endTime": 90.64628264583332
    },
    {
      "instrumentId": 1,
      "instrumentName": "Piano",
      "isPercussion": false,
      "pitch": 57,
      "velocity": 49,
      "startTime": 89.99997599999999,
      "duration": 0.6463066458333344,
      "endTime": 90.64628264583332
    },
    {
      "instrumentId": 1,
      "instrumentName": "Piano",
      "isPercussion": false,
      "pitch": 47,
      "velocity": 49,
      "startTime": 91.363612,
      "duration": 0.6463066458333202,
      "endTime": 92.00991864583332
    },
    {
      "instrumentId": 0,
      "instrumentName": "Piano",
      "isPercussion": false,
      "pitch": 74,
      "velocity": 49,
      "startTime": 92.04543,
      "duration": 0.32244309583333575,
      "endTime": 92.36787309583333
    },
    {
      "instrumentId": 0,
      "instrumentName": "Piano",
      "isPercussion": false,
      "pitch": 76,
      "velocity": 49,
      "startTime": 92.38633899999999,
      "duration": 0.16903404583334236,
      "endTime": 92.55537304583333
    },
    {
      "instrumentId": 0,
      "instrumentName": "Piano",
      "isPercussion": false,
      "pitch": 61,
      "velocity": 49,
      "startTime": 92.727248,
      "duration": 1.2940337458333317,
      "endTime": 94.02128174583333
    },
    {
      "instrumentId": 0,
      "instrumentName": "Piano",
      "isPercussion": false,
      "pitch": 69,
      "velocity": 49,
      "startTime": 92.727248,
      "duration": 1.2940337458333317,
      "endTime": 94.02128174583333
    },
    {
      "instrumentId": 0,
      "instrumentName": "Piano",
      "isPercussion": false,
      "pitch": 73,
      "velocity": 49,
      "startTime": 92.727248,
      "duration": 1.2940337458333317,
      "endTime": 94.02128174583333
    },
    {
      "instrumentId": 1,
      "instrumentName": "Piano",
      "isPercussion": false,
      "pitch": 45,
      "velocity": 49,
      "startTime": 92.727248,
      "duration": 0.6463066458333202,
      "endTime": 93.37355464583332
    },
    {
      "instrumentId": 1,
      "instrumentName": "Piano",
      "isPercussion": false,
      "pitch": 54,
      "velocity": 49,
      "startTime": 92.727248,
      "duration": 0.6463066458333202,
      "endTime": 93.37355464583332
    },
    {
      "instrumentId": 1,
      "instrumentName": "Piano",
      "isPercussion": false,
      "pitch": 57,
      "velocity": 49,
      "startTime": 92.727248,
      "duration": 0.6463066458333202,
      "endTime": 93.37355464583332
    },
    {
      "instrumentId": 1,
      "instrumentName": "Piano",
      "isPercussion": false,
      "pitch": 43,
      "velocity": 49,
      "startTime": 94.090884,
      "duration": 0.6463066458333202,
      "endTime": 94.73719064583332
    },
    {
      "instrumentId": 0,
      "instrumentName": "Piano",
      "isPercussion": false,
      "pitch": 66,
      "velocity": 49,
      "startTime": 94.772702,
      "duration": 0.32244309583333575,
      "endTime": 95.09514509583333
    },
    {
      "instrumentId": 0,
      "instrumentName": "Piano",
      "isPercussion": false,
      "pitch": 69,
      "velocity": 49,
      "startTime": 95.11361099999999,
      "duration": 0.16903404583334236,
      "endTime": 95.28264504583333
    },
    {
      "instrumentId": 0,
      "instrumentName": "Piano",
      "isPercussion": false,
      "pitch": 52,
      "velocity": 49,
      "startTime": 95.45452,
      "duration": 2.5894879458333264,
      "endTime": 98.04400794583333
    },
    {
      "instrumentId": 0,
      "instrumentName": "Piano",
      "isPercussion": false,
      "pitch": 57,
      "velocity": 49,
      "startTime": 95.45452,
      "duration": 2.5894879458333264,
      "endTime": 98.04400794583333
    },
    {
      "instrumentId": 0,
      "instrumentName": "Piano",
      "isPercussion": false,
      "pitch": 61,
      "velocity": 49,
      "startTime": 95.45452,
      "duration": 2.5894879458333264,
      "endTime": 98.04400794583333
    },
    {
      "instrumentId": 0,
      "instrumentName": "Piano",
      "isPercussion": false,
      "pitch": 64,
      "velocity": 49,
      "startTime": 95.45452,
      "duration": 2.5894879458333264,
      "endTime": 98.04400794583333
    },
    {
      "instrumentId": 1,
      "instrumentName": "Piano",
      "isPercussion": false,
      "pitch": 38,
      "velocity": 49,
      "startTime": 95.45452,
      "duration": 2.5894879458333264,
      "endTime": 98.04400794583333
    },
    {
      "instrumentId": 0,
      "instrumentName": "Piano",
      "isPercussion": false,
      "pitch": 59,
      "velocity": 60,
      "startTime": 98.181792,
      "duration": 1.2940337458333317,
      "endTime": 99.47582574583333
    },
    {
      "instrumentId": 0,
      "instrumentName": "Piano",
      "isPercussion": false,
      "pitch": 62,
      "velocity": 60,
      "startTime": 98.181792,
      "duration": 1.2940337458333317,
      "endTime": 99.47582574583333
    },
    {
      "instrumentId": 0,
      "instrumentName": "Piano",
      "isPercussion": false,
      "pitch": 66,
      "velocity": 60,
      "startTime": 98.181792,
      "duration": 1.2940337458333317,
      "endTime": 99.47582574583333
    },
    {
      "instrumentId": 1,
      "instrumentName": "Piano",
      "isPercussion": false,
      "pitch": 35,
      "velocity": 49,
      "startTime": 98.181792,
      "duration": 1.2940337458333317,
      "endTime": 99.47582574583333
    },
    {
      "instrumentId": 1,
      "instrumentName": "Piano",
      "isPercussion": false,
      "pitch": 47,
      "velocity": 49,
      "startTime": 98.181792,
      "duration": 1.2940337458333317,
      "endTime": 99.47582574583333
    },
    {
      "instrumentId": 0,
      "instrumentName": "Piano",
      "isPercussion": false,
      "pitch": 71,
      "velocity": 49,
      "startTime": 100.227246,
      "duration": 0.32244309583333575,
      "endTime": 100.54968909583333
    },
    {
      "instrumentId": 0,
      "instrumentName": "Piano",
      "isPercussion": false,
      "pitch": 69,
      "velocity": 49,
      "startTime": 100.56815499999999,
      "duration": 0.16903404583334236,
      "endTime": 100.73718904583333
    },
    {
      "instrumentId": 0,
      "instrumentName": "Piano",
      "isPercussion": false,
      "pitch": 59,
      "velocity": 49,
      "startTime": 100.909064,
      "duration": 1.2940337458333317,
      "endTime": 102.20309774583333
    },
    {
      "instrumentId": 0,
      "instrumentName": "Piano",
      "isPercussion": false,
      "pitch": 64,
      "velocity": 49,
      "startTime": 100.909064,
      "duration": 1.2940337458333317,
      "endTime": 102.20309774583333
    },
    {
      "instrumentId": 0,
      "instrumentName": "Piano",
      "isPercussion": false,
      "pitch": 68,
      "velocity": 49,
      "startTime": 100.909064,
      "duration": 1.2940337458333317,
      "endTime": 102.20309774583333
    },
    {
      "instrumentId": 1,
      "instrumentName": "Piano",
      "isPercussion": false,
      "pitch": 40,
      "velocity": 49,
      "startTime": 100.909064,
      "duration": 1.2940337458333317,
      "endTime": 102.20309774583333
    },
    {
      "instrumentId": 1,
      "instrumentName": "Piano",
      "isPercussion": false,
      "pitch": 52,
      "velocity": 49,
      "startTime": 100.909064,
      "duration": 1.2940337458333317,
      "endTime": 102.20309774583333
    },
    {
      "instrumentId": 0,
      "instrumentName": "Piano",
      "isPercussion": false,
      "pitch": 64,
      "velocity": 49,
      "startTime": 102.2727,
      "duration": 0.6463066458333344,
      "endTime": 102.91900664583333
    },
    {
      "instrumentId": 0,
      "instrumentName": "Piano",
      "isPercussion": false,
      "pitch": 62,
      "velocity": 49,
      "startTime": 102.954518,
      "duration": 0.6463066458333344,
      "endTime": 103.60082464583333
    },
    {
      "instrumentId": 0,
      "instrumentName": "Piano",
      "isPercussion": false,
      "pitch": 52,
      "velocity": 49,
      "startTime": 103.636336,
      "duration": 1.2940337458333317,
      "endTime": 104.93036974583333
    },
    {
      "instrumentId": 0,
      "instrumentName": "Piano",
      "isPercussion": false,
      "pitch": 57,
      "velocity": 49,
      "startTime": 103.636336,
      "duration": 1.2940337458333317,
      "endTime": 104.93036974583333
    },
    {
      "instrumentId": 0,
      "instrumentName": "Piano",
      "isPercussion": false,
      "pitch": 61,
      "velocity": 49,
      "startTime": 103.636336,
      "duration": 1.2940337458333317,
      "endTime": 104.93036974583333
    },
    {
      "instrumentId": 1,
      "instrumentName": "Piano",
      "isPercussion": false,
      "pitch": 33,
      "velocity": 49,
      "startTime": 103.636336,
      "duration": 1.2940337458333317,
      "endTime": 104.93036974583333
    },
    {
      "instrumentId": 1,
      "instrumentName": "Piano",
      "isPercussion": false,
      "pitch": 45,
      "velocity": 49,
      "startTime": 103.636336,
      "duration": 1.2940337458333317,
      "endTime": 104.93036974583333
    },
    {
      "instrumentId": 0,
      "instrumentName": "Piano",
      "isPercussion": false,
      "pitch": 62,
      "velocity": 49,
      "startTime": 105.68178999999999,
      "duration": 0.32244309583333575,
      "endTime": 106.00423309583333
    },
    {
      "instrumentId": 0,
      "instrumentName": "Piano",
      "isPercussion": false,
      "pitch": 64,
      "velocity": 49,
      "startTime": 106.02269899999999,
      "duration": 0.16903404583334236,
      "endTime": 106.19173304583333
    },
    {
      "instrumentId": 0,
      "instrumentName": "Piano",
      "isPercussion": false,
      "pitch": 50,
      "velocity": 49,
      "startTime": 106.363608,
      "duration": 1.2940337458333317,
      "endTime": 107.65764174583333
    },
    {
      "instrumentId": 0,
      "instrumentName": "Piano",
      "isPercussion": false,
      "pitch": 55,
      "velocity": 49,
      "startTime": 106.363608,
      "duration": 1.2940337458333317,
      "endTime": 107.65764174583333
    },
    {
      "instrumentId": 0,
      "instrumentName": "Piano",
      "isPercussion": false,
      "pitch": 59,
      "velocity": 49,
      "startTime": 106.363608,
      "duration": 1.2940337458333317,
      "endTime": 107.65764174583333
    },
    {
      "instrumentId": 1,
      "instrumentName": "Piano",
      "isPercussion": false,
      "pitch": 31,
      "velocity": 49,
      "startTime": 106.363608,
      "duration": 2.5894879458333264,
      "endTime": 108.95309594583333
    },
    {
      "instrumentId": 1,
      "instrumentName": "Piano",
      "isPercussion": false,
      "pitch": 43,
      "velocity": 49,
      "startTime": 106.363608,
      "duration": 2.5894879458333264,
      "endTime": 108.95309594583333
    },
    {
      "instrumentId": 0,
      "instrumentName": "Piano",
      "isPercussion": false,
      "pitch": 62,
      "velocity": 49,
      "startTime": 109.09088,
      "duration": 1.2940337458333317,
      "endTime": 110.38491374583333
    },
    {
      "instrumentId": 0,
      "instrumentName": "Piano",
      "isPercussion": false,
      "pitch": 66,
      "velocity": 49,
      "startTime": 109.09088,
      "duration": 1.2940337458333317,
      "endTime": 110.38491374583333
    },
    {
      "instrumentId": 0,
      "instrumentName": "Piano",
      "isPercussion": false,
      "pitch": 69,
      "velocity": 49,
      "startTime": 109.09088,
      "duration": 1.2940337458333317,
      "endTime": 110.38491374583333
    },
    {
      "instrumentId": 0,
      "instrumentName": "Piano",
      "isPercussion": false,
      "pitch": 74,
      "velocity": 49,
      "startTime": 109.09088,
      "duration": 1.2940337458333317,
      "endTime": 110.38491374583333
    },
    {
      "instrumentId": 1,
      "instrumentName": "Piano",
      "isPercussion": false,
      "pitch": 35,
      "velocity": 49,
      "startTime": 109.09088,
      "duration": 1.2940337458333317,
      "endTime": 110.38491374583333
    },
    {
      "instrumentId": 1,
      "instrumentName": "Piano",
      "isPercussion": false,
      "pitch": 47,
      "velocity": 49,
      "startTime": 109.09088,
      "duration": 1.2940337458333317,
      "endTime": 110.38491374583333
    },
    {
      "instrumentId": 0,
      "instrumentName": "Piano",
      "isPercussion": false,
      "pitch": 71,
      "velocity": 49,
      "startTime": 111.13633399999999,
      "duration": 0.32244309583333575,
      "endTime": 111.45877709583333
    },
    {
      "instrumentId": 0,
      "instrumentName": "Piano",
      "isPercussion": false,
      "pitch": 69,
      "velocity": 49,
      "startTime": 111.477243,
      "duration": 0.16903404583332815,
      "endTime": 111.64627704583333
    },
    {
      "instrumentId": 0,
      "instrumentName": "Piano",
      "isPercussion": false,
      "pitch": 59,
      "velocity": 49,
      "startTime": 111.818152,
      "duration": 1.2940337458333317,
      "endTime": 113.11218574583333
    },
    {
      "instrumentId": 0,
      "instrumentName": "Piano",
      "isPercussion": false,
      "pitch": 64,
      "velocity": 49,
      "startTime": 111.818152,
      "duration": 1.2940337458333317,
      "endTime": 113.11218574583333
    },
    {
      "instrumentId": 0,
      "instrumentName": "Piano",
      "isPercussion": false,
      "pitch": 68,
      "velocity": 49,
      "startTime": 111.818152,
      "duration": 1.2940337458333317,
      "endTime": 113.11218574583333
    },
    {
      "instrumentId": 1,
      "instrumentName": "Piano",
      "isPercussion": false,
      "pitch": 40,
      "velocity": 49,
      "startTime": 111.818152,
      "duration": 1.2940337458333317,
      "endTime": 113.11218574583333
    },
    {
      "instrumentId": 1,
      "instrumentName": "Piano",
      "isPercussion": false,
      "pitch": 52,
      "velocity": 49,
      "startTime": 111.818152,
      "duration": 1.2940337458333317,
      "endTime": 113.11218574583333
    },
    {
      "instrumentId": 0,
      "instrumentName": "Piano",
      "isPercussion": false,
      "pitch": 64,
      "velocity": 49,
      "startTime": 113.181788,
      "duration": 0.6463066458333344,
      "endTime": 113.82809464583333
    },
    {
      "instrumentId": 0,
      "instrumentName": "Piano",
      "isPercussion": false,
      "pitch": 76,
      "velocity": 49,
      "startTime": 113.86360599999999,
      "duration": 0.6463066458333344,
      "endTime": 114.50991264583332
    },
    {
      "instrumentId": 1,
      "instrumentName": "Piano",
      "isPercussion": false,
      "pitch": 62,
      "velocity": 49,
      "startTime": 113.86360599999999,
      "duration": 0.6463066458333344,
      "endTime": 114.50991264583332
    },
    {
      "instrumentId": 0,
      "instrumentName": "Piano",
      "isPercussion": false,
      "pitch": 61,
      "velocity": 49,
      "startTime": 114.545424,
      "duration": 1.2940337458333317,
      "endTime": 115.83945774583333
    },
    {
      "instrumentId": 0,
      "instrumentName": "Piano",
      "isPercussion": false,
      "pitch": 64,
      "velocity": 49,
      "startTime": 114.545424,
      "duration": 1.2940337458333317,
      "endTime": 115.83945774583333
    },
    {
      "instrumentId": 0,
      "instrumentName": "Piano",
      "isPercussion": false,
      "pitch": 69,
      "velocity": 49,
      "startTime": 114.545424,
      "duration": 1.2940337458333317,
      "endTime": 115.83945774583333
    },
    {
      "instrumentId": 0,
      "instrumentName": "Piano",
      "isPercussion": false,
      "pitch": 73,
      "velocity": 49,
      "startTime": 114.545424,
      "duration": 1.2940337458333317,
      "endTime": 115.83945774583333
    },
    {
      "instrumentId": 1,
      "instrumentName": "Piano",
      "isPercussion": false,
      "pitch": 33,
      "velocity": 49,
      "startTime": 114.545424,
      "duration": 1.2940337458333317,
      "endTime": 115.83945774583333
    },
    {
      "instrumentId": 1,
      "instrumentName": "Piano",
      "isPercussion": false,
      "pitch": 45,
      "velocity": 49,
      "startTime": 114.545424,
      "duration": 1.2940337458333317,
      "endTime": 115.83945774583333
    },
    {
      "instrumentId": 0,
      "instrumentName": "Piano",
      "isPercussion": false,
      "pitch": 74,
      "velocity": 49,
      "startTime": 115.90906,
      "duration": 0.6463066458333344,
      "endTime": 116.55536664583333
    },
    {
      "instrumentId": 0,
      "instrumentName": "Piano",
      "isPercussion": false,
      "pitch": 76,
      "velocity": 49,
      "startTime": 116.59087799999999,
      "duration": 0.6463066458333344,
      "endTime": 117.23718464583332
    },
    {
      "instrumentId": 1,
      "instrumentName": "Piano",
      "isPercussion": false,
      "pitch": 62,
      "velocity": 49,
      "startTime": 116.59087799999999,
      "duration": 0.32244309583333575,
      "endTime": 116.91332109583333
    },
    {
      "instrumentId": 1,
      "instrumentName": "Piano",
      "isPercussion": false,
      "pitch": 64,
      "velocity": 49,
      "startTime": 116.931787,
      "duration": 0.16903404583332815,
      "endTime": 117.10082104583333
    },
    {
      "instrumentId": 0,
      "instrumentName": "Piano",
      "isPercussion": false,
      "pitch": 59,
      "velocity": 49,
      "startTime": 117.272696,
      "duration": 5.18039634583333,
      "endTime": 122.45309234583333
    },
    {
      "instrumentId": 0,
      "instrumentName": "Piano",
      "isPercussion": false,
      "pitch": 62,
      "velocity": 49,
      "startTime": 117.272696,
      "duration": 5.18039634583333,
      "endTime": 122.45309234583333
    },
    {
      "instrumentId": 0,
      "instrumentName": "Piano",
      "isPercussion": false,
      "pitch": 67,
      "velocity": 49,
      "startTime": 117.272696,
      "duration": 5.18039634583333,
      "endTime": 122.45309234583333
    },
    {
      "instrumentId": 0,
      "instrumentName": "Piano",
      "isPercussion": false,
      "pitch": 71,
      "velocity": 49,
      "startTime": 117.272696,
      "duration": 5.18039634583333,
      "endTime": 122.45309234583333
    },
    {
      "instrumentId": 1,
      "instrumentName": "Piano",
      "isPercussion": false,
      "pitch": 31,
      "velocity": 49,
      "startTime": 117.272696,
      "duration": 5.18039634583333,
      "endTime": 122.45309234583333
    },
    {
      "instrumentId": 1,
      "instrumentName": "Piano",
      "isPercussion": false,
      "pitch": 43,
      "velocity": 49,
      "startTime": 117.272696,
      "duration": 5.18039634583333,
      "endTime": 122.45309234583333
    }
  ]
}