{
  "metadata": {
    "file": "Rush E.mid",
    "duration": 178.34786133333324,
    "bpm": 69.99998833333528,
    "totalNotes": 1810
  },
  "notes": [
    {
      "instrumentId": 0,
      "instrumentName": "Piano\u0000",
      "isPercussion": false,
      "pitch": 64,
      "velocity": 80,
      "startTime": 0.0,
      "duration": 0.4267857854166667,
      "endTime": 0.4267857854166667
    },
    {
      "instrumentId": 0,
      "instrumentName": "Piano\u0000",
      "isPercussion": false,
      "pitch": 64,
      "velocity": 80,
      "startTime": 2.9843409999999997,
      "duration": 0.28290728750000005,
      "endTime": 3.2672482874999997
    },
    {
      "instrumentId": 0,
      "instrumentName": "Piano\u0000",
      "isPercussion": false,
      "pitch": 64,
      "velocity": 80,
      "startTime": 5.050235,
      "duration": 0.21172910416666646,
      "endTime": 5.261964104166666
    },
    {
      "instrumentId": 0,
      "instrumentName": "Piano\u0000",
      "isPercussion": false,
      "pitch": 64,
      "velocity": 80,
      "startTime": 6.675465,
      "duration": 0.19916666666666671,
      "endTime": 6.874631666666667
    },
    {
      "instrumentId": 0,
      "instrumentName": "Piano\u0000",
      "isPercussion": false,
      "pitch": 64,
      "velocity": 80,
      "startTime": 8.275465,
      "duration": 0.19916666666666671,
      "endTime": 8.474631666666667
    },
    {
      "instrumentId": 0,
      "instrumentName": "Piano\u0000",
      "isPercussion": false,
      "pitch": 64,
      "velocity": 80,
      "startTime": 9.062562,
      "duration": 0.1867187500000007,
      "endTime": 9.24928075
    },
    {
      "instrumentId": 0,
      "instrumentName": "Piano\u0000",
      "isPercussion": false,
      "pitch": 64,
      "velocity": 80,
      "startTime": 9.801198,
      "duration": 0.17573520624999972,
      "endTime": 9.97693320625
    },
    {
      "instrumentId": 0,
      "instrumentName": "Piano\u0000",
      "isPercussion": false,
      "pitch": 64,
      "velocity": 80,
      "startTime": 10.496996,
      "duration": 0.16597205625000022,
      "endTime": 10.66296805625
    },
    {
      "instrumentId": 0,
      "instrumentName": "Piano\u0000",
      "isPercussion": false,
      "pitch": 64,
      "velocity": 80,
      "startTime": 11.154653,
      "duration": 0.15723660625000058,
      "endTime": 11.31188960625
    },
    {
      "instrumentId": 0,
      "instrumentName": "Piano\u0000",
      "isPercussion": false,
      "pitch": 64,
      "velocity": 80,
      "startTime": 11.470442,
      "duration": 0.15320497499999952,
      "endTime": 11.623646975
    },
    {
      "instrumentId": 0,
      "instrumentName": "Piano\u0000",
      "isPercussion": false,
      "pitch": 64,
      "velocity": 80,
      "startTime": 11.778134,
      "duration": 0.14937499999999915,
      "endTime": 11.927508999999999
    },
    {
      "instrumentId": 0,
      "instrumentName": "Piano\u0000",
      "isPercussion": false,
      "pitch": 64,
      "velocity": 80,
      "startTime": 12.078134,
      "duration": 0.14573174374999986,
      "endTime": 12.22386574375
    },
    {
      "instrumentId": 0,
      "instrumentName": "Piano\u0000",
      "isPercussion": false,
      "pitch": 64,
      "velocity": 80,
      "startTime": 12.370817,
      "duration": 0.07083326250000077,
      "endTime": 12.441650262500001
    },
    {
      "instrumentId": 0,
      "instrumentName": "Piano\u0000",
      "isPercussion": false,
      "pitch": 64,
      "velocity": 80,
      "startTime": 12.513674,
      "duration": 0.07000001458333394,
      "endTime": 12.583674014583334
    },
    {
      "instrumentId": 0,
      "instrumentName": "Piano\u0000",
      "isPercussion": false,
      "pitch": 64,
      "velocity": 80,
      "startTime": 12.6548505,
      "duration": 0.0691861041666666,
      "endTime": 12.724036604166667
    },
    {
      "instrumentId": 0,
      "instrumentName": "Piano\u0000",
      "isPercussion": false,
      "pitch": 64,
      "velocity": 80,
      "startTime": 12.7943855,
      "duration": 0.06839078750000027,
      "endTime": 12.862776287500001
    },
    {
      "instrumentId": 0,
      "instrumentName": "Piano\u0000",
      "isPercussion": false,
      "pitch": 64,
      "velocity": 80,
      "startTime": 12.9323165,
      "duration": 0.06761356874999969,
      "endTime": 12.99993006875
    },
    {
      "instrumentId": 0,
      "instrumentName": "Piano\u0000",
      "isPercussion": false,
      "pitch": 64,
      "velocity": 80,
      "startTime": 13.06868,
      "duration": 0.06685395208333311,
      "endTime": 13.135533952083334
    },
    {
      "instrumentId": 0,
      "instrumentName": "Piano\u0000",
      "isPercussion": false,
      "pitch": 64,
      "velocity": 80,
      "startTime": 13.203511500000001,
      "duration": 0.0661111937500003,
      "endTime": 13.269622693750001
    },
    {
      "instrumentId": 0,
      "instrumentName": "Piano\u0000",
      "isPercussion": false,
      "pitch": 64,
      "velocity": 80,
      "startTime": 13.336845,
      "duration": 0.06538454999999921,
      "endTime": 13.40222955
    },
    {
      "instrumentId": 0,
      "instrumentName": "Piano\u0000",
      "isPercussion": false,
      "pitch": 76,
      "velocity": 80,
      "startTime": 13.336845,
      "duration": 0.06538454999999921,
      "endTime": 13.40222955
    },
    {
      "instrumentId": 0,
      "instrumentName": "Piano\u0000",
      "isPercussion": false,
      "pitch": 64,
      "velocity": 80,
      "startTime": 13.468713000000001,
      "duration": 0.12336977083333345,
      "endTime": 13.592082770833334
    },
    {
      "instrumentId": 0,
      "instrumentName": "Piano\u0000",
      "isPercussion": false,
      "pitch": 76,
      "velocity": 80,
      "startTime": 13.468713000000001,
      "duration": 0.12336977083333345,
      "endTime": 13.592082770833334
    },
    {
      "instrumentId": 1,
      "instrumentName": "Piano\u0000",
      "isPercussion": false,
      "pitch": 52,
      "velocity": 80,
      "startTime": 13.468713000000001,
      "duration": 0.12336977083333345,
      "endTime": 13.592082770833334
    },
    {
      "instrumentId": 0,
      "instrumentName": "Piano\u0000",
      "isPercussion": false,
      "pitch": 76,
      "velocity": 80,
      "startTime": 13.599148000000001,
      "duration": 0.12204323958333418,
      "endTime": 13.721191239583336
    },
    {
      "instrumentId": 0,
      "instrumentName": "Piano\u0000",
      "isPercussion": false,
      "pitch": 88,
      "velocity": 80,
      "startTime": 13.599148000000001,
      "duration": 0.12204323958333418,
      "endTime": 13.721191239583336
    },
    {
      "instrumentId": 1,
      "instrumentName": "Piano\u0000",
      "isPercussion": false,
      "pitch": 40,
      "velocity": 80,
      "startTime": 13.599148000000001,
      "duration": 0.12204323958333418,
      "endTime": 13.721191239583336
    },
    {
      "instrumentId": 1,
      "instrumentName": "Piano\u0000",
      "isPercussion": false,
      "pitch": 52,
      "velocity": 80,
      "startTime": 13.599148000000001,
      "duration": 0.12204323958333418,
      "endTime": 13.721191239583336
    },
    {
      "instrumentId": 0,
      "instrumentName": "Piano\u0000",
      "isPercussion": false,
      "pitch": 76,
      "velocity": 80,
      "startTime": 13.7281805,
      "duration": 0.12074461041666673,
      "endTime": 13.848925110416667
    },
    {
      "instrumentId": 0,
      "instrumentName": "Piano\u0000",
      "isPercussion": false,
      "pitch": 88,
      "velocity": 80,
      "startTime": 13.7281805,
      "duration": 0.12074461041666673,
      "endTime": 13.848925110416667
    },
    {
      "instrumentId": 1,
      "instrumentName": "Piano\u0000",
      "isPercussion": false,
      "pitch": 40,
      "velocity": 80,
      "startTime": 13.7281805,
      "duration": 0.12074461041666673,
      "endTime": 13.848925110416667
    },
    {
      "instrumentId": 1,
      "instrumentName": "Piano\u0000",
      "isPercussion": false,
      "pitch": 52,
      "velocity": 80,
      "startTime": 13.7281805,
      "duration": 0.12074461041666673,
      "endTime": 13.848925110416667
    },
    {
      "instrumentId": 0,
      "instrumentName": "Piano\u0000",
      "isPercussion": false,
      "pitch": 76,
      "velocity": 80,
      "startTime": 13.85584,
      "duration": 0.11947388333333286,
      "endTime": 13.975313883333333
    },
    {
      "instrumentId": 0,
      "instrumentName": "Piano\u0000",
      "isPercussion": false,
      "pitch": 88,
      "velocity": 80,
      "startTime": 13.85584,
      "duration": 0.11947388333333286,
      "endTime": 13.975313883333333
    },
    {
      "instrumentId": 1,
      "instrumentName": "Piano\u0000",
      "isPercussion": false,
      "pitch": 40,
      "velocity": 80,
      "startTime": 13.85584,
      "duration": 0.11947388333333286,
      "endTime": 13.975313883333333
    },
    {
      "instrumentId": 1,
      "instrumentName": "Piano\u0000",
      "isPercussion": false,
      "pitch": 52,
      "velocity": 80,
      "startTime": 13.85584,
      "duration": 0.11947388333333286,
      "endTime": 13.975313883333333
    },
    {
      "instrumentId": 0,
      "instrumentName": "Piano\u0000",
      "isPercussion": false,
      "pitch": 88,
      "velocity": 80,
      "startTime": 13.982156,
      "duration": 0.1182291666666675,
      "endTime": 14.100385166666667
    },
    {
      "instrumentId": 0,
      "instrumentName": "Piano\u0000",
      "isPercussion": false,
      "pitch": 100,
      "velocity": 80,
      "startTime": 13.982156,
      "duration": 0.1182291666666675,
      "endTime": 14.100385166666667
    },
    {
      "instrumentId": 1,
      "instrumentName": "Piano\u0000",
      "isPercussion": false,
      "pitch": 28,
      "velocity": 80,
      "startTime": 13.982156,
      "duration": 0.1182291666666675,
      "endTime": 14.100385166666667
    },
    {
      "instrumentId": 1,
      "instrumentName": "Piano\u0000",
      "isPercussion": false,
      "pitch": 40,
      "velocity": 80,
      "startTime": 13.982156,
      "duration": 0.1182291666666675,
      "endTime": 14.100385166666667
    },
    {
      "instrumentId": 0,
      "instrumentName": "Piano\u0000",
      "isPercussion": false,
      "pitch": 88,
      "velocity": 80,
      "startTime": 14.107156,
      "duration": 0.11701046041666707,
      "endTime": 14.224166460416667
    },
    {
      "instrumentId": 0,
      "instrumentName": "Piano\u0000",
      "isPercussion": false,
      "pitch": 100,
      "velocity": 80,
      "startTime": 14.107156,
      "duration": 0.11701046041666707,
      "endTime": 14.224166460416667
    },
    {
      "instrumentId": 1,
      "instrumentName": "Piano\u0000",
      "isPercussion": false,
      "pitch": 28,
      "velocity": 80,
      "startTime": 14.107156,
      "duration": 0.11701046041666707,
      "endTime": 14.224166460416667
    },
    {
      "instrumentId": 1,
      "instrumentName": "Piano\u0000",
      "isPercussion": false,
      "pitch": 40,
      "velocity": 80,
      "startTime": 14.107156,
      "duration": 0.11701046041666707,
      "endTime": 14.224166460416667
    },
    {
      "instrumentId": 0,
      "instrumentName": "Piano\u0000",
      "isPercussion": false,
      "pitch": 88,
      "velocity": 80,
      "startTime": 14.2308675,
      "duration": 0.11581634583333411,
      "endTime": 14.346683845833335
    },
    {
      "instrumentId": 0,
      "instrumentName": "Piano\u0000",
      "isPercussion": false,
      "pitch": 100,
      "velocity": 80,
      "startTime": 14.2308675,
      "duration": 0.11581634583333411,
      "endTime": 14.346683845833335
    },
    {
      "instrumentId": 1,
      "instrumentName": "Piano\u0000",
      "isPercussion": false,
      "pitch": 28,
      "velocity": 80,
      "startTime": 14.2308675,
      "duration": 0.11581634583333411,
      "endTime": 14.346683845833335
    },
    {
      "instrumentId": 1,
      "instrumentName": "Piano\u0000",
      "isPercussion": false,
      "pitch": 40,
      "velocity": 80,
      "startTime": 14.2308675,
      "duration": 0.11581634583333411,
      "endTime": 14.346683845833335
    },
    {
      "instrumentId": 0,
      "instrumentName": "Piano\u0000",
      "isPercussion": false,
      "pitch": 88,
      "velocity": 80,
      "startTime": 14.3533165,
      "duration": 0.11464634999999923,
      "endTime": 14.46796285
    },
    {
      "instrumentId": 0,
      "instrumentName": "Piano\u0000",
      "isPercussion": false,
      "pitch": 100,
      "velocity": 80,
      "startTime": 14.3533165,
      "duration": 0.11464634999999923,
      "endTime": 14.46796285
    },
    {
      "instrumentId": 1,
      "instrumentName": "Piano\u0000",
      "isPercussion": false,
      "pitch": 28,
      "velocity": 80,
      "startTime": 14.3533165,
      "duration": 0.11464634999999923,
      "endTime": 14.46796285
    },
    {
      "instrumentId": 1,
      "instrumentName": "Piano\u0000",
      "isPercussion": false,
      "pitch": 40,
      "velocity": 80,
      "startTime": 14.3533165,
      "duration": 0.11464634999999923,
      "endTime": 14.46796285
    },
    {
      "instrumentId": 1,
      "instrumentName": "Piano\u0000",
      "isPercussion": false,
      "pitch": 33,
      "velocity": 64,
      "startTime": 14.4745285,
      "duration": 0.3270833333333325,
      "endTime": 14.801611833333332
    },
    {
      "instrumentId": 1,
      "instrumentName": "Piano\u0000",
      "isPercussion": false,
      "pitch": 45,
      "velocity": 64,
      "startTime": 14.4745285,
      "duration": 0.3270833333333325,
      "endTime": 14.801611833333332
    },
    {
      "instrumentId": 1,
      "instrumentName": "Piano\u0000",
      "isPercussion": false,
      "pitch": 48,
      "velocity": 64,
      "startTime": 15.4745285,
      "duration": 0.3270833333333325,
      "endTime": 15.801611833333332
    },
    {
      "instrumentId": 1,
      "instrumentName": "Piano\u0000",
      "isPercussion": false,
      "pitch": 52,
      "velocity": 64,
      "startTime": 15.4745285,
      "duration": 0.3270833333333325,
      "endTime": 15.801611833333332
    },
    {
      "instrumentId": 1,
      "instrumentName": "Piano\u0000",
      "isPercussion": false,
      "pitch": 40,
      "velocity": 64,
      "startTime": 16.474528499999998,
      "duration": 0.3270833333333343,
      "endTime": 16.801611833333332
    },
    {
      "instrumentId": 1,
      "instrumentName": "Piano\u0000",
      "isPercussion": false,
      "pitch": 48,
      "velocity": 64,
      "startTime": 17.474528499999998,
      "duration": 0.3270833333333343,
      "endTime": 17.801611833333332
    },
    {
      "instrumentId": 1,
      "instrumentName": "Piano\u0000",
      "isPercussion": false,
      "pitch": 52,
      "velocity": 64,
      "startTime": 17.474528499999998,
      "duration": 0.3270833333333343,
      "endTime": 17.801611833333332
    },
    {
      "instrumentId": 1,
      "instrumentName": "Piano\u0000",
      "isPercussion": false,
      "pitch": 33,
      "velocity": 64,
      "startTime": 18.474528499999998,
      "duration": 0.3270833333333343,
      "endTime": 18.801611833333332
    },
    {
      "instrumentId": 1,
      "instrumentName": "Piano\u0000",
      "isPercussion": false,
      "pitch": 45,
      "velocity": 64,
      "startTime": 18.474528499999998,
      "duration": 0.3270833333333343,
      "endTime": 18.801611833333332
    },
    {
      "instrumentId": 1,
      "instrumentName": "Piano\u0000",
      "isPercussion": false,
      "pitch": 48,
      "velocity": 64,
      "startTime": 19.474528499999998,
      "duration": 0.3270833333333343,
      "endTime": 19.801611833333332
    },
    {
      "instrumentId": 1,
      "instrumentName": "Piano\u0000",
      "isPercussion": false,
      "pitch": 52,
      "velocity": 64,
      "startTime": 19.474528499999998,
      "duration": 0.3270833333333343,
      "endTime": 19.801611833333332
    },
    {
      "instrumentId": 1,
      "instrumentName": "Piano\u0000",
      "isPercussion": false,
      "pitch": 40,
      "velocity": 64,
      "startTime": 20.474528499999998,
      "duration": 0.3270833333333343,
      "endTime": 20.801611833333332
    },
    {
      "instrumentId": 1,
      "instrumentName": "Piano\u0000",
      "isPercussion": false,
      "pitch": 48,
      "velocity": 64,
      "startTime": 21.474528499999998,
      "duration": 0.3270833333333343,
      "endTime": 21.801611833333332
    },
    {
      "instrumentId": 1,
      "instrumentName": "Piano\u0000",
      "isPercussion": false,
      "pitch": 52,
      "velocity": 64,
      "startTime": 21.474528499999998,
      "duration": 0.3270833333333343,
      "endTime": 21.801611833333332
    },
    {
      "instrumentId": 0,
      "instrumentName": "Piano\u0000",
      "isPercussion": false,
      "pitch": 64,
      "velocity": 64,
      "startTime": 22.474528499999998,
      "duration": 0.24791666666666856,
      "endTime": 22.722445166666667
    },
    {
      "instrumentId": 1,
      "instrumentName": "Piano\u0000",
      "isPercussion": false,
      "pitch": 45,
      "velocity": 64,
      "startTime": 22.474528499999998,
      "duration": 0.9921746916666656,
      "endTime": 23.466703191666664
    },
    {
      "instrumentId": 0,
      "instrumentName": "Piano\u0000",
      "isPercussion": false,
      "pitch": 64,
      "velocity": 64,
      "startTime": 22.974528499999998,
      "duration": 0.24505769166666624,
      "endTime": 23.219586191666664
    },
    {
      "instrumentId": 0,
      "instrumentName": "Piano\u0000",
      "isPercussion": false,
      "pitch": 64,
      "velocity": 64,
      "startTime": 23.468762499999997,
      "duration": 0.24226391875000175,
      "endTime": 23.71102641875
    },
    {
      "instrumentId": 1,
      "instrumentName": "Piano\u0000",
      "isPercussion": false,
      "pitch": 48,
      "velocity": 64,
      "startTime": 23.468762499999997,
      "duration": 0.24226391875000175,
      "endTime": 23.71102641875
    },
    {
      "instrumentId": 1,
      "instrumentName": "Piano\u0000",
      "isPercussion": false,
      "pitch": 52,
      "velocity": 64,
      "startTime": 23.468762499999997,
      "duration": 0.24226391875000175,
      "endTime": 23.71102641875
    },
    {
      "instrumentId": 0,
      "instrumentName": "Piano\u0000",
      "isPercussion": false,
      "pitch": 64,
      "velocity": 64,
      "startTime": 23.957361999999996,
      "duration": 0.2395331166666672,
      "endTime": 24.196895116666663
    },
    {
      "instrumentId": 0,
      "instrumentName": "Piano\u0000",
      "isPercussion": false,
      "pitch": 64,
      "velocity": 64,
      "startTime": 24.440453999999995,
      "duration": 0.23648646875000168,
      "endTime": 24.676940468749997
    },
    {
      "instrumentId": 1,
      "instrumentName": "Piano\u0000",
      "isPercussion": false,
      "pitch": 40,
      "velocity": 64,
      "startTime": 24.440453999999995,
      "duration": 0.23648646875000168,
      "endTime": 24.676940468749997
    },
    {
      "instrumentId": 0,
      "instrumentName": "Piano\u0000",
      "isPercussion": false,
      "pitch": 64,
      "velocity": 64,
      "startTime": 24.917401499999997,
      "duration": 0.23388359166666817,
      "endTime": 25.151285091666665
    },
    {
      "instrumentId": 0,
      "instrumentName": "Piano\u0000",
      "isPercussion": false,
      "pitch": 64,
      "velocity": 64,
      "startTime": 25.389099499999997,
      "duration": 0.23133748749999938,
      "endTime": 25.620436987499996
    },
    {
      "instrumentId": 1,
      "instrumentName": "Piano\u0000",
      "isPercussion": false,
      "pitch": 48,
      "velocity": 64,
      "startTime": 25.389099499999997,
      "duration": 0.23133748749999938,
      "endTime": 25.620436987499996
    },
    {
      "instrumentId": 1,
      "instrumentName": "Piano\u0000",
      "isPercussion": false,
      "pitch": 52,
      "velocity": 64,
      "startTime": 25.389099499999997,
      "duration": 0.23133748749999938,
      "endTime": 25.620436987499996
    },
    {
      "instrumentId": 0,
      "instrumentName": "Piano\u0000",
      "isPercussion": false,
      "pitch": 64,
      "velocity": 64,
      "startTime": 25.855662499999998,
      "duration": 0.22884617291666842,
      "endTime": 26.084508672916666
    },
    {
      "instrumentId": 0,
      "instrumentName": "Piano\u0000",
      "isPercussion": false,
      "pitch": 64,
      "velocity": 64,
      "startTime": 26.317200999999997,
      "duration": 0.22640791250000092,
      "endTime": 26.543608912499998
    },
    {
      "instrumentId": 1,
      "instrumentName": "Piano\u0000",
      "isPercussion": false,
      "pitch": 45,
      "velocity": 64,
      "startTime": 26.317200999999997,
      "duration": 0.22640791250000092,
      "endTime": 26.543608912499998
    },
    {
      "instrumentId": 0,
      "instrumentName": "Piano\u0000",
      "isPercussion": false,
      "pitch": 64,
      "velocity": 64,
      "startTime": 26.773821999999996,
      "duration": 0.22402097083333317,
      "endTime": 26.99784297083333
    },
    {
      "instrumentId": 0,
      "instrumentName": "Piano\u0000",
      "isPercussion": false,
      "pitch": 64,
      "velocity": 64,
      "startTime": 27.225628999999994,
      "duration": 0.22168410833333496,
      "endTime": 27.44731310833333
    },
    {
      "instrumentId": 1,
      "instrumentName": "Piano\u0000",
      "isPercussion": false,
      "pitch": 48,
      "velocity": 64,
      "startTime": 27.225628999999994,
      "duration": 0.22168410833333496,
      "endTime": 27.44731310833333
    },
    {
      "instrumentId": 1,
      "instrumentName": "Piano\u0000",
      "isPercussion": false,
      "pitch": 52,
      "velocity": 64,
      "startTime": 27.225628999999994,
      "duration": 0.22168410833333496,
      "endTime": 27.44731310833333
    },
    {
      "instrumentId": 0,
      "instrumentName": "Piano\u0000",
      "isPercussion": false,
      "pitch": 64,
      "velocity": 64,
      "startTime": 27.672722999999994,
      "duration": 0.21907205833333165,
      "endTime": 27.891795058333326
    },
    {
      "instrumentId": 0,
      "instrumentName": "Piano\u0000",
      "isPercussion": false,
      "pitch": 64,
      "velocity": 64,
      "startTime": 28.114548999999993,
      "duration": 0.21683684166666595,
      "endTime": 28.33138584166666
    },
    {
      "instrumentId": 1,
      "instrumentName": "Piano\u0000",
      "isPercussion": false,
      "pitch": 40,
      "velocity": 64,
      "startTime": 28.114548999999993,
      "duration": 0.21683684166666595,
      "endTime": 28.33138584166666
    },
    {
      "instrumentId": 0,
      "instrumentName": "Piano\u0000",
      "isPercussion": false,
      "pitch": 64,
      "velocity": 64,
      "startTime": 28.551866999999994,
      "duration": 0.214646497916668,
      "endTime": 28.766513497916662
    },
    {
      "instrumentId": 0,
      "instrumentName": "Piano\u0000",
      "isPercussion": false,
      "pitch": 64,
      "velocity": 64,
      "startTime": 28.984767499999993,
      "duration": 0.2125000354166673,
      "endTime": 29.19726753541666
    },
    {
      "instrumentId": 1,
      "instrumentName": "Piano\u0000",
      "isPercussion": false,
      "pitch": 48,
      "velocity": 64,
      "startTime": 28.984767499999993,
      "duration": 0.2125000354166673,
      "endTime": 29.19726753541666
    },
    {
      "instrumentId": 1,
      "instrumentName": "Piano\u0000",
      "isPercussion": false,
      "pitch": 52,
      "velocity": 64,
      "startTime": 28.984767499999993,
      "duration": 0.2125000354166673,
      "endTime": 29.19726753541666
    },
    {
      "instrumentId": 0,
      "instrumentName": "Piano\u0000",
      "isPercussion": false,
      "pitch": 64,
      "velocity": 64,
      "startTime": 29.413338999999993,
      "duration": 0.21039596666666682,
      "endTime": 29.62373496666666
    },
    {
      "instrumentId": 0,
      "instrumentName": "Piano\u0000",
      "isPercussion": false,
      "pitch": 64,
      "velocity": 64,
      "startTime": 29.837666999999993,
      "duration": 0.2083332999999996,
      "endTime": 30.046000299999992
    },
    {
      "instrumentId": 1,
      "instrumentName": "Piano\u0000",
      "isPercussion": false,
      "pitch": 45,
      "velocity": 64,
      "startTime": 29.837666999999993,
      "duration": 0.2083332999999996,
      "endTime": 30.046000299999992
    },
    {
      "instrumentId": 0,
      "instrumentName": "Piano\u0000",
      "isPercussion": false,
      "pitch": 64,
      "velocity": 64,
      "startTime": 30.257834999999993,
      "duration": 0.2063107958333319,
      "endTime": 30.464145795833325
    },
    {
      "instrumentId": 0,
      "instrumentName": "Piano\u0000",
      "isPercussion": false,
      "pitch": 64,
      "velocity": 64,
      "startTime": 30.673923999999992,
      "duration": 0.20404657291666695,
      "endTime": 30.87797057291666
    },
    {
      "instrumentId": 1,
      "instrumentName": "Piano\u0000",
      "isPercussion": false,
      "pitch": 48,
      "velocity": 64,
      "startTime": 30.673923999999992,
      "duration": 0.20404657291666695,
      "endTime": 30.87797057291666
    },
    {
      "instrumentId": 1,
      "instrumentName": "Piano\u0000",
      "isPercussion": false,
      "pitch": 52,
      "velocity": 64,
      "startTime": 30.673923999999992,
      "duration": 0.20404657291666695,
      "endTime": 30.87797057291666
    },
    {
      "instrumentId": 0,
      "instrumentName": "Piano\u0000",
      "isPercussion": false,
      "pitch": 64,
      "velocity": 64,
      "startTime": 31.085446499999993,
      "duration": 0.20210588124999873,
      "endTime": 31.28755238124999
    },
    {
      "instrumentId": 0,
      "instrumentName": "Piano\u0000",
      "isPercussion": false,
      "pitch": 64,
      "velocity": 64,
      "startTime": 31.49305499999999,
      "duration": 0.4020861312500017,
      "endTime": 31.895141131249993
    },
    {
      "instrumentId": 1,
      "instrumentName": "Piano\u0000",
      "isPercussion": false,
      "pitch": 40,
      "velocity": 64,
      "startTime": 31.49305499999999,
      "duration": 0.20020188124999905,
      "endTime": 31.69325688124999
    },
    {
      "instrumentId": 0,
      "instrumentName": "Piano\u0000",
      "isPercussion": false,
      "pitch": 65,
      "velocity": 64,
      "startTime": 31.89682349999999,
      "duration": 0.4020861312500017,
      "endTime": 32.29890963124999
    },
    {
      "instrumentId": 0,
      "instrumentName": "Piano\u0000",
      "isPercussion": false,
      "pitch": 64,
      "velocity": 64,
      "startTime": 32.300591999999995,
      "duration": 0.394649745833334,
      "endTime": 32.69524174583333
    },
    {
      "instrumentId": 1,
      "instrumentName": "Piano\u0000",
      "isPercussion": false,
      "pitch": 48,
      "velocity": 64,
      "startTime": 32.300591999999995,
      "duration": 0.1964992458333299,
      "endTime": 32.497091245833325
    },
    {
      "instrumentId": 1,
      "instrumentName": "Piano\u0000",
      "isPercussion": false,
      "pitch": 52,
      "velocity": 64,
      "startTime": 32.300591999999995,
      "duration": 0.1964992458333299,
      "endTime": 32.497091245833325
    },
    {
      "instrumentId": 0,
      "instrumentName": "Piano\u0000",
      "isPercussion": false,
      "pitch": 63,
      "velocity": 64,
      "startTime": 32.696892999999996,
      "duration": 0.37483469583333573,
      "endTime": 33.07172769583333
    },
    {
      "instrumentId": 0,
      "instrumentName": "Piano\u0000",
      "isPercussion": false,
      "pitch": 64,
      "velocity": 64,
      "startTime": 33.093194,
      "duration": 0.1929312291666676,
      "endTime": 33.286125229166664
    },
    {
      "instrumentId": 1,
      "instrumentName": "Piano\u0000",
      "isPercussion": false,
      "pitch": 45,
      "velocity": 64,
      "startTime": 33.093194,
      "duration": 0.1929312291666676,
      "endTime": 33.286125229166664
    },
    {
      "instrumentId": 0,
      "instrumentName": "Piano\u0000",
      "isPercussion": false,
      "pitch": 69,
      "velocity": 64,
      "startTime": 33.871404,
      "duration": 0.189249418750002,
      "endTime": 34.06065341875
    },
    {
      "instrumentId": 1,
      "instrumentName": "Piano\u0000",
      "isPercussion": false,
      "pitch": 48,
      "velocity": 64,
      "startTime": 33.871404,
      "duration": 0.189249418750002,
      "endTime": 34.06065341875
    },
    {
      "instrumentId": 1,
      "instrumentName": "Piano\u0000",
      "isPercussion": false,
      "pitch": 52,
      "velocity": 64,
      "startTime": 33.871404,
      "duration": 0.189249418750002,
      "endTime": 34.06065341875
    },
    {
      "instrumentId": 0,
      "instrumentName": "Piano\u0000",
      "isPercussion": false,
      "pitch": 72,
      "velocity": 64,
      "startTime": 34.634763,
      "duration": 1.411855272916668,
      "endTime": 36.04661827291667
    },
    {
      "instrumentId": 1,
      "instrumentName": "Piano\u0000",
      "isPercussion": false,
      "pitch": 40,
      "velocity": 64,
      "startTime": 34.634763,
      "duration": 0.18593750000000142,
      "endTime": 34.8207005
    },
    {
      "instrumentId": 1,
      "instrumentName": "Piano\u0000",
      "isPercussion": false,
      "pitch": 48,
      "velocity": 64,
      "startTime": 35.384763,
      "duration": 0.1827396229166638,
      "endTime": 35.56750262291666
    },
    {
      "instrumentId": 1,
      "instrumentName": "Piano\u0000",
      "isPercussion": false,
      "pitch": 52,
      "velocity": 64,
      "startTime": 35.384763,
      "duration": 0.1827396229166638,
      "endTime": 35.56750262291666
    },
    {
      "instrumentId": 0,
      "instrumentName": "Piano\u0000",
      "isPercussion": false,
      "pitch": 74,
      "velocity": 64,
      "startTime": 36.121864,
      "duration": 0.17943315833333173,
      "endTime": 36.301297158333334
    },
    {
      "instrumentId": 1,
      "instrumentName": "Piano\u0000",
      "isPercussion": false,
      "pitch": 44,
      "velocity": 64,
      "startTime": 36.121864,
      "duration": 0.17943315833333173,
      "endTime": 36.301297158333334
    },
    {
      "instrumentId": 0,
      "instrumentName": "Piano\u0000",
      "isPercussion": false,
      "pitch": 74,
      "velocity": 64,
      "startTime": 36.483746000000004,
      "duration": 0.17793053541666382,
      "endTime": 36.66167653541667
    },
    {
      "instrumentId": 0,
      "instrumentName": "Piano\u0000",
      "isPercussion": false,
      "pitch": 74,
      "velocity": 64,
      "startTime": 36.842597500000004,
      "duration": 0.17645319999999742,
      "endTime": 37.0190507
    },
    {
      "instrumentId": 1,
      "instrumentName": "Piano\u0000",
      "isPercussion": false,
      "pitch": 50,
      "velocity": 64,
      "startTime": 36.842597500000004,
      "duration": 0.17645319999999742,
      "endTime": 37.0190507
    },
    {
      "instrumentId": 1,
      "instrumentName": "Piano\u0000",
      "isPercussion": false,
      "pitch": 52,
      "velocity": 64,
      "startTime": 36.842597500000004,
      "duration": 0.17645319999999742,
      "endTime": 37.0190507
    },
    {
      "instrumentId": 0,
      "instrumentName": "Piano\u0000",
      "isPercussion": false,
      "pitch": 74,
      "velocity": 64,
      "startTime": 37.1984695,
      "duration": 0.1749999124999988,
      "endTime": 37.3734694125
    },
    {
      "instrumentId": 0,
      "instrumentName": "Piano\u0000",
      "isPercussion": false,
      "pitch": 74,
      "velocity": 64,
      "startTime": 37.5514105,
      "duration": 0.17357067291666795,
      "endTime": 37.72498117291667
    },
    {
      "instrumentId": 1,
      "instrumentName": "Piano\u0000",
      "isPercussion": false,
      "pitch": 40,
      "velocity": 64,
      "startTime": 37.5514105,
      "duration": 0.17357067291666795,
      "endTime": 37.72498117291667
    },
    {
      "instrumentId": 0,
      "instrumentName": "Piano\u0000",
      "isPercussion": false,
      "pitch": 72,
      "velocity": 64,
      "startTime": 37.901469000000006,
      "duration": 0.172164241666664,
      "endTime": 38.07363324166667
    },
    {
      "instrumentId": 0,
      "instrumentName": "Piano\u0000",
      "isPercussion": false,
      "pitch": 71,
      "velocity": 64,
      "startTime": 38.24869100000001,
      "duration": 0.17078061875000117,
      "endTime": 38.41947161875001
    },
    {
      "instrumentId": 1,
      "instrumentName": "Piano\u0000",
      "isPercussion": false,
      "pitch": 50,
      "velocity": 64,
      "startTime": 38.24869100000001,
      "duration": 0.17078061875000117,
      "endTime": 38.41947161875001
    },
    {
      "instrumentId": 1,
      "instrumentName": "Piano\u0000",
      "isPercussion": false,
      "pitch": 52,
      "velocity": 64,
      "startTime": 38.24869100000001,
      "duration": 0.17078061875000117,
      "endTime": 38.41947161875001
    },
    {
      "instrumentId": 0,
      "instrumentName": "Piano\u0000",
      "isPercussion": false,
      "pitch": 74,
      "velocity": 64,
      "startTime": 38.59312250000001,
      "duration": 0.1692264291666632,
      "endTime": 38.76234892916667
    },
    {
      "instrumentId": 0,
      "instrumentName": "Piano\u0000",
      "isPercussion": false,
      "pitch": 72,
      "velocity": 64,
      "startTime": 38.934419500000004,
      "duration": 0.1678894145833354,
      "endTime": 39.10230891458334
    },
    {
      "instrumentId": 1,
      "instrumentName": "Piano\u0000",
      "isPercussion": false,
      "pitch": 45,
      "velocity": 64,
      "startTime": 38.934419500000004,
      "duration": 0.1678894145833354,
      "endTime": 39.10230891458334
    },
    {
      "instrumentId": 0,
      "instrumentName": "Piano\u0000",
      "isPercussion": false,
      "pitch": 72,
      "velocity": 64,
      "startTime": 39.27302,
      "duration": 0.1665732250000005,
      "endTime": 39.439593225
    },
    {
      "instrumentId": 0,
      "instrumentName": "Piano\u0000",
      "isPercussion": false,
      "pitch": 72,
      "velocity": 64,
      "startTime": 39.608966,
      "duration": 0.1652778604166656,
      "endTime": 39.77424386041667
    },
    {
      "instrumentId": 1,
      "instrumentName": "Piano\u0000",
      "isPercussion": false,
      "pitch": 48,
      "velocity": 64,
      "startTime": 39.608966,
      "duration": 0.1652778604166656,
      "endTime": 39.77424386041667
    },
    {
      "instrumentId": 1,
      "instrumentName": "Piano\u0000",
      "isPercussion": false,
      "pitch": 52,
      "velocity": 64,
      "startTime": 39.608966,
      "duration": 0.1652778604166656,
      "endTime": 39.77424386041667
    },
    {
      "instrumentId": 0,
      "instrumentName": "Piano\u0000",
      "isPercussion": false,
      "pitch": 72,
      "velocity": 64,
      "startTime": 39.942299500000004,
      "duration": 0.16400208124999693,
      "endTime": 40.10630158125
    },
    {
      "instrumentId": 0,
      "instrumentName": "Piano\u0000",
      "isPercussion": false,
      "pitch": 72,
      "velocity": 64,
      "startTime": 40.27306,
      "duration": 0.16274613541666838,
      "endTime": 40.43580613541667
    },
    {
      "instrumentId": 1,
      "instrumentName": "Piano\u0000",
      "isPercussion": false,
      "pitch": 40,
      "velocity": 64,
      "startTime": 40.27306,
      "duration": 0.16274613541666838,
      "endTime": 40.43580613541667
    },
    {
      "instrumentId": 0,
      "instrumentName": "Piano\u0000",
      "isPercussion": false,
      "pitch": 71,
      "velocity": 64,
      "startTime": 40.6012875,
      "duration": 0.16150927916666546,
      "endTime": 40.76279677916666
    },
    {
      "instrumentId": 0,
      "instrumentName": "Piano\u0000",
      "isPercussion": false,
      "pitch": 69,
      "velocity": 64,
      "startTime": 40.9270205,
      "duration": 0.16011846666666685,
      "endTime": 41.087138966666664
    },
    {
      "instrumentId": 1,
      "instrumentName": "Piano\u0000",
      "isPercussion": false,
      "pitch": 48,
      "velocity": 64,
      "startTime": 40.9270205,
      "duration": 0.16011846666666685,
      "endTime": 41.087138966666664
    },
    {
      "instrumentId": 1,
      "instrumentName": "Piano\u0000",
      "isPercussion": false,
      "pitch": 52,
      "velocity": 64,
      "startTime": 40.9270205,
      "duration": 0.16011846666666685,
      "endTime": 41.087138966666664
    },
    {
      "instrumentId": 0,
      "instrumentName": "Piano\u0000",
      "isPercussion": false,
      "pitch": 72,
      "velocity": 64,
      "startTime": 41.249948499999995,
      "duration": 0.15892102916666317,
      "endTime": 41.40886952916666
    },
    {
      "instrumentId": 0,
      "instrumentName": "Piano\u0000",
      "isPercussion": false,
      "pitch": 71,
      "velocity": 64,
      "startTime": 41.57046149999999,
      "duration": 0.15774119374999884,
      "endTime": 41.72820269374999
    },
    {
      "instrumentId": 1,
      "instrumentName": "Piano\u0000",
      "isPercussion": false,
      "pitch": 47,
      "velocity": 64,
      "startTime": 41.57046149999999,
      "duration": 0.15774119374999884,
      "endTime": 41.72820269374999
    },
    {
      "instrumentId": 0,
      "instrumentName": "Piano\u0000",
      "isPercussion": false,
      "pitch": 71,
      "velocity": 64,
      "startTime": 41.888594999999995,
      "duration": 0.15657896041666675,
      "endTime": 42.04517396041666
    },
    {
      "instrumentId": 0,
      "instrumentName": "Piano\u0000",
      "isPercussion": false,
      "pitch": 71,
      "velocity": 64,
      "startTime": 42.204384499999996,
      "duration": 0.15543358541666663,
      "endTime": 42.35981808541666
    },
    {
      "instrumentId": 1,
      "instrumentName": "Piano\u0000",
      "isPercussion": false,
      "pitch": 51,
      "velocity": 64,
      "startTime": 42.204384499999996,
      "duration": 0.15543358541666663,
      "endTime": 42.35981808541666
    },
    {
      "instrumentId": 1,
      "instrumentName": "Piano\u0000",
      "isPercussion": false,
      "pitch": 59,
      "velocity": 64,
      "startTime": 42.204384499999996,
      "duration": 0.15543358541666663,
      "endTime": 42.35981808541666
    },
    {
      "instrumentId": 0,
      "instrumentName": "Piano\u0000",
      "isPercussion": false,
      "pitch": 71,
      "velocity": 64,
      "startTime": 42.517863999999996,
      "duration": 0.1543050687499985,
      "endTime": 42.672169068749994
    },
    {
      "instrumentId": 0,
      "instrumentName": "Piano\u0000",
      "isPercussion": false,
      "pitch": 66,
      "velocity": 64,
      "startTime": 42.829067499999994,
      "duration": 0.1531926666666692,
      "endTime": 42.98226016666666
    },
    {
      "instrumentId": 1,
      "instrumentName": "Piano\u0000",
      "isPercussion": false,
      "pitch": 42,
      "velocity": 64,
      "startTime": 42.829067499999994,
      "duration": 0.1531926666666692,
      "endTime": 42.98226016666666
    },
    {
      "instrumentId": 0,
      "instrumentName": "Piano\u0000",
      "isPercussion": false,
      "pitch": 71,
      "velocity": 64,
      "startTime": 43.44698749999999,
      "duration": 0.15086200208333622,
      "endTime": 43.59784950208333
    },
    {
      "instrumentId": 1,
      "instrumentName": "Piano\u0000",
      "isPercussion": false,
      "pitch": 51,
      "velocity": 64,
      "startTime": 43.44698749999999,
      "duration": 0.15086200208333622,
      "endTime": 43.59784950208333
    },
    {
      "instrumentId": 1,
      "instrumentName": "Piano\u0000",
      "isPercussion": false,
      "pitch": 57,
      "velocity": 64,
      "startTime": 43.44698749999999,
      "duration": 0.15086200208333622,
      "endTime": 43.59784950208333
    },
    {
      "instrumentId": 0,
      "instrumentName": "Piano\u0000",
      "isPercussion": false,
      "pitch": 68,
      "velocity": 76,
      "startTime": 44.05550649999999,
      "duration": 0.19874999999999687,
      "endTime": 44.25425649999999
    },
    {
      "instrumentId": 1,
      "instrumentName": "Piano\u0000",
      "isPercussion": false,
      "pitch": 52,
      "velocity": 76,
      "startTime": 44.05550649999999,
      "duration": 0.19874999999999687,
      "endTime": 44.25425649999999
    },
    {
      "instrumentId": 0,
      "instrumentName": "Piano\u0000",
      "isPercussion": false,
      "pitch": 52,
      "velocity": 64,
      "startTime": 45.24722249999999,
      "duration": 1.0977469999999983,
      "endTime": 46.34496949999999
    },
    {
      "instrumentId": 1,
      "instrumentName": "Piano\u0000",
      "isPercussion": false,
      "pitch": 28,
      "velocity": 64,
      "startTime": 45.24722249999999,
      "duration": 0.9623887354166669,
      "endTime": 46.20961123541666
    },
    {
      "instrumentId": 1,
      "instrumentName": "Piano\u0000",
      "isPercussion": false,
      "pitch": 40,
      "velocity": 64,
      "startTime": 45.24722249999999,
      "duration": 0.9956654791666679,
      "endTime": 46.24288797916666
    },
    {
      "instrumentId": 1,
      "instrumentName": "Piano\u0000",
      "isPercussion": false,
      "pitch": 42,
      "velocity": 64,
      "startTime": 46.29635754166666,
      "duration": 0.03202429166666576,
      "endTime": 46.328381833333324
    },
    {
      "instrumentId": 1,
      "instrumentName": "Piano\u0000",
      "isPercussion": false,
      "pitch": 43,
      "velocity": 64,
      "startTime": 46.331936333333324,
      "duration": 0.031990499999999145,
      "endTime": 46.36392683333332
    },
    {
      "instrumentId": 1,
      "instrumentName": "Piano\u0000",
      "isPercussion": false,
      "pitch": 44,
      "velocity": 64,
      "startTime": 46.36748133333332,
      "duration": 0.031990499999999145,
      "endTime": 46.39947183333332
    },
    {
      "instrumentId": 0,
      "instrumentName": "Piano\u0000",
      "isPercussion": false,
      "pitch": 64,
      "velocity": 64,
      "startTime": 46.40302633333332,
      "duration": 0.09224214999999703,
      "endTime": 46.49526848333332
    },
    {
      "instrumentId": 1,
      "instrumentName": "Piano\u0000",
      "isPercussion": false,
      "pitch": 33,
      "velocity": 64,
      "startTime": 46.40302633333332,
      "duration": 0.1856668916666635,
      "endTime": 46.588693224999986
    },
    {
      "instrumentId": 1,
      "instrumentName": "Piano\u0000",
      "isPercussion": false,
      "pitch": 45,
      "velocity": 64,
      "startTime": 46.40302633333332,
      "duration": 0.1856668916666635,
      "endTime": 46.588693224999986
    },
    {
      "instrumentId": 0,
      "instrumentName": "Piano\u0000",
      "isPercussion": false,
      "pitch": 64,
      "velocity": 64,
      "startTime": 46.68684833333332,
      "duration": 0.09163537500000274,
      "endTime": 46.778483708333326
    },
    {
      "instrumentId": 0,
      "instrumentName": "Piano\u0000",
      "isPercussion": false,
      "pitch": 64,
      "velocity": 64,
      "startTime": 46.96880333333333,
      "duration": 0.09103640000000013,
      "endTime": 47.05983973333333
    },
    {
      "instrumentId": 1,
      "instrumentName": "Piano\u0000",
      "isPercussion": false,
      "pitch": 48,
      "velocity": 64,
      "startTime": 46.96880333333333,
      "duration": 0.18323993333333277,
      "endTime": 47.15204326666666
    },
    {
      "instrumentId": 1,
      "instrumentName": "Piano\u0000",
      "isPercussion": false,
      "pitch": 52,
      "velocity": 64,
      "startTime": 46.96880333333333,
      "duration": 0.18323993333333277,
      "endTime": 47.15204326666666
    },
    {
      "instrumentId": 0,
      "instrumentName": "Piano\u0000",
      "isPercussion": false,
      "pitch": 64,
      "velocity": 64,
      "startTime": 47.24891533333333,
      "duration": 0.09036137500000052,
      "endTime": 47.33927670833333
    },
    {
      "instrumentId": 0,
      "instrumentName": "Piano\u0000",
      "isPercussion": false,
      "pitch": 64,
      "velocity": 64,
      "startTime": 47.52695033333333,
      "duration": 0.08977897500000154,
      "endTime": 47.61672930833333
    },
    {
      "instrumentId": 1,
      "instrumentName": "Piano\u0000",
      "isPercussion": false,
      "pitch": 40,
      "velocity": 64,
      "startTime": 47.52695033333333,
      "duration": 0.1807089624999989,
      "endTime": 47.70765929583333
    },
    {
      "instrumentId": 0,
      "instrumentName": "Piano\u0000",
      "isPercussion": false,
      "pitch": 64,
      "velocity": 64,
      "startTime": 47.80319333333333,
      "duration": 0.08920404999999931,
      "endTime": 47.89239738333333
    },
    {
      "instrumentId": 0,
      "instrumentName": "Piano\u0000",
      "isPercussion": false,
      "pitch": 64,
      "velocity": 64,
      "startTime": 48.07766733333333,
      "duration": 0.08863643749999994,
      "endTime": 48.16630377083333
    },
    {
      "instrumentId": 1,
      "instrumentName": "Piano\u0000",
      "isPercussion": false,
      "pitch": 48,
      "velocity": 64,
      "startTime": 48.07766733333333,
      "duration": 0.17840923958333121,
      "endTime": 48.25607657291666
    },
    {
      "instrumentId": 1,
      "instrumentName": "Piano\u0000",
      "isPercussion": false,
      "pitch": 52,
      "velocity": 64,
      "startTime": 48.07766733333333,
      "duration": 0.17840923958333121,
      "endTime": 48.25607657291666
    },
    {
      "instrumentId": 0,
      "instrumentName": "Piano\u0000",
      "isPercussion": false,
      "pitch": 64,
      "velocity": 64,
      "startTime": 48.35039483333333,
      "duration": 0.0880758125000014,
      "endTime": 48.438470645833334
    },
    {
      "instrumentId": 0,
      "instrumentName": "Piano\u0000",
      "isPercussion": false,
      "pitch": 64,
      "velocity": 64,
      "startTime": 48.621397333333334,
      "duration": 0.08752249999999862,
      "endTime": 48.70891983333333
    },
    {
      "instrumentId": 1,
      "instrumentName": "Piano\u0000",
      "isPercussion": false,
      "pitch": 33,
      "velocity": 64,
      "startTime": 48.621397333333334,
      "duration": 0.17616708333333264,
      "endTime": 48.79756441666667
    },
    {
      "instrumentId": 1,
      "instrumentName": "Piano\u0000",
      "isPercussion": false,
      "pitch": 45,
      "velocity": 64,
      "startTime": 48.621397333333334,
      "duration": 0.17616708333333264,
      "endTime": 48.79756441666667
    },
    {
      "instrumentId": 0,
      "instrumentName": "Piano\u0000",
      "isPercussion": false,
      "pitch": 64,
      "velocity": 64,
      "startTime": 48.890697333333335,
      "duration": 0.08697585000000174,
      "endTime": 48.97767318333334
    },
    {
      "instrumentId": 0,
      "instrumentName": "Piano\u0000",
      "isPercussion": false,
      "pitch": 64,
      "velocity": 64,
      "startTime": 49.158315333333334,
      "duration": 0.08635964999999857,
      "endTime": 49.24467498333333
    },
    {
      "instrumentId": 1,
      "instrumentName": "Piano\u0000",
      "isPercussion": false,
      "pitch": 48,
      "velocity": 64,
      "startTime": 49.158315333333334,
      "duration": 0.17382647499999848,
      "endTime": 49.33214180833333
    },
    {
      "instrumentId": 1,
      "instrumentName": "Piano\u0000",
      "isPercussion": false,
      "pitch": 52,
      "velocity": 64,
      "startTime": 49.158315333333334,
      "duration": 0.17382647499999848,
      "endTime": 49.33214180833333
    },
    {
      "instrumentId": 0,
      "instrumentName": "Piano\u0000",
      "isPercussion": false,
      "pitch": 64,
      "velocity": 64,
      "startTime": 49.42403733333333,
      "duration": 0.08582746249999929,
      "endTime": 49.50986479583333
    },
    {
      "instrumentId": 0,
      "instrumentName": "Piano\u0000",
      "isPercussion": false,
      "pitch": 64,
      "velocity": 64,
      "startTime": 49.688121833333334,
      "duration": 0.0853017749999978,
      "endTime": 49.77342360833333
    },
    {
      "instrumentId": 1,
      "instrumentName": "Piano\u0000",
      "isPercussion": false,
      "pitch": 40,
      "velocity": 64,
      "startTime": 49.688121833333334,
      "duration": 0.17169716250000278,
      "endTime": 49.859818995833336
    },
    {
      "instrumentId": 0,
      "instrumentName": "Piano\u0000",
      "isPercussion": false,
      "pitch": 64,
      "velocity": 64,
      "startTime": 49.950588833333335,
      "duration": 0.08478258750000123,
      "endTime": 50.035371420833336
    },
    {
      "instrumentId": 0,
      "instrumentName": "Piano\u0000",
      "isPercussion": false,
      "pitch": 64,
      "velocity": 64,
      "startTime": 50.21145833333333,
      "duration": 0.08426973750000144,
      "endTime": 50.295728070833334
    },
    {
      "instrumentId": 1,
      "instrumentName": "Piano\u0000",
      "isPercussion": false,
      "pitch": 48,
      "velocity": 64,
      "startTime": 50.21145833333333,
      "duration": 0.16961985625000153,
      "endTime": 50.381078189583334
    },
    {
      "instrumentId": 1,
      "instrumentName": "Piano\u0000",
      "isPercussion": false,
      "pitch": 52,
      "velocity": 64,
      "startTime": 50.21145833333333,
      "duration": 0.16961985625000153,
      "endTime": 50.381078189583334
    },
    {
      "instrumentId": 0,
      "instrumentName": "Piano\u0000",
      "isPercussion": false,
      "pitch": 64,
      "velocity": 64,
      "startTime": 50.470749833333336,
      "duration": 0.08376290000000353,
      "endTime": 50.55451273333334
    },
    {
      "instrumentId": 0,
      "instrumentName": "Piano\u0000",
      "isPercussion": false,
      "pitch": 64,
      "velocity": 64,
      "startTime": 50.72848183333333,
      "duration": 0.25512403541666373,
      "endTime": 50.98360586875
    },
    {
      "instrumentId": 1,
      "instrumentName": "Piano\u0000",
      "isPercussion": false,
      "pitch": 45,
      "velocity": 64,
      "startTime": 50.72848183333333,
      "duration": 0.16759193958333185,
      "endTime": 50.896073772916665
    },
    {
      "instrumentId": 0,
      "instrumentName": "Piano\u0000",
      "isPercussion": false,
      "pitch": 65,
      "velocity": 64,
      "startTime": 50.98467333333333,
      "duration": 0.253392779166667,
      "endTime": 51.2380661125
    },
    {
      "instrumentId": 0,
      "instrumentName": "Piano\u0000",
      "isPercussion": false,
      "pitch": 64,
      "velocity": 64,
      "startTime": 51.23912633333333,
      "duration": 0.2518970375000009,
      "endTime": 51.49102337083333
    },
    {
      "instrumentId": 1,
      "instrumentName": "Piano\u0000",
      "isPercussion": false,
      "pitch": 48,
      "velocity": 64,
      "startTime": 51.23912633333333,
      "duration": 0.16547211249999805,
      "endTime": 51.40459844583333
    },
    {
      "instrumentId": 1,
      "instrumentName": "Piano\u0000",
      "isPercussion": false,
      "pitch": 52,
      "velocity": 64,
      "startTime": 51.23912633333333,
      "duration": 0.16547211249999805,
      "endTime": 51.40459844583333
    },
    {
      "instrumentId": 0,
      "instrumentName": "Piano\u0000",
      "isPercussion": false,
      "pitch": 63,
      "velocity": 64,
      "startTime": 51.492077333333334,
      "duration": 0.25041922083333645,
      "endTime": 51.74249655416667
    },
    {
      "instrumentId": 0,
      "instrumentName": "Piano\u0000",
      "isPercussion": false,
      "pitch": 64,
      "velocity": 64,
      "startTime": 51.74354433333333,
      "duration": 0.24895833333333428,
      "endTime": 51.99250266666667
    },
    {
      "instrumentId": 1,
      "instrumentName": "Piano\u0000",
      "isPercussion": false,
      "pitch": 40,
      "velocity": 64,
      "startTime": 51.74354433333333,
      "duration": 0.16354166666666714,
      "endTime": 51.907086
    },
    {
      "instrumentId": 0,
      "instrumentName": "Piano\u0000",
      "isPercussion": false,
      "pitch": 69,
      "velocity": 64,
      "startTime": 52.24354433333333,
      "duration": 0.24608734583333103,
      "endTime": 52.48963167916666
    },
    {
      "instrumentId": 1,
      "instrumentName": "Piano\u0000",
      "isPercussion": false,
      "pitch": 48,
      "velocity": 64,
      "startTime": 52.24354433333333,
      "duration": 0.16165570416666952,
      "endTime": 52.4052000375
    },
    {
      "instrumentId": 1,
      "instrumentName": "Piano\u0000",
      "isPercussion": false,
      "pitch": 52,
      "velocity": 64,
      "startTime": 52.24354433333333,
      "duration": 0.16165570416666952,
      "endTime": 52.4052000375
    },
    {
      "instrumentId": 0,
      "instrumentName": "Piano\u0000",
      "isPercussion": false,
      "pitch": 72,
      "velocity": 64,
      "startTime": 52.490661333333335,
      "duration": 0.2446762499999977,
      "endTime": 52.73533758333333
    },
    {
      "instrumentId": 0,
      "instrumentName": "Piano\u0000",
      "isPercussion": false,
      "pitch": 76,
      "velocity": 64,
      "startTime": 52.736361333333335,
      "duration": 0.15968273749999895,
      "endTime": 52.896044070833334
    },
    {
      "instrumentId": 1,
      "instrumentName": "Piano\u0000",
      "isPercussion": false,
      "pitch": 45,
      "velocity": 64,
      "startTime": 52.736361333333335,
      "duration": 0.15968273749999895,
      "endTime": 52.896044070833334
    },
    {
      "instrumentId": 0,
      "instrumentName": "Piano\u0000",
      "isPercussion": false,
      "pitch": 81,
      "velocity": 64,
      "startTime": 53.224563333333336,
      "duration": 0.4575622187499988,
      "endTime": 53.682125552083335
    },
    {
      "instrumentId": 1,
      "instrumentName": "Piano\u0000",
      "isPercussion": false,
      "pitch": 48,
      "velocity": 64,
      "startTime": 53.224563333333336,
      "duration": 0.15788410625000182,
      "endTime": 53.38244743958334
    },
    {
      "instrumentId": 1,
      "instrumentName": "Piano\u0000",
      "isPercussion": false,
      "pitch": 52,
      "velocity": 64,
      "startTime": 53.224563333333336,
      "duration": 0.15788410625000182,
      "endTime": 53.38244743958334
    },
    {
      "instrumentId": 0,
      "instrumentName": "Piano\u0000",
      "isPercussion": false,
      "pitch": 84,
      "velocity": 64,
      "startTime": 53.70726633333334,
      "duration": 0.9012056229166703,
      "endTime": 54.60847195625001
    },
    {
      "instrumentId": 1,
      "instrumentName": "Piano\u0000",
      "isPercussion": false,
      "pitch": 40,
      "velocity": 64,
      "startTime": 53.70726633333334,
      "duration": 0.15612570625000188,
      "endTime": 53.86339203958334
    },
    {
      "instrumentId": 1,
      "instrumentName": "Piano\u0000",
      "isPercussion": false,
      "pitch": 48,
      "velocity": 64,
      "startTime": 54.18459333333334,
      "duration": 0.15440590208333305,
      "endTime": 54.33899923541667
    },
    {
      "instrumentId": 1,
      "instrumentName": "Piano\u0000",
      "isPercussion": false,
      "pitch": 52,
      "velocity": 64,
      "startTime": 54.18459333333334,
      "duration": 0.15440590208333305,
      "endTime": 54.33899923541667
    },
    {
      "instrumentId": 0,
      "instrumentName": "Piano\u0000",
      "isPercussion": false,
      "pitch": 86,
      "velocity": 64,
      "startTime": 54.65666233333334,
      "duration": 0.23230949375000165,
      "endTime": 54.88897182708334
    },
    {
      "instrumentId": 1,
      "instrumentName": "Piano\u0000",
      "isPercussion": false,
      "pitch": 50,
      "velocity": 64,
      "startTime": 54.65666233333334,
      "duration": 0.11566874374999969,
      "endTime": 54.77233107708334
    },
    {
      "instrumentId": 0,
      "instrumentName": "Piano\u0000",
      "isPercussion": false,
      "pitch": 84,
      "velocity": 65,
      "startTime": 54.889943833333334,
      "duration": 0.23105175624999674,
      "endTime": 55.12099558958333
    },
    {
      "instrumentId": 0,
      "instrumentName": "Piano\u0000",
      "isPercussion": false,
      "pitch": 83,
      "velocity": 66,
      "startTime": 55.121962333333336,
      "duration": 0.2298074624999984,
      "endTime": 55.351769795833334
    },
    {
      "instrumentId": 1,
      "instrumentName": "Piano\u0000",
      "isPercussion": false,
      "pitch": 53,
      "velocity": 66,
      "startTime": 55.121962333333336,
      "duration": 0.11442296250000084,
      "endTime": 55.23638529583334
    },
    {
      "instrumentId": 1,
      "instrumentName": "Piano\u0000",
      "isPercussion": false,
      "pitch": 59,
      "velocity": 66,
      "startTime": 55.121962333333336,
      "duration": 0.11442296250000084,
      "endTime": 55.23638529583334
    },
    {
      "instrumentId": 0,
      "instrumentName": "Piano\u0000",
      "isPercussion": false,
      "pitch": 86,
      "velocity": 67,
      "startTime": 55.35273133333334,
      "duration": 0.22857711041666562,
      "endTime": 55.581308443750004
    },
    {
      "instrumentId": 0,
      "instrumentName": "Piano\u0000",
      "isPercussion": false,
      "pitch": 84,
      "velocity": 68,
      "startTime": 55.58226483333334,
      "duration": 0.22735920625000006,
      "endTime": 55.80962403958334
    },
    {
      "instrumentId": 1,
      "instrumentName": "Piano\u0000",
      "isPercussion": false,
      "pitch": 48,
      "velocity": 68,
      "startTime": 55.58226483333334,
      "duration": 0.1132039562499969,
      "endTime": 55.69546878958334
    },
    {
      "instrumentId": 0,
      "instrumentName": "Piano\u0000",
      "isPercussion": false,
      "pitch": 83,
      "velocity": 69,
      "startTime": 55.81057533333334,
      "duration": 0.22615424791666783,
      "endTime": 56.03672958125001
    },
    {
      "instrumentId": 0,
      "instrumentName": "Piano\u0000",
      "isPercussion": false,
      "pitch": 81,
      "velocity": 70,
      "startTime": 56.03767583333334,
      "duration": 0.22479294375000336,
      "endTime": 56.26246877708334
    },
    {
      "instrumentId": 1,
      "instrumentName": "Piano\u0000",
      "isPercussion": false,
      "pitch": 52,
      "velocity": 70,
      "startTime": 56.03767583333334,
      "duration": 0.11192619375000135,
      "endTime": 56.14960202708334
    },
    {
      "instrumentId": 1,
      "instrumentName": "Piano\u0000",
      "isPercussion": false,
      "pitch": 60,
      "velocity": 70,
      "startTime": 56.03767583333334,
      "duration": 0.11192619375000135,
      "endTime": 56.14960202708334
    },
    {
      "instrumentId": 0,
      "instrumentName": "Piano\u0000",
      "isPercussion": false,
      "pitch": 84,
      "velocity": 71,
      "startTime": 56.263409333333335,
      "duration": 0.22361537083333616,
      "endTime": 56.48702470416667
    },
    {
      "instrumentId": 0,
      "instrumentName": "Piano\u0000",
      "isPercussion": false,
      "pitch": 83,
      "velocity": 72,
      "startTime": 56.48796033333333,
      "duration": 0.22244974791667005,
      "endTime": 56.710410081250004
    },
    {
      "instrumentId": 1,
      "instrumentName": "Piano\u0000",
      "isPercussion": false,
      "pitch": 47,
      "velocity": 72,
      "startTime": 56.48796033333333,
      "duration": 0.11075949791666773,
      "endTime": 56.59871983125
    },
    {
      "instrumentId": 0,
      "instrumentName": "Piano\u0000",
      "isPercussion": false,
      "pitch": 81,
      "velocity": 73,
      "startTime": 56.71134083333333,
      "duration": 0.22129607499999793,
      "endTime": 56.93263690833333
    },
    {
      "instrumentId": 0,
      "instrumentName": "Piano\u0000",
      "isPercussion": false,
      "pitch": 80,
      "velocity": 74,
      "startTime": 56.93356283333333,
      "duration": 0.22015485000000012,
      "endTime": 57.15371768333333
    },
    {
      "instrumentId": 1,
      "instrumentName": "Piano\u0000",
      "isPercussion": false,
      "pitch": 50,
      "velocity": 74,
      "startTime": 56.93356283333333,
      "duration": 0.10961685000000188,
      "endTime": 57.043179683333335
    },
    {
      "instrumentId": 1,
      "instrumentName": "Piano\u0000",
      "isPercussion": false,
      "pitch": 56,
      "velocity": 74,
      "startTime": 56.93356283333333,
      "duration": 0.10961685000000188,
      "endTime": 57.043179683333335
    },
    {
      "instrumentId": 0,
      "instrumentName": "Piano\u0000",
      "isPercussion": false,
      "pitch": 83,
      "velocity": 75,
      "startTime": 57.15463883333333,
      "duration": 0.2190250770833302,
      "endTime": 57.37366391041666
    },
    {
      "instrumentId": 0,
      "instrumentName": "Piano\u0000",
      "isPercussion": false,
      "pitch": 81,
      "velocity": 76,
      "startTime": 57.37458033333333,
      "duration": 0.21790675625000233,
      "endTime": 57.59248708958333
    },
    {
      "instrumentId": 1,
      "instrumentName": "Piano\u0000",
      "isPercussion": false,
      "pitch": 45,
      "velocity": 76,
      "startTime": 57.37458033333333,
      "duration": 0.10849750625000354,
      "endTime": 57.48307783958333
    },
    {
      "instrumentId": 0,
      "instrumentName": "Piano\u0000",
      "isPercussion": false,
      "pitch": 76,
      "velocity": 77,
      "startTime": 57.593398833333325,
      "duration": 0.21664254583333076,
      "endTime": 57.810041379166655
    },
    {
      "instrumentId": 0,
      "instrumentName": "Piano\u0000",
      "isPercussion": false,
      "pitch": 72,
      "velocity": 78,
      "startTime": 57.81094783333332,
      "duration": 0.21554812499999798,
      "endTime": 58.02649595833332
    },
    {
      "instrumentId": 1,
      "instrumentName": "Piano\u0000",
      "isPercussion": false,
      "pitch": 48,
      "velocity": 78,
      "startTime": 57.81094783333332,
      "duration": 0.10732312500000063,
      "endTime": 57.91827095833332
    },
    {
      "instrumentId": 1,
      "instrumentName": "Piano\u0000",
      "isPercussion": false,
      "pitch": 57,
      "velocity": 78,
      "startTime": 57.81094783333332,
      "duration": 0.10732312500000063,
      "endTime": 57.91827095833332
    },
    {
      "instrumentId": 0,
      "instrumentName": "Piano\u0000",
      "isPercussion": false,
      "pitch": 69,
      "velocity": 79,
      "startTime": 58.027397833333325,
      "duration": 0.21446515625000018,
      "endTime": 58.241862989583325
    },
    {
      "instrumentId": 0,
      "instrumentName": "Piano\u0000",
      "isPercussion": false,
      "pitch": 77,
      "velocity": 80,
      "startTime": 58.24276033333332,
      "duration": 0.213392643749998,
      "endTime": 58.45615297708332
    },
    {
      "instrumentId": 1,
      "instrumentName": "Piano\u0000",
      "isPercussion": false,
      "pitch": 40,
      "velocity": 80,
      "startTime": 58.24276033333332,
      "duration": 0.20267836875,
      "endTime": 58.44543870208332
    },
    {
      "instrumentId": 1,
      "instrumentName": "Piano\u0000",
      "isPercussion": false,
      "pitch": 52,
      "velocity": 80,
      "startTime": 58.24276033333332,
      "duration": 0.20267836875,
      "endTime": 58.44543870208332
    },
    {
      "instrumentId": 0,
      "instrumentName": "Piano\u0000",
      "isPercussion": false,
      "pitch": 76,
      "velocity": 81,
      "startTime": 58.457045833333325,
      "duration": 0.21233108541666468,
      "endTime": 58.66937691874999
    },
    {
      "instrumentId": 0,
      "instrumentName": "Piano\u0000",
      "isPercussion": false,
      "pitch": 74,
      "velocity": 82,
      "startTime": 58.670265333333326,
      "duration": 0.2112799833333341,
      "endTime": 58.88154531666666
    },
    {
      "instrumentId": 1,
      "instrumentName": "Piano\u0000",
      "isPercussion": false,
      "pitch": 42,
      "velocity": 82,
      "startTime": 58.670265333333326,
      "duration": 0.20067178333333402,
      "endTime": 58.87093711666666
    },
    {
      "instrumentId": 1,
      "instrumentName": "Piano\u0000",
      "isPercussion": false,
      "pitch": 54,
      "velocity": 82,
      "startTime": 58.670265333333326,
      "duration": 0.20067178333333402,
      "endTime": 58.87093711666666
    },
    {
      "instrumentId": 0,
      "instrumentName": "Piano\u0000",
      "isPercussion": false,
      "pitch": 72,
      "velocity": 83,
      "startTime": 58.88242933333333,
      "duration": 0.21023933749999912,
      "endTime": 59.092668670833326
    },
    {
      "instrumentId": 0,
      "instrumentName": "Piano\u0000",
      "isPercussion": false,
      "pitch": 71,
      "velocity": 84,
      "startTime": 59.093548333333324,
      "duration": 0.20906226249999804,
      "endTime": 59.30261059583332
    },
    {
      "instrumentId": 1,
      "instrumentName": "Piano\u0000",
      "isPercussion": false,
      "pitch": 44,
      "velocity": 84,
      "startTime": 59.093548333333324,
      "duration": 0.19856541250000248,
      "endTime": 59.292113745833326
    },
    {
      "instrumentId": 1,
      "instrumentName": "Piano\u0000",
      "isPercussion": false,
      "pitch": 56,
      "velocity": 84,
      "startTime": 59.093548333333324,
      "duration": 0.19856541250000248,
      "endTime": 59.292113745833326
    },
    {
      "instrumentId": 0,
      "instrumentName": "Piano\u0000",
      "isPercussion": false,
      "pitch": 69,
      "velocity": 85,
      "startTime": 59.30348533333332,
      "duration": 0.20804302708333466,
      "endTime": 59.511528360416655
    },
    {
      "instrumentId": 0,
      "instrumentName": "Piano\u0000",
      "isPercussion": false,
      "pitch": 68,
      "velocity": 86,
      "startTime": 59.51239883333332,
      "duration": 0.2070337500000008,
      "endTime": 59.71943258333332
    },
    {
      "instrumentId": 1,
      "instrumentName": "Piano\u0000",
      "isPercussion": false,
      "pitch": 40,
      "velocity": 86,
      "startTime": 59.51239883333332,
      "duration": 0.1966387499999982,
      "endTime": 59.70903758333332
    },
    {
      "instrumentId": 1,
      "instrumentName": "Piano\u0000",
      "isPercussion": false,
      "pitch": 52,
      "velocity": 86,
      "startTime": 59.51239883333332,
      "duration": 0.1966387499999982,
      "endTime": 59.70903758333332
    },
    {
      "instrumentId": 0,
      "instrumentName": "Piano\u0000",
      "isPercussion": false,
      "pitch": 71,
      "velocity": 87,
      "startTime": 59.720298833333324,
      "duration": 0.20603443125000354,
      "endTime": 59.92633326458333
    },
    {
      "instrumentId": 0,
      "instrumentName": "Piano\u0000",
      "isPercussion": false,
      "pitch": 69,
      "velocity": 88,
      "startTime": 59.92719533333332,
      "duration": 0.7815715729166683,
      "endTime": 60.70876690624999
    },
    {
      "instrumentId": 1,
      "instrumentName": "Piano\u0000",
      "isPercussion": false,
      "pitch": 45,
      "velocity": 88,
      "startTime": 59.92719533333332,
      "duration": 0.7815715729166683,
      "endTime": 60.70876690624999
    },
    {
      "instrumentId": 1,
      "instrumentName": "Piano\u0000",
      "isPercussion": false,
      "pitch": 57,
      "velocity": 88,
      "startTime": 59.92719533333332,
      "duration": 0.7815715729166683,
      "endTime": 60.70876690624999
    },
    {
      "instrumentId": 1,
      "instrumentName": "Piano\u0000",
      "isPercussion": false,
      "pitch": 28,
      "velocity": 92,
      "startTime": 60.750805333333325,
      "duration": 0.6704247770833334,
      "endTime": 61.42123011041666
    },
    {
      "instrumentId": 1,
      "instrumentName": "Piano\u0000",
      "isPercussion": false,
      "pitch": 40,
      "velocity": 92,
      "startTime": 60.750805333333325,
      "duration": 0.6939779687499978,
      "endTime": 61.44478330208332
    },
    {
      "instrumentId": 1,
      "instrumentName": "Piano\u0000",
      "isPercussion": false,
      "pitch": 42,
      "velocity": 95,
      "startTime": 61.48221908333333,
      "duration": 0.022321406250000564,
      "endTime": 61.50454048958333
    },
    {
      "instrumentId": 1,
      "instrumentName": "Piano\u0000",
      "isPercussion": false,
      "pitch": 43,
      "velocity": 95,
      "startTime": 61.50702064583333,
      "duration": 0.022321406250000564,
      "endTime": 61.52934205208333
    },
    {
      "instrumentId": 1,
      "instrumentName": "Piano\u0000",
      "isPercussion": false,
      "pitch": 44,
      "velocity": 95,
      "startTime": 61.531822208333324,
      "duration": 0.022306668749997982,
      "endTime": 61.55412887708332
    },
    {
      "instrumentId": 0,
      "instrumentName": "Piano\u0000",
      "isPercussion": false,
      "pitch": 64,
      "velocity": 96,
      "startTime": 61.556607395833325,
      "duration": 0.0982496229166685,
      "endTime": 61.65485701874999
    },
    {
      "instrumentId": 1,
      "instrumentName": "Piano\u0000",
      "isPercussion": false,
      "pitch": 45,
      "velocity": 96,
      "startTime": 61.556607395833325,
      "duration": 0.3945671729166662,
      "endTime": 61.95117456874999
    },
    {
      "instrumentId": 0,
      "instrumentName": "Piano\u0000",
      "isPercussion": false,
      "pitch": 64,
      "velocity": 96,
      "startTime": 61.75475789583332,
      "duration": 0.09779742291666338,
      "endTime": 61.852555318749985
    },
    {
      "instrumentId": 0,
      "instrumentName": "Piano\u0000",
      "isPercussion": false,
      "pitch": 64,
      "velocity": 96,
      "startTime": 61.95199639583332,
      "duration": 0.09728572291666637,
      "endTime": 62.049282118749986
    },
    {
      "instrumentId": 1,
      "instrumentName": "Piano\u0000",
      "isPercussion": false,
      "pitch": 48,
      "velocity": 96,
      "startTime": 61.95199639583332,
      "duration": 0.09728572291666637,
      "endTime": 62.049282118749986
    },
    {
      "instrumentId": 1,
      "instrumentName": "Piano\u0000",
      "isPercussion": false,
      "pitch": 52,
      "velocity": 96,
      "startTime": 61.95199639583332,
      "duration": 0.09728572291666637,
      "endTime": 62.049282118749986
    },
    {
      "instrumentId": 0,
      "instrumentName": "Piano\u0000",
      "isPercussion": false,
      "pitch": 64,
      "velocity": 96,
      "startTime": 62.14820289583332,
      "duration": 0.0968424479166643,
      "endTime": 62.245045343749986
    },
    {
      "instrumentId": 0,
      "instrumentName": "Piano\u0000",
      "isPercussion": false,
      "pitch": 64,
      "velocity": 96,
      "startTime": 62.34351539583332,
      "duration": 0.09640313958333024,
      "endTime": 62.43991853541665
    },
    {
      "instrumentId": 1,
      "instrumentName": "Piano\u0000",
      "isPercussion": false,
      "pitch": 40,
      "velocity": 96,
      "startTime": 62.34351539583332,
      "duration": 0.09640313958333024,
      "endTime": 62.43991853541665
    },
    {
      "instrumentId": 0,
      "instrumentName": "Piano\u0000",
      "isPercussion": false,
      "pitch": 64,
      "velocity": 96,
      "startTime": 62.53794189583332,
      "duration": 0.09596779791666421,
      "endTime": 62.633909693749985
    },
    {
      "instrumentId": 0,
      "instrumentName": "Piano\u0000",
      "isPercussion": false,
      "pitch": 64,
      "velocity": 96,
      "startTime": 62.73149039583332,
      "duration": 0.09553617499999945,
      "endTime": 62.82702657083332
    },
    {
      "instrumentId": 1,
      "instrumentName": "Piano\u0000",
      "isPercussion": false,
      "pitch": 48,
      "velocity": 96,
      "startTime": 62.73149039583332,
      "duration": 0.09553617499999945,
      "endTime": 62.82702657083332
    },
    {
      "instrumentId": 1,
      "instrumentName": "Piano\u0000",
      "isPercussion": false,
      "pitch": 52,
      "velocity": 96,
      "startTime": 62.73149039583332,
      "duration": 0.09553617499999945,
      "endTime": 62.82702657083332
    },
    {
      "instrumentId": 0,
      "instrumentName": "Piano\u0000",
      "isPercussion": false,
      "pitch": 64,
      "velocity": 96,
      "startTime": 62.92416839583332,
      "duration": 0.09510876666666945,
      "endTime": 63.01927716249999
    },
    {
      "instrumentId": 0,
      "instrumentName": "Piano\u0000",
      "isPercussion": false,
      "pitch": 64,
      "velocity": 96,
      "startTime": 63.11598439583332,
      "duration": 0.09468482916666687,
      "endTime": 63.21066922499999
    },
    {
      "instrumentId": 1,
      "instrumentName": "Piano\u0000",
      "isPercussion": false,
      "pitch": 45,
      "velocity": 96,
      "startTime": 63.11598439583332,
      "duration": 0.09468482916666687,
      "endTime": 63.21066922499999
    },
    {
      "instrumentId": 0,
      "instrumentName": "Piano\u0000",
      "isPercussion": false,
      "pitch": 64,
      "velocity": 96,
      "startTime": 63.306945395833324,
      "duration": 0.09420511041666657,
      "endTime": 63.40115050624999
    },
    {
      "instrumentId": 0,
      "instrumentName": "Piano\u0000",
      "isPercussion": false,
      "pitch": 64,
      "velocity": 96,
      "startTime": 63.496938895833324,
      "duration": 0.09378935416666678,
      "endTime": 63.59072824999999
    },
    {
      "instrumentId": 1,
      "instrumentName": "Piano\u0000",
      "isPercussion": false,
      "pitch": 48,
      "velocity": 96,
      "startTime": 63.496938895833324,
      "duration": 0.09378935416666678,
      "endTime": 63.59072824999999
    },
    {
      "instrumentId": 1,
      "instrumentName": "Piano\u0000",
      "isPercussion": false,
      "pitch": 52,
      "velocity": 96,
      "startTime": 63.496938895833324,
      "duration": 0.09378935416666678,
      "endTime": 63.59072824999999
    },
    {
      "instrumentId": 0,
      "instrumentName": "Piano\u0000",
      "isPercussion": false,
      "pitch": 64,
      "velocity": 96,
      "startTime": 63.686093895833324,
      "duration": 0.09337731666666826,
      "endTime": 63.77947121249999
    },
    {
      "instrumentId": 0,
      "instrumentName": "Piano\u0000",
      "isPercussion": false,
      "pitch": 64,
      "velocity": 96,
      "startTime": 63.874417895833325,
      "duration": 0.09296874999999716,
      "endTime": 63.96738664583332
    },
    {
      "instrumentId": 1,
      "instrumentName": "Piano\u0000",
      "isPercussion": false,
      "pitch": 40,
      "velocity": 96,
      "startTime": 63.874417895833325,
      "duration": 0.09296874999999716,
      "endTime": 63.96738664583332
    },
    {
      "instrumentId": 0,
      "instrumentName": "Piano\u0000",
      "isPercussion": false,
      "pitch": 64,
      "velocity": 96,
      "startTime": 64.06191789583332,
      "duration": 0.09256390208332732,
      "endTime": 64.15448179791665
    },
    {
      "instrumentId": 0,
      "instrumentName": "Piano\u0000",
      "isPercussion": false,
      "pitch": 64,
      "velocity": 96,
      "startTime": 64.24860139583332,
      "duration": 0.09216227708333236,
      "endTime": 64.34076367291665
    },
    {
      "instrumentId": 1,
      "instrumentName": "Piano\u0000",
      "isPercussion": false,
      "pitch": 48,
      "velocity": 96,
      "startTime": 64.24860139583332,
      "duration": 0.09216227708333236,
      "endTime": 64.34076367291665
    },
    {
      "instrumentId": 1,
      "instrumentName": "Piano\u0000",
      "isPercussion": false,
      "pitch": 52,
      "velocity": 96,
      "startTime": 64.24860139583332,
      "duration": 0.09216227708333236,
      "endTime": 64.34076367291665
    },
    {
      "instrumentId": 0,
      "instrumentName": "Piano\u0000",
      "isPercussion": false,
      "pitch": 64,
      "velocity": 96,
      "startTime": 64.43447489583332,
      "duration": 0.09176437083333155,
      "endTime": 64.52623926666665
    },
    {
      "instrumentId": 0,
      "instrumentName": "Piano\u0000",
      "isPercussion": false,
      "pitch": 64,
      "velocity": 96,
      "startTime": 64.61954589583331,
      "duration": 0.09131365833333405,
      "endTime": 64.71085955416665
    },
    {
      "instrumentId": 1,
      "instrumentName": "Piano\u0000",
      "isPercussion": false,
      "pitch": 45,
      "velocity": 96,
      "startTime": 64.61954589583331,
      "duration": 0.09131365833333405,
      "endTime": 64.71085955416665
    },
    {
      "instrumentId": 0,
      "instrumentName": "Piano\u0000",
      "isPercussion": false,
      "pitch": 64,
      "velocity": 96,
      "startTime": 64.80370789583331,
      "duration": 0.09092294166666193,
      "endTime": 64.89463083749997
    },
    {
      "instrumentId": 0,
      "instrumentName": "Piano\u0000",
      "isPercussion": false,
      "pitch": 64,
      "velocity": 96,
      "startTime": 64.98708189583331,
      "duration": 0.09053569583333854,
      "endTime": 65.07761759166665
    },
    {
      "instrumentId": 1,
      "instrumentName": "Piano\u0000",
      "isPercussion": false,
      "pitch": 48,
      "velocity": 96,
      "startTime": 64.98708189583331,
      "duration": 0.09053569583333854,
      "endTime": 65.07761759166665
    },
    {
      "instrumentId": 1,
      "instrumentName": "Piano\u0000",
      "isPercussion": false,
      "pitch": 52,
      "velocity": 96,
      "startTime": 64.98708189583331,
      "duration": 0.09053569583333854,
      "endTime": 65.07761759166665
    },
    {
      "instrumentId": 0,
      "instrumentName": "Piano\u0000",
      "isPercussion": false,
      "pitch": 64,
      "velocity": 96,
      "startTime": 65.16967489583331,
      "duration": 0.09015142500000195,
      "endTime": 65.25982632083331
    },
    {
      "instrumentId": 0,
      "instrumentName": "Piano\u0000",
      "isPercussion": false,
      "pitch": 64,
      "velocity": 96,
      "startTime": 65.35149289583332,
      "duration": 0.1802956249999994,
      "endTime": 65.53178852083332
    },
    {
      "instrumentId": 1,
      "instrumentName": "Piano\u0000",
      "isPercussion": false,
      "pitch": 40,
      "velocity": 96,
      "startTime": 65.35149289583332,
      "duration": 0.08977062499999988,
      "endTime": 65.44126352083332
    },
    {
      "instrumentId": 0,
      "instrumentName": "Piano\u0000",
      "isPercussion": false,
      "pitch": 65,
      "velocity": 96,
      "startTime": 65.53254289583332,
      "duration": 0.17953729791666717,
      "endTime": 65.71208019374998
    },
    {
      "instrumentId": 0,
      "instrumentName": "Piano\u0000",
      "isPercussion": false,
      "pitch": 64,
      "velocity": 96,
      "startTime": 65.71283139583332,
      "duration": 0.17878494583332838,
      "endTime": 65.89161634166665
    },
    {
      "instrumentId": 1,
      "instrumentName": "Piano\u0000",
      "isPercussion": false,
      "pitch": 48,
      "velocity": 96,
      "startTime": 65.71283139583332,
      "duration": 0.0890184458333323,
      "endTime": 65.80184984166665
    },
    {
      "instrumentId": 1,
      "instrumentName": "Piano\u0000",
      "isPercussion": false,
      "pitch": 52,
      "velocity": 96,
      "startTime": 65.71283139583332,
      "duration": 0.0890184458333323,
      "endTime": 65.80184984166665
    },
    {
      "instrumentId": 0,
      "instrumentName": "Piano\u0000",
      "isPercussion": false,
      "pitch": 63,
      "velocity": 96,
      "startTime": 65.89236439583333,
      "duration": 0.16899960833333694,
      "endTime": 66.06136400416666
    },
    {
      "instrumentId": 0,
      "instrumentName": "Piano\u0000",
      "isPercussion": false,
      "pitch": 64,
      "velocity": 96,
      "startTime": 66.07104239583333,
      "duration": 0.08822659999999871,
      "endTime": 66.15926899583333
    },
    {
      "instrumentId": 1,
      "instrumentName": "Piano\u0000",
      "isPercussion": false,
      "pitch": 45,
      "velocity": 96,
      "startTime": 66.07104239583333,
      "duration": 0.08822659999999871,
      "endTime": 66.15926899583333
    },
    {
      "instrumentId": 0,
      "instrumentName": "Piano\u0000",
      "isPercussion": false,
      "pitch": 69,
      "velocity": 96,
      "startTime": 66.42617839583333,
      "duration": 0.0874999562499994,
      "endTime": 66.51367835208333
    },
    {
      "instrumentId": 1,
      "instrumentName": "Piano\u0000",
      "isPercussion": false,
      "pitch": 48,
      "velocity": 96,
      "startTime": 66.42617839583333,
      "duration": 0.0874999562499994,
      "endTime": 66.51367835208333
    },
    {
      "instrumentId": 1,
      "instrumentName": "Piano\u0000",
      "isPercussion": false,
      "pitch": 52,
      "velocity": 96,
      "startTime": 66.42617839583333,
      "duration": 0.0874999562499994,
      "endTime": 66.51367835208333
    },
    {
      "instrumentId": 0,
      "instrumentName": "Piano\u0000",
      "isPercussion": false,
      "pitch": 72,
      "velocity": 96,
      "startTime": 66.77839589583333,
      "duration": 0.6603857541666684,
      "endTime": 67.43878165
    },
    {
      "instrumentId": 1,
      "instrumentName": "Piano\u0000",
      "isPercussion": false,
      "pitch": 40,
      "velocity": 96,
      "startTime": 66.77839589583333,
      "duration": 0.08678521250000415,
      "endTime": 66.86518110833333
    },
    {
      "instrumentId": 1,
      "instrumentName": "Piano\u0000",
      "isPercussion": false,
      "pitch": 48,
      "velocity": 96,
      "startTime": 67.12774239583332,
      "duration": 0.0860322895833292,
      "endTime": 67.21377468541665
    },
    {
      "instrumentId": 1,
      "instrumentName": "Piano\u0000",
      "isPercussion": false,
      "pitch": 52,
      "velocity": 96,
      "startTime": 67.12774239583332,
      "duration": 0.0860322895833292,
      "endTime": 67.21377468541665
    },
    {
      "instrumentId": 0,
      "instrumentName": "Piano\u0000",
      "isPercussion": false,
      "pitch": 74,
      "velocity": 96,
      "startTime": 67.47406389583332,
      "duration": 0.08534134583332786,
      "endTime": 67.55940524166665
    },
    {
      "instrumentId": 1,
      "instrumentName": "Piano\u0000",
      "isPercussion": false,
      "pitch": 44,
      "velocity": 96,
      "startTime": 67.47406389583332,
      "duration": 0.08534134583332786,
      "endTime": 67.55940524166665
    },
    {
      "instrumentId": 0,
      "instrumentName": "Piano\u0000",
      "isPercussion": false,
      "pitch": 74,
      "velocity": 96,
      "startTime": 67.64618089583333,
      "duration": 0.08499996458333214,
      "endTime": 67.73118086041666
    },
    {
      "instrumentId": 0,
      "instrumentName": "Piano\u0000",
      "isPercussion": false,
      "pitch": 74,
      "velocity": 96,
      "startTime": 67.81760939583333,
      "duration": 0.08466131041666358,
      "endTime": 67.90227070625
    },
    {
      "instrumentId": 1,
      "instrumentName": "Piano\u0000",
      "isPercussion": false,
      "pitch": 50,
      "velocity": 96,
      "startTime": 67.81760939583333,
      "duration": 0.08466131041666358,
      "endTime": 67.90227070625
    },
    {
      "instrumentId": 1,
      "instrumentName": "Piano\u0000",
      "isPercussion": false,
      "pitch": 52,
      "velocity": 96,
      "startTime": 67.81760939583333,
      "duration": 0.08466131041666358,
      "endTime": 67.90227070625
    },
    {
      "instrumentId": 0,
      "instrumentName": "Piano\u0000",
      "isPercussion": false,
      "pitch": 74,
      "velocity": 96,
      "startTime": 67.98835489583333,
      "duration": 0.08432538333333639,
      "endTime": 68.07268027916666
    },
    {
      "instrumentId": 0,
      "instrumentName": "Piano\u0000",
      "isPercussion": false,
      "pitch": 74,
      "velocity": 96,
      "startTime": 68.15842289583333,
      "duration": 0.08399218333333636,
      "endTime": 68.24241507916666
    },
    {
      "instrumentId": 1,
      "instrumentName": "Piano\u0000",
      "isPercussion": false,
      "pitch": 40,
      "velocity": 96,
      "startTime": 68.15842289583333,
      "duration": 0.08399218333333636,
      "endTime": 68.24241507916666
    },
    {
      "instrumentId": 0,
      "instrumentName": "Piano\u0000",
      "isPercussion": false,
      "pitch": 72,
      "velocity": 96,
      "startTime": 68.32781889583333,
      "duration": 0.0836143583333353,
      "endTime": 68.41143325416667
    },
    {
      "instrumentId": 0,
      "instrumentName": "Piano\u0000",
      "isPercussion": false,
      "pitch": 71,
      "velocity": 96,
      "startTime": 68.49645289583333,
      "duration": 0.0832866125000038,
      "endTime": 68.57973950833333
    },
    {
      "instrumentId": 1,
      "instrumentName": "Piano\u0000",
      "isPercussion": false,
      "pitch": 50,
      "velocity": 96,
      "startTime": 68.49645289583333,
      "duration": 0.0832866125000038,
      "endTime": 68.57973950833333
    },
    {
      "instrumentId": 1,
      "instrumentName": "Piano\u0000",
      "isPercussion": false,
      "pitch": 52,
      "velocity": 96,
      "startTime": 68.49645289583333,
      "duration": 0.0832866125000038,
      "endTime": 68.57973950833333
    },
    {
      "instrumentId": 0,
      "instrumentName": "Piano\u0000",
      "isPercussion": false,
      "pitch": 74,
      "velocity": 96,
      "startTime": 68.66442589583333,
      "duration": 0.08296159374999945,
      "endTime": 68.74738748958333
    },
    {
      "instrumentId": 0,
      "instrumentName": "Piano\u0000",
      "isPercussion": false,
      "pitch": 72,
      "velocity": 96,
      "startTime": 68.83174339583333,
      "duration": 0.08263880625000297,
      "endTime": 68.91438220208333
    },
    {
      "instrumentId": 1,
      "instrumentName": "Piano\u0000",
      "isPercussion": false,
      "pitch": 45,
      "velocity": 96,
      "startTime": 68.83174339583333,
      "duration": 0.08263880625000297,
      "endTime": 68.91438220208333
    },
    {
      "instrumentId": 0,
      "instrumentName": "Piano\u0000",
      "isPercussion": false,
      "pitch": 72,
      "velocity": 96,
      "startTime": 68.99840989583333,
      "duration": 0.08231874583333365,
      "endTime": 69.08072864166667
    },
    {
      "instrumentId": 0,
      "instrumentName": "Piano\u0000",
      "isPercussion": false,
      "pitch": 72,
      "velocity": 96,
      "startTime": 69.16443089583333,
      "duration": 0.08200116458333184,
      "endTime": 69.24643206041667
    },
    {
      "instrumentId": 1,
      "instrumentName": "Piano\u0000",
      "isPercussion": false,
      "pitch": 48,
      "velocity": 96,
      "startTime": 69.16443089583333,
      "duration": 0.08200116458333184,
      "endTime": 69.24643206041667
    },
    {
      "instrumentId": 1,
      "instrumentName": "Piano\u0000",
      "isPercussion": false,
      "pitch": 52,
      "velocity": 96,
      "startTime": 69.16443089583333,
      "duration": 0.08200116458333184,
      "endTime": 69.24643206041667
    },
    {
      "instrumentId": 0,
      "instrumentName": "Piano\u0000",
      "isPercussion": false,
      "pitch": 72,
      "velocity": 96,
      "startTime": 69.32981139583333,
      "duration": 0.0816858145833379,
      "endTime": 69.41149721041667
    },
    {
      "instrumentId": 0,
      "instrumentName": "Piano\u0000",
      "isPercussion": false,
      "pitch": 72,
      "velocity": 96,
      "startTime": 69.49455589583333,
      "duration": 0.0813285666666701,
      "endTime": 69.5758844625
    },
    {
      "instrumentId": 1,
      "instrumentName": "Piano\u0000",
      "isPercussion": false,
      "pitch": 40,
      "velocity": 96,
      "startTime": 69.49455589583333,
      "duration": 0.0813285666666701,
      "endTime": 69.5758844625
    },
    {
      "instrumentId": 0,
      "instrumentName": "Piano\u0000",
      "isPercussion": false,
      "pitch": 71,
      "velocity": 96,
      "startTime": 69.65857989583333,
      "duration": 0.08101842291667083,
      "endTime": 69.73959831875
    },
    {
      "instrumentId": 0,
      "instrumentName": "Piano\u0000",
      "isPercussion": false,
      "pitch": 69,
      "velocity": 96,
      "startTime": 69.82197839583333,
      "duration": 0.08071075833333907,
      "endTime": 69.90268915416667
    },
    {
      "instrumentId": 1,
      "instrumentName": "Piano\u0000",
      "isPercussion": false,
      "pitch": 48,
      "velocity": 96,
      "startTime": 69.82197839583333,
      "duration": 0.08071075833333907,
      "endTime": 69.90268915416667
    },
    {
      "instrumentId": 1,
      "instrumentName": "Piano\u0000",
      "isPercussion": false,
      "pitch": 52,
      "velocity": 96,
      "startTime": 69.82197839583333,
      "duration": 0.08071075833333907,
      "endTime": 69.90268915416667
    },
    {
      "instrumentId": 0,
      "instrumentName": "Piano\u0000",
      "isPercussion": false,
      "pitch": 72,
      "velocity": 96,
      "startTime": 69.98475639583333,
      "duration": 0.08040532500000097,
      "endTime": 70.06516172083333
    },
    {
      "instrumentId": 0,
      "instrumentName": "Piano\u0000",
      "isPercussion": false,
      "pitch": 71,
      "velocity": 96,
      "startTime": 70.14691839583332,
      "duration": 0.08010237083333038,
      "endTime": 70.22702076666666
    },
    {
      "instrumentId": 1,
      "instrumentName": "Piano\u0000",
      "isPercussion": false,
      "pitch": 47,
      "velocity": 96,
      "startTime": 70.14691839583332,
      "duration": 0.08010237083333038,
      "endTime": 70.22702076666666
    },
    {
      "instrumentId": 0,
      "instrumentName": "Piano\u0000",
      "isPercussion": false,
      "pitch": 71,
      "velocity": 96,
      "startTime": 70.30846939583333,
      "duration": 0.0798013999999938,
      "endTime": 70.38827079583332
    },
    {
      "instrumentId": 0,
      "instrumentName": "Piano\u0000",
      "isPercussion": false,
      "pitch": 71,
      "velocity": 96,
      "startTime": 70.46941339583333,
      "duration": 0.07950290833333895,
      "endTime": 70.54891630416667
    },
    {
      "instrumentId": 1,
      "instrumentName": "Piano\u0000",
      "isPercussion": false,
      "pitch": 51,
      "velocity": 96,
      "startTime": 70.46941339583333,
      "duration": 0.07950290833333895,
      "endTime": 70.54891630416667
    },
    {
      "instrumentId": 1,
      "instrumentName": "Piano\u0000",
      "isPercussion": false,
      "pitch": 59,
      "velocity": 96,
      "startTime": 70.46941339583333,
      "duration": 0.07950290833333895,
      "endTime": 70.54891630416667
    },
    {
      "instrumentId": 0,
      "instrumentName": "Piano\u0000",
      "isPercussion": false,
      "pitch": 71,
      "velocity": 96,
      "startTime": 70.62975539583333,
      "duration": 0.07916450208333004,
      "endTime": 70.70891989791666
    },
    {
      "instrumentId": 0,
      "instrumentName": "Piano\u0000",
      "isPercussion": false,
      "pitch": 66,
      "velocity": 96,
      "startTime": 70.78941489583333,
      "duration": 0.07887072083333635,
      "endTime": 70.86828561666667
    },
    {
      "instrumentId": 1,
      "instrumentName": "Piano\u0000",
      "isPercussion": false,
      "pitch": 42,
      "velocity": 96,
      "startTime": 70.78941489583333,
      "duration": 0.07887072083333635,
      "endTime": 70.86828561666667
    },
    {
      "instrumentId": 0,
      "instrumentName": "Piano\u0000",
      "isPercussion": false,
      "pitch": 71,
      "velocity": 96,
      "startTime": 71.10696039583333,
      "duration": 0.07828935624999644,
      "endTime": 71.18524975208332
    },
    {
      "instrumentId": 1,
      "instrumentName": "Piano\u0000",
      "isPercussion": false,
      "pitch": 51,
      "velocity": 96,
      "startTime": 71.10696039583333,
      "duration": 0.07828935624999644,
      "endTime": 71.18524975208332
    },
    {
      "instrumentId": 1,
      "instrumentName": "Piano\u0000",
      "isPercussion": false,
      "pitch": 57,
      "velocity": 96,
      "startTime": 71.10696039583333,
      "duration": 0.07828935624999644,
      "endTime": 71.18524975208332
    },
    {
      "instrumentId": 0,
      "instrumentName": "Piano\u0000",
      "isPercussion": false,
      "pitch": 68,
      "velocity": 115,
      "startTime": 71.42216989583332,
      "duration": 0.10384025000000463,
      "endTime": 71.52601014583333
    },
    {
      "instrumentId": 1,
      "instrumentName": "Piano\u0000",
      "isPercussion": false,
      "pitch": 52,
      "velocity": 115,
      "startTime": 71.42216989583332,
      "duration": 0.10384025000000463,
      "endTime": 71.52601014583333
    },
    {
      "instrumentId": 0,
      "instrumentName": "Piano\u0000",
      "isPercussion": false,
      "pitch": 52,
      "velocity": 96,
      "startTime": 72.04620539583333,
      "duration": 0.5854815187499867,
      "endTime": 72.63168691458331
    },
    {
      "instrumentId": 1,
      "instrumentName": "Piano\u0000",
      "isPercussion": false,
      "pitch": 28,
      "velocity": 96,
      "startTime": 72.04620539583333,
      "duration": 0.5127383270833406,
      "endTime": 72.55894372291667
    },
    {
      "instrumentId": 1,
      "instrumentName": "Piano\u0000",
      "isPercussion": false,
      "pitch": 40,
      "velocity": 96,
      "startTime": 72.04620539583333,
      "duration": 0.5307517187499968,
      "endTime": 72.57695711458332
    },
    {
      "instrumentId": 1,
      "instrumentName": "Piano\u0000",
      "isPercussion": false,
      "pitch": 42,
      "velocity": 96,
      "startTime": 72.60566202083332,
      "duration": 0.01714066875000242,
      "endTime": 72.62280268958332
    },
    {
      "instrumentId": 1,
      "instrumentName": "Piano\u0000",
      "isPercussion": false,
      "pitch": 43,
      "velocity": 96,
      "startTime": 72.62470720833332,
      "duration": 0.017132006249994447,
      "endTime": 72.64183921458331
    },
    {
      "instrumentId": 1,
      "instrumentName": "Piano\u0000",
      "isPercussion": false,
      "pitch": 44,
      "velocity": 96,
      "startTime": 72.64374277083331,
      "duration": 0.017132006250008658,
      "endTime": 72.66087477708332
    },
    {
      "instrumentId": 0,
      "instrumentName": "Piano\u0000",
      "isPercussion": false,
      "pitch": 64,
      "velocity": 96,
      "startTime": 72.66277833333332,
      "duration": 0.07546930416665987,
      "endTime": 72.73824763749998
    },
    {
      "instrumentId": 1,
      "instrumentName": "Piano\u0000",
      "isPercussion": false,
      "pitch": 33,
      "velocity": 96,
      "startTime": 72.66277833333332,
      "duration": 0.3031668687499973,
      "endTime": 72.96594520208332
    },
    {
      "instrumentId": 1,
      "instrumentName": "Piano\u0000",
      "isPercussion": false,
      "pitch": 45,
      "velocity": 96,
      "startTime": 72.66277833333332,
      "duration": 0.3031668687499973,
      "endTime": 72.96594520208332
    },
    {
      "instrumentId": 0,
      "instrumentName": "Piano\u0000",
      "isPercussion": false,
      "pitch": 64,
      "velocity": 96,
      "startTime": 72.81498533333333,
      "duration": 0.07516411874999562,
      "endTime": 72.89014945208332
    },
    {
      "instrumentId": 0,
      "instrumentName": "Piano\u0000",
      "isPercussion": false,
      "pitch": 64,
      "velocity": 96,
      "startTime": 72.96657683333332,
      "duration": 0.07489934375000473,
      "endTime": 73.04147617708333
    },
    {
      "instrumentId": 1,
      "instrumentName": "Piano\u0000",
      "isPercussion": false,
      "pitch": 48,
      "velocity": 96,
      "startTime": 72.96657683333332,
      "duration": 0.07489934375000473,
      "endTime": 73.04147617708333
    },
    {
      "instrumentId": 1,
      "instrumentName": "Piano\u0000",
      "isPercussion": false,
      "pitch": 52,
      "velocity": 96,
      "startTime": 72.96657683333332,
      "duration": 0.07489934375000473,
      "endTime": 73.04147617708333
    },
    {
      "instrumentId": 0,
      "instrumentName": "Piano\u0000",
      "isPercussion": false,
      "pitch": 64,
      "velocity": 96,
      "startTime": 73.11763433333331,
      "duration": 0.07463630416665978,
      "endTime": 73.19227063749997
    },
    {
      "instrumentId": 0,
      "instrumentName": "Piano\u0000",
      "isPercussion": false,
      "pitch": 64,
      "velocity": 96,
      "startTime": 73.26816133333331,
      "duration": 0.07437500000000341,
      "endTime": 73.34253633333331
    },
    {
      "instrumentId": 1,
      "instrumentName": "Piano\u0000",
      "isPercussion": false,
      "pitch": 40,
      "velocity": 96,
      "startTime": 73.26816133333331,
      "duration": 0.07437500000000341,
      "endTime": 73.34253633333331
    },
    {
      "instrumentId": 0,
      "instrumentName": "Piano\u0000",
      "isPercussion": false,
      "pitch": 64,
      "velocity": 96,
      "startTime": 73.41816133333332,
      "duration": 0.07411567916666684,
      "endTime": 73.49227701249998
    },
    {
      "instrumentId": 0,
      "instrumentName": "Piano\u0000",
      "isPercussion": false,
      "pitch": 64,
      "velocity": 96,
      "startTime": 73.56763833333332,
      "duration": 0.07385809375000463,
      "endTime": 73.64149642708333
    },
    {
      "instrumentId": 1,
      "instrumentName": "Piano\u0000",
      "isPercussion": false,
      "pitch": 48,
      "velocity": 96,
      "startTime": 73.56763833333332,
      "duration": 0.07385809375000463,
      "endTime": 73.64149642708333
    },
    {
      "instrumentId": 1,
      "instrumentName": "Piano\u0000",
      "isPercussion": false,
      "pitch": 52,
      "velocity": 96,
      "startTime": 73.56763833333332,
      "duration": 0.07385809375000463,
      "endTime": 73.64149642708333
    },
    {
      "instrumentId": 0,
      "instrumentName": "Piano\u0000",
      "isPercussion": false,
      "pitch": 64,
      "velocity": 96,
      "startTime": 73.71659583333332,
      "duration": 0.07360224375000257,
      "endTime": 73.79019807708332
    },
    {
      "instrumentId": 1,
      "instrumentName": "Piano\u0000",
      "isPercussion": false,
      "pitch": 45,
      "velocity": 96,
      "startTime": 73.86503733333332,
      "duration": 0.2945895520833375,
      "endTime": 74.15962688541666
    },
    {
      "instrumentId": 0,
      "instrumentName": "Piano\u0000",
      "isPercussion": false,
      "pitch": 64,
      "velocity": 96,
      "startTime": 74.01289333333332,
      "duration": 0.07305980208333551,
      "endTime": 74.08595313541666
    },
    {
      "instrumentId": 0,
      "instrumentName": "Piano\u0000",
      "isPercussion": false,
      "pitch": 64,
      "velocity": 96,
      "startTime": 74.16024083333332,
      "duration": 0.07280965416666163,
      "endTime": 74.23305048749998
    },
    {
      "instrumentId": 1,
      "instrumentName": "Piano\u0000",
      "isPercussion": false,
      "pitch": 48,
      "velocity": 96,
      "startTime": 74.16024083333332,
      "duration": 0.07280965416666163,
      "endTime": 74.23305048749998
    },
    {
      "instrumentId": 1,
      "instrumentName": "Piano\u0000",
      "isPercussion": false,
      "pitch": 52,
      "velocity": 96,
      "startTime": 74.16024083333332,
      "duration": 0.07280965416666163,
      "endTime": 74.23305048749998
    },
    {
      "instrumentId": 0,
      "instrumentName": "Piano\u0000",
      "isPercussion": false,
      "pitch": 64,
      "velocity": 96,
      "startTime": 74.30708383333332,
      "duration": 0.07256099375000247,
      "endTime": 74.37964482708333
    },
    {
      "instrumentId": 0,
      "instrumentName": "Piano\u0000",
      "isPercussion": false,
      "pitch": 64,
      "velocity": 96,
      "startTime": 74.45342533333333,
      "duration": 0.07231406875000346,
      "endTime": 74.52573940208333
    },
    {
      "instrumentId": 1,
      "instrumentName": "Piano\u0000",
      "isPercussion": false,
      "pitch": 40,
      "velocity": 96,
      "startTime": 74.45342533333333,
      "duration": 0.07231406875000346,
      "endTime": 74.52573940208333
    },
    {
      "instrumentId": 0,
      "instrumentName": "Piano\u0000",
      "isPercussion": false,
      "pitch": 64,
      "velocity": 96,
      "startTime": 74.59926883333333,
      "duration": 0.0720688791666646,
      "endTime": 74.67133771249999
    },
    {
      "instrumentId": 0,
      "instrumentName": "Piano\u0000",
      "isPercussion": false,
      "pitch": 64,
      "velocity": 96,
      "startTime": 74.74461783333332,
      "duration": 0.07182517708332625,
      "endTime": 74.81644301041665
    },
    {
      "instrumentId": 1,
      "instrumentName": "Piano\u0000",
      "isPercussion": false,
      "pitch": 48,
      "velocity": 96,
      "startTime": 74.74461783333332,
      "duration": 0.07182517708332625,
      "endTime": 74.81644301041665
    },
    {
      "instrumentId": 1,
      "instrumentName": "Piano\u0000",
      "isPercussion": false,
      "pitch": 52,
      "velocity": 96,
      "startTime": 74.74461783333332,
      "duration": 0.07182517708332625,
      "endTime": 74.81644301041665
    },
    {
      "instrumentId": 0,
      "instrumentName": "Piano\u0000",
      "isPercussion": false,
      "pitch": 64,
      "velocity": 96,
      "startTime": 74.88947533333332,
      "duration": 0.07154875000000516,
      "endTime": 74.96102408333333
    },
    {
      "instrumentId": 0,
      "instrumentName": "Piano\u0000",
      "isPercussion": false,
      "pitch": 64,
      "velocity": 96,
      "startTime": 75.03377533333332,
      "duration": 0.1432167666666686,
      "endTime": 75.17699209999999
    },
    {
      "instrumentId": 1,
      "instrumentName": "Piano\u0000",
      "isPercussion": false,
      "pitch": 45,
      "velocity": 96,
      "startTime": 75.03377533333332,
      "duration": 0.28655377083333633,
      "endTime": 75.32032910416666
    },
    {
      "instrumentId": 0,
      "instrumentName": "Piano\u0000",
      "isPercussion": false,
      "pitch": 65,
      "velocity": 96,
      "startTime": 75.17759133333332,
      "duration": 0.14273777083333528,
      "endTime": 75.32032910416666
    },
    {
      "instrumentId": 0,
      "instrumentName": "Piano\u0000",
      "isPercussion": false,
      "pitch": 64,
      "velocity": 96,
      "startTime": 75.32092633333332,
      "duration": 0.14226176249999867,
      "endTime": 75.46318809583332
    },
    {
      "instrumentId": 1,
      "instrumentName": "Piano\u0000",
      "isPercussion": false,
      "pitch": 48,
      "velocity": 96,
      "startTime": 75.32092633333332,
      "duration": 0.07083326250000255,
      "endTime": 75.39175959583332
    },
    {
      "instrumentId": 1,
      "instrumentName": "Piano\u0000",
      "isPercussion": false,
      "pitch": 52,
      "velocity": 96,
      "startTime": 75.32092633333332,
      "duration": 0.07083326250000255,
      "endTime": 75.39175959583332
    },
    {
      "instrumentId": 0,
      "instrumentName": "Piano\u0000",
      "isPercussion": false,
      "pitch": 63,
      "velocity": 96,
      "startTime": 75.46378333333332,
      "duration": 0.13467011458332934,
      "endTime": 75.59845344791665
    },
    {
      "instrumentId": 0,
      "instrumentName": "Piano\u0000",
      "isPercussion": false,
      "pitch": 64,
      "velocity": 96,
      "startTime": 75.60616583333332,
      "duration": 0.13422415416665956,
      "endTime": 75.74038998749998
    },
    {
      "instrumentId": 1,
      "instrumentName": "Piano\u0000",
      "isPercussion": false,
      "pitch": 40,
      "velocity": 96,
      "startTime": 75.60616583333332,
      "duration": 0.07036420416666544,
      "endTime": 75.67653003749999
    },
    {
      "instrumentId": 0,
      "instrumentName": "Piano\u0000",
      "isPercussion": false,
      "pitch": 69,
      "velocity": 96,
      "startTime": 75.88951933333331,
      "duration": 0.1332783208333268,
      "endTime": 76.02279765416664
    },
    {
      "instrumentId": 1,
      "instrumentName": "Piano\u0000",
      "isPercussion": false,
      "pitch": 48,
      "velocity": 96,
      "startTime": 75.88951933333331,
      "duration": 0.06986837083333342,
      "endTime": 75.95938770416664
    },
    {
      "instrumentId": 1,
      "instrumentName": "Piano\u0000",
      "isPercussion": false,
      "pitch": 52,
      "velocity": 96,
      "startTime": 75.88951933333331,
      "duration": 0.06986837083333342,
      "endTime": 75.95938770416664
    },
    {
      "instrumentId": 0,
      "instrumentName": "Piano\u0000",
      "isPercussion": false,
      "pitch": 72,
      "velocity": 96,
      "startTime": 76.03043033333331,
      "duration": 0.1328418187499949,
      "endTime": 76.16327215208331
    },
    {
      "instrumentId": 0,
      "instrumentName": "Piano\u0000",
      "isPercussion": false,
      "pitch": 76,
      "velocity": 96,
      "startTime": 76.17087983333332,
      "duration": 0.06941195624999352,
      "endTime": 76.24029178958331
    },
    {
      "instrumentId": 1,
      "instrumentName": "Piano\u0000",
      "isPercussion": false,
      "pitch": 45,
      "velocity": 96,
      "startTime": 76.17087983333332,
      "duration": 0.27894410416666915,
      "endTime": 76.44982393749999
    },
    {
      "instrumentId": 0,
      "instrumentName": "Piano\u0000",
      "isPercussion": false,
      "pitch": 81,
      "velocity": 96,
      "startTime": 76.45040533333331,
      "duration": 0.06896149166666987,
      "endTime": 76.51936682499998
    },
    {
      "instrumentId": 1,
      "instrumentName": "Piano\u0000",
      "isPercussion": false,
      "pitch": 48,
      "velocity": 96,
      "startTime": 76.45040533333331,
      "duration": 0.06896149166666987,
      "endTime": 76.51936682499998
    },
    {
      "instrumentId": 1,
      "instrumentName": "Piano\u0000",
      "isPercussion": false,
      "pitch": 52,
      "velocity": 96,
      "startTime": 76.45040533333331,
      "duration": 0.06896149166666987,
      "endTime": 76.51936682499998
    },
    {
      "instrumentId": 0,
      "instrumentName": "Piano\u0000",
      "isPercussion": false,
      "pitch": 84,
      "velocity": 96,
      "startTime": 76.72811933333331,
      "duration": 0.5219692041666661,
      "endTime": 77.25008853749998
    },
    {
      "instrumentId": 1,
      "instrumentName": "Piano\u0000",
      "isPercussion": false,
      "pitch": 40,
      "velocity": 96,
      "startTime": 76.72811933333331,
      "duration": 0.06851672916666018,
      "endTime": 76.79663606249997
    },
    {
      "instrumentId": 1,
      "instrumentName": "Piano\u0000",
      "isPercussion": false,
      "pitch": 48,
      "velocity": 96,
      "startTime": 77.00398233333331,
      "duration": 0.06804667916667029,
      "endTime": 77.07202901249998
    },
    {
      "instrumentId": 1,
      "instrumentName": "Piano\u0000",
      "isPercussion": false,
      "pitch": 52,
      "velocity": 96,
      "startTime": 77.00398233333331,
      "duration": 0.06804667916667029,
      "endTime": 77.07202901249998
    },
    {
      "instrumentId": 0,
      "instrumentName": "Piano\u0000",
      "isPercussion": false,
      "pitch": 86,
      "velocity": 96,
      "startTime": 77.2780183333333,
      "duration": 0.13579531874999873,
      "endTime": 77.4138136520833
    },
    {
      "instrumentId": 1,
      "instrumentName": "Piano\u0000",
      "isPercussion": false,
      "pitch": 50,
      "velocity": 96,
      "startTime": 77.2780183333333,
      "duration": 0.06761356875000502,
      "endTime": 77.34563190208331
    },
    {
      "instrumentId": 0,
      "instrumentName": "Piano\u0000",
      "isPercussion": false,
      "pitch": 84,
      "velocity": 96,
      "startTime": 77.41438183333331,
      "duration": 0.13536462083332879,
      "endTime": 77.54974645416664
    },
    {
      "instrumentId": 0,
      "instrumentName": "Piano\u0000",
      "isPercussion": false,
      "pitch": 83,
      "velocity": 96,
      "startTime": 77.55031283333331,
      "duration": 0.13493691041666978,
      "endTime": 77.68524974374998
    },
    {
      "instrumentId": 1,
      "instrumentName": "Piano\u0000",
      "isPercussion": false,
      "pitch": 53,
      "velocity": 96,
      "startTime": 77.55031283333331,
      "duration": 0.06718616041666792,
      "endTime": 77.61749899374998
    },
    {
      "instrumentId": 1,
      "instrumentName": "Piano\u0000",
      "isPercussion": false,
      "pitch": 59,
      "velocity": 96,
      "startTime": 77.55031283333331,
      "duration": 0.06718616041666792,
      "endTime": 77.61749899374998
    },
    {
      "instrumentId": 0,
      "instrumentName": "Piano\u0000",
      "isPercussion": false,
      "pitch": 86,
      "velocity": 96,
      "startTime": 77.68581433333331,
      "duration": 0.13451168958333426,
      "endTime": 77.82032602291665
    },
    {
      "instrumentId": 0,
      "instrumentName": "Piano\u0000",
      "isPercussion": false,
      "pitch": 84,
      "velocity": 96,
      "startTime": 77.82088883333331,
      "duration": 0.13402871041667197,
      "endTime": 77.95491754374999
    },
    {
      "instrumentId": 1,
      "instrumentName": "Piano\u0000",
      "isPercussion": false,
      "pitch": 48,
      "velocity": 96,
      "startTime": 77.82088883333331,
      "duration": 0.0667339604166699,
      "endTime": 77.88762279374998
    },
    {
      "instrumentId": 0,
      "instrumentName": "Piano\u0000",
      "isPercussion": false,
      "pitch": 83,
      "velocity": 96,
      "startTime": 77.95547833333332,
      "duration": 0.13360896666667088,
      "endTime": 78.08908729999999
    },
    {
      "instrumentId": 0,
      "instrumentName": "Piano\u0000",
      "isPercussion": false,
      "pitch": 81,
      "velocity": 96,
      "startTime": 78.08964633333332,
      "duration": 0.1331922104166665,
      "endTime": 78.22283854374999
    },
    {
      "instrumentId": 1,
      "instrumentName": "Piano\u0000",
      "isPercussion": false,
      "pitch": 52,
      "velocity": 96,
      "startTime": 78.08964633333332,
      "duration": 0.06631746041666986,
      "endTime": 78.15596379374999
    },
    {
      "instrumentId": 1,
      "instrumentName": "Piano\u0000",
      "isPercussion": false,
      "pitch": 60,
      "velocity": 96,
      "startTime": 78.08964633333332,
      "duration": 0.06631746041666986,
      "endTime": 78.15596379374999
    },
    {
      "instrumentId": 0,
      "instrumentName": "Piano\u0000",
      "isPercussion": false,
      "pitch": 84,
      "velocity": 96,
      "startTime": 78.22339583333331,
      "duration": 0.13277794374999985,
      "endTime": 78.35617377708331
    },
    {
      "instrumentId": 0,
      "instrumentName": "Piano\u0000",
      "isPercussion": false,
      "pitch": 83,
      "velocity": 96,
      "startTime": 78.35672933333332,
      "duration": 0.1323661666666709,
      "endTime": 78.48909549999999
    },
    {
      "instrumentId": 1,
      "instrumentName": "Piano\u0000",
      "isPercussion": false,
      "pitch": 47,
      "velocity": 96,
      "startTime": 78.35672933333332,
      "duration": 0.06590616666666449,
      "endTime": 78.42263549999998
    },
    {
      "instrumentId": 0,
      "instrumentName": "Piano\u0000",
      "isPercussion": false,
      "pitch": 81,
      "velocity": 96,
      "startTime": 78.48964933333332,
      "duration": 0.13195687916666543,
      "endTime": 78.62160621249998
    },
    {
      "instrumentId": 0,
      "instrumentName": "Piano\u0000",
      "isPercussion": false,
      "pitch": 80,
      "velocity": 96,
      "startTime": 78.62215833333332,
      "duration": 0.13155008124999767,
      "endTime": 78.75370841458331
    },
    {
      "instrumentId": 1,
      "instrumentName": "Piano\u0000",
      "isPercussion": false,
      "pitch": 50,
      "velocity": 96,
      "startTime": 78.62215833333332,
      "duration": 0.06549983124999414,
      "endTime": 78.68765816458331
    },
    {
      "instrumentId": 1,
      "instrumentName": "Piano\u0000",
      "isPercussion": false,
      "pitch": 56,
      "velocity": 96,
      "startTime": 78.62215833333332,
      "duration": 0.06549983124999414,
      "endTime": 78.68765816458331
    },
    {
      "instrumentId": 0,
      "instrumentName": "Piano\u0000",
      "isPercussion": false,
      "pitch": 83,
      "velocity": 96,
      "startTime": 78.75425883333332,
      "duration": 0.13108801458332664,
      "endTime": 78.88534684791665
    },
    {
      "instrumentId": 0,
      "instrumentName": "Piano\u0000",
      "isPercussion": false,
      "pitch": 81,
      "velocity": 96,
      "startTime": 78.88589533333332,
      "duration": 0.1306866937499933,
      "endTime": 79.01658202708332
    },
    {
      "instrumentId": 1,
      "instrumentName": "Piano\u0000",
      "isPercussion": false,
      "pitch": 45,
      "velocity": 96,
      "startTime": 78.88589533333332,
      "duration": 0.06506994375000374,
      "endTime": 78.95096527708333
    },
    {
      "instrumentId": 0,
      "instrumentName": "Piano\u0000",
      "isPercussion": false,
      "pitch": 76,
      "velocity": 96,
      "startTime": 79.01712883333332,
      "duration": 0.1302878624999977,
      "endTime": 79.14741669583331
    },
    {
      "instrumentId": 0,
      "instrumentName": "Piano\u0000",
      "isPercussion": false,
      "pitch": 72,
      "velocity": 96,
      "startTime": 79.14796183333331,
      "duration": 0.12989152083333977,
      "endTime": 79.27785335416665
    },
    {
      "instrumentId": 1,
      "instrumentName": "Piano\u0000",
      "isPercussion": false,
      "pitch": 48,
      "velocity": 96,
      "startTime": 79.14796183333331,
      "duration": 0.06467402083333695,
      "endTime": 79.21263585416665
    },
    {
      "instrumentId": 1,
      "instrumentName": "Piano\u0000",
      "isPercussion": false,
      "pitch": 57,
      "velocity": 96,
      "startTime": 79.14796183333331,
      "duration": 0.06467402083333695,
      "endTime": 79.21263585416665
    },
    {
      "instrumentId": 0,
      "instrumentName": "Piano\u0000",
      "isPercussion": false,
      "pitch": 69,
      "velocity": 96,
      "startTime": 79.27839683333332,
      "duration": 0.12949717083333212,
      "endTime": 79.40789400416665
    },
    {
      "instrumentId": 0,
      "instrumentName": "Piano\u0000",
      "isPercussion": false,
      "pitch": 77,
      "velocity": 96,
      "startTime": 79.40843583333331,
      "duration": 0.12910531041666218,
      "endTime": 79.53754114374998
    },
    {
      "instrumentId": 1,
      "instrumentName": "Piano\u0000",
      "isPercussion": false,
      "pitch": 40,
      "velocity": 96,
      "startTime": 79.40843583333331,
      "duration": 0.12262303541666597,
      "endTime": 79.53105886874998
    },
    {
      "instrumentId": 1,
      "instrumentName": "Piano\u0000",
      "isPercussion": false,
      "pitch": 52,
      "velocity": 96,
      "startTime": 79.40843583333331,
      "duration": 0.12262303541666597,
      "endTime": 79.53105886874998
    },
    {
      "instrumentId": 0,
      "instrumentName": "Piano\u0000",
      "isPercussion": false,
      "pitch": 76,
      "velocity": 96,
      "startTime": 79.53808133333331,
      "duration": 0.12871593958332994,
      "endTime": 79.66679727291664
    },
    {
      "instrumentId": 0,
      "instrumentName": "Piano\u0000",
      "isPercussion": false,
      "pitch": 74,
      "velocity": 96,
      "startTime": 79.66733583333331,
      "duration": 0.12827378958333213,
      "endTime": 79.79560962291664
    },
    {
      "instrumentId": 1,
      "instrumentName": "Piano\u0000",
      "isPercussion": false,
      "pitch": 42,
      "velocity": 96,
      "startTime": 79.66733583333331,
      "duration": 0.12183326458332999,
      "endTime": 79.78916909791664
    },
    {
      "instrumentId": 1,
      "instrumentName": "Piano\u0000",
      "isPercussion": false,
      "pitch": 54,
      "velocity": 96,
      "startTime": 79.66733583333331,
      "duration": 0.12183326458332999,
      "endTime": 79.78916909791664
    },
    {
      "instrumentId": 0,
      "instrumentName": "Piano\u0000",
      "isPercussion": false,
      "pitch": 72,
      "velocity": 96,
      "startTime": 79.79614633333331,
      "duration": 0.1278893979166611,
      "endTime": 79.92403573124997
    },
    {
      "instrumentId": 0,
      "instrumentName": "Piano\u0000",
      "isPercussion": false,
      "pitch": 71,
      "velocity": 96,
      "startTime": 79.9245708333333,
      "duration": 0.12750749583332777,
      "endTime": 80.05207832916663
    },
    {
      "instrumentId": 1,
      "instrumentName": "Piano\u0000",
      "isPercussion": false,
      "pitch": 44,
      "velocity": 96,
      "startTime": 79.9245708333333,
      "duration": 0.12110544583333649,
      "endTime": 80.04567627916664
    },
    {
      "instrumentId": 1,
      "instrumentName": "Piano\u0000",
      "isPercussion": false,
      "pitch": 56,
      "velocity": 96,
      "startTime": 79.9245708333333,
      "duration": 0.12110544583333649,
      "endTime": 80.04567627916664
    },
    {
      "instrumentId": 0,
      "instrumentName": "Piano\u0000",
      "isPercussion": false,
      "pitch": 69,
      "velocity": 96,
      "startTime": 80.0526118333333,
      "duration": 0.12712758541667313,
      "endTime": 80.17973941874997
    },
    {
      "instrumentId": 0,
      "instrumentName": "Piano\u0000",
      "isPercussion": false,
      "pitch": 68,
      "velocity": 96,
      "startTime": 80.1802713333333,
      "duration": 0.12675016458332777,
      "endTime": 80.30702149791662
    },
    {
      "instrumentId": 1,
      "instrumentName": "Piano\u0000",
      "isPercussion": false,
      "pitch": 40,
      "velocity": 96,
      "startTime": 80.1802713333333,
      "duration": 0.12038613958333144,
      "endTime": 80.30065747291663
    },
    {
      "instrumentId": 1,
      "instrumentName": "Piano\u0000",
      "isPercussion": false,
      "pitch": 52,
      "velocity": 96,
      "startTime": 80.1802713333333,
      "duration": 0.12038613958333144,
      "endTime": 80.30065747291663
    },
    {
      "instrumentId": 0,
      "instrumentName": "Piano\u0000",
      "isPercussion": false,
      "pitch": 71,
      "velocity": 96,
      "startTime": 80.30755183333329,
      "duration": 0.1263747354166611,
      "endTime": 80.43392656874995
    },
    {
      "instrumentId": 0,
      "instrumentName": "Piano\u0000",
      "isPercussion": false,
      "pitch": 69,
      "velocity": 96,
      "startTime": 80.43445533333329,
      "duration": 0.4802829958333348,
      "endTime": 80.91473832916662
    },
    {
      "instrumentId": 1,
      "instrumentName": "Piano\u0000",
      "isPercussion": false,
      "pitch": 45,
      "velocity": 96,
      "startTime": 80.43445533333329,
      "duration": 0.4802829958333348,
      "endTime": 80.91473832916662
    },
    {
      "instrumentId": 1,
      "instrumentName": "Piano\u0000",
      "isPercussion": false,
      "pitch": 57,
      "velocity": 96,
      "startTime": 80.43445533333329,
      "duration": 0.4802829958333348,
      "endTime": 80.91473832916662
    },
    {
      "instrumentId": 1,
      "instrumentName": "Piano\u0000",
      "isPercussion": false,
      "pitch": 33,
      "velocity": 96,
      "startTime": 80.9405713333333,
      "duration": 0.4151041666666657,
      "endTime": 81.35567549999996
    },
    {
      "instrumentId": 1,
      "instrumentName": "Piano\u0000",
      "isPercussion": false,
      "pitch": 45,
      "velocity": 96,
      "startTime": 80.9405713333333,
      "duration": 0.4296875,
      "endTime": 81.3702588333333
    },
    {
      "instrumentId": 1,
      "instrumentName": "Piano\u0000",
      "isPercussion": false,
      "pitch": 47,
      "velocity": 96,
      "startTime": 81.3935352708333,
      "duration": 0.01391180624999322,
      "endTime": 81.40744707708329
    },
    {
      "instrumentId": 1,
      "instrumentName": "Piano\u0000",
      "isPercussion": false,
      "pitch": 48,
      "velocity": 96,
      "startTime": 81.4089928333333,
      "duration": 0.013906068750003442,
      "endTime": 81.4228989020833
    },
    {
      "instrumentId": 1,
      "instrumentName": "Piano\u0000",
      "isPercussion": false,
      "pitch": 49,
      "velocity": 96,
      "startTime": 81.4244440208333,
      "duration": 0.013900331249999454,
      "endTime": 81.4383443520833
    },
    {
      "instrumentId": 0,
      "instrumentName": "Piano\u0000",
      "isPercussion": false,
      "pitch": 74,
      "velocity": 80,
      "startTime": 81.4398888333333,
      "duration": 0.36930333333333465,
      "endTime": 81.80919216666663
    },
    {
      "instrumentId": 1,
      "instrumentName": "Piano\u0000",
      "isPercussion": false,
      "pitch": 38,
      "velocity": 80,
      "startTime": 81.4398888333333,
      "duration": 0.24650038541666675,
      "endTime": 81.68638921874997
    },
    {
      "instrumentId": 1,
      "instrumentName": "Piano\u0000",
      "isPercussion": false,
      "pitch": 50,
      "velocity": 80,
      "startTime": 81.4398888333333,
      "duration": 0.24650038541666675,
      "endTime": 81.68638921874997
    },
    {
      "instrumentId": 1,
      "instrumentName": "Piano\u0000",
      "isPercussion": false,
      "pitch": 53,
      "velocity": 80,
      "startTime": 81.6869038333333,
      "duration": 0.060888333333338096,
      "endTime": 81.74779216666664
    },
    {
      "instrumentId": 1,
      "instrumentName": "Piano\u0000",
      "isPercussion": false,
      "pitch": 57,
      "velocity": 80,
      "startTime": 81.6869038333333,
      "duration": 0.060888333333338096,
      "endTime": 81.74779216666664
    },
    {
      "instrumentId": 0,
      "instrumentName": "Piano\u0000",
      "isPercussion": false,
      "pitch": 73,
      "velocity": 80,
      "startTime": 81.8097038333333,
      "duration": 0.11581634583333766,
      "endTime": 81.92552017916664
    },
    {
      "instrumentId": 0,
      "instrumentName": "Piano\u0000",
      "isPercussion": false,
      "pitch": 74,
      "velocity": 80,
      "startTime": 81.9321528333333,
      "duration": 0.12159124999999449,
      "endTime": 82.0537440833333
    },
    {
      "instrumentId": 1,
      "instrumentName": "Piano\u0000",
      "isPercussion": false,
      "pitch": 45,
      "velocity": 80,
      "startTime": 81.9321528333333,
      "duration": 0.2436912499999977,
      "endTime": 82.1758440833333
    },
    {
      "instrumentId": 0,
      "instrumentName": "Piano\u0000",
      "isPercussion": false,
      "pitch": 76,
      "velocity": 80,
      "startTime": 82.17635283333331,
      "duration": 0.12090263125000433,
      "endTime": 82.29725546458332
    },
    {
      "instrumentId": 1,
      "instrumentName": "Piano\u0000",
      "isPercussion": false,
      "pitch": 53,
      "velocity": 80,
      "startTime": 82.17635283333331,
      "duration": 0.06019838125000376,
      "endTime": 82.23655121458332
    },
    {
      "instrumentId": 1,
      "instrumentName": "Piano\u0000",
      "isPercussion": false,
      "pitch": 57,
      "velocity": 80,
      "startTime": 82.17635283333331,
      "duration": 0.06019838125000376,
      "endTime": 82.23655121458332
    },
    {
      "instrumentId": 0,
      "instrumentName": "Piano\u0000",
      "isPercussion": false,
      "pitch": 77,
      "velocity": 80,
      "startTime": 82.41877783333331,
      "duration": 0.22878158333332976,
      "endTime": 82.64755941666664
    },
    {
      "instrumentId": 1,
      "instrumentName": "Piano\u0000",
      "isPercussion": false,
      "pitch": 50,
      "velocity": 80,
      "startTime": 82.41877783333331,
      "duration": 0.2408491833333386,
      "endTime": 82.65962701666665
    },
    {
      "instrumentId": 0,
      "instrumentName": "Piano\u0000",
      "isPercussion": false,
      "pitch": 76,
      "velocity": 80,
      "startTime": 82.66012983333331,
      "duration": 0.227199895833337,
      "endTime": 82.88732972916665
    },
    {
      "instrumentId": 1,
      "instrumentName": "Piano\u0000",
      "isPercussion": false,
      "pitch": 53,
      "velocity": 80,
      "startTime": 82.66012983333331,
      "duration": 0.059499999999999886,
      "endTime": 82.71962983333331
    },
    {
      "instrumentId": 1,
      "instrumentName": "Piano\u0000",
      "isPercussion": false,
      "pitch": 57,
      "velocity": 80,
      "startTime": 82.66012983333331,
      "duration": 0.059499999999999886,
      "endTime": 82.71962983333331
    },
    {
      "instrumentId": 0,
      "instrumentName": "Piano\u0000",
      "isPercussion": false,
      "pitch": 74,
      "velocity": 80,
      "startTime": 82.89979483333332,
      "duration": 0.2262326354166646,
      "endTime": 83.12602746874998
    },
    {
      "instrumentId": 1,
      "instrumentName": "Piano\u0000",
      "isPercussion": false,
      "pitch": 45,
      "velocity": 80,
      "startTime": 82.89979483333332,
      "duration": 0.238165785416669,
      "endTime": 83.13796061874999
    },
    {
      "instrumentId": 0,
      "instrumentName": "Piano\u0000",
      "isPercussion": false,
      "pitch": 77,
      "velocity": 80,
      "startTime": 83.13845783333332,
      "duration": 0.22459794791666354,
      "endTime": 83.36305578124998
    },
    {
      "instrumentId": 1,
      "instrumentName": "Piano\u0000",
      "isPercussion": false,
      "pitch": 53,
      "velocity": 80,
      "startTime": 83.13845783333332,
      "duration": 0.05881773333332774,
      "endTime": 83.19727556666665
    },
    {
      "instrumentId": 1,
      "instrumentName": "Piano\u0000",
      "isPercussion": false,
      "pitch": 57,
      "velocity": 80,
      "startTime": 83.13845783333332,
      "duration": 0.05881773333332774,
      "endTime": 83.19727556666665
    },
    {
      "instrumentId": 0,
      "instrumentName": "Piano\u0000",
      "isPercussion": false,
      "pitch": 76,
      "velocity": 80,
      "startTime": 83.37537833333332,
      "duration": 0.35277814583332656,
      "endTime": 83.72815647916664
    },
    {
      "instrumentId": 1,
      "instrumentName": "Piano\u0000",
      "isPercussion": false,
      "pitch": 48,
      "velocity": 80,
      "startTime": 83.37537833333332,
      "duration": 0.2354504541666671,
      "endTime": 83.61082878749998
    },
    {
      "instrumentId": 1,
      "instrumentName": "Piano\u0000",
      "isPercussion": false,
      "pitch": 52,
      "velocity": 80,
      "startTime": 83.61132033333331,
      "duration": 0.058173645833335286,
      "endTime": 83.66949397916665
    },
    {
      "instrumentId": 1,
      "instrumentName": "Piano\u0000",
      "isPercussion": false,
      "pitch": 57,
      "velocity": 80,
      "startTime": 83.61132033333331,
      "duration": 0.058173645833335286,
      "endTime": 83.66949397916665
    },
    {
      "instrumentId": 0,
      "instrumentName": "Piano\u0000",
      "isPercussion": false,
      "pitch": 74,
      "velocity": 80,
      "startTime": 83.7286453333333,
      "duration": 0.11066675624999789,
      "endTime": 83.8393120895833
    },
    {
      "instrumentId": 0,
      "instrumentName": "Piano\u0000",
      "isPercussion": false,
      "pitch": 72,
      "velocity": 80,
      "startTime": 83.8456498333333,
      "duration": 0.11619980833333443,
      "endTime": 83.96184964166663
    },
    {
      "instrumentId": 1,
      "instrumentName": "Piano\u0000",
      "isPercussion": false,
      "pitch": 45,
      "velocity": 80,
      "startTime": 83.8456498333333,
      "duration": 0.057856808333326626,
      "endTime": 83.90350664166662
    },
    {
      "instrumentId": 0,
      "instrumentName": "Piano\u0000",
      "isPercussion": false,
      "pitch": 74,
      "velocity": 80,
      "startTime": 84.0786598333333,
      "duration": 0.11552612708332788,
      "endTime": 84.19418596041663
    },
    {
      "instrumentId": 1,
      "instrumentName": "Piano\u0000",
      "isPercussion": false,
      "pitch": 52,
      "velocity": 80,
      "startTime": 84.0786598333333,
      "duration": 0.057521377083332936,
      "endTime": 84.13618121041664
    },
    {
      "instrumentId": 1,
      "instrumentName": "Piano\u0000",
      "isPercussion": false,
      "pitch": 57,
      "velocity": 80,
      "startTime": 84.0786598333333,
      "duration": 0.057521377083332936,
      "endTime": 84.13618121041664
    },
    {
      "instrumentId": 0,
      "instrumentName": "Piano\u0000",
      "isPercussion": false,
      "pitch": 76,
      "velocity": 80,
      "startTime": 84.31036533333331,
      "duration": 0.6532995958333316,
      "endTime": 84.96366492916664
    },
    {
      "instrumentId": 1,
      "instrumentName": "Piano\u0000",
      "isPercussion": false,
      "pitch": 48,
      "velocity": 80,
      "startTime": 84.31036533333331,
      "duration": 0.2302882312500003,
      "endTime": 84.54065356458331
    },
    {
      "instrumentId": 1,
      "instrumentName": "Piano\u0000",
      "isPercussion": false,
      "pitch": 52,
      "velocity": 80,
      "startTime": 84.5411343333333,
      "duration": 0.05690505625000242,
      "endTime": 84.5980393895833
    },
    {
      "instrumentId": 1,
      "instrumentName": "Piano\u0000",
      "isPercussion": false,
      "pitch": 57,
      "velocity": 80,
      "startTime": 84.5411343333333,
      "duration": 0.05690505625000242,
      "endTime": 84.5980393895833
    },
    {
      "instrumentId": 1,
      "instrumentName": "Piano\u0000",
      "isPercussion": false,
      "pitch": 45,
      "velocity": 80,
      "startTime": 84.7703608333333,
      "duration": 0.05658053333333157,
      "endTime": 84.82694136666663
    },
    {
      "instrumentId": 0,
      "instrumentName": "Piano\u0000",
      "isPercussion": false,
      "pitch": 72,
      "velocity": 80,
      "startTime": 84.99828183333331,
      "duration": 0.11303455208333446,
      "endTime": 85.11131638541664
    },
    {
      "instrumentId": 1,
      "instrumentName": "Piano\u0000",
      "isPercussion": false,
      "pitch": 52,
      "velocity": 80,
      "startTime": 84.99828183333331,
      "duration": 0.05628080208333586,
      "endTime": 85.05456263541664
    },
    {
      "instrumentId": 1,
      "instrumentName": "Piano\u0000",
      "isPercussion": false,
      "pitch": 57,
      "velocity": 80,
      "startTime": 84.99828183333331,
      "duration": 0.05628080208333586,
      "endTime": 85.05456263541664
    },
    {
      "instrumentId": 0,
      "instrumentName": "Piano\u0000",
      "isPercussion": false,
      "pitch": 71,
      "velocity": 80,
      "startTime": 85.22499683333331,
      "duration": 0.32082088541666565,
      "endTime": 85.54581771874997
    },
    {
      "instrumentId": 1,
      "instrumentName": "Piano\u0000",
      "isPercussion": false,
      "pitch": 47,
      "velocity": 80,
      "startTime": 85.22499683333331,
      "duration": 0.2253485437500018,
      "endTime": 85.45034537708331
    },
    {
      "instrumentId": 1,
      "instrumentName": "Piano\u0000",
      "isPercussion": false,
      "pitch": 50,
      "velocity": 80,
      "startTime": 85.45081583333331,
      "duration": 0.05569076041666676,
      "endTime": 85.50650659374998
    },
    {
      "instrumentId": 1,
      "instrumentName": "Piano\u0000",
      "isPercussion": false,
      "pitch": 56,
      "velocity": 80,
      "startTime": 85.45081583333331,
      "duration": 0.05569076041666676,
      "endTime": 85.50650659374998
    },
    {
      "instrumentId": 0,
      "instrumentName": "Piano\u0000",
      "isPercussion": false,
      "pitch": 70,
      "velocity": 80,
      "startTime": 85.56313333333331,
      "duration": 0.10591630833333454,
      "endTime": 85.66904964166665
    },
    {
      "instrumentId": 0,
      "instrumentName": "Piano\u0000",
      "isPercussion": false,
      "pitch": 71,
      "velocity": 80,
      "startTime": 85.67511533333331,
      "duration": 0.11122462500000552,
      "endTime": 85.78633995833331
    },
    {
      "instrumentId": 1,
      "instrumentName": "Piano\u0000",
      "isPercussion": false,
      "pitch": 40,
      "velocity": 80,
      "startTime": 85.67511533333331,
      "duration": 0.05537962500000049,
      "endTime": 85.73049495833331
    },
    {
      "instrumentId": 0,
      "instrumentName": "Piano\u0000",
      "isPercussion": false,
      "pitch": 72,
      "velocity": 80,
      "startTime": 85.89820533333331,
      "duration": 0.11064803749999896,
      "endTime": 86.00885337083331
    },
    {
      "instrumentId": 1,
      "instrumentName": "Piano\u0000",
      "isPercussion": false,
      "pitch": 50,
      "velocity": 80,
      "startTime": 85.89820533333331,
      "duration": 0.05509253750000198,
      "endTime": 85.95329787083331
    },
    {
      "instrumentId": 1,
      "instrumentName": "Piano\u0000",
      "isPercussion": false,
      "pitch": 56,
      "velocity": 80,
      "startTime": 85.89820533333331,
      "duration": 0.05509253750000198,
      "endTime": 85.95329787083331
    },
    {
      "instrumentId": 0,
      "instrumentName": "Piano\u0000",
      "isPercussion": false,
      "pitch": 74,
      "velocity": 80,
      "startTime": 86.1201403333333,
      "duration": 0.11007742500000006,
      "endTime": 86.2302177583333
    },
    {
      "instrumentId": 1,
      "instrumentName": "Piano\u0000",
      "isPercussion": false,
      "pitch": 47,
      "velocity": 80,
      "startTime": 86.1201403333333,
      "duration": 0.22061542500000542,
      "endTime": 86.3407557583333
    },
    {
      "instrumentId": 0,
      "instrumentName": "Piano\u0000",
      "isPercussion": false,
      "pitch": 72,
      "velocity": 80,
      "startTime": 86.34121633333329,
      "duration": 0.10947245625000335,
      "endTime": 86.4506887895833
    },
    {
      "instrumentId": 1,
      "instrumentName": "Piano\u0000",
      "isPercussion": false,
      "pitch": 50,
      "velocity": 80,
      "startTime": 86.34121633333329,
      "duration": 0.054507206249994056,
      "endTime": 86.39572353958329
    },
    {
      "instrumentId": 1,
      "instrumentName": "Piano\u0000",
      "isPercussion": false,
      "pitch": 56,
      "velocity": 80,
      "startTime": 86.34121633333329,
      "duration": 0.054507206249994056,
      "endTime": 86.39572353958329
    },
    {
      "instrumentId": 0,
      "instrumentName": "Piano\u0000",
      "isPercussion": false,
      "pitch": 71,
      "velocity": 80,
      "startTime": 86.5607958333333,
      "duration": 0.10891379375000554,
      "endTime": 86.66970962708331
    },
    {
      "instrumentId": 1,
      "instrumentName": "Piano\u0000",
      "isPercussion": false,
      "pitch": 40,
      "velocity": 80,
      "startTime": 86.5607958333333,
      "duration": 0.054229043749998596,
      "endTime": 86.6150248770833
    },
    {
      "instrumentId": 0,
      "instrumentName": "Piano\u0000",
      "isPercussion": false,
      "pitch": 74,
      "velocity": 80,
      "startTime": 86.77925633333331,
      "duration": 0.10836060833332795,
      "endTime": 86.88761694166664
    },
    {
      "instrumentId": 1,
      "instrumentName": "Piano\u0000",
      "isPercussion": false,
      "pitch": 50,
      "velocity": 80,
      "startTime": 86.77925633333331,
      "duration": 0.053953608333330294,
      "endTime": 86.83320994166664
    },
    {
      "instrumentId": 1,
      "instrumentName": "Piano\u0000",
      "isPercussion": false,
      "pitch": 56,
      "velocity": 80,
      "startTime": 86.77925633333331,
      "duration": 0.053953608333330294,
      "endTime": 86.83320994166664
    },
    {
      "instrumentId": 0,
      "instrumentName": "Piano\u0000",
      "isPercussion": false,
      "pitch": 72,
      "velocity": 96,
      "startTime": 86.9966088333333,
      "duration": 0.14435199999999782,
      "endTime": 87.1409608333333
    },
    {
      "instrumentId": 1,
      "instrumentName": "Piano\u0000",
      "isPercussion": false,
      "pitch": 36,
      "velocity": 96,
      "startTime": 86.9966088333333,
      "duration": 0.14435199999999782,
      "endTime": 87.1409608333333
    },
    {
      "instrumentId": 1,
      "instrumentName": "Piano\u0000",
      "isPercussion": false,
      "pitch": 48,
      "velocity": 96,
      "startTime": 86.9966088333333,
      "duration": 0.14435199999999782,
      "endTime": 87.1409608333333
    },
    {
      "instrumentId": 0,
      "instrumentName": "Piano\u0000",
      "isPercussion": false,
      "pitch": 69,
      "velocity": 96,
      "startTime": 87.2131368333333,
      "duration": 0.14357533333333095,
      "endTime": 87.35671216666663
    },
    {
      "instrumentId": 1,
      "instrumentName": "Piano\u0000",
      "isPercussion": false,
      "pitch": 33,
      "velocity": 96,
      "startTime": 87.2131368333333,
      "duration": 0.14357533333333095,
      "endTime": 87.35671216666663
    },
    {
      "instrumentId": 1,
      "instrumentName": "Piano\u0000",
      "isPercussion": false,
      "pitch": 45,
      "velocity": 96,
      "startTime": 87.2131368333333,
      "duration": 0.14357533333333095,
      "endTime": 87.35671216666663
    },
    {
      "instrumentId": 0,
      "instrumentName": "Piano\u0000",
      "isPercussion": false,
      "pitch": 72,
      "velocity": 96,
      "startTime": 87.42849983333329,
      "duration": 0.14285733333333894,
      "endTime": 87.57135716666663
    },
    {
      "instrumentId": 1,
      "instrumentName": "Piano\u0000",
      "isPercussion": false,
      "pitch": 36,
      "velocity": 96,
      "startTime": 87.42849983333329,
      "duration": 0.14285733333333894,
      "endTime": 87.57135716666663
    },
    {
      "instrumentId": 1,
      "instrumentName": "Piano\u0000",
      "isPercussion": false,
      "pitch": 48,
      "velocity": 96,
      "startTime": 87.42849983333329,
      "duration": 0.14285733333333894,
      "endTime": 87.57135716666663
    },
    {
      "instrumentId": 0,
      "instrumentName": "Piano\u0000",
      "isPercussion": false,
      "pitch": 76,
      "velocity": 96,
      "startTime": 87.64278583333329,
      "duration": 0.14214666666666176,
      "endTime": 87.78493249999995
    },
    {
      "instrumentId": 1,
      "instrumentName": "Piano\u0000",
      "isPercussion": false,
      "pitch": 40,
      "velocity": 96,
      "startTime": 87.64278583333329,
      "duration": 0.14214666666666176,
      "endTime": 87.78493249999995
    },
    {
      "instrumentId": 1,
      "instrumentName": "Piano\u0000",
      "isPercussion": false,
      "pitch": 52,
      "velocity": 96,
      "startTime": 87.64278583333329,
      "duration": 0.14214666666666176,
      "endTime": 87.78493249999995
    },
    {
      "instrumentId": 0,
      "instrumentName": "Piano\u0000",
      "isPercussion": false,
      "pitch": 81,
      "velocity": 96,
      "startTime": 87.8560058333333,
      "duration": 0.14139266666666117,
      "endTime": 87.99739849999996
    },
    {
      "instrumentId": 1,
      "instrumentName": "Piano\u0000",
      "isPercussion": false,
      "pitch": 45,
      "velocity": 96,
      "startTime": 87.8560058333333,
      "duration": 0.14139266666666117,
      "endTime": 87.99739849999996
    },
    {
      "instrumentId": 1,
      "instrumentName": "Piano\u0000",
      "isPercussion": false,
      "pitch": 57,
      "velocity": 96,
      "startTime": 87.8560058333333,
      "duration": 0.14139266666666117,
      "endTime": 87.99739849999996
    },
    {
      "instrumentId": 0,
      "instrumentName": "Piano\u0000",
      "isPercussion": false,
      "pitch": 76,
      "velocity": 80,
      "startTime": 88.0680948333333,
      "duration": 0.10508282291667115,
      "endTime": 88.17317765624998
    },
    {
      "instrumentId": 0,
      "instrumentName": "Piano\u0000",
      "isPercussion": false,
      "pitch": 72,
      "velocity": 80,
      "startTime": 88.2791398333333,
      "duration": 0.10456797708333454,
      "endTime": 88.38370781041664
    },
    {
      "instrumentId": 1,
      "instrumentName": "Piano\u0000",
      "isPercussion": false,
      "pitch": 33,
      "velocity": 120,
      "startTime": 88.2791398333333,
      "duration": 0.36631511249998994,
      "endTime": 88.6454549458333
    },
    {
      "instrumentId": 1,
      "instrumentName": "Piano\u0000",
      "isPercussion": false,
      "pitch": 45,
      "velocity": 120,
      "startTime": 88.2791398333333,
      "duration": 0.3784611312499919,
      "endTime": 88.6576009645833
    },
    {
      "instrumentId": 0,
      "instrumentName": "Piano\u0000",
      "isPercussion": false,
      "pitch": 69,
      "velocity": 80,
      "startTime": 88.4891508333333,
      "duration": 0.10405761250000012,
      "endTime": 88.5932084458333
    },
    {
      "instrumentId": 1,
      "instrumentName": "Piano\u0000",
      "isPercussion": false,
      "pitch": 47,
      "velocity": 80,
      "startTime": 88.6589021458333,
      "duration": 0.011706581249995907,
      "endTime": 88.67060872708329
    },
    {
      "instrumentId": 1,
      "instrumentName": "Piano\u0000",
      "isPercussion": false,
      "pitch": 48,
      "velocity": 80,
      "startTime": 88.67190945833329,
      "duration": 0.011702475000006984,
      "endTime": 88.6836119333333
    },
    {
      "instrumentId": 1,
      "instrumentName": "Piano\u0000",
      "isPercussion": false,
      "pitch": 49,
      "velocity": 80,
      "startTime": 88.68491220833329,
      "duration": 0.011698425000005841,
      "endTime": 88.6966106333333
    },
    {
      "instrumentId": 0,
      "instrumentName": "Piano\u0000",
      "isPercussion": false,
      "pitch": 74,
      "velocity": 80,
      "startTime": 88.69791045833328,
      "duration": 0.31091746458332636,
      "endTime": 89.00882792291661
    },
    {
      "instrumentId": 1,
      "instrumentName": "Piano\u0000",
      "isPercussion": false,
      "pitch": 38,
      "velocity": 80,
      "startTime": 88.69791045833328,
      "duration": 0.2074668749999944,
      "endTime": 88.90537733333328
    },
    {
      "instrumentId": 1,
      "instrumentName": "Piano\u0000",
      "isPercussion": false,
      "pitch": 50,
      "velocity": 80,
      "startTime": 88.69791045833328,
      "duration": 0.2074668749999944,
      "endTime": 88.90537733333328
    },
    {
      "instrumentId": 1,
      "instrumentName": "Piano\u0000",
      "isPercussion": false,
      "pitch": 53,
      "velocity": 80,
      "startTime": 88.90581045833328,
      "duration": 0.05129321458333891,
      "endTime": 88.95710367291662
    },
    {
      "instrumentId": 1,
      "instrumentName": "Piano\u0000",
      "isPercussion": false,
      "pitch": 57,
      "velocity": 80,
      "startTime": 88.90581045833328,
      "duration": 0.05129321458333891,
      "endTime": 88.95710367291662
    },
    {
      "instrumentId": 0,
      "instrumentName": "Piano\u0000",
      "isPercussion": false,
      "pitch": 73,
      "velocity": 80,
      "startTime": 89.00925895833328,
      "duration": 0.09760905416666787,
      "endTime": 89.10686801249994
    },
    {
      "instrumentId": 0,
      "instrumentName": "Piano\u0000",
      "isPercussion": false,
      "pitch": 74,
      "velocity": 80,
      "startTime": 89.11245795833328,
      "duration": 0.10252253541666789,
      "endTime": 89.21498049374995
    },
    {
      "instrumentId": 1,
      "instrumentName": "Piano\u0000",
      "isPercussion": false,
      "pitch": 45,
      "velocity": 80,
      "startTime": 89.11245795833328,
      "duration": 0.20547403541667109,
      "endTime": 89.31793199374995
    },
    {
      "instrumentId": 0,
      "instrumentName": "Piano\u0000",
      "isPercussion": false,
      "pitch": 76,
      "velocity": 80,
      "startTime": 89.31836095833329,
      "duration": 0.10199723333333566,
      "endTime": 89.42035819166662
    },
    {
      "instrumentId": 1,
      "instrumentName": "Piano\u0000",
      "isPercussion": false,
      "pitch": 53,
      "velocity": 80,
      "startTime": 89.31836095833329,
      "duration": 0.05078523333332896,
      "endTime": 89.36914619166662
    },
    {
      "instrumentId": 1,
      "instrumentName": "Piano\u0000",
      "isPercussion": false,
      "pitch": 57,
      "velocity": 80,
      "startTime": 89.31836095833329,
      "duration": 0.05078523333332896,
      "endTime": 89.36914619166662
    },
    {
      "instrumentId": 0,
      "instrumentName": "Piano\u0000",
      "isPercussion": false,
      "pitch": 77,
      "velocity": 80,
      "startTime": 89.52296495833329,
      "duration": 0.10151226249999468,
      "endTime": 89.62447722083328
    },
    {
      "instrumentId": 1,
      "instrumentName": "Piano\u0000",
      "isPercussion": false,
      "pitch": 50,
      "velocity": 80,
      "startTime": 89.52296495833329,
      "duration": 0.20344926250000128,
      "endTime": 89.72641422083329
    },
    {
      "instrumentId": 0,
      "instrumentName": "Piano\u0000",
      "isPercussion": false,
      "pitch": 76,
      "velocity": 80,
      "startTime": 89.72683895833329,
      "duration": 0.10103127499999687,
      "endTime": 89.82787023333329
    },
    {
      "instrumentId": 1,
      "instrumentName": "Piano\u0000",
      "isPercussion": false,
      "pitch": 53,
      "velocity": 80,
      "startTime": 89.72683895833329,
      "duration": 0.05030427500000201,
      "endTime": 89.77714323333329
    },
    {
      "instrumentId": 1,
      "instrumentName": "Piano\u0000",
      "isPercussion": false,
      "pitch": 57,
      "velocity": 80,
      "startTime": 89.72683895833329,
      "duration": 0.05030427500000201,
      "endTime": 89.77714323333329
    },
    {
      "instrumentId": 0,
      "instrumentName": "Piano\u0000",
      "isPercussion": false,
      "pitch": 74,
      "velocity": 80,
      "startTime": 89.92950745833329,
      "duration": 0.10055526666666026,
      "endTime": 90.03006272499995
    },
    {
      "instrumentId": 1,
      "instrumentName": "Piano\u0000",
      "isPercussion": false,
      "pitch": 45,
      "velocity": 80,
      "startTime": 89.92950745833329,
      "duration": 0.2015312666666631,
      "endTime": 90.13103872499995
    },
    {
      "instrumentId": 0,
      "instrumentName": "Piano\u0000",
      "isPercussion": false,
      "pitch": 77,
      "velocity": 80,
      "startTime": 90.1314594583333,
      "duration": 0.10005037916666026,
      "endTime": 90.23150983749996
    },
    {
      "instrumentId": 1,
      "instrumentName": "Piano\u0000",
      "isPercussion": false,
      "pitch": 53,
      "velocity": 80,
      "startTime": 90.1314594583333,
      "duration": 0.049815879166672516,
      "endTime": 90.18127533749997
    },
    {
      "instrumentId": 1,
      "instrumentName": "Piano\u0000",
      "isPercussion": false,
      "pitch": 57,
      "velocity": 80,
      "startTime": 90.1314594583333,
      "duration": 0.049815879166672516,
      "endTime": 90.18127533749997
    },
    {
      "instrumentId": 0,
      "instrumentName": "Piano\u0000",
      "isPercussion": false,
      "pitch": 76,
      "velocity": 80,
      "startTime": 90.3321624583333,
      "duration": 0.2991207687500008,
      "endTime": 90.6312832270833
    },
    {
      "instrumentId": 1,
      "instrumentName": "Piano\u0000",
      "isPercussion": false,
      "pitch": 48,
      "velocity": 80,
      "startTime": 90.3321624583333,
      "duration": 0.19958333333333655,
      "endTime": 90.53174579166664
    },
    {
      "instrumentId": 1,
      "instrumentName": "Piano\u0000",
      "isPercussion": false,
      "pitch": 52,
      "velocity": 80,
      "startTime": 90.5321624583333,
      "duration": 0.04935301874999709,
      "endTime": 90.5815154770833
    },
    {
      "instrumentId": 1,
      "instrumentName": "Piano\u0000",
      "isPercussion": false,
      "pitch": 57,
      "velocity": 80,
      "startTime": 90.5321624583333,
      "duration": 0.04935301874999709,
      "endTime": 90.5815154770833
    },
    {
      "instrumentId": 0,
      "instrumentName": "Piano\u0000",
      "isPercussion": false,
      "pitch": 74,
      "velocity": 80,
      "startTime": 90.6316979583333,
      "duration": 0.09392597916667,
      "endTime": 90.72562393749998
    },
    {
      "instrumentId": 0,
      "instrumentName": "Piano\u0000",
      "isPercussion": false,
      "pitch": 72,
      "velocity": 80,
      "startTime": 90.7310029583333,
      "duration": 0.09862982291666356,
      "endTime": 90.82963278124997
    },
    {
      "instrumentId": 1,
      "instrumentName": "Piano\u0000",
      "isPercussion": false,
      "pitch": 45,
      "velocity": 80,
      "startTime": 90.7310029583333,
      "duration": 0.049108572916665594,
      "endTime": 90.78011153124997
    },
    {
      "instrumentId": 0,
      "instrumentName": "Piano\u0000",
      "isPercussion": false,
      "pitch": 74,
      "velocity": 80,
      "startTime": 90.9288594583333,
      "duration": 0.09817622083333788,
      "endTime": 91.02703567916664
    },
    {
      "instrumentId": 1,
      "instrumentName": "Piano\u0000",
      "isPercussion": false,
      "pitch": 52,
      "velocity": 80,
      "startTime": 90.9288594583333,
      "duration": 0.04888272083333334,
      "endTime": 90.97774217916664
    },
    {
      "instrumentId": 1,
      "instrumentName": "Piano\u0000",
      "isPercussion": false,
      "pitch": 57,
      "velocity": 80,
      "startTime": 90.9288594583333,
      "duration": 0.04888272083333334,
      "endTime": 90.97774217916664
    },
    {
      "instrumentId": 0,
      "instrumentName": "Piano\u0000",
      "isPercussion": false,
      "pitch": 76,
      "velocity": 80,
      "startTime": 91.1258069583333,
      "duration": 0.18604855208333504,
      "endTime": 91.31185551041663
    },
    {
      "instrumentId": 1,
      "instrumentName": "Piano\u0000",
      "isPercussion": false,
      "pitch": 48,
      "velocity": 80,
      "startTime": 91.1258069583333,
      "duration": 0.1958621020833391,
      "endTime": 91.32166906041664
    },
    {
      "instrumentId": 1,
      "instrumentName": "Piano\u0000",
      "isPercussion": false,
      "pitch": 52,
      "velocity": 80,
      "startTime": 91.3220779583333,
      "duration": 0.048436966666670855,
      "endTime": 91.37051492499997
    },
    {
      "instrumentId": 1,
      "instrumentName": "Piano\u0000",
      "isPercussion": false,
      "pitch": 57,
      "velocity": 80,
      "startTime": 91.3220779583333,
      "duration": 0.048436966666670855,
      "endTime": 91.37051492499997
    },
    {
      "instrumentId": 0,
      "instrumentName": "Piano\u0000",
      "isPercussion": false,
      "pitch": 81,
      "velocity": 80,
      "startTime": 91.51719995833331,
      "duration": 0.5509108874999953,
      "endTime": 92.0681108458333
    },
    {
      "instrumentId": 1,
      "instrumentName": "Piano\u0000",
      "isPercussion": false,
      "pitch": 45,
      "velocity": 80,
      "startTime": 91.51719995833331,
      "duration": 0.048201445833328194,
      "endTime": 91.56540140416664
    },
    {
      "instrumentId": 1,
      "instrumentName": "Piano\u0000",
      "isPercussion": false,
      "pitch": 52,
      "velocity": 80,
      "startTime": 91.7114059583333,
      "duration": 0.047983775000005835,
      "endTime": 91.75938973333331
    },
    {
      "instrumentId": 1,
      "instrumentName": "Piano\u0000",
      "isPercussion": false,
      "pitch": 57,
      "velocity": 80,
      "startTime": 91.7114059583333,
      "duration": 0.047983775000005835,
      "endTime": 91.75938973333331
    },
    {
      "instrumentId": 1,
      "instrumentName": "Piano\u0000",
      "isPercussion": false,
      "pitch": 47,
      "velocity": 80,
      "startTime": 91.9047359583333,
      "duration": 0.19227658750000387,
      "endTime": 92.09701254583331
    },
    {
      "instrumentId": 0,
      "instrumentName": "Piano\u0000",
      "isPercussion": false,
      "pitch": 74,
      "velocity": 80,
      "startTime": 92.0974139583333,
      "duration": 0.1815760520833294,
      "endTime": 92.27899001041663
    },
    {
      "instrumentId": 1,
      "instrumentName": "Piano\u0000",
      "isPercussion": false,
      "pitch": 53,
      "velocity": 80,
      "startTime": 92.0974139583333,
      "duration": 0.047539260416670004,
      "endTime": 92.14495321874998
    },
    {
      "instrumentId": 1,
      "instrumentName": "Piano\u0000",
      "isPercussion": false,
      "pitch": 57,
      "velocity": 80,
      "startTime": 92.0974139583333,
      "duration": 0.047539260416670004,
      "endTime": 92.14495321874998
    },
    {
      "instrumentId": 1,
      "instrumentName": "Piano\u0000",
      "isPercussion": false,
      "pitch": 50,
      "velocity": 80,
      "startTime": 92.2889549583333,
      "duration": 0.04732729166666161,
      "endTime": 92.33628224999997
    },
    {
      "instrumentId": 0,
      "instrumentName": "Piano\u0000",
      "isPercussion": false,
      "pitch": 77,
      "velocity": 80,
      "startTime": 92.4796429583333,
      "duration": 0.09463105416666906,
      "endTime": 92.57427401249997
    },
    {
      "instrumentId": 1,
      "instrumentName": "Piano\u0000",
      "isPercussion": false,
      "pitch": 53,
      "velocity": 80,
      "startTime": 92.4796429583333,
      "duration": 0.04711755416666108,
      "endTime": 92.52676051249996
    },
    {
      "instrumentId": 1,
      "instrumentName": "Piano\u0000",
      "isPercussion": false,
      "pitch": 57,
      "velocity": 80,
      "startTime": 92.4796429583333,
      "duration": 0.04711755416666108,
      "endTime": 92.52676051249996
    },
    {
      "instrumentId": 0,
      "instrumentName": "Piano\u0000",
      "isPercussion": false,
      "pitch": 76,
      "velocity": 80,
      "startTime": 92.6694864583333,
      "duration": 0.09421330208333245,
      "endTime": 92.76369976041663
    },
    {
      "instrumentId": 1,
      "instrumentName": "Piano\u0000",
      "isPercussion": false,
      "pitch": 40,
      "velocity": 80,
      "startTime": 92.6694864583333,
      "duration": 0.09421330208333245,
      "endTime": 92.76369976041663
    },
    {
      "instrumentId": 1,
      "instrumentName": "Piano\u0000",
      "isPercussion": false,
      "pitch": 44,
      "velocity": 80,
      "startTime": 92.6694864583333,
      "duration": 0.09421330208333245,
      "endTime": 92.76369976041663
    },
    {
      "instrumentId": 1,
      "instrumentName": "Piano\u0000",
      "isPercussion": false,
      "pitch": 52,
      "velocity": 80,
      "startTime": 92.6694864583333,
      "duration": 0.09421330208333245,
      "endTime": 92.76369976041663
    },
    {
      "instrumentId": 0,
      "instrumentName": "Piano\u0000",
      "isPercussion": false,
      "pitch": 72,
      "velocity": 80,
      "startTime": 92.8587014583333,
      "duration": 0.09376965833332918,
      "endTime": 92.95247111666663
    },
    {
      "instrumentId": 1,
      "instrumentName": "Piano\u0000",
      "isPercussion": false,
      "pitch": 36,
      "velocity": 80,
      "startTime": 92.8587014583333,
      "duration": 0.09376965833332918,
      "endTime": 92.95247111666663
    },
    {
      "instrumentId": 1,
      "instrumentName": "Piano\u0000",
      "isPercussion": false,
      "pitch": 48,
      "velocity": 80,
      "startTime": 92.8587014583333,
      "duration": 0.09376965833332918,
      "endTime": 92.95247111666663
    },
    {
      "instrumentId": 0,
      "instrumentName": "Piano\u0000",
      "isPercussion": false,
      "pitch": 74,
      "velocity": 80,
      "startTime": 93.0470254583333,
      "duration": 0.09335937500000568,
      "endTime": 93.1403848333333
    },
    {
      "instrumentId": 1,
      "instrumentName": "Piano\u0000",
      "isPercussion": false,
      "pitch": 38,
      "velocity": 80,
      "startTime": 93.0470254583333,
      "duration": 0.09335937500000568,
      "endTime": 93.1403848333333
    },
    {
      "instrumentId": 1,
      "instrumentName": "Piano\u0000",
      "isPercussion": false,
      "pitch": 50,
      "velocity": 80,
      "startTime": 93.0470254583333,
      "duration": 0.09335937500000568,
      "endTime": 93.1403848333333
    },
    {
      "instrumentId": 0,
      "instrumentName": "Piano\u0000",
      "isPercussion": false,
      "pitch": 71,
      "velocity": 80,
      "startTime": 93.2345254583333,
      "duration": 0.09295257708333793,
      "endTime": 93.32747803541663
    },
    {
      "instrumentId": 1,
      "instrumentName": "Piano\u0000",
      "isPercussion": false,
      "pitch": 35,
      "velocity": 80,
      "startTime": 93.2345254583333,
      "duration": 0.09295257708333793,
      "endTime": 93.32747803541663
    },
    {
      "instrumentId": 1,
      "instrumentName": "Piano\u0000",
      "isPercussion": false,
      "pitch": 47,
      "velocity": 80,
      "startTime": 93.2345254583333,
      "duration": 0.09295257708333793,
      "endTime": 93.32747803541663
    },
    {
      "instrumentId": 0,
      "instrumentName": "Piano\u0000",
      "isPercussion": false,
      "pitch": 69,
      "velocity": 80,
      "startTime": 93.4212084583333,
      "duration": 0.1761380833333277,
      "endTime": 93.59734654166662
    },
    {
      "instrumentId": 1,
      "instrumentName": "Piano\u0000",
      "isPercussion": false,
      "pitch": 33,
      "velocity": 80,
      "startTime": 93.4212084583333,
      "duration": 0.09252088333333575,
      "endTime": 93.51372934166663
    },
    {
      "instrumentId": 1,
      "instrumentName": "Piano\u0000",
      "isPercussion": false,
      "pitch": 45,
      "velocity": 80,
      "startTime": 93.4212084583333,
      "duration": 0.09252088333333575,
      "endTime": 93.51372934166663
    },
    {
      "instrumentId": 0,
      "instrumentName": "Piano\u0000",
      "isPercussion": false,
      "pitch": 64,
      "velocity": 80,
      "startTime": 93.9770524583333,
      "duration": 0.09133285416666581,
      "endTime": 94.06838531249997
    },
    {
      "instrumentId": 0,
      "instrumentName": "Piano\u0000",
      "isPercussion": false,
      "pitch": 68,
      "velocity": 80,
      "startTime": 93.9770524583333,
      "duration": 0.09133285416666581,
      "endTime": 94.06838531249997
    },
    {
      "instrumentId": 0,
      "instrumentName": "Piano\u0000",
      "isPercussion": false,
      "pitch": 71,
      "velocity": 80,
      "startTime": 93.9770524583333,
      "duration": 0.09133285416666581,
      "endTime": 94.06838531249997
    },
    {
      "instrumentId": 0,
      "instrumentName": "Piano\u0000",
      "isPercussion": false,
      "pitch": 76,
      "velocity": 80,
      "startTime": 93.9770524583333,
      "duration": 0.09133285416666581,
      "endTime": 94.06838531249997
    },
    {
      "instrumentId": 1,
      "instrumentName": "Piano\u0000",
      "isPercussion": false,
      "pitch": 40,
      "velocity": 80,
      "startTime": 93.9770524583333,
      "duration": 0.09133285416666581,
      "endTime": 94.06838531249997
    },
    {
      "instrumentId": 1,
      "instrumentName": "Piano\u0000",
      "isPercussion": false,
      "pitch": 52,
      "velocity": 80,
      "startTime": 93.9770524583333,
      "duration": 0.09133285416666581,
      "endTime": 94.06838531249997
    },
    {
      "instrumentId": 0,
      "instrumentName": "Piano\u0000",
      "isPercussion": false,
      "pitch": 69,
      "velocity": 96,
      "startTime": 94.1604824583333,
      "duration": 0.12172866666666948,
      "endTime": 94.28221112499998
    },
    {
      "instrumentId": 0,
      "instrumentName": "Piano\u0000",
      "isPercussion": false,
      "pitch": 72,
      "velocity": 96,
      "startTime": 94.1604824583333,
      "duration": 0.12172866666666948,
      "endTime": 94.28221112499998
    },
    {
      "instrumentId": 0,
      "instrumentName": "Piano\u0000",
      "isPercussion": false,
      "pitch": 76,
      "velocity": 96,
      "startTime": 94.1604824583333,
      "duration": 0.12172866666666948,
      "endTime": 94.28221112499998
    },
    {
      "instrumentId": 0,
      "instrumentName": "Piano\u0000",
      "isPercussion": false,
      "pitch": 81,
      "velocity": 96,
      "startTime": 94.1604824583333,
      "duration": 0.12172866666666948,
      "endTime": 94.28221112499998
    },
    {
      "instrumentId": 1,
      "instrumentName": "Piano\u0000",
      "isPercussion": false,
      "pitch": 45,
      "velocity": 96,
      "startTime": 94.1604824583333,
      "duration": 0.12172866666666948,
      "endTime": 94.28221112499998
    },
    {
      "instrumentId": 1,
      "instrumentName": "Piano\u0000",
      "isPercussion": false,
      "pitch": 52,
      "velocity": 96,
      "startTime": 94.1604824583333,
      "duration": 0.12172866666666948,
      "endTime": 94.28221112499998
    },
    {
      "instrumentId": 1,
      "instrumentName": "Piano\u0000",
      "isPercussion": false,
      "pitch": 57,
      "velocity": 96,
      "startTime": 94.1604824583333,
      "duration": 0.12172866666666948,
      "endTime": 94.28221112499998
    },
    {
      "instrumentId": 0,
      "instrumentName": "Piano\u0000",
      "isPercussion": false,
      "pitch": 64,
      "velocity": 96,
      "startTime": 94.88852945833331,
      "duration": 0.04507571249999387,
      "endTime": 94.9336051708333
    },
    {
      "instrumentId": 1,
      "instrumentName": "Piano\u0000",
      "isPercussion": false,
      "pitch": 45,
      "velocity": 96,
      "startTime": 94.88852945833331,
      "duration": 0.1814392124999955,
      "endTime": 95.0699686708333
    },
    {
      "instrumentId": 0,
      "instrumentName": "Piano\u0000",
      "isPercussion": false,
      "pitch": 64,
      "velocity": 96,
      "startTime": 94.9794384583333,
      "duration": 0.04507571249999387,
      "endTime": 95.0245141708333
    },
    {
      "instrumentId": 0,
      "instrumentName": "Piano\u0000",
      "isPercussion": false,
      "pitch": 64,
      "velocity": 96,
      "startTime": 95.0703474583333,
      "duration": 0.04507571249999387,
      "endTime": 95.1154231708333
    },
    {
      "instrumentId": 1,
      "instrumentName": "Piano\u0000",
      "isPercussion": false,
      "pitch": 48,
      "velocity": 96,
      "startTime": 95.0703474583333,
      "duration": 0.04507571249999387,
      "endTime": 95.1154231708333
    },
    {
      "instrumentId": 1,
      "instrumentName": "Piano\u0000",
      "isPercussion": false,
      "pitch": 52,
      "velocity": 96,
      "startTime": 95.0703474583333,
      "duration": 0.04507571249999387,
      "endTime": 95.1154231708333
    },
    {
      "instrumentId": 0,
      "instrumentName": "Piano\u0000",
      "isPercussion": false,
      "pitch": 64,
      "velocity": 96,
      "startTime": 95.1612564583333,
      "duration": 0.04507571250000808,
      "endTime": 95.2063321708333
    },
    {
      "instrumentId": 0,
      "instrumentName": "Piano\u0000",
      "isPercussion": false,
      "pitch": 64,
      "velocity": 96,
      "startTime": 95.25216545833331,
      "duration": 0.04507571249999387,
      "endTime": 95.2972411708333
    },
    {
      "instrumentId": 1,
      "instrumentName": "Piano\u0000",
      "isPercussion": false,
      "pitch": 40,
      "velocity": 96,
      "startTime": 95.25216545833331,
      "duration": 0.04507571249999387,
      "endTime": 95.2972411708333
    },
    {
      "instrumentId": 0,
      "instrumentName": "Piano\u0000",
      "isPercussion": false,
      "pitch": 64,
      "velocity": 96,
      "startTime": 95.3430744583333,
      "duration": 0.04507571249999387,
      "endTime": 95.3881501708333
    },
    {
      "instrumentId": 0,
      "instrumentName": "Piano\u0000",
      "isPercussion": false,
      "pitch": 64,
      "velocity": 96,
      "startTime": 95.4339834583333,
      "duration": 0.04507571250000808,
      "endTime": 95.47905917083331
    },
    {
      "instrumentId": 1,
      "instrumentName": "Piano\u0000",
      "isPercussion": false,
      "pitch": 48,
      "velocity": 96,
      "startTime": 95.4339834583333,
      "duration": 0.04507571250000808,
      "endTime": 95.47905917083331
    },
    {
      "instrumentId": 1,
      "instrumentName": "Piano\u0000",
      "isPercussion": false,
      "pitch": 52,
      "velocity": 96,
      "startTime": 95.4339834583333,
      "duration": 0.04507571250000808,
      "endTime": 95.47905917083331
    },
    {
      "instrumentId": 0,
      "instrumentName": "Piano\u0000",
      "isPercussion": false,
      "pitch": 64,
      "velocity": 96,
      "startTime": 95.5248924583333,
      "duration": 0.04507571250000808,
      "endTime": 95.5699681708333
    },
    {
      "instrumentId": 0,
      "instrumentName": "Piano\u0000",
      "isPercussion": false,
      "pitch": 64,
      "velocity": 96,
      "startTime": 95.61580145833331,
      "duration": 0.04507571249999387,
      "endTime": 95.6608771708333
    },
    {
      "instrumentId": 1,
      "instrumentName": "Piano\u0000",
      "isPercussion": false,
      "pitch": 45,
      "velocity": 96,
      "startTime": 95.61580145833331,
      "duration": 0.04507571249999387,
      "endTime": 95.6608771708333
    },
    {
      "instrumentId": 0,
      "instrumentName": "Piano\u0000",
      "isPercussion": false,
      "pitch": 64,
      "velocity": 96,
      "startTime": 95.7067104583333,
      "duration": 0.04507571249999387,
      "endTime": 95.7517861708333
    },
    {
      "instrumentId": 0,
      "instrumentName": "Piano\u0000",
      "isPercussion": false,
      "pitch": 64,
      "velocity": 96,
      "startTime": 95.7976194583333,
      "duration": 0.04507571250000808,
      "endTime": 95.84269517083331
    },
    {
      "instrumentId": 1,
      "instrumentName": "Piano\u0000",
      "isPercussion": false,
      "pitch": 48,
      "velocity": 96,
      "startTime": 95.7976194583333,
      "duration": 0.04507571250000808,
      "endTime": 95.84269517083331
    },
    {
      "instrumentId": 1,
      "instrumentName": "Piano\u0000",
      "isPercussion": false,
      "pitch": 52,
      "velocity": 96,
      "startTime": 95.7976194583333,
      "duration": 0.04507571250000808,
      "endTime": 95.84269517083331
    },
    {
      "instrumentId": 0,
      "instrumentName": "Piano\u0000",
      "isPercussion": false,
      "pitch": 64,
      "velocity": 96,
      "startTime": 95.8885284583333,
      "duration": 0.04507571250000808,
      "endTime": 95.9336041708333
    },
    {
      "instrumentId": 0,
      "instrumentName": "Piano\u0000",
      "isPercussion": false,
      "pitch": 64,
      "velocity": 96,
      "startTime": 95.97943745833331,
      "duration": 0.04507571249999387,
      "endTime": 96.0245131708333
    },
    {
      "instrumentId": 1,
      "instrumentName": "Piano\u0000",
      "isPercussion": false,
      "pitch": 40,
      "velocity": 96,
      "startTime": 95.97943745833331,
      "duration": 0.04507571249999387,
      "endTime": 96.0245131708333
    },
    {
      "instrumentId": 0,
      "instrumentName": "Piano\u0000",
      "isPercussion": false,
      "pitch": 64,
      "velocity": 96,
      "startTime": 96.0703464583333,
      "duration": 0.04507571249999387,
      "endTime": 96.1154221708333
    },
    {
      "instrumentId": 0,
      "instrumentName": "Piano\u0000",
      "isPercussion": false,
      "pitch": 64,
      "velocity": 96,
      "startTime": 96.1612554583333,
      "duration": 0.04507571250000808,
      "endTime": 96.20633117083331
    },
    {
      "instrumentId": 1,
      "instrumentName": "Piano\u0000",
      "isPercussion": false,
      "pitch": 48,
      "velocity": 96,
      "startTime": 96.1612554583333,
      "duration": 0.04507571250000808,
      "endTime": 96.20633117083331
    },
    {
      "instrumentId": 1,
      "instrumentName": "Piano\u0000",
      "isPercussion": false,
      "pitch": 52,
      "velocity": 96,
      "startTime": 96.1612554583333,
      "duration": 0.04507571250000808,
      "endTime": 96.20633117083331
    },
    {
      "instrumentId": 0,
      "instrumentName": "Piano\u0000",
      "isPercussion": false,
      "pitch": 64,
      "velocity": 96,
      "startTime": 96.2521644583333,
      "duration": 0.04507571250000808,
      "endTime": 96.2972401708333
    },
    {
      "instrumentId": 0,
      "instrumentName": "Piano\u0000",
      "isPercussion": false,
      "pitch": 64,
      "velocity": 96,
      "startTime": 96.34307345833331,
      "duration": 0.04507571249999387,
      "endTime": 96.3881491708333
    },
    {
      "instrumentId": 1,
      "instrumentName": "Piano\u0000",
      "isPercussion": false,
      "pitch": 45,
      "velocity": 96,
      "startTime": 96.34307345833331,
      "duration": 0.04507571249999387,
      "endTime": 96.3881491708333
    },
    {
      "instrumentId": 0,
      "instrumentName": "Piano\u0000",
      "isPercussion": false,
      "pitch": 64,
      "velocity": 96,
      "startTime": 96.4339824583333,
      "duration": 0.04507571249999387,
      "endTime": 96.4790581708333
    },
    {
      "instrumentId": 0,
      "instrumentName": "Piano\u0000",
      "isPercussion": false,
      "pitch": 64,
      "velocity": 96,
      "startTime": 96.5248914583333,
      "duration": 0.04507571250000808,
      "endTime": 96.56996717083331
    },
    {
      "instrumentId": 1,
      "instrumentName": "Piano\u0000",
      "isPercussion": false,
      "pitch": 48,
      "velocity": 96,
      "startTime": 96.5248914583333,
      "duration": 0.04507571250000808,
      "endTime": 96.56996717083331
    },
    {
      "instrumentId": 1,
      "instrumentName": "Piano\u0000",
      "isPercussion": false,
      "pitch": 52,
      "velocity": 96,
      "startTime": 96.5248914583333,
      "duration": 0.04507571250000808,
      "endTime": 96.56996717083331
    },
    {
      "instrumentId": 0,
      "instrumentName": "Piano\u0000",
      "isPercussion": false,
      "pitch": 64,
      "velocity": 96,
      "startTime": 96.6158004583333,
      "duration": 0.04507571250000808,
      "endTime": 96.6608761708333
    },
    {
      "instrumentId": 0,
      "instrumentName": "Piano\u0000",
      "isPercussion": false,
      "pitch": 64,
      "velocity": 96,
      "startTime": 96.70670945833331,
      "duration": 0.09053021249999915,
      "endTime": 96.7972396708333
    },
    {
      "instrumentId": 1,
      "instrumentName": "Piano\u0000",
      "isPercussion": false,
      "pitch": 40,
      "velocity": 96,
      "startTime": 96.70670945833331,
      "duration": 0.04507571249999387,
      "endTime": 96.7517851708333
    },
    {
      "instrumentId": 0,
      "instrumentName": "Piano\u0000",
      "isPercussion": false,
      "pitch": 65,
      "velocity": 96,
      "startTime": 96.7976184583333,
      "duration": 0.09053021249999915,
      "endTime": 96.8881486708333
    },
    {
      "instrumentId": 0,
      "instrumentName": "Piano\u0000",
      "isPercussion": false,
      "pitch": 64,
      "velocity": 96,
      "startTime": 96.8885274583333,
      "duration": 0.09053021249999915,
      "endTime": 96.9790576708333
    },
    {
      "instrumentId": 1,
      "instrumentName": "Piano\u0000",
      "isPercussion": false,
      "pitch": 48,
      "velocity": 96,
      "startTime": 96.8885274583333,
      "duration": 0.04507571250000808,
      "endTime": 96.93360317083331
    },
    {
      "instrumentId": 1,
      "instrumentName": "Piano\u0000",
      "isPercussion": false,
      "pitch": 52,
      "velocity": 96,
      "startTime": 96.8885274583333,
      "duration": 0.04507571250000808,
      "endTime": 96.93360317083331
    },
    {
      "instrumentId": 0,
      "instrumentName": "Piano\u0000",
      "isPercussion": false,
      "pitch": 63,
      "velocity": 96,
      "startTime": 96.9794364583333,
      "duration": 0.08598476250000431,
      "endTime": 97.0654212208333
    },
    {
      "instrumentId": 0,
      "instrumentName": "Piano\u0000",
      "isPercussion": false,
      "pitch": 64,
      "velocity": 96,
      "startTime": 97.0703454583333,
      "duration": 0.04507571249999387,
      "endTime": 97.1154211708333
    },
    {
      "instrumentId": 1,
      "instrumentName": "Piano\u0000",
      "isPercussion": false,
      "pitch": 45,
      "velocity": 96,
      "startTime": 97.0703454583333,
      "duration": 0.04507571249999387,
      "endTime": 97.1154211708333
    },
    {
      "instrumentId": 0,
      "instrumentName": "Piano\u0000",
      "isPercussion": false,
      "pitch": 69,
      "velocity": 96,
      "startTime": 97.2521634583333,
      "duration": 0.04507571250000808,
      "endTime": 97.29723917083331
    },
    {
      "instrumentId": 1,
      "instrumentName": "Piano\u0000",
      "isPercussion": false,
      "pitch": 48,
      "velocity": 96,
      "startTime": 97.2521634583333,
      "duration": 0.04507571250000808,
      "endTime": 97.29723917083331
    },
    {
      "instrumentId": 1,
      "instrumentName": "Piano\u0000",
      "isPercussion": false,
      "pitch": 52,
      "velocity": 96,
      "startTime": 97.2521634583333,
      "duration": 0.04507571250000808,
      "endTime": 97.29723917083331
    },
    {
      "instrumentId": 0,
      "instrumentName": "Piano\u0000",
      "isPercussion": false,
      "pitch": 72,
      "velocity": 96,
      "startTime": 97.4339814583333,
      "duration": 0.3450754124999946,
      "endTime": 97.7790568708333
    },
    {
      "instrumentId": 1,
      "instrumentName": "Piano\u0000",
      "isPercussion": false,
      "pitch": 40,
      "velocity": 96,
      "startTime": 97.4339814583333,
      "duration": 0.04507571249999387,
      "endTime": 97.4790571708333
    },
    {
      "instrumentId": 1,
      "instrumentName": "Piano\u0000",
      "isPercussion": false,
      "pitch": 48,
      "velocity": 96,
      "startTime": 97.6157994583333,
      "duration": 0.04507571250000808,
      "endTime": 97.66087517083331
    },
    {
      "instrumentId": 1,
      "instrumentName": "Piano\u0000",
      "isPercussion": false,
      "pitch": 52,
      "velocity": 96,
      "startTime": 97.6157994583333,
      "duration": 0.04507571250000808,
      "endTime": 97.66087517083331
    },
    {
      "instrumentId": 0,
      "instrumentName": "Piano\u0000",
      "isPercussion": false,
      "pitch": 74,
      "velocity": 96,
      "startTime": 97.7976174583333,
      "duration": 0.04507571249999387,
      "endTime": 97.8426931708333
    },
    {
      "instrumentId": 1,
      "instrumentName": "Piano\u0000",
      "isPercussion": false,
      "pitch": 44,
      "velocity": 96,
      "startTime": 97.7976174583333,
      "duration": 0.04507571249999387,
      "endTime": 97.8426931708333
    },
    {
      "instrumentId": 0,
      "instrumentName": "Piano\u0000",
      "isPercussion": false,
      "pitch": 74,
      "velocity": 96,
      "startTime": 97.8885264583333,
      "duration": 0.04507571249999387,
      "endTime": 97.9336021708333
    },
    {
      "instrumentId": 0,
      "instrumentName": "Piano\u0000",
      "isPercussion": false,
      "pitch": 74,
      "velocity": 96,
      "startTime": 97.9794354583333,
      "duration": 0.04507571250000808,
      "endTime": 98.0245111708333
    },
    {
      "instrumentId": 1,
      "instrumentName": "Piano\u0000",
      "isPercussion": false,
      "pitch": 50,
      "velocity": 96,
      "startTime": 97.9794354583333,
      "duration": 0.04507571250000808,
      "endTime": 98.0245111708333
    },
    {
      "instrumentId": 1,
      "instrumentName": "Piano\u0000",
      "isPercussion": false,
      "pitch": 52,
      "velocity": 96,
      "startTime": 97.9794354583333,
      "duration": 0.04507571250000808,
      "endTime": 98.0245111708333
    },
    {
      "instrumentId": 0,
      "instrumentName": "Piano\u0000",
      "isPercussion": false,
      "pitch": 74,
      "velocity": 96,
      "startTime": 98.07034445833331,
      "duration": 0.04507571249999387,
      "endTime": 98.1154201708333
    },
    {
      "instrumentId": 0,
      "instrumentName": "Piano\u0000",
      "isPercussion": false,
      "pitch": 74,
      "velocity": 96,
      "startTime": 98.1612534583333,
      "duration": 0.04507571249999387,
      "endTime": 98.2063291708333
    },
    {
      "instrumentId": 1,
      "instrumentName": "Piano\u0000",
      "isPercussion": false,
      "pitch": 40,
      "velocity": 96,
      "startTime": 98.1612534583333,
      "duration": 0.04507571249999387,
      "endTime": 98.2063291708333
    },
    {
      "instrumentId": 0,
      "instrumentName": "Piano\u0000",
      "isPercussion": false,
      "pitch": 72,
      "velocity": 96,
      "startTime": 98.2521624583333,
      "duration": 0.04507571249999387,
      "endTime": 98.2972381708333
    },
    {
      "instrumentId": 0,
      "instrumentName": "Piano\u0000",
      "isPercussion": false,
      "pitch": 71,
      "velocity": 96,
      "startTime": 98.3430714583333,
      "duration": 0.04507571250000808,
      "endTime": 98.3881471708333
    },
    {
      "instrumentId": 1,
      "instrumentName": "Piano\u0000",
      "isPercussion": false,
      "pitch": 50,
      "velocity": 96,
      "startTime": 98.3430714583333,
      "duration": 0.04507571250000808,
      "endTime": 98.3881471708333
    },
    {
      "instrumentId": 1,
      "instrumentName": "Piano\u0000",
      "isPercussion": false,
      "pitch": 52,
      "velocity": 96,
      "startTime": 98.3430714583333,
      "duration": 0.04507571250000808,
      "endTime": 98.3881471708333
    },
    {
      "instrumentId": 0,
      "instrumentName": "Piano\u0000",
      "isPercussion": false,
      "pitch": 74,
      "velocity": 96,
      "startTime": 98.43398045833331,
      "duration": 0.04507571249999387,
      "endTime": 98.4790561708333
    },
    {
      "instrumentId": 0,
      "instrumentName": "Piano\u0000",
      "isPercussion": false,
      "pitch": 72,
      "velocity": 96,
      "startTime": 98.5248894583333,
      "duration": 0.04507571249999387,
      "endTime": 98.5699651708333
    },
    {
      "instrumentId": 1,
      "instrumentName": "Piano\u0000",
      "isPercussion": false,
      "pitch": 45,
      "velocity": 96,
      "startTime": 98.5248894583333,
      "duration": 0.04507571249999387,
      "endTime": 98.5699651708333
    },
    {
      "instrumentId": 0,
      "instrumentName": "Piano\u0000",
      "isPercussion": false,
      "pitch": 72,
      "velocity": 96,
      "startTime": 98.6157984583333,
      "duration": 0.04507571249999387,
      "endTime": 98.6608741708333
    },
    {
      "instrumentId": 0,
      "instrumentName": "Piano\u0000",
      "isPercussion": false,
      "pitch": 72,
      "velocity": 96,
      "startTime": 98.7067074583333,
      "duration": 0.04507571250000808,
      "endTime": 98.7517831708333
    },
    {
      "instrumentId": 1,
      "instrumentName": "Piano\u0000",
      "isPercussion": false,
      "pitch": 48,
      "velocity": 96,
      "startTime": 98.7067074583333,
      "duration": 0.04507571250000808,
      "endTime": 98.7517831708333
    },
    {
      "instrumentId": 1,
      "instrumentName": "Piano\u0000",
      "isPercussion": false,
      "pitch": 52,
      "velocity": 96,
      "startTime": 98.7067074583333,
      "duration": 0.04507571250000808,
      "endTime": 98.7517831708333
    },
    {
      "instrumentId": 0,
      "instrumentName": "Piano\u0000",
      "isPercussion": false,
      "pitch": 72,
      "velocity": 96,
      "startTime": 98.79761645833331,
      "duration": 0.04507571249999387,
      "endTime": 98.8426921708333
    },
    {
      "instrumentId": 0,
      "instrumentName": "Piano\u0000",
      "isPercussion": false,
      "pitch": 72,
      "velocity": 96,
      "startTime": 98.8885254583333,
      "duration": 0.04507571249999387,
      "endTime": 98.9336011708333
    },
    {
      "instrumentId": 1,
      "instrumentName": "Piano\u0000",
      "isPercussion": false,
      "pitch": 40,
      "velocity": 96,
      "startTime": 98.8885254583333,
      "duration": 0.04507571249999387,
      "endTime": 98.9336011708333
    },
    {
      "instrumentId": 0,
      "instrumentName": "Piano\u0000",
      "isPercussion": false,
      "pitch": 71,
      "velocity": 96,
      "startTime": 98.9794344583333,
      "duration": 0.04507571250000808,
      "endTime": 99.02451017083331
    },
    {
      "instrumentId": 0,
      "instrumentName": "Piano\u0000",
      "isPercussion": false,
      "pitch": 69,
      "velocity": 96,
      "startTime": 99.0703434583333,
      "duration": 0.04507571250000808,
      "endTime": 99.1154191708333
    },
    {
      "instrumentId": 1,
      "instrumentName": "Piano\u0000",
      "isPercussion": false,
      "pitch": 48,
      "velocity": 96,
      "startTime": 99.0703434583333,
      "duration": 0.04507571250000808,
      "endTime": 99.1154191708333
    },
    {
      "instrumentId": 1,
      "instrumentName": "Piano\u0000",
      "isPercussion": false,
      "pitch": 52,
      "velocity": 96,
      "startTime": 99.0703434583333,
      "duration": 0.04507571250000808,
      "endTime": 99.1154191708333
    },
    {
      "instrumentId": 0,
      "instrumentName": "Piano\u0000",
      "isPercussion": false,
      "pitch": 72,
      "velocity": 96,
      "startTime": 99.16125245833331,
      "duration": 0.04507571249999387,
      "endTime": 99.2063281708333
    },
    {
      "instrumentId": 0,
      "instrumentName": "Piano\u0000",
      "isPercussion": false,
      "pitch": 71,
      "velocity": 96,
      "startTime": 99.2521614583333,
      "duration": 0.04507571249999387,
      "endTime": 99.2972371708333
    },
    {
      "instrumentId": 1,
      "instrumentName": "Piano\u0000",
      "isPercussion": false,
      "pitch": 47,
      "velocity": 96,
      "startTime": 99.2521614583333,
      "duration": 0.04507571249999387,
      "endTime": 99.2972371708333
    },
    {
      "instrumentId": 0,
      "instrumentName": "Piano\u0000",
      "isPercussion": false,
      "pitch": 71,
      "velocity": 96,
      "startTime": 99.3430704583333,
      "duration": 0.04507571250000808,
      "endTime": 99.38814617083331
    },
    {
      "instrumentId": 0,
      "instrumentName": "Piano\u0000",
      "isPercussion": false,
      "pitch": 71,
      "velocity": 96,
      "startTime": 99.4339794583333,
      "duration": 0.04507571250000808,
      "endTime": 99.4790551708333
    },
    {
      "instrumentId": 1,
      "instrumentName": "Piano\u0000",
      "isPercussion": false,
      "pitch": 51,
      "velocity": 96,
      "startTime": 99.4339794583333,
      "duration": 0.04507571250000808,
      "endTime": 99.4790551708333
    },
    {
      "instrumentId": 1,
      "instrumentName": "Piano\u0000",
      "isPercussion": false,
      "pitch": 59,
      "velocity": 96,
      "startTime": 99.4339794583333,
      "duration": 0.04507571250000808,
      "endTime": 99.4790551708333
    },
    {
      "instrumentId": 0,
      "instrumentName": "Piano\u0000",
      "isPercussion": false,
      "pitch": 71,
      "velocity": 96,
      "startTime": 99.52488845833331,
      "duration": 0.04507571249999387,
      "endTime": 99.5699641708333
    },
    {
      "instrumentId": 0,
      "instrumentName": "Piano\u0000",
      "isPercussion": false,
      "pitch": 66,
      "velocity": 96,
      "startTime": 99.6157974583333,
      "duration": 0.04507571249999387,
      "endTime": 99.6608731708333
    },
    {
      "instrumentId": 1,
      "instrumentName": "Piano\u0000",
      "isPercussion": false,
      "pitch": 42,
      "velocity": 96,
      "startTime": 99.6157974583333,
      "duration": 0.04507571249999387,
      "endTime": 99.6608731708333
    },
    {
      "instrumentId": 0,
      "instrumentName": "Piano\u0000",
      "isPercussion": false,
      "pitch": 71,
      "velocity": 96,
      "startTime": 99.7976154583333,
      "duration": 0.04507571250000808,
      "endTime": 99.8426911708333
    },
    {
      "instrumentId": 1,
      "instrumentName": "Piano\u0000",
      "isPercussion": false,
      "pitch": 51,
      "velocity": 96,
      "startTime": 99.7976154583333,
      "duration": 0.04507571250000808,
      "endTime": 99.8426911708333
    },
    {
      "instrumentId": 1,
      "instrumentName": "Piano\u0000",
      "isPercussion": false,
      "pitch": 57,
      "velocity": 96,
      "startTime": 99.7976154583333,
      "duration": 0.04507571250000808,
      "endTime": 99.8426911708333
    },
    {
      "instrumentId": 0,
      "instrumentName": "Piano\u0000",
      "isPercussion": false,
      "pitch": 68,
      "velocity": 115,
      "startTime": 99.9794334583333,
      "duration": 0.06022721249999563,
      "endTime": 100.0396606708333
    },
    {
      "instrumentId": 1,
      "instrumentName": "Piano\u0000",
      "isPercussion": false,
      "pitch": 52,
      "velocity": 115,
      "startTime": 99.9794334583333,
      "duration": 0.06022721249999563,
      "endTime": 100.0396606708333
    },
    {
      "instrumentId": 0,
      "instrumentName": "Piano\u0000",
      "isPercussion": false,
      "pitch": 52,
      "velocity": 96,
      "startTime": 100.3430694583333,
      "duration": 0.3450754124999946,
      "endTime": 100.6881448708333
    },
    {
      "instrumentId": 1,
      "instrumentName": "Piano\u0000",
      "isPercussion": false,
      "pitch": 28,
      "velocity": 96,
      "startTime": 100.3430694583333,
      "duration": 0.301893637500001,
      "endTime": 100.6449630958333
    },
    {
      "instrumentId": 1,
      "instrumentName": "Piano\u0000",
      "isPercussion": false,
      "pitch": 40,
      "velocity": 96,
      "startTime": 100.3430694583333,
      "duration": 0.3124996874999937,
      "endTime": 100.6555691458333
    },
    {
      "instrumentId": 1,
      "instrumentName": "Piano\u0000",
      "isPercussion": false,
      "pitch": 42,
      "velocity": 96,
      "startTime": 100.6726145833333,
      "duration": 0.010227262500009715,
      "endTime": 100.68284184583331
    },
    {
      "instrumentId": 1,
      "instrumentName": "Piano\u0000",
      "isPercussion": false,
      "pitch": 43,
      "velocity": 96,
      "startTime": 100.6839782083333,
      "duration": 0.010227262500009715,
      "endTime": 100.69420547083331
    },
    {
      "instrumentId": 1,
      "instrumentName": "Piano\u0000",
      "isPercussion": false,
      "pitch": 44,
      "velocity": 96,
      "startTime": 100.6953418333333,
      "duration": 0.010227262499995504,
      "endTime": 100.7055690958333
    },
    {
      "instrumentId": 0,
      "instrumentName": "Piano\u0000",
      "isPercussion": false,
      "pitch": 64,
      "velocity": 96,
      "startTime": 100.7067054583333,
      "duration": 0.04507571249999387,
      "endTime": 100.7517811708333
    },
    {
      "instrumentId": 1,
      "instrumentName": "Piano\u0000",
      "isPercussion": false,
      "pitch": 33,
      "velocity": 96,
      "startTime": 100.7067054583333,
      "duration": 0.1814392124999955,
      "endTime": 100.8881446708333
    },
    {
      "instrumentId": 1,
      "instrumentName": "Piano\u0000",
      "isPercussion": false,
      "pitch": 45,
      "velocity": 96,
      "startTime": 100.7067054583333,
      "duration": 0.1814392124999955,
      "endTime": 100.8881446708333
    },
    {
      "instrumentId": 0,
      "instrumentName": "Piano\u0000",
      "isPercussion": false,
      "pitch": 64,
      "velocity": 96,
      "startTime": 100.7976144583333,
      "duration": 0.04507571250000808,
      "endTime": 100.84269017083331
    },
    {
      "instrumentId": 0,
      "instrumentName": "Piano\u0000",
      "isPercussion": false,
      "pitch": 64,
      "velocity": 96,
      "startTime": 100.88852345833331,
      "duration": 0.04507571249999387,
      "endTime": 100.9335991708333
    },
    {
      "instrumentId": 1,
      "instrumentName": "Piano\u0000",
      "isPercussion": false,
      "pitch": 48,
      "velocity": 96,
      "startTime": 100.88852345833331,
      "duration": 0.04507571249999387,
      "endTime": 100.9335991708333
    },
    {
      "instrumentId": 1,
      "instrumentName": "Piano\u0000",
      "isPercussion": false,
      "pitch": 52,
      "velocity": 96,
      "startTime": 100.88852345833331,
      "duration": 0.04507571249999387,
      "endTime": 100.9335991708333
    },
    {
      "instrumentId": 0,
      "instrumentName": "Piano\u0000",
      "isPercussion": false,
      "pitch": 64,
      "velocity": 96,
      "startTime": 100.9794324583333,
      "duration": 0.04507571249999387,
      "endTime": 101.0245081708333
    },
    {
      "instrumentId": 0,
      "instrumentName": "Piano\u0000",
      "isPercussion": false,
      "pitch": 64,
      "velocity": 96,
      "startTime": 101.0703414583333,
      "duration": 0.04507571249999387,
      "endTime": 101.1154171708333
    },
    {
      "instrumentId": 1,
      "instrumentName": "Piano\u0000",
      "isPercussion": false,
      "pitch": 40,
      "velocity": 96,
      "startTime": 101.0703414583333,
      "duration": 0.04507571249999387,
      "endTime": 101.1154171708333
    },
    {
      "instrumentId": 0,
      "instrumentName": "Piano\u0000",
      "isPercussion": false,
      "pitch": 64,
      "velocity": 96,
      "startTime": 101.1612504583333,
      "duration": 0.04507571250000808,
      "endTime": 101.20632617083331
    },
    {
      "instrumentId": 0,
      "instrumentName": "Piano\u0000",
      "isPercussion": false,
      "pitch": 64,
      "velocity": 96,
      "startTime": 101.2521594583333,
      "duration": 0.04507571250000808,
      "endTime": 101.2972351708333
    },
    {
      "instrumentId": 1,
      "instrumentName": "Piano\u0000",
      "isPercussion": false,
      "pitch": 48,
      "velocity": 96,
      "startTime": 101.2521594583333,
      "duration": 0.04507571250000808,
      "endTime": 101.2972351708333
    },
    {
      "instrumentId": 1,
      "instrumentName": "Piano\u0000",
      "isPercussion": false,
      "pitch": 52,
      "velocity": 96,
      "startTime": 101.2521594583333,
      "duration": 0.04507571250000808,
      "endTime": 101.2972351708333
    },
    {
      "instrumentId": 0,
      "instrumentName": "Piano\u0000",
      "isPercussion": false,
      "pitch": 64,
      "velocity": 96,
      "startTime": 101.3430684583333,
      "duration": 0.04507571249999387,
      "endTime": 101.3881441708333
    },
    {
      "instrumentId": 1,
      "instrumentName": "Piano\u0000",
      "isPercussion": false,
      "pitch": 45,
      "velocity": 96,
      "startTime": 101.4339774583333,
      "duration": 0.1814392124999955,
      "endTime": 101.6154166708333
    },
    {
      "instrumentId": 0,
      "instrumentName": "Piano\u0000",
      "isPercussion": false,
      "pitch": 64,
      "velocity": 96,
      "startTime": 101.5248864583333,
      "duration": 0.04507571250000808,
      "endTime": 101.5699621708333
    },
    {
      "instrumentId": 0,
      "instrumentName": "Piano\u0000",
      "isPercussion": false,
      "pitch": 64,
      "velocity": 96,
      "startTime": 101.61579545833331,
      "duration": 0.04507571249999387,
      "endTime": 101.6608711708333
    },
    {
      "instrumentId": 1,
      "instrumentName": "Piano\u0000",
      "isPercussion": false,
      "pitch": 48,
      "velocity": 96,
      "startTime": 101.61579545833331,
      "duration": 0.04507571249999387,
      "endTime": 101.6608711708333
    },
    {
      "instrumentId": 1,
      "instrumentName": "Piano\u0000",
      "isPercussion": false,
      "pitch": 52,
      "velocity": 96,
      "startTime": 101.61579545833331,
      "duration": 0.04507571249999387,
      "endTime": 101.6608711708333
    },
    {
      "instrumentId": 0,
      "instrumentName": "Piano\u0000",
      "isPercussion": false,
      "pitch": 64,
      "velocity": 96,
      "startTime": 101.7067044583333,
      "duration": 0.04507571249999387,
      "endTime": 101.7517801708333
    },
    {
      "instrumentId": 0,
      "instrumentName": "Piano\u0000",
      "isPercussion": false,
      "pitch": 64,
      "velocity": 96,
      "startTime": 101.7976134583333,
      "duration": 0.04507571249999387,
      "endTime": 101.8426891708333
    },
    {
      "instrumentId": 1,
      "instrumentName": "Piano\u0000",
      "isPercussion": false,
      "pitch": 40,
      "velocity": 96,
      "startTime": 101.7976134583333,
      "duration": 0.04507571249999387,
      "endTime": 101.8426891708333
    },
    {
      "instrumentId": 0,
      "instrumentName": "Piano\u0000",
      "isPercussion": false,
      "pitch": 64,
      "velocity": 96,
      "startTime": 101.8885224583333,
      "duration": 0.04507571250000808,
      "endTime": 101.9335981708333
    },
    {
      "instrumentId": 0,
      "instrumentName": "Piano\u0000",
      "isPercussion": false,
      "pitch": 64,
      "velocity": 96,
      "startTime": 101.97943145833331,
      "duration": 0.04507571249999387,
      "endTime": 102.0245071708333
    },
    {
      "instrumentId": 1,
      "instrumentName": "Piano\u0000",
      "isPercussion": false,
      "pitch": 48,
      "velocity": 96,
      "startTime": 101.97943145833331,
      "duration": 0.04507571249999387,
      "endTime": 102.0245071708333
    },
    {
      "instrumentId": 1,
      "instrumentName": "Piano\u0000",
      "isPercussion": false,
      "pitch": 52,
      "velocity": 96,
      "startTime": 101.97943145833331,
      "duration": 0.04507571249999387,
      "endTime": 102.0245071708333
    },
    {
      "instrumentId": 0,
      "instrumentName": "Piano\u0000",
      "isPercussion": false,
      "pitch": 64,
      "velocity": 96,
      "startTime": 102.0703404583333,
      "duration": 0.04507571249999387,
      "endTime": 102.1154161708333
    },
    {
      "instrumentId": 0,
      "instrumentName": "Piano\u0000",
      "isPercussion": false,
      "pitch": 64,
      "velocity": 96,
      "startTime": 102.1612494583333,
      "duration": 0.09053021249999915,
      "endTime": 102.2517796708333
    },
    {
      "instrumentId": 1,
      "instrumentName": "Piano\u0000",
      "isPercussion": false,
      "pitch": 45,
      "velocity": 96,
      "startTime": 102.1612494583333,
      "duration": 0.1814392124999955,
      "endTime": 102.3426886708333
    },
    {
      "instrumentId": 0,
      "instrumentName": "Piano\u0000",
      "isPercussion": false,
      "pitch": 65,
      "velocity": 96,
      "startTime": 102.2521584583333,
      "duration": 0.09053021249999915,
      "endTime": 102.3426886708333
    },
    {
      "instrumentId": 0,
      "instrumentName": "Piano\u0000",
      "isPercussion": false,
      "pitch": 64,
      "velocity": 96,
      "startTime": 102.34306745833331,
      "duration": 0.09053021249999915,
      "endTime": 102.43359767083331
    },
    {
      "instrumentId": 1,
      "instrumentName": "Piano\u0000",
      "isPercussion": false,
      "pitch": 48,
      "velocity": 96,
      "startTime": 102.34306745833331,
      "duration": 0.04507571249999387,
      "endTime": 102.3881431708333
    },
    {
      "instrumentId": 1,
      "instrumentName": "Piano\u0000",
      "isPercussion": false,
      "pitch": 52,
      "velocity": 96,
      "startTime": 102.34306745833331,
      "duration": 0.04507571249999387,
      "endTime": 102.3881431708333
    },
    {
      "instrumentId": 0,
      "instrumentName": "Piano\u0000",
      "isPercussion": false,
      "pitch": 63,
      "velocity": 96,
      "startTime": 102.4339764583333,
      "duration": 0.0859847624999901,
      "endTime": 102.5199612208333
    },
    {
      "instrumentId": 0,
      "instrumentName": "Piano\u0000",
      "isPercussion": false,
      "pitch": 64,
      "velocity": 96,
      "startTime": 102.5248854583333,
      "duration": 0.08598476250000431,
      "endTime": 102.6108702208333
    },
    {
      "instrumentId": 1,
      "instrumentName": "Piano\u0000",
      "isPercussion": false,
      "pitch": 40,
      "velocity": 96,
      "startTime": 102.5248854583333,
      "duration": 0.04507571249999387,
      "endTime": 102.5699611708333
    },
    {
      "instrumentId": 0,
      "instrumentName": "Piano\u0000",
      "isPercussion": false,
      "pitch": 69,
      "velocity": 96,
      "startTime": 102.70670345833331,
      "duration": 0.0859847624999901,
      "endTime": 102.7926882208333
    },
    {
      "instrumentId": 1,
      "instrumentName": "Piano\u0000",
      "isPercussion": false,
      "pitch": 48,
      "velocity": 96,
      "startTime": 102.70670345833331,
      "duration": 0.04507571249999387,
      "endTime": 102.7517791708333
    },
    {
      "instrumentId": 1,
      "instrumentName": "Piano\u0000",
      "isPercussion": false,
      "pitch": 52,
      "velocity": 96,
      "startTime": 102.70670345833331,
      "duration": 0.04507571249999387,
      "endTime": 102.7517791708333
    },
    {
      "instrumentId": 0,
      "instrumentName": "Piano\u0000",
      "isPercussion": false,
      "pitch": 72,
      "velocity": 96,
      "startTime": 102.7976124583333,
      "duration": 0.08598476250000431,
      "endTime": 102.88359722083331
    },
    {
      "instrumentId": 0,
      "instrumentName": "Piano\u0000",
      "isPercussion": false,
      "pitch": 76,
      "velocity": 96,
      "startTime": 102.8885214583333,
      "duration": 0.04507571250000808,
      "endTime": 102.93359717083331
    },
    {
      "instrumentId": 1,
      "instrumentName": "Piano\u0000",
      "isPercussion": false,
      "pitch": 45,
      "velocity": 96,
      "startTime": 102.8885214583333,
      "duration": 0.1814392124999955,
      "endTime": 103.0699606708333
    },
    {
      "instrumentId": 0,
      "instrumentName": "Piano\u0000",
      "isPercussion": false,
      "pitch": 81,
      "velocity": 96,
      "startTime": 103.07033945833331,
      "duration": 0.04507571249999387,
      "endTime": 103.1154151708333
    },
    {
      "instrumentId": 1,
      "instrumentName": "Piano\u0000",
      "isPercussion": false,
      "pitch": 48,
      "velocity": 96,
      "startTime": 103.07033945833331,
      "duration": 0.04507571249999387,
      "endTime": 103.1154151708333
    },
    {
      "instrumentId": 1,
      "instrumentName": "Piano\u0000",
      "isPercussion": false,
      "pitch": 52,
      "velocity": 96,
      "startTime": 103.07033945833331,
      "duration": 0.04507571249999387,
      "endTime": 103.1154151708333
    },
    {
      "instrumentId": 0,
      "instrumentName": "Piano\u0000",
      "isPercussion": false,
      "pitch": 84,
      "velocity": 96,
      "startTime": 103.2521574583333,
      "duration": 0.3450754124999946,
      "endTime": 103.5972328708333
    },
    {
      "instrumentId": 1,
      "instrumentName": "Piano\u0000",
      "isPercussion": false,
      "pitch": 40,
      "velocity": 96,
      "startTime": 103.2521574583333,
      "duration": 0.04507571250000808,
      "endTime": 103.29723317083331
    },
    {
      "instrumentId": 1,
      "instrumentName": "Piano\u0000",
      "isPercussion": false,
      "pitch": 48,
      "velocity": 96,
      "startTime": 103.43397545833331,
      "duration": 0.04507571249999387,
      "endTime": 103.4790511708333
    },
    {
      "instrumentId": 1,
      "instrumentName": "Piano\u0000",
      "isPercussion": false,
      "pitch": 52,
      "velocity": 96,
      "startTime": 103.43397545833331,
      "duration": 0.04507571249999387,
      "endTime": 103.4790511708333
    },
    {
      "instrumentId": 0,
      "instrumentName": "Piano\u0000",
      "isPercussion": false,
      "pitch": 86,
      "velocity": 96,
      "startTime": 103.6157934583333,
      "duration": 0.09053021249999915,
      "endTime": 103.7063236708333
    },
    {
      "instrumentId": 1,
      "instrumentName": "Piano\u0000",
      "isPercussion": false,
      "pitch": 50,
      "velocity": 96,
      "startTime": 103.6157934583333,
      "duration": 0.04507571250000808,
      "endTime": 103.66086917083331
    },
    {
      "instrumentId": 0,
      "instrumentName": "Piano\u0000",
      "isPercussion": false,
      "pitch": 84,
      "velocity": 96,
      "startTime": 103.7067024583333,
      "duration": 0.09053021249999915,
      "endTime": 103.7972326708333
    },
    {
      "instrumentId": 0,
      "instrumentName": "Piano\u0000",
      "isPercussion": false,
      "pitch": 83,
      "velocity": 96,
      "startTime": 103.79761145833331,
      "duration": 0.09053021249999915,
      "endTime": 103.8881416708333
    },
    {
      "instrumentId": 1,
      "instrumentName": "Piano\u0000",
      "isPercussion": false,
      "pitch": 53,
      "velocity": 96,
      "startTime": 103.79761145833331,
      "duration": 0.04507571249999387,
      "endTime": 103.8426871708333
    },
    {
      "instrumentId": 1,
      "instrumentName": "Piano\u0000",
      "isPercussion": false,
      "pitch": 59,
      "velocity": 96,
      "startTime": 103.79761145833331,
      "duration": 0.04507571249999387,
      "endTime": 103.8426871708333
    },
    {
      "instrumentId": 0,
      "instrumentName": "Piano\u0000",
      "isPercussion": false,
      "pitch": 86,
      "velocity": 96,
      "startTime": 103.8885204583333,
      "duration": 0.09053021249999915,
      "endTime": 103.9790506708333
    },
    {
      "instrumentId": 0,
      "instrumentName": "Piano\u0000",
      "isPercussion": false,
      "pitch": 84,
      "velocity": 96,
      "startTime": 103.9794294583333,
      "duration": 0.09053021249999915,
      "endTime": 104.0699596708333
    },
    {
      "instrumentId": 1,
      "instrumentName": "Piano\u0000",
      "isPercussion": false,
      "pitch": 48,
      "velocity": 96,
      "startTime": 103.9794294583333,
      "duration": 0.04507571250000808,
      "endTime": 104.02450517083331
    },
    {
      "instrumentId": 0,
      "instrumentName": "Piano\u0000",
      "isPercussion": false,
      "pitch": 83,
      "velocity": 96,
      "startTime": 104.07033845833331,
      "duration": 0.09053021249999915,
      "endTime": 104.16086867083331
    },
    {
      "instrumentId": 0,
      "instrumentName": "Piano\u0000",
      "isPercussion": false,
      "pitch": 81,
      "velocity": 96,
      "startTime": 104.1612474583333,
      "duration": 0.09053021249999915,
      "endTime": 104.2517776708333
    },
    {
      "instrumentId": 1,
      "instrumentName": "Piano\u0000",
      "isPercussion": false,
      "pitch": 52,
      "velocity": 96,
      "startTime": 104.1612474583333,
      "duration": 0.04507571249999387,
      "endTime": 104.2063231708333
    },
    {
      "instrumentId": 1,
      "instrumentName": "Piano\u0000",
      "isPercussion": false,
      "pitch": 60,
      "velocity": 96,
      "startTime": 104.1612474583333,
      "duration": 0.04507571249999387,
      "endTime": 104.2063231708333
    },
    {
      "instrumentId": 0,
      "instrumentName": "Piano\u0000",
      "isPercussion": false,
      "pitch": 84,
      "velocity": 96,
      "startTime": 104.2521564583333,
      "duration": 0.09053021249999915,
      "endTime": 104.3426866708333
    },
    {
      "instrumentId": 0,
      "instrumentName": "Piano\u0000",
      "isPercussion": false,
      "pitch": 83,
      "velocity": 96,
      "startTime": 104.3430654583333,
      "duration": 0.09053021249999915,
      "endTime": 104.4335956708333
    },
    {
      "instrumentId": 1,
      "instrumentName": "Piano\u0000",
      "isPercussion": false,
      "pitch": 47,
      "velocity": 96,
      "startTime": 104.3430654583333,
      "duration": 0.04507571250000808,
      "endTime": 104.38814117083331
    },
    {
      "instrumentId": 0,
      "instrumentName": "Piano\u0000",
      "isPercussion": false,
      "pitch": 81,
      "velocity": 96,
      "startTime": 104.4339744583333,
      "duration": 0.09053021249999915,
      "endTime": 104.5245046708333
    },
    {
      "instrumentId": 0,
      "instrumentName": "Piano\u0000",
      "isPercussion": false,
      "pitch": 80,
      "velocity": 96,
      "startTime": 104.5248834583333,
      "duration": 0.09053021249999915,
      "endTime": 104.6154136708333
    },
    {
      "instrumentId": 1,
      "instrumentName": "Piano\u0000",
      "isPercussion": false,
      "pitch": 50,
      "velocity": 96,
      "startTime": 104.5248834583333,
      "duration": 0.04507571249999387,
      "endTime": 104.5699591708333
    },
    {
      "instrumentId": 1,
      "instrumentName": "Piano\u0000",
      "isPercussion": false,
      "pitch": 56,
      "velocity": 96,
      "startTime": 104.5248834583333,
      "duration": 0.04507571249999387,
      "endTime": 104.5699591708333
    },
    {
      "instrumentId": 0,
      "instrumentName": "Piano\u0000",
      "isPercussion": false,
      "pitch": 83,
      "velocity": 96,
      "startTime": 104.6157924583333,
      "duration": 0.09053021249999915,
      "endTime": 104.7063226708333
    },
    {
      "instrumentId": 0,
      "instrumentName": "Piano\u0000",
      "isPercussion": false,
      "pitch": 81,
      "velocity": 96,
      "startTime": 104.7067014583333,
      "duration": 0.09053021249999915,
      "endTime": 104.7972316708333
    },
    {
      "instrumentId": 1,
      "instrumentName": "Piano\u0000",
      "isPercussion": false,
      "pitch": 45,
      "velocity": 96,
      "startTime": 104.7067014583333,
      "duration": 0.04507571250000808,
      "endTime": 104.75177717083331
    },
    {
      "instrumentId": 0,
      "instrumentName": "Piano\u0000",
      "isPercussion": false,
      "pitch": 76,
      "velocity": 96,
      "startTime": 104.79761045833331,
      "duration": 0.09053021249999915,
      "endTime": 104.88814067083331
    },
    {
      "instrumentId": 0,
      "instrumentName": "Piano\u0000",
      "isPercussion": false,
      "pitch": 72,
      "velocity": 96,
      "startTime": 104.8885194583333,
      "duration": 0.09053021249999915,
      "endTime": 104.9790496708333
    },
    {
      "instrumentId": 1,
      "instrumentName": "Piano\u0000",
      "isPercussion": false,
      "pitch": 48,
      "velocity": 96,
      "startTime": 104.8885194583333,
      "duration": 0.04507571249999387,
      "endTime": 104.9335951708333
    },
    {
      "instrumentId": 1,
      "instrumentName": "Piano\u0000",
      "isPercussion": false,
      "pitch": 57,
      "velocity": 96,
      "startTime": 104.8885194583333,
      "duration": 0.04507571249999387,
      "endTime": 104.9335951708333
    },
    {
      "instrumentId": 0,
      "instrumentName": "Piano\u0000",
      "isPercussion": false,
      "pitch": 69,
      "velocity": 96,
      "startTime": 104.9794284583333,
      "duration": 0.09053021249999915,
      "endTime": 105.0699586708333
    },
    {
      "instrumentId": 0,
      "instrumentName": "Piano\u0000",
      "isPercussion": false,
      "pitch": 77,
      "velocity": 96,
      "startTime": 105.0703374583333,
      "duration": 0.09053021249999915,
      "endTime": 105.1608676708333
    },
    {
      "instrumentId": 1,
      "instrumentName": "Piano\u0000",
      "isPercussion": false,
      "pitch": 40,
      "velocity": 96,
      "startTime": 105.0703374583333,
      "duration": 0.08598476250000431,
      "endTime": 105.1563222208333
    },
    {
      "instrumentId": 1,
      "instrumentName": "Piano\u0000",
      "isPercussion": false,
      "pitch": 52,
      "velocity": 96,
      "startTime": 105.0703374583333,
      "duration": 0.08598476250000431,
      "endTime": 105.1563222208333
    },
    {
      "instrumentId": 0,
      "instrumentName": "Piano\u0000",
      "isPercussion": false,
      "pitch": 76,
      "velocity": 96,
      "startTime": 105.1612464583333,
      "duration": 0.09053021250001336,
      "endTime": 105.25177667083331
    },
    {
      "instrumentId": 0,
      "instrumentName": "Piano\u0000",
      "isPercussion": false,
      "pitch": 74,
      "velocity": 96,
      "startTime": 105.2521554583333,
      "duration": 0.09053021249999915,
      "endTime": 105.3426856708333
    },
    {
      "instrumentId": 1,
      "instrumentName": "Piano\u0000",
      "isPercussion": false,
      "pitch": 42,
      "velocity": 96,
      "startTime": 105.2521554583333,
      "duration": 0.08598476250000431,
      "endTime": 105.33814022083331
    },
    {
      "instrumentId": 1,
      "instrumentName": "Piano\u0000",
      "isPercussion": false,
      "pitch": 54,
      "velocity": 96,
      "startTime": 105.2521554583333,
      "duration": 0.08598476250000431,
      "endTime": 105.33814022083331
    },
    {
      "instrumentId": 0,
      "instrumentName": "Piano\u0000",
      "isPercussion": false,
      "pitch": 72,
      "velocity": 96,
      "startTime": 105.3430644583333,
      "duration": 0.09053021249999915,
      "endTime": 105.4335946708333
    },
    {
      "instrumentId": 0,
      "instrumentName": "Piano\u0000",
      "isPercussion": false,
      "pitch": 71,
      "velocity": 96,
      "startTime": 105.4339734583333,
      "duration": 0.09053021249999915,
      "endTime": 105.5245036708333
    },
    {
      "instrumentId": 1,
      "instrumentName": "Piano\u0000",
      "isPercussion": false,
      "pitch": 44,
      "velocity": 96,
      "startTime": 105.4339734583333,
      "duration": 0.08598476250000431,
      "endTime": 105.5199582208333
    },
    {
      "instrumentId": 1,
      "instrumentName": "Piano\u0000",
      "isPercussion": false,
      "pitch": 56,
      "velocity": 96,
      "startTime": 105.4339734583333,
      "duration": 0.08598476250000431,
      "endTime": 105.5199582208333
    },
    {
      "instrumentId": 0,
      "instrumentName": "Piano\u0000",
      "isPercussion": false,
      "pitch": 69,
      "velocity": 96,
      "startTime": 105.52488245833331,
      "duration": 0.09053021249999915,
      "endTime": 105.61541267083331
    },
    {
      "instrumentId": 0,
      "instrumentName": "Piano\u0000",
      "isPercussion": false,
      "pitch": 68,
      "velocity": 96,
      "startTime": 105.6157914583333,
      "duration": 0.09053021249999915,
      "endTime": 105.7063216708333
    },
    {
      "instrumentId": 1,
      "instrumentName": "Piano\u0000",
      "isPercussion": false,
      "pitch": 40,
      "velocity": 96,
      "startTime": 105.6157914583333,
      "duration": 0.0859847624999901,
      "endTime": 105.7017762208333
    },
    {
      "instrumentId": 1,
      "instrumentName": "Piano\u0000",
      "isPercussion": false,
      "pitch": 52,
      "velocity": 96,
      "startTime": 105.6157914583333,
      "duration": 0.0859847624999901,
      "endTime": 105.7017762208333
    },
    {
      "instrumentId": 0,
      "instrumentName": "Piano\u0000",
      "isPercussion": false,
      "pitch": 71,
      "velocity": 96,
      "startTime": 105.7067004583333,
      "duration": 0.09053021249999915,
      "endTime": 105.7972306708333
    },
    {
      "instrumentId": 0,
      "instrumentName": "Piano\u0000",
      "isPercussion": false,
      "pitch": 69,
      "velocity": 96,
      "startTime": 105.7976094583333,
      "duration": 0.34507541250000884,
      "endTime": 106.1426848708333
    },
    {
      "instrumentId": 1,
      "instrumentName": "Piano\u0000",
      "isPercussion": false,
      "pitch": 45,
      "velocity": 96,
      "startTime": 105.7976094583333,
      "duration": 0.34507541250000884,
      "endTime": 106.1426848708333
    },
    {
      "instrumentId": 1,
      "instrumentName": "Piano\u0000",
      "isPercussion": false,
      "pitch": 57,
      "velocity": 96,
      "startTime": 105.7976094583333,
      "duration": 0.34507541250000884,
      "endTime": 106.1426848708333
    },
    {
      "instrumentId": 0,
      "instrumentName": "Piano\u0000",
      "isPercussion": false,
      "pitch": 62,
      "velocity": 96,
      "startTime": 106.1612454583333,
      "duration": 0.17234831250000582,
      "endTime": 106.3335937708333
    },
    {
      "instrumentId": 0,
      "instrumentName": "Piano\u0000",
      "isPercussion": false,
      "pitch": 64,
      "velocity": 96,
      "startTime": 106.1612454583333,
      "duration": 0.17234831250000582,
      "endTime": 106.3335937708333
    },
    {
      "instrumentId": 0,
      "instrumentName": "Piano\u0000",
      "isPercussion": false,
      "pitch": 67,
      "velocity": 96,
      "startTime": 106.1612454583333,
      "duration": 0.17234831250000582,
      "endTime": 106.3335937708333
    },
    {
      "instrumentId": 0,
      "instrumentName": "Piano\u0000",
      "isPercussion": false,
      "pitch": 69,
      "velocity": 96,
      "startTime": 106.1612454583333,
      "duration": 0.17234831250000582,
      "endTime": 106.3335937708333
    },
    {
      "instrumentId": 0,
      "instrumentName": "Piano\u0000",
      "isPercussion": false,
      "pitch": 71,
      "velocity": 96,
      "startTime": 106.1612454583333,
      "duration": 0.17234831250000582,
      "endTime": 106.3335937708333
    },
    {
      "instrumentId": 0,
      "instrumentName": "Piano\u0000",
      "isPercussion": false,
      "pitch": 74,
      "velocity": 96,
      "startTime": 106.1612454583333,
      "duration": 0.17234831250000582,
      "endTime": 106.3335937708333
    },
    {
      "instrumentId": 0,
      "instrumentName": "Piano\u0000",
      "isPercussion": false,
      "pitch": 76,
      "velocity": 96,
      "startTime": 106.1612454583333,
      "duration": 0.17234831250000582,
      "endTime": 106.3335937708333
    },
    {
      "instrumentId": 0,
      "instrumentName": "Piano\u0000",
      "isPercussion": false,
      "pitch": 77,
      "velocity": 96,
      "startTime": 106.1612454583333,
      "duration": 0.17234831250000582,
      "endTime": 106.3335937708333
    },
    {
      "instrumentId": 0,
      "instrumentName": "Piano\u0000",
      "isPercussion": false,
      "pitch": 79,
      "velocity": 96,
      "startTime": 106.1612454583333,
      "duration": 0.17234831250000582,
      "endTime": 106.3335937708333
    },
    {
      "instrumentId": 0,
      "instrumentName": "Piano\u0000",
      "isPercussion": false,
      "pitch": 81,
      "velocity": 96,
      "startTime": 106.1612454583333,
      "duration": 0.17234831250000582,
      "endTime": 106.3335937708333
    },
    {
      "instrumentId": 0,
      "instrumentName": "Piano\u0000",
      "isPercussion": false,
      "pitch": 83,
      "velocity": 96,
      "startTime": 106.1612454583333,
      "duration": 0.17234831250000582,
      "endTime": 106.3335937708333
    },
    {
      "instrumentId": 0,
      "instrumentName": "Piano\u0000",
      "isPercussion": false,
      "pitch": 84,
      "velocity": 96,
      "startTime": 106.1612454583333,
      "duration": 0.17234831250000582,
      "endTime": 106.3335937708333
    },
    {
      "instrumentId": 0,
      "instrumentName": "Piano\u0000",
      "isPercussion": false,
      "pitch": 86,
      "velocity": 96,
      "startTime": 106.1612454583333,
      "duration": 0.17234831250000582,
      "endTime": 106.3335937708333
    },
    {
      "instrumentId": 0,
      "instrumentName": "Piano\u0000",
      "isPercussion": false,
      "pitch": 88,
      "velocity": 96,
      "startTime": 106.1612454583333,
      "duration": 0.17234831250000582,
      "endTime": 106.3335937708333
    },
    {
      "instrumentId": 0,
      "instrumentName": "Piano\u0000",
      "isPercussion": false,
      "pitch": 89,
      "velocity": 96,
      "startTime": 106.1612454583333,
      "duration": 0.17234831250000582,
      "endTime": 106.3335937708333
    },
    {
      "instrumentId": 0,
      "instrumentName": "Piano\u0000",
      "isPercussion": false,
      "pitch": 91,
      "velocity": 96,
      "startTime": 106.1612454583333,
      "duration": 0.17234831250000582,
      "endTime": 106.3335937708333
    },
    {
      "instrumentId": 0,
      "instrumentName": "Piano\u0000",
      "isPercussion": false,
      "pitch": 93,
      "velocity": 96,
      "startTime": 106.1612454583333,
      "duration": 0.17234831250000582,
      "endTime": 106.3335937708333
    },
    {
      "instrumentId": 0,
      "instrumentName": "Piano\u0000",
      "isPercussion": false,
      "pitch": 95,
      "velocity": 96,
      "startTime": 106.1612454583333,
      "duration": 0.17234831250000582,
      "endTime": 106.3335937708333
    },
    {
      "instrumentId": 0,
      "instrumentName": "Piano\u0000",
      "isPercussion": false,
      "pitch": 96,
      "velocity": 96,
      "startTime": 106.1612454583333,
      "duration": 0.17234831250000582,
      "endTime": 106.3335937708333
    },
    {
      "instrumentId": 0,
      "instrumentName": "Piano\u0000",
      "isPercussion": false,
      "pitch": 98,
      "velocity": 96,
      "startTime": 106.1612454583333,
      "duration": 0.17234831250000582,
      "endTime": 106.3335937708333
    },
    {
      "instrumentId": 0,
      "instrumentName": "Piano\u0000",
      "isPercussion": false,
      "pitch": 100,
      "velocity": 96,
      "startTime": 106.1612454583333,
      "duration": 0.17234831250000582,
      "endTime": 106.3335937708333
    },
    {
      "instrumentId": 0,
      "instrumentName": "Piano\u0000",
      "isPercussion": false,
      "pitch": 101,
      "velocity": 96,
      "startTime": 106.1612454583333,
      "duration": 0.17234831250000582,
      "endTime": 106.3335937708333
    },
    {
      "instrumentId": 0,
      "instrumentName": "Piano\u0000",
      "isPercussion": false,
      "pitch": 103,
      "velocity": 96,
      "startTime": 106.1612454583333,
      "duration": 0.17234831250000582,
      "endTime": 106.3335937708333
    },
    {
      "instrumentId": 0,
      "instrumentName": "Piano\u0000",
      "isPercussion": false,
      "pitch": 105,
      "velocity": 96,
      "startTime": 106.1612454583333,
      "duration": 0.17234831250000582,
      "endTime": 106.3335937708333
    },
    {
      "instrumentId": 0,
      "instrumentName": "Piano\u0000",
      "isPercussion": false,
      "pitch": 107,
      "velocity": 96,
      "startTime": 106.1612454583333,
      "duration": 0.17234831250000582,
      "endTime": 106.3335937708333
    },
    {
      "instrumentId": 0,
      "instrumentName": "Piano\u0000",
      "isPercussion": false,
      "pitch": 108,
      "velocity": 96,
      "startTime": 106.1612454583333,
      "duration": 0.17234831250000582,
      "endTime": 106.3335937708333
    },
    {
      "instrumentId": 1,
      "instrumentName": "Piano\u0000",
      "isPercussion": false,
      "pitch": 25,
      "velocity": 96,
      "startTime": 106.1612454583333,
      "duration": 0.17234831250000582,
      "endTime": 106.3335937708333
    },
    {
      "instrumentId": 1,
      "instrumentName": "Piano\u0000",
      "isPercussion": false,
      "pitch": 27,
      "velocity": 96,
      "startTime": 106.1612454583333,
      "duration": 0.17234831250000582,
      "endTime": 106.3335937708333
    },
    {
      "instrumentId": 1,
      "instrumentName": "Piano\u0000",
      "isPercussion": false,
      "pitch": 29,
      "velocity": 96,
      "startTime": 106.1612454583333,
      "duration": 0.17234831250000582,
      "endTime": 106.3335937708333
    },
    {
      "instrumentId": 1,
      "instrumentName": "Piano\u0000",
      "isPercussion": false,
      "pitch": 30,
      "velocity": 96,
      "startTime": 106.1612454583333,
      "duration": 0.17234831250000582,
      "endTime": 106.3335937708333
    },
    {
      "instrumentId": 1,
      "instrumentName": "Piano\u0000",
      "isPercussion": false,
      "pitch": 32,
      "velocity": 96,
      "startTime": 106.1612454583333,
      "duration": 0.17234831250000582,
      "endTime": 106.3335937708333
    },
    {
      "instrumentId": 1,
      "instrumentName": "Piano\u0000",
      "isPercussion": false,
      "pitch": 34,
      "velocity": 96,
      "startTime": 106.1612454583333,
      "duration": 0.17234831250000582,
      "endTime": 106.3335937708333
    },
    {
      "instrumentId": 1,
      "instrumentName": "Piano\u0000",
      "isPercussion": false,
      "pitch": 36,
      "velocity": 96,
      "startTime": 106.1612454583333,
      "duration": 0.17234831250000582,
      "endTime": 106.3335937708333
    },
    {
      "instrumentId": 1,
      "instrumentName": "Piano\u0000",
      "isPercussion": false,
      "pitch": 37,
      "velocity": 96,
      "startTime": 106.1612454583333,
      "duration": 0.17234831250000582,
      "endTime": 106.3335937708333
    },
    {
      "instrumentId": 1,
      "instrumentName": "Piano\u0000",
      "isPercussion": false,
      "pitch": 39,
      "velocity": 96,
      "startTime": 106.1612454583333,
      "duration": 0.17234831250000582,
      "endTime": 106.3335937708333
    },
    {
      "instrumentId": 1,
      "instrumentName": "Piano\u0000",
      "isPercussion": false,
      "pitch": 41,
      "velocity": 96,
      "startTime": 106.1612454583333,
      "duration": 0.17234831250000582,
      "endTime": 106.3335937708333
    },
    {
      "instrumentId": 1,
      "instrumentName": "Piano\u0000",
      "isPercussion": false,
      "pitch": 42,
      "velocity": 96,
      "startTime": 106.1612454583333,
      "duration": 0.17234831250000582,
      "endTime": 106.3335937708333
    },
    {
      "instrumentId": 1,
      "instrumentName": "Piano\u0000",
      "isPercussion": false,
      "pitch": 44,
      "velocity": 96,
      "startTime": 106.1612454583333,
      "duration": 0.17234831250000582,
      "endTime": 106.3335937708333
    },
    {
      "instrumentId": 1,
      "instrumentName": "Piano\u0000",
      "isPercussion": false,
      "pitch": 46,
      "velocity": 96,
      "startTime": 106.1612454583333,
      "duration": 0.17234831250000582,
      "endTime": 106.3335937708333
    },
    {
      "instrumentId": 1,
      "instrumentName": "Piano\u0000",
      "isPercussion": false,
      "pitch": 48,
      "velocity": 96,
      "startTime": 106.1612454583333,
      "duration": 0.17234831250000582,
      "endTime": 106.3335937708333
    },
    {
      "instrumentId": 1,
      "instrumentName": "Piano\u0000",
      "isPercussion": false,
      "pitch": 49,
      "velocity": 96,
      "startTime": 106.1612454583333,
      "duration": 0.17234831250000582,
      "endTime": 106.3335937708333
    },
    {
      "instrumentId": 1,
      "instrumentName": "Piano\u0000",
      "isPercussion": false,
      "pitch": 51,
      "velocity": 96,
      "startTime": 106.1612454583333,
      "duration": 0.17234831250000582,
      "endTime": 106.3335937708333
    },
    {
      "instrumentId": 1,
      "instrumentName": "Piano\u0000",
      "isPercussion": false,
      "pitch": 53,
      "velocity": 96,
      "startTime": 106.1612454583333,
      "duration": 0.17234831250000582,
      "endTime": 106.3335937708333
    },
    {
      "instrumentId": 1,
      "instrumentName": "Piano\u0000",
      "isPercussion": false,
      "pitch": 54,
      "velocity": 96,
      "startTime": 106.1612454583333,
      "duration": 0.17234831250000582,
      "endTime": 106.3335937708333
    },
    {
      "instrumentId": 1,
      "instrumentName": "Piano\u0000",
      "isPercussion": false,
      "pitch": 56,
      "velocity": 96,
      "startTime": 106.1612454583333,
      "duration": 0.17234831250000582,
      "endTime": 106.3335937708333
    },
    {
      "instrumentId": 1,
      "instrumentName": "Piano\u0000",
      "isPercussion": false,
      "pitch": 58,
      "velocity": 96,
      "startTime": 106.1612454583333,
      "duration": 0.17234831250000582,
      "endTime": 106.3335937708333
    },
    {
      "instrumentId": 1,
      "instrumentName": "Piano\u0000",
      "isPercussion": false,
      "pitch": 60,
      "velocity": 96,
      "startTime": 106.1612454583333,
      "duration": 0.17234831250000582,
      "endTime": 106.3335937708333
    },
    {
      "instrumentId": 1,
      "instrumentName": "Piano\u0000",
      "isPercussion": false,
      "pitch": 61,
      "velocity": 96,
      "startTime": 106.1612454583333,
      "duration": 0.17234831250000582,
      "endTime": 106.3335937708333
    },
    {
      "instrumentId": 1,
      "instrumentName": "Piano\u0000",
      "isPercussion": false,
      "pitch": 63,
      "velocity": 96,
      "startTime": 106.1612454583333,
      "duration": 0.17234831250000582,
      "endTime": 106.3335937708333
    },
    {
      "instrumentId": 1,
      "instrumentName": "Piano\u0000",
      "isPercussion": false,
      "pitch": 65,
      "velocity": 96,
      "startTime": 106.1612454583333,
      "duration": 0.17234831250000582,
      "endTime": 106.3335937708333
    },
    {
      "instrumentId": 1,
      "instrumentName": "Piano\u0000",
      "isPercussion": false,
      "pitch": 66,
      "velocity": 96,
      "startTime": 106.1612454583333,
      "duration": 0.17234831250000582,
      "endTime": 106.3335937708333
    },
    {
      "instrumentId": 1,
      "instrumentName": "Piano\u0000",
      "isPercussion": false,
      "pitch": 68,
      "velocity": 96,
      "startTime": 106.1612454583333,
      "duration": 0.17234831250000582,
      "endTime": 106.3335937708333
    },
    {
      "instrumentId": 1,
      "instrumentName": "Piano\u0000",
      "isPercussion": false,
      "pitch": 70,
      "velocity": 96,
      "startTime": 106.1612454583333,
      "duration": 0.17234831250000582,
      "endTime": 106.3335937708333
    },
    {
      "instrumentId": 1,
      "instrumentName": "Piano\u0000",
      "isPercussion": false,
      "pitch": 72,
      "velocity": 96,
      "startTime": 106.1612454583333,
      "duration": 0.17234831250000582,
      "endTime": 106.3335937708333
    },
    {
      "instrumentId": 1,
      "instrumentName": "Piano\u0000",
      "isPercussion": false,
      "pitch": 45,
      "velocity": 96,
      "startTime": 106.5248814583333,
      "duration": 0.9979166666666686,
      "endTime": 107.52279812499997
    },
    {
      "instrumentId": 1,
      "instrumentName": "Piano\u0000",
      "isPercussion": false,
      "pitch": 48,
      "velocity": 96,
      "startTime": 107.5248814583333,
      "duration": 0.24791666666666856,
      "endTime": 107.77279812499997
    },
    {
      "instrumentId": 1,
      "instrumentName": "Piano\u0000",
      "isPercussion": false,
      "pitch": 52,
      "velocity": 96,
      "startTime": 107.5248814583333,
      "duration": 0.24791666666666856,
      "endTime": 107.77279812499997
    },
    {
      "instrumentId": 1,
      "instrumentName": "Piano\u0000",
      "isPercussion": false,
      "pitch": 40,
      "velocity": 96,
      "startTime": 108.5248814583333,
      "duration": 0.24791666666666856,
      "endTime": 108.77279812499997
    },
    {
      "instrumentId": 1,
      "instrumentName": "Piano\u0000",
      "isPercussion": false,
      "pitch": 48,
      "velocity": 96,
      "startTime": 109.5248814583333,
      "duration": 0.24791666666666856,
      "endTime": 109.77279812499997
    },
    {
      "instrumentId": 1,
      "instrumentName": "Piano\u0000",
      "isPercussion": false,
      "pitch": 52,
      "velocity": 96,
      "startTime": 109.5248814583333,
      "duration": 0.24791666666666856,
      "endTime": 109.77279812499997
    },
    {
      "instrumentId": 1,
      "instrumentName": "Piano\u0000",
      "isPercussion": false,
      "pitch": 45,
      "velocity": 96,
      "startTime": 110.5248814583333,
      "duration": 0.24791666666666856,
      "endTime": 110.77279812499997
    },
    {
      "instrumentId": 1,
      "instrumentName": "Piano\u0000",
      "isPercussion": false,
      "pitch": 48,
      "velocity": 96,
      "startTime": 111.5010719583333,
      "duration": 0.22537881041667163,
      "endTime": 111.72645076874997
    },
    {
      "instrumentId": 1,
      "instrumentName": "Piano\u0000",
      "isPercussion": false,
      "pitch": 52,
      "velocity": 96,
      "startTime": 111.5010719583333,
      "duration": 0.22537881041667163,
      "endTime": 111.72645076874997
    },
    {
      "instrumentId": 1,
      "instrumentName": "Piano\u0000",
      "isPercussion": false,
      "pitch": 40,
      "velocity": 96,
      "startTime": 112.39039995833329,
      "duration": 0.20659713958333725,
      "endTime": 112.59699709791663
    },
    {
      "instrumentId": 1,
      "instrumentName": "Piano\u0000",
      "isPercussion": false,
      "pitch": 48,
      "velocity": 96,
      "startTime": 113.20760045833329,
      "duration": 0.1909498791666664,
      "endTime": 113.39855033749996
    },
    {
      "instrumentId": 1,
      "instrumentName": "Piano\u0000",
      "isPercussion": false,
      "pitch": 52,
      "velocity": 96,
      "startTime": 113.20760045833329,
      "duration": 0.1909498791666664,
      "endTime": 113.39855033749996
    },
    {
      "instrumentId": 1,
      "instrumentName": "Piano\u0000",
      "isPercussion": false,
      "pitch": 45,
      "velocity": 96,
      "startTime": 113.96353745833329,
      "duration": 0.1772943812499932,
      "endTime": 114.14083183958329
    },
    {
      "instrumentId": 1,
      "instrumentName": "Piano\u0000",
      "isPercussion": false,
      "pitch": 48,
      "velocity": 96,
      "startTime": 114.66633045833329,
      "duration": 0.16546156666666434,
      "endTime": 114.83179202499996
    },
    {
      "instrumentId": 1,
      "instrumentName": "Piano\u0000",
      "isPercussion": false,
      "pitch": 52,
      "velocity": 96,
      "startTime": 114.66633045833329,
      "duration": 0.16546156666666434,
      "endTime": 114.83179202499996
    },
    {
      "instrumentId": 1,
      "instrumentName": "Piano\u0000",
      "isPercussion": false,
      "pitch": 40,
      "velocity": 96,
      "startTime": 115.3229624583333,
      "duration": 0.1551095583333364,
      "endTime": 115.47807201666663
    },
    {
      "instrumentId": 1,
      "instrumentName": "Piano\u0000",
      "isPercussion": false,
      "pitch": 48,
      "velocity": 96,
      "startTime": 115.9391249583333,
      "duration": 0.14611985208333067,
      "endTime": 116.08524481041663
    },
    {
      "instrumentId": 1,
      "instrumentName": "Piano\u0000",
      "isPercussion": false,
      "pitch": 52,
      "velocity": 96,
      "startTime": 115.9391249583333,
      "duration": 0.14611985208333067,
      "endTime": 116.08524481041663
    },
    {
      "instrumentId": 1,
      "instrumentName": "Piano\u0000",
      "isPercussion": false,
      "pitch": 45,
      "velocity": 96,
      "startTime": 116.5200799583333,
      "duration": 0.13798694583333315,
      "endTime": 116.65806690416663
    },
    {
      "instrumentId": 1,
      "instrumentName": "Piano\u0000",
      "isPercussion": false,
      "pitch": 48,
      "velocity": 96,
      "startTime": 117.0691309583333,
      "duration": 0.13071183124999664,
      "endTime": 117.1998427895833
    },
    {
      "instrumentId": 1,
      "instrumentName": "Piano\u0000",
      "isPercussion": false,
      "pitch": 52,
      "velocity": 96,
      "startTime": 117.0691309583333,
      "duration": 0.13071183124999664,
      "endTime": 117.1998427895833
    },
    {
      "instrumentId": 1,
      "instrumentName": "Piano\u0000",
      "isPercussion": false,
      "pitch": 40,
      "velocity": 96,
      "startTime": 117.5896009583333,
      "duration": 0.12416534374999344,
      "endTime": 117.7137663020833
    },
    {
      "instrumentId": 1,
      "instrumentName": "Piano\u0000",
      "isPercussion": false,
      "pitch": 48,
      "velocity": 96,
      "startTime": 118.0843179583333,
      "duration": 0.11833731874999387,
      "endTime": 118.2026552770833
    },
    {
      "instrumentId": 1,
      "instrumentName": "Piano\u0000",
      "isPercussion": false,
      "pitch": 52,
      "velocity": 96,
      "startTime": 118.0843179583333,
      "duration": 0.11833731874999387,
      "endTime": 118.2026552770833
    },
    {
      "instrumentId": 1,
      "instrumentName": "Piano\u0000",
      "isPercussion": false,
      "pitch": 45,
      "velocity": 96,
      "startTime": 118.5560814583333,
      "duration": 0.4546318729166643,
      "endTime": 119.01071333124996
    },
    {
      "instrumentId": 1,
      "instrumentName": "Piano\u0000",
      "isPercussion": false,
      "pitch": 48,
      "velocity": 96,
      "startTime": 119.01166245833329,
      "duration": 0.10802472916667227,
      "endTime": 119.11968718749996
    },
    {
      "instrumentId": 1,
      "instrumentName": "Piano\u0000",
      "isPercussion": false,
      "pitch": 52,
      "velocity": 96,
      "startTime": 119.01166245833329,
      "duration": 0.10802472916667227,
      "endTime": 119.11968718749996
    },
    {
      "instrumentId": 1,
      "instrumentName": "Piano\u0000",
      "isPercussion": false,
      "pitch": 57,
      "velocity": 96,
      "startTime": 119.01166245833329,
      "duration": 0.10802472916667227,
      "endTime": 119.11968718749996
    },
    {
      "instrumentId": 1,
      "instrumentName": "Piano\u0000",
      "isPercussion": false,
      "pitch": 40,
      "velocity": 96,
      "startTime": 119.44274695833329,
      "duration": 0.1035143812499939,
      "endTime": 119.54626133958328
    },
    {
      "instrumentId": 1,
      "instrumentName": "Piano\u0000",
      "isPercussion": false,
      "pitch": 48,
      "velocity": 96,
      "startTime": 119.85601445833329,
      "duration": 0.09936549583333942,
      "endTime": 119.95537995416663
    },
    {
      "instrumentId": 1,
      "instrumentName": "Piano\u0000",
      "isPercussion": false,
      "pitch": 52,
      "velocity": 96,
      "startTime": 119.85601445833329,
      "duration": 0.09936549583333942,
      "endTime": 119.95537995416663
    },
    {
      "instrumentId": 1,
      "instrumentName": "Piano\u0000",
      "isPercussion": false,
      "pitch": 57,
      "velocity": 96,
      "startTime": 119.85601445833329,
      "duration": 0.09936549583333942,
      "endTime": 119.95537995416663
    },
    {
      "instrumentId": 1,
      "instrumentName": "Piano\u0000",
      "isPercussion": false,
      "pitch": 45,
      "velocity": 96,
      "startTime": 120.25300795833328,
      "duration": 0.09559765833333245,
      "endTime": 120.34860561666662
    },
    {
      "instrumentId": 1,
      "instrumentName": "Piano\u0000",
      "isPercussion": false,
      "pitch": 48,
      "velocity": 96,
      "startTime": 120.63496495833328,
      "duration": 0.0920482354166694,
      "endTime": 120.72701319374995
    },
    {
      "instrumentId": 1,
      "instrumentName": "Piano\u0000",
      "isPercussion": false,
      "pitch": 52,
      "velocity": 96,
      "startTime": 120.63496495833328,
      "duration": 0.0920482354166694,
      "endTime": 120.72701319374995
    },
    {
      "instrumentId": 1,
      "instrumentName": "Piano\u0000",
      "isPercussion": false,
      "pitch": 57,
      "velocity": 96,
      "startTime": 120.63496495833328,
      "duration": 0.0920482354166694,
      "endTime": 120.72701319374995
    },
    {
      "instrumentId": 1,
      "instrumentName": "Piano\u0000",
      "isPercussion": false,
      "pitch": 40,
      "velocity": 96,
      "startTime": 121.00286845833328,
      "duration": 0.08875292708333404,
      "endTime": 121.09162138541662
    },
    {
      "instrumentId": 1,
      "instrumentName": "Piano\u0000",
      "isPercussion": false,
      "pitch": 48,
      "velocity": 96,
      "startTime": 121.35771595833327,
      "duration": 0.08568545416666495,
      "endTime": 121.44340141249994
    },
    {
      "instrumentId": 1,
      "instrumentName": "Piano\u0000",
      "isPercussion": false,
      "pitch": 52,
      "velocity": 96,
      "startTime": 121.35771595833327,
      "duration": 0.08568545416666495,
      "endTime": 121.44340141249994
    },
    {
      "instrumentId": 1,
      "instrumentName": "Piano\u0000",
      "isPercussion": false,
      "pitch": 57,
      "velocity": 96,
      "startTime": 121.35771595833327,
      "duration": 0.08568545416666495,
      "endTime": 121.44340141249994
    },
    {
      "instrumentId": 1,
      "instrumentName": "Piano\u0000",
      "isPercussion": false,
      "pitch": 45,
      "velocity": 96,
      "startTime": 121.70040245833327,
      "duration": 0.08286912083333675,
      "endTime": 121.78327157916661
    },
    {
      "instrumentId": 1,
      "instrumentName": "Piano\u0000",
      "isPercussion": false,
      "pitch": 48,
      "velocity": 96,
      "startTime": 122.03191695833327,
      "duration": 0.0801886458333314,
      "endTime": 122.1121056041666
    },
    {
      "instrumentId": 1,
      "instrumentName": "Piano\u0000",
      "isPercussion": false,
      "pitch": 52,
      "velocity": 96,
      "startTime": 122.03191695833327,
      "duration": 0.0801886458333314,
      "endTime": 122.1121056041666
    },
    {
      "instrumentId": 1,
      "instrumentName": "Piano\u0000",
      "isPercussion": false,
      "pitch": 60,
      "velocity": 96,
      "startTime": 122.03191695833327,
      "duration": 0.0801886458333314,
      "endTime": 122.1121056041666
    },
    {
      "instrumentId": 1,
      "instrumentName": "Piano\u0000",
      "isPercussion": false,
      "pitch": 40,
      "velocity": 96,
      "startTime": 122.35279295833327,
      "duration": 0.07767625833332659,
      "endTime": 122.4304692166666
    },
    {
      "instrumentId": 1,
      "instrumentName": "Piano\u0000",
      "isPercussion": false,
      "pitch": 48,
      "velocity": 96,
      "startTime": 122.66369245833326,
      "duration": 0.07531633958333828,
      "endTime": 122.7390087979166
    },
    {
      "instrumentId": 1,
      "instrumentName": "Piano\u0000",
      "isPercussion": false,
      "pitch": 52,
      "velocity": 96,
      "startTime": 122.66369245833326,
      "duration": 0.07531633958333828,
      "endTime": 122.7390087979166
    },
    {
      "instrumentId": 1,
      "instrumentName": "Piano\u0000",
      "isPercussion": false,
      "pitch": 60,
      "velocity": 96,
      "startTime": 122.66369245833326,
      "duration": 0.07531633958333828,
      "endTime": 122.7390087979166
    },
    {
      "instrumentId": 1,
      "instrumentName": "Piano\u0000",
      "isPercussion": false,
      "pitch": 45,
      "velocity": 96,
      "startTime": 122.96521695833326,
      "duration": 0.07313169791666496,
      "endTime": 123.03834865624992
    },
    {
      "instrumentId": 1,
      "instrumentName": "Piano\u0000",
      "isPercussion": false,
      "pitch": 48,
      "velocity": 96,
      "startTime": 123.25805845833325,
      "duration": 0.07103630624999369,
      "endTime": 123.32909476458325
    },
    {
      "instrumentId": 1,
      "instrumentName": "Piano\u0000",
      "isPercussion": false,
      "pitch": 52,
      "velocity": 96,
      "startTime": 123.25805845833325,
      "duration": 0.07103630624999369,
      "endTime": 123.32909476458325
    },
    {
      "instrumentId": 1,
      "instrumentName": "Piano\u0000",
      "isPercussion": false,
      "pitch": 60,
      "velocity": 96,
      "startTime": 123.25805845833325,
      "duration": 0.07103630624999369,
      "endTime": 123.32909476458325
    },
    {
      "instrumentId": 1,
      "instrumentName": "Piano\u0000",
      "isPercussion": false,
      "pitch": 40,
      "velocity": 96,
      "startTime": 123.54256795833325,
      "duration": 0.06905768333332674,
      "endTime": 123.61162564166658
    },
    {
      "instrumentId": 1,
      "instrumentName": "Piano\u0000",
      "isPercussion": false,
      "pitch": 48,
      "velocity": 96,
      "startTime": 123.81920645833324,
      "duration": 0.06718616041666792,
      "endTime": 123.88639261874991
    },
    {
      "instrumentId": 1,
      "instrumentName": "Piano\u0000",
      "isPercussion": false,
      "pitch": 52,
      "velocity": 96,
      "startTime": 123.81920645833324,
      "duration": 0.06718616041666792,
      "endTime": 123.88639261874991
    },
    {
      "instrumentId": 1,
      "instrumentName": "Piano\u0000",
      "isPercussion": false,
      "pitch": 60,
      "velocity": 96,
      "startTime": 123.81920645833324,
      "duration": 0.06718616041666792,
      "endTime": 123.88639261874991
    },
    {
      "instrumentId": 1,
      "instrumentName": "Piano\u0000",
      "isPercussion": false,
      "pitch": 45,
      "velocity": 96,
      "startTime": 124.08839795833325,
      "duration": 0.263302308333337,
      "endTime": 124.35170026666658
    },
    {
      "instrumentId": 1,
      "instrumentName": "Piano\u0000",
      "isPercussion": false,
      "pitch": 57,
      "velocity": 96,
      "startTime": 124.35224995833325,
      "duration": 0.06375920833333737,
      "endTime": 124.41600916666658
    },
    {
      "instrumentId": 1,
      "instrumentName": "Piano\u0000",
      "isPercussion": false,
      "pitch": 60,
      "velocity": 96,
      "startTime": 124.35224995833325,
      "duration": 0.06375920833333737,
      "endTime": 124.41600916666658
    },
    {
      "instrumentId": 1,
      "instrumentName": "Piano\u0000",
      "isPercussion": false,
      "pitch": 64,
      "velocity": 96,
      "startTime": 124.35224995833325,
      "duration": 0.06375920833333737,
      "endTime": 124.41600916666658
    },
    {
      "instrumentId": 1,
      "instrumentName": "Piano\u0000",
      "isPercussion": false,
      "pitch": 40,
      "velocity": 96,
      "startTime": 124.60779745833325,
      "duration": 0.06216039375000548,
      "endTime": 124.66995785208326
    },
    {
      "instrumentId": 1,
      "instrumentName": "Piano\u0000",
      "isPercussion": false,
      "pitch": 57,
      "velocity": 96,
      "startTime": 124.85697645833325,
      "duration": 0.06063992083333858,
      "endTime": 124.91761637916659
    },
    {
      "instrumentId": 1,
      "instrumentName": "Piano\u0000",
      "isPercussion": false,
      "pitch": 60,
      "velocity": 96,
      "startTime": 124.85697645833325,
      "duration": 0.06063992083333858,
      "endTime": 124.91761637916659
    },
    {
      "instrumentId": 1,
      "instrumentName": "Piano\u0000",
      "isPercussion": false,
      "pitch": 64,
      "velocity": 96,
      "startTime": 124.85697645833325,
      "duration": 0.06063992083333858,
      "endTime": 124.91761637916659
    },
    {
      "instrumentId": 1,
      "instrumentName": "Piano\u0000",
      "isPercussion": false,
      "pitch": 45,
      "velocity": 96,
      "startTime": 125.10009695833325,
      "duration": 0.05919208749999427,
      "endTime": 125.15928904583325
    },
    {
      "instrumentId": 1,
      "instrumentName": "Piano\u0000",
      "isPercussion": false,
      "pitch": 57,
      "velocity": 96,
      "startTime": 125.33744695833325,
      "duration": 0.057834247916673576,
      "endTime": 125.39528120624992
    },
    {
      "instrumentId": 1,
      "instrumentName": "Piano\u0000",
      "isPercussion": false,
      "pitch": 60,
      "velocity": 96,
      "startTime": 125.33744695833325,
      "duration": 0.057834247916673576,
      "endTime": 125.39528120624992
    },
    {
      "instrumentId": 1,
      "instrumentName": "Piano\u0000",
      "isPercussion": false,
      "pitch": 64,
      "velocity": 96,
      "startTime": 125.33744695833325,
      "duration": 0.057834247916673576,
      "endTime": 125.39528120624992
    },
    {
      "instrumentId": 1,
      "instrumentName": "Piano\u0000",
      "isPercussion": false,
      "pitch": 40,
      "velocity": 96,
      "startTime": 125.56938345833325,
      "duration": 0.05651607500000466,
      "endTime": 125.62589953333325
    },
    {
      "instrumentId": 1,
      "instrumentName": "Piano\u0000",
      "isPercussion": false,
      "pitch": 57,
      "velocity": 96,
      "startTime": 125.79606245833324,
      "duration": 0.05525641041666063,
      "endTime": 125.8513188687499
    },
    {
      "instrumentId": 1,
      "instrumentName": "Piano\u0000",
      "isPercussion": false,
      "pitch": 60,
      "velocity": 96,
      "startTime": 125.79606245833324,
      "duration": 0.05525641041666063,
      "endTime": 125.8513188687499
    },
    {
      "instrumentId": 1,
      "instrumentName": "Piano\u0000",
      "isPercussion": false,
      "pitch": 64,
      "velocity": 96,
      "startTime": 125.79606245833324,
      "duration": 0.05525641041666063,
      "endTime": 125.8513188687499
    },
    {
      "instrumentId": 1,
      "instrumentName": "Piano\u0000",
      "isPercussion": false,
      "pitch": 45,
      "velocity": 96,
      "startTime": 126.01771695833324,
      "duration": 0.05405153541666152,
      "endTime": 126.0717684937499
    },
    {
      "instrumentId": 1,
      "instrumentName": "Piano\u0000",
      "isPercussion": false,
      "pitch": 60,
      "velocity": 96,
      "startTime": 126.23456445833324,
      "duration": 0.05291706875000557,
      "endTime": 126.28748152708324
    },
    {
      "instrumentId": 1,
      "instrumentName": "Piano\u0000",
      "isPercussion": false,
      "pitch": 64,
      "velocity": 96,
      "startTime": 126.23456445833324,
      "duration": 0.05291706875000557,
      "endTime": 126.28748152708324
    },
    {
      "instrumentId": 1,
      "instrumentName": "Piano\u0000",
      "isPercussion": false,
      "pitch": 69,
      "velocity": 96,
      "startTime": 126.23456445833324,
      "duration": 0.05291706875000557,
      "endTime": 126.28748152708324
    },
    {
      "instrumentId": 1,
      "instrumentName": "Piano\u0000",
      "isPercussion": false,
      "pitch": 40,
      "velocity": 96,
      "startTime": 126.44688445833324,
      "duration": 0.0518111125000047,
      "endTime": 126.49869557083325
    },
    {
      "instrumentId": 1,
      "instrumentName": "Piano\u0000",
      "isPercussion": false,
      "pitch": 60,
      "velocity": 96,
      "startTime": 126.65478995833325,
      "duration": 0.05075052499999799,
      "endTime": 126.70554048333325
    },
    {
      "instrumentId": 1,
      "instrumentName": "Piano\u0000",
      "isPercussion": false,
      "pitch": 64,
      "velocity": 96,
      "startTime": 126.65478995833325,
      "duration": 0.05075052499999799,
      "endTime": 126.70554048333325
    },
    {
      "instrumentId": 1,
      "instrumentName": "Piano\u0000",
      "isPercussion": false,
      "pitch": 69,
      "velocity": 96,
      "startTime": 126.65478995833325,
      "duration": 0.05075052499999799,
      "endTime": 126.70554048333325
    },
    {
      "instrumentId": 1,
      "instrumentName": "Piano\u0000",
      "isPercussion": false,
      "pitch": 45,
      "velocity": 96,
      "startTime": 126.85846095833325,
      "duration": 0.04973257916667251,
      "endTime": 126.90819353749993
    },
    {
      "instrumentId": 1,
      "instrumentName": "Piano\u0000",
      "isPercussion": false,
      "pitch": 60,
      "velocity": 96,
      "startTime": 127.05806695833326,
      "duration": 0.048754547916672664,
      "endTime": 127.10682150624993
    },
    {
      "instrumentId": 1,
      "instrumentName": "Piano\u0000",
      "isPercussion": false,
      "pitch": 64,
      "velocity": 96,
      "startTime": 127.05806695833326,
      "duration": 0.048754547916672664,
      "endTime": 127.10682150624993
    },
    {
      "instrumentId": 1,
      "instrumentName": "Piano\u0000",
      "isPercussion": false,
      "pitch": 72,
      "velocity": 96,
      "startTime": 127.05806695833326,
      "duration": 0.048754547916672664,
      "endTime": 127.10682150624993
    },
    {
      "instrumentId": 1,
      "instrumentName": "Piano\u0000",
      "isPercussion": false,
      "pitch": 40,
      "velocity": 96,
      "startTime": 127.25379795833325,
      "duration": 0.04782957083332917,
      "endTime": 127.30162752916658
    },
    {
      "instrumentId": 1,
      "instrumentName": "Piano\u0000",
      "isPercussion": false,
      "pitch": 60,
      "velocity": 96,
      "startTime": 127.44580245833325,
      "duration": 0.046924179166666136,
      "endTime": 127.49272663749991
    },
    {
      "instrumentId": 1,
      "instrumentName": "Piano\u0000",
      "isPercussion": false,
      "pitch": 64,
      "velocity": 96,
      "startTime": 127.44580245833325,
      "duration": 0.046924179166666136,
      "endTime": 127.49272663749991
    },
    {
      "instrumentId": 1,
      "instrumentName": "Piano\u0000",
      "isPercussion": false,
      "pitch": 72,
      "velocity": 96,
      "startTime": 127.44580245833325,
      "duration": 0.046924179166666136,
      "endTime": 127.49272663749991
    },
    {
      "instrumentId": 0,
      "instrumentName": "Piano\u0000",
      "isPercussion": false,
      "pitch": 64,
      "velocity": 96,
      "startTime": 127.63418945833325,
      "duration": 0.046484375000005684,
      "endTime": 127.68067383333326
    },
    {
      "instrumentId": 1,
      "instrumentName": "Piano\u0000",
      "isPercussion": false,
      "pitch": 33,
      "velocity": 96,
      "startTime": 127.63418945833325,
      "duration": 0.18710937500000568,
      "endTime": 127.82129883333326
    },
    {
      "instrumentId": 1,
      "instrumentName": "Piano\u0000",
      "isPercussion": false,
      "pitch": 45,
      "velocity": 96,
      "startTime": 127.63418945833325,
      "duration": 0.18710937500000568,
      "endTime": 127.82129883333326
    },
    {
      "instrumentId": 0,
      "instrumentName": "Piano\u0000",
      "isPercussion": false,
      "pitch": 64,
      "velocity": 96,
      "startTime": 127.72793945833325,
      "duration": 0.046484375000005684,
      "endTime": 127.77442383333326
    },
    {
      "instrumentId": 1,
      "instrumentName": "Piano\u0000",
      "isPercussion": false,
      "pitch": 57,
      "velocity": 96,
      "startTime": 127.82168945833325,
      "duration": 0.046484375000005684,
      "endTime": 127.86817383333326
    },
    {
      "instrumentId": 1,
      "instrumentName": "Piano\u0000",
      "isPercussion": false,
      "pitch": 60,
      "velocity": 96,
      "startTime": 127.82168945833325,
      "duration": 0.046484375000005684,
      "endTime": 127.86817383333326
    },
    {
      "instrumentId": 1,
      "instrumentName": "Piano\u0000",
      "isPercussion": false,
      "pitch": 64,
      "velocity": 96,
      "startTime": 127.82168945833325,
      "duration": 0.046484375000005684,
      "endTime": 127.86817383333326
    },
    {
      "instrumentId": 0,
      "instrumentName": "Piano\u0000",
      "isPercussion": false,
      "pitch": 64,
      "velocity": 96,
      "startTime": 127.91543945833325,
      "duration": 0.046484375000005684,
      "endTime": 127.96192383333326
    },
    {
      "instrumentId": 0,
      "instrumentName": "Piano\u0000",
      "isPercussion": false,
      "pitch": 64,
      "velocity": 96,
      "startTime": 128.00918945833325,
      "duration": 0.046484375000005684,
      "endTime": 128.05567383333326
    },
    {
      "instrumentId": 1,
      "instrumentName": "Piano\u0000",
      "isPercussion": false,
      "pitch": 40,
      "velocity": 96,
      "startTime": 128.00918945833325,
      "duration": 0.046484375000005684,
      "endTime": 128.05567383333326
    },
    {
      "instrumentId": 0,
      "instrumentName": "Piano\u0000",
      "isPercussion": false,
      "pitch": 64,
      "velocity": 96,
      "startTime": 128.10293945833325,
      "duration": 0.046484375000005684,
      "endTime": 128.14942383333326
    },
    {
      "instrumentId": 0,
      "instrumentName": "Piano\u0000",
      "isPercussion": false,
      "pitch": 76,
      "velocity": 96,
      "startTime": 128.19668945833325,
      "duration": 0.046484375000005684,
      "endTime": 128.24317383333326
    },
    {
      "instrumentId": 1,
      "instrumentName": "Piano\u0000",
      "isPercussion": false,
      "pitch": 57,
      "velocity": 96,
      "startTime": 128.19668945833325,
      "duration": 0.046484375000005684,
      "endTime": 128.24317383333326
    },
    {
      "instrumentId": 1,
      "instrumentName": "Piano\u0000",
      "isPercussion": false,
      "pitch": 60,
      "velocity": 96,
      "startTime": 128.19668945833325,
      "duration": 0.046484375000005684,
      "endTime": 128.24317383333326
    },
    {
      "instrumentId": 1,
      "instrumentName": "Piano\u0000",
      "isPercussion": false,
      "pitch": 64,
      "velocity": 96,
      "startTime": 128.19668945833325,
      "duration": 0.046484375000005684,
      "endTime": 128.24317383333326
    },
    {
      "instrumentId": 0,
      "instrumentName": "Piano\u0000",
      "isPercussion": false,
      "pitch": 76,
      "velocity": 96,
      "startTime": 128.29043945833325,
      "duration": 0.046484375000005684,
      "endTime": 128.33692383333326
    },
    {
      "instrumentId": 0,
      "instrumentName": "Piano\u0000",
      "isPercussion": false,
      "pitch": 88,
      "velocity": 96,
      "startTime": 128.38418945833325,
      "duration": 0.046484375000005684,
      "endTime": 128.43067383333326
    },
    {
      "instrumentId": 1,
      "instrumentName": "Piano\u0000",
      "isPercussion": false,
      "pitch": 45,
      "velocity": 96,
      "startTime": 128.38418945833325,
      "duration": 0.18710937500000568,
      "endTime": 128.57129883333326
    },
    {
      "instrumentId": 0,
      "instrumentName": "Piano\u0000",
      "isPercussion": false,
      "pitch": 88,
      "velocity": 96,
      "startTime": 128.47793945833325,
      "duration": 0.046484375000005684,
      "endTime": 128.52442383333326
    },
    {
      "instrumentId": 0,
      "instrumentName": "Piano\u0000",
      "isPercussion": false,
      "pitch": 76,
      "velocity": 96,
      "startTime": 128.57168945833325,
      "duration": 0.046484375000005684,
      "endTime": 128.61817383333326
    },
    {
      "instrumentId": 1,
      "instrumentName": "Piano\u0000",
      "isPercussion": false,
      "pitch": 57,
      "velocity": 96,
      "startTime": 128.57168945833325,
      "duration": 0.046484375000005684,
      "endTime": 128.61817383333326
    },
    {
      "instrumentId": 1,
      "instrumentName": "Piano\u0000",
      "isPercussion": false,
      "pitch": 60,
      "velocity": 96,
      "startTime": 128.57168945833325,
      "duration": 0.046484375000005684,
      "endTime": 128.61817383333326
    },
    {
      "instrumentId": 1,
      "instrumentName": "Piano\u0000",
      "isPercussion": false,
      "pitch": 64,
      "velocity": 96,
      "startTime": 128.57168945833325,
      "duration": 0.046484375000005684,
      "endTime": 128.61817383333326
    },
    {
      "instrumentId": 0,
      "instrumentName": "Piano\u0000",
      "isPercussion": false,
      "pitch": 76,
      "velocity": 96,
      "startTime": 128.66543945833325,
      "duration": 0.046484375000005684,
      "endTime": 128.71192383333326
    },
    {
      "instrumentId": 0,
      "instrumentName": "Piano\u0000",
      "isPercussion": false,
      "pitch": 64,
      "velocity": 96,
      "startTime": 128.75918945833325,
      "duration": 0.046484375000005684,
      "endTime": 128.80567383333326
    },
    {
      "instrumentId": 1,
      "instrumentName": "Piano\u0000",
      "isPercussion": false,
      "pitch": 40,
      "velocity": 96,
      "startTime": 128.75918945833325,
      "duration": 0.046484375000005684,
      "endTime": 128.80567383333326
    },
    {
      "instrumentId": 0,
      "instrumentName": "Piano\u0000",
      "isPercussion": false,
      "pitch": 64,
      "velocity": 96,
      "startTime": 128.85293945833325,
      "duration": 0.046484375000005684,
      "endTime": 128.89942383333326
    },
    {
      "instrumentId": 1,
      "instrumentName": "Piano\u0000",
      "isPercussion": false,
      "pitch": 57,
      "velocity": 96,
      "startTime": 128.94668945833325,
      "duration": 0.046484375000005684,
      "endTime": 128.99317383333326
    },
    {
      "instrumentId": 1,
      "instrumentName": "Piano\u0000",
      "isPercussion": false,
      "pitch": 60,
      "velocity": 96,
      "startTime": 128.94668945833325,
      "duration": 0.046484375000005684,
      "endTime": 128.99317383333326
    },
    {
      "instrumentId": 1,
      "instrumentName": "Piano\u0000",
      "isPercussion": false,
      "pitch": 64,
      "velocity": 96,
      "startTime": 128.94668945833325,
      "duration": 0.046484375000005684,
      "endTime": 128.99317383333326
    },
    {
      "instrumentId": 0,
      "instrumentName": "Piano\u0000",
      "isPercussion": false,
      "pitch": 64,
      "velocity": 96,
      "startTime": 129.04043945833325,
      "duration": 0.046484375000005684,
      "endTime": 129.08692383333326
    },
    {
      "instrumentId": 0,
      "instrumentName": "Piano\u0000",
      "isPercussion": false,
      "pitch": 64,
      "velocity": 96,
      "startTime": 129.13418945833325,
      "duration": 0.046484375000005684,
      "endTime": 129.18067383333326
    },
    {
      "instrumentId": 1,
      "instrumentName": "Piano\u0000",
      "isPercussion": false,
      "pitch": 45,
      "velocity": 96,
      "startTime": 129.13418945833325,
      "duration": 0.18710937500000568,
      "endTime": 129.32129883333326
    },
    {
      "instrumentId": 0,
      "instrumentName": "Piano\u0000",
      "isPercussion": false,
      "pitch": 64,
      "velocity": 96,
      "startTime": 129.22793945833325,
      "duration": 0.046484375000005684,
      "endTime": 129.27442383333326
    },
    {
      "instrumentId": 1,
      "instrumentName": "Piano\u0000",
      "isPercussion": false,
      "pitch": 57,
      "velocity": 96,
      "startTime": 129.32168945833325,
      "duration": 0.046484375000005684,
      "endTime": 129.36817383333326
    },
    {
      "instrumentId": 1,
      "instrumentName": "Piano\u0000",
      "isPercussion": false,
      "pitch": 60,
      "velocity": 96,
      "startTime": 129.32168945833325,
      "duration": 0.046484375000005684,
      "endTime": 129.36817383333326
    },
    {
      "instrumentId": 1,
      "instrumentName": "Piano\u0000",
      "isPercussion": false,
      "pitch": 64,
      "velocity": 96,
      "startTime": 129.32168945833325,
      "duration": 0.046484375000005684,
      "endTime": 129.36817383333326
    },
    {
      "instrumentId": 0,
      "instrumentName": "Piano\u0000",
      "isPercussion": false,
      "pitch": 64,
      "velocity": 96,
      "startTime": 129.41543945833325,
      "duration": 0.046484375000005684,
      "endTime": 129.46192383333326
    },
    {
      "instrumentId": 0,
      "instrumentName": "Piano\u0000",
      "isPercussion": false,
      "pitch": 64,
      "velocity": 96,
      "startTime": 129.50918945833325,
      "duration": 0.09335937500000568,
      "endTime": 129.60254883333326
    },
    {
      "instrumentId": 1,
      "instrumentName": "Piano\u0000",
      "isPercussion": false,
      "pitch": 40,
      "velocity": 96,
      "startTime": 129.50918945833325,
      "duration": 0.046484375000005684,
      "endTime": 129.55567383333326
    },
    {
      "instrumentId": 0,
      "instrumentName": "Piano\u0000",
      "isPercussion": false,
      "pitch": 65,
      "velocity": 96,
      "startTime": 129.60293945833325,
      "duration": 0.09335937500000568,
      "endTime": 129.69629883333326
    },
    {
      "instrumentId": 1,
      "instrumentName": "Piano\u0000",
      "isPercussion": false,
      "pitch": 57,
      "velocity": 96,
      "startTime": 129.69668945833325,
      "duration": 0.046484375000005684,
      "endTime": 129.74317383333326
    },
    {
      "instrumentId": 1,
      "instrumentName": "Piano\u0000",
      "isPercussion": false,
      "pitch": 60,
      "velocity": 96,
      "startTime": 129.69668945833325,
      "duration": 0.046484375000005684,
      "endTime": 129.74317383333326
    },
    {
      "instrumentId": 1,
      "instrumentName": "Piano\u0000",
      "isPercussion": false,
      "pitch": 64,
      "velocity": 96,
      "startTime": 129.69668945833325,
      "duration": 0.09335937500000568,
      "endTime": 129.79004883333326
    },
    {
      "instrumentId": 0,
      "instrumentName": "Piano\u0000",
      "isPercussion": false,
      "pitch": 63,
      "velocity": 96,
      "startTime": 129.79043945833325,
      "duration": 0.08867187499998863,
      "endTime": 129.87911133333324
    },
    {
      "instrumentId": 0,
      "instrumentName": "Piano\u0000",
      "isPercussion": false,
      "pitch": 64,
      "velocity": 96,
      "startTime": 129.88418945833325,
      "duration": 0.046484375000005684,
      "endTime": 129.93067383333326
    },
    {
      "instrumentId": 1,
      "instrumentName": "Piano\u0000",
      "isPercussion": false,
      "pitch": 45,
      "velocity": 96,
      "startTime": 129.88418945833325,
      "duration": 0.18710937500000568,
      "endTime": 130.07129883333326
    },
    {
      "instrumentId": 0,
      "instrumentName": "Piano\u0000",
      "isPercussion": false,
      "pitch": 69,
      "velocity": 96,
      "startTime": 130.07168945833325,
      "duration": 0.046484375000005684,
      "endTime": 130.11817383333326
    },
    {
      "instrumentId": 1,
      "instrumentName": "Piano\u0000",
      "isPercussion": false,
      "pitch": 57,
      "velocity": 96,
      "startTime": 130.07168945833325,
      "duration": 0.046484375000005684,
      "endTime": 130.11817383333326
    },
    {
      "instrumentId": 1,
      "instrumentName": "Piano\u0000",
      "isPercussion": false,
      "pitch": 60,
      "velocity": 96,
      "startTime": 130.07168945833325,
      "duration": 0.046484375000005684,
      "endTime": 130.11817383333326
    },
    {
      "instrumentId": 1,
      "instrumentName": "Piano\u0000",
      "isPercussion": false,
      "pitch": 64,
      "velocity": 96,
      "startTime": 130.07168945833325,
      "duration": 0.046484375000005684,
      "endTime": 130.11817383333326
    },
    {
      "instrumentId": 0,
      "instrumentName": "Piano\u0000",
      "isPercussion": false,
      "pitch": 72,
      "velocity": 96,
      "startTime": 130.25918945833325,
      "duration": 0.3558593749999943,
      "endTime": 130.61504883333325
    },
    {
      "instrumentId": 1,
      "instrumentName": "Piano\u0000",
      "isPercussion": false,
      "pitch": 40,
      "velocity": 96,
      "startTime": 130.25918945833325,
      "duration": 0.046484375000005684,
      "endTime": 130.30567383333326
    },
    {
      "instrumentId": 1,
      "instrumentName": "Piano\u0000",
      "isPercussion": false,
      "pitch": 57,
      "velocity": 96,
      "startTime": 130.44668945833325,
      "duration": 0.046484375000005684,
      "endTime": 130.49317383333326
    },
    {
      "instrumentId": 1,
      "instrumentName": "Piano\u0000",
      "isPercussion": false,
      "pitch": 60,
      "velocity": 96,
      "startTime": 130.44668945833325,
      "duration": 0.046484375000005684,
      "endTime": 130.49317383333326
    },
    {
      "instrumentId": 1,
      "instrumentName": "Piano\u0000",
      "isPercussion": false,
      "pitch": 64,
      "velocity": 96,
      "startTime": 130.44668945833325,
      "duration": 0.046484375000005684,
      "endTime": 130.49317383333326
    },
    {
      "instrumentId": 0,
      "instrumentName": "Piano\u0000",
      "isPercussion": false,
      "pitch": 74,
      "velocity": 96,
      "startTime": 130.63418945833325,
      "duration": 0.046484375000005684,
      "endTime": 130.68067383333326
    },
    {
      "instrumentId": 1,
      "instrumentName": "Piano\u0000",
      "isPercussion": false,
      "pitch": 44,
      "velocity": 96,
      "startTime": 130.63418945833325,
      "duration": 0.046484375000005684,
      "endTime": 130.68067383333326
    },
    {
      "instrumentId": 0,
      "instrumentName": "Piano\u0000",
      "isPercussion": false,
      "pitch": 74,
      "velocity": 96,
      "startTime": 130.72793945833325,
      "duration": 0.046484375000005684,
      "endTime": 130.77442383333326
    },
    {
      "instrumentId": 0,
      "instrumentName": "Piano\u0000",
      "isPercussion": false,
      "pitch": 74,
      "velocity": 96,
      "startTime": 130.82168945833325,
      "duration": 0.046484375000005684,
      "endTime": 130.86817383333326
    },
    {
      "instrumentId": 1,
      "instrumentName": "Piano\u0000",
      "isPercussion": false,
      "pitch": 50,
      "velocity": 96,
      "startTime": 130.82168945833325,
      "duration": 0.046484375000005684,
      "endTime": 130.86817383333326
    },
    {
      "instrumentId": 1,
      "instrumentName": "Piano\u0000",
      "isPercussion": false,
      "pitch": 52,
      "velocity": 96,
      "startTime": 130.82168945833325,
      "duration": 0.046484375000005684,
      "endTime": 130.86817383333326
    },
    {
      "instrumentId": 1,
      "instrumentName": "Piano\u0000",
      "isPercussion": false,
      "pitch": 56,
      "velocity": 96,
      "startTime": 130.82168945833325,
      "duration": 0.046484375000005684,
      "endTime": 130.86817383333326
    },
    {
      "instrumentId": 0,
      "instrumentName": "Piano\u0000",
      "isPercussion": false,
      "pitch": 74,
      "velocity": 96,
      "startTime": 130.91543945833325,
      "duration": 0.046484375000005684,
      "endTime": 130.96192383333326
    },
    {
      "instrumentId": 0,
      "instrumentName": "Piano\u0000",
      "isPercussion": false,
      "pitch": 74,
      "velocity": 96,
      "startTime": 131.00918945833325,
      "duration": 0.046484375000005684,
      "endTime": 131.05567383333326
    },
    {
      "instrumentId": 1,
      "instrumentName": "Piano\u0000",
      "isPercussion": false,
      "pitch": 40,
      "velocity": 96,
      "startTime": 131.00918945833325,
      "duration": 0.046484375000005684,
      "endTime": 131.05567383333326
    },
    {
      "instrumentId": 0,
      "instrumentName": "Piano\u0000",
      "isPercussion": false,
      "pitch": 72,
      "velocity": 96,
      "startTime": 131.10293945833325,
      "duration": 0.046484375000005684,
      "endTime": 131.14942383333326
    },
    {
      "instrumentId": 0,
      "instrumentName": "Piano\u0000",
      "isPercussion": false,
      "pitch": 71,
      "velocity": 96,
      "startTime": 131.19668945833325,
      "duration": 0.046484375000005684,
      "endTime": 131.24317383333326
    },
    {
      "instrumentId": 1,
      "instrumentName": "Piano\u0000",
      "isPercussion": false,
      "pitch": 50,
      "velocity": 96,
      "startTime": 131.19668945833325,
      "duration": 0.046484375000005684,
      "endTime": 131.24317383333326
    },
    {
      "instrumentId": 1,
      "instrumentName": "Piano\u0000",
      "isPercussion": false,
      "pitch": 52,
      "velocity": 96,
      "startTime": 131.19668945833325,
      "duration": 0.046484375000005684,
      "endTime": 131.24317383333326
    },
    {
      "instrumentId": 1,
      "instrumentName": "Piano\u0000",
      "isPercussion": false,
      "pitch": 56,
      "velocity": 96,
      "startTime": 131.19668945833325,
      "duration": 0.046484375000005684,
      "endTime": 131.24317383333326
    },
    {
      "instrumentId": 0,
      "instrumentName": "Piano\u0000",
      "isPercussion": false,
      "pitch": 74,
      "velocity": 96,
      "startTime": 131.29043945833325,
      "duration": 0.046484375000005684,
      "endTime": 131.33692383333326
    },
    {
      "instrumentId": 0,
      "instrumentName": "Piano\u0000",
      "isPercussion": false,
      "pitch": 72,
      "velocity": 96,
      "startTime": 131.38418945833325,
      "duration": 0.046484375000005684,
      "endTime": 131.43067383333326
    },
    {
      "instrumentId": 1,
      "instrumentName": "Piano\u0000",
      "isPercussion": false,
      "pitch": 45,
      "velocity": 96,
      "startTime": 131.38418945833325,
      "duration": 0.046484375000005684,
      "endTime": 131.43067383333326
    },
    {
      "instrumentId": 0,
      "instrumentName": "Piano\u0000",
      "isPercussion": false,
      "pitch": 72,
      "velocity": 96,
      "startTime": 131.47793945833325,
      "duration": 0.046484375000005684,
      "endTime": 131.52442383333326
    },
    {
      "instrumentId": 0,
      "instrumentName": "Piano\u0000",
      "isPercussion": false,
      "pitch": 72,
      "velocity": 96,
      "startTime": 131.57168945833325,
      "duration": 0.046484375000005684,
      "endTime": 131.61817383333326
    },
    {
      "instrumentId": 1,
      "instrumentName": "Piano\u0000",
      "isPercussion": false,
      "pitch": 57,
      "velocity": 96,
      "startTime": 131.57168945833325,
      "duration": 0.046484375000005684,
      "endTime": 131.61817383333326
    },
    {
      "instrumentId": 1,
      "instrumentName": "Piano\u0000",
      "isPercussion": false,
      "pitch": 60,
      "velocity": 96,
      "startTime": 131.57168945833325,
      "duration": 0.046484375000005684,
      "endTime": 131.61817383333326
    },
    {
      "instrumentId": 1,
      "instrumentName": "Piano\u0000",
      "isPercussion": false,
      "pitch": 64,
      "velocity": 96,
      "startTime": 131.57168945833325,
      "duration": 0.046484375000005684,
      "endTime": 131.61817383333326
    },
    {
      "instrumentId": 0,
      "instrumentName": "Piano\u0000",
      "isPercussion": false,
      "pitch": 72,
      "velocity": 96,
      "startTime": 131.66543945833325,
      "duration": 0.046484375000005684,
      "endTime": 131.71192383333326
    },
    {
      "instrumentId": 0,
      "instrumentName": "Piano\u0000",
      "isPercussion": false,
      "pitch": 72,
      "velocity": 96,
      "startTime": 131.75918945833325,
      "duration": 0.046484375000005684,
      "endTime": 131.80567383333326
    },
    {
      "instrumentId": 1,
      "instrumentName": "Piano\u0000",
      "isPercussion": false,
      "pitch": 40,
      "velocity": 96,
      "startTime": 131.75918945833325,
      "duration": 0.046484375000005684,
      "endTime": 131.80567383333326
    },
    {
      "instrumentId": 0,
      "instrumentName": "Piano\u0000",
      "isPercussion": false,
      "pitch": 71,
      "velocity": 96,
      "startTime": 131.85293945833325,
      "duration": 0.046484375000005684,
      "endTime": 131.89942383333326
    },
    {
      "instrumentId": 0,
      "instrumentName": "Piano\u0000",
      "isPercussion": false,
      "pitch": 69,
      "velocity": 96,
      "startTime": 131.94668945833325,
      "duration": 0.046484375000005684,
      "endTime": 131.99317383333326
    },
    {
      "instrumentId": 1,
      "instrumentName": "Piano\u0000",
      "isPercussion": false,
      "pitch": 57,
      "velocity": 96,
      "startTime": 131.94668945833325,
      "duration": 0.046484375000005684,
      "endTime": 131.99317383333326
    },
    {
      "instrumentId": 1,
      "instrumentName": "Piano\u0000",
      "isPercussion": false,
      "pitch": 60,
      "velocity": 96,
      "startTime": 131.94668945833325,
      "duration": 0.046484375000005684,
      "endTime": 131.99317383333326
    },
    {
      "instrumentId": 1,
      "instrumentName": "Piano\u0000",
      "isPercussion": false,
      "pitch": 64,
      "velocity": 96,
      "startTime": 131.94668945833325,
      "duration": 0.046484375000005684,
      "endTime": 131.99317383333326
    },
    {
      "instrumentId": 0,
      "instrumentName": "Piano\u0000",
      "isPercussion": false,
      "pitch": 72,
      "velocity": 96,
      "startTime": 132.04043945833325,
      "duration": 0.046484375000005684,
      "endTime": 132.08692383333326
    },
    {
      "instrumentId": 0,
      "instrumentName": "Piano\u0000",
      "isPercussion": false,
      "pitch": 71,
      "velocity": 96,
      "startTime": 132.13418945833325,
      "duration": 0.046484375000005684,
      "endTime": 132.18067383333326
    },
    {
      "instrumentId": 1,
      "instrumentName": "Piano\u0000",
      "isPercussion": false,
      "pitch": 47,
      "velocity": 96,
      "startTime": 132.13418945833325,
      "duration": 0.046484375000005684,
      "endTime": 132.18067383333326
    },
    {
      "instrumentId": 0,
      "instrumentName": "Piano\u0000",
      "isPercussion": false,
      "pitch": 71,
      "velocity": 96,
      "startTime": 132.22793945833325,
      "duration": 0.046484375000005684,
      "endTime": 132.27442383333326
    },
    {
      "instrumentId": 0,
      "instrumentName": "Piano\u0000",
      "isPercussion": false,
      "pitch": 71,
      "velocity": 96,
      "startTime": 132.32168945833325,
      "duration": 0.046484375000005684,
      "endTime": 132.36817383333326
    },
    {
      "instrumentId": 1,
      "instrumentName": "Piano\u0000",
      "isPercussion": false,
      "pitch": 51,
      "velocity": 96,
      "startTime": 132.32168945833325,
      "duration": 0.046484375000005684,
      "endTime": 132.36817383333326
    },
    {
      "instrumentId": 1,
      "instrumentName": "Piano\u0000",
      "isPercussion": false,
      "pitch": 59,
      "velocity": 96,
      "startTime": 132.32168945833325,
      "duration": 0.046484375000005684,
      "endTime": 132.36817383333326
    },
    {
      "instrumentId": 0,
      "instrumentName": "Piano\u0000",
      "isPercussion": false,
      "pitch": 71,
      "velocity": 96,
      "startTime": 132.41543945833325,
      "duration": 0.046484375000005684,
      "endTime": 132.46192383333326
    },
    {
      "instrumentId": 0,
      "instrumentName": "Piano\u0000",
      "isPercussion": false,
      "pitch": 66,
      "velocity": 96,
      "startTime": 132.50918945833325,
      "duration": 0.046484375000005684,
      "endTime": 132.55567383333326
    },
    {
      "instrumentId": 1,
      "instrumentName": "Piano\u0000",
      "isPercussion": false,
      "pitch": 42,
      "velocity": 96,
      "startTime": 132.50918945833325,
      "duration": 0.046484375000005684,
      "endTime": 132.55567383333326
    },
    {
      "instrumentId": 0,
      "instrumentName": "Piano\u0000",
      "isPercussion": false,
      "pitch": 71,
      "velocity": 96,
      "startTime": 132.69668945833325,
      "duration": 0.046484375000005684,
      "endTime": 132.74317383333326
    },
    {
      "instrumentId": 1,
      "instrumentName": "Piano\u0000",
      "isPercussion": false,
      "pitch": 51,
      "velocity": 96,
      "startTime": 132.69668945833325,
      "duration": 0.046484375000005684,
      "endTime": 132.74317383333326
    },
    {
      "instrumentId": 1,
      "instrumentName": "Piano\u0000",
      "isPercussion": false,
      "pitch": 57,
      "velocity": 96,
      "startTime": 132.69668945833325,
      "duration": 0.046484375000005684,
      "endTime": 132.74317383333326
    },
    {
      "instrumentId": 0,
      "instrumentName": "Piano\u0000",
      "isPercussion": false,
      "pitch": 68,
      "velocity": 115,
      "startTime": 132.88418945833325,
      "duration": 0.062109375000005684,
      "endTime": 132.94629883333326
    },
    {
      "instrumentId": 1,
      "instrumentName": "Piano\u0000",
      "isPercussion": false,
      "pitch": 52,
      "velocity": 115,
      "startTime": 132.88418945833325,
      "duration": 0.062109375000005684,
      "endTime": 132.94629883333326
    },
    {
      "instrumentId": 0,
      "instrumentName": "Piano\u0000",
      "isPercussion": false,
      "pitch": 52,
      "velocity": 96,
      "startTime": 133.25918945833325,
      "duration": 0.3558593749999943,
      "endTime": 133.61504883333325
    },
    {
      "instrumentId": 1,
      "instrumentName": "Piano\u0000",
      "isPercussion": false,
      "pitch": 28,
      "velocity": 96,
      "startTime": 133.25918945833325,
      "duration": 0.31132812499998863,
      "endTime": 133.57051758333324
    },
    {
      "instrumentId": 1,
      "instrumentName": "Piano\u0000",
      "isPercussion": false,
      "pitch": 40,
      "velocity": 96,
      "startTime": 133.25918945833325,
      "duration": 0.322265625,
      "endTime": 133.58145508333325
    },
    {
      "instrumentId": 1,
      "instrumentName": "Piano\u0000",
      "isPercussion": false,
      "pitch": 42,
      "velocity": 96,
      "startTime": 133.59903320833325,
      "duration": 0.010546874999988631,
      "endTime": 133.60958008333324
    },
    {
      "instrumentId": 1,
      "instrumentName": "Piano\u0000",
      "isPercussion": false,
      "pitch": 43,
      "velocity": 96,
      "startTime": 133.61075195833325,
      "duration": 0.010546874999988631,
      "endTime": 133.62129883333324
    },
    {
      "instrumentId": 1,
      "instrumentName": "Piano\u0000",
      "isPercussion": false,
      "pitch": 44,
      "velocity": 96,
      "startTime": 133.62247070833325,
      "duration": 0.010546874999988631,
      "endTime": 133.63301758333324
    },
    {
      "instrumentId": 0,
      "instrumentName": "Piano\u0000",
      "isPercussion": false,
      "pitch": 64,
      "velocity": 96,
      "startTime": 133.63418945833325,
      "duration": 0.046484375000005684,
      "endTime": 133.68067383333326
    },
    {
      "instrumentId": 1,
      "instrumentName": "Piano\u0000",
      "isPercussion": false,
      "pitch": 33,
      "velocity": 96,
      "startTime": 133.63418945833325,
      "duration": 0.18710937500000568,
      "endTime": 133.82129883333326
    },
    {
      "instrumentId": 1,
      "instrumentName": "Piano\u0000",
      "isPercussion": false,
      "pitch": 45,
      "velocity": 96,
      "startTime": 133.63418945833325,
      "duration": 0.18710937500000568,
      "endTime": 133.82129883333326
    },
    {
      "instrumentId": 0,
      "instrumentName": "Piano\u0000",
      "isPercussion": false,
      "pitch": 64,
      "velocity": 96,
      "startTime": 133.72793945833325,
      "duration": 0.046484375000005684,
      "endTime": 133.77442383333326
    },
    {
      "instrumentId": 1,
      "instrumentName": "Piano\u0000",
      "isPercussion": false,
      "pitch": 57,
      "velocity": 96,
      "startTime": 133.82168945833325,
      "duration": 0.046484375000005684,
      "endTime": 133.86817383333326
    },
    {
      "instrumentId": 1,
      "instrumentName": "Piano\u0000",
      "isPercussion": false,
      "pitch": 60,
      "velocity": 96,
      "startTime": 133.82168945833325,
      "duration": 0.046484375000005684,
      "endTime": 133.86817383333326
    },
    {
      "instrumentId": 1,
      "instrumentName": "Piano\u0000",
      "isPercussion": false,
      "pitch": 64,
      "velocity": 96,
      "startTime": 133.82168945833325,
      "duration": 0.046484375000005684,
      "endTime": 133.86817383333326
    },
    {
      "instrumentId": 0,
      "instrumentName": "Piano\u0000",
      "isPercussion": false,
      "pitch": 64,
      "velocity": 96,
      "startTime": 133.91543945833325,
      "duration": 0.046484375000005684,
      "endTime": 133.96192383333326
    },
    {
      "instrumentId": 0,
      "instrumentName": "Piano\u0000",
      "isPercussion": false,
      "pitch": 64,
      "velocity": 96,
      "startTime": 134.00918945833325,
      "duration": 0.046484375000005684,
      "endTime": 134.05567383333326
    },
    {
      "instrumentId": 1,
      "instrumentName": "Piano\u0000",
      "isPercussion": false,
      "pitch": 40,
      "velocity": 96,
      "startTime": 134.00918945833325,
      "duration": 0.046484375000005684,
      "endTime": 134.05567383333326
    },
    {
      "instrumentId": 0,
      "instrumentName": "Piano\u0000",
      "isPercussion": false,
      "pitch": 64,
      "velocity": 96,
      "startTime": 134.10293945833325,
      "duration": 0.046484375000005684,
      "endTime": 134.14942383333326
    },
    {
      "instrumentId": 1,
      "instrumentName": "Piano\u0000",
      "isPercussion": false,
      "pitch": 57,
      "velocity": 96,
      "startTime": 134.19668945833325,
      "duration": 0.046484375000005684,
      "endTime": 134.24317383333326
    },
    {
      "instrumentId": 1,
      "instrumentName": "Piano\u0000",
      "isPercussion": false,
      "pitch": 60,
      "velocity": 96,
      "startTime": 134.19668945833325,
      "duration": 0.046484375000005684,
      "endTime": 134.24317383333326
    },
    {
      "instrumentId": 1,
      "instrumentName": "Piano\u0000",
      "isPercussion": false,
      "pitch": 64,
      "velocity": 96,
      "startTime": 134.19668945833325,
      "duration": 0.046484375000005684,
      "endTime": 134.24317383333326
    },
    {
      "instrumentId": 0,
      "instrumentName": "Piano\u0000",
      "isPercussion": false,
      "pitch": 64,
      "velocity": 96,
      "startTime": 134.29043945833325,
      "duration": 0.046484375000005684,
      "endTime": 134.33692383333326
    },
    {
      "instrumentId": 1,
      "instrumentName": "Piano\u0000",
      "isPercussion": false,
      "pitch": 45,
      "velocity": 96,
      "startTime": 134.38418945833325,
      "duration": 0.18710937500000568,
      "endTime": 134.57129883333326
    },
    {
      "instrumentId": 0,
      "instrumentName": "Piano\u0000",
      "isPercussion": false,
      "pitch": 64,
      "velocity": 96,
      "startTime": 134.47793945833325,
      "duration": 0.046484375000005684,
      "endTime": 134.52442383333326
    },
    {
      "instrumentId": 1,
      "instrumentName": "Piano\u0000",
      "isPercussion": false,
      "pitch": 57,
      "velocity": 96,
      "startTime": 134.57168945833325,
      "duration": 0.046484375000005684,
      "endTime": 134.61817383333326
    },
    {
      "instrumentId": 1,
      "instrumentName": "Piano\u0000",
      "isPercussion": false,
      "pitch": 60,
      "velocity": 96,
      "startTime": 134.57168945833325,
      "duration": 0.046484375000005684,
      "endTime": 134.61817383333326
    },
    {
      "instrumentId": 1,
      "instrumentName": "Piano\u0000",
      "isPercussion": false,
      "pitch": 64,
      "velocity": 96,
      "startTime": 134.57168945833325,
      "duration": 0.046484375000005684,
      "endTime": 134.61817383333326
    },
    {
      "instrumentId": 0,
      "instrumentName": "Piano\u0000",
      "isPercussion": false,
      "pitch": 64,
      "velocity": 96,
      "startTime": 134.66543945833325,
      "duration": 0.046484375000005684,
      "endTime": 134.71192383333326
    },
    {
      "instrumentId": 0,
      "instrumentName": "Piano\u0000",
      "isPercussion": false,
      "pitch": 64,
      "velocity": 96,
      "startTime": 134.75918945833325,
      "duration": 0.046484375000005684,
      "endTime": 134.80567383333326
    },
    {
      "instrumentId": 1,
      "instrumentName": "Piano\u0000",
      "isPercussion": false,
      "pitch": 40,
      "velocity": 96,
      "startTime": 134.75918945833325,
      "duration": 0.046484375000005684,
      "endTime": 134.80567383333326
    },
    {
      "instrumentId": 0,
      "instrumentName": "Piano\u0000",
      "isPercussion": false,
      "pitch": 64,
      "velocity": 96,
      "startTime": 134.85293945833325,
      "duration": 0.046484375000005684,
      "endTime": 134.89942383333326
    },
    {
      "instrumentId": 1,
      "instrumentName": "Piano\u0000",
      "isPercussion": false,
      "pitch": 57,
      "velocity": 96,
      "startTime": 134.94668945833325,
      "duration": 0.046484375000005684,
      "endTime": 134.99317383333326
    },
    {
      "instrumentId": 1,
      "instrumentName": "Piano\u0000",
      "isPercussion": false,
      "pitch": 60,
      "velocity": 96,
      "startTime": 134.94668945833325,
      "duration": 0.046484375000005684,
      "endTime": 134.99317383333326
    },
    {
      "instrumentId": 1,
      "instrumentName": "Piano\u0000",
      "isPercussion": false,
      "pitch": 64,
      "velocity": 96,
      "startTime": 134.94668945833325,
      "duration": 0.046484375000005684,
      "endTime": 134.99317383333326
    },
    {
      "instrumentId": 0,
      "instrumentName": "Piano\u0000",
      "isPercussion": false,
      "pitch": 64,
      "velocity": 96,
      "startTime": 135.04043945833325,
      "duration": 0.046484375000005684,
      "endTime": 135.08692383333326
    },
    {
      "instrumentId": 0,
      "instrumentName": "Piano\u0000",
      "isPercussion": false,
      "pitch": 64,
      "velocity": 96,
      "startTime": 135.13418945833325,
      "duration": 0.09335937500000568,
      "endTime": 135.22754883333326
    },
    {
      "instrumentId": 1,
      "instrumentName": "Piano\u0000",
      "isPercussion": false,
      "pitch": 45,
      "velocity": 96,
      "startTime": 135.13418945833325,
      "duration": 0.18710937500000568,
      "endTime": 135.32129883333326
    },
    {
      "instrumentId": 0,
      "instrumentName": "Piano\u0000",
      "isPercussion": false,
      "pitch": 65,
      "velocity": 96,
      "startTime": 135.22793945833325,
      "duration": 0.09335937500000568,
      "endTime": 135.32129883333326
    },
    {
      "instrumentId": 1,
      "instrumentName": "Piano\u0000",
      "isPercussion": false,
      "pitch": 57,
      "velocity": 96,
      "startTime": 135.32168945833325,
      "duration": 0.046484375000005684,
      "endTime": 135.36817383333326
    },
    {
      "instrumentId": 1,
      "instrumentName": "Piano\u0000",
      "isPercussion": false,
      "pitch": 60,
      "velocity": 96,
      "startTime": 135.32168945833325,
      "duration": 0.046484375000005684,
      "endTime": 135.36817383333326
    },
    {
      "instrumentId": 1,
      "instrumentName": "Piano\u0000",
      "isPercussion": false,
      "pitch": 64,
      "velocity": 96,
      "startTime": 135.32168945833325,
      "duration": 0.09335937500000568,
      "endTime": 135.41504883333326
    },
    {
      "instrumentId": 0,
      "instrumentName": "Piano\u0000",
      "isPercussion": false,
      "pitch": 63,
      "velocity": 96,
      "startTime": 135.41543945833325,
      "duration": 0.08867187499998863,
      "endTime": 135.50411133333324
    },
    {
      "instrumentId": 0,
      "instrumentName": "Piano\u0000",
      "isPercussion": false,
      "pitch": 64,
      "velocity": 96,
      "startTime": 135.50918945833325,
      "duration": 0.08867187499998863,
      "endTime": 135.59786133333324
    },
    {
      "instrumentId": 1,
      "instrumentName": "Piano\u0000",
      "isPercussion": false,
      "pitch": 40,
      "velocity": 96,
      "startTime": 135.50918945833325,
      "duration": 0.046484375000005684,
      "endTime": 135.55567383333326
    },
    {
      "instrumentId": 0,
      "instrumentName": "Piano\u0000",
      "isPercussion": false,
      "pitch": 69,
      "velocity": 96,
      "startTime": 135.69668945833325,
      "duration": 0.08867187499998863,
      "endTime": 135.78536133333324
    },
    {
      "instrumentId": 1,
      "instrumentName": "Piano\u0000",
      "isPercussion": false,
      "pitch": 57,
      "velocity": 96,
      "startTime": 135.69668945833325,
      "duration": 0.046484375000005684,
      "endTime": 135.74317383333326
    },
    {
      "instrumentId": 1,
      "instrumentName": "Piano\u0000",
      "isPercussion": false,
      "pitch": 60,
      "velocity": 96,
      "startTime": 135.69668945833325,
      "duration": 0.046484375000005684,
      "endTime": 135.74317383333326
    },
    {
      "instrumentId": 1,
      "instrumentName": "Piano\u0000",
      "isPercussion": false,
      "pitch": 64,
      "velocity": 96,
      "startTime": 135.69668945833325,
      "duration": 0.046484375000005684,
      "endTime": 135.74317383333326
    },
    {
      "instrumentId": 0,
      "instrumentName": "Piano\u0000",
      "isPercussion": false,
      "pitch": 72,
      "velocity": 96,
      "startTime": 135.79043945833325,
      "duration": 0.08867187499998863,
      "endTime": 135.87911133333324
    },
    {
      "instrumentId": 0,
      "instrumentName": "Piano\u0000",
      "isPercussion": false,
      "pitch": 76,
      "velocity": 96,
      "startTime": 135.88418945833325,
      "duration": 0.046484375000005684,
      "endTime": 135.93067383333326
    },
    {
      "instrumentId": 1,
      "instrumentName": "Piano\u0000",
      "isPercussion": false,
      "pitch": 45,
      "velocity": 96,
      "startTime": 135.88418945833325,
      "duration": 0.18710937500000568,
      "endTime": 136.07129883333326
    },
    {
      "instrumentId": 0,
      "instrumentName": "Piano\u0000",
      "isPercussion": false,
      "pitch": 81,
      "velocity": 96,
      "startTime": 136.07168945833325,
      "duration": 0.046484375000005684,
      "endTime": 136.11817383333326
    },
    {
      "instrumentId": 1,
      "instrumentName": "Piano\u0000",
      "isPercussion": false,
      "pitch": 57,
      "velocity": 96,
      "startTime": 136.07168945833325,
      "duration": 0.046484375000005684,
      "endTime": 136.11817383333326
    },
    {
      "instrumentId": 1,
      "instrumentName": "Piano\u0000",
      "isPercussion": false,
      "pitch": 60,
      "velocity": 96,
      "startTime": 136.07168945833325,
      "duration": 0.046484375000005684,
      "endTime": 136.11817383333326
    },
    {
      "instrumentId": 1,
      "instrumentName": "Piano\u0000",
      "isPercussion": false,
      "pitch": 64,
      "velocity": 96,
      "startTime": 136.07168945833325,
      "duration": 0.046484375000005684,
      "endTime": 136.11817383333326
    },
    {
      "instrumentId": 0,
      "instrumentName": "Piano\u0000",
      "isPercussion": false,
      "pitch": 84,
      "velocity": 96,
      "startTime": 136.25918945833325,
      "duration": 0.3558593749999943,
      "endTime": 136.61504883333325
    },
    {
      "instrumentId": 1,
      "instrumentName": "Piano\u0000",
      "isPercussion": false,
      "pitch": 40,
      "velocity": 96,
      "startTime": 136.25918945833325,
      "duration": 0.046484375000005684,
      "endTime": 136.30567383333326
    },
    {
      "instrumentId": 1,
      "instrumentName": "Piano\u0000",
      "isPercussion": false,
      "pitch": 57,
      "velocity": 96,
      "startTime": 136.44668945833325,
      "duration": 0.046484375000005684,
      "endTime": 136.49317383333326
    },
    {
      "instrumentId": 1,
      "instrumentName": "Piano\u0000",
      "isPercussion": false,
      "pitch": 60,
      "velocity": 96,
      "startTime": 136.44668945833325,
      "duration": 0.046484375000005684,
      "endTime": 136.49317383333326
    },
    {
      "instrumentId": 1,
      "instrumentName": "Piano\u0000",
      "isPercussion": false,
      "pitch": 64,
      "velocity": 96,
      "startTime": 136.44668945833325,
      "duration": 0.046484375000005684,
      "endTime": 136.49317383333326
    },
    {
      "instrumentId": 0,
      "instrumentName": "Piano\u0000",
      "isPercussion": false,
      "pitch": 76,
      "velocity": 96,
      "startTime": 136.63418945833325,
      "duration": 0.09335937500000568,
      "endTime": 136.72754883333326
    },
    {
      "instrumentId": 0,
      "instrumentName": "Piano\u0000",
      "isPercussion": false,
      "pitch": 83,
      "velocity": 96,
      "startTime": 136.63418945833325,
      "duration": 0.09335937500000568,
      "endTime": 136.72754883333326
    },
    {
      "instrumentId": 0,
      "instrumentName": "Piano\u0000",
      "isPercussion": false,
      "pitch": 86,
      "velocity": 96,
      "startTime": 136.63418945833325,
      "duration": 0.09335937500000568,
      "endTime": 136.72754883333326
    },
    {
      "instrumentId": 1,
      "instrumentName": "Piano\u0000",
      "isPercussion": false,
      "pitch": 50,
      "velocity": 96,
      "startTime": 136.63418945833325,
      "duration": 0.046484375000005684,
      "endTime": 136.68067383333326
    },
    {
      "instrumentId": 0,
      "instrumentName": "Piano\u0000",
      "isPercussion": false,
      "pitch": 84,
      "velocity": 96,
      "startTime": 136.72793945833325,
      "duration": 0.09335937500000568,
      "endTime": 136.82129883333326
    },
    {
      "instrumentId": 0,
      "instrumentName": "Piano\u0000",
      "isPercussion": false,
      "pitch": 83,
      "velocity": 96,
      "startTime": 136.82168945833325,
      "duration": 0.09335937500000568,
      "endTime": 136.91504883333326
    },
    {
      "instrumentId": 1,
      "instrumentName": "Piano\u0000",
      "isPercussion": false,
      "pitch": 53,
      "velocity": 96,
      "startTime": 136.82168945833325,
      "duration": 0.046484375000005684,
      "endTime": 136.86817383333326
    },
    {
      "instrumentId": 1,
      "instrumentName": "Piano\u0000",
      "isPercussion": false,
      "pitch": 59,
      "velocity": 96,
      "startTime": 136.82168945833325,
      "duration": 0.046484375000005684,
      "endTime": 136.86817383333326
    },
    {
      "instrumentId": 0,
      "instrumentName": "Piano\u0000",
      "isPercussion": false,
      "pitch": 86,
      "velocity": 96,
      "startTime": 136.91543945833325,
      "duration": 0.09335937500000568,
      "endTime": 137.00879883333326
    },
    {
      "instrumentId": 0,
      "instrumentName": "Piano\u0000",
      "isPercussion": false,
      "pitch": 76,
      "velocity": 96,
      "startTime": 137.00918945833325,
      "duration": 0.09335937500000568,
      "endTime": 137.10254883333326
    },
    {
      "instrumentId": 0,
      "instrumentName": "Piano\u0000",
      "isPercussion": false,
      "pitch": 81,
      "velocity": 96,
      "startTime": 137.00918945833325,
      "duration": 0.09335937500000568,
      "endTime": 137.10254883333326
    },
    {
      "instrumentId": 0,
      "instrumentName": "Piano\u0000",
      "isPercussion": false,
      "pitch": 84,
      "velocity": 96,
      "startTime": 137.00918945833325,
      "duration": 0.09335937500000568,
      "endTime": 137.10254883333326
    },
    {
      "instrumentId": 1,
      "instrumentName": "Piano\u0000",
      "isPercussion": false,
      "pitch": 48,
      "velocity": 96,
      "startTime": 137.00918945833325,
      "duration": 0.046484375000005684,
      "endTime": 137.05567383333326
    },
    {
      "instrumentId": 0,
      "instrumentName": "Piano\u0000",
      "isPercussion": false,
      "pitch": 83,
      "velocity": 96,
      "startTime": 137.10293945833325,
      "duration": 0.09335937500000568,
      "endTime": 137.19629883333326
    },
    {
      "instrumentId": 0,
      "instrumentName": "Piano\u0000",
      "isPercussion": false,
      "pitch": 81,
      "velocity": 96,
      "startTime": 137.19668945833325,
      "duration": 0.09335937500000568,
      "endTime": 137.29004883333326
    },
    {
      "instrumentId": 1,
      "instrumentName": "Piano\u0000",
      "isPercussion": false,
      "pitch": 52,
      "velocity": 96,
      "startTime": 137.19668945833325,
      "duration": 0.046484375000005684,
      "endTime": 137.24317383333326
    },
    {
      "instrumentId": 1,
      "instrumentName": "Piano\u0000",
      "isPercussion": false,
      "pitch": 60,
      "velocity": 96,
      "startTime": 137.19668945833325,
      "duration": 0.046484375000005684,
      "endTime": 137.24317383333326
    },
    {
      "instrumentId": 0,
      "instrumentName": "Piano\u0000",
      "isPercussion": false,
      "pitch": 84,
      "velocity": 96,
      "startTime": 137.29043945833325,
      "duration": 0.09335937500000568,
      "endTime": 137.38379883333326
    },
    {
      "instrumentId": 0,
      "instrumentName": "Piano\u0000",
      "isPercussion": false,
      "pitch": 80,
      "velocity": 96,
      "startTime": 137.38418945833325,
      "duration": 0.09335937500000568,
      "endTime": 137.47754883333326
    },
    {
      "instrumentId": 0,
      "instrumentName": "Piano\u0000",
      "isPercussion": false,
      "pitch": 83,
      "velocity": 96,
      "startTime": 137.38418945833325,
      "duration": 0.09335937500000568,
      "endTime": 137.47754883333326
    },
    {
      "instrumentId": 1,
      "instrumentName": "Piano\u0000",
      "isPercussion": false,
      "pitch": 47,
      "velocity": 96,
      "startTime": 137.38418945833325,
      "duration": 0.046484375000005684,
      "endTime": 137.43067383333326
    },
    {
      "instrumentId": 0,
      "instrumentName": "Piano\u0000",
      "isPercussion": false,
      "pitch": 81,
      "velocity": 96,
      "startTime": 137.47793945833325,
      "duration": 0.09335937500000568,
      "endTime": 137.57129883333326
    },
    {
      "instrumentId": 0,
      "instrumentName": "Piano\u0000",
      "isPercussion": false,
      "pitch": 80,
      "velocity": 96,
      "startTime": 137.57168945833325,
      "duration": 0.09335937500000568,
      "endTime": 137.66504883333326
    },
    {
      "instrumentId": 1,
      "instrumentName": "Piano\u0000",
      "isPercussion": false,
      "pitch": 50,
      "velocity": 96,
      "startTime": 137.57168945833325,
      "duration": 0.046484375000005684,
      "endTime": 137.61817383333326
    },
    {
      "instrumentId": 1,
      "instrumentName": "Piano\u0000",
      "isPercussion": false,
      "pitch": 56,
      "velocity": 96,
      "startTime": 137.57168945833325,
      "duration": 0.046484375000005684,
      "endTime": 137.61817383333326
    },
    {
      "instrumentId": 0,
      "instrumentName": "Piano\u0000",
      "isPercussion": false,
      "pitch": 83,
      "velocity": 96,
      "startTime": 137.66543945833325,
      "duration": 0.09335937500000568,
      "endTime": 137.75879883333326
    },
    {
      "instrumentId": 0,
      "instrumentName": "Piano\u0000",
      "isPercussion": false,
      "pitch": 76,
      "velocity": 96,
      "startTime": 137.75918945833325,
      "duration": 0.09335937500000568,
      "endTime": 137.85254883333326
    },
    {
      "instrumentId": 0,
      "instrumentName": "Piano\u0000",
      "isPercussion": false,
      "pitch": 81,
      "velocity": 96,
      "startTime": 137.75918945833325,
      "duration": 0.09335937500000568,
      "endTime": 137.85254883333326
    },
    {
      "instrumentId": 1,
      "instrumentName": "Piano\u0000",
      "isPercussion": false,
      "pitch": 45,
      "velocity": 96,
      "startTime": 137.75918945833325,
      "duration": 0.046484375000005684,
      "endTime": 137.80567383333326
    },
    {
      "instrumentId": 0,
      "instrumentName": "Piano\u0000",
      "isPercussion": false,
      "pitch": 76,
      "velocity": 96,
      "startTime": 137.85293945833325,
      "duration": 0.09335937500000568,
      "endTime": 137.94629883333326
    },
    {
      "instrumentId": 0,
      "instrumentName": "Piano\u0000",
      "isPercussion": false,
      "pitch": 72,
      "velocity": 96,
      "startTime": 137.94668945833325,
      "duration": 0.09335937500000568,
      "endTime": 138.04004883333326
    },
    {
      "instrumentId": 1,
      "instrumentName": "Piano\u0000",
      "isPercussion": false,
      "pitch": 48,
      "velocity": 96,
      "startTime": 137.94668945833325,
      "duration": 0.046484375000005684,
      "endTime": 137.99317383333326
    },
    {
      "instrumentId": 1,
      "instrumentName": "Piano\u0000",
      "isPercussion": false,
      "pitch": 57,
      "velocity": 96,
      "startTime": 137.94668945833325,
      "duration": 0.046484375000005684,
      "endTime": 137.99317383333326
    },
    {
      "instrumentId": 0,
      "instrumentName": "Piano\u0000",
      "isPercussion": false,
      "pitch": 69,
      "velocity": 96,
      "startTime": 138.04043945833325,
      "duration": 0.09335937500000568,
      "endTime": 138.13379883333326
    },
    {
      "instrumentId": 0,
      "instrumentName": "Piano\u0000",
      "isPercussion": false,
      "pitch": 77,
      "velocity": 96,
      "startTime": 138.13418945833325,
      "duration": 0.09335937500000568,
      "endTime": 138.22754883333326
    },
    {
      "instrumentId": 1,
      "instrumentName": "Piano\u0000",
      "isPercussion": false,
      "pitch": 40,
      "velocity": 96,
      "startTime": 138.13418945833325,
      "duration": 0.08867187499998863,
      "endTime": 138.22286133333324
    },
    {
      "instrumentId": 1,
      "instrumentName": "Piano\u0000",
      "isPercussion": false,
      "pitch": 52,
      "velocity": 96,
      "startTime": 138.13418945833325,
      "duration": 0.08867187499998863,
      "endTime": 138.22286133333324
    },
    {
      "instrumentId": 0,
      "instrumentName": "Piano\u0000",
      "isPercussion": false,
      "pitch": 76,
      "velocity": 96,
      "startTime": 138.22793945833325,
      "duration": 0.09335937500000568,
      "endTime": 138.32129883333326
    },
    {
      "instrumentId": 0,
      "instrumentName": "Piano\u0000",
      "isPercussion": false,
      "pitch": 74,
      "velocity": 96,
      "startTime": 138.32168945833325,
      "duration": 0.09335937500000568,
      "endTime": 138.41504883333326
    },
    {
      "instrumentId": 1,
      "instrumentName": "Piano\u0000",
      "isPercussion": false,
      "pitch": 42,
      "velocity": 96,
      "startTime": 138.32168945833325,
      "duration": 0.08867187499998863,
      "endTime": 138.41036133333324
    },
    {
      "instrumentId": 1,
      "instrumentName": "Piano\u0000",
      "isPercussion": false,
      "pitch": 54,
      "velocity": 96,
      "startTime": 138.32168945833325,
      "duration": 0.08867187499998863,
      "endTime": 138.41036133333324
    },
    {
      "instrumentId": 0,
      "instrumentName": "Piano\u0000",
      "isPercussion": false,
      "pitch": 72,
      "velocity": 96,
      "startTime": 138.41543945833325,
      "duration": 0.09335937500000568,
      "endTime": 138.50879883333326
    },
    {
      "instrumentId": 0,
      "instrumentName": "Piano\u0000",
      "isPercussion": false,
      "pitch": 71,
      "velocity": 96,
      "startTime": 138.50918945833325,
      "duration": 0.09335937500000568,
      "endTime": 138.60254883333326
    },
    {
      "instrumentId": 1,
      "instrumentName": "Piano\u0000",
      "isPercussion": false,
      "pitch": 44,
      "velocity": 96,
      "startTime": 138.50918945833325,
      "duration": 0.08867187499998863,
      "endTime": 138.59786133333324
    },
    {
      "instrumentId": 1,
      "instrumentName": "Piano\u0000",
      "isPercussion": false,
      "pitch": 56,
      "velocity": 96,
      "startTime": 138.50918945833325,
      "duration": 0.08867187499998863,
      "endTime": 138.59786133333324
    },
    {
      "instrumentId": 0,
      "instrumentName": "Piano\u0000",
      "isPercussion": false,
      "pitch": 69,
      "velocity": 96,
      "startTime": 138.60293945833325,
      "duration": 0.09335937500000568,
      "endTime": 138.69629883333326
    },
    {
      "instrumentId": 0,
      "instrumentName": "Piano\u0000",
      "isPercussion": false,
      "pitch": 68,
      "velocity": 96,
      "startTime": 138.69668945833325,
      "duration": 0.09335937500000568,
      "endTime": 138.79004883333326
    },
    {
      "instrumentId": 1,
      "instrumentName": "Piano\u0000",
      "isPercussion": false,
      "pitch": 40,
      "velocity": 96,
      "startTime": 138.69668945833325,
      "duration": 0.08867187499998863,
      "endTime": 138.78536133333324
    },
    {
      "instrumentId": 1,
      "instrumentName": "Piano\u0000",
      "isPercussion": false,
      "pitch": 52,
      "velocity": 96,
      "startTime": 138.69668945833325,
      "duration": 0.08867187499998863,
      "endTime": 138.78536133333324
    },
    {
      "instrumentId": 0,
      "instrumentName": "Piano\u0000",
      "isPercussion": false,
      "pitch": 71,
      "velocity": 96,
      "startTime": 138.79043945833325,
      "duration": 0.09335937500000568,
      "endTime": 138.88379883333326
    },
    {
      "instrumentId": 0,
      "instrumentName": "Piano\u0000",
      "isPercussion": false,
      "pitch": 69,
      "velocity": 96,
      "startTime": 138.88418945833325,
      "duration": 0.3558593749999943,
      "endTime": 139.24004883333325
    },
    {
      "instrumentId": 1,
      "instrumentName": "Piano\u0000",
      "isPercussion": false,
      "pitch": 45,
      "velocity": 96,
      "startTime": 138.88418945833325,
      "duration": 0.3558593749999943,
      "endTime": 139.24004883333325
    },
    {
      "instrumentId": 1,
      "instrumentName": "Piano\u0000",
      "isPercussion": false,
      "pitch": 57,
      "velocity": 96,
      "startTime": 138.88418945833325,
      "duration": 0.3558593749999943,
      "endTime": 139.24004883333325
    },
    {
      "instrumentId": 0,
      "instrumentName": "Piano\u0000",
      "isPercussion": false,
      "pitch": 74,
      "velocity": 80,
      "startTime": 139.63418945833325,
      "duration": 0.2808593750000057,
      "endTime": 139.91504883333326
    },
    {
      "instrumentId": 1,
      "instrumentName": "Piano\u0000",
      "isPercussion": false,
      "pitch": 38,
      "velocity": 80,
      "startTime": 139.63418945833325,
      "duration": 0.18710937500000568,
      "endTime": 139.82129883333326
    },
    {
      "instrumentId": 1,
      "instrumentName": "Piano\u0000",
      "isPercussion": false,
      "pitch": 50,
      "velocity": 80,
      "startTime": 139.63418945833325,
      "duration": 0.18710937500000568,
      "endTime": 139.82129883333326
    },
    {
      "instrumentId": 1,
      "instrumentName": "Piano\u0000",
      "isPercussion": false,
      "pitch": 53,
      "velocity": 80,
      "startTime": 139.82168945833325,
      "duration": 0.046484375000005684,
      "endTime": 139.86817383333326
    },
    {
      "instrumentId": 1,
      "instrumentName": "Piano\u0000",
      "isPercussion": false,
      "pitch": 57,
      "velocity": 80,
      "startTime": 139.82168945833325,
      "duration": 0.046484375000005684,
      "endTime": 139.86817383333326
    },
    {
      "instrumentId": 0,
      "instrumentName": "Piano\u0000",
      "isPercussion": false,
      "pitch": 73,
      "velocity": 80,
      "startTime": 139.91543945833325,
      "duration": 0.08867187499998863,
      "endTime": 140.00411133333324
    },
    {
      "instrumentId": 0,
      "instrumentName": "Piano\u0000",
      "isPercussion": false,
      "pitch": 74,
      "velocity": 80,
      "startTime": 140.00918945833325,
      "duration": 0.09335937500000568,
      "endTime": 140.10254883333326
    },
    {
      "instrumentId": 1,
      "instrumentName": "Piano\u0000",
      "isPercussion": false,
      "pitch": 45,
      "velocity": 80,
      "startTime": 140.00918945833325,
      "duration": 0.18710937500000568,
      "endTime": 140.19629883333326
    },
    {
      "instrumentId": 0,
      "instrumentName": "Piano\u0000",
      "isPercussion": false,
      "pitch": 76,
      "velocity": 80,
      "startTime": 140.19668945833325,
      "duration": 0.09335937500000568,
      "endTime": 140.29004883333326
    },
    {
      "instrumentId": 1,
      "instrumentName": "Piano\u0000",
      "isPercussion": false,
      "pitch": 53,
      "velocity": 80,
      "startTime": 140.19668945833325,
      "duration": 0.046484375000005684,
      "endTime": 140.24317383333326
    },
    {
      "instrumentId": 1,
      "instrumentName": "Piano\u0000",
      "isPercussion": false,
      "pitch": 57,
      "velocity": 80,
      "startTime": 140.19668945833325,
      "duration": 0.046484375000005684,
      "endTime": 140.24317383333326
    },
    {
      "instrumentId": 0,
      "instrumentName": "Piano\u0000",
      "isPercussion": false,
      "pitch": 77,
      "velocity": 80,
      "startTime": 140.38418945833325,
      "duration": 0.177734375,
      "endTime": 140.56192383333325
    },
    {
      "instrumentId": 1,
      "instrumentName": "Piano\u0000",
      "isPercussion": false,
      "pitch": 50,
      "velocity": 80,
      "startTime": 140.38418945833325,
      "duration": 0.18710937500000568,
      "endTime": 140.57129883333326
    },
    {
      "instrumentId": 0,
      "instrumentName": "Piano\u0000",
      "isPercussion": false,
      "pitch": 76,
      "velocity": 80,
      "startTime": 140.57168945833325,
      "duration": 0.177734375,
      "endTime": 140.74942383333325
    },
    {
      "instrumentId": 1,
      "instrumentName": "Piano\u0000",
      "isPercussion": false,
      "pitch": 53,
      "velocity": 80,
      "startTime": 140.57168945833325,
      "duration": 0.046484375000005684,
      "endTime": 140.61817383333326
    },
    {
      "instrumentId": 1,
      "instrumentName": "Piano\u0000",
      "isPercussion": false,
      "pitch": 57,
      "velocity": 80,
      "startTime": 140.57168945833325,
      "duration": 0.046484375000005684,
      "endTime": 140.61817383333326
    },
    {
      "instrumentId": 0,
      "instrumentName": "Piano\u0000",
      "isPercussion": false,
      "pitch": 74,
      "velocity": 80,
      "startTime": 140.75918945833325,
      "duration": 0.177734375,
      "endTime": 140.93692383333325
    },
    {
      "instrumentId": 1,
      "instrumentName": "Piano\u0000",
      "isPercussion": false,
      "pitch": 45,
      "velocity": 80,
      "startTime": 140.75918945833325,
      "duration": 0.18710937500000568,
      "endTime": 140.94629883333326
    },
    {
      "instrumentId": 0,
      "instrumentName": "Piano\u0000",
      "isPercussion": false,
      "pitch": 77,
      "velocity": 80,
      "startTime": 140.94668945833325,
      "duration": 0.177734375,
      "endTime": 141.12442383333325
    },
    {
      "instrumentId": 1,
      "instrumentName": "Piano\u0000",
      "isPercussion": false,
      "pitch": 53,
      "velocity": 80,
      "startTime": 140.94668945833325,
      "duration": 0.046484375000005684,
      "endTime": 140.99317383333326
    },
    {
      "instrumentId": 1,
      "instrumentName": "Piano\u0000",
      "isPercussion": false,
      "pitch": 57,
      "velocity": 80,
      "startTime": 140.94668945833325,
      "duration": 0.046484375000005684,
      "endTime": 140.99317383333326
    },
    {
      "instrumentId": 0,
      "instrumentName": "Piano\u0000",
      "isPercussion": false,
      "pitch": 76,
      "velocity": 80,
      "startTime": 141.13418945833325,
      "duration": 0.2808593750000057,
      "endTime": 141.41504883333326
    },
    {
      "instrumentId": 1,
      "instrumentName": "Piano\u0000",
      "isPercussion": false,
      "pitch": 48,
      "velocity": 80,
      "startTime": 141.13418945833325,
      "duration": 0.18710937500000568,
      "endTime": 141.32129883333326
    },
    {
      "instrumentId": 1,
      "instrumentName": "Piano\u0000",
      "isPercussion": false,
      "pitch": 52,
      "velocity": 80,
      "startTime": 141.32168945833325,
      "duration": 0.046484375000005684,
      "endTime": 141.36817383333326
    },
    {
      "instrumentId": 1,
      "instrumentName": "Piano\u0000",
      "isPercussion": false,
      "pitch": 57,
      "velocity": 80,
      "startTime": 141.32168945833325,
      "duration": 0.046484375000005684,
      "endTime": 141.36817383333326
    },
    {
      "instrumentId": 0,
      "instrumentName": "Piano\u0000",
      "isPercussion": false,
      "pitch": 74,
      "velocity": 80,
      "startTime": 141.41543945833325,
      "duration": 0.08867187499998863,
      "endTime": 141.50411133333324
    },
    {
      "instrumentId": 0,
      "instrumentName": "Piano\u0000",
      "isPercussion": false,
      "pitch": 72,
      "velocity": 80,
      "startTime": 141.50918945833325,
      "duration": 0.09335937500000568,
      "endTime": 141.60254883333326
    },
    {
      "instrumentId": 1,
      "instrumentName": "Piano\u0000",
      "isPercussion": false,
      "pitch": 45,
      "velocity": 80,
      "startTime": 141.50918945833325,
      "duration": 0.046484375000005684,
      "endTime": 141.55567383333326
    },
    {
      "instrumentId": 0,
      "instrumentName": "Piano\u0000",
      "isPercussion": false,
      "pitch": 74,
      "velocity": 80,
      "startTime": 141.69668945833325,
      "duration": 0.09335937500000568,
      "endTime": 141.79004883333326
    },
    {
      "instrumentId": 1,
      "instrumentName": "Piano\u0000",
      "isPercussion": false,
      "pitch": 52,
      "velocity": 80,
      "startTime": 141.69668945833325,
      "duration": 0.046484375000005684,
      "endTime": 141.74317383333326
    },
    {
      "instrumentId": 1,
      "instrumentName": "Piano\u0000",
      "isPercussion": false,
      "pitch": 57,
      "velocity": 80,
      "startTime": 141.69668945833325,
      "duration": 0.046484375000005684,
      "endTime": 141.74317383333326
    },
    {
      "instrumentId": 0,
      "instrumentName": "Piano\u0000",
      "isPercussion": false,
      "pitch": 76,
      "velocity": 80,
      "startTime": 141.88418945833325,
      "duration": 0.5339843749999886,
      "endTime": 142.41817383333324
    },
    {
      "instrumentId": 1,
      "instrumentName": "Piano\u0000",
      "isPercussion": false,
      "pitch": 48,
      "velocity": 80,
      "startTime": 141.88418945833325,
      "duration": 0.18710937500000568,
      "endTime": 142.07129883333326
    },
    {
      "instrumentId": 1,
      "instrumentName": "Piano\u0000",
      "isPercussion": false,
      "pitch": 52,
      "velocity": 80,
      "startTime": 142.07168945833325,
      "duration": 0.046484375000005684,
      "endTime": 142.11817383333326
    },
    {
      "instrumentId": 1,
      "instrumentName": "Piano\u0000",
      "isPercussion": false,
      "pitch": 57,
      "velocity": 80,
      "startTime": 142.07168945833325,
      "duration": 0.046484375000005684,
      "endTime": 142.11817383333326
    },
    {
      "instrumentId": 1,
      "instrumentName": "Piano\u0000",
      "isPercussion": false,
      "pitch": 45,
      "velocity": 80,
      "startTime": 142.25918945833325,
      "duration": 0.046484375000005684,
      "endTime": 142.30567383333326
    },
    {
      "instrumentId": 0,
      "instrumentName": "Piano\u0000",
      "isPercussion": false,
      "pitch": 72,
      "velocity": 80,
      "startTime": 142.44668945833325,
      "duration": 0.09335937500000568,
      "endTime": 142.54004883333326
    },
    {
      "instrumentId": 1,
      "instrumentName": "Piano\u0000",
      "isPercussion": false,
      "pitch": 52,
      "velocity": 80,
      "startTime": 142.44668945833325,
      "duration": 0.046484375000005684,
      "endTime": 142.49317383333326
    },
    {
      "instrumentId": 1,
      "instrumentName": "Piano\u0000",
      "isPercussion": false,
      "pitch": 57,
      "velocity": 80,
      "startTime": 142.44668945833325,
      "duration": 0.046484375000005684,
      "endTime": 142.49317383333326
    },
    {
      "instrumentId": 0,
      "instrumentName": "Piano\u0000",
      "isPercussion": false,
      "pitch": 71,
      "velocity": 80,
      "startTime": 142.63418945833325,
      "duration": 0.26679687500001137,
      "endTime": 142.90098633333326
    },
    {
      "instrumentId": 1,
      "instrumentName": "Piano\u0000",
      "isPercussion": false,
      "pitch": 47,
      "velocity": 80,
      "startTime": 142.63418945833325,
      "duration": 0.18710937500000568,
      "endTime": 142.82129883333326
    },
    {
      "instrumentId": 1,
      "instrumentName": "Piano\u0000",
      "isPercussion": false,
      "pitch": 50,
      "velocity": 80,
      "startTime": 142.82168945833325,
      "duration": 0.046484375000005684,
      "endTime": 142.86817383333326
    },
    {
      "instrumentId": 1,
      "instrumentName": "Piano\u0000",
      "isPercussion": false,
      "pitch": 56,
      "velocity": 80,
      "startTime": 142.82168945833325,
      "duration": 0.046484375000005684,
      "endTime": 142.86817383333326
    },
    {
      "instrumentId": 0,
      "instrumentName": "Piano\u0000",
      "isPercussion": false,
      "pitch": 70,
      "velocity": 80,
      "startTime": 142.91543945833325,
      "duration": 0.08867187499998863,
      "endTime": 143.00411133333324
    },
    {
      "instrumentId": 0,
      "instrumentName": "Piano\u0000",
      "isPercussion": false,
      "pitch": 71,
      "velocity": 80,
      "startTime": 143.00918945833325,
      "duration": 0.09335937500000568,
      "endTime": 143.10254883333326
    },
    {
      "instrumentId": 1,
      "instrumentName": "Piano\u0000",
      "isPercussion": false,
      "pitch": 40,
      "velocity": 80,
      "startTime": 143.00918945833325,
      "duration": 0.046484375000005684,
      "endTime": 143.05567383333326
    },
    {
      "instrumentId": 0,
      "instrumentName": "Piano\u0000",
      "isPercussion": false,
      "pitch": 72,
      "velocity": 80,
      "startTime": 143.19668945833325,
      "duration": 0.09335937500000568,
      "endTime": 143.29004883333326
    },
    {
      "instrumentId": 1,
      "instrumentName": "Piano\u0000",
      "isPercussion": false,
      "pitch": 50,
      "velocity": 80,
      "startTime": 143.19668945833325,
      "duration": 0.046484375000005684,
      "endTime": 143.24317383333326
    },
    {
      "instrumentId": 1,
      "instrumentName": "Piano\u0000",
      "isPercussion": false,
      "pitch": 56,
      "velocity": 80,
      "startTime": 143.19668945833325,
      "duration": 0.046484375000005684,
      "endTime": 143.24317383333326
    },
    {
      "instrumentId": 0,
      "instrumentName": "Piano\u0000",
      "isPercussion": false,
      "pitch": 74,
      "velocity": 80,
      "startTime": 143.38418945833325,
      "duration": 0.09335937500000568,
      "endTime": 143.47754883333326
    },
    {
      "instrumentId": 1,
      "instrumentName": "Piano\u0000",
      "isPercussion": false,
      "pitch": 47,
      "velocity": 80,
      "startTime": 143.38418945833325,
      "duration": 0.18710937500000568,
      "endTime": 143.57129883333326
    },
    {
      "instrumentId": 0,
      "instrumentName": "Piano\u0000",
      "isPercussion": false,
      "pitch": 72,
      "velocity": 80,
      "startTime": 143.57168945833325,
      "duration": 0.09335937500000568,
      "endTime": 143.66504883333326
    },
    {
      "instrumentId": 1,
      "instrumentName": "Piano\u0000",
      "isPercussion": false,
      "pitch": 50,
      "velocity": 80,
      "startTime": 143.57168945833325,
      "duration": 0.046484375000005684,
      "endTime": 143.61817383333326
    },
    {
      "instrumentId": 1,
      "instrumentName": "Piano\u0000",
      "isPercussion": false,
      "pitch": 56,
      "velocity": 80,
      "startTime": 143.57168945833325,
      "duration": 0.046484375000005684,
      "endTime": 143.61817383333326
    },
    {
      "instrumentId": 0,
      "instrumentName": "Piano\u0000",
      "isPercussion": false,
      "pitch": 71,
      "velocity": 80,
      "startTime": 143.75918945833325,
      "duration": 0.09335937500000568,
      "endTime": 143.85254883333326
    },
    {
      "instrumentId": 1,
      "instrumentName": "Piano\u0000",
      "isPercussion": false,
      "pitch": 40,
      "velocity": 80,
      "startTime": 143.75918945833325,
      "duration": 0.046484375000005684,
      "endTime": 143.80567383333326
    },
    {
      "instrumentId": 0,
      "instrumentName": "Piano\u0000",
      "isPercussion": false,
      "pitch": 74,
      "velocity": 80,
      "startTime": 143.94668945833325,
      "duration": 0.09335937500000568,
      "endTime": 144.04004883333326
    },
    {
      "instrumentId": 1,
      "instrumentName": "Piano\u0000",
      "isPercussion": false,
      "pitch": 50,
      "velocity": 80,
      "startTime": 143.94668945833325,
      "duration": 0.046484375000005684,
      "endTime": 143.99317383333326
    },
    {
      "instrumentId": 1,
      "instrumentName": "Piano\u0000",
      "isPercussion": false,
      "pitch": 56,
      "velocity": 80,
      "startTime": 143.94668945833325,
      "duration": 0.046484375000005684,
      "endTime": 143.99317383333326
    },
    {
      "instrumentId": 0,
      "instrumentName": "Piano\u0000",
      "isPercussion": false,
      "pitch": 72,
      "velocity": 96,
      "startTime": 144.13418945833325,
      "duration": 0.125,
      "endTime": 144.25918945833325
    },
    {
      "instrumentId": 1,
      "instrumentName": "Piano\u0000",
      "isPercussion": false,
      "pitch": 36,
      "velocity": 96,
      "startTime": 144.13418945833325,
      "duration": 0.125,
      "endTime": 144.25918945833325
    },
    {
      "instrumentId": 1,
      "instrumentName": "Piano\u0000",
      "isPercussion": false,
      "pitch": 48,
      "velocity": 96,
      "startTime": 144.13418945833325,
      "duration": 0.125,
      "endTime": 144.25918945833325
    },
    {
      "instrumentId": 0,
      "instrumentName": "Piano\u0000",
      "isPercussion": false,
      "pitch": 69,
      "velocity": 96,
      "startTime": 144.32168945833325,
      "duration": 0.125,
      "endTime": 144.44668945833325
    },
    {
      "instrumentId": 1,
      "instrumentName": "Piano\u0000",
      "isPercussion": false,
      "pitch": 33,
      "velocity": 96,
      "startTime": 144.32168945833325,
      "duration": 0.125,
      "endTime": 144.44668945833325
    },
    {
      "instrumentId": 1,
      "instrumentName": "Piano\u0000",
      "isPercussion": false,
      "pitch": 45,
      "velocity": 96,
      "startTime": 144.32168945833325,
      "duration": 0.125,
      "endTime": 144.44668945833325
    },
    {
      "instrumentId": 0,
      "instrumentName": "Piano\u0000",
      "isPercussion": false,
      "pitch": 72,
      "velocity": 96,
      "startTime": 144.50918945833325,
      "duration": 0.125,
      "endTime": 144.63418945833325
    },
    {
      "instrumentId": 1,
      "instrumentName": "Piano\u0000",
      "isPercussion": false,
      "pitch": 36,
      "velocity": 96,
      "startTime": 144.50918945833325,
      "duration": 0.125,
      "endTime": 144.63418945833325
    },
    {
      "instrumentId": 1,
      "instrumentName": "Piano\u0000",
      "isPercussion": false,
      "pitch": 48,
      "velocity": 96,
      "startTime": 144.50918945833325,
      "duration": 0.125,
      "endTime": 144.63418945833325
    },
    {
      "instrumentId": 0,
      "instrumentName": "Piano\u0000",
      "isPercussion": false,
      "pitch": 76,
      "velocity": 96,
      "startTime": 144.69668945833325,
      "duration": 0.125,
      "endTime": 144.82168945833325
    },
    {
      "instrumentId": 1,
      "instrumentName": "Piano\u0000",
      "isPercussion": false,
      "pitch": 40,
      "velocity": 96,
      "startTime": 144.69668945833325,
      "duration": 0.125,
      "endTime": 144.82168945833325
    },
    {
      "instrumentId": 1,
      "instrumentName": "Piano\u0000",
      "isPercussion": false,
      "pitch": 52,
      "velocity": 96,
      "startTime": 144.69668945833325,
      "duration": 0.125,
      "endTime": 144.82168945833325
    },
    {
      "instrumentId": 0,
      "instrumentName": "Piano\u0000",
      "isPercussion": false,
      "pitch": 81,
      "velocity": 96,
      "startTime": 144.88418945833325,
      "duration": 0.125,
      "endTime": 145.00918945833325
    },
    {
      "instrumentId": 1,
      "instrumentName": "Piano\u0000",
      "isPercussion": false,
      "pitch": 45,
      "velocity": 96,
      "startTime": 144.88418945833325,
      "duration": 0.125,
      "endTime": 145.00918945833325
    },
    {
      "instrumentId": 1,
      "instrumentName": "Piano\u0000",
      "isPercussion": false,
      "pitch": 57,
      "velocity": 96,
      "startTime": 144.88418945833325,
      "duration": 0.125,
      "endTime": 145.00918945833325
    },
    {
      "instrumentId": 0,
      "instrumentName": "Piano\u0000",
      "isPercussion": false,
      "pitch": 76,
      "velocity": 80,
      "startTime": 145.07168945833325,
      "duration": 0.09335937500000568,
      "endTime": 145.16504883333326
    },
    {
      "instrumentId": 0,
      "instrumentName": "Piano\u0000",
      "isPercussion": false,
      "pitch": 72,
      "velocity": 80,
      "startTime": 145.25918945833325,
      "duration": 0.09335937500000568,
      "endTime": 145.35254883333326
    },
    {
      "instrumentId": 1,
      "instrumentName": "Piano\u0000",
      "isPercussion": false,
      "pitch": 33,
      "velocity": 120,
      "startTime": 145.25918945833325,
      "duration": 0.3277343750000057,
      "endTime": 145.58692383333326
    },
    {
      "instrumentId": 1,
      "instrumentName": "Piano\u0000",
      "isPercussion": false,
      "pitch": 45,
      "velocity": 120,
      "startTime": 145.25918945833325,
      "duration": 0.33867187499998863,
      "endTime": 145.59786133333324
    },
    {
      "instrumentId": 0,
      "instrumentName": "Piano\u0000",
      "isPercussion": false,
      "pitch": 69,
      "velocity": 80,
      "startTime": 145.44668945833325,
      "duration": 0.09335937500000568,
      "endTime": 145.54004883333326
    },
    {
      "instrumentId": 1,
      "instrumentName": "Piano\u0000",
      "isPercussion": false,
      "pitch": 47,
      "velocity": 80,
      "startTime": 145.59903320833325,
      "duration": 0.010546874999988631,
      "endTime": 145.60958008333324
    },
    {
      "instrumentId": 1,
      "instrumentName": "Piano\u0000",
      "isPercussion": false,
      "pitch": 48,
      "velocity": 80,
      "startTime": 145.61075195833325,
      "duration": 0.010546874999988631,
      "endTime": 145.62129883333324
    },
    {
      "instrumentId": 1,
      "instrumentName": "Piano\u0000",
      "isPercussion": false,
      "pitch": 49,
      "velocity": 80,
      "startTime": 145.62247070833325,
      "duration": 0.010546874999988631,
      "endTime": 145.63301758333324
    },
    {
      "instrumentId": 0,
      "instrumentName": "Piano\u0000",
      "isPercussion": false,
      "pitch": 74,
      "velocity": 80,
      "startTime": 145.63418945833325,
      "duration": 0.2808593750000057,
      "endTime": 145.91504883333326
    },
    {
      "instrumentId": 1,
      "instrumentName": "Piano\u0000",
      "isPercussion": false,
      "pitch": 38,
      "velocity": 80,
      "startTime": 145.63418945833325,
      "duration": 0.18710937500000568,
      "endTime": 145.82129883333326
    },
    {
      "instrumentId": 1,
      "instrumentName": "Piano\u0000",
      "isPercussion": false,
      "pitch": 50,
      "velocity": 80,
      "startTime": 145.63418945833325,
      "duration": 0.18710937500000568,
      "endTime": 145.82129883333326
    },
    {
      "instrumentId": 1,
      "instrumentName": "Piano\u0000",
      "isPercussion": false,
      "pitch": 53,
      "velocity": 80,
      "startTime": 145.82168945833325,
      "duration": 0.046484375000005684,
      "endTime": 145.86817383333326
    },
    {
      "instrumentId": 1,
      "instrumentName": "Piano\u0000",
      "isPercussion": false,
      "pitch": 57,
      "velocity": 80,
      "startTime": 145.82168945833325,
      "duration": 0.046484375000005684,
      "endTime": 145.86817383333326
    },
    {
      "instrumentId": 0,
      "instrumentName": "Piano\u0000",
      "isPercussion": false,
      "pitch": 73,
      "velocity": 80,
      "startTime": 145.91543945833325,
      "duration": 0.08867187499998863,
      "endTime": 146.00411133333324
    },
    {
      "instrumentId": 0,
      "instrumentName": "Piano\u0000",
      "isPercussion": false,
      "pitch": 74,
      "velocity": 80,
      "startTime": 146.00918945833325,
      "duration": 0.09335937500000568,
      "endTime": 146.10254883333326
    },
    {
      "instrumentId": 1,
      "instrumentName": "Piano\u0000",
      "isPercussion": false,
      "pitch": 45,
      "velocity": 80,
      "startTime": 146.00918945833325,
      "duration": 0.18710937500000568,
      "endTime": 146.19629883333326
    },
    {
      "instrumentId": 0,
      "instrumentName": "Piano\u0000",
      "isPercussion": false,
      "pitch": 76,
      "velocity": 80,
      "startTime": 146.19668945833325,
      "duration": 0.09335937500000568,
      "endTime": 146.29004883333326
    },
    {
      "instrumentId": 1,
      "instrumentName": "Piano\u0000",
      "isPercussion": false,
      "pitch": 53,
      "velocity": 80,
      "startTime": 146.19668945833325,
      "duration": 0.046484375000005684,
      "endTime": 146.24317383333326
    },
    {
      "instrumentId": 1,
      "instrumentName": "Piano\u0000",
      "isPercussion": false,
      "pitch": 57,
      "velocity": 80,
      "startTime": 146.19668945833325,
      "duration": 0.046484375000005684,
      "endTime": 146.24317383333326
    },
    {
      "instrumentId": 0,
      "instrumentName": "Piano\u0000",
      "isPercussion": false,
      "pitch": 77,
      "velocity": 80,
      "startTime": 146.38418945833325,
      "duration": 0.09335937500000568,
      "endTime": 146.47754883333326
    },
    {
      "instrumentId": 1,
      "instrumentName": "Piano\u0000",
      "isPercussion": false,
      "pitch": 50,
      "velocity": 80,
      "startTime": 146.38418945833325,
      "duration": 0.18710937500000568,
      "endTime": 146.57129883333326
    },
    {
      "instrumentId": 0,
      "instrumentName": "Piano\u0000",
      "isPercussion": false,
      "pitch": 76,
      "velocity": 80,
      "startTime": 146.57168945833325,
      "duration": 0.09335937500000568,
      "endTime": 146.66504883333326
    },
    {
      "instrumentId": 1,
      "instrumentName": "Piano\u0000",
      "isPercussion": false,
      "pitch": 53,
      "velocity": 80,
      "startTime": 146.57168945833325,
      "duration": 0.046484375000005684,
      "endTime": 146.61817383333326
    },
    {
      "instrumentId": 1,
      "instrumentName": "Piano\u0000",
      "isPercussion": false,
      "pitch": 57,
      "velocity": 80,
      "startTime": 146.57168945833325,
      "duration": 0.046484375000005684,
      "endTime": 146.61817383333326
    },
    {
      "instrumentId": 0,
      "instrumentName": "Piano\u0000",
      "isPercussion": false,
      "pitch": 74,
      "velocity": 80,
      "startTime": 146.75918945833325,
      "duration": 0.09335937500000568,
      "endTime": 146.85254883333326
    },
    {
      "instrumentId": 1,
      "instrumentName": "Piano\u0000",
      "isPercussion": false,
      "pitch": 45,
      "velocity": 80,
      "startTime": 146.75918945833325,
      "duration": 0.18710937500000568,
      "endTime": 146.94629883333326
    },
    {
      "instrumentId": 0,
      "instrumentName": "Piano\u0000",
      "isPercussion": false,
      "pitch": 77,
      "velocity": 80,
      "startTime": 146.94668945833325,
      "duration": 0.09335937500000568,
      "endTime": 147.04004883333326
    },
    {
      "instrumentId": 1,
      "instrumentName": "Piano\u0000",
      "isPercussion": false,
      "pitch": 53,
      "velocity": 80,
      "startTime": 146.94668945833325,
      "duration": 0.046484375000005684,
      "endTime": 146.99317383333326
    },
    {
      "instrumentId": 1,
      "instrumentName": "Piano\u0000",
      "isPercussion": false,
      "pitch": 57,
      "velocity": 80,
      "startTime": 146.94668945833325,
      "duration": 0.046484375000005684,
      "endTime": 146.99317383333326
    },
    {
      "instrumentId": 0,
      "instrumentName": "Piano\u0000",
      "isPercussion": false,
      "pitch": 76,
      "velocity": 80,
      "startTime": 147.13418945833325,
      "duration": 0.2808593750000057,
      "endTime": 147.41504883333326
    },
    {
      "instrumentId": 1,
      "instrumentName": "Piano\u0000",
      "isPercussion": false,
      "pitch": 48,
      "velocity": 80,
      "startTime": 147.13418945833325,
      "duration": 0.18710937500000568,
      "endTime": 147.32129883333326
    },
    {
      "instrumentId": 1,
      "instrumentName": "Piano\u0000",
      "isPercussion": false,
      "pitch": 52,
      "velocity": 80,
      "startTime": 147.32168945833325,
      "duration": 0.046484375000005684,
      "endTime": 147.36817383333326
    },
    {
      "instrumentId": 1,
      "instrumentName": "Piano\u0000",
      "isPercussion": false,
      "pitch": 57,
      "velocity": 80,
      "startTime": 147.32168945833325,
      "duration": 0.046484375000005684,
      "endTime": 147.36817383333326
    },
    {
      "instrumentId": 0,
      "instrumentName": "Piano\u0000",
      "isPercussion": false,
      "pitch": 74,
      "velocity": 80,
      "startTime": 147.41543945833325,
      "duration": 0.08867187499998863,
      "endTime": 147.50411133333324
    },
    {
      "instrumentId": 0,
      "instrumentName": "Piano\u0000",
      "isPercussion": false,
      "pitch": 72,
      "velocity": 80,
      "startTime": 147.50918945833325,
      "duration": 0.09335937500000568,
      "endTime": 147.60254883333326
    },
    {
      "instrumentId": 1,
      "instrumentName": "Piano\u0000",
      "isPercussion": false,
      "pitch": 45,
      "velocity": 80,
      "startTime": 147.50918945833325,
      "duration": 0.046484375000005684,
      "endTime": 147.55567383333326
    },
    {
      "instrumentId": 0,
      "instrumentName": "Piano\u0000",
      "isPercussion": false,
      "pitch": 74,
      "velocity": 80,
      "startTime": 147.69668945833325,
      "duration": 0.09335937500000568,
      "endTime": 147.79004883333326
    },
    {
      "instrumentId": 1,
      "instrumentName": "Piano\u0000",
      "isPercussion": false,
      "pitch": 52,
      "velocity": 80,
      "startTime": 147.69668945833325,
      "duration": 0.046484375000005684,
      "endTime": 147.74317383333326
    },
    {
      "instrumentId": 1,
      "instrumentName": "Piano\u0000",
      "isPercussion": false,
      "pitch": 57,
      "velocity": 80,
      "startTime": 147.69668945833325,
      "duration": 0.046484375000005684,
      "endTime": 147.74317383333326
    },
    {
      "instrumentId": 0,
      "instrumentName": "Piano\u0000",
      "isPercussion": false,
      "pitch": 76,
      "velocity": 80,
      "startTime": 147.88418945833325,
      "duration": 0.177734375,
      "endTime": 148.06192383333325
    },
    {
      "instrumentId": 1,
      "instrumentName": "Piano\u0000",
      "isPercussion": false,
      "pitch": 48,
      "velocity": 80,
      "startTime": 147.88418945833325,
      "duration": 0.18710937500000568,
      "endTime": 148.07129883333326
    },
    {
      "instrumentId": 1,
      "instrumentName": "Piano\u0000",
      "isPercussion": false,
      "pitch": 52,
      "velocity": 80,
      "startTime": 148.07168945833325,
      "duration": 0.046484375000005684,
      "endTime": 148.11817383333326
    },
    {
      "instrumentId": 1,
      "instrumentName": "Piano\u0000",
      "isPercussion": false,
      "pitch": 57,
      "velocity": 80,
      "startTime": 148.07168945833325,
      "duration": 0.046484375000005684,
      "endTime": 148.11817383333326
    },
    {
      "instrumentId": 0,
      "instrumentName": "Piano\u0000",
      "isPercussion": false,
      "pitch": 81,
      "velocity": 80,
      "startTime": 148.25918945833325,
      "duration": 0.5339843749999886,
      "endTime": 148.79317383333324
    },
    {
      "instrumentId": 1,
      "instrumentName": "Piano\u0000",
      "isPercussion": false,
      "pitch": 45,
      "velocity": 80,
      "startTime": 148.25918945833325,
      "duration": 0.046484375000005684,
      "endTime": 148.30567383333326
    },
    {
      "instrumentId": 1,
      "instrumentName": "Piano\u0000",
      "isPercussion": false,
      "pitch": 52,
      "velocity": 80,
      "startTime": 148.44668945833325,
      "duration": 0.046484375000005684,
      "endTime": 148.49317383333326
    },
    {
      "instrumentId": 1,
      "instrumentName": "Piano\u0000",
      "isPercussion": false,
      "pitch": 57,
      "velocity": 80,
      "startTime": 148.44668945833325,
      "duration": 0.046484375000005684,
      "endTime": 148.49317383333326
    },
    {
      "instrumentId": 1,
      "instrumentName": "Piano\u0000",
      "isPercussion": false,
      "pitch": 47,
      "velocity": 80,
      "startTime": 148.63418945833325,
      "duration": 0.18710937500000568,
      "endTime": 148.82129883333326
    },
    {
      "instrumentId": 0,
      "instrumentName": "Piano\u0000",
      "isPercussion": false,
      "pitch": 74,
      "velocity": 80,
      "startTime": 148.82168945833325,
      "duration": 0.177734375,
      "endTime": 148.99942383333325
    },
    {
      "instrumentId": 1,
      "instrumentName": "Piano\u0000",
      "isPercussion": false,
      "pitch": 53,
      "velocity": 80,
      "startTime": 148.82168945833325,
      "duration": 0.046484375000005684,
      "endTime": 148.86817383333326
    },
    {
      "instrumentId": 1,
      "instrumentName": "Piano\u0000",
      "isPercussion": false,
      "pitch": 57,
      "velocity": 80,
      "startTime": 148.82168945833325,
      "duration": 0.046484375000005684,
      "endTime": 148.86817383333326
    },
    {
      "instrumentId": 1,
      "instrumentName": "Piano\u0000",
      "isPercussion": false,
      "pitch": 50,
      "velocity": 80,
      "startTime": 149.00918945833325,
      "duration": 0.046484375000005684,
      "endTime": 149.05567383333326
    },
    {
      "instrumentId": 0,
      "instrumentName": "Piano\u0000",
      "isPercussion": false,
      "pitch": 77,
      "velocity": 80,
      "startTime": 149.19668945833325,
      "duration": 0.09335937500000568,
      "endTime": 149.29004883333326
    },
    {
      "instrumentId": 1,
      "instrumentName": "Piano\u0000",
      "isPercussion": false,
      "pitch": 53,
      "velocity": 80,
      "startTime": 149.19668945833325,
      "duration": 0.046484375000005684,
      "endTime": 149.24317383333326
    },
    {
      "instrumentId": 1,
      "instrumentName": "Piano\u0000",
      "isPercussion": false,
      "pitch": 57,
      "velocity": 80,
      "startTime": 149.19668945833325,
      "duration": 0.046484375000005684,
      "endTime": 149.24317383333326
    },
    {
      "instrumentId": 0,
      "instrumentName": "Piano\u0000",
      "isPercussion": false,
      "pitch": 76,
      "velocity": 80,
      "startTime": 149.38418945833325,
      "duration": 0.09335937500000568,
      "endTime": 149.47754883333326
    },
    {
      "instrumentId": 1,
      "instrumentName": "Piano\u0000",
      "isPercussion": false,
      "pitch": 40,
      "velocity": 80,
      "startTime": 149.38418945833325,
      "duration": 0.09335937500000568,
      "endTime": 149.47754883333326
    },
    {
      "instrumentId": 1,
      "instrumentName": "Piano\u0000",
      "isPercussion": false,
      "pitch": 44,
      "velocity": 80,
      "startTime": 149.38418945833325,
      "duration": 0.09335937500000568,
      "endTime": 149.47754883333326
    },
    {
      "instrumentId": 1,
      "instrumentName": "Piano\u0000",
      "isPercussion": false,
      "pitch": 52,
      "velocity": 80,
      "startTime": 149.38418945833325,
      "duration": 0.09335937500000568,
      "endTime": 149.47754883333326
    },
    {
      "instrumentId": 0,
      "instrumentName": "Piano\u0000",
      "isPercussion": false,
      "pitch": 72,
      "velocity": 80,
      "startTime": 149.57168945833325,
      "duration": 0.09335937500000568,
      "endTime": 149.66504883333326
    },
    {
      "instrumentId": 1,
      "instrumentName": "Piano\u0000",
      "isPercussion": false,
      "pitch": 36,
      "velocity": 80,
      "startTime": 149.57168945833325,
      "duration": 0.09335937500000568,
      "endTime": 149.66504883333326
    },
    {
      "instrumentId": 1,
      "instrumentName": "Piano\u0000",
      "isPercussion": false,
      "pitch": 48,
      "velocity": 80,
      "startTime": 149.57168945833325,
      "duration": 0.09335937500000568,
      "endTime": 149.66504883333326
    },
    {
      "instrumentId": 0,
      "instrumentName": "Piano\u0000",
      "isPercussion": false,
      "pitch": 74,
      "velocity": 80,
      "startTime": 149.75918945833325,
      "duration": 0.09335937500000568,
      "endTime": 149.85254883333326
    },
    {
      "instrumentId": 1,
      "instrumentName": "Piano\u0000",
      "isPercussion": false,
      "pitch": 38,
      "velocity": 80,
      "startTime": 149.75918945833325,
      "duration": 0.09335937500000568,
      "endTime": 149.85254883333326
    },
    {
      "instrumentId": 1,
      "instrumentName": "Piano\u0000",
      "isPercussion": false,
      "pitch": 50,
      "velocity": 80,
      "startTime": 149.75918945833325,
      "duration": 0.09335937500000568,
      "endTime": 149.85254883333326
    },
    {
      "instrumentId": 0,
      "instrumentName": "Piano\u0000",
      "isPercussion": false,
      "pitch": 71,
      "velocity": 80,
      "startTime": 149.94668945833325,
      "duration": 0.09335937500000568,
      "endTime": 150.04004883333326
    },
    {
      "instrumentId": 1,
      "instrumentName": "Piano\u0000",
      "isPercussion": false,
      "pitch": 35,
      "velocity": 80,
      "startTime": 149.94668945833325,
      "duration": 0.09335937500000568,
      "endTime": 150.04004883333326
    },
    {
      "instrumentId": 1,
      "instrumentName": "Piano\u0000",
      "isPercussion": false,
      "pitch": 47,
      "velocity": 80,
      "startTime": 149.94668945833325,
      "duration": 0.09335937500000568,
      "endTime": 150.04004883333326
    },
    {
      "instrumentId": 0,
      "instrumentName": "Piano\u0000",
      "isPercussion": false,
      "pitch": 69,
      "velocity": 80,
      "startTime": 150.13418945833325,
      "duration": 0.177734375,
      "endTime": 150.31192383333325
    },
    {
      "instrumentId": 1,
      "instrumentName": "Piano\u0000",
      "isPercussion": false,
      "pitch": 33,
      "velocity": 80,
      "startTime": 150.13418945833325,
      "duration": 0.09335937500000568,
      "endTime": 150.22754883333326
    },
    {
      "instrumentId": 1,
      "instrumentName": "Piano\u0000",
      "isPercussion": false,
      "pitch": 45,
      "velocity": 80,
      "startTime": 150.13418945833325,
      "duration": 0.09335937500000568,
      "endTime": 150.22754883333326
    },
    {
      "instrumentId": 0,
      "instrumentName": "Piano\u0000",
      "isPercussion": false,
      "pitch": 64,
      "velocity": 80,
      "startTime": 150.69668945833325,
      "duration": 0.09335937500000568,
      "endTime": 150.79004883333326
    },
    {
      "instrumentId": 0,
      "instrumentName": "Piano\u0000",
      "isPercussion": false,
      "pitch": 68,
      "velocity": 80,
      "startTime": 150.69668945833325,
      "duration": 0.09335937500000568,
      "endTime": 150.79004883333326
    },
    {
      "instrumentId": 0,
      "instrumentName": "Piano\u0000",
      "isPercussion": false,
      "pitch": 71,
      "velocity": 80,
      "startTime": 150.69668945833325,
      "duration": 0.09335937500000568,
      "endTime": 150.79004883333326
    },
    {
      "instrumentId": 0,
      "instrumentName": "Piano\u0000",
      "isPercussion": false,
      "pitch": 76,
      "velocity": 80,
      "startTime": 150.69668945833325,
      "duration": 0.09335937500000568,
      "endTime": 150.79004883333326
    },
    {
      "instrumentId": 1,
      "instrumentName": "Piano\u0000",
      "isPercussion": false,
      "pitch": 40,
      "velocity": 80,
      "startTime": 150.69668945833325,
      "duration": 0.09335937500000568,
      "endTime": 150.79004883333326
    },
    {
      "instrumentId": 1,
      "instrumentName": "Piano\u0000",
      "isPercussion": false,
      "pitch": 52,
      "velocity": 80,
      "startTime": 150.69668945833325,
      "duration": 0.09335937500000568,
      "endTime": 150.79004883333326
    },
    {
      "instrumentId": 0,
      "instrumentName": "Piano\u0000",
      "isPercussion": false,
      "pitch": 69,
      "velocity": 96,
      "startTime": 150.88418945833325,
      "duration": 0.125,
      "endTime": 151.00918945833325
    },
    {
      "instrumentId": 0,
      "instrumentName": "Piano\u0000",
      "isPercussion": false,
      "pitch": 72,
      "velocity": 96,
      "startTime": 150.88418945833325,
      "duration": 0.125,
      "endTime": 151.00918945833325
    },
    {
      "instrumentId": 0,
      "instrumentName": "Piano\u0000",
      "isPercussion": false,
      "pitch": 76,
      "velocity": 96,
      "startTime": 150.88418945833325,
      "duration": 0.125,
      "endTime": 151.00918945833325
    },
    {
      "instrumentId": 0,
      "instrumentName": "Piano\u0000",
      "isPercussion": false,
      "pitch": 81,
      "velocity": 96,
      "startTime": 150.88418945833325,
      "duration": 0.125,
      "endTime": 151.00918945833325
    },
    {
      "instrumentId": 1,
      "instrumentName": "Piano\u0000",
      "isPercussion": false,
      "pitch": 45,
      "velocity": 96,
      "startTime": 150.88418945833325,
      "duration": 0.125,
      "endTime": 151.00918945833325
    },
    {
      "instrumentId": 1,
      "instrumentName": "Piano\u0000",
      "isPercussion": false,
      "pitch": 52,
      "velocity": 96,
      "startTime": 150.88418945833325,
      "duration": 0.125,
      "endTime": 151.00918945833325
    },
    {
      "instrumentId": 1,
      "instrumentName": "Piano\u0000",
      "isPercussion": false,
      "pitch": 57,
      "velocity": 96,
      "startTime": 150.88418945833325,
      "duration": 0.125,
      "endTime": 151.00918945833325
    },
    {
      "instrumentId": 0,
      "instrumentName": "Piano\u0000",
      "isPercussion": false,
      "pitch": 64,
      "velocity": 96,
      "startTime": 151.63418945833325,
      "duration": 0.046484375000005684,
      "endTime": 151.68067383333326
    },
    {
      "instrumentId": 1,
      "instrumentName": "Piano\u0000",
      "isPercussion": false,
      "pitch": 33,
      "velocity": 96,
      "startTime": 151.63418945833325,
      "duration": 0.18710937500000568,
      "endTime": 151.82129883333326
    },
    {
      "instrumentId": 1,
      "instrumentName": "Piano\u0000",
      "isPercussion": false,
      "pitch": 45,
      "velocity": 96,
      "startTime": 151.63418945833325,
      "duration": 0.18710937500000568,
      "endTime": 151.82129883333326
    },
    {
      "instrumentId": 0,
      "instrumentName": "Piano\u0000",
      "isPercussion": false,
      "pitch": 64,
      "velocity": 96,
      "startTime": 151.72793945833325,
      "duration": 0.046484375000005684,
      "endTime": 151.77442383333326
    },
    {
      "instrumentId": 1,
      "instrumentName": "Piano\u0000",
      "isPercussion": false,
      "pitch": 57,
      "velocity": 96,
      "startTime": 151.82168945833325,
      "duration": 0.046484375000005684,
      "endTime": 151.86817383333326
    },
    {
      "instrumentId": 1,
      "instrumentName": "Piano\u0000",
      "isPercussion": false,
      "pitch": 60,
      "velocity": 96,
      "startTime": 151.82168945833325,
      "duration": 0.046484375000005684,
      "endTime": 151.86817383333326
    },
    {
      "instrumentId": 1,
      "instrumentName": "Piano\u0000",
      "isPercussion": false,
      "pitch": 64,
      "velocity": 96,
      "startTime": 151.82168945833325,
      "duration": 0.046484375000005684,
      "endTime": 151.86817383333326
    },
    {
      "instrumentId": 0,
      "instrumentName": "Piano\u0000",
      "isPercussion": false,
      "pitch": 64,
      "velocity": 96,
      "startTime": 151.91543945833325,
      "duration": 0.046484375000005684,
      "endTime": 151.96192383333326
    },
    {
      "instrumentId": 0,
      "instrumentName": "Piano\u0000",
      "isPercussion": false,
      "pitch": 64,
      "velocity": 96,
      "startTime": 152.00918945833325,
      "duration": 0.046484375000005684,
      "endTime": 152.05567383333326
    },
    {
      "instrumentId": 1,
      "instrumentName": "Piano\u0000",
      "isPercussion": false,
      "pitch": 40,
      "velocity": 96,
      "startTime": 152.00918945833325,
      "duration": 0.046484375000005684,
      "endTime": 152.05567383333326
    },
    {
      "instrumentId": 0,
      "instrumentName": "Piano\u0000",
      "isPercussion": false,
      "pitch": 64,
      "velocity": 96,
      "startTime": 152.10293945833325,
      "duration": 0.046484375000005684,
      "endTime": 152.14942383333326
    },
    {
      "instrumentId": 0,
      "instrumentName": "Piano\u0000",
      "isPercussion": false,
      "pitch": 76,
      "velocity": 96,
      "startTime": 152.19668945833325,
      "duration": 0.046484375000005684,
      "endTime": 152.24317383333326
    },
    {
      "instrumentId": 1,
      "instrumentName": "Piano\u0000",
      "isPercussion": false,
      "pitch": 57,
      "velocity": 96,
      "startTime": 152.19668945833325,
      "duration": 0.046484375000005684,
      "endTime": 152.24317383333326
    },
    {
      "instrumentId": 1,
      "instrumentName": "Piano\u0000",
      "isPercussion": false,
      "pitch": 60,
      "velocity": 96,
      "startTime": 152.19668945833325,
      "duration": 0.046484375000005684,
      "endTime": 152.24317383333326
    },
    {
      "instrumentId": 1,
      "instrumentName": "Piano\u0000",
      "isPercussion": false,
      "pitch": 64,
      "velocity": 96,
      "startTime": 152.19668945833325,
      "duration": 0.046484375000005684,
      "endTime": 152.24317383333326
    },
    {
      "instrumentId": 0,
      "instrumentName": "Piano\u0000",
      "isPercussion": false,
      "pitch": 76,
      "velocity": 96,
      "startTime": 152.29043945833325,
      "duration": 0.046484375000005684,
      "endTime": 152.33692383333326
    },
    {
      "instrumentId": 0,
      "instrumentName": "Piano\u0000",
      "isPercussion": false,
      "pitch": 88,
      "velocity": 96,
      "startTime": 152.38418945833325,
      "duration": 0.046484375000005684,
      "endTime": 152.43067383333326
    },
    {
      "instrumentId": 1,
      "instrumentName": "Piano\u0000",
      "isPercussion": false,
      "pitch": 45,
      "velocity": 96,
      "startTime": 152.38418945833325,
      "duration": 0.18710937500000568,
      "endTime": 152.57129883333326
    },
    {
      "instrumentId": 0,
      "instrumentName": "Piano\u0000",
      "isPercussion": false,
      "pitch": 88,
      "velocity": 96,
      "startTime": 152.47793945833325,
      "duration": 0.046484375000005684,
      "endTime": 152.52442383333326
    },
    {
      "instrumentId": 0,
      "instrumentName": "Piano\u0000",
      "isPercussion": false,
      "pitch": 76,
      "velocity": 96,
      "startTime": 152.57168945833325,
      "duration": 0.046484375000005684,
      "endTime": 152.61817383333326
    },
    {
      "instrumentId": 1,
      "instrumentName": "Piano\u0000",
      "isPercussion": false,
      "pitch": 57,
      "velocity": 96,
      "startTime": 152.57168945833325,
      "duration": 0.046484375000005684,
      "endTime": 152.61817383333326
    },
    {
      "instrumentId": 1,
      "instrumentName": "Piano\u0000",
      "isPercussion": false,
      "pitch": 60,
      "velocity": 96,
      "startTime": 152.57168945833325,
      "duration": 0.046484375000005684,
      "endTime": 152.61817383333326
    },
    {
      "instrumentId": 1,
      "instrumentName": "Piano\u0000",
      "isPercussion": false,
      "pitch": 64,
      "velocity": 96,
      "startTime": 152.57168945833325,
      "duration": 0.046484375000005684,
      "endTime": 152.61817383333326
    },
    {
      "instrumentId": 0,
      "instrumentName": "Piano\u0000",
      "isPercussion": false,
      "pitch": 76,
      "velocity": 96,
      "startTime": 152.66543945833325,
      "duration": 0.046484375000005684,
      "endTime": 152.71192383333326
    },
    {
      "instrumentId": 0,
      "instrumentName": "Piano\u0000",
      "isPercussion": false,
      "pitch": 64,
      "velocity": 96,
      "startTime": 152.75918945833325,
      "duration": 0.046484375000005684,
      "endTime": 152.80567383333326
    },
    {
      "instrumentId": 1,
      "instrumentName": "Piano\u0000",
      "isPercussion": false,
      "pitch": 40,
      "velocity": 96,
      "startTime": 152.75918945833325,
      "duration": 0.046484375000005684,
      "endTime": 152.80567383333326
    },
    {
      "instrumentId": 0,
      "instrumentName": "Piano\u0000",
      "isPercussion": false,
      "pitch": 64,
      "velocity": 96,
      "startTime": 152.85293945833325,
      "duration": 0.046484375000005684,
      "endTime": 152.89942383333326
    },
    {
      "instrumentId": 1,
      "instrumentName": "Piano\u0000",
      "isPercussion": false,
      "pitch": 57,
      "velocity": 96,
      "startTime": 152.94668945833325,
      "duration": 0.046484375000005684,
      "endTime": 152.99317383333326
    },
    {
      "instrumentId": 1,
      "instrumentName": "Piano\u0000",
      "isPercussion": false,
      "pitch": 60,
      "velocity": 96,
      "startTime": 152.94668945833325,
      "duration": 0.046484375000005684,
      "endTime": 152.99317383333326
    },
    {
      "instrumentId": 1,
      "instrumentName": "Piano\u0000",
      "isPercussion": false,
      "pitch": 64,
      "velocity": 96,
      "startTime": 152.94668945833325,
      "duration": 0.046484375000005684,
      "endTime": 152.99317383333326
    },
    {
      "instrumentId": 0,
      "instrumentName": "Piano\u0000",
      "isPercussion": false,
      "pitch": 64,
      "velocity": 96,
      "startTime": 153.04043945833325,
      "duration": 0.046484375000005684,
      "endTime": 153.08692383333326
    },
    {
      "instrumentId": 0,
      "instrumentName": "Piano\u0000",
      "isPercussion": false,
      "pitch": 64,
      "velocity": 96,
      "startTime": 153.13418945833325,
      "duration": 0.046484375000005684,
      "endTime": 153.18067383333326
    },
    {
      "instrumentId": 1,
      "instrumentName": "Piano\u0000",
      "isPercussion": false,
      "pitch": 45,
      "velocity": 96,
      "startTime": 153.13418945833325,
      "duration": 0.18710937500000568,
      "endTime": 153.32129883333326
    },
    {
      "instrumentId": 0,
      "instrumentName": "Piano\u0000",
      "isPercussion": false,
      "pitch": 64,
      "velocity": 96,
      "startTime": 153.22793945833325,
      "duration": 0.046484375000005684,
      "endTime": 153.27442383333326
    },
    {
      "instrumentId": 1,
      "instrumentName": "Piano\u0000",
      "isPercussion": false,
      "pitch": 57,
      "velocity": 96,
      "startTime": 153.32168945833325,
      "duration": 0.046484375000005684,
      "endTime": 153.36817383333326
    },
    {
      "instrumentId": 1,
      "instrumentName": "Piano\u0000",
      "isPercussion": false,
      "pitch": 60,
      "velocity": 96,
      "startTime": 153.32168945833325,
      "duration": 0.046484375000005684,
      "endTime": 153.36817383333326
    },
    {
      "instrumentId": 1,
      "instrumentName": "Piano\u0000",
      "isPercussion": false,
      "pitch": 64,
      "velocity": 96,
      "startTime": 153.32168945833325,
      "duration": 0.046484375000005684,
      "endTime": 153.36817383333326
    },
    {
      "instrumentId": 0,
      "instrumentName": "Piano\u0000",
      "isPercussion": false,
      "pitch": 64,
      "velocity": 96,
      "startTime": 153.41543945833325,
      "duration": 0.046484375000005684,
      "endTime": 153.46192383333326
    },
    {
      "instrumentId": 0,
      "instrumentName": "Piano\u0000",
      "isPercussion": false,
      "pitch": 64,
      "velocity": 96,
      "startTime": 153.50918945833325,
      "duration": 0.09335937500000568,
      "endTime": 153.60254883333326
    },
    {
      "instrumentId": 1,
      "instrumentName": "Piano\u0000",
      "isPercussion": false,
      "pitch": 40,
      "velocity": 96,
      "startTime": 153.50918945833325,
      "duration": 0.046484375000005684,
      "endTime": 153.55567383333326
    },
    {
      "instrumentId": 0,
      "instrumentName": "Piano\u0000",
      "isPercussion": false,
      "pitch": 65,
      "velocity": 96,
      "startTime": 153.60293945833325,
      "duration": 0.09335937500000568,
      "endTime": 153.69629883333326
    },
    {
      "instrumentId": 1,
      "instrumentName": "Piano\u0000",
      "isPercussion": false,
      "pitch": 57,
      "velocity": 96,
      "startTime": 153.69668945833325,
      "duration": 0.046484375000005684,
      "endTime": 153.74317383333326
    },
    {
      "instrumentId": 1,
      "instrumentName": "Piano\u0000",
      "isPercussion": false,
      "pitch": 60,
      "velocity": 96,
      "startTime": 153.69668945833325,
      "duration": 0.046484375000005684,
      "endTime": 153.74317383333326
    },
    {
      "instrumentId": 1,
      "instrumentName": "Piano\u0000",
      "isPercussion": false,
      "pitch": 64,
      "velocity": 96,
      "startTime": 153.69668945833325,
      "duration": 0.09335937500000568,
      "endTime": 153.79004883333326
    },
    {
      "instrumentId": 0,
      "instrumentName": "Piano\u0000",
      "isPercussion": false,
      "pitch": 63,
      "velocity": 96,
      "startTime": 153.79043945833325,
      "duration": 0.08867187499998863,
      "endTime": 153.87911133333324
    },
    {
      "instrumentId": 0,
      "instrumentName": "Piano\u0000",
      "isPercussion": false,
      "pitch": 64,
      "velocity": 96,
      "startTime": 153.88418945833325,
      "duration": 0.046484375000005684,
      "endTime": 153.93067383333326
    },
    {
      "instrumentId": 1,
      "instrumentName": "Piano\u0000",
      "isPercussion": false,
      "pitch": 45,
      "velocity": 96,
      "startTime": 153.88418945833325,
      "duration": 0.18710937500000568,
      "endTime": 154.07129883333326
    },
    {
      "instrumentId": 0,
      "instrumentName": "Piano\u0000",
      "isPercussion": false,
      "pitch": 69,
      "velocity": 96,
      "startTime": 154.07168945833325,
      "duration": 0.046484375000005684,
      "endTime": 154.11817383333326
    },
    {
      "instrumentId": 1,
      "instrumentName": "Piano\u0000",
      "isPercussion": false,
      "pitch": 57,
      "velocity": 96,
      "startTime": 154.07168945833325,
      "duration": 0.046484375000005684,
      "endTime": 154.11817383333326
    },
    {
      "instrumentId": 1,
      "instrumentName": "Piano\u0000",
      "isPercussion": false,
      "pitch": 60,
      "velocity": 96,
      "startTime": 154.07168945833325,
      "duration": 0.046484375000005684,
      "endTime": 154.11817383333326
    },
    {
      "instrumentId": 1,
      "instrumentName": "Piano\u0000",
      "isPercussion": false,
      "pitch": 64,
      "velocity": 96,
      "startTime": 154.07168945833325,
      "duration": 0.046484375000005684,
      "endTime": 154.11817383333326
    },
    {
      "instrumentId": 0,
      "instrumentName": "Piano\u0000",
      "isPercussion": false,
      "pitch": 72,
      "velocity": 96,
      "startTime": 154.25918945833325,
      "duration": 0.3558593749999943,
      "endTime": 154.61504883333325
    },
    {
      "instrumentId": 1,
      "instrumentName": "Piano\u0000",
      "isPercussion": false,
      "pitch": 40,
      "velocity": 96,
      "startTime": 154.25918945833325,
      "duration": 0.046484375000005684,
      "endTime": 154.30567383333326
    },
    {
      "instrumentId": 1,
      "instrumentName": "Piano\u0000",
      "isPercussion": false,
      "pitch": 57,
      "velocity": 96,
      "startTime": 154.44668945833325,
      "duration": 0.046484375000005684,
      "endTime": 154.49317383333326
    },
    {
      "instrumentId": 1,
      "instrumentName": "Piano\u0000",
      "isPercussion": false,
      "pitch": 60,
      "velocity": 96,
      "startTime": 154.44668945833325,
      "duration": 0.046484375000005684,
      "endTime": 154.49317383333326
    },
    {
      "instrumentId": 1,
      "instrumentName": "Piano\u0000",
      "isPercussion": false,
      "pitch": 64,
      "velocity": 96,
      "startTime": 154.44668945833325,
      "duration": 0.046484375000005684,
      "endTime": 154.49317383333326
    },
    {
      "instrumentId": 0,
      "instrumentName": "Piano\u0000",
      "isPercussion": false,
      "pitch": 74,
      "velocity": 96,
      "startTime": 154.63418945833325,
      "duration": 0.046484375000005684,
      "endTime": 154.68067383333326
    },
    {
      "instrumentId": 1,
      "instrumentName": "Piano\u0000",
      "isPercussion": false,
      "pitch": 44,
      "velocity": 96,
      "startTime": 154.63418945833325,
      "duration": 0.046484375000005684,
      "endTime": 154.68067383333326
    },
    {
      "instrumentId": 0,
      "instrumentName": "Piano\u0000",
      "isPercussion": false,
      "pitch": 74,
      "velocity": 96,
      "startTime": 154.72793945833325,
      "duration": 0.046484375000005684,
      "endTime": 154.77442383333326
    },
    {
      "instrumentId": 0,
      "instrumentName": "Piano\u0000",
      "isPercussion": false,
      "pitch": 74,
      "velocity": 96,
      "startTime": 154.82168945833325,
      "duration": 0.046484375000005684,
      "endTime": 154.86817383333326
    },
    {
      "instrumentId": 1,
      "instrumentName": "Piano\u0000",
      "isPercussion": false,
      "pitch": 50,
      "velocity": 96,
      "startTime": 154.82168945833325,
      "duration": 0.046484375000005684,
      "endTime": 154.86817383333326
    },
    {
      "instrumentId": 1,
      "instrumentName": "Piano\u0000",
      "isPercussion": false,
      "pitch": 52,
      "velocity": 96,
      "startTime": 154.82168945833325,
      "duration": 0.046484375000005684,
      "endTime": 154.86817383333326
    },
    {
      "instrumentId": 1,
      "instrumentName": "Piano\u0000",
      "isPercussion": false,
      "pitch": 56,
      "velocity": 96,
      "startTime": 154.82168945833325,
      "duration": 0.046484375000005684,
      "endTime": 154.86817383333326
    },
    {
      "instrumentId": 0,
      "instrumentName": "Piano\u0000",
      "isPercussion": false,
      "pitch": 74,
      "velocity": 96,
      "startTime": 154.91543945833325,
      "duration": 0.046484375000005684,
      "endTime": 154.96192383333326
    },
    {
      "instrumentId": 0,
      "instrumentName": "Piano\u0000",
      "isPercussion": false,
      "pitch": 74,
      "velocity": 96,
      "startTime": 155.00918945833325,
      "duration": 0.046484375000005684,
      "endTime": 155.05567383333326
    },
    {
      "instrumentId": 1,
      "instrumentName": "Piano\u0000",
      "isPercussion": false,
      "pitch": 40,
      "velocity": 96,
      "startTime": 155.00918945833325,
      "duration": 0.046484375000005684,
      "endTime": 155.05567383333326
    },
    {
      "instrumentId": 0,
      "instrumentName": "Piano\u0000",
      "isPercussion": false,
      "pitch": 72,
      "velocity": 96,
      "startTime": 155.10293945833325,
      "duration": 0.046484375000005684,
      "endTime": 155.14942383333326
    },
    {
      "instrumentId": 0,
      "instrumentName": "Piano\u0000",
      "isPercussion": false,
      "pitch": 71,
      "velocity": 96,
      "startTime": 155.19668945833325,
      "duration": 0.046484375000005684,
      "endTime": 155.24317383333326
    },
    {
      "instrumentId": 1,
      "instrumentName": "Piano\u0000",
      "isPercussion": false,
      "pitch": 50,
      "velocity": 96,
      "startTime": 155.19668945833325,
      "duration": 0.046484375000005684,
      "endTime": 155.24317383333326
    },
    {
      "instrumentId": 1,
      "instrumentName": "Piano\u0000",
      "isPercussion": false,
      "pitch": 52,
      "velocity": 96,
      "startTime": 155.19668945833325,
      "duration": 0.046484375000005684,
      "endTime": 155.24317383333326
    },
    {
      "instrumentId": 1,
      "instrumentName": "Piano\u0000",
      "isPercussion": false,
      "pitch": 56,
      "velocity": 96,
      "startTime": 155.19668945833325,
      "duration": 0.046484375000005684,
      "endTime": 155.24317383333326
    },
    {
      "instrumentId": 0,
      "instrumentName": "Piano\u0000",
      "isPercussion": false,
      "pitch": 74,
      "velocity": 96,
      "startTime": 155.29043945833325,
      "duration": 0.046484375000005684,
      "endTime": 155.33692383333326
    },
    {
      "instrumentId": 0,
      "instrumentName": "Piano\u0000",
      "isPercussion": false,
      "pitch": 72,
      "velocity": 96,
      "startTime": 155.38418945833325,
      "duration": 0.046484375000005684,
      "endTime": 155.43067383333326
    },
    {
      "instrumentId": 1,
      "instrumentName": "Piano\u0000",
      "isPercussion": false,
      "pitch": 45,
      "velocity": 96,
      "startTime": 155.38418945833325,
      "duration": 0.046484375000005684,
      "endTime": 155.43067383333326
    },
    {
      "instrumentId": 0,
      "instrumentName": "Piano\u0000",
      "isPercussion": false,
      "pitch": 72,
      "velocity": 96,
      "startTime": 155.47793945833325,
      "duration": 0.046484375000005684,
      "endTime": 155.52442383333326
    },
    {
      "instrumentId": 0,
      "instrumentName": "Piano\u0000",
      "isPercussion": false,
      "pitch": 72,
      "velocity": 96,
      "startTime": 155.57168945833325,
      "duration": 0.046484375000005684,
      "endTime": 155.61817383333326
    },
    {
      "instrumentId": 1,
      "instrumentName": "Piano\u0000",
      "isPercussion": false,
      "pitch": 57,
      "velocity": 96,
      "startTime": 155.57168945833325,
      "duration": 0.046484375000005684,
      "endTime": 155.61817383333326
    },
    {
      "instrumentId": 1,
      "instrumentName": "Piano\u0000",
      "isPercussion": false,
      "pitch": 60,
      "velocity": 96,
      "startTime": 155.57168945833325,
      "duration": 0.046484375000005684,
      "endTime": 155.61817383333326
    },
    {
      "instrumentId": 1,
      "instrumentName": "Piano\u0000",
      "isPercussion": false,
      "pitch": 64,
      "velocity": 96,
      "startTime": 155.57168945833325,
      "duration": 0.046484375000005684,
      "endTime": 155.61817383333326
    },
    {
      "instrumentId": 0,
      "instrumentName": "Piano\u0000",
      "isPercussion": false,
      "pitch": 72,
      "velocity": 96,
      "startTime": 155.66543945833325,
      "duration": 0.046484375000005684,
      "endTime": 155.71192383333326
    },
    {
      "instrumentId": 0,
      "instrumentName": "Piano\u0000",
      "isPercussion": false,
      "pitch": 72,
      "velocity": 96,
      "startTime": 155.75918945833325,
      "duration": 0.046484375000005684,
      "endTime": 155.80567383333326
    },
    {
      "instrumentId": 1,
      "instrumentName": "Piano\u0000",
      "isPercussion": false,
      "pitch": 40,
      "velocity": 96,
      "startTime": 155.75918945833325,
      "duration": 0.046484375000005684,
      "endTime": 155.80567383333326
    },
    {
      "instrumentId": 0,
      "instrumentName": "Piano\u0000",
      "isPercussion": false,
      "pitch": 71,
      "velocity": 96,
      "startTime": 155.85293945833325,
      "duration": 0.046484375000005684,
      "endTime": 155.89942383333326
    },
    {
      "instrumentId": 0,
      "instrumentName": "Piano\u0000",
      "isPercussion": false,
      "pitch": 69,
      "velocity": 96,
      "startTime": 155.94668945833325,
      "duration": 0.046484375000005684,
      "endTime": 155.99317383333326
    },
    {
      "instrumentId": 1,
      "instrumentName": "Piano\u0000",
      "isPercussion": false,
      "pitch": 57,
      "velocity": 96,
      "startTime": 155.94668945833325,
      "duration": 0.046484375000005684,
      "endTime": 155.99317383333326
    },
    {
      "instrumentId": 1,
      "instrumentName": "Piano\u0000",
      "isPercussion": false,
      "pitch": 60,
      "velocity": 96,
      "startTime": 155.94668945833325,
      "duration": 0.046484375000005684,
      "endTime": 155.99317383333326
    },
    {
      "instrumentId": 1,
      "instrumentName": "Piano\u0000",
      "isPercussion": false,
      "pitch": 64,
      "velocity": 96,
      "startTime": 155.94668945833325,
      "duration": 0.046484375000005684,
      "endTime": 155.99317383333326
    },
    {
      "instrumentId": 0,
      "instrumentName": "Piano\u0000",
      "isPercussion": false,
      "pitch": 72,
      "velocity": 96,
      "startTime": 156.04043945833325,
      "duration": 0.046484375000005684,
      "endTime": 156.08692383333326
    },
    {
      "instrumentId": 0,
      "instrumentName": "Piano\u0000",
      "isPercussion": false,
      "pitch": 71,
      "velocity": 96,
      "startTime": 156.13418945833325,
      "duration": 0.046484375000005684,
      "endTime": 156.18067383333326
    },
    {
      "instrumentId": 1,
      "instrumentName": "Piano\u0000",
      "isPercussion": false,
      "pitch": 47,
      "velocity": 96,
      "startTime": 156.13418945833325,
      "duration": 0.046484375000005684,
      "endTime": 156.18067383333326
    },
    {
      "instrumentId": 0,
      "instrumentName": "Piano\u0000",
      "isPercussion": false,
      "pitch": 71,
      "velocity": 96,
      "startTime": 156.22793945833325,
      "duration": 0.046484375000005684,
      "endTime": 156.27442383333326
    },
    {
      "instrumentId": 0,
      "instrumentName": "Piano\u0000",
      "isPercussion": false,
      "pitch": 71,
      "velocity": 96,
      "startTime": 156.32168945833325,
      "duration": 0.046484375000005684,
      "endTime": 156.36817383333326
    },
    {
      "instrumentId": 1,
      "instrumentName": "Piano\u0000",
      "isPercussion": false,
      "pitch": 51,
      "velocity": 96,
      "startTime": 156.32168945833325,
      "duration": 0.046484375000005684,
      "endTime": 156.36817383333326
    },
    {
      "instrumentId": 1,
      "instrumentName": "Piano\u0000",
      "isPercussion": false,
      "pitch": 59,
      "velocity": 96,
      "startTime": 156.32168945833325,
      "duration": 0.046484375000005684,
      "endTime": 156.36817383333326
    },
    {
      "instrumentId": 0,
      "instrumentName": "Piano\u0000",
      "isPercussion": false,
      "pitch": 71,
      "velocity": 96,
      "startTime": 156.41543945833325,
      "duration": 0.046484375000005684,
      "endTime": 156.46192383333326
    },
    {
      "instrumentId": 0,
      "instrumentName": "Piano\u0000",
      "isPercussion": false,
      "pitch": 66,
      "velocity": 96,
      "startTime": 156.50918945833325,
      "duration": 0.046484375000005684,
      "endTime": 156.55567383333326
    },
    {
      "instrumentId": 1,
      "instrumentName": "Piano\u0000",
      "isPercussion": false,
      "pitch": 42,
      "velocity": 96,
      "startTime": 156.50918945833325,
      "duration": 0.046484375000005684,
      "endTime": 156.55567383333326
    },
    {
      "instrumentId": 0,
      "instrumentName": "Piano\u0000",
      "isPercussion": false,
      "pitch": 71,
      "velocity": 96,
      "startTime": 156.69668945833325,
      "duration": 0.046484375000005684,
      "endTime": 156.74317383333326
    },
    {
      "instrumentId": 1,
      "instrumentName": "Piano\u0000",
      "isPercussion": false,
      "pitch": 51,
      "velocity": 96,
      "startTime": 156.69668945833325,
      "duration": 0.046484375000005684,
      "endTime": 156.74317383333326
    },
    {
      "instrumentId": 1,
      "instrumentName": "Piano\u0000",
      "isPercussion": false,
      "pitch": 57,
      "velocity": 96,
      "startTime": 156.69668945833325,
      "duration": 0.046484375000005684,
      "endTime": 156.74317383333326
    },
    {
      "instrumentId": 0,
      "instrumentName": "Piano\u0000",
      "isPercussion": false,
      "pitch": 68,
      "velocity": 115,
      "startTime": 156.88418945833325,
      "duration": 0.062109375000005684,
      "endTime": 156.94629883333326
    },
    {
      "instrumentId": 1,
      "instrumentName": "Piano\u0000",
      "isPercussion": false,
      "pitch": 52,
      "velocity": 115,
      "startTime": 156.88418945833325,
      "duration": 0.062109375000005684,
      "endTime": 156.94629883333326
    },
    {
      "instrumentId": 0,
      "instrumentName": "Piano\u0000",
      "isPercussion": false,
      "pitch": 52,
      "velocity": 96,
      "startTime": 157.25918945833325,
      "duration": 0.3558593749999943,
      "endTime": 157.61504883333325
    },
    {
      "instrumentId": 1,
      "instrumentName": "Piano\u0000",
      "isPercussion": false,
      "pitch": 28,
      "velocity": 96,
      "startTime": 157.25918945833325,
      "duration": 0.31132812499998863,
      "endTime": 157.57051758333324
    },
    {
      "instrumentId": 1,
      "instrumentName": "Piano\u0000",
      "isPercussion": false,
      "pitch": 40,
      "velocity": 96,
      "startTime": 157.25918945833325,
      "duration": 0.322265625,
      "endTime": 157.58145508333325
    },
    {
      "instrumentId": 1,
      "instrumentName": "Piano\u0000",
      "isPercussion": false,
      "pitch": 42,
      "velocity": 96,
      "startTime": 157.59903320833325,
      "duration": 0.010546874999988631,
      "endTime": 157.60958008333324
    },
    {
      "instrumentId": 1,
      "instrumentName": "Piano\u0000",
      "isPercussion": false,
      "pitch": 43,
      "velocity": 96,
      "startTime": 157.61075195833325,
      "duration": 0.010546874999988631,
      "endTime": 157.62129883333324
    },
    {
      "instrumentId": 1,
      "instrumentName": "Piano\u0000",
      "isPercussion": false,
      "pitch": 44,
      "velocity": 96,
      "startTime": 157.62247070833325,
      "duration": 0.010546874999988631,
      "endTime": 157.63301758333324
    },
    {
      "instrumentId": 0,
      "instrumentName": "Piano\u0000",
      "isPercussion": false,
      "pitch": 64,
      "velocity": 96,
      "startTime": 157.63418945833325,
      "duration": 0.046484375000005684,
      "endTime": 157.68067383333326
    },
    {
      "instrumentId": 1,
      "instrumentName": "Piano\u0000",
      "isPercussion": false,
      "pitch": 33,
      "velocity": 96,
      "startTime": 157.63418945833325,
      "duration": 0.18710937500000568,
      "endTime": 157.82129883333326
    },
    {
      "instrumentId": 1,
      "instrumentName": "Piano\u0000",
      "isPercussion": false,
      "pitch": 45,
      "velocity": 96,
      "startTime": 157.63418945833325,
      "duration": 0.18710937500000568,
      "endTime": 157.82129883333326
    },
    {
      "instrumentId": 0,
      "instrumentName": "Piano\u0000",
      "isPercussion": false,
      "pitch": 64,
      "velocity": 96,
      "startTime": 157.72793945833325,
      "duration": 0.046484375000005684,
      "endTime": 157.77442383333326
    },
    {
      "instrumentId": 1,
      "instrumentName": "Piano\u0000",
      "isPercussion": false,
      "pitch": 57,
      "velocity": 96,
      "startTime": 157.82168945833325,
      "duration": 0.046484375000005684,
      "endTime": 157.86817383333326
    },
    {
      "instrumentId": 1,
      "instrumentName": "Piano\u0000",
      "isPercussion": false,
      "pitch": 60,
      "velocity": 96,
      "startTime": 157.82168945833325,
      "duration": 0.046484375000005684,
      "endTime": 157.86817383333326
    },
    {
      "instrumentId": 1,
      "instrumentName": "Piano\u0000",
      "isPercussion": false,
      "pitch": 64,
      "velocity": 96,
      "startTime": 157.82168945833325,
      "duration": 0.046484375000005684,
      "endTime": 157.86817383333326
    },
    {
      "instrumentId": 0,
      "instrumentName": "Piano\u0000",
      "isPercussion": false,
      "pitch": 64,
      "velocity": 96,
      "startTime": 157.91543945833325,
      "duration": 0.046484375000005684,
      "endTime": 157.96192383333326
    },
    {
      "instrumentId": 0,
      "instrumentName": "Piano\u0000",
      "isPercussion": false,
      "pitch": 64,
      "velocity": 96,
      "startTime": 158.00918945833325,
      "duration": 0.046484375000005684,
      "endTime": 158.05567383333326
    },
    {
      "instrumentId": 1,
      "instrumentName": "Piano\u0000",
      "isPercussion": false,
      "pitch": 40,
      "velocity": 96,
      "startTime": 158.00918945833325,
      "duration": 0.046484375000005684,
      "endTime": 158.05567383333326
    },
    {
      "instrumentId": 0,
      "instrumentName": "Piano\u0000",
      "isPercussion": false,
      "pitch": 64,
      "velocity": 96,
      "startTime": 158.10293945833325,
      "duration": 0.046484375000005684,
      "endTime": 158.14942383333326
    },
    {
      "instrumentId": 1,
      "instrumentName": "Piano\u0000",
      "isPercussion": false,
      "pitch": 57,
      "velocity": 96,
      "startTime": 158.19668945833325,
      "duration": 0.046484375000005684,
      "endTime": 158.24317383333326
    },
    {
      "instrumentId": 1,
      "instrumentName": "Piano\u0000",
      "isPercussion": false,
      "pitch": 60,
      "velocity": 96,
      "startTime": 158.19668945833325,
      "duration": 0.046484375000005684,
      "endTime": 158.24317383333326
    },
    {
      "instrumentId": 1,
      "instrumentName": "Piano\u0000",
      "isPercussion": false,
      "pitch": 64,
      "velocity": 96,
      "startTime": 158.19668945833325,
      "duration": 0.046484375000005684,
      "endTime": 158.24317383333326
    },
    {
      "instrumentId": 0,
      "instrumentName": "Piano\u0000",
      "isPercussion": false,
      "pitch": 64,
      "velocity": 96,
      "startTime": 158.29043945833325,
      "duration": 0.046484375000005684,
      "endTime": 158.33692383333326
    },
    {
      "instrumentId": 1,
      "instrumentName": "Piano\u0000",
      "isPercussion": false,
      "pitch": 45,
      "velocity": 96,
      "startTime": 158.38418945833325,
      "duration": 0.18710937500000568,
      "endTime": 158.57129883333326
    },
    {
      "instrumentId": 0,
      "instrumentName": "Piano\u0000",
      "isPercussion": false,
      "pitch": 64,
      "velocity": 96,
      "startTime": 158.47793945833325,
      "duration": 0.046484375000005684,
      "endTime": 158.52442383333326
    },
    {
      "instrumentId": 1,
      "instrumentName": "Piano\u0000",
      "isPercussion": false,
      "pitch": 57,
      "velocity": 96,
      "startTime": 158.57168945833325,
      "duration": 0.046484375000005684,
      "endTime": 158.61817383333326
    },
    {
      "instrumentId": 1,
      "instrumentName": "Piano\u0000",
      "isPercussion": false,
      "pitch": 60,
      "velocity": 96,
      "startTime": 158.57168945833325,
      "duration": 0.046484375000005684,
      "endTime": 158.61817383333326
    },
    {
      "instrumentId": 1,
      "instrumentName": "Piano\u0000",
      "isPercussion": false,
      "pitch": 64,
      "velocity": 96,
      "startTime": 158.57168945833325,
      "duration": 0.046484375000005684,
      "endTime": 158.61817383333326
    },
    {
      "instrumentId": 0,
      "instrumentName": "Piano\u0000",
      "isPercussion": false,
      "pitch": 64,
      "velocity": 96,
      "startTime": 158.66543945833325,
      "duration": 0.046484375000005684,
      "endTime": 158.71192383333326
    },
    {
      "instrumentId": 0,
      "instrumentName": "Piano\u0000",
      "isPercussion": false,
      "pitch": 64,
      "velocity": 96,
      "startTime": 158.75918945833325,
      "duration": 0.046484375000005684,
      "endTime": 158.80567383333326
    },
    {
      "instrumentId": 1,
      "instrumentName": "Piano\u0000",
      "isPercussion": false,
      "pitch": 40,
      "velocity": 96,
      "startTime": 158.75918945833325,
      "duration": 0.046484375000005684,
      "endTime": 158.80567383333326
    },
    {
      "instrumentId": 0,
      "instrumentName": "Piano\u0000",
      "isPercussion": false,
      "pitch": 64,
      "velocity": 96,
      "startTime": 158.85293945833325,
      "duration": 0.046484375000005684,
      "endTime": 158.89942383333326
    },
    {
      "instrumentId": 1,
      "instrumentName": "Piano\u0000",
      "isPercussion": false,
      "pitch": 57,
      "velocity": 96,
      "startTime": 158.94668945833325,
      "duration": 0.046484375000005684,
      "endTime": 158.99317383333326
    },
    {
      "instrumentId": 1,
      "instrumentName": "Piano\u0000",
      "isPercussion": false,
      "pitch": 60,
      "velocity": 96,
      "startTime": 158.94668945833325,
      "duration": 0.046484375000005684,
      "endTime": 158.99317383333326
    },
    {
      "instrumentId": 1,
      "instrumentName": "Piano\u0000",
      "isPercussion": false,
      "pitch": 64,
      "velocity": 96,
      "startTime": 158.94668945833325,
      "duration": 0.046484375000005684,
      "endTime": 158.99317383333326
    },
    {
      "instrumentId": 0,
      "instrumentName": "Piano\u0000",
      "isPercussion": false,
      "pitch": 64,
      "velocity": 96,
      "startTime": 159.04043945833325,
      "duration": 0.046484375000005684,
      "endTime": 159.08692383333326
    },
    {
      "instrumentId": 0,
      "instrumentName": "Piano\u0000",
      "isPercussion": false,
      "pitch": 64,
      "velocity": 96,
      "startTime": 159.13418945833325,
      "duration": 0.09335937500000568,
      "endTime": 159.22754883333326
    },
    {
      "instrumentId": 1,
      "instrumentName": "Piano\u0000",
      "isPercussion": false,
      "pitch": 45,
      "velocity": 96,
      "startTime": 159.13418945833325,
      "duration": 0.18710937500000568,
      "endTime": 159.32129883333326
    },
    {
      "instrumentId": 0,
      "instrumentName": "Piano\u0000",
      "isPercussion": false,
      "pitch": 65,
      "velocity": 96,
      "startTime": 159.22793945833325,
      "duration": 0.09335937500000568,
      "endTime": 159.32129883333326
    },
    {
      "instrumentId": 1,
      "instrumentName": "Piano\u0000",
      "isPercussion": false,
      "pitch": 57,
      "velocity": 96,
      "startTime": 159.32168945833325,
      "duration": 0.046484375000005684,
      "endTime": 159.36817383333326
    },
    {
      "instrumentId": 1,
      "instrumentName": "Piano\u0000",
      "isPercussion": false,
      "pitch": 60,
      "velocity": 96,
      "startTime": 159.32168945833325,
      "duration": 0.046484375000005684,
      "endTime": 159.36817383333326
    },
    {
      "instrumentId": 1,
      "instrumentName": "Piano\u0000",
      "isPercussion": false,
      "pitch": 64,
      "velocity": 96,
      "startTime": 159.32168945833325,
      "duration": 0.09335937500000568,
      "endTime": 159.41504883333326
    },
    {
      "instrumentId": 0,
      "instrumentName": "Piano\u0000",
      "isPercussion": false,
      "pitch": 63,
      "velocity": 96,
      "startTime": 159.41543945833325,
      "duration": 0.08867187499998863,
      "endTime": 159.50411133333324
    },
    {
      "instrumentId": 0,
      "instrumentName": "Piano\u0000",
      "isPercussion": false,
      "pitch": 64,
      "velocity": 96,
      "startTime": 159.50918945833325,
      "duration": 0.08867187499998863,
      "endTime": 159.59786133333324
    },
    {
      "instrumentId": 1,
      "instrumentName": "Piano\u0000",
      "isPercussion": false,
      "pitch": 40,
      "velocity": 96,
      "startTime": 159.50918945833325,
      "duration": 0.046484375000005684,
      "endTime": 159.55567383333326
    },
    {
      "instrumentId": 0,
      "instrumentName": "Piano\u0000",
      "isPercussion": false,
      "pitch": 69,
      "velocity": 96,
      "startTime": 159.69668945833325,
      "duration": 0.08867187499998863,
      "endTime": 159.78536133333324
    },
    {
      "instrumentId": 1,
      "instrumentName": "Piano\u0000",
      "isPercussion": false,
      "pitch": 57,
      "velocity": 96,
      "startTime": 159.69668945833325,
      "duration": 0.046484375000005684,
      "endTime": 159.74317383333326
    },
    {
      "instrumentId": 1,
      "instrumentName": "Piano\u0000",
      "isPercussion": false,
      "pitch": 60,
      "velocity": 96,
      "startTime": 159.69668945833325,
      "duration": 0.046484375000005684,
      "endTime": 159.74317383333326
    },
    {
      "instrumentId": 1,
      "instrumentName": "Piano\u0000",
      "isPercussion": false,
      "pitch": 64,
      "velocity": 96,
      "startTime": 159.69668945833325,
      "duration": 0.046484375000005684,
      "endTime": 159.74317383333326
    },
    {
      "instrumentId": 0,
      "instrumentName": "Piano\u0000",
      "isPercussion": false,
      "pitch": 72,
      "velocity": 96,
      "startTime": 159.79043945833325,
      "duration": 0.08867187499998863,
      "endTime": 159.87911133333324
    },
    {
      "instrumentId": 0,
      "instrumentName": "Piano\u0000",
      "isPercussion": false,
      "pitch": 76,
      "velocity": 96,
      "startTime": 159.88418945833325,
      "duration": 0.046484375000005684,
      "endTime": 159.93067383333326
    },
    {
      "instrumentId": 1,
      "instrumentName": "Piano\u0000",
      "isPercussion": false,
      "pitch": 45,
      "velocity": 96,
      "startTime": 159.88418945833325,
      "duration": 0.18710937500000568,
      "endTime": 160.07129883333326
    },
    {
      "instrumentId": 0,
      "instrumentName": "Piano\u0000",
      "isPercussion": false,
      "pitch": 81,
      "velocity": 96,
      "startTime": 160.07168945833325,
      "duration": 0.046484375000005684,
      "endTime": 160.11817383333326
    },
    {
      "instrumentId": 1,
      "instrumentName": "Piano\u0000",
      "isPercussion": false,
      "pitch": 57,
      "velocity": 96,
      "startTime": 160.07168945833325,
      "duration": 0.046484375000005684,
      "endTime": 160.11817383333326
    },
    {
      "instrumentId": 1,
      "instrumentName": "Piano\u0000",
      "isPercussion": false,
      "pitch": 60,
      "velocity": 96,
      "startTime": 160.07168945833325,
      "duration": 0.046484375000005684,
      "endTime": 160.11817383333326
    },
    {
      "instrumentId": 1,
      "instrumentName": "Piano\u0000",
      "isPercussion": false,
      "pitch": 64,
      "velocity": 96,
      "startTime": 160.07168945833325,
      "duration": 0.046484375000005684,
      "endTime": 160.11817383333326
    },
    {
      "instrumentId": 0,
      "instrumentName": "Piano\u0000",
      "isPercussion": false,
      "pitch": 84,
      "velocity": 96,
      "startTime": 160.25918945833325,
      "duration": 0.3558593749999943,
      "endTime": 160.61504883333325
    },
    {
      "instrumentId": 1,
      "instrumentName": "Piano\u0000",
      "isPercussion": false,
      "pitch": 40,
      "velocity": 96,
      "startTime": 160.25918945833325,
      "duration": 0.046484375000005684,
      "endTime": 160.30567383333326
    },
    {
      "instrumentId": 1,
      "instrumentName": "Piano\u0000",
      "isPercussion": false,
      "pitch": 57,
      "velocity": 96,
      "startTime": 160.44668945833325,
      "duration": 0.046484375000005684,
      "endTime": 160.49317383333326
    },
    {
      "instrumentId": 1,
      "instrumentName": "Piano\u0000",
      "isPercussion": false,
      "pitch": 60,
      "velocity": 96,
      "startTime": 160.44668945833325,
      "duration": 0.046484375000005684,
      "endTime": 160.49317383333326
    },
    {
      "instrumentId": 1,
      "instrumentName": "Piano\u0000",
      "isPercussion": false,
      "pitch": 64,
      "velocity": 96,
      "startTime": 160.44668945833325,
      "duration": 0.046484375000005684,
      "endTime": 160.49317383333326
    },
    {
      "instrumentId": 0,
      "instrumentName": "Piano\u0000",
      "isPercussion": false,
      "pitch": 76,
      "velocity": 96,
      "startTime": 160.63418945833325,
      "duration": 0.09335937500000568,
      "endTime": 160.72754883333326
    },
    {
      "instrumentId": 0,
      "instrumentName": "Piano\u0000",
      "isPercussion": false,
      "pitch": 83,
      "velocity": 96,
      "startTime": 160.63418945833325,
      "duration": 0.09335937500000568,
      "endTime": 160.72754883333326
    },
    {
      "instrumentId": 0,
      "instrumentName": "Piano\u0000",
      "isPercussion": false,
      "pitch": 86,
      "velocity": 96,
      "startTime": 160.63418945833325,
      "duration": 0.09335937500000568,
      "endTime": 160.72754883333326
    },
    {
      "instrumentId": 1,
      "instrumentName": "Piano\u0000",
      "isPercussion": false,
      "pitch": 50,
      "velocity": 96,
      "startTime": 160.63418945833325,
      "duration": 0.046484375000005684,
      "endTime": 160.68067383333326
    },
    {
      "instrumentId": 0,
      "instrumentName": "Piano\u0000",
      "isPercussion": false,
      "pitch": 84,
      "velocity": 96,
      "startTime": 160.72793945833325,
      "duration": 0.09335937500000568,
      "endTime": 160.82129883333326
    },
    {
      "instrumentId": 0,
      "instrumentName": "Piano\u0000",
      "isPercussion": false,
      "pitch": 83,
      "velocity": 96,
      "startTime": 160.82168945833325,
      "duration": 0.09335937500000568,
      "endTime": 160.91504883333326
    },
    {
      "instrumentId": 1,
      "instrumentName": "Piano\u0000",
      "isPercussion": false,
      "pitch": 53,
      "velocity": 96,
      "startTime": 160.82168945833325,
      "duration": 0.046484375000005684,
      "endTime": 160.86817383333326
    },
    {
      "instrumentId": 1,
      "instrumentName": "Piano\u0000",
      "isPercussion": false,
      "pitch": 59,
      "velocity": 96,
      "startTime": 160.82168945833325,
      "duration": 0.046484375000005684,
      "endTime": 160.86817383333326
    },
    {
      "instrumentId": 0,
      "instrumentName": "Piano\u0000",
      "isPercussion": false,
      "pitch": 86,
      "velocity": 96,
      "startTime": 160.91543945833325,
      "duration": 0.09335937500000568,
      "endTime": 161.00879883333326
    },
    {
      "instrumentId": 0,
      "instrumentName": "Piano\u0000",
      "isPercussion": false,
      "pitch": 76,
      "velocity": 96,
      "startTime": 161.00918945833325,
      "duration": 0.09335937500000568,
      "endTime": 161.10254883333326
    },
    {
      "instrumentId": 0,
      "instrumentName": "Piano\u0000",
      "isPercussion": false,
      "pitch": 81,
      "velocity": 96,
      "startTime": 161.00918945833325,
      "duration": 0.09335937500000568,
      "endTime": 161.10254883333326
    },
    {
      "instrumentId": 0,
      "instrumentName": "Piano\u0000",
      "isPercussion": false,
      "pitch": 84,
      "velocity": 96,
      "startTime": 161.00918945833325,
      "duration": 0.09335937500000568,
      "endTime": 161.10254883333326
    },
    {
      "instrumentId": 1,
      "instrumentName": "Piano\u0000",
      "isPercussion": false,
      "pitch": 48,
      "velocity": 96,
      "startTime": 161.00918945833325,
      "duration": 0.046484375000005684,
      "endTime": 161.05567383333326
    },
    {
      "instrumentId": 0,
      "instrumentName": "Piano\u0000",
      "isPercussion": false,
      "pitch": 83,
      "velocity": 96,
      "startTime": 161.10293945833325,
      "duration": 0.09335937500000568,
      "endTime": 161.19629883333326
    },
    {
      "instrumentId": 0,
      "instrumentName": "Piano\u0000",
      "isPercussion": false,
      "pitch": 81,
      "velocity": 96,
      "startTime": 161.19668945833325,
      "duration": 0.09335937500000568,
      "endTime": 161.29004883333326
    },
    {
      "instrumentId": 1,
      "instrumentName": "Piano\u0000",
      "isPercussion": false,
      "pitch": 52,
      "velocity": 96,
      "startTime": 161.19668945833325,
      "duration": 0.046484375000005684,
      "endTime": 161.24317383333326
    },
    {
      "instrumentId": 1,
      "instrumentName": "Piano\u0000",
      "isPercussion": false,
      "pitch": 60,
      "velocity": 96,
      "startTime": 161.19668945833325,
      "duration": 0.046484375000005684,
      "endTime": 161.24317383333326
    },
    {
      "instrumentId": 0,
      "instrumentName": "Piano\u0000",
      "isPercussion": false,
      "pitch": 84,
      "velocity": 96,
      "startTime": 161.29043945833325,
      "duration": 0.09335937500000568,
      "endTime": 161.38379883333326
    },
    {
      "instrumentId": 0,
      "instrumentName": "Piano\u0000",
      "isPercussion": false,
      "pitch": 80,
      "velocity": 96,
      "startTime": 161.38418945833325,
      "duration": 0.09335937500000568,
      "endTime": 161.47754883333326
    },
    {
      "instrumentId": 0,
      "instrumentName": "Piano\u0000",
      "isPercussion": false,
      "pitch": 83,
      "velocity": 96,
      "startTime": 161.38418945833325,
      "duration": 0.09335937500000568,
      "endTime": 161.47754883333326
    },
    {
      "instrumentId": 1,
      "instrumentName": "Piano\u0000",
      "isPercussion": false,
      "pitch": 47,
      "velocity": 96,
      "startTime": 161.38418945833325,
      "duration": 0.046484375000005684,
      "endTime": 161.43067383333326
    },
    {
      "instrumentId": 0,
      "instrumentName": "Piano\u0000",
      "isPercussion": false,
      "pitch": 81,
      "velocity": 96,
      "startTime": 161.47793945833325,
      "duration": 0.09335937500000568,
      "endTime": 161.57129883333326
    },
    {
      "instrumentId": 0,
      "instrumentName": "Piano\u0000",
      "isPercussion": false,
      "pitch": 80,
      "velocity": 96,
      "startTime": 161.57168945833325,
      "duration": 0.09335937500000568,
      "endTime": 161.66504883333326
    },
    {
      "instrumentId": 1,
      "instrumentName": "Piano\u0000",
      "isPercussion": false,
      "pitch": 50,
      "velocity": 96,
      "startTime": 161.57168945833325,
      "duration": 0.046484375000005684,
      "endTime": 161.61817383333326
    },
    {
      "instrumentId": 1,
      "instrumentName": "Piano\u0000",
      "isPercussion": false,
      "pitch": 56,
      "velocity": 96,
      "startTime": 161.57168945833325,
      "duration": 0.046484375000005684,
      "endTime": 161.61817383333326
    },
    {
      "instrumentId": 0,
      "instrumentName": "Piano\u0000",
      "isPercussion": false,
      "pitch": 83,
      "velocity": 96,
      "startTime": 161.66543945833325,
      "duration": 0.09335937500000568,
      "endTime": 161.75879883333326
    },
    {
      "instrumentId": 0,
      "instrumentName": "Piano\u0000",
      "isPercussion": false,
      "pitch": 76,
      "velocity": 96,
      "startTime": 161.75918945833325,
      "duration": 0.09335937500000568,
      "endTime": 161.85254883333326
    },
    {
      "instrumentId": 0,
      "instrumentName": "Piano\u0000",
      "isPercussion": false,
      "pitch": 81,
      "velocity": 96,
      "startTime": 161.75918945833325,
      "duration": 0.09335937500000568,
      "endTime": 161.85254883333326
    },
    {
      "instrumentId": 1,
      "instrumentName": "Piano\u0000",
      "isPercussion": false,
      "pitch": 45,
      "velocity": 96,
      "startTime": 161.75918945833325,
      "duration": 0.046484375000005684,
      "endTime": 161.80567383333326
    },
    {
      "instrumentId": 0,
      "instrumentName": "Piano\u0000",
      "isPercussion": false,
      "pitch": 76,
      "velocity": 96,
      "startTime": 161.85293945833325,
      "duration": 0.09335937500000568,
      "endTime": 161.94629883333326
    },
    {
      "instrumentId": 0,
      "instrumentName": "Piano\u0000",
      "isPercussion": false,
      "pitch": 72,
      "velocity": 96,
      "startTime": 161.94668945833325,
      "duration": 0.09335937500000568,
      "endTime": 162.04004883333326
    },
    {
      "instrumentId": 1,
      "instrumentName": "Piano\u0000",
      "isPercussion": false,
      "pitch": 48,
      "velocity": 96,
      "startTime": 161.94668945833325,
      "duration": 0.046484375000005684,
      "endTime": 161.99317383333326
    },
    {
      "instrumentId": 1,
      "instrumentName": "Piano\u0000",
      "isPercussion": false,
      "pitch": 57,
      "velocity": 96,
      "startTime": 161.94668945833325,
      "duration": 0.046484375000005684,
      "endTime": 161.99317383333326
    },
    {
      "instrumentId": 0,
      "instrumentName": "Piano\u0000",
      "isPercussion": false,
      "pitch": 69,
      "velocity": 96,
      "startTime": 162.04043945833325,
      "duration": 0.09335937500000568,
      "endTime": 162.13379883333326
    },
    {
      "instrumentId": 0,
      "instrumentName": "Piano\u0000",
      "isPercussion": false,
      "pitch": 77,
      "velocity": 96,
      "startTime": 162.13418945833325,
      "duration": 0.09335937500000568,
      "endTime": 162.22754883333326
    },
    {
      "instrumentId": 1,
      "instrumentName": "Piano\u0000",
      "isPercussion": false,
      "pitch": 40,
      "velocity": 96,
      "startTime": 162.13418945833325,
      "duration": 0.08867187499998863,
      "endTime": 162.22286133333324
    },
    {
      "instrumentId": 1,
      "instrumentName": "Piano\u0000",
      "isPercussion": false,
      "pitch": 52,
      "velocity": 96,
      "startTime": 162.13418945833325,
      "duration": 0.08867187499998863,
      "endTime": 162.22286133333324
    },
    {
      "instrumentId": 0,
      "instrumentName": "Piano\u0000",
      "isPercussion": false,
      "pitch": 76,
      "velocity": 96,
      "startTime": 162.22793945833325,
      "duration": 0.09335937500000568,
      "endTime": 162.32129883333326
    },
    {
      "instrumentId": 0,
      "instrumentName": "Piano\u0000",
      "isPercussion": false,
      "pitch": 74,
      "velocity": 96,
      "startTime": 162.32168945833325,
      "duration": 0.09335937500000568,
      "endTime": 162.41504883333326
    },
    {
      "instrumentId": 1,
      "instrumentName": "Piano\u0000",
      "isPercussion": false,
      "pitch": 42,
      "velocity": 96,
      "startTime": 162.32168945833325,
      "duration": 0.08867187499998863,
      "endTime": 162.41036133333324
    },
    {
      "instrumentId": 1,
      "instrumentName": "Piano\u0000",
      "isPercussion": false,
      "pitch": 54,
      "velocity": 96,
      "startTime": 162.32168945833325,
      "duration": 0.08867187499998863,
      "endTime": 162.41036133333324
    },
    {
      "instrumentId": 0,
      "instrumentName": "Piano\u0000",
      "isPercussion": false,
      "pitch": 72,
      "velocity": 96,
      "startTime": 162.41543945833325,
      "duration": 0.09335937500000568,
      "endTime": 162.50879883333326
    },
    {
      "instrumentId": 0,
      "instrumentName": "Piano\u0000",
      "isPercussion": false,
      "pitch": 71,
      "velocity": 96,
      "startTime": 162.50918945833325,
      "duration": 0.09335937500000568,
      "endTime": 162.60254883333326
    },
    {
      "instrumentId": 1,
      "instrumentName": "Piano\u0000",
      "isPercussion": false,
      "pitch": 44,
      "velocity": 96,
      "startTime": 162.50918945833325,
      "duration": 0.08867187499998863,
      "endTime": 162.59786133333324
    },
    {
      "instrumentId": 1,
      "instrumentName": "Piano\u0000",
      "isPercussion": false,
      "pitch": 56,
      "velocity": 96,
      "startTime": 162.50918945833325,
      "duration": 0.08867187499998863,
      "endTime": 162.59786133333324
    },
    {
      "instrumentId": 0,
      "instrumentName": "Piano\u0000",
      "isPercussion": false,
      "pitch": 69,
      "velocity": 96,
      "startTime": 162.60293945833325,
      "duration": 0.09335937500000568,
      "endTime": 162.69629883333326
    },
    {
      "instrumentId": 0,
      "instrumentName": "Piano\u0000",
      "isPercussion": false,
      "pitch": 68,
      "velocity": 96,
      "startTime": 162.69668945833325,
      "duration": 0.09335937500000568,
      "endTime": 162.79004883333326
    },
    {
      "instrumentId": 1,
      "instrumentName": "Piano\u0000",
      "isPercussion": false,
      "pitch": 40,
      "velocity": 96,
      "startTime": 162.69668945833325,
      "duration": 0.08867187499998863,
      "endTime": 162.78536133333324
    },
    {
      "instrumentId": 1,
      "instrumentName": "Piano\u0000",
      "isPercussion": false,
      "pitch": 52,
      "velocity": 96,
      "startTime": 162.69668945833325,
      "duration": 0.08867187499998863,
      "endTime": 162.78536133333324
    },
    {
      "instrumentId": 0,
      "instrumentName": "Piano\u0000",
      "isPercussion": false,
      "pitch": 71,
      "velocity": 96,
      "startTime": 162.79043945833325,
      "duration": 0.09335937500000568,
      "endTime": 162.88379883333326
    },
    {
      "instrumentId": 0,
      "instrumentName": "Piano\u0000",
      "isPercussion": false,
      "pitch": 69,
      "velocity": 96,
      "startTime": 162.88418945833325,
      "duration": 0.3558593749999943,
      "endTime": 163.24004883333325
    },
    {
      "instrumentId": 1,
      "instrumentName": "Piano\u0000",
      "isPercussion": false,
      "pitch": 45,
      "velocity": 96,
      "startTime": 162.88418945833325,
      "duration": 0.3558593749999943,
      "endTime": 163.24004883333325
    },
    {
      "instrumentId": 1,
      "instrumentName": "Piano\u0000",
      "isPercussion": false,
      "pitch": 57,
      "velocity": 96,
      "startTime": 162.88418945833325,
      "duration": 0.3558593749999943,
      "endTime": 163.24004883333325
    },
    {
      "instrumentId": 0,
      "instrumentName": "Piano\u0000",
      "isPercussion": false,
      "pitch": 65,
      "velocity": 96,
      "startTime": 163.63418945833325,
      "duration": 0.046484375000005684,
      "endTime": 163.68067383333326
    },
    {
      "instrumentId": 1,
      "instrumentName": "Piano\u0000",
      "isPercussion": false,
      "pitch": 34,
      "velocity": 96,
      "startTime": 163.63418945833325,
      "duration": 0.18710937500000568,
      "endTime": 163.82129883333326
    },
    {
      "instrumentId": 1,
      "instrumentName": "Piano\u0000",
      "isPercussion": false,
      "pitch": 46,
      "velocity": 96,
      "startTime": 163.63418945833325,
      "duration": 0.18710937500000568,
      "endTime": 163.82129883333326
    },
    {
      "instrumentId": 0,
      "instrumentName": "Piano\u0000",
      "isPercussion": false,
      "pitch": 65,
      "velocity": 96,
      "startTime": 163.72793945833325,
      "duration": 0.046484375000005684,
      "endTime": 163.77442383333326
    },
    {
      "instrumentId": 1,
      "instrumentName": "Piano\u0000",
      "isPercussion": false,
      "pitch": 58,
      "velocity": 96,
      "startTime": 163.82168945833325,
      "duration": 0.046484375000005684,
      "endTime": 163.86817383333326
    },
    {
      "instrumentId": 1,
      "instrumentName": "Piano\u0000",
      "isPercussion": false,
      "pitch": 61,
      "velocity": 96,
      "startTime": 163.82168945833325,
      "duration": 0.046484375000005684,
      "endTime": 163.86817383333326
    },
    {
      "instrumentId": 1,
      "instrumentName": "Piano\u0000",
      "isPercussion": false,
      "pitch": 65,
      "velocity": 96,
      "startTime": 163.82168945833325,
      "duration": 0.046484375000005684,
      "endTime": 163.86817383333326
    },
    {
      "instrumentId": 0,
      "instrumentName": "Piano\u0000",
      "isPercussion": false,
      "pitch": 65,
      "velocity": 96,
      "startTime": 163.91543945833325,
      "duration": 0.046484375000005684,
      "endTime": 163.96192383333326
    },
    {
      "instrumentId": 0,
      "instrumentName": "Piano\u0000",
      "isPercussion": false,
      "pitch": 65,
      "velocity": 96,
      "startTime": 164.00918945833325,
      "duration": 0.046484375000005684,
      "endTime": 164.05567383333326
    },
    {
      "instrumentId": 1,
      "instrumentName": "Piano\u0000",
      "isPercussion": false,
      "pitch": 41,
      "velocity": 96,
      "startTime": 164.00918945833325,
      "duration": 0.046484375000005684,
      "endTime": 164.05567383333326
    },
    {
      "instrumentId": 0,
      "instrumentName": "Piano\u0000",
      "isPercussion": false,
      "pitch": 65,
      "velocity": 96,
      "startTime": 164.10293945833325,
      "duration": 0.046484375000005684,
      "endTime": 164.14942383333326
    },
    {
      "instrumentId": 1,
      "instrumentName": "Piano\u0000",
      "isPercussion": false,
      "pitch": 58,
      "velocity": 96,
      "startTime": 164.19668945833325,
      "duration": 0.046484375000005684,
      "endTime": 164.24317383333326
    },
    {
      "instrumentId": 1,
      "instrumentName": "Piano\u0000",
      "isPercussion": false,
      "pitch": 61,
      "velocity": 96,
      "startTime": 164.19668945833325,
      "duration": 0.046484375000005684,
      "endTime": 164.24317383333326
    },
    {
      "instrumentId": 1,
      "instrumentName": "Piano\u0000",
      "isPercussion": false,
      "pitch": 65,
      "velocity": 96,
      "startTime": 164.19668945833325,
      "duration": 0.046484375000005684,
      "endTime": 164.24317383333326
    },
    {
      "instrumentId": 0,
      "instrumentName": "Piano\u0000",
      "isPercussion": false,
      "pitch": 65,
      "velocity": 96,
      "startTime": 164.29043945833325,
      "duration": 0.046484375000005684,
      "endTime": 164.33692383333326
    },
    {
      "instrumentId": 0,
      "instrumentName": "Piano\u0000",
      "isPercussion": false,
      "pitch": 65,
      "velocity": 96,
      "startTime": 164.38418945833325,
      "duration": 0.046484375000005684,
      "endTime": 164.43067383333326
    },
    {
      "instrumentId": 1,
      "instrumentName": "Piano\u0000",
      "isPercussion": false,
      "pitch": 46,
      "velocity": 96,
      "startTime": 164.38418945833325,
      "duration": 0.18710937500000568,
      "endTime": 164.57129883333326
    },
    {
      "instrumentId": 0,
      "instrumentName": "Piano\u0000",
      "isPercussion": false,
      "pitch": 65,
      "velocity": 96,
      "startTime": 164.47793945833325,
      "duration": 0.046484375000005684,
      "endTime": 164.52442383333326
    },
    {
      "instrumentId": 1,
      "instrumentName": "Piano\u0000",
      "isPercussion": false,
      "pitch": 58,
      "velocity": 96,
      "startTime": 164.57168945833325,
      "duration": 0.046484375000005684,
      "endTime": 164.61817383333326
    },
    {
      "instrumentId": 1,
      "instrumentName": "Piano\u0000",
      "isPercussion": false,
      "pitch": 61,
      "velocity": 96,
      "startTime": 164.57168945833325,
      "duration": 0.046484375000005684,
      "endTime": 164.61817383333326
    },
    {
      "instrumentId": 1,
      "instrumentName": "Piano\u0000",
      "isPercussion": false,
      "pitch": 65,
      "velocity": 96,
      "startTime": 164.57168945833325,
      "duration": 0.046484375000005684,
      "endTime": 164.61817383333326
    },
    {
      "instrumentId": 0,
      "instrumentName": "Piano\u0000",
      "isPercussion": false,
      "pitch": 65,
      "velocity": 96,
      "startTime": 164.66543945833325,
      "duration": 0.046484375000005684,
      "endTime": 164.71192383333326
    },
    {
      "instrumentId": 0,
      "instrumentName": "Piano\u0000",
      "isPercussion": false,
      "pitch": 65,
      "velocity": 96,
      "startTime": 164.75918945833325,
      "duration": 0.046484375000005684,
      "endTime": 164.80567383333326
    },
    {
      "instrumentId": 1,
      "instrumentName": "Piano\u0000",
      "isPercussion": false,
      "pitch": 41,
      "velocity": 96,
      "startTime": 164.75918945833325,
      "duration": 0.046484375000005684,
      "endTime": 164.80567383333326
    },
    {
      "instrumentId": 0,
      "instrumentName": "Piano\u0000",
      "isPercussion": false,
      "pitch": 65,
      "velocity": 96,
      "startTime": 164.85293945833325,
      "duration": 0.046484375000005684,
      "endTime": 164.89942383333326
    },
    {
      "instrumentId": 1,
      "instrumentName": "Piano\u0000",
      "isPercussion": false,
      "pitch": 58,
      "velocity": 96,
      "startTime": 164.94668945833325,
      "duration": 0.046484375000005684,
      "endTime": 164.99317383333326
    },
    {
      "instrumentId": 1,
      "instrumentName": "Piano\u0000",
      "isPercussion": false,
      "pitch": 61,
      "velocity": 96,
      "startTime": 164.94668945833325,
      "duration": 0.046484375000005684,
      "endTime": 164.99317383333326
    },
    {
      "instrumentId": 1,
      "instrumentName": "Piano\u0000",
      "isPercussion": false,
      "pitch": 65,
      "velocity": 96,
      "startTime": 164.94668945833325,
      "duration": 0.046484375000005684,
      "endTime": 164.99317383333326
    },
    {
      "instrumentId": 0,
      "instrumentName": "Piano\u0000",
      "isPercussion": false,
      "pitch": 65,
      "velocity": 96,
      "startTime": 165.04043945833325,
      "duration": 0.046484375000005684,
      "endTime": 165.08692383333326
    },
    {
      "instrumentId": 0,
      "instrumentName": "Piano\u0000",
      "isPercussion": false,
      "pitch": 65,
      "velocity": 96,
      "startTime": 165.13418945833325,
      "duration": 0.046484375000005684,
      "endTime": 165.18067383333326
    },
    {
      "instrumentId": 1,
      "instrumentName": "Piano\u0000",
      "isPercussion": false,
      "pitch": 46,
      "velocity": 96,
      "startTime": 165.13418945833325,
      "duration": 0.18710937500000568,
      "endTime": 165.32129883333326
    },
    {
      "instrumentId": 0,
      "instrumentName": "Piano\u0000",
      "isPercussion": false,
      "pitch": 65,
      "velocity": 96,
      "startTime": 165.22793945833325,
      "duration": 0.046484375000005684,
      "endTime": 165.27442383333326
    },
    {
      "instrumentId": 1,
      "instrumentName": "Piano\u0000",
      "isPercussion": false,
      "pitch": 58,
      "velocity": 96,
      "startTime": 165.32168945833325,
      "duration": 0.046484375000005684,
      "endTime": 165.36817383333326
    },
    {
      "instrumentId": 1,
      "instrumentName": "Piano\u0000",
      "isPercussion": false,
      "pitch": 61,
      "velocity": 96,
      "startTime": 165.32168945833325,
      "duration": 0.046484375000005684,
      "endTime": 165.36817383333326
    },
    {
      "instrumentId": 1,
      "instrumentName": "Piano\u0000",
      "isPercussion": false,
      "pitch": 65,
      "velocity": 96,
      "startTime": 165.32168945833325,
      "duration": 0.046484375000005684,
      "endTime": 165.36817383333326
    },
    {
      "instrumentId": 0,
      "instrumentName": "Piano\u0000",
      "isPercussion": false,
      "pitch": 65,
      "velocity": 96,
      "startTime": 165.41543945833325,
      "duration": 0.046484375000005684,
      "endTime": 165.46192383333326
    },
    {
      "instrumentId": 0,
      "instrumentName": "Piano\u0000",
      "isPercussion": false,
      "pitch": 65,
      "velocity": 96,
      "startTime": 165.50918945833325,
      "duration": 0.09335937500000568,
      "endTime": 165.60254883333326
    },
    {
      "instrumentId": 1,
      "instrumentName": "Piano\u0000",
      "isPercussion": false,
      "pitch": 41,
      "velocity": 96,
      "startTime": 165.50918945833325,
      "duration": 0.046484375000005684,
      "endTime": 165.55567383333326
    },
    {
      "instrumentId": 0,
      "instrumentName": "Piano\u0000",
      "isPercussion": false,
      "pitch": 66,
      "velocity": 96,
      "startTime": 165.60293945833325,
      "duration": 0.09335937500000568,
      "endTime": 165.69629883333326
    },
    {
      "instrumentId": 1,
      "instrumentName": "Piano\u0000",
      "isPercussion": false,
      "pitch": 58,
      "velocity": 96,
      "startTime": 165.69668945833325,
      "duration": 0.046484375000005684,
      "endTime": 165.74317383333326
    },
    {
      "instrumentId": 1,
      "instrumentName": "Piano\u0000",
      "isPercussion": false,
      "pitch": 61,
      "velocity": 96,
      "startTime": 165.69668945833325,
      "duration": 0.046484375000005684,
      "endTime": 165.74317383333326
    },
    {
      "instrumentId": 1,
      "instrumentName": "Piano\u0000",
      "isPercussion": false,
      "pitch": 65,
      "velocity": 96,
      "startTime": 165.69668945833325,
      "duration": 0.09335937500000568,
      "endTime": 165.79004883333326
    },
    {
      "instrumentId": 0,
      "instrumentName": "Piano\u0000",
      "isPercussion": false,
      "pitch": 64,
      "velocity": 96,
      "startTime": 165.79043945833325,
      "duration": 0.08867187499998863,
      "endTime": 165.87911133333324
    },
    {
      "instrumentId": 0,
      "instrumentName": "Piano\u0000",
      "isPercussion": false,
      "pitch": 65,
      "velocity": 96,
      "startTime": 165.88418945833325,
      "duration": 0.046484375000005684,
      "endTime": 165.93067383333326
    },
    {
      "instrumentId": 1,
      "instrumentName": "Piano\u0000",
      "isPercussion": false,
      "pitch": 46,
      "velocity": 96,
      "startTime": 165.88418945833325,
      "duration": 0.18710937500000568,
      "endTime": 166.07129883333326
    },
    {
      "instrumentId": 0,
      "instrumentName": "Piano\u0000",
      "isPercussion": false,
      "pitch": 70,
      "velocity": 96,
      "startTime": 166.07168945833325,
      "duration": 0.046484375000005684,
      "endTime": 166.11817383333326
    },
    {
      "instrumentId": 1,
      "instrumentName": "Piano\u0000",
      "isPercussion": false,
      "pitch": 58,
      "velocity": 96,
      "startTime": 166.07168945833325,
      "duration": 0.046484375000005684,
      "endTime": 166.11817383333326
    },
    {
      "instrumentId": 1,
      "instrumentName": "Piano\u0000",
      "isPercussion": false,
      "pitch": 61,
      "velocity": 96,
      "startTime": 166.07168945833325,
      "duration": 0.046484375000005684,
      "endTime": 166.11817383333326
    },
    {
      "instrumentId": 1,
      "instrumentName": "Piano\u0000",
      "isPercussion": false,
      "pitch": 65,
      "velocity": 96,
      "startTime": 166.07168945833325,
      "duration": 0.046484375000005684,
      "endTime": 166.11817383333326
    },
    {
      "instrumentId": 0,
      "instrumentName": "Piano\u0000",
      "isPercussion": false,
      "pitch": 73,
      "velocity": 96,
      "startTime": 166.25918945833325,
      "duration": 0.3558593749999943,
      "endTime": 166.61504883333325
    },
    {
      "instrumentId": 1,
      "instrumentName": "Piano\u0000",
      "isPercussion": false,
      "pitch": 41,
      "velocity": 96,
      "startTime": 166.25918945833325,
      "duration": 0.046484375000005684,
      "endTime": 166.30567383333326
    },
    {
      "instrumentId": 1,
      "instrumentName": "Piano\u0000",
      "isPercussion": false,
      "pitch": 58,
      "velocity": 96,
      "startTime": 166.44668945833325,
      "duration": 0.046484375000005684,
      "endTime": 166.49317383333326
    },
    {
      "instrumentId": 1,
      "instrumentName": "Piano\u0000",
      "isPercussion": false,
      "pitch": 61,
      "velocity": 96,
      "startTime": 166.44668945833325,
      "duration": 0.046484375000005684,
      "endTime": 166.49317383333326
    },
    {
      "instrumentId": 1,
      "instrumentName": "Piano\u0000",
      "isPercussion": false,
      "pitch": 65,
      "velocity": 96,
      "startTime": 166.44668945833325,
      "duration": 0.046484375000005684,
      "endTime": 166.49317383333326
    },
    {
      "instrumentId": 0,
      "instrumentName": "Piano\u0000",
      "isPercussion": false,
      "pitch": 75,
      "velocity": 96,
      "startTime": 166.63418945833325,
      "duration": 0.046484375000005684,
      "endTime": 166.68067383333326
    },
    {
      "instrumentId": 1,
      "instrumentName": "Piano\u0000",
      "isPercussion": false,
      "pitch": 45,
      "velocity": 96,
      "startTime": 166.63418945833325,
      "duration": 0.046484375000005684,
      "endTime": 166.68067383333326
    },
    {
      "instrumentId": 0,
      "instrumentName": "Piano\u0000",
      "isPercussion": false,
      "pitch": 75,
      "velocity": 96,
      "startTime": 166.72793945833325,
      "duration": 0.046484375000005684,
      "endTime": 166.77442383333326
    },
    {
      "instrumentId": 0,
      "instrumentName": "Piano\u0000",
      "isPercussion": false,
      "pitch": 75,
      "velocity": 96,
      "startTime": 166.82168945833325,
      "duration": 0.046484375000005684,
      "endTime": 166.86817383333326
    },
    {
      "instrumentId": 1,
      "instrumentName": "Piano\u0000",
      "isPercussion": false,
      "pitch": 51,
      "velocity": 96,
      "startTime": 166.82168945833325,
      "duration": 0.046484375000005684,
      "endTime": 166.86817383333326
    },
    {
      "instrumentId": 1,
      "instrumentName": "Piano\u0000",
      "isPercussion": false,
      "pitch": 53,
      "velocity": 96,
      "startTime": 166.82168945833325,
      "duration": 0.046484375000005684,
      "endTime": 166.86817383333326
    },
    {
      "instrumentId": 1,
      "instrumentName": "Piano\u0000",
      "isPercussion": false,
      "pitch": 57,
      "velocity": 96,
      "startTime": 166.82168945833325,
      "duration": 0.046484375000005684,
      "endTime": 166.86817383333326
    },
    {
      "instrumentId": 0,
      "instrumentName": "Piano\u0000",
      "isPercussion": false,
      "pitch": 75,
      "velocity": 96,
      "startTime": 166.91543945833325,
      "duration": 0.046484375000005684,
      "endTime": 166.96192383333326
    },
    {
      "instrumentId": 0,
      "instrumentName": "Piano\u0000",
      "isPercussion": false,
      "pitch": 75,
      "velocity": 96,
      "startTime": 167.00918945833325,
      "duration": 0.046484375000005684,
      "endTime": 167.05567383333326
    },
    {
      "instrumentId": 1,
      "instrumentName": "Piano\u0000",
      "isPercussion": false,
      "pitch": 41,
      "velocity": 96,
      "startTime": 167.00918945833325,
      "duration": 0.046484375000005684,
      "endTime": 167.05567383333326
    },
    {
      "instrumentId": 0,
      "instrumentName": "Piano\u0000",
      "isPercussion": false,
      "pitch": 73,
      "velocity": 96,
      "startTime": 167.10293945833325,
      "duration": 0.046484375000005684,
      "endTime": 167.14942383333326
    },
    {
      "instrumentId": 0,
      "instrumentName": "Piano\u0000",
      "isPercussion": false,
      "pitch": 72,
      "velocity": 96,
      "startTime": 167.19668945833325,
      "duration": 0.046484375000005684,
      "endTime": 167.24317383333326
    },
    {
      "instrumentId": 1,
      "instrumentName": "Piano\u0000",
      "isPercussion": false,
      "pitch": 51,
      "velocity": 96,
      "startTime": 167.19668945833325,
      "duration": 0.046484375000005684,
      "endTime": 167.24317383333326
    },
    {
      "instrumentId": 1,
      "instrumentName": "Piano\u0000",
      "isPercussion": false,
      "pitch": 53,
      "velocity": 96,
      "startTime": 167.19668945833325,
      "duration": 0.046484375000005684,
      "endTime": 167.24317383333326
    },
    {
      "instrumentId": 1,
      "instrumentName": "Piano\u0000",
      "isPercussion": false,
      "pitch": 57,
      "velocity": 96,
      "startTime": 167.19668945833325,
      "duration": 0.046484375000005684,
      "endTime": 167.24317383333326
    },
    {
      "instrumentId": 0,
      "instrumentName": "Piano\u0000",
      "isPercussion": false,
      "pitch": 75,
      "velocity": 96,
      "startTime": 167.29043945833325,
      "duration": 0.046484375000005684,
      "endTime": 167.33692383333326
    },
    {
      "instrumentId": 0,
      "instrumentName": "Piano\u0000",
      "isPercussion": false,
      "pitch": 73,
      "velocity": 96,
      "startTime": 167.38418945833325,
      "duration": 0.046484375000005684,
      "endTime": 167.43067383333326
    },
    {
      "instrumentId": 1,
      "instrumentName": "Piano\u0000",
      "isPercussion": false,
      "pitch": 46,
      "velocity": 96,
      "startTime": 167.38418945833325,
      "duration": 0.046484375000005684,
      "endTime": 167.43067383333326
    },
    {
      "instrumentId": 0,
      "instrumentName": "Piano\u0000",
      "isPercussion": false,
      "pitch": 73,
      "velocity": 96,
      "startTime": 167.47793945833325,
      "duration": 0.046484375000005684,
      "endTime": 167.52442383333326
    },
    {
      "instrumentId": 0,
      "instrumentName": "Piano\u0000",
      "isPercussion": false,
      "pitch": 73,
      "velocity": 96,
      "startTime": 167.57168945833325,
      "duration": 0.046484375000005684,
      "endTime": 167.61817383333326
    },
    {
      "instrumentId": 1,
      "instrumentName": "Piano\u0000",
      "isPercussion": false,
      "pitch": 58,
      "velocity": 96,
      "startTime": 167.57168945833325,
      "duration": 0.046484375000005684,
      "endTime": 167.61817383333326
    },
    {
      "instrumentId": 1,
      "instrumentName": "Piano\u0000",
      "isPercussion": false,
      "pitch": 61,
      "velocity": 96,
      "startTime": 167.57168945833325,
      "duration": 0.046484375000005684,
      "endTime": 167.61817383333326
    },
    {
      "instrumentId": 1,
      "instrumentName": "Piano\u0000",
      "isPercussion": false,
      "pitch": 65,
      "velocity": 96,
      "startTime": 167.57168945833325,
      "duration": 0.046484375000005684,
      "endTime": 167.61817383333326
    },
    {
      "instrumentId": 0,
      "instrumentName": "Piano\u0000",
      "isPercussion": false,
      "pitch": 73,
      "velocity": 96,
      "startTime": 167.66543945833325,
      "duration": 0.046484375000005684,
      "endTime": 167.71192383333326
    },
    {
      "instrumentId": 0,
      "instrumentName": "Piano\u0000",
      "isPercussion": false,
      "pitch": 73,
      "velocity": 96,
      "startTime": 167.75918945833325,
      "duration": 0.046484375000005684,
      "endTime": 167.80567383333326
    },
    {
      "instrumentId": 1,
      "instrumentName": "Piano\u0000",
      "isPercussion": false,
      "pitch": 41,
      "velocity": 96,
      "startTime": 167.75918945833325,
      "duration": 0.046484375000005684,
      "endTime": 167.80567383333326
    },
    {
      "instrumentId": 0,
      "instrumentName": "Piano\u0000",
      "isPercussion": false,
      "pitch": 72,
      "velocity": 96,
      "startTime": 167.85293945833325,
      "duration": 0.046484375000005684,
      "endTime": 167.89942383333326
    },
    {
      "instrumentId": 0,
      "instrumentName": "Piano\u0000",
      "isPercussion": false,
      "pitch": 70,
      "velocity": 96,
      "startTime": 167.94668945833325,
      "duration": 0.046484375000005684,
      "endTime": 167.99317383333326
    },
    {
      "instrumentId": 1,
      "instrumentName": "Piano\u0000",
      "isPercussion": false,
      "pitch": 58,
      "velocity": 96,
      "startTime": 167.94668945833325,
      "duration": 0.046484375000005684,
      "endTime": 167.99317383333326
    },
    {
      "instrumentId": 1,
      "instrumentName": "Piano\u0000",
      "isPercussion": false,
      "pitch": 61,
      "velocity": 96,
      "startTime": 167.94668945833325,
      "duration": 0.046484375000005684,
      "endTime": 167.99317383333326
    },
    {
      "instrumentId": 1,
      "instrumentName": "Piano\u0000",
      "isPercussion": false,
      "pitch": 65,
      "velocity": 96,
      "startTime": 167.94668945833325,
      "duration": 0.046484375000005684,
      "endTime": 167.99317383333326
    },
    {
      "instrumentId": 0,
      "instrumentName": "Piano\u0000",
      "isPercussion": false,
      "pitch": 73,
      "velocity": 96,
      "startTime": 168.04043945833325,
      "duration": 0.046484375000005684,
      "endTime": 168.08692383333326
    },
    {
      "instrumentId": 0,
      "instrumentName": "Piano\u0000",
      "isPercussion": false,
      "pitch": 72,
      "velocity": 96,
      "startTime": 168.13418945833325,
      "duration": 0.046484375000005684,
      "endTime": 168.18067383333326
    },
    {
      "instrumentId": 1,
      "instrumentName": "Piano\u0000",
      "isPercussion": false,
      "pitch": 48,
      "velocity": 96,
      "startTime": 168.13418945833325,
      "duration": 0.046484375000005684,
      "endTime": 168.18067383333326
    },
    {
      "instrumentId": 0,
      "instrumentName": "Piano\u0000",
      "isPercussion": false,
      "pitch": 72,
      "velocity": 96,
      "startTime": 168.22793945833325,
      "duration": 0.046484375000005684,
      "endTime": 168.27442383333326
    },
    {
      "instrumentId": 0,
      "instrumentName": "Piano\u0000",
      "isPercussion": false,
      "pitch": 72,
      "velocity": 96,
      "startTime": 168.32168945833325,
      "duration": 0.046484375000005684,
      "endTime": 168.36817383333326
    },
    {
      "instrumentId": 1,
      "instrumentName": "Piano\u0000",
      "isPercussion": false,
      "pitch": 52,
      "velocity": 96,
      "startTime": 168.32168945833325,
      "duration": 0.046484375000005684,
      "endTime": 168.36817383333326
    },
    {
      "instrumentId": 1,
      "instrumentName": "Piano\u0000",
      "isPercussion": false,
      "pitch": 60,
      "velocity": 96,
      "startTime": 168.32168945833325,
      "duration": 0.046484375000005684,
      "endTime": 168.36817383333326
    },
    {
      "instrumentId": 0,
      "instrumentName": "Piano\u0000",
      "isPercussion": false,
      "pitch": 72,
      "velocity": 96,
      "startTime": 168.41543945833325,
      "duration": 0.046484375000005684,
      "endTime": 168.46192383333326
    },
    {
      "instrumentId": 0,
      "instrumentName": "Piano\u0000",
      "isPercussion": false,
      "pitch": 67,
      "velocity": 96,
      "startTime": 168.50918945833325,
      "duration": 0.046484375000005684,
      "endTime": 168.55567383333326
    },
    {
      "instrumentId": 1,
      "instrumentName": "Piano\u0000",
      "isPercussion": false,
      "pitch": 43,
      "velocity": 96,
      "startTime": 168.50918945833325,
      "duration": 0.046484375000005684,
      "endTime": 168.55567383333326
    },
    {
      "instrumentId": 0,
      "instrumentName": "Piano\u0000",
      "isPercussion": false,
      "pitch": 72,
      "velocity": 96,
      "startTime": 168.69668945833325,
      "duration": 0.046484375000005684,
      "endTime": 168.74317383333326
    },
    {
      "instrumentId": 1,
      "instrumentName": "Piano\u0000",
      "isPercussion": false,
      "pitch": 52,
      "velocity": 96,
      "startTime": 168.69668945833325,
      "duration": 0.046484375000005684,
      "endTime": 168.74317383333326
    },
    {
      "instrumentId": 1,
      "instrumentName": "Piano\u0000",
      "isPercussion": false,
      "pitch": 58,
      "velocity": 96,
      "startTime": 168.69668945833325,
      "duration": 0.046484375000005684,
      "endTime": 168.74317383333326
    },
    {
      "instrumentId": 0,
      "instrumentName": "Piano\u0000",
      "isPercussion": false,
      "pitch": 69,
      "velocity": 115,
      "startTime": 168.88418945833325,
      "duration": 0.062109375000005684,
      "endTime": 168.94629883333326
    },
    {
      "instrumentId": 1,
      "instrumentName": "Piano\u0000",
      "isPercussion": false,
      "pitch": 53,
      "velocity": 115,
      "startTime": 168.88418945833325,
      "duration": 0.062109375000005684,
      "endTime": 168.94629883333326
    },
    {
      "instrumentId": 0,
      "instrumentName": "Piano\u0000",
      "isPercussion": false,
      "pitch": 53,
      "velocity": 96,
      "startTime": 169.25918945833325,
      "duration": 0.3558593749999943,
      "endTime": 169.61504883333325
    },
    {
      "instrumentId": 1,
      "instrumentName": "Piano\u0000",
      "isPercussion": false,
      "pitch": 29,
      "velocity": 96,
      "startTime": 169.25918945833325,
      "duration": 0.31132812499998863,
      "endTime": 169.57051758333324
    },
    {
      "instrumentId": 1,
      "instrumentName": "Piano\u0000",
      "isPercussion": false,
      "pitch": 41,
      "velocity": 96,
      "startTime": 169.25918945833325,
      "duration": 0.322265625,
      "endTime": 169.58145508333325
    },
    {
      "instrumentId": 1,
      "instrumentName": "Piano\u0000",
      "isPercussion": false,
      "pitch": 43,
      "velocity": 96,
      "startTime": 169.59903320833325,
      "duration": 0.010546874999988631,
      "endTime": 169.60958008333324
    },
    {
      "instrumentId": 1,
      "instrumentName": "Piano\u0000",
      "isPercussion": false,
      "pitch": 44,
      "velocity": 96,
      "startTime": 169.61075195833325,
      "duration": 0.010546874999988631,
      "endTime": 169.62129883333324
    },
    {
      "instrumentId": 1,
      "instrumentName": "Piano\u0000",
      "isPercussion": false,
      "pitch": 45,
      "velocity": 96,
      "startTime": 169.62247070833325,
      "duration": 0.010546874999988631,
      "endTime": 169.63301758333324
    },
    {
      "instrumentId": 0,
      "instrumentName": "Piano\u0000",
      "isPercussion": false,
      "pitch": 65,
      "velocity": 96,
      "startTime": 169.63418945833325,
      "duration": 0.046484375000005684,
      "endTime": 169.68067383333326
    },
    {
      "instrumentId": 1,
      "instrumentName": "Piano\u0000",
      "isPercussion": false,
      "pitch": 34,
      "velocity": 96,
      "startTime": 169.63418945833325,
      "duration": 0.18710937500000568,
      "endTime": 169.82129883333326
    },
    {
      "instrumentId": 1,
      "instrumentName": "Piano\u0000",
      "isPercussion": false,
      "pitch": 46,
      "velocity": 96,
      "startTime": 169.63418945833325,
      "duration": 0.18710937500000568,
      "endTime": 169.82129883333326
    },
    {
      "instrumentId": 0,
      "instrumentName": "Piano\u0000",
      "isPercussion": false,
      "pitch": 65,
      "velocity": 96,
      "startTime": 169.72793945833325,
      "duration": 0.046484375000005684,
      "endTime": 169.77442383333326
    },
    {
      "instrumentId": 1,
      "instrumentName": "Piano\u0000",
      "isPercussion": false,
      "pitch": 58,
      "velocity": 96,
      "startTime": 169.82168945833325,
      "duration": 0.046484375000005684,
      "endTime": 169.86817383333326
    },
    {
      "instrumentId": 1,
      "instrumentName": "Piano\u0000",
      "isPercussion": false,
      "pitch": 61,
      "velocity": 96,
      "startTime": 169.82168945833325,
      "duration": 0.046484375000005684,
      "endTime": 169.86817383333326
    },
    {
      "instrumentId": 1,
      "instrumentName": "Piano\u0000",
      "isPercussion": false,
      "pitch": 65,
      "velocity": 96,
      "startTime": 169.82168945833325,
      "duration": 0.046484375000005684,
      "endTime": 169.86817383333326
    },
    {
      "instrumentId": 0,
      "instrumentName": "Piano\u0000",
      "isPercussion": false,
      "pitch": 65,
      "velocity": 96,
      "startTime": 169.91543945833325,
      "duration": 0.046484375000005684,
      "endTime": 169.96192383333326
    },
    {
      "instrumentId": 0,
      "instrumentName": "Piano\u0000",
      "isPercussion": false,
      "pitch": 65,
      "velocity": 96,
      "startTime": 170.00918945833325,
      "duration": 0.046484375000005684,
      "endTime": 170.05567383333326
    },
    {
      "instrumentId": 1,
      "instrumentName": "Piano\u0000",
      "isPercussion": false,
      "pitch": 41,
      "velocity": 96,
      "startTime": 170.00918945833325,
      "duration": 0.046484375000005684,
      "endTime": 170.05567383333326
    },
    {
      "instrumentId": 0,
      "instrumentName": "Piano\u0000",
      "isPercussion": false,
      "pitch": 65,
      "velocity": 96,
      "startTime": 170.10293945833325,
      "duration": 0.046484375000005684,
      "endTime": 170.14942383333326
    },
    {
      "instrumentId": 1,
      "instrumentName": "Piano\u0000",
      "isPercussion": false,
      "pitch": 58,
      "velocity": 96,
      "startTime": 170.19668945833325,
      "duration": 0.046484375000005684,
      "endTime": 170.24317383333326
    },
    {
      "instrumentId": 1,
      "instrumentName": "Piano\u0000",
      "isPercussion": false,
      "pitch": 61,
      "velocity": 96,
      "startTime": 170.19668945833325,
      "duration": 0.046484375000005684,
      "endTime": 170.24317383333326
    },
    {
      "instrumentId": 1,
      "instrumentName": "Piano\u0000",
      "isPercussion": false,
      "pitch": 65,
      "velocity": 96,
      "startTime": 170.19668945833325,
      "duration": 0.046484375000005684,
      "endTime": 170.24317383333326
    },
    {
      "instrumentId": 0,
      "instrumentName": "Piano\u0000",
      "isPercussion": false,
      "pitch": 65,
      "velocity": 96,
      "startTime": 170.29043945833325,
      "duration": 0.046484375000005684,
      "endTime": 170.33692383333326
    },
    {
      "instrumentId": 1,
      "instrumentName": "Piano\u0000",
      "isPercussion": false,
      "pitch": 46,
      "velocity": 96,
      "startTime": 170.38418945833325,
      "duration": 0.18710937500000568,
      "endTime": 170.57129883333326
    },
    {
      "instrumentId": 0,
      "instrumentName": "Piano\u0000",
      "isPercussion": false,
      "pitch": 65,
      "velocity": 96,
      "startTime": 170.47793945833325,
      "duration": 0.046484375000005684,
      "endTime": 170.52442383333326
    },
    {
      "instrumentId": 1,
      "instrumentName": "Piano\u0000",
      "isPercussion": false,
      "pitch": 58,
      "velocity": 96,
      "startTime": 170.57168945833325,
      "duration": 0.046484375000005684,
      "endTime": 170.61817383333326
    },
    {
      "instrumentId": 1,
      "instrumentName": "Piano\u0000",
      "isPercussion": false,
      "pitch": 61,
      "velocity": 96,
      "startTime": 170.57168945833325,
      "duration": 0.046484375000005684,
      "endTime": 170.61817383333326
    },
    {
      "instrumentId": 1,
      "instrumentName": "Piano\u0000",
      "isPercussion": false,
      "pitch": 65,
      "velocity": 96,
      "startTime": 170.57168945833325,
      "duration": 0.046484375000005684,
      "endTime": 170.61817383333326
    },
    {
      "instrumentId": 0,
      "instrumentName": "Piano\u0000",
      "isPercussion": false,
      "pitch": 65,
      "velocity": 96,
      "startTime": 170.66543945833325,
      "duration": 0.046484375000005684,
      "endTime": 170.71192383333326
    },
    {
      "instrumentId": 0,
      "instrumentName": "Piano\u0000",
      "isPercussion": false,
      "pitch": 65,
      "velocity": 96,
      "startTime": 170.75918945833325,
      "duration": 0.046484375000005684,
      "endTime": 170.80567383333326
    },
    {
      "instrumentId": 1,
      "instrumentName": "Piano\u0000",
      "isPercussion": false,
      "pitch": 41,
      "velocity": 96,
      "startTime": 170.75918945833325,
      "duration": 0.046484375000005684,
      "endTime": 170.80567383333326
    },
    {
      "instrumentId": 0,
      "instrumentName": "Piano\u0000",
      "isPercussion": false,
      "pitch": 65,
      "velocity": 96,
      "startTime": 170.85293945833325,
      "duration": 0.046484375000005684,
      "endTime": 170.89942383333326
    },
    {
      "instrumentId": 1,
      "instrumentName": "Piano\u0000",
      "isPercussion": false,
      "pitch": 58,
      "velocity": 96,
      "startTime": 170.94668945833325,
      "duration": 0.046484375000005684,
      "endTime": 170.99317383333326
    },
    {
      "instrumentId": 1,
      "instrumentName": "Piano\u0000",
      "isPercussion": false,
      "pitch": 61,
      "velocity": 96,
      "startTime": 170.94668945833325,
      "duration": 0.046484375000005684,
      "endTime": 170.99317383333326
    },
    {
      "instrumentId": 1,
      "instrumentName": "Piano\u0000",
      "isPercussion": false,
      "pitch": 65,
      "velocity": 96,
      "startTime": 170.94668945833325,
      "duration": 0.046484375000005684,
      "endTime": 170.99317383333326
    },
    {
      "instrumentId": 0,
      "instrumentName": "Piano\u0000",
      "isPercussion": false,
      "pitch": 65,
      "velocity": 96,
      "startTime": 171.04043945833325,
      "duration": 0.046484375000005684,
      "endTime": 171.08692383333326
    },
    {
      "instrumentId": 0,
      "instrumentName": "Piano\u0000",
      "isPercussion": false,
      "pitch": 65,
      "velocity": 96,
      "startTime": 171.13418945833325,
      "duration": 0.09335937500000568,
      "endTime": 171.22754883333326
    },
    {
      "instrumentId": 1,
      "instrumentName": "Piano\u0000",
      "isPercussion": false,
      "pitch": 46,
      "velocity": 96,
      "startTime": 171.13418945833325,
      "duration": 0.18710937500000568,
      "endTime": 171.32129883333326
    },
    {
      "instrumentId": 0,
      "instrumentName": "Piano\u0000",
      "isPercussion": false,
      "pitch": 66,
      "velocity": 96,
      "startTime": 171.22793945833325,
      "duration": 0.09335937500000568,
      "endTime": 171.32129883333326
    },
    {
      "instrumentId": 1,
      "instrumentName": "Piano\u0000",
      "isPercussion": false,
      "pitch": 58,
      "velocity": 96,
      "startTime": 171.32168945833325,
      "duration": 0.046484375000005684,
      "endTime": 171.36817383333326
    },
    {
      "instrumentId": 1,
      "instrumentName": "Piano\u0000",
      "isPercussion": false,
      "pitch": 61,
      "velocity": 96,
      "startTime": 171.32168945833325,
      "duration": 0.046484375000005684,
      "endTime": 171.36817383333326
    },
    {
      "instrumentId": 1,
      "instrumentName": "Piano\u0000",
      "isPercussion": false,
      "pitch": 65,
      "velocity": 96,
      "startTime": 171.32168945833325,
      "duration": 0.09335937500000568,
      "endTime": 171.41504883333326
    },
    {
      "instrumentId": 0,
      "instrumentName": "Piano\u0000",
      "isPercussion": false,
      "pitch": 64,
      "velocity": 96,
      "startTime": 171.41543945833325,
      "duration": 0.08867187499998863,
      "endTime": 171.50411133333324
    },
    {
      "instrumentId": 0,
      "instrumentName": "Piano\u0000",
      "isPercussion": false,
      "pitch": 65,
      "velocity": 96,
      "startTime": 171.50918945833325,
      "duration": 0.08867187499998863,
      "endTime": 171.59786133333324
    },
    {
      "instrumentId": 1,
      "instrumentName": "Piano\u0000",
      "isPercussion": false,
      "pitch": 41,
      "velocity": 96,
      "startTime": 171.50918945833325,
      "duration": 0.046484375000005684,
      "endTime": 171.55567383333326
    },
    {
      "instrumentId": 0,
      "instrumentName": "Piano\u0000",
      "isPercussion": false,
      "pitch": 70,
      "velocity": 96,
      "startTime": 171.69668945833325,
      "duration": 0.08867187499998863,
      "endTime": 171.78536133333324
    },
    {
      "instrumentId": 1,
      "instrumentName": "Piano\u0000",
      "isPercussion": false,
      "pitch": 58,
      "velocity": 96,
      "startTime": 171.69668945833325,
      "duration": 0.046484375000005684,
      "endTime": 171.74317383333326
    },
    {
      "instrumentId": 1,
      "instrumentName": "Piano\u0000",
      "isPercussion": false,
      "pitch": 61,
      "velocity": 96,
      "startTime": 171.69668945833325,
      "duration": 0.046484375000005684,
      "endTime": 171.74317383333326
    },
    {
      "instrumentId": 1,
      "instrumentName": "Piano\u0000",
      "isPercussion": false,
      "pitch": 65,
      "velocity": 96,
      "startTime": 171.69668945833325,
      "duration": 0.046484375000005684,
      "endTime": 171.74317383333326
    },
    {
      "instrumentId": 0,
      "instrumentName": "Piano\u0000",
      "isPercussion": false,
      "pitch": 73,
      "velocity": 96,
      "startTime": 171.79043945833325,
      "duration": 0.08867187499998863,
      "endTime": 171.87911133333324
    },
    {
      "instrumentId": 0,
      "instrumentName": "Piano\u0000",
      "isPercussion": false,
      "pitch": 77,
      "velocity": 96,
      "startTime": 171.88418945833325,
      "duration": 0.046484375000005684,
      "endTime": 171.93067383333326
    },
    {
      "instrumentId": 1,
      "instrumentName": "Piano\u0000",
      "isPercussion": false,
      "pitch": 46,
      "velocity": 96,
      "startTime": 171.88418945833325,
      "duration": 0.18710937500000568,
      "endTime": 172.07129883333326
    },
    {
      "instrumentId": 0,
      "instrumentName": "Piano\u0000",
      "isPercussion": false,
      "pitch": 82,
      "velocity": 96,
      "startTime": 172.07168945833325,
      "duration": 0.046484375000005684,
      "endTime": 172.11817383333326
    },
    {
      "instrumentId": 1,
      "instrumentName": "Piano\u0000",
      "isPercussion": false,
      "pitch": 58,
      "velocity": 96,
      "startTime": 172.07168945833325,
      "duration": 0.046484375000005684,
      "endTime": 172.11817383333326
    },
    {
      "instrumentId": 1,
      "instrumentName": "Piano\u0000",
      "isPercussion": false,
      "pitch": 61,
      "velocity": 96,
      "startTime": 172.07168945833325,
      "duration": 0.046484375000005684,
      "endTime": 172.11817383333326
    },
    {
      "instrumentId": 1,
      "instrumentName": "Piano\u0000",
      "isPercussion": false,
      "pitch": 65,
      "velocity": 96,
      "startTime": 172.07168945833325,
      "duration": 0.046484375000005684,
      "endTime": 172.11817383333326
    },
    {
      "instrumentId": 0,
      "instrumentName": "Piano\u0000",
      "isPercussion": false,
      "pitch": 85,
      "velocity": 96,
      "startTime": 172.25918945833325,
      "duration": 0.3558593749999943,
      "endTime": 172.61504883333325
    },
    {
      "instrumentId": 1,
      "instrumentName": "Piano\u0000",
      "isPercussion": false,
      "pitch": 41,
      "velocity": 96,
      "startTime": 172.25918945833325,
      "duration": 0.046484375000005684,
      "endTime": 172.30567383333326
    },
    {
      "instrumentId": 1,
      "instrumentName": "Piano\u0000",
      "isPercussion": false,
      "pitch": 58,
      "velocity": 96,
      "startTime": 172.44668945833325,
      "duration": 0.046484375000005684,
      "endTime": 172.49317383333326
    },
    {
      "instrumentId": 1,
      "instrumentName": "Piano\u0000",
      "isPercussion": false,
      "pitch": 61,
      "velocity": 96,
      "startTime": 172.44668945833325,
      "duration": 0.046484375000005684,
      "endTime": 172.49317383333326
    },
    {
      "instrumentId": 1,
      "instrumentName": "Piano\u0000",
      "isPercussion": false,
      "pitch": 65,
      "velocity": 96,
      "startTime": 172.44668945833325,
      "duration": 0.046484375000005684,
      "endTime": 172.49317383333326
    },
    {
      "instrumentId": 0,
      "instrumentName": "Piano\u0000",
      "isPercussion": false,
      "pitch": 87,
      "velocity": 96,
      "startTime": 172.63418945833325,
      "duration": 0.09335937500000568,
      "endTime": 172.72754883333326
    },
    {
      "instrumentId": 1,
      "instrumentName": "Piano\u0000",
      "isPercussion": false,
      "pitch": 51,
      "velocity": 96,
      "startTime": 172.63418945833325,
      "duration": 0.046484375000005684,
      "endTime": 172.68067383333326
    },
    {
      "instrumentId": 0,
      "instrumentName": "Piano\u0000",
      "isPercussion": false,
      "pitch": 85,
      "velocity": 96,
      "startTime": 172.72793945833325,
      "duration": 0.09335937500000568,
      "endTime": 172.82129883333326
    },
    {
      "instrumentId": 0,
      "instrumentName": "Piano\u0000",
      "isPercussion": false,
      "pitch": 84,
      "velocity": 96,
      "startTime": 172.82168945833325,
      "duration": 0.09335937500000568,
      "endTime": 172.91504883333326
    },
    {
      "instrumentId": 1,
      "instrumentName": "Piano\u0000",
      "isPercussion": false,
      "pitch": 54,
      "velocity": 96,
      "startTime": 172.82168945833325,
      "duration": 0.046484375000005684,
      "endTime": 172.86817383333326
    },
    {
      "instrumentId": 1,
      "instrumentName": "Piano\u0000",
      "isPercussion": false,
      "pitch": 60,
      "velocity": 96,
      "startTime": 172.82168945833325,
      "duration": 0.046484375000005684,
      "endTime": 172.86817383333326
    },
    {
      "instrumentId": 0,
      "instrumentName": "Piano\u0000",
      "isPercussion": false,
      "pitch": 87,
      "velocity": 96,
      "startTime": 172.91543945833325,
      "duration": 0.09335937500000568,
      "endTime": 173.00879883333326
    },
    {
      "instrumentId": 0,
      "instrumentName": "Piano\u0000",
      "isPercussion": false,
      "pitch": 85,
      "velocity": 96,
      "startTime": 173.00918945833325,
      "duration": 0.09335937500000568,
      "endTime": 173.10254883333326
    },
    {
      "instrumentId": 1,
      "instrumentName": "Piano\u0000",
      "isPercussion": false,
      "pitch": 49,
      "velocity": 96,
      "startTime": 173.00918945833325,
      "duration": 0.046484375000005684,
      "endTime": 173.05567383333326
    },
    {
      "instrumentId": 0,
      "instrumentName": "Piano\u0000",
      "isPercussion": false,
      "pitch": 84,
      "velocity": 96,
      "startTime": 173.10293945833325,
      "duration": 0.09335937500000568,
      "endTime": 173.19629883333326
    },
    {
      "instrumentId": 0,
      "instrumentName": "Piano\u0000",
      "isPercussion": false,
      "pitch": 82,
      "velocity": 96,
      "startTime": 173.19668945833325,
      "duration": 0.09335937500000568,
      "endTime": 173.29004883333326
    },
    {
      "instrumentId": 1,
      "instrumentName": "Piano\u0000",
      "isPercussion": false,
      "pitch": 53,
      "velocity": 96,
      "startTime": 173.19668945833325,
      "duration": 0.046484375000005684,
      "endTime": 173.24317383333326
    },
    {
      "instrumentId": 1,
      "instrumentName": "Piano\u0000",
      "isPercussion": false,
      "pitch": 61,
      "velocity": 96,
      "startTime": 173.19668945833325,
      "duration": 0.046484375000005684,
      "endTime": 173.24317383333326
    },
    {
      "instrumentId": 0,
      "instrumentName": "Piano\u0000",
      "isPercussion": false,
      "pitch": 85,
      "velocity": 96,
      "startTime": 173.29043945833325,
      "duration": 0.09335937500000568,
      "endTime": 173.38379883333326
    },
    {
      "instrumentId": 0,
      "instrumentName": "Piano\u0000",
      "isPercussion": false,
      "pitch": 84,
      "velocity": 96,
      "startTime": 173.38418945833325,
      "duration": 0.09335937500000568,
      "endTime": 173.47754883333326
    },
    {
      "instrumentId": 1,
      "instrumentName": "Piano\u0000",
      "isPercussion": false,
      "pitch": 48,
      "velocity": 96,
      "startTime": 173.38418945833325,
      "duration": 0.046484375000005684,
      "endTime": 173.43067383333326
    },
    {
      "instrumentId": 0,
      "instrumentName": "Piano\u0000",
      "isPercussion": false,
      "pitch": 82,
      "velocity": 96,
      "startTime": 173.47793945833325,
      "duration": 0.09335937500000568,
      "endTime": 173.57129883333326
    },
    {
      "instrumentId": 0,
      "instrumentName": "Piano\u0000",
      "isPercussion": false,
      "pitch": 81,
      "velocity": 96,
      "startTime": 173.57168945833325,
      "duration": 0.09335937500000568,
      "endTime": 173.66504883333326
    },
    {
      "instrumentId": 1,
      "instrumentName": "Piano\u0000",
      "isPercussion": false,
      "pitch": 51,
      "velocity": 96,
      "startTime": 173.57168945833325,
      "duration": 0.046484375000005684,
      "endTime": 173.61817383333326
    },
    {
      "instrumentId": 1,
      "instrumentName": "Piano\u0000",
      "isPercussion": false,
      "pitch": 56,
      "velocity": 96,
      "startTime": 173.57168945833325,
      "duration": 0.046484375000005684,
      "endTime": 173.61817383333326
    },
    {
      "instrumentId": 0,
      "instrumentName": "Piano\u0000",
      "isPercussion": false,
      "pitch": 84,
      "velocity": 96,
      "startTime": 173.66543945833325,
      "duration": 0.09335937500000568,
      "endTime": 173.75879883333326
    },
    {
      "instrumentId": 0,
      "instrumentName": "Piano\u0000",
      "isPercussion": false,
      "pitch": 82,
      "velocity": 96,
      "startTime": 173.75918945833325,
      "duration": 0.09335937500000568,
      "endTime": 173.85254883333326
    },
    {
      "instrumentId": 1,
      "instrumentName": "Piano\u0000",
      "isPercussion": false,
      "pitch": 46,
      "velocity": 96,
      "startTime": 173.75918945833325,
      "duration": 0.046484375000005684,
      "endTime": 173.80567383333326
    },
    {
      "instrumentId": 0,
      "instrumentName": "Piano\u0000",
      "isPercussion": false,
      "pitch": 77,
      "velocity": 96,
      "startTime": 173.85293945833325,
      "duration": 0.09335937500000568,
      "endTime": 173.94629883333326
    },
    {
      "instrumentId": 0,
      "instrumentName": "Piano\u0000",
      "isPercussion": false,
      "pitch": 73,
      "velocity": 96,
      "startTime": 173.94668945833325,
      "duration": 0.09335937500000568,
      "endTime": 174.04004883333326
    },
    {
      "instrumentId": 1,
      "instrumentName": "Piano\u0000",
      "isPercussion": false,
      "pitch": 49,
      "velocity": 96,
      "startTime": 173.94668945833325,
      "duration": 0.046484375000005684,
      "endTime": 173.99317383333326
    },
    {
      "instrumentId": 1,
      "instrumentName": "Piano\u0000",
      "isPercussion": false,
      "pitch": 58,
      "velocity": 96,
      "startTime": 173.94668945833325,
      "duration": 0.046484375000005684,
      "endTime": 173.99317383333326
    },
    {
      "instrumentId": 0,
      "instrumentName": "Piano\u0000",
      "isPercussion": false,
      "pitch": 70,
      "velocity": 96,
      "startTime": 174.04043945833325,
      "duration": 0.09335937500000568,
      "endTime": 174.13379883333326
    },
    {
      "instrumentId": 0,
      "instrumentName": "Piano\u0000",
      "isPercussion": false,
      "pitch": 78,
      "velocity": 96,
      "startTime": 174.13418945833325,
      "duration": 0.09335937500000568,
      "endTime": 174.22754883333326
    },
    {
      "instrumentId": 1,
      "instrumentName": "Piano\u0000",
      "isPercussion": false,
      "pitch": 41,
      "velocity": 96,
      "startTime": 174.13418945833325,
      "duration": 0.08867187499998863,
      "endTime": 174.22286133333324
    },
    {
      "instrumentId": 1,
      "instrumentName": "Piano\u0000",
      "isPercussion": false,
      "pitch": 53,
      "velocity": 96,
      "startTime": 174.13418945833325,
      "duration": 0.08867187499998863,
      "endTime": 174.22286133333324
    },
    {
      "instrumentId": 0,
      "instrumentName": "Piano\u0000",
      "isPercussion": false,
      "pitch": 77,
      "velocity": 96,
      "startTime": 174.22793945833325,
      "duration": 0.09335937500000568,
      "endTime": 174.32129883333326
    },
    {
      "instrumentId": 0,
      "instrumentName": "Piano\u0000",
      "isPercussion": false,
      "pitch": 75,
      "velocity": 96,
      "startTime": 174.32168945833325,
      "duration": 0.09335937500000568,
      "endTime": 174.41504883333326
    },
    {
      "instrumentId": 1,
      "instrumentName": "Piano\u0000",
      "isPercussion": false,
      "pitch": 43,
      "velocity": 96,
      "startTime": 174.32168945833325,
      "duration": 0.08867187499998863,
      "endTime": 174.41036133333324
    },
    {
      "instrumentId": 1,
      "instrumentName": "Piano\u0000",
      "isPercussion": false,
      "pitch": 55,
      "velocity": 96,
      "startTime": 174.32168945833325,
      "duration": 0.08867187499998863,
      "endTime": 174.41036133333324
    },
    {
      "instrumentId": 0,
      "instrumentName": "Piano\u0000",
      "isPercussion": false,
      "pitch": 73,
      "velocity": 96,
      "startTime": 174.41543945833325,
      "duration": 0.09335937500000568,
      "endTime": 174.50879883333326
    },
    {
      "instrumentId": 0,
      "instrumentName": "Piano\u0000",
      "isPercussion": false,
      "pitch": 72,
      "velocity": 96,
      "startTime": 174.50918945833325,
      "duration": 0.09335937500000568,
      "endTime": 174.60254883333326
    },
    {
      "instrumentId": 1,
      "instrumentName": "Piano\u0000",
      "isPercussion": false,
      "pitch": 45,
      "velocity": 96,
      "startTime": 174.50918945833325,
      "duration": 0.08867187499998863,
      "endTime": 174.59786133333324
    },
    {
      "instrumentId": 1,
      "instrumentName": "Piano\u0000",
      "isPercussion": false,
      "pitch": 57,
      "velocity": 96,
      "startTime": 174.50918945833325,
      "duration": 0.08867187499998863,
      "endTime": 174.59786133333324
    },
    {
      "instrumentId": 0,
      "instrumentName": "Piano\u0000",
      "isPercussion": false,
      "pitch": 70,
      "velocity": 96,
      "startTime": 174.60293945833325,
      "duration": 0.09335937500000568,
      "endTime": 174.69629883333326
    },
    {
      "instrumentId": 0,
      "instrumentName": "Piano\u0000",
      "isPercussion": false,
      "pitch": 69,
      "velocity": 96,
      "startTime": 174.69668945833325,
      "duration": 0.09335937500000568,
      "endTime": 174.79004883333326
    },
    {
      "instrumentId": 1,
      "instrumentName": "Piano\u0000",
      "isPercussion": false,
      "pitch": 41,
      "velocity": 96,
      "startTime": 174.69668945833325,
      "duration": 0.08867187499998863,
      "endTime": 174.78536133333324
    },
    {
      "instrumentId": 1,
      "instrumentName": "Piano\u0000",
      "isPercussion": false,
      "pitch": 53,
      "velocity": 96,
      "startTime": 174.69668945833325,
      "duration": 0.08867187499998863,
      "endTime": 174.78536133333324
    },
    {
      "instrumentId": 0,
      "instrumentName": "Piano\u0000",
      "isPercussion": false,
      "pitch": 72,
      "velocity": 96,
      "startTime": 174.79043945833325,
      "duration": 0.09335937500000568,
      "endTime": 174.88379883333326
    },
    {
      "instrumentId": 0,
      "instrumentName": "Piano\u0000",
      "isPercussion": false,
      "pitch": 70,
      "velocity": 96,
      "startTime": 174.88418945833325,
      "duration": 0.3558593749999943,
      "endTime": 175.24004883333325
    },
    {
      "instrumentId": 1,
      "instrumentName": "Piano\u0000",
      "isPercussion": false,
      "pitch": 46,
      "velocity": 96,
      "startTime": 174.88418945833325,
      "duration": 0.3558593749999943,
      "endTime": 175.24004883333325
    },
    {
      "instrumentId": 1,
      "instrumentName": "Piano\u0000",
      "isPercussion": false,
      "pitch": 58,
      "velocity": 96,
      "startTime": 174.88418945833325,
      "duration": 0.3558593749999943,
      "endTime": 175.24004883333325
    },
    {
      "instrumentId": 0,
      "instrumentName": "Piano\u0000",
      "isPercussion": false,
      "pitch": 87,
      "velocity": 96,
      "startTime": 175.63418945833325,
      "duration": 0.09335937500000568,
      "endTime": 175.72754883333326
    },
    {
      "instrumentId": 1,
      "instrumentName": "Piano\u0000",
      "isPercussion": false,
      "pitch": 63,
      "velocity": 96,
      "startTime": 175.63418945833325,
      "duration": 0.08867187499998863,
      "endTime": 175.72286133333324
    },
    {
      "instrumentId": 1,
      "instrumentName": "Piano\u0000",
      "isPercussion": false,
      "pitch": 66,
      "velocity": 96,
      "startTime": 175.63418945833325,
      "duration": 0.08867187499998863,
      "endTime": 175.72286133333324
    },
    {
      "instrumentId": 1,
      "instrumentName": "Piano\u0000",
      "isPercussion": false,
      "pitch": 72,
      "velocity": 96,
      "startTime": 175.63418945833325,
      "duration": 0.08867187499998863,
      "endTime": 175.72286133333324
    },
    {
      "instrumentId": 0,
      "instrumentName": "Piano\u0000",
      "isPercussion": false,
      "pitch": 85,
      "velocity": 96,
      "startTime": 175.72793945833325,
      "duration": 0.09335937500000568,
      "endTime": 175.82129883333326
    },
    {
      "instrumentId": 0,
      "instrumentName": "Piano\u0000",
      "isPercussion": false,
      "pitch": 84,
      "velocity": 96,
      "startTime": 175.82168945833325,
      "duration": 0.09335937500000568,
      "endTime": 175.91504883333326
    },
    {
      "instrumentId": 0,
      "instrumentName": "Piano\u0000",
      "isPercussion": false,
      "pitch": 87,
      "velocity": 96,
      "startTime": 175.91543945833325,
      "duration": 0.09335937500000568,
      "endTime": 176.00879883333326
    },
    {
      "instrumentId": 0,
      "instrumentName": "Piano\u0000",
      "isPercussion": false,
      "pitch": 85,
      "velocity": 96,
      "startTime": 176.00918945833325,
      "duration": 0.09335937500000568,
      "endTime": 176.10254883333326
    },
    {
      "instrumentId": 1,
      "instrumentName": "Piano\u0000",
      "isPercussion": false,
      "pitch": 61,
      "velocity": 96,
      "startTime": 176.00918945833325,
      "duration": 0.08867187499998863,
      "endTime": 176.09786133333324
    },
    {
      "instrumentId": 1,
      "instrumentName": "Piano\u0000",
      "isPercussion": false,
      "pitch": 65,
      "velocity": 96,
      "startTime": 176.00918945833325,
      "duration": 0.08867187499998863,
      "endTime": 176.09786133333324
    },
    {
      "instrumentId": 1,
      "instrumentName": "Piano\u0000",
      "isPercussion": false,
      "pitch": 70,
      "velocity": 96,
      "startTime": 176.00918945833325,
      "duration": 0.08867187499998863,
      "endTime": 176.09786133333324
    },
    {
      "instrumentId": 0,
      "instrumentName": "Piano\u0000",
      "isPercussion": false,
      "pitch": 84,
      "velocity": 96,
      "startTime": 176.10293945833325,
      "duration": 0.09335937500000568,
      "endTime": 176.19629883333326
    },
    {
      "instrumentId": 0,
      "instrumentName": "Piano\u0000",
      "isPercussion": false,
      "pitch": 82,
      "velocity": 96,
      "startTime": 176.19668945833325,
      "duration": 0.09335937500000568,
      "endTime": 176.29004883333326
    },
    {
      "instrumentId": 0,
      "instrumentName": "Piano\u0000",
      "isPercussion": false,
      "pitch": 85,
      "velocity": 96,
      "startTime": 176.29043945833325,
      "duration": 0.09335937500000568,
      "endTime": 176.38379883333326
    },
    {
      "instrumentId": 0,
      "instrumentName": "Piano\u0000",
      "isPercussion": false,
      "pitch": 84,
      "velocity": 96,
      "startTime": 176.38418945833325,
      "duration": 0.09335937500000568,
      "endTime": 176.47754883333326
    },
    {
      "instrumentId": 1,
      "instrumentName": "Piano\u0000",
      "isPercussion": false,
      "pitch": 60,
      "velocity": 96,
      "startTime": 176.38418945833325,
      "duration": 0.08867187499998863,
      "endTime": 176.47286133333324
    },
    {
      "instrumentId": 1,
      "instrumentName": "Piano\u0000",
      "isPercussion": false,
      "pitch": 63,
      "velocity": 96,
      "startTime": 176.38418945833325,
      "duration": 0.08867187499998863,
      "endTime": 176.47286133333324
    },
    {
      "instrumentId": 1,
      "instrumentName": "Piano\u0000",
      "isPercussion": false,
      "pitch": 69,
      "velocity": 96,
      "startTime": 176.38418945833325,
      "duration": 0.08867187499998863,
      "endTime": 176.47286133333324
    },
    {
      "instrumentId": 0,
      "instrumentName": "Piano\u0000",
      "isPercussion": false,
      "pitch": 82,
      "velocity": 96,
      "startTime": 176.47793945833325,
      "duration": 0.09335937500000568,
      "endTime": 176.57129883333326
    },
    {
      "instrumentId": 0,
      "instrumentName": "Piano\u0000",
      "isPercussion": false,
      "pitch": 81,
      "velocity": 96,
      "startTime": 176.57168945833325,
      "duration": 0.09335937500000568,
      "endTime": 176.66504883333326
    },
    {
      "instrumentId": 0,
      "instrumentName": "Piano\u0000",
      "isPercussion": false,
      "pitch": 84,
      "velocity": 96,
      "startTime": 176.66543945833325,
      "duration": 0.09335937500000568,
      "endTime": 176.75879883333326
    },
    {
      "instrumentId": 0,
      "instrumentName": "Piano\u0000",
      "isPercussion": false,
      "pitch": 82,
      "velocity": 96,
      "startTime": 176.75918945833325,
      "duration": 0.09335937500000568,
      "endTime": 176.85254883333326
    },
    {
      "instrumentId": 1,
      "instrumentName": "Piano\u0000",
      "isPercussion": false,
      "pitch": 58,
      "velocity": 96,
      "startTime": 176.75918945833325,
      "duration": 0.08867187499998863,
      "endTime": 176.84786133333324
    },
    {
      "instrumentId": 1,
      "instrumentName": "Piano\u0000",
      "isPercussion": false,
      "pitch": 61,
      "velocity": 96,
      "startTime": 176.75918945833325,
      "duration": 0.08867187499998863,
      "endTime": 176.84786133333324
    },
    {
      "instrumentId": 1,
      "instrumentName": "Piano\u0000",
      "isPercussion": false,
      "pitch": 70,
      "velocity": 96,
      "startTime": 176.75918945833325,
      "duration": 0.08867187499998863,
      "endTime": 176.84786133333324
    },
    {
      "instrumentId": 0,
      "instrumentName": "Piano\u0000",
      "isPercussion": false,
      "pitch": 77,
      "velocity": 96,
      "startTime": 176.85293945833325,
      "duration": 0.09335937500000568,
      "endTime": 176.94629883333326
    },
    {
      "instrumentId": 0,
      "instrumentName": "Piano\u0000",
      "isPercussion": false,
      "pitch": 73,
      "velocity": 96,
      "startTime": 176.94668945833325,
      "duration": 0.09335937500000568,
      "endTime": 177.04004883333326
    },
    {
      "instrumentId": 0,
      "instrumentName": "Piano\u0000",
      "isPercussion": false,
      "pitch": 70,
      "velocity": 96,
      "startTime": 177.04043945833325,
      "duration": 0.09335937500000568,
      "endTime": 177.13379883333326
    },
    {
      "instrumentId": 0,
      "instrumentName": "Piano\u0000",
      "isPercussion": false,
      "pitch": 78,
      "velocity": 96,
      "startTime": 177.13418945833325,
      "duration": 0.09335937500000568,
      "endTime": 177.22754883333326
    },
    {
      "instrumentId": 1,
      "instrumentName": "Piano\u0000",
      "isPercussion": false,
      "pitch": 41,
      "velocity": 96,
      "startTime": 177.13418945833325,
      "duration": 0.08867187499998863,
      "endTime": 177.22286133333324
    },
    {
      "instrumentId": 1,
      "instrumentName": "Piano\u0000",
      "isPercussion": false,
      "pitch": 53,
      "velocity": 96,
      "startTime": 177.13418945833325,
      "duration": 0.08867187499998863,
      "endTime": 177.22286133333324
    },
    {
      "instrumentId": 0,
      "instrumentName": "Piano\u0000",
      "isPercussion": false,
      "pitch": 77,
      "velocity": 96,
      "startTime": 177.22793945833325,
      "duration": 0.09335937500000568,
      "endTime": 177.32129883333326
    },
    {
      "instrumentId": 0,
      "instrumentName": "Piano\u0000",
      "isPercussion": false,
      "pitch": 75,
      "velocity": 96,
      "startTime": 177.32168945833325,
      "duration": 0.09335937500000568,
      "endTime": 177.41504883333326
    },
    {
      "instrumentId": 1,
      "instrumentName": "Piano\u0000",
      "isPercussion": false,
      "pitch": 43,
      "velocity": 96,
      "startTime": 177.32168945833325,
      "duration": 0.08867187499998863,
      "endTime": 177.41036133333324
    },
    {
      "instrumentId": 1,
      "instrumentName": "Piano\u0000",
      "isPercussion": false,
      "pitch": 55,
      "velocity": 96,
      "startTime": 177.32168945833325,
      "duration": 0.08867187499998863,
      "endTime": 177.41036133333324
    },
    {
      "instrumentId": 0,
      "instrumentName": "Piano\u0000",
      "isPercussion": false,
      "pitch": 73,
      "velocity": 96,
      "startTime": 177.41543945833325,
      "duration": 0.09335937500000568,
      "endTime": 177.50879883333326
    },
    {
      "instrumentId": 0,
      "instrumentName": "Piano\u0000",
      "isPercussion": false,
      "pitch": 72,
      "velocity": 96,
      "startTime": 177.50918945833325,
      "duration": 0.09335937500000568,
      "endTime": 177.60254883333326
    },
    {
      "instrumentId": 1,
      "instrumentName": "Piano\u0000",
      "isPercussion": false,
      "pitch": 45,
      "velocity": 96,
      "startTime": 177.50918945833325,
      "duration": 0.08867187499998863,
      "endTime": 177.59786133333324
    },
    {
      "instrumentId": 1,
      "instrumentName": "Piano\u0000",
      "isPercussion": false,
      "pitch": 57,
      "velocity": 96,
      "startTime": 177.50918945833325,
      "duration": 0.08867187499998863,
      "endTime": 177.59786133333324
    },
    {
      "instrumentId": 0,
      "instrumentName": "Piano\u0000",
      "isPercussion": false,
      "pitch": 70,
      "velocity": 96,
      "startTime": 177.60293945833325,
      "duration": 0.09335937500000568,
      "endTime": 177.69629883333326
    },
    {
      "instrumentId": 0,
      "instrumentName": "Piano\u0000",
      "isPercussion": false,
      "pitch": 69,
      "velocity": 96,
      "startTime": 177.69668945833325,
      "duration": 0.09335937500000568,
      "endTime": 177.79004883333326
    },
    {
      "instrumentId": 1,
      "instrumentName": "Piano\u0000",
      "isPercussion": false,
      "pitch": 41,
      "velocity": 96,
      "startTime": 177.69668945833325,
      "duration": 0.08867187499998863,
      "endTime": 177.78536133333324
    },
    {
      "instrumentId": 1,
      "instrumentName": "Piano\u0000",
      "isPercussion": false,
      "pitch": 53,
      "velocity": 96,
      "startTime": 177.69668945833325,
      "duration": 0.08867187499998863,
      "endTime": 177.78536133333324
    },
    {
      "instrumentId": 0,
      "instrumentName": "Piano\u0000",
      "isPercussion": false,
      "pitch": 72,
      "velocity": 96,
      "startTime": 177.79043945833325,
      "duration": 0.09335937500000568,
      "endTime": 177.88379883333326
    },
    {
      "instrumentId": 0,
      "instrumentName": "Piano\u0000",
      "isPercussion": false,
      "pitch": 70,
      "velocity": 96,
      "startTime": 177.88418945833325,
      "duration": 0.3558593749999943,
      "endTime": 178.24004883333325
    },
    {
      "instrumentId": 1,
      "instrumentName": "Piano\u0000",
      "isPercussion": false,
      "pitch": 46,
      "velocity": 96,
      "startTime": 177.88418945833325,
      "duration": 0.3558593749999943,
      "endTime": 178.24004883333325
    },
    {
      "instrumentId": 1,
      "instrumentName": "Piano\u0000",
      "isPercussion": false,
      "pitch": 58,
      "velocity": 96,
      "startTime": 177.88418945833325,
      "duration": 0.3558593749999943,
      "endTime": 178.24004883333325
    },
    {
      "instrumentId": 0,
      "instrumentName": "Piano\u0000",
      "isPercussion": false,
      "pitch": 73,
      "velocity": 96,
      "startTime": 178.25918945833325,
      "duration": 0.08867187499998863,
      "endTime": 178.34786133333324
    },
    {
      "instrumentId": 0,
      "instrumentName": "Piano\u0000",
      "isPercussion": false,
      "pitch": 77,
      "velocity": 96,
      "startTime": 178.25918945833325,
      "duration": 0.08867187499998863,
      "endTime": 178.34786133333324
    },
    {
      "instrumentId": 0,
      "instrumentName": "Piano\u0000",
      "isPercussion": false,
      "pitch": 82,
      "velocity": 96,
      "startTime": 178.25918945833325,
      "duration": 0.08867187499998863,
      "endTime": 178.34786133333324
    },
    {
      "instrumentId": 1,
      "instrumentName": "Piano\u0000",
      "isPercussion": false,
      "pitch": 34,
      "velocity": 96,
      "startTime": 178.25918945833325,
      "duration": 0.08867187499998863,
      "endTime": 178.34786133333324
    },
    {
      "instrumentId": 1,
      "instrumentName": "Piano\u0000",
      "isPercussion": false,
      "pitch": 46,
      "velocity": 96,
      "startTime": 178.25918945833325,
      "duration": 0.08867187499998863,
      "endTime": 178.34786133333324
    }
  ]
}