{
  "metadata": {
    "file": "Sleep Token - Ascensionism.mid",
    "duration": 106.66239049583334,
    "bpm": 58.50000146250004,
    "totalNotes": 347
  },
  "notes": [
    {
      "instrumentId": 0,
      "instrumentName": "Piano",
      "isPercussion": false,
      "pitch": 74,
      "velocity": 49,
      "startTime": 0.0,
      "duration": 0.5106837479166667,
      "endTime": 0.5106837479166667
    },
    {
      "instrumentId": 1,
      "instrumentName": "Piano",
      "isPercussion": false,
      "pitch": 36,
      "velocity": 49,
      "startTime": 0.0,
      "duration": 3.0747862479166668,
      "endTime": 3.0747862479166668
    },
    {
      "instrumentId": 1,
      "instrumentName": "Piano",
      "isPercussion": false,
      "pitch": 48,
      "velocity": 49,
      "startTime": 0.0,
      "duration": 3.0747862479166668,
      "endTime": 3.0747862479166668
    },
    {
      "instrumentId": 0,
      "instrumentName": "Piano",
      "isPercussion": false,
      "pitch": 75,
      "velocity": 49,
      "startTime": 0.5128205,
      "duration": 0.5106837479166667,
      "endTime": 1.0235042479166667
    },
    {
      "instrumentId": 0,
      "instrumentName": "Piano",
      "isPercussion": false,
      "pitch": 67,
      "velocity": 49,
      "startTime": 1.025641,
      "duration": 0.5106837479166666,
      "endTime": 1.5363247479166666
    },
    {
      "instrumentId": 0,
      "instrumentName": "Piano",
      "isPercussion": false,
      "pitch": 74,
      "velocity": 49,
      "startTime": 1.5384615,
      "duration": 0.5106837479166666,
      "endTime": 2.0491452479166665
    },
    {
      "instrumentId": 0,
      "instrumentName": "Piano",
      "isPercussion": false,
      "pitch": 75,
      "velocity": 49,
      "startTime": 2.051282,
      "duration": 0.5106837479166666,
      "endTime": 2.5619657479166666
    },
    {
      "instrumentId": 0,
      "instrumentName": "Piano",
      "isPercussion": false,
      "pitch": 67,
      "velocity": 49,
      "startTime": 2.5641025,
      "duration": 0.5106837479166666,
      "endTime": 3.0747862479166668
    },
    {
      "instrumentId": 0,
      "instrumentName": "Piano",
      "isPercussion": false,
      "pitch": 74,
      "velocity": 49,
      "startTime": 3.076923,
      "duration": 0.5106837479166666,
      "endTime": 3.5876067479166664
    },
    {
      "instrumentId": 1,
      "instrumentName": "Piano",
      "isPercussion": false,
      "pitch": 39,
      "velocity": 49,
      "startTime": 3.33333325,
      "duration": 0.7670939979166667,
      "endTime": 4.100427247916667
    },
    {
      "instrumentId": 1,
      "instrumentName": "Piano",
      "isPercussion": false,
      "pitch": 51,
      "velocity": 49,
      "startTime": 3.33333325,
      "duration": 0.7670939979166667,
      "endTime": 4.100427247916667
    },
    {
      "instrumentId": 0,
      "instrumentName": "Piano",
      "isPercussion": false,
      "pitch": 75,
      "velocity": 49,
      "startTime": 3.5897435,
      "duration": 0.5106837479166666,
      "endTime": 4.100427247916667
    },
    {
      "instrumentId": 0,
      "instrumentName": "Piano",
      "isPercussion": false,
      "pitch": 67,
      "velocity": 49,
      "startTime": 4.102564,
      "duration": 0.5106837479166666,
      "endTime": 4.613247747916667
    },
    {
      "instrumentId": 1,
      "instrumentName": "Piano",
      "isPercussion": false,
      "pitch": 32,
      "velocity": 49,
      "startTime": 4.102564,
      "duration": 3.0747862479166663,
      "endTime": 7.177350247916666
    },
    {
      "instrumentId": 1,
      "instrumentName": "Piano",
      "isPercussion": false,
      "pitch": 44,
      "velocity": 49,
      "startTime": 4.102564,
      "duration": 3.0747862479166663,
      "endTime": 7.177350247916666
    },
    {
      "instrumentId": 0,
      "instrumentName": "Piano",
      "isPercussion": false,
      "pitch": 74,
      "velocity": 49,
      "startTime": 4.6153845,
      "duration": 0.5106837479166666,
      "endTime": 5.126068247916667
    },
    {
      "instrumentId": 0,
      "instrumentName": "Piano",
      "isPercussion": false,
      "pitch": 75,
      "velocity": 49,
      "startTime": 5.128205,
      "duration": 0.5106837479166666,
      "endTime": 5.638888747916667
    },
    {
      "instrumentId": 0,
      "instrumentName": "Piano",
      "isPercussion": false,
      "pitch": 67,
      "velocity": 49,
      "startTime": 5.6410255,
      "duration": 0.5106837479166666,
      "endTime": 6.151709247916666
    },
    {
      "instrumentId": 0,
      "instrumentName": "Piano",
      "isPercussion": false,
      "pitch": 74,
      "velocity": 49,
      "startTime": 6.153846,
      "duration": 0.5106837479166666,
      "endTime": 6.664529747916666
    },
    {
      "instrumentId": 0,
      "instrumentName": "Piano",
      "isPercussion": false,
      "pitch": 75,
      "velocity": 49,
      "startTime": 6.6666665,
      "duration": 0.5106837479166666,
      "endTime": 7.177350247916666
    },
    {
      "instrumentId": 0,
      "instrumentName": "Piano",
      "isPercussion": false,
      "pitch": 67,
      "velocity": 49,
      "startTime": 7.179487,
      "duration": 0.5106837479166666,
      "endTime": 7.6901707479166665
    },
    {
      "instrumentId": 1,
      "instrumentName": "Piano",
      "isPercussion": false,
      "pitch": 39,
      "velocity": 49,
      "startTime": 7.43589725,
      "duration": 0.7670939979166658,
      "endTime": 8.202991247916666
    },
    {
      "instrumentId": 1,
      "instrumentName": "Piano",
      "isPercussion": false,
      "pitch": 51,
      "velocity": 49,
      "startTime": 7.43589725,
      "duration": 0.7670939979166658,
      "endTime": 8.202991247916666
    },
    {
      "instrumentId": 0,
      "instrumentName": "Piano",
      "isPercussion": false,
      "pitch": 74,
      "velocity": 49,
      "startTime": 7.6923075,
      "duration": 0.5106837479166657,
      "endTime": 8.202991247916666
    },
    {
      "instrumentId": 0,
      "instrumentName": "Piano",
      "isPercussion": false,
      "pitch": 75,
      "velocity": 49,
      "startTime": 8.205128,
      "duration": 0.5106837479166657,
      "endTime": 8.715811747916666
    },
    {
      "instrumentId": 1,
      "instrumentName": "Piano",
      "isPercussion": false,
      "pitch": 34,
      "velocity": 49,
      "startTime": 8.205128,
      "duration": 8.202991247916666,
      "endTime": 16.408119247916666
    },
    {
      "instrumentId": 1,
      "instrumentName": "Piano",
      "isPercussion": false,
      "pitch": 46,
      "velocity": 49,
      "startTime": 8.205128,
      "duration": 8.202991247916666,
      "endTime": 16.408119247916666
    },
    {
      "instrumentId": 0,
      "instrumentName": "Piano",
      "isPercussion": false,
      "pitch": 65,
      "velocity": 49,
      "startTime": 8.7179485,
      "duration": 0.5106837479166657,
      "endTime": 9.228632247916666
    },
    {
      "instrumentId": 0,
      "instrumentName": "Piano",
      "isPercussion": false,
      "pitch": 74,
      "velocity": 49,
      "startTime": 9.230769,
      "duration": 0.5106837479166657,
      "endTime": 9.741452747916666
    },
    {
      "instrumentId": 0,
      "instrumentName": "Piano",
      "isPercussion": false,
      "pitch": 75,
      "velocity": 49,
      "startTime": 9.7435895,
      "duration": 0.5106837479166657,
      "endTime": 10.254273247916666
    },
    {
      "instrumentId": 0,
      "instrumentName": "Piano",
      "isPercussion": false,
      "pitch": 65,
      "velocity": 49,
      "startTime": 10.25641,
      "duration": 0.5106837479166657,
      "endTime": 10.767093747916666
    },
    {
      "instrumentId": 0,
      "instrumentName": "Piano",
      "isPercussion": false,
      "pitch": 74,
      "velocity": 49,
      "startTime": 10.769230499999999,
      "duration": 0.5106837479166675,
      "endTime": 11.279914247916667
    },
    {
      "instrumentId": 0,
      "instrumentName": "Piano",
      "isPercussion": false,
      "pitch": 75,
      "velocity": 49,
      "startTime": 11.282051,
      "duration": 0.5106837479166675,
      "endTime": 11.792734747916667
    },
    {
      "instrumentId": 0,
      "instrumentName": "Piano",
      "isPercussion": false,
      "pitch": 65,
      "velocity": 49,
      "startTime": 11.7948715,
      "duration": 0.5106837479166675,
      "endTime": 12.305555247916667
    },
    {
      "instrumentId": 0,
      "instrumentName": "Piano",
      "isPercussion": false,
      "pitch": 74,
      "velocity": 49,
      "startTime": 12.307692,
      "duration": 0.5106837479166675,
      "endTime": 12.818375747916667
    },
    {
      "instrumentId": 0,
      "instrumentName": "Piano",
      "isPercussion": false,
      "pitch": 75,
      "velocity": 49,
      "startTime": 12.8205125,
      "duration": 0.5106837479166675,
      "endTime": 13.331196247916667
    },
    {
      "instrumentId": 0,
      "instrumentName": "Piano",
      "isPercussion": false,
      "pitch": 63,
      "velocity": 49,
      "startTime": 13.333333,
      "duration": 0.5106837479166675,
      "endTime": 13.844016747916667
    },
    {
      "instrumentId": 0,
      "instrumentName": "Piano",
      "isPercussion": false,
      "pitch": 74,
      "velocity": 49,
      "startTime": 13.8461535,
      "duration": 0.5106837479166675,
      "endTime": 14.356837247916667
    },
    {
      "instrumentId": 0,
      "instrumentName": "Piano",
      "isPercussion": false,
      "pitch": 75,
      "velocity": 49,
      "startTime": 14.358974,
      "duration": 0.5106837479166657,
      "endTime": 14.869657747916666
    },
    {
      "instrumentId": 0,
      "instrumentName": "Piano",
      "isPercussion": false,
      "pitch": 62,
      "velocity": 49,
      "startTime": 14.8717945,
      "duration": 0.5106837479166657,
      "endTime": 15.382478247916666
    },
    {
      "instrumentId": 0,
      "instrumentName": "Piano",
      "isPercussion": false,
      "pitch": 74,
      "velocity": 49,
      "startTime": 15.384615,
      "duration": 0.5106837479166657,
      "endTime": 15.895298747916666
    },
    {
      "instrumentId": 0,
      "instrumentName": "Piano",
      "isPercussion": false,
      "pitch": 75,
      "velocity": 49,
      "startTime": 15.8974355,
      "duration": 0.5106837479166657,
      "endTime": 16.408119247916666
    },
    {
      "instrumentId": 0,
      "instrumentName": "Piano",
      "isPercussion": false,
      "pitch": 60,
      "velocity": 49,
      "startTime": 16.410256,
      "duration": 0.5106837479166657,
      "endTime": 16.920939747916666
    },
    {
      "instrumentId": 0,
      "instrumentName": "Piano",
      "isPercussion": false,
      "pitch": 67,
      "velocity": 49,
      "startTime": 16.410256,
      "duration": 0.5106837479166657,
      "endTime": 16.920939747916666
    },
    {
      "instrumentId": 1,
      "instrumentName": "Piano",
      "isPercussion": false,
      "pitch": 36,
      "velocity": 49,
      "startTime": 16.410256,
      "duration": 3.0747862479166663,
      "endTime": 19.485042247916667
    },
    {
      "instrumentId": 1,
      "instrumentName": "Piano",
      "isPercussion": false,
      "pitch": 43,
      "velocity": 49,
      "startTime": 16.410256,
      "duration": 3.0747862479166663,
      "endTime": 19.485042247916667
    },
    {
      "instrumentId": 1,
      "instrumentName": "Piano",
      "isPercussion": false,
      "pitch": 48,
      "velocity": 49,
      "startTime": 16.410256,
      "duration": 3.0747862479166663,
      "endTime": 19.485042247916667
    },
    {
      "instrumentId": 0,
      "instrumentName": "Piano",
      "isPercussion": false,
      "pitch": 74,
      "velocity": 49,
      "startTime": 16.9230765,
      "duration": 0.5106837479166657,
      "endTime": 17.433760247916666
    },
    {
      "instrumentId": 0,
      "instrumentName": "Piano",
      "isPercussion": false,
      "pitch": 75,
      "velocity": 49,
      "startTime": 17.435897,
      "duration": 0.5106837479166657,
      "endTime": 17.946580747916666
    },
    {
      "instrumentId": 0,
      "instrumentName": "Piano",
      "isPercussion": false,
      "pitch": 67,
      "velocity": 49,
      "startTime": 17.9487175,
      "duration": 0.5106837479166657,
      "endTime": 18.459401247916666
    },
    {
      "instrumentId": 0,
      "instrumentName": "Piano",
      "isPercussion": false,
      "pitch": 74,
      "velocity": 49,
      "startTime": 18.461538,
      "duration": 0.5106837479166657,
      "endTime": 18.972221747916667
    },
    {
      "instrumentId": 0,
      "instrumentName": "Piano",
      "isPercussion": false,
      "pitch": 75,
      "velocity": 49,
      "startTime": 18.9743585,
      "duration": 0.5106837479166657,
      "endTime": 19.485042247916667
    },
    {
      "instrumentId": 0,
      "instrumentName": "Piano",
      "isPercussion": false,
      "pitch": 67,
      "velocity": 49,
      "startTime": 19.487179,
      "duration": 0.5106837479166657,
      "endTime": 19.997862747916667
    },
    {
      "instrumentId": 1,
      "instrumentName": "Piano",
      "isPercussion": false,
      "pitch": 39,
      "velocity": 49,
      "startTime": 19.74358925,
      "duration": 0.7670939979166675,
      "endTime": 20.510683247916667
    },
    {
      "instrumentId": 1,
      "instrumentName": "Piano",
      "isPercussion": false,
      "pitch": 46,
      "velocity": 49,
      "startTime": 19.74358925,
      "duration": 0.7670939979166675,
      "endTime": 20.510683247916667
    },
    {
      "instrumentId": 1,
      "instrumentName": "Piano",
      "isPercussion": false,
      "pitch": 51,
      "velocity": 49,
      "startTime": 19.74358925,
      "duration": 0.7670939979166675,
      "endTime": 20.510683247916667
    },
    {
      "instrumentId": 0,
      "instrumentName": "Piano",
      "isPercussion": false,
      "pitch": 74,
      "velocity": 49,
      "startTime": 19.9999995,
      "duration": 0.5106837479166657,
      "endTime": 20.510683247916667
    },
    {
      "instrumentId": 0,
      "instrumentName": "Piano",
      "isPercussion": false,
      "pitch": 75,
      "velocity": 49,
      "startTime": 20.51282,
      "duration": 0.5106837479166657,
      "endTime": 21.023503747916667
    },
    {
      "instrumentId": 1,
      "instrumentName": "Piano",
      "isPercussion": false,
      "pitch": 32,
      "velocity": 49,
      "startTime": 20.51282,
      "duration": 3.0747862479166663,
      "endTime": 23.587606247916668
    },
    {
      "instrumentId": 1,
      "instrumentName": "Piano",
      "isPercussion": false,
      "pitch": 39,
      "velocity": 49,
      "startTime": 20.51282,
      "duration": 3.0747862479166663,
      "endTime": 23.587606247916668
    },
    {
      "instrumentId": 1,
      "instrumentName": "Piano",
      "isPercussion": false,
      "pitch": 44,
      "velocity": 49,
      "startTime": 20.51282,
      "duration": 3.0747862479166663,
      "endTime": 23.587606247916668
    },
    {
      "instrumentId": 0,
      "instrumentName": "Piano",
      "isPercussion": false,
      "pitch": 67,
      "velocity": 49,
      "startTime": 21.025640499999998,
      "duration": 0.5106837479166693,
      "endTime": 21.536324247916667
    },
    {
      "instrumentId": 0,
      "instrumentName": "Piano",
      "isPercussion": false,
      "pitch": 74,
      "velocity": 49,
      "startTime": 21.538460999999998,
      "duration": 0.5106837479166693,
      "endTime": 22.049144747916667
    },
    {
      "instrumentId": 0,
      "instrumentName": "Piano",
      "isPercussion": false,
      "pitch": 75,
      "velocity": 49,
      "startTime": 22.051281499999998,
      "duration": 0.5106837479166693,
      "endTime": 22.561965247916667
    },
    {
      "instrumentId": 0,
      "instrumentName": "Piano",
      "isPercussion": false,
      "pitch": 67,
      "velocity": 49,
      "startTime": 22.564102,
      "duration": 0.5106837479166693,
      "endTime": 23.074785747916668
    },
    {
      "instrumentId": 0,
      "instrumentName": "Piano",
      "isPercussion": false,
      "pitch": 74,
      "velocity": 49,
      "startTime": 23.0769225,
      "duration": 0.5106837479166693,
      "endTime": 23.587606247916668
    },
    {
      "instrumentId": 0,
      "instrumentName": "Piano",
      "isPercussion": false,
      "pitch": 75,
      "velocity": 49,
      "startTime": 23.589743,
      "duration": 0.5106837479166693,
      "endTime": 24.100426747916668
    },
    {
      "instrumentId": 1,
      "instrumentName": "Piano",
      "isPercussion": false,
      "pitch": 39,
      "velocity": 49,
      "startTime": 23.84615325,
      "duration": 0.7670939979166675,
      "endTime": 24.613247247916668
    },
    {
      "instrumentId": 1,
      "instrumentName": "Piano",
      "isPercussion": false,
      "pitch": 46,
      "velocity": 49,
      "startTime": 23.84615325,
      "duration": 0.7670939979166675,
      "endTime": 24.613247247916668
    },
    {
      "instrumentId": 1,
      "instrumentName": "Piano",
      "isPercussion": false,
      "pitch": 51,
      "velocity": 49,
      "startTime": 23.84615325,
      "duration": 0.7670939979166675,
      "endTime": 24.613247247916668
    },
    {
      "instrumentId": 0,
      "instrumentName": "Piano",
      "isPercussion": false,
      "pitch": 67,
      "velocity": 49,
      "startTime": 24.1025635,
      "duration": 0.5106837479166693,
      "endTime": 24.613247247916668
    },
    {
      "instrumentId": 0,
      "instrumentName": "Piano",
      "isPercussion": false,
      "pitch": 74,
      "velocity": 49,
      "startTime": 24.615384,
      "duration": 0.5106837479166657,
      "endTime": 25.126067747916665
    },
    {
      "instrumentId": 1,
      "instrumentName": "Piano",
      "isPercussion": false,
      "pitch": 34,
      "velocity": 49,
      "startTime": 24.615384,
      "duration": 8.202991247916664,
      "endTime": 32.81837524791666
    },
    {
      "instrumentId": 1,
      "instrumentName": "Piano",
      "isPercussion": false,
      "pitch": 41,
      "velocity": 49,
      "startTime": 24.615384,
      "duration": 8.202991247916664,
      "endTime": 32.81837524791666
    },
    {
      "instrumentId": 1,
      "instrumentName": "Piano",
      "isPercussion": false,
      "pitch": 46,
      "velocity": 49,
      "startTime": 24.615384,
      "duration": 8.202991247916664,
      "endTime": 32.81837524791666
    },
    {
      "instrumentId": 0,
      "instrumentName": "Piano",
      "isPercussion": false,
      "pitch": 75,
      "velocity": 49,
      "startTime": 25.1282045,
      "duration": 0.5106837479166657,
      "endTime": 25.638888247916665
    },
    {
      "instrumentId": 0,
      "instrumentName": "Piano",
      "isPercussion": false,
      "pitch": 65,
      "velocity": 49,
      "startTime": 25.641025,
      "duration": 0.5106837479166657,
      "endTime": 26.151708747916665
    },
    {
      "instrumentId": 0,
      "instrumentName": "Piano",
      "isPercussion": false,
      "pitch": 74,
      "velocity": 49,
      "startTime": 26.1538455,
      "duration": 0.5106837479166657,
      "endTime": 26.664529247916665
    },
    {
      "instrumentId": 0,
      "instrumentName": "Piano",
      "isPercussion": false,
      "pitch": 75,
      "velocity": 49,
      "startTime": 26.666666,
      "duration": 0.5106837479166657,
      "endTime": 27.177349747916665
    },
    {
      "instrumentId": 0,
      "instrumentName": "Piano",
      "isPercussion": false,
      "pitch": 65,
      "velocity": 49,
      "startTime": 27.1794865,
      "duration": 0.5106837479166657,
      "endTime": 27.690170247916665
    },
    {
      "instrumentId": 0,
      "instrumentName": "Piano",
      "isPercussion": false,
      "pitch": 74,
      "velocity": 49,
      "startTime": 27.692307,
      "duration": 0.5106837479166657,
      "endTime": 28.202990747916665
    },
    {
      "instrumentId": 0,
      "instrumentName": "Piano",
      "isPercussion": false,
      "pitch": 75,
      "velocity": 49,
      "startTime": 28.2051275,
      "duration": 0.5106837479166657,
      "endTime": 28.715811247916665
    },
    {
      "instrumentId": 0,
      "instrumentName": "Piano",
      "isPercussion": false,
      "pitch": 63,
      "velocity": 49,
      "startTime": 28.717948,
      "duration": 0.5106837479166657,
      "endTime": 29.228631747916666
    },
    {
      "instrumentId": 0,
      "instrumentName": "Piano",
      "isPercussion": false,
      "pitch": 74,
      "velocity": 49,
      "startTime": 29.2307685,
      "duration": 0.5106837479166657,
      "endTime": 29.741452247916666
    },
    {
      "instrumentId": 0,
      "instrumentName": "Piano",
      "isPercussion": false,
      "pitch": 75,
      "velocity": 49,
      "startTime": 29.743589,
      "duration": 0.5106837479166657,
      "endTime": 30.254272747916666
    },
    {
      "instrumentId": 0,
      "instrumentName": "Piano",
      "isPercussion": false,
      "pitch": 62,
      "velocity": 49,
      "startTime": 30.2564095,
      "duration": 0.5106837479166657,
      "endTime": 30.767093247916666
    },
    {
      "instrumentId": 0,
      "instrumentName": "Piano",
      "isPercussion": false,
      "pitch": 74,
      "velocity": 49,
      "startTime": 30.76923,
      "duration": 0.5106837479166657,
      "endTime": 31.279913747916666
    },
    {
      "instrumentId": 0,
      "instrumentName": "Piano",
      "isPercussion": false,
      "pitch": 75,
      "velocity": 49,
      "startTime": 31.2820505,
      "duration": 0.5106837479166657,
      "endTime": 31.792734247916666
    },
    {
      "instrumentId": 0,
      "instrumentName": "Piano",
      "isPercussion": false,
      "pitch": 63,
      "velocity": 49,
      "startTime": 31.794871,
      "duration": 0.5106837479166657,
      "endTime": 32.305554747916666
    },
    {
      "instrumentId": 0,
      "instrumentName": "Piano",
      "isPercussion": false,
      "pitch": 70,
      "velocity": 49,
      "startTime": 32.3076915,
      "duration": 0.5106837479166657,
      "endTime": 32.81837524791666
    },
    {
      "instrumentId": 0,
      "instrumentName": "Piano",
      "isPercussion": false,
      "pitch": 67,
      "velocity": 64,
      "startTime": 32.820512,
      "duration": 0.5106837479166657,
      "endTime": 33.33119574791667
    },
    {
      "instrumentId": 0,
      "instrumentName": "Piano",
      "isPercussion": false,
      "pitch": 74,
      "velocity": 64,
      "startTime": 32.820512,
      "duration": 0.5106837479166657,
      "endTime": 33.33119574791667
    },
    {
      "instrumentId": 1,
      "instrumentName": "Piano",
      "isPercussion": false,
      "pitch": 36,
      "velocity": 64,
      "startTime": 32.820512,
      "duration": 3.0747862479166628,
      "endTime": 35.895298247916664
    },
    {
      "instrumentId": 1,
      "instrumentName": "Piano",
      "isPercussion": false,
      "pitch": 48,
      "velocity": 64,
      "startTime": 32.820512,
      "duration": 3.0747862479166628,
      "endTime": 35.895298247916664
    },
    {
      "instrumentId": 0,
      "instrumentName": "Piano",
      "isPercussion": false,
      "pitch": 75,
      "velocity": 64,
      "startTime": 33.3333325,
      "duration": 0.5106837479166657,
      "endTime": 33.84401624791666
    },
    {
      "instrumentId": 0,
      "instrumentName": "Piano",
      "isPercussion": false,
      "pitch": 67,
      "velocity": 64,
      "startTime": 33.846153,
      "duration": 0.5106837479166657,
      "endTime": 34.35683674791667
    },
    {
      "instrumentId": 0,
      "instrumentName": "Piano",
      "isPercussion": false,
      "pitch": 74,
      "velocity": 64,
      "startTime": 34.3589735,
      "duration": 0.5106837479166657,
      "endTime": 34.86965724791666
    },
    {
      "instrumentId": 0,
      "instrumentName": "Piano",
      "isPercussion": false,
      "pitch": 75,
      "velocity": 64,
      "startTime": 34.871794,
      "duration": 0.5106837479166657,
      "endTime": 35.38247774791667
    },
    {
      "instrumentId": 0,
      "instrumentName": "Piano",
      "isPercussion": false,
      "pitch": 67,
      "velocity": 64,
      "startTime": 35.3846145,
      "duration": 0.5106837479166657,
      "endTime": 35.895298247916664
    },
    {
      "instrumentId": 0,
      "instrumentName": "Piano",
      "isPercussion": false,
      "pitch": 74,
      "velocity": 64,
      "startTime": 35.897435,
      "duration": 0.5106837479166657,
      "endTime": 36.40811874791667
    },
    {
      "instrumentId": 1,
      "instrumentName": "Piano",
      "isPercussion": false,
      "pitch": 39,
      "velocity": 64,
      "startTime": 36.153845249999996,
      "duration": 0.7670939979166675,
      "endTime": 36.920939247916664
    },
    {
      "instrumentId": 1,
      "instrumentName": "Piano",
      "isPercussion": false,
      "pitch": 51,
      "velocity": 64,
      "startTime": 36.153845249999996,
      "duration": 0.7670939979166675,
      "endTime": 36.920939247916664
    },
    {
      "instrumentId": 0,
      "instrumentName": "Piano",
      "isPercussion": false,
      "pitch": 75,
      "velocity": 64,
      "startTime": 36.4102555,
      "duration": 0.5106837479166657,
      "endTime": 36.920939247916664
    },
    {
      "instrumentId": 0,
      "instrumentName": "Piano",
      "isPercussion": false,
      "pitch": 60,
      "velocity": 64,
      "startTime": 36.923076,
      "duration": 0.5106837479166657,
      "endTime": 37.43375974791667
    },
    {
      "instrumentId": 0,
      "instrumentName": "Piano",
      "isPercussion": false,
      "pitch": 67,
      "velocity": 64,
      "startTime": 36.923076,
      "duration": 0.5106837479166657,
      "endTime": 37.43375974791667
    },
    {
      "instrumentId": 1,
      "instrumentName": "Piano",
      "isPercussion": false,
      "pitch": 32,
      "velocity": 64,
      "startTime": 36.923076,
      "duration": 3.0747862479166628,
      "endTime": 39.997862247916665
    },
    {
      "instrumentId": 1,
      "instrumentName": "Piano",
      "isPercussion": false,
      "pitch": 44,
      "velocity": 64,
      "startTime": 36.923076,
      "duration": 3.0747862479166628,
      "endTime": 39.997862247916665
    },
    {
      "instrumentId": 0,
      "instrumentName": "Piano",
      "isPercussion": false,
      "pitch": 74,
      "velocity": 64,
      "startTime": 37.4358965,
      "duration": 0.5106837479166657,
      "endTime": 37.946580247916664
    },
    {
      "instrumentId": 0,
      "instrumentName": "Piano",
      "isPercussion": false,
      "pitch": 75,
      "velocity": 64,
      "startTime": 37.948717,
      "duration": 0.5106837479166657,
      "endTime": 38.45940074791667
    },
    {
      "instrumentId": 0,
      "instrumentName": "Piano",
      "isPercussion": false,
      "pitch": 67,
      "velocity": 64,
      "startTime": 38.4615375,
      "duration": 0.5106837479166657,
      "endTime": 38.972221247916664
    },
    {
      "instrumentId": 0,
      "instrumentName": "Piano",
      "isPercussion": false,
      "pitch": 74,
      "velocity": 64,
      "startTime": 38.974358,
      "duration": 0.5106837479166657,
      "endTime": 39.48504174791667
    },
    {
      "instrumentId": 0,
      "instrumentName": "Piano",
      "isPercussion": false,
      "pitch": 75,
      "velocity": 64,
      "startTime": 39.4871785,
      "duration": 0.5106837479166657,
      "endTime": 39.997862247916665
    },
    {
      "instrumentId": 0,
      "instrumentName": "Piano",
      "isPercussion": false,
      "pitch": 67,
      "velocity": 64,
      "startTime": 39.999999,
      "duration": 0.5106837479166657,
      "endTime": 40.51068274791667
    },
    {
      "instrumentId": 1,
      "instrumentName": "Piano",
      "isPercussion": false,
      "pitch": 39,
      "velocity": 64,
      "startTime": 40.25640925,
      "duration": 0.7670939979166675,
      "endTime": 41.023503247916665
    },
    {
      "instrumentId": 1,
      "instrumentName": "Piano",
      "isPercussion": false,
      "pitch": 51,
      "velocity": 64,
      "startTime": 40.25640925,
      "duration": 0.7670939979166675,
      "endTime": 41.023503247916665
    },
    {
      "instrumentId": 0,
      "instrumentName": "Piano",
      "isPercussion": false,
      "pitch": 74,
      "velocity": 64,
      "startTime": 40.5128195,
      "duration": 0.5106837479166657,
      "endTime": 41.023503247916665
    },
    {
      "instrumentId": 0,
      "instrumentName": "Piano",
      "isPercussion": false,
      "pitch": 70,
      "velocity": 64,
      "startTime": 41.02564,
      "duration": 0.5106837479166657,
      "endTime": 41.53632374791667
    },
    {
      "instrumentId": 0,
      "instrumentName": "Piano",
      "isPercussion": false,
      "pitch": 75,
      "velocity": 64,
      "startTime": 41.02564,
      "duration": 0.5106837479166657,
      "endTime": 41.53632374791667
    },
    {
      "instrumentId": 1,
      "instrumentName": "Piano",
      "isPercussion": false,
      "pitch": 34,
      "velocity": 64,
      "startTime": 41.02564,
      "duration": 8.202991247916664,
      "endTime": 49.22863124791667
    },
    {
      "instrumentId": 1,
      "instrumentName": "Piano",
      "isPercussion": false,
      "pitch": 46,
      "velocity": 64,
      "startTime": 41.02564,
      "duration": 8.202991247916664,
      "endTime": 49.22863124791667
    },
    {
      "instrumentId": 0,
      "instrumentName": "Piano",
      "isPercussion": false,
      "pitch": 65,
      "velocity": 64,
      "startTime": 41.5384605,
      "duration": 0.5106837479166657,
      "endTime": 42.049144247916665
    },
    {
      "instrumentId": 0,
      "instrumentName": "Piano",
      "isPercussion": false,
      "pitch": 74,
      "velocity": 64,
      "startTime": 42.051280999999996,
      "duration": 0.5106837479166728,
      "endTime": 42.56196474791667
    },
    {
      "instrumentId": 0,
      "instrumentName": "Piano",
      "isPercussion": false,
      "pitch": 75,
      "velocity": 64,
      "startTime": 42.5641015,
      "duration": 0.5106837479166657,
      "endTime": 43.074785247916665
    },
    {
      "instrumentId": 0,
      "instrumentName": "Piano",
      "isPercussion": false,
      "pitch": 65,
      "velocity": 64,
      "startTime": 43.076921999999996,
      "duration": 0.5106837479166728,
      "endTime": 43.58760574791667
    },
    {
      "instrumentId": 0,
      "instrumentName": "Piano",
      "isPercussion": false,
      "pitch": 74,
      "velocity": 64,
      "startTime": 43.5897425,
      "duration": 0.5106837479166657,
      "endTime": 44.100426247916666
    },
    {
      "instrumentId": 0,
      "instrumentName": "Piano",
      "isPercussion": false,
      "pitch": 75,
      "velocity": 64,
      "startTime": 44.102562999999996,
      "duration": 0.5106837479166728,
      "endTime": 44.61324674791667
    },
    {
      "instrumentId": 0,
      "instrumentName": "Piano",
      "isPercussion": false,
      "pitch": 65,
      "velocity": 64,
      "startTime": 44.6153835,
      "duration": 0.5106837479166657,
      "endTime": 45.126067247916666
    },
    {
      "instrumentId": 0,
      "instrumentName": "Piano",
      "isPercussion": false,
      "pitch": 74,
      "velocity": 64,
      "startTime": 45.128204,
      "duration": 0.5106837479166728,
      "endTime": 45.63888774791667
    },
    {
      "instrumentId": 0,
      "instrumentName": "Piano",
      "isPercussion": false,
      "pitch": 75,
      "velocity": 64,
      "startTime": 45.6410245,
      "duration": 0.5106837479166657,
      "endTime": 46.151708247916666
    },
    {
      "instrumentId": 0,
      "instrumentName": "Piano",
      "isPercussion": false,
      "pitch": 63,
      "velocity": 64,
      "startTime": 46.153845,
      "duration": 0.5106837479166657,
      "endTime": 46.66452874791666
    },
    {
      "instrumentId": 0,
      "instrumentName": "Piano",
      "isPercussion": false,
      "pitch": 74,
      "velocity": 64,
      "startTime": 46.6666655,
      "duration": 0.5106837479166657,
      "endTime": 47.177349247916666
    },
    {
      "instrumentId": 0,
      "instrumentName": "Piano",
      "isPercussion": false,
      "pitch": 75,
      "velocity": 64,
      "startTime": 47.179486,
      "duration": 0.5106837479166657,
      "endTime": 47.69016974791666
    },
    {
      "instrumentId": 0,
      "instrumentName": "Piano",
      "isPercussion": false,
      "pitch": 62,
      "velocity": 64,
      "startTime": 47.6923065,
      "duration": 0.5106837479166657,
      "endTime": 48.20299024791667
    },
    {
      "instrumentId": 0,
      "instrumentName": "Piano",
      "isPercussion": false,
      "pitch": 74,
      "velocity": 64,
      "startTime": 48.205127,
      "duration": 0.5106837479166657,
      "endTime": 48.71581074791666
    },
    {
      "instrumentId": 0,
      "instrumentName": "Piano",
      "isPercussion": false,
      "pitch": 75,
      "velocity": 64,
      "startTime": 48.7179475,
      "duration": 0.5106837479166657,
      "endTime": 49.22863124791667
    },
    {
      "instrumentId": 0,
      "instrumentName": "Piano",
      "isPercussion": false,
      "pitch": 79,
      "velocity": 64,
      "startTime": 49.230768,
      "duration": 0.5106837479166657,
      "endTime": 49.74145174791666
    },
    {
      "instrumentId": 0,
      "instrumentName": "Piano",
      "isPercussion": false,
      "pitch": 91,
      "velocity": 64,
      "startTime": 49.230768,
      "duration": 0.5106837479166657,
      "endTime": 49.74145174791666
    },
    {
      "instrumentId": 1,
      "instrumentName": "Piano",
      "isPercussion": false,
      "pitch": 36,
      "velocity": 64,
      "startTime": 49.230768,
      "duration": 3.07478624791667,
      "endTime": 52.30555424791667
    },
    {
      "instrumentId": 1,
      "instrumentName": "Piano",
      "isPercussion": false,
      "pitch": 43,
      "velocity": 64,
      "startTime": 49.230768,
      "duration": 3.07478624791667,
      "endTime": 52.30555424791667
    },
    {
      "instrumentId": 1,
      "instrumentName": "Piano",
      "isPercussion": false,
      "pitch": 48,
      "velocity": 64,
      "startTime": 49.230768,
      "duration": 3.07478624791667,
      "endTime": 52.30555424791667
    },
    {
      "instrumentId": 0,
      "instrumentName": "Piano",
      "isPercussion": false,
      "pitch": 74,
      "velocity": 64,
      "startTime": 49.7435885,
      "duration": 0.5106837479166657,
      "endTime": 50.25427224791667
    },
    {
      "instrumentId": 0,
      "instrumentName": "Piano",
      "isPercussion": false,
      "pitch": 75,
      "velocity": 64,
      "startTime": 50.256409,
      "duration": 0.5106837479166657,
      "endTime": 50.767092747916664
    },
    {
      "instrumentId": 0,
      "instrumentName": "Piano",
      "isPercussion": false,
      "pitch": 67,
      "velocity": 64,
      "startTime": 50.7692295,
      "duration": 0.5106837479166657,
      "endTime": 51.27991324791667
    },
    {
      "instrumentId": 0,
      "instrumentName": "Piano",
      "isPercussion": false,
      "pitch": 74,
      "velocity": 64,
      "startTime": 51.28205,
      "duration": 0.5106837479166657,
      "endTime": 51.792733747916664
    },
    {
      "instrumentId": 0,
      "instrumentName": "Piano",
      "isPercussion": false,
      "pitch": 75,
      "velocity": 64,
      "startTime": 51.7948705,
      "duration": 0.5106837479166657,
      "endTime": 52.30555424791667
    },
    {
      "instrumentId": 0,
      "instrumentName": "Piano",
      "isPercussion": false,
      "pitch": 67,
      "velocity": 64,
      "startTime": 52.307691,
      "duration": 0.5106837479166657,
      "endTime": 52.818374747916664
    },
    {
      "instrumentId": 1,
      "instrumentName": "Piano",
      "isPercussion": false,
      "pitch": 39,
      "velocity": 64,
      "startTime": 52.56410125,
      "duration": 0.7670939979166675,
      "endTime": 53.33119524791667
    },
    {
      "instrumentId": 1,
      "instrumentName": "Piano",
      "isPercussion": false,
      "pitch": 46,
      "velocity": 64,
      "startTime": 52.56410125,
      "duration": 0.7670939979166675,
      "endTime": 53.33119524791667
    },
    {
      "instrumentId": 1,
      "instrumentName": "Piano",
      "isPercussion": false,
      "pitch": 51,
      "velocity": 64,
      "startTime": 52.56410125,
      "duration": 0.7670939979166675,
      "endTime": 53.33119524791667
    },
    {
      "instrumentId": 0,
      "instrumentName": "Piano",
      "isPercussion": false,
      "pitch": 74,
      "velocity": 64,
      "startTime": 52.8205115,
      "duration": 0.5106837479166657,
      "endTime": 53.33119524791667
    },
    {
      "instrumentId": 0,
      "instrumentName": "Piano",
      "isPercussion": false,
      "pitch": 68,
      "velocity": 64,
      "startTime": 53.333332,
      "duration": 0.5106837479166657,
      "endTime": 53.844015747916664
    },
    {
      "instrumentId": 0,
      "instrumentName": "Piano",
      "isPercussion": false,
      "pitch": 75,
      "velocity": 64,
      "startTime": 53.333332,
      "duration": 0.5106837479166657,
      "endTime": 53.844015747916664
    },
    {
      "instrumentId": 1,
      "instrumentName": "Piano",
      "isPercussion": false,
      "pitch": 32,
      "velocity": 64,
      "startTime": 53.333332,
      "duration": 3.07478624791667,
      "endTime": 56.40811824791667
    },
    {
      "instrumentId": 1,
      "instrumentName": "Piano",
      "isPercussion": false,
      "pitch": 39,
      "velocity": 64,
      "startTime": 53.333332,
      "duration": 3.07478624791667,
      "endTime": 56.40811824791667
    },
    {
      "instrumentId": 1,
      "instrumentName": "Piano",
      "isPercussion": false,
      "pitch": 44,
      "velocity": 64,
      "startTime": 53.333332,
      "duration": 3.07478624791667,
      "endTime": 56.40811824791667
    },
    {
      "instrumentId": 0,
      "instrumentName": "Piano",
      "isPercussion": false,
      "pitch": 67,
      "velocity": 64,
      "startTime": 53.8461525,
      "duration": 0.5106837479166657,
      "endTime": 54.35683624791667
    },
    {
      "instrumentId": 0,
      "instrumentName": "Piano",
      "isPercussion": false,
      "pitch": 74,
      "velocity": 64,
      "startTime": 54.358973,
      "duration": 0.5106837479166657,
      "endTime": 54.869656747916665
    },
    {
      "instrumentId": 0,
      "instrumentName": "Piano",
      "isPercussion": false,
      "pitch": 75,
      "velocity": 64,
      "startTime": 54.8717935,
      "duration": 0.5106837479166657,
      "endTime": 55.38247724791667
    },
    {
      "instrumentId": 0,
      "instrumentName": "Piano",
      "isPercussion": false,
      "pitch": 67,
      "velocity": 64,
      "startTime": 55.384614,
      "duration": 0.5106837479166657,
      "endTime": 55.895297747916665
    },
    {
      "instrumentId": 0,
      "instrumentName": "Piano",
      "isPercussion": false,
      "pitch": 74,
      "velocity": 64,
      "startTime": 55.897434499999996,
      "duration": 0.5106837479166728,
      "endTime": 56.40811824791667
    },
    {
      "instrumentId": 0,
      "instrumentName": "Piano",
      "isPercussion": false,
      "pitch": 75,
      "velocity": 64,
      "startTime": 56.410255,
      "duration": 0.5106837479166657,
      "endTime": 56.920938747916665
    },
    {
      "instrumentId": 1,
      "instrumentName": "Piano",
      "isPercussion": false,
      "pitch": 39,
      "velocity": 64,
      "startTime": 56.66666525,
      "duration": 0.7670939979166675,
      "endTime": 57.43375924791667
    },
    {
      "instrumentId": 1,
      "instrumentName": "Piano",
      "isPercussion": false,
      "pitch": 46,
      "velocity": 64,
      "startTime": 56.66666525,
      "duration": 0.7670939979166675,
      "endTime": 57.43375924791667
    },
    {
      "instrumentId": 1,
      "instrumentName": "Piano",
      "isPercussion": false,
      "pitch": 51,
      "velocity": 64,
      "startTime": 56.66666525,
      "duration": 0.7670939979166675,
      "endTime": 57.43375924791667
    },
    {
      "instrumentId": 0,
      "instrumentName": "Piano",
      "isPercussion": false,
      "pitch": 67,
      "velocity": 64,
      "startTime": 56.923075499999996,
      "duration": 0.5106837479166728,
      "endTime": 57.43375924791667
    },
    {
      "instrumentId": 0,
      "instrumentName": "Piano",
      "isPercussion": false,
      "pitch": 65,
      "velocity": 64,
      "startTime": 57.435896,
      "duration": 0.5106837479166657,
      "endTime": 57.946579747916665
    },
    {
      "instrumentId": 0,
      "instrumentName": "Piano",
      "isPercussion": false,
      "pitch": 74,
      "velocity": 64,
      "startTime": 57.435896,
      "duration": 0.5106837479166657,
      "endTime": 57.946579747916665
    },
    {
      "instrumentId": 1,
      "instrumentName": "Piano",
      "isPercussion": false,
      "pitch": 34,
      "velocity": 64,
      "startTime": 57.435896,
      "duration": 8.202991247916671,
      "endTime": 65.63888724791667
    },
    {
      "instrumentId": 1,
      "instrumentName": "Piano",
      "isPercussion": false,
      "pitch": 41,
      "velocity": 64,
      "startTime": 57.435896,
      "duration": 8.202991247916671,
      "endTime": 65.63888724791667
    },
    {
      "instrumentId": 1,
      "instrumentName": "Piano",
      "isPercussion": false,
      "pitch": 46,
      "velocity": 64,
      "startTime": 57.435896,
      "duration": 8.202991247916671,
      "endTime": 65.63888724791667
    },
    {
      "instrumentId": 0,
      "instrumentName": "Piano",
      "isPercussion": false,
      "pitch": 75,
      "velocity": 64,
      "startTime": 57.948716499999996,
      "duration": 0.5106837479166728,
      "endTime": 58.45940024791667
    },
    {
      "instrumentId": 0,
      "instrumentName": "Piano",
      "isPercussion": false,
      "pitch": 65,
      "velocity": 64,
      "startTime": 58.461537,
      "duration": 0.5106837479166657,
      "endTime": 58.972220747916666
    },
    {
      "instrumentId": 0,
      "instrumentName": "Piano",
      "isPercussion": false,
      "pitch": 74,
      "velocity": 64,
      "startTime": 58.974357499999996,
      "duration": 0.5106837479166657,
      "endTime": 59.48504124791666
    },
    {
      "instrumentId": 0,
      "instrumentName": "Piano",
      "isPercussion": false,
      "pitch": 75,
      "velocity": 64,
      "startTime": 59.487178,
      "duration": 0.5106837479166657,
      "endTime": 59.997861747916666
    },
    {
      "instrumentId": 0,
      "instrumentName": "Piano",
      "isPercussion": false,
      "pitch": 65,
      "velocity": 64,
      "startTime": 59.9999985,
      "duration": 0.5106837479166657,
      "endTime": 60.51068224791666
    },
    {
      "instrumentId": 0,
      "instrumentName": "Piano",
      "isPercussion": false,
      "pitch": 74,
      "velocity": 64,
      "startTime": 60.512819,
      "duration": 0.5106837479166657,
      "endTime": 61.023502747916666
    },
    {
      "instrumentId": 0,
      "instrumentName": "Piano",
      "isPercussion": false,
      "pitch": 75,
      "velocity": 64,
      "startTime": 61.0256395,
      "duration": 0.5106837479166657,
      "endTime": 61.53632324791666
    },
    {
      "instrumentId": 0,
      "instrumentName": "Piano",
      "isPercussion": false,
      "pitch": 63,
      "velocity": 64,
      "startTime": 61.53846,
      "duration": 0.5106837479166657,
      "endTime": 62.049143747916666
    },
    {
      "instrumentId": 0,
      "instrumentName": "Piano",
      "isPercussion": false,
      "pitch": 74,
      "velocity": 64,
      "startTime": 62.0512805,
      "duration": 0.5106837479166657,
      "endTime": 62.56196424791666
    },
    {
      "instrumentId": 0,
      "instrumentName": "Piano",
      "isPercussion": false,
      "pitch": 75,
      "velocity": 64,
      "startTime": 62.564101,
      "duration": 0.5106837479166657,
      "endTime": 63.07478474791667
    },
    {
      "instrumentId": 0,
      "instrumentName": "Piano",
      "isPercussion": false,
      "pitch": 62,
      "velocity": 64,
      "startTime": 63.0769215,
      "duration": 0.5106837479166657,
      "endTime": 63.58760524791666
    },
    {
      "instrumentId": 0,
      "instrumentName": "Piano",
      "isPercussion": false,
      "pitch": 74,
      "velocity": 64,
      "startTime": 63.589742,
      "duration": 0.5106837479166586,
      "endTime": 64.10042574791666
    },
    {
      "instrumentId": 0,
      "instrumentName": "Piano",
      "isPercussion": false,
      "pitch": 75,
      "velocity": 64,
      "startTime": 64.1025625,
      "duration": 0.5106837479166586,
      "endTime": 64.61324624791666
    },
    {
      "instrumentId": 0,
      "instrumentName": "Piano",
      "isPercussion": false,
      "pitch": 63,
      "velocity": 64,
      "startTime": 64.615383,
      "duration": 1.0235042479166765,
      "endTime": 65.63888724791667
    },
    {
      "instrumentId": 0,
      "instrumentName": "Piano",
      "isPercussion": false,
      "pitch": 70,
      "velocity": 64,
      "startTime": 65.1282035,
      "duration": 0.5106837479166728,
      "endTime": 65.63888724791667
    },
    {
      "instrumentId": 0,
      "instrumentName": "Piano",
      "isPercussion": false,
      "pitch": 75,
      "velocity": 80,
      "startTime": 65.641024,
      "duration": 0.5106837479166586,
      "endTime": 66.15170774791666
    },
    {
      "instrumentId": 0,
      "instrumentName": "Piano",
      "isPercussion": false,
      "pitch": 87,
      "velocity": 80,
      "startTime": 65.641024,
      "duration": 0.5106837479166586,
      "endTime": 66.15170774791666
    },
    {
      "instrumentId": 1,
      "instrumentName": "Piano",
      "isPercussion": false,
      "pitch": 36,
      "velocity": 80,
      "startTime": 65.641024,
      "duration": 4.10042724791667,
      "endTime": 69.74145124791667
    },
    {
      "instrumentId": 1,
      "instrumentName": "Piano",
      "isPercussion": false,
      "pitch": 43,
      "velocity": 80,
      "startTime": 65.641024,
      "duration": 4.10042724791667,
      "endTime": 69.74145124791667
    },
    {
      "instrumentId": 1,
      "instrumentName": "Piano",
      "isPercussion": false,
      "pitch": 48,
      "velocity": 80,
      "startTime": 65.641024,
      "duration": 4.10042724791667,
      "endTime": 69.74145124791667
    },
    {
      "instrumentId": 0,
      "instrumentName": "Piano",
      "isPercussion": false,
      "pitch": 67,
      "velocity": 80,
      "startTime": 66.1538445,
      "duration": 0.5106837479166586,
      "endTime": 66.66452824791666
    },
    {
      "instrumentId": 0,
      "instrumentName": "Piano",
      "isPercussion": false,
      "pitch": 79,
      "velocity": 80,
      "startTime": 66.1538445,
      "duration": 0.5106837479166586,
      "endTime": 66.66452824791666
    },
    {
      "instrumentId": 0,
      "instrumentName": "Piano",
      "isPercussion": false,
      "pitch": 74,
      "velocity": 80,
      "startTime": 66.666665,
      "duration": 0.5106837479166728,
      "endTime": 67.17734874791667
    },
    {
      "instrumentId": 0,
      "instrumentName": "Piano",
      "isPercussion": false,
      "pitch": 86,
      "velocity": 80,
      "startTime": 66.666665,
      "duration": 0.5106837479166728,
      "endTime": 67.17734874791667
    },
    {
      "instrumentId": 0,
      "instrumentName": "Piano",
      "isPercussion": false,
      "pitch": 75,
      "velocity": 80,
      "startTime": 67.1794855,
      "duration": 0.5106837479166728,
      "endTime": 67.69016924791667
    },
    {
      "instrumentId": 0,
      "instrumentName": "Piano",
      "isPercussion": false,
      "pitch": 87,
      "velocity": 80,
      "startTime": 67.1794855,
      "duration": 0.5106837479166728,
      "endTime": 67.69016924791667
    },
    {
      "instrumentId": 0,
      "instrumentName": "Piano",
      "isPercussion": false,
      "pitch": 67,
      "velocity": 80,
      "startTime": 67.692306,
      "duration": 0.5106837479166586,
      "endTime": 68.20298974791666
    },
    {
      "instrumentId": 0,
      "instrumentName": "Piano",
      "isPercussion": false,
      "pitch": 79,
      "velocity": 80,
      "startTime": 67.692306,
      "duration": 0.5106837479166586,
      "endTime": 68.20298974791666
    },
    {
      "instrumentId": 0,
      "instrumentName": "Piano",
      "isPercussion": false,
      "pitch": 74,
      "velocity": 80,
      "startTime": 68.2051265,
      "duration": 0.5106837479166586,
      "endTime": 68.71581024791666
    },
    {
      "instrumentId": 0,
      "instrumentName": "Piano",
      "isPercussion": false,
      "pitch": 86,
      "velocity": 80,
      "startTime": 68.2051265,
      "duration": 0.5106837479166586,
      "endTime": 68.71581024791666
    },
    {
      "instrumentId": 0,
      "instrumentName": "Piano",
      "isPercussion": false,
      "pitch": 75,
      "velocity": 80,
      "startTime": 68.717947,
      "duration": 0.5106837479166728,
      "endTime": 69.22863074791667
    },
    {
      "instrumentId": 0,
      "instrumentName": "Piano",
      "isPercussion": false,
      "pitch": 87,
      "velocity": 80,
      "startTime": 68.717947,
      "duration": 0.5106837479166728,
      "endTime": 69.22863074791667
    },
    {
      "instrumentId": 0,
      "instrumentName": "Piano",
      "isPercussion": false,
      "pitch": 67,
      "velocity": 80,
      "startTime": 69.2307675,
      "duration": 0.5106837479166728,
      "endTime": 69.74145124791667
    },
    {
      "instrumentId": 0,
      "instrumentName": "Piano",
      "isPercussion": false,
      "pitch": 79,
      "velocity": 80,
      "startTime": 69.2307675,
      "duration": 0.5106837479166728,
      "endTime": 69.74145124791667
    },
    {
      "instrumentId": 0,
      "instrumentName": "Piano",
      "isPercussion": false,
      "pitch": 74,
      "velocity": 80,
      "startTime": 69.743588,
      "duration": 0.5106837479166586,
      "endTime": 70.25427174791666
    },
    {
      "instrumentId": 0,
      "instrumentName": "Piano",
      "isPercussion": false,
      "pitch": 86,
      "velocity": 80,
      "startTime": 69.743588,
      "duration": 0.5106837479166586,
      "endTime": 70.25427174791666
    },
    {
      "instrumentId": 1,
      "instrumentName": "Piano",
      "isPercussion": false,
      "pitch": 32,
      "velocity": 80,
      "startTime": 69.743588,
      "duration": 4.100427247916656,
      "endTime": 73.84401524791666
    },
    {
      "instrumentId": 1,
      "instrumentName": "Piano",
      "isPercussion": false,
      "pitch": 39,
      "velocity": 80,
      "startTime": 69.743588,
      "duration": 4.100427247916656,
      "endTime": 73.84401524791666
    },
    {
      "instrumentId": 1,
      "instrumentName": "Piano",
      "isPercussion": false,
      "pitch": 44,
      "velocity": 80,
      "startTime": 69.743588,
      "duration": 4.100427247916656,
      "endTime": 73.84401524791666
    },
    {
      "instrumentId": 0,
      "instrumentName": "Piano",
      "isPercussion": false,
      "pitch": 75,
      "velocity": 80,
      "startTime": 70.25640849999999,
      "duration": 0.5106837479166728,
      "endTime": 70.76709224791666
    },
    {
      "instrumentId": 0,
      "instrumentName": "Piano",
      "isPercussion": false,
      "pitch": 87,
      "velocity": 80,
      "startTime": 70.25640849999999,
      "duration": 0.5106837479166728,
      "endTime": 70.76709224791666
    },
    {
      "instrumentId": 0,
      "instrumentName": "Piano",
      "isPercussion": false,
      "pitch": 67,
      "velocity": 80,
      "startTime": 70.769229,
      "duration": 0.5106837479166728,
      "endTime": 71.27991274791667
    },
    {
      "instrumentId": 0,
      "instrumentName": "Piano",
      "isPercussion": false,
      "pitch": 79,
      "velocity": 80,
      "startTime": 70.769229,
      "duration": 0.5106837479166728,
      "endTime": 71.27991274791667
    },
    {
      "instrumentId": 0,
      "instrumentName": "Piano",
      "isPercussion": false,
      "pitch": 74,
      "velocity": 80,
      "startTime": 71.2820495,
      "duration": 0.5106837479166728,
      "endTime": 71.79273324791667
    },
    {
      "instrumentId": 0,
      "instrumentName": "Piano",
      "isPercussion": false,
      "pitch": 86,
      "velocity": 80,
      "startTime": 71.2820495,
      "duration": 0.5106837479166728,
      "endTime": 71.79273324791667
    },
    {
      "instrumentId": 0,
      "instrumentName": "Piano",
      "isPercussion": false,
      "pitch": 75,
      "velocity": 80,
      "startTime": 71.79487,
      "duration": 0.5106837479166586,
      "endTime": 72.30555374791666
    },
    {
      "instrumentId": 0,
      "instrumentName": "Piano",
      "isPercussion": false,
      "pitch": 87,
      "velocity": 80,
      "startTime": 71.79487,
      "duration": 0.5106837479166586,
      "endTime": 72.30555374791666
    },
    {
      "instrumentId": 0,
      "instrumentName": "Piano",
      "isPercussion": false,
      "pitch": 67,
      "velocity": 80,
      "startTime": 72.30769049999999,
      "duration": 0.5106837479166728,
      "endTime": 72.81837424791667
    },
    {
      "instrumentId": 0,
      "instrumentName": "Piano",
      "isPercussion": false,
      "pitch": 79,
      "velocity": 80,
      "startTime": 72.30769049999999,
      "duration": 0.5106837479166728,
      "endTime": 72.81837424791667
    },
    {
      "instrumentId": 0,
      "instrumentName": "Piano",
      "isPercussion": false,
      "pitch": 74,
      "velocity": 80,
      "startTime": 72.820511,
      "duration": 0.5106837479166728,
      "endTime": 73.33119474791667
    },
    {
      "instrumentId": 0,
      "instrumentName": "Piano",
      "isPercussion": false,
      "pitch": 86,
      "velocity": 80,
      "startTime": 72.820511,
      "duration": 0.5106837479166728,
      "endTime": 73.33119474791667
    },
    {
      "instrumentId": 0,
      "instrumentName": "Piano",
      "isPercussion": false,
      "pitch": 75,
      "velocity": 80,
      "startTime": 73.3333315,
      "duration": 0.5106837479166586,
      "endTime": 73.84401524791666
    },
    {
      "instrumentId": 0,
      "instrumentName": "Piano",
      "isPercussion": false,
      "pitch": 87,
      "velocity": 80,
      "startTime": 73.3333315,
      "duration": 0.5106837479166586,
      "endTime": 73.84401524791666
    },
    {
      "instrumentId": 0,
      "instrumentName": "Piano",
      "isPercussion": false,
      "pitch": 65,
      "velocity": 80,
      "startTime": 73.846152,
      "duration": 0.5106837479166586,
      "endTime": 74.35683574791666
    },
    {
      "instrumentId": 0,
      "instrumentName": "Piano",
      "isPercussion": false,
      "pitch": 77,
      "velocity": 80,
      "startTime": 73.846152,
      "duration": 0.5106837479166586,
      "endTime": 74.35683574791666
    },
    {
      "instrumentId": 1,
      "instrumentName": "Piano",
      "isPercussion": false,
      "pitch": 34,
      "velocity": 80,
      "startTime": 73.846152,
      "duration": 8.202991247916657,
      "endTime": 82.04914324791666
    },
    {
      "instrumentId": 1,
      "instrumentName": "Piano",
      "isPercussion": false,
      "pitch": 41,
      "velocity": 80,
      "startTime": 73.846152,
      "duration": 8.202991247916657,
      "endTime": 82.04914324791666
    },
    {
      "instrumentId": 1,
      "instrumentName": "Piano",
      "isPercussion": false,
      "pitch": 46,
      "velocity": 80,
      "startTime": 73.846152,
      "duration": 8.202991247916657,
      "endTime": 82.04914324791666
    },
    {
      "instrumentId": 0,
      "instrumentName": "Piano",
      "isPercussion": false,
      "pitch": 74,
      "velocity": 80,
      "startTime": 74.3589725,
      "duration": 0.5106837479166728,
      "endTime": 74.86965624791667
    },
    {
      "instrumentId": 0,
      "instrumentName": "Piano",
      "isPercussion": false,
      "pitch": 86,
      "velocity": 80,
      "startTime": 74.3589725,
      "duration": 0.5106837479166728,
      "endTime": 74.86965624791667
    },
    {
      "instrumentId": 0,
      "instrumentName": "Piano",
      "isPercussion": false,
      "pitch": 75,
      "velocity": 80,
      "startTime": 74.871793,
      "duration": 0.5106837479166728,
      "endTime": 75.38247674791667
    },
    {
      "instrumentId": 0,
      "instrumentName": "Piano",
      "isPercussion": false,
      "pitch": 87,
      "velocity": 80,
      "startTime": 74.871793,
      "duration": 0.5106837479166728,
      "endTime": 75.38247674791667
    },
    {
      "instrumentId": 0,
      "instrumentName": "Piano",
      "isPercussion": false,
      "pitch": 65,
      "velocity": 80,
      "startTime": 75.3846135,
      "duration": 0.5106837479166586,
      "endTime": 75.89529724791666
    },
    {
      "instrumentId": 0,
      "instrumentName": "Piano",
      "isPercussion": false,
      "pitch": 77,
      "velocity": 80,
      "startTime": 75.3846135,
      "duration": 0.5106837479166586,
      "endTime": 75.89529724791666
    },
    {
      "instrumentId": 0,
      "instrumentName": "Piano",
      "isPercussion": false,
      "pitch": 74,
      "velocity": 80,
      "startTime": 75.897434,
      "duration": 0.5106837479166586,
      "endTime": 76.40811774791666
    },
    {
      "instrumentId": 0,
      "instrumentName": "Piano",
      "isPercussion": false,
      "pitch": 86,
      "velocity": 80,
      "startTime": 75.897434,
      "duration": 0.5106837479166586,
      "endTime": 76.40811774791666
    },
    {
      "instrumentId": 0,
      "instrumentName": "Piano",
      "isPercussion": false,
      "pitch": 75,
      "velocity": 80,
      "startTime": 76.4102545,
      "duration": 0.5106837479166728,
      "endTime": 76.92093824791667
    },
    {
      "instrumentId": 0,
      "instrumentName": "Piano",
      "isPercussion": false,
      "pitch": 87,
      "velocity": 80,
      "startTime": 76.4102545,
      "duration": 0.5106837479166728,
      "endTime": 76.92093824791667
    },
    {
      "instrumentId": 0,
      "instrumentName": "Piano",
      "isPercussion": false,
      "pitch": 65,
      "velocity": 80,
      "startTime": 76.923075,
      "duration": 0.5106837479166728,
      "endTime": 77.43375874791667
    },
    {
      "instrumentId": 0,
      "instrumentName": "Piano",
      "isPercussion": false,
      "pitch": 77,
      "velocity": 80,
      "startTime": 76.923075,
      "duration": 0.5106837479166728,
      "endTime": 77.43375874791667
    },
    {
      "instrumentId": 0,
      "instrumentName": "Piano",
      "isPercussion": false,
      "pitch": 74,
      "velocity": 80,
      "startTime": 77.4358955,
      "duration": 0.5106837479166586,
      "endTime": 77.94657924791666
    },
    {
      "instrumentId": 0,
      "instrumentName": "Piano",
      "isPercussion": false,
      "pitch": 86,
      "velocity": 80,
      "startTime": 77.4358955,
      "duration": 0.5106837479166586,
      "endTime": 77.94657924791666
    },
    {
      "instrumentId": 0,
      "instrumentName": "Piano",
      "isPercussion": false,
      "pitch": 75,
      "velocity": 80,
      "startTime": 77.948716,
      "duration": 0.5106837479166586,
      "endTime": 78.45939974791666
    },
    {
      "instrumentId": 0,
      "instrumentName": "Piano",
      "isPercussion": false,
      "pitch": 87,
      "velocity": 80,
      "startTime": 77.948716,
      "duration": 0.5106837479166586,
      "endTime": 78.45939974791666
    },
    {
      "instrumentId": 0,
      "instrumentName": "Piano",
      "isPercussion": false,
      "pitch": 63,
      "velocity": 80,
      "startTime": 78.4615365,
      "duration": 0.5106837479166728,
      "endTime": 78.97222024791667
    },
    {
      "instrumentId": 0,
      "instrumentName": "Piano",
      "isPercussion": false,
      "pitch": 75,
      "velocity": 80,
      "startTime": 78.4615365,
      "duration": 0.5106837479166728,
      "endTime": 78.97222024791667
    },
    {
      "instrumentId": 0,
      "instrumentName": "Piano",
      "isPercussion": false,
      "pitch": 74,
      "velocity": 80,
      "startTime": 78.974357,
      "duration": 0.5106837479166728,
      "endTime": 79.48504074791667
    },
    {
      "instrumentId": 0,
      "instrumentName": "Piano",
      "isPercussion": false,
      "pitch": 86,
      "velocity": 80,
      "startTime": 78.974357,
      "duration": 0.5106837479166728,
      "endTime": 79.48504074791667
    },
    {
      "instrumentId": 0,
      "instrumentName": "Piano",
      "isPercussion": false,
      "pitch": 75,
      "velocity": 80,
      "startTime": 79.4871775,
      "duration": 0.5106837479166586,
      "endTime": 79.99786124791666
    },
    {
      "instrumentId": 0,
      "instrumentName": "Piano",
      "isPercussion": false,
      "pitch": 87,
      "velocity": 80,
      "startTime": 79.4871775,
      "duration": 0.5106837479166586,
      "endTime": 79.99786124791666
    },
    {
      "instrumentId": 0,
      "instrumentName": "Piano",
      "isPercussion": false,
      "pitch": 62,
      "velocity": 80,
      "startTime": 79.999998,
      "duration": 0.5106837479166586,
      "endTime": 80.51068174791666
    },
    {
      "instrumentId": 0,
      "instrumentName": "Piano",
      "isPercussion": false,
      "pitch": 74,
      "velocity": 80,
      "startTime": 79.999998,
      "duration": 0.5106837479166586,
      "endTime": 80.51068174791666
    },
    {
      "instrumentId": 0,
      "instrumentName": "Piano",
      "isPercussion": false,
      "pitch": 74,
      "velocity": 80,
      "startTime": 80.5128185,
      "duration": 0.5106837479166728,
      "endTime": 81.02350224791667
    },
    {
      "instrumentId": 0,
      "instrumentName": "Piano",
      "isPercussion": false,
      "pitch": 86,
      "velocity": 80,
      "startTime": 80.5128185,
      "duration": 0.5106837479166728,
      "endTime": 81.02350224791667
    },
    {
      "instrumentId": 0,
      "instrumentName": "Piano",
      "isPercussion": false,
      "pitch": 75,
      "velocity": 80,
      "startTime": 81.025639,
      "duration": 0.5106837479166728,
      "endTime": 81.53632274791667
    },
    {
      "instrumentId": 0,
      "instrumentName": "Piano",
      "isPercussion": false,
      "pitch": 87,
      "velocity": 80,
      "startTime": 81.025639,
      "duration": 0.5106837479166728,
      "endTime": 81.53632274791667
    },
    {
      "instrumentId": 1,
      "instrumentName": "Piano",
      "isPercussion": false,
      "pitch": 63,
      "velocity": 80,
      "startTime": 81.025639,
      "duration": 1.0235042479166623,
      "endTime": 82.04914324791666
    },
    {
      "instrumentId": 0,
      "instrumentName": "Piano",
      "isPercussion": false,
      "pitch": 67,
      "velocity": 80,
      "startTime": 81.5384595,
      "duration": 0.5106837479166586,
      "endTime": 82.04914324791666
    },
    {
      "instrumentId": 0,
      "instrumentName": "Piano",
      "isPercussion": false,
      "pitch": 79,
      "velocity": 80,
      "startTime": 81.5384595,
      "duration": 0.5106837479166586,
      "endTime": 82.04914324791666
    },
    {
      "instrumentId": 0,
      "instrumentName": "Piano",
      "isPercussion": false,
      "pitch": 74,
      "velocity": 80,
      "startTime": 82.05128,
      "duration": 0.5106837479166586,
      "endTime": 82.56196374791666
    },
    {
      "instrumentId": 0,
      "instrumentName": "Piano",
      "isPercussion": false,
      "pitch": 86,
      "velocity": 80,
      "startTime": 82.05128,
      "duration": 0.5106837479166586,
      "endTime": 82.56196374791666
    },
    {
      "instrumentId": 1,
      "instrumentName": "Piano",
      "isPercussion": false,
      "pitch": 36,
      "velocity": 80,
      "startTime": 82.05128,
      "duration": 3.0747862479166628,
      "endTime": 85.12606624791667
    },
    {
      "instrumentId": 1,
      "instrumentName": "Piano",
      "isPercussion": false,
      "pitch": 43,
      "velocity": 80,
      "startTime": 82.05128,
      "duration": 3.0747862479166628,
      "endTime": 85.12606624791667
    },
    {
      "instrumentId": 1,
      "instrumentName": "Piano",
      "isPercussion": false,
      "pitch": 51,
      "velocity": 80,
      "startTime": 82.05128,
      "duration": 3.0747862479166628,
      "endTime": 85.12606624791667
    },
    {
      "instrumentId": 0,
      "instrumentName": "Piano",
      "isPercussion": false,
      "pitch": 75,
      "velocity": 80,
      "startTime": 82.5641005,
      "duration": 0.5106837479166728,
      "endTime": 83.07478424791667
    },
    {
      "instrumentId": 0,
      "instrumentName": "Piano",
      "isPercussion": false,
      "pitch": 87,
      "velocity": 80,
      "startTime": 82.5641005,
      "duration": 0.5106837479166728,
      "endTime": 83.07478424791667
    },
    {
      "instrumentId": 0,
      "instrumentName": "Piano",
      "isPercussion": false,
      "pitch": 67,
      "velocity": 80,
      "startTime": 83.076921,
      "duration": 0.5106837479166728,
      "endTime": 83.58760474791667
    },
    {
      "instrumentId": 0,
      "instrumentName": "Piano",
      "isPercussion": false,
      "pitch": 79,
      "velocity": 80,
      "startTime": 83.076921,
      "duration": 0.5106837479166728,
      "endTime": 83.58760474791667
    },
    {
      "instrumentId": 0,
      "instrumentName": "Piano",
      "isPercussion": false,
      "pitch": 74,
      "velocity": 80,
      "startTime": 83.5897415,
      "duration": 0.5106837479166586,
      "endTime": 84.10042524791666
    },
    {
      "instrumentId": 0,
      "instrumentName": "Piano",
      "isPercussion": false,
      "pitch": 86,
      "velocity": 80,
      "startTime": 83.5897415,
      "duration": 0.5106837479166586,
      "endTime": 84.10042524791666
    },
    {
      "instrumentId": 0,
      "instrumentName": "Piano",
      "isPercussion": false,
      "pitch": 75,
      "velocity": 80,
      "startTime": 84.10256199999999,
      "duration": 0.5106837479166728,
      "endTime": 84.61324574791666
    },
    {
      "instrumentId": 0,
      "instrumentName": "Piano",
      "isPercussion": false,
      "pitch": 87,
      "velocity": 80,
      "startTime": 84.10256199999999,
      "duration": 0.5106837479166728,
      "endTime": 84.61324574791666
    },
    {
      "instrumentId": 0,
      "instrumentName": "Piano",
      "isPercussion": false,
      "pitch": 67,
      "velocity": 80,
      "startTime": 84.6153825,
      "duration": 0.5106837479166728,
      "endTime": 85.12606624791667
    },
    {
      "instrumentId": 0,
      "instrumentName": "Piano",
      "isPercussion": false,
      "pitch": 79,
      "velocity": 80,
      "startTime": 84.6153825,
      "duration": 0.5106837479166728,
      "endTime": 85.12606624791667
    },
    {
      "instrumentId": 0,
      "instrumentName": "Piano",
      "isPercussion": false,
      "pitch": 74,
      "velocity": 80,
      "startTime": 85.128203,
      "duration": 0.5106837479166728,
      "endTime": 85.63888674791667
    },
    {
      "instrumentId": 0,
      "instrumentName": "Piano",
      "isPercussion": false,
      "pitch": 86,
      "velocity": 80,
      "startTime": 85.128203,
      "duration": 0.5106837479166728,
      "endTime": 85.63888674791667
    },
    {
      "instrumentId": 1,
      "instrumentName": "Piano",
      "isPercussion": false,
      "pitch": 39,
      "velocity": 80,
      "startTime": 85.38461325,
      "duration": 0.7670939979166604,
      "endTime": 86.15170724791666
    },
    {
      "instrumentId": 1,
      "instrumentName": "Piano",
      "isPercussion": false,
      "pitch": 46,
      "velocity": 80,
      "startTime": 85.38461325,
      "duration": 0.7670939979166604,
      "endTime": 86.15170724791666
    },
    {
      "instrumentId": 1,
      "instrumentName": "Piano",
      "isPercussion": false,
      "pitch": 51,
      "velocity": 80,
      "startTime": 85.38461325,
      "duration": 0.7670939979166604,
      "endTime": 86.15170724791666
    },
    {
      "instrumentId": 0,
      "instrumentName": "Piano",
      "isPercussion": false,
      "pitch": 75,
      "velocity": 80,
      "startTime": 85.6410235,
      "duration": 0.5106837479166586,
      "endTime": 86.15170724791666
    },
    {
      "instrumentId": 0,
      "instrumentName": "Piano",
      "isPercussion": false,
      "pitch": 87,
      "velocity": 80,
      "startTime": 85.6410235,
      "duration": 0.5106837479166586,
      "endTime": 86.15170724791666
    },
    {
      "instrumentId": 0,
      "instrumentName": "Piano",
      "isPercussion": false,
      "pitch": 67,
      "velocity": 80,
      "startTime": 86.15384399999999,
      "duration": 0.5106837479166728,
      "endTime": 86.66452774791667
    },
    {
      "instrumentId": 0,
      "instrumentName": "Piano",
      "isPercussion": false,
      "pitch": 79,
      "velocity": 80,
      "startTime": 86.15384399999999,
      "duration": 0.5106837479166728,
      "endTime": 86.66452774791667
    },
    {
      "instrumentId": 1,
      "instrumentName": "Piano",
      "isPercussion": false,
      "pitch": 32,
      "velocity": 80,
      "startTime": 86.15384399999999,
      "duration": 3.074786247916677,
      "endTime": 89.22863024791667
    },
    {
      "instrumentId": 1,
      "instrumentName": "Piano",
      "isPercussion": false,
      "pitch": 39,
      "velocity": 80,
      "startTime": 86.15384399999999,
      "duration": 3.074786247916677,
      "endTime": 89.22863024791667
    },
    {
      "instrumentId": 1,
      "instrumentName": "Piano",
      "isPercussion": false,
      "pitch": 44,
      "velocity": 80,
      "startTime": 86.15384399999999,
      "duration": 3.074786247916677,
      "endTime": 89.22863024791667
    },
    {
      "instrumentId": 0,
      "instrumentName": "Piano",
      "isPercussion": false,
      "pitch": 74,
      "velocity": 80,
      "startTime": 86.6666645,
      "duration": 0.5106837479166728,
      "endTime": 87.17734824791667
    },
    {
      "instrumentId": 0,
      "instrumentName": "Piano",
      "isPercussion": false,
      "pitch": 86,
      "velocity": 80,
      "startTime": 86.6666645,
      "duration": 0.5106837479166728,
      "endTime": 87.17734824791667
    },
    {
      "instrumentId": 0,
      "instrumentName": "Piano",
      "isPercussion": false,
      "pitch": 75,
      "velocity": 80,
      "startTime": 87.179485,
      "duration": 0.5106837479166586,
      "endTime": 87.69016874791666
    },
    {
      "instrumentId": 0,
      "instrumentName": "Piano",
      "isPercussion": false,
      "pitch": 87,
      "velocity": 80,
      "startTime": 87.179485,
      "duration": 0.5106837479166586,
      "endTime": 87.69016874791666
    },
    {
      "instrumentId": 0,
      "instrumentName": "Piano",
      "isPercussion": false,
      "pitch": 67,
      "velocity": 80,
      "startTime": 87.6923055,
      "duration": 0.5106837479166586,
      "endTime": 88.20298924791666
    },
    {
      "instrumentId": 0,
      "instrumentName": "Piano",
      "isPercussion": false,
      "pitch": 79,
      "velocity": 80,
      "startTime": 87.6923055,
      "duration": 0.5106837479166586,
      "endTime": 88.20298924791666
    },
    {
      "instrumentId": 0,
      "instrumentName": "Piano",
      "isPercussion": false,
      "pitch": 74,
      "velocity": 80,
      "startTime": 88.20512599999999,
      "duration": 0.5106837479166728,
      "endTime": 88.71580974791667
    },
    {
      "instrumentId": 0,
      "instrumentName": "Piano",
      "isPercussion": false,
      "pitch": 86,
      "velocity": 80,
      "startTime": 88.20512599999999,
      "duration": 0.5106837479166728,
      "endTime": 88.71580974791667
    },
    {
      "instrumentId": 0,
      "instrumentName": "Piano",
      "isPercussion": false,
      "pitch": 75,
      "velocity": 80,
      "startTime": 88.7179465,
      "duration": 0.5106837479166728,
      "endTime": 89.22863024791667
    },
    {
      "instrumentId": 0,
      "instrumentName": "Piano",
      "isPercussion": false,
      "pitch": 87,
      "velocity": 80,
      "startTime": 88.7179465,
      "duration": 0.5106837479166728,
      "endTime": 89.22863024791667
    },
    {
      "instrumentId": 0,
      "instrumentName": "Piano",
      "isPercussion": false,
      "pitch": 67,
      "velocity": 80,
      "startTime": 89.230767,
      "duration": 0.5106837479166586,
      "endTime": 89.74145074791666
    },
    {
      "instrumentId": 0,
      "instrumentName": "Piano",
      "isPercussion": false,
      "pitch": 79,
      "velocity": 80,
      "startTime": 89.230767,
      "duration": 0.5106837479166586,
      "endTime": 89.74145074791666
    },
    {
      "instrumentId": 1,
      "instrumentName": "Piano",
      "isPercussion": false,
      "pitch": 39,
      "velocity": 80,
      "startTime": 89.48717725,
      "duration": 0.7670939979166604,
      "endTime": 90.25427124791666
    },
    {
      "instrumentId": 1,
      "instrumentName": "Piano",
      "isPercussion": false,
      "pitch": 46,
      "velocity": 80,
      "startTime": 89.48717725,
      "duration": 0.7670939979166604,
      "endTime": 90.25427124791666
    },
    {
      "instrumentId": 1,
      "instrumentName": "Piano",
      "isPercussion": false,
      "pitch": 51,
      "velocity": 80,
      "startTime": 89.48717725,
      "duration": 0.7670939979166604,
      "endTime": 90.25427124791666
    },
    {
      "instrumentId": 0,
      "instrumentName": "Piano",
      "isPercussion": false,
      "pitch": 74,
      "velocity": 80,
      "startTime": 89.7435875,
      "duration": 0.5106837479166586,
      "endTime": 90.25427124791666
    },
    {
      "instrumentId": 0,
      "instrumentName": "Piano",
      "isPercussion": false,
      "pitch": 86,
      "velocity": 80,
      "startTime": 89.7435875,
      "duration": 0.5106837479166586,
      "endTime": 90.25427124791666
    },
    {
      "instrumentId": 0,
      "instrumentName": "Piano",
      "isPercussion": false,
      "pitch": 75,
      "velocity": 80,
      "startTime": 90.256408,
      "duration": 0.5106837479166728,
      "endTime": 90.76709174791667
    },
    {
      "instrumentId": 0,
      "instrumentName": "Piano",
      "isPercussion": false,
      "pitch": 87,
      "velocity": 80,
      "startTime": 90.256408,
      "duration": 0.5106837479166728,
      "endTime": 90.76709174791667
    },
    {
      "instrumentId": 1,
      "instrumentName": "Piano",
      "isPercussion": false,
      "pitch": 34,
      "velocity": 80,
      "startTime": 90.256408,
      "duration": 8.202991247916671,
      "endTime": 98.45939924791666
    },
    {
      "instrumentId": 1,
      "instrumentName": "Piano",
      "isPercussion": false,
      "pitch": 41,
      "velocity": 80,
      "startTime": 90.256408,
      "duration": 8.202991247916671,
      "endTime": 98.45939924791666
    },
    {
      "instrumentId": 1,
      "instrumentName": "Piano",
      "isPercussion": false,
      "pitch": 46,
      "velocity": 80,
      "startTime": 90.256408,
      "duration": 8.202991247916671,
      "endTime": 98.45939924791666
    },
    {
      "instrumentId": 0,
      "instrumentName": "Piano",
      "isPercussion": false,
      "pitch": 65,
      "velocity": 80,
      "startTime": 90.7692285,
      "duration": 0.5106837479166728,
      "endTime": 91.27991224791667
    },
    {
      "instrumentId": 0,
      "instrumentName": "Piano",
      "isPercussion": false,
      "pitch": 77,
      "velocity": 80,
      "startTime": 90.7692285,
      "duration": 0.5106837479166728,
      "endTime": 91.27991224791667
    },
    {
      "instrumentId": 0,
      "instrumentName": "Piano",
      "isPercussion": false,
      "pitch": 74,
      "velocity": 80,
      "startTime": 91.282049,
      "duration": 0.5106837479166586,
      "endTime": 91.79273274791666
    },
    {
      "instrumentId": 0,
      "instrumentName": "Piano",
      "isPercussion": false,
      "pitch": 86,
      "velocity": 80,
      "startTime": 91.282049,
      "duration": 0.5106837479166586,
      "endTime": 91.79273274791666
    },
    {
      "instrumentId": 0,
      "instrumentName": "Piano",
      "isPercussion": false,
      "pitch": 75,
      "velocity": 80,
      "startTime": 91.7948695,
      "duration": 0.5106837479166586,
      "endTime": 92.30555324791666
    },
    {
      "instrumentId": 0,
      "instrumentName": "Piano",
      "isPercussion": false,
      "pitch": 87,
      "velocity": 80,
      "startTime": 91.7948695,
      "duration": 0.5106837479166586,
      "endTime": 92.30555324791666
    },
    {
      "instrumentId": 1,
      "instrumentName": "Piano",
      "isPercussion": false,
      "pitch": 53,
      "velocity": 80,
      "startTime": 91.7948695,
      "duration": 6.66452974791666,
      "endTime": 98.45939924791666
    },
    {
      "instrumentId": 0,
      "instrumentName": "Piano",
      "isPercussion": false,
      "pitch": 65,
      "velocity": 80,
      "startTime": 92.30769,
      "duration": 0.5106837479166728,
      "endTime": 92.81837374791667
    },
    {
      "instrumentId": 0,
      "instrumentName": "Piano",
      "isPercussion": false,
      "pitch": 77,
      "velocity": 80,
      "startTime": 92.30769,
      "duration": 0.5106837479166728,
      "endTime": 92.81837374791667
    },
    {
      "instrumentId": 0,
      "instrumentName": "Piano",
      "isPercussion": false,
      "pitch": 74,
      "velocity": 80,
      "startTime": 92.8205105,
      "duration": 0.5106837479166728,
      "endTime": 93.33119424791667
    },
    {
      "instrumentId": 0,
      "instrumentName": "Piano",
      "isPercussion": false,
      "pitch": 86,
      "velocity": 80,
      "startTime": 92.8205105,
      "duration": 0.5106837479166728,
      "endTime": 93.33119424791667
    },
    {
      "instrumentId": 0,
      "instrumentName": "Piano",
      "isPercussion": false,
      "pitch": 75,
      "velocity": 80,
      "startTime": 93.333331,
      "duration": 0.5106837479166586,
      "endTime": 93.84401474791666
    },
    {
      "instrumentId": 0,
      "instrumentName": "Piano",
      "isPercussion": false,
      "pitch": 87,
      "velocity": 80,
      "startTime": 93.333331,
      "duration": 0.5106837479166586,
      "endTime": 93.84401474791666
    },
    {
      "instrumentId": 0,
      "instrumentName": "Piano",
      "isPercussion": false,
      "pitch": 65,
      "velocity": 80,
      "startTime": 93.8461515,
      "duration": 0.5106837479166586,
      "endTime": 94.35683524791666
    },
    {
      "instrumentId": 0,
      "instrumentName": "Piano",
      "isPercussion": false,
      "pitch": 77,
      "velocity": 80,
      "startTime": 93.8461515,
      "duration": 0.5106837479166586,
      "endTime": 94.35683524791666
    },
    {
      "instrumentId": 0,
      "instrumentName": "Piano",
      "isPercussion": false,
      "pitch": 74,
      "velocity": 80,
      "startTime": 94.358972,
      "duration": 0.5106837479166728,
      "endTime": 94.86965574791667
    },
    {
      "instrumentId": 0,
      "instrumentName": "Piano",
      "isPercussion": false,
      "pitch": 86,
      "velocity": 80,
      "startTime": 94.358972,
      "duration": 0.5106837479166728,
      "endTime": 94.86965574791667
    },
    {
      "instrumentId": 1,
      "instrumentName": "Piano",
      "isPercussion": false,
      "pitch": 63,
      "velocity": 80,
      "startTime": 94.358972,
      "duration": 2.0491452479166696,
      "endTime": 96.40811724791666
    },
    {
      "instrumentId": 0,
      "instrumentName": "Piano",
      "isPercussion": false,
      "pitch": 75,
      "velocity": 80,
      "startTime": 94.8717925,
      "duration": 0.5106837479166728,
      "endTime": 95.38247624791667
    },
    {
      "instrumentId": 0,
      "instrumentName": "Piano",
      "isPercussion": false,
      "pitch": 87,
      "velocity": 80,
      "startTime": 94.8717925,
      "duration": 0.5106837479166728,
      "endTime": 95.38247624791667
    },
    {
      "instrumentId": 0,
      "instrumentName": "Piano",
      "isPercussion": false,
      "pitch": 65,
      "velocity": 80,
      "startTime": 95.384613,
      "duration": 0.5106837479166586,
      "endTime": 95.89529674791666
    },
    {
      "instrumentId": 0,
      "instrumentName": "Piano",
      "isPercussion": false,
      "pitch": 77,
      "velocity": 80,
      "startTime": 95.384613,
      "duration": 0.5106837479166586,
      "endTime": 95.89529674791666
    },
    {
      "instrumentId": 0,
      "instrumentName": "Piano",
      "isPercussion": false,
      "pitch": 74,
      "velocity": 80,
      "startTime": 95.8974335,
      "duration": 0.5106837479166586,
      "endTime": 96.40811724791666
    },
    {
      "instrumentId": 0,
      "instrumentName": "Piano",
      "isPercussion": false,
      "pitch": 86,
      "velocity": 80,
      "startTime": 95.8974335,
      "duration": 0.5106837479166586,
      "endTime": 96.40811724791666
    },
    {
      "instrumentId": 0,
      "instrumentName": "Piano",
      "isPercussion": false,
      "pitch": 75,
      "velocity": 80,
      "startTime": 96.410254,
      "duration": 0.5106837479166728,
      "endTime": 96.92093774791667
    },
    {
      "instrumentId": 0,
      "instrumentName": "Piano",
      "isPercussion": false,
      "pitch": 87,
      "velocity": 80,
      "startTime": 96.410254,
      "duration": 0.5106837479166728,
      "endTime": 96.92093774791667
    },
    {
      "instrumentId": 1,
      "instrumentName": "Piano",
      "isPercussion": false,
      "pitch": 62,
      "velocity": 80,
      "startTime": 96.410254,
      "duration": 1.0235042479166765,
      "endTime": 97.43375824791667
    },
    {
      "instrumentId": 0,
      "instrumentName": "Piano",
      "isPercussion": false,
      "pitch": 65,
      "velocity": 80,
      "startTime": 96.9230745,
      "duration": 0.5106837479166728,
      "endTime": 97.43375824791667
    },
    {
      "instrumentId": 0,
      "instrumentName": "Piano",
      "isPercussion": false,
      "pitch": 77,
      "velocity": 80,
      "startTime": 96.9230745,
      "duration": 0.5106837479166728,
      "endTime": 97.43375824791667
    },
    {
      "instrumentId": 0,
      "instrumentName": "Piano",
      "isPercussion": false,
      "pitch": 74,
      "velocity": 80,
      "startTime": 97.435895,
      "duration": 0.5106837479166586,
      "endTime": 97.94657874791666
    },
    {
      "instrumentId": 0,
      "instrumentName": "Piano",
      "isPercussion": false,
      "pitch": 86,
      "velocity": 80,
      "startTime": 97.435895,
      "duration": 0.5106837479166586,
      "endTime": 97.94657874791666
    },
    {
      "instrumentId": 1,
      "instrumentName": "Piano",
      "isPercussion": false,
      "pitch": 63,
      "velocity": 80,
      "startTime": 97.435895,
      "duration": 1.0235042479166623,
      "endTime": 98.45939924791666
    },
    {
      "instrumentId": 0,
      "instrumentName": "Piano",
      "isPercussion": false,
      "pitch": 75,
      "velocity": 80,
      "startTime": 97.94871549999999,
      "duration": 0.5106837479166728,
      "endTime": 98.45939924791666
    },
    {
      "instrumentId": 0,
      "instrumentName": "Piano",
      "isPercussion": false,
      "pitch": 87,
      "velocity": 80,
      "startTime": 97.94871549999999,
      "duration": 0.5106837479166728,
      "endTime": 98.45939924791666
    },
    {
      "instrumentId": 0,
      "instrumentName": "Piano",
      "isPercussion": false,
      "pitch": 72,
      "velocity": 80,
      "startTime": 98.461536,
      "duration": 8.20085449583334,
      "endTime": 106.66239049583334
    },
    {
      "instrumentId": 0,
      "instrumentName": "Piano",
      "isPercussion": false,
      "pitch": 75,
      "velocity": 80,
      "startTime": 98.461536,
      "duration": 8.20085449583334,
      "endTime": 106.66239049583334
    },
    {
      "instrumentId": 0,
      "instrumentName": "Piano",
      "isPercussion": false,
      "pitch": 84,
      "velocity": 80,
      "startTime": 98.461536,
      "duration": 8.20085449583334,
      "endTime": 106.66239049583334
    },
    {
      "instrumentId": 1,
      "instrumentName": "Piano",
      "isPercussion": false,
      "pitch": 48,
      "velocity": 80,
      "startTime": 98.461536,
      "duration": 8.20085449583334,
      "endTime": 106.66239049583334
    },
    {
      "instrumentId": 1,
      "instrumentName": "Piano",
      "isPercussion": false,
      "pitch": 60,
      "velocity": 80,
      "startTime": 98.461536,
      "duration": 8.20085449583334,
      "endTime": 106.66239049583334
    }
  ]
}