{
  "metadata": {
    "file": "Sombr - Undressed.mid",
    "duration": 172.0,
    "bpm": 120.0,
    "totalNotes": 1433
  },
  "notes": [
    {
      "instrumentId": 1,
      "instrumentName": "Piano",
      "isPercussion": false,
      "pitch": 45,
      "velocity": 80,
      "startTime": 0.0,
      "duration": 0.49895833333333334,
      "endTime": 0.49895833333333334
    },
    {
      "instrumentId": 1,
      "instrumentName": "Piano",
      "isPercussion": false,
      "pitch": 52,
      "velocity": 80,
      "startTime": 0.5,
      "duration": 0.24895833333333328,
      "endTime": 0.7489583333333333
    },
    {
      "instrumentId": 1,
      "instrumentName": "Piano",
      "isPercussion": false,
      "pitch": 57,
      "velocity": 80,
      "startTime": 0.5,
      "duration": 0.24895833333333328,
      "endTime": 0.7489583333333333
    },
    {
      "instrumentId": 1,
      "instrumentName": "Piano",
      "isPercussion": false,
      "pitch": 45,
      "velocity": 80,
      "startTime": 0.75,
      "duration": 0.24895833333333328,
      "endTime": 0.9989583333333333
    },
    {
      "instrumentId": 1,
      "instrumentName": "Piano",
      "isPercussion": false,
      "pitch": 43,
      "velocity": 80,
      "startTime": 1.0,
      "duration": 0.4989583333333334,
      "endTime": 1.4989583333333334
    },
    {
      "instrumentId": 1,
      "instrumentName": "Piano",
      "isPercussion": false,
      "pitch": 52,
      "velocity": 80,
      "startTime": 1.5,
      "duration": 0.2489583333333334,
      "endTime": 1.7489583333333334
    },
    {
      "instrumentId": 1,
      "instrumentName": "Piano",
      "isPercussion": false,
      "pitch": 55,
      "velocity": 80,
      "startTime": 1.5,
      "duration": 0.2489583333333334,
      "endTime": 1.7489583333333334
    },
    {
      "instrumentId": 1,
      "instrumentName": "Piano",
      "isPercussion": false,
      "pitch": 43,
      "velocity": 80,
      "startTime": 1.75,
      "duration": 0.2489583333333334,
      "endTime": 1.9989583333333334
    },
    {
      "instrumentId": 1,
      "instrumentName": "Piano",
      "isPercussion": false,
      "pitch": 41,
      "velocity": 80,
      "startTime": 2.0,
      "duration": 0.4989583333333334,
      "endTime": 2.4989583333333334
    },
    {
      "instrumentId": 1,
      "instrumentName": "Piano",
      "isPercussion": false,
      "pitch": 48,
      "velocity": 80,
      "startTime": 2.5,
      "duration": 0.2489583333333334,
      "endTime": 2.7489583333333334
    },
    {
      "instrumentId": 1,
      "instrumentName": "Piano",
      "isPercussion": false,
      "pitch": 53,
      "velocity": 80,
      "startTime": 2.5,
      "duration": 0.2489583333333334,
      "endTime": 2.7489583333333334
    },
    {
      "instrumentId": 1,
      "instrumentName": "Piano",
      "isPercussion": false,
      "pitch": 41,
      "velocity": 80,
      "startTime": 2.75,
      "duration": 0.2489583333333334,
      "endTime": 2.9989583333333334
    },
    {
      "instrumentId": 1,
      "instrumentName": "Piano",
      "isPercussion": false,
      "pitch": 48,
      "velocity": 80,
      "startTime": 3.0,
      "duration": 0.2489583333333334,
      "endTime": 3.2489583333333334
    },
    {
      "instrumentId": 1,
      "instrumentName": "Piano",
      "isPercussion": false,
      "pitch": 55,
      "velocity": 80,
      "startTime": 3.25,
      "duration": 0.2489583333333334,
      "endTime": 3.4989583333333334
    },
    {
      "instrumentId": 1,
      "instrumentName": "Piano",
      "isPercussion": false,
      "pitch": 60,
      "velocity": 80,
      "startTime": 3.25,
      "duration": 0.2489583333333334,
      "endTime": 3.4989583333333334
    },
    {
      "instrumentId": 1,
      "instrumentName": "Piano",
      "isPercussion": false,
      "pitch": 48,
      "velocity": 80,
      "startTime": 3.5,
      "duration": 0.2489583333333334,
      "endTime": 3.7489583333333334
    },
    {
      "instrumentId": 1,
      "instrumentName": "Piano",
      "isPercussion": false,
      "pitch": 43,
      "velocity": 80,
      "startTime": 3.75,
      "duration": 0.2489583333333334,
      "endTime": 3.9989583333333334
    },
    {
      "instrumentId": 1,
      "instrumentName": "Piano",
      "isPercussion": false,
      "pitch": 45,
      "velocity": 80,
      "startTime": 4.0,
      "duration": 0.4989583333333334,
      "endTime": 4.498958333333333
    },
    {
      "instrumentId": 1,
      "instrumentName": "Piano",
      "isPercussion": false,
      "pitch": 52,
      "velocity": 80,
      "startTime": 4.5,
      "duration": 0.2489583333333334,
      "endTime": 4.748958333333333
    },
    {
      "instrumentId": 1,
      "instrumentName": "Piano",
      "isPercussion": false,
      "pitch": 57,
      "velocity": 80,
      "startTime": 4.5,
      "duration": 0.2489583333333334,
      "endTime": 4.748958333333333
    },
    {
      "instrumentId": 1,
      "instrumentName": "Piano",
      "isPercussion": false,
      "pitch": 45,
      "velocity": 80,
      "startTime": 4.75,
      "duration": 0.2489583333333334,
      "endTime": 4.998958333333333
    },
    {
      "instrumentId": 1,
      "instrumentName": "Piano",
      "isPercussion": false,
      "pitch": 43,
      "velocity": 80,
      "startTime": 5.0,
      "duration": 0.4989583333333334,
      "endTime": 5.498958333333333
    },
    {
      "instrumentId": 1,
      "instrumentName": "Piano",
      "isPercussion": false,
      "pitch": 52,
      "velocity": 80,
      "startTime": 5.5,
      "duration": 0.2489583333333334,
      "endTime": 5.748958333333333
    },
    {
      "instrumentId": 1,
      "instrumentName": "Piano",
      "isPercussion": false,
      "pitch": 55,
      "velocity": 80,
      "startTime": 5.5,
      "duration": 0.2489583333333334,
      "endTime": 5.748958333333333
    },
    {
      "instrumentId": 1,
      "instrumentName": "Piano",
      "isPercussion": false,
      "pitch": 43,
      "velocity": 80,
      "startTime": 5.75,
      "duration": 0.2489583333333334,
      "endTime": 5.998958333333333
    },
    {
      "instrumentId": 1,
      "instrumentName": "Piano",
      "isPercussion": false,
      "pitch": 41,
      "velocity": 80,
      "startTime": 6.0,
      "duration": 0.4989583333333334,
      "endTime": 6.498958333333333
    },
    {
      "instrumentId": 1,
      "instrumentName": "Piano",
      "isPercussion": false,
      "pitch": 48,
      "velocity": 80,
      "startTime": 6.5,
      "duration": 0.2489583333333334,
      "endTime": 6.748958333333333
    },
    {
      "instrumentId": 1,
      "instrumentName": "Piano",
      "isPercussion": false,
      "pitch": 53,
      "velocity": 80,
      "startTime": 6.5,
      "duration": 0.2489583333333334,
      "endTime": 6.748958333333333
    },
    {
      "instrumentId": 1,
      "instrumentName": "Piano",
      "isPercussion": false,
      "pitch": 41,
      "velocity": 80,
      "startTime": 6.75,
      "duration": 0.2489583333333334,
      "endTime": 6.998958333333333
    },
    {
      "instrumentId": 1,
      "instrumentName": "Piano",
      "isPercussion": false,
      "pitch": 36,
      "velocity": 80,
      "startTime": 7.0,
      "duration": 0.2489583333333334,
      "endTime": 7.248958333333333
    },
    {
      "instrumentId": 1,
      "instrumentName": "Piano",
      "isPercussion": false,
      "pitch": 43,
      "velocity": 80,
      "startTime": 7.25,
      "duration": 0.2489583333333334,
      "endTime": 7.498958333333333
    },
    {
      "instrumentId": 1,
      "instrumentName": "Piano",
      "isPercussion": false,
      "pitch": 48,
      "velocity": 80,
      "startTime": 7.5,
      "duration": 0.2489583333333334,
      "endTime": 7.748958333333333
    },
    {
      "instrumentId": 1,
      "instrumentName": "Piano",
      "isPercussion": false,
      "pitch": 43,
      "velocity": 80,
      "startTime": 7.75,
      "duration": 0.2489583333333334,
      "endTime": 7.998958333333333
    },
    {
      "instrumentId": 0,
      "instrumentName": "Piano",
      "isPercussion": false,
      "pitch": 72,
      "velocity": 80,
      "startTime": 8.0,
      "duration": 0.2489583333333325,
      "endTime": 8.248958333333333
    },
    {
      "instrumentId": 1,
      "instrumentName": "Piano",
      "isPercussion": false,
      "pitch": 45,
      "velocity": 80,
      "startTime": 8.0,
      "duration": 0.4989583333333325,
      "endTime": 8.498958333333333
    },
    {
      "instrumentId": 0,
      "instrumentName": "Piano",
      "isPercussion": false,
      "pitch": 69,
      "velocity": 80,
      "startTime": 8.25,
      "duration": 0.2489583333333325,
      "endTime": 8.498958333333333
    },
    {
      "instrumentId": 0,
      "instrumentName": "Piano",
      "isPercussion": false,
      "pitch": 67,
      "velocity": 80,
      "startTime": 8.5,
      "duration": 0.2489583333333325,
      "endTime": 8.748958333333333
    },
    {
      "instrumentId": 1,
      "instrumentName": "Piano",
      "isPercussion": false,
      "pitch": 52,
      "velocity": 80,
      "startTime": 8.5,
      "duration": 0.2489583333333325,
      "endTime": 8.748958333333333
    },
    {
      "instrumentId": 1,
      "instrumentName": "Piano",
      "isPercussion": false,
      "pitch": 57,
      "velocity": 80,
      "startTime": 8.5,
      "duration": 0.2489583333333325,
      "endTime": 8.748958333333333
    },
    {
      "instrumentId": 0,
      "instrumentName": "Piano",
      "isPercussion": false,
      "pitch": 69,
      "velocity": 80,
      "startTime": 8.75,
      "duration": 0.2489583333333325,
      "endTime": 8.998958333333333
    },
    {
      "instrumentId": 1,
      "instrumentName": "Piano",
      "isPercussion": false,
      "pitch": 45,
      "velocity": 80,
      "startTime": 8.75,
      "duration": 0.2489583333333325,
      "endTime": 8.998958333333333
    },
    {
      "instrumentId": 0,
      "instrumentName": "Piano",
      "isPercussion": false,
      "pitch": 72,
      "velocity": 80,
      "startTime": 9.0,
      "duration": 0.2489583333333325,
      "endTime": 9.248958333333333
    },
    {
      "instrumentId": 1,
      "instrumentName": "Piano",
      "isPercussion": false,
      "pitch": 43,
      "velocity": 80,
      "startTime": 9.0,
      "duration": 0.4989583333333325,
      "endTime": 9.498958333333333
    },
    {
      "instrumentId": 0,
      "instrumentName": "Piano",
      "isPercussion": false,
      "pitch": 69,
      "velocity": 80,
      "startTime": 9.25,
      "duration": 0.2489583333333325,
      "endTime": 9.498958333333333
    },
    {
      "instrumentId": 0,
      "instrumentName": "Piano",
      "isPercussion": false,
      "pitch": 67,
      "velocity": 80,
      "startTime": 9.5,
      "duration": 0.2489583333333325,
      "endTime": 9.748958333333333
    },
    {
      "instrumentId": 1,
      "instrumentName": "Piano",
      "isPercussion": false,
      "pitch": 52,
      "velocity": 80,
      "startTime": 9.5,
      "duration": 0.2489583333333325,
      "endTime": 9.748958333333333
    },
    {
      "instrumentId": 1,
      "instrumentName": "Piano",
      "isPercussion": false,
      "pitch": 55,
      "velocity": 80,
      "startTime": 9.5,
      "duration": 0.2489583333333325,
      "endTime": 9.748958333333333
    },
    {
      "instrumentId": 0,
      "instrumentName": "Piano",
      "isPercussion": false,
      "pitch": 69,
      "velocity": 80,
      "startTime": 9.75,
      "duration": 0.2489583333333325,
      "endTime": 9.998958333333333
    },
    {
      "instrumentId": 1,
      "instrumentName": "Piano",
      "isPercussion": false,
      "pitch": 43,
      "velocity": 80,
      "startTime": 9.75,
      "duration": 0.2489583333333325,
      "endTime": 9.998958333333333
    },
    {
      "instrumentId": 0,
      "instrumentName": "Piano",
      "isPercussion": false,
      "pitch": 72,
      "velocity": 80,
      "startTime": 10.0,
      "duration": 0.2489583333333325,
      "endTime": 10.248958333333333
    },
    {
      "instrumentId": 1,
      "instrumentName": "Piano",
      "isPercussion": false,
      "pitch": 41,
      "velocity": 80,
      "startTime": 10.0,
      "duration": 0.4989583333333325,
      "endTime": 10.498958333333333
    },
    {
      "instrumentId": 0,
      "instrumentName": "Piano",
      "isPercussion": false,
      "pitch": 69,
      "velocity": 80,
      "startTime": 10.25,
      "duration": 0.2489583333333325,
      "endTime": 10.498958333333333
    },
    {
      "instrumentId": 0,
      "instrumentName": "Piano",
      "isPercussion": false,
      "pitch": 67,
      "velocity": 80,
      "startTime": 10.5,
      "duration": 0.2489583333333325,
      "endTime": 10.748958333333333
    },
    {
      "instrumentId": 1,
      "instrumentName": "Piano",
      "isPercussion": false,
      "pitch": 48,
      "velocity": 80,
      "startTime": 10.5,
      "duration": 0.2489583333333325,
      "endTime": 10.748958333333333
    },
    {
      "instrumentId": 1,
      "instrumentName": "Piano",
      "isPercussion": false,
      "pitch": 53,
      "velocity": 80,
      "startTime": 10.5,
      "duration": 0.2489583333333325,
      "endTime": 10.748958333333333
    },
    {
      "instrumentId": 0,
      "instrumentName": "Piano",
      "isPercussion": false,
      "pitch": 69,
      "velocity": 80,
      "startTime": 10.75,
      "duration": 0.2489583333333325,
      "endTime": 10.998958333333333
    },
    {
      "instrumentId": 1,
      "instrumentName": "Piano",
      "isPercussion": false,
      "pitch": 41,
      "velocity": 80,
      "startTime": 10.75,
      "duration": 0.2489583333333325,
      "endTime": 10.998958333333333
    },
    {
      "instrumentId": 0,
      "instrumentName": "Piano",
      "isPercussion": false,
      "pitch": 76,
      "velocity": 80,
      "startTime": 11.0,
      "duration": 0.2489583333333325,
      "endTime": 11.248958333333333
    },
    {
      "instrumentId": 1,
      "instrumentName": "Piano",
      "isPercussion": false,
      "pitch": 48,
      "velocity": 80,
      "startTime": 11.0,
      "duration": 0.2489583333333325,
      "endTime": 11.248958333333333
    },
    {
      "instrumentId": 0,
      "instrumentName": "Piano",
      "isPercussion": false,
      "pitch": 74,
      "velocity": 80,
      "startTime": 11.25,
      "duration": 0.2489583333333325,
      "endTime": 11.498958333333333
    },
    {
      "instrumentId": 1,
      "instrumentName": "Piano",
      "isPercussion": false,
      "pitch": 55,
      "velocity": 80,
      "startTime": 11.25,
      "duration": 0.2489583333333325,
      "endTime": 11.498958333333333
    },
    {
      "instrumentId": 1,
      "instrumentName": "Piano",
      "isPercussion": false,
      "pitch": 60,
      "velocity": 80,
      "startTime": 11.25,
      "duration": 0.2489583333333325,
      "endTime": 11.498958333333333
    },
    {
      "instrumentId": 0,
      "instrumentName": "Piano",
      "isPercussion": false,
      "pitch": 72,
      "velocity": 80,
      "startTime": 11.5,
      "duration": 0.2489583333333325,
      "endTime": 11.748958333333333
    },
    {
      "instrumentId": 1,
      "instrumentName": "Piano",
      "isPercussion": false,
      "pitch": 48,
      "velocity": 80,
      "startTime": 11.5,
      "duration": 0.2489583333333325,
      "endTime": 11.748958333333333
    },
    {
      "instrumentId": 0,
      "instrumentName": "Piano",
      "isPercussion": false,
      "pitch": 74,
      "velocity": 80,
      "startTime": 11.75,
      "duration": 0.2489583333333325,
      "endTime": 11.998958333333333
    },
    {
      "instrumentId": 1,
      "instrumentName": "Piano",
      "isPercussion": false,
      "pitch": 43,
      "velocity": 80,
      "startTime": 11.75,
      "duration": 0.2489583333333325,
      "endTime": 11.998958333333333
    },
    {
      "instrumentId": 0,
      "instrumentName": "Piano",
      "isPercussion": false,
      "pitch": 72,
      "velocity": 80,
      "startTime": 12.0,
      "duration": 0.2489583333333325,
      "endTime": 12.248958333333333
    },
    {
      "instrumentId": 1,
      "instrumentName": "Piano",
      "isPercussion": false,
      "pitch": 45,
      "velocity": 80,
      "startTime": 12.0,
      "duration": 0.4989583333333325,
      "endTime": 12.498958333333333
    },
    {
      "instrumentId": 0,
      "instrumentName": "Piano",
      "isPercussion": false,
      "pitch": 69,
      "velocity": 80,
      "startTime": 12.25,
      "duration": 0.2489583333333325,
      "endTime": 12.498958333333333
    },
    {
      "instrumentId": 0,
      "instrumentName": "Piano",
      "isPercussion": false,
      "pitch": 67,
      "velocity": 80,
      "startTime": 12.5,
      "duration": 0.2489583333333325,
      "endTime": 12.748958333333333
    },
    {
      "instrumentId": 1,
      "instrumentName": "Piano",
      "isPercussion": false,
      "pitch": 52,
      "velocity": 80,
      "startTime": 12.5,
      "duration": 0.2489583333333325,
      "endTime": 12.748958333333333
    },
    {
      "instrumentId": 1,
      "instrumentName": "Piano",
      "isPercussion": false,
      "pitch": 57,
      "velocity": 80,
      "startTime": 12.5,
      "duration": 0.2489583333333325,
      "endTime": 12.748958333333333
    },
    {
      "instrumentId": 0,
      "instrumentName": "Piano",
      "isPercussion": false,
      "pitch": 69,
      "velocity": 80,
      "startTime": 12.75,
      "duration": 0.2489583333333325,
      "endTime": 12.998958333333333
    },
    {
      "instrumentId": 1,
      "instrumentName": "Piano",
      "isPercussion": false,
      "pitch": 45,
      "velocity": 80,
      "startTime": 12.75,
      "duration": 0.2489583333333325,
      "endTime": 12.998958333333333
    },
    {
      "instrumentId": 0,
      "instrumentName": "Piano",
      "isPercussion": false,
      "pitch": 72,
      "velocity": 80,
      "startTime": 13.0,
      "duration": 0.2489583333333325,
      "endTime": 13.248958333333333
    },
    {
      "instrumentId": 1,
      "instrumentName": "Piano",
      "isPercussion": false,
      "pitch": 43,
      "velocity": 80,
      "startTime": 13.0,
      "duration": 0.4989583333333325,
      "endTime": 13.498958333333333
    },
    {
      "instrumentId": 0,
      "instrumentName": "Piano",
      "isPercussion": false,
      "pitch": 69,
      "velocity": 80,
      "startTime": 13.25,
      "duration": 0.2489583333333325,
      "endTime": 13.498958333333333
    },
    {
      "instrumentId": 0,
      "instrumentName": "Piano",
      "isPercussion": false,
      "pitch": 67,
      "velocity": 80,
      "startTime": 13.5,
      "duration": 0.2489583333333325,
      "endTime": 13.748958333333333
    },
    {
      "instrumentId": 1,
      "instrumentName": "Piano",
      "isPercussion": false,
      "pitch": 52,
      "velocity": 80,
      "startTime": 13.5,
      "duration": 0.2489583333333325,
      "endTime": 13.748958333333333
    },
    {
      "instrumentId": 1,
      "instrumentName": "Piano",
      "isPercussion": false,
      "pitch": 55,
      "velocity": 80,
      "startTime": 13.5,
      "duration": 0.2489583333333325,
      "endTime": 13.748958333333333
    },
    {
      "instrumentId": 0,
      "instrumentName": "Piano",
      "isPercussion": false,
      "pitch": 69,
      "velocity": 80,
      "startTime": 13.75,
      "duration": 0.2489583333333325,
      "endTime": 13.998958333333333
    },
    {
      "instrumentId": 1,
      "instrumentName": "Piano",
      "isPercussion": false,
      "pitch": 43,
      "velocity": 80,
      "startTime": 13.75,
      "duration": 0.2489583333333325,
      "endTime": 13.998958333333333
    },
    {
      "instrumentId": 0,
      "instrumentName": "Piano",
      "isPercussion": false,
      "pitch": 72,
      "velocity": 80,
      "startTime": 14.0,
      "duration": 0.2489583333333325,
      "endTime": 14.248958333333333
    },
    {
      "instrumentId": 1,
      "instrumentName": "Piano",
      "isPercussion": false,
      "pitch": 41,
      "velocity": 80,
      "startTime": 14.0,
      "duration": 0.4989583333333325,
      "endTime": 14.498958333333333
    },
    {
      "instrumentId": 0,
      "instrumentName": "Piano",
      "isPercussion": false,
      "pitch": 69,
      "velocity": 80,
      "startTime": 14.25,
      "duration": 0.2489583333333325,
      "endTime": 14.498958333333333
    },
    {
      "instrumentId": 0,
      "instrumentName": "Piano",
      "isPercussion": false,
      "pitch": 67,
      "velocity": 80,
      "startTime": 14.5,
      "duration": 0.2489583333333325,
      "endTime": 14.748958333333333
    },
    {
      "instrumentId": 1,
      "instrumentName": "Piano",
      "isPercussion": false,
      "pitch": 48,
      "velocity": 80,
      "startTime": 14.5,
      "duration": 0.2489583333333325,
      "endTime": 14.748958333333333
    },
    {
      "instrumentId": 1,
      "instrumentName": "Piano",
      "isPercussion": false,
      "pitch": 53,
      "velocity": 80,
      "startTime": 14.5,
      "duration": 0.2489583333333325,
      "endTime": 14.748958333333333
    },
    {
      "instrumentId": 0,
      "instrumentName": "Piano",
      "isPercussion": false,
      "pitch": 69,
      "velocity": 80,
      "startTime": 14.75,
      "duration": 0.2489583333333325,
      "endTime": 14.998958333333333
    },
    {
      "instrumentId": 1,
      "instrumentName": "Piano",
      "isPercussion": false,
      "pitch": 41,
      "velocity": 80,
      "startTime": 14.75,
      "duration": 0.2489583333333325,
      "endTime": 14.998958333333333
    },
    {
      "instrumentId": 0,
      "instrumentName": "Piano",
      "isPercussion": false,
      "pitch": 72,
      "velocity": 80,
      "startTime": 15.0,
      "duration": 0.9989583333333325,
      "endTime": 15.998958333333333
    },
    {
      "instrumentId": 1,
      "instrumentName": "Piano",
      "isPercussion": false,
      "pitch": 36,
      "velocity": 80,
      "startTime": 15.0,
      "duration": 0.2489583333333325,
      "endTime": 15.248958333333333
    },
    {
      "instrumentId": 1,
      "instrumentName": "Piano",
      "isPercussion": false,
      "pitch": 43,
      "velocity": 80,
      "startTime": 15.25,
      "duration": 0.2489583333333325,
      "endTime": 15.498958333333333
    },
    {
      "instrumentId": 1,
      "instrumentName": "Piano",
      "isPercussion": false,
      "pitch": 48,
      "velocity": 80,
      "startTime": 15.5,
      "duration": 0.2489583333333325,
      "endTime": 15.748958333333333
    },
    {
      "instrumentId": 1,
      "instrumentName": "Piano",
      "isPercussion": false,
      "pitch": 43,
      "velocity": 80,
      "startTime": 15.75,
      "duration": 0.2489583333333325,
      "endTime": 15.998958333333333
    },
    {
      "instrumentId": 1,
      "instrumentName": "Piano",
      "isPercussion": false,
      "pitch": 45,
      "velocity": 80,
      "startTime": 16.0,
      "duration": 0.4989583333333343,
      "endTime": 16.498958333333334
    },
    {
      "instrumentId": 0,
      "instrumentName": "Piano",
      "isPercussion": false,
      "pitch": 67,
      "velocity": 80,
      "startTime": 16.25,
      "duration": 0.24895833333333428,
      "endTime": 16.498958333333334
    },
    {
      "instrumentId": 0,
      "instrumentName": "Piano",
      "isPercussion": false,
      "pitch": 72,
      "velocity": 80,
      "startTime": 16.25,
      "duration": 0.24895833333333428,
      "endTime": 16.498958333333334
    },
    {
      "instrumentId": 0,
      "instrumentName": "Piano",
      "isPercussion": false,
      "pitch": 76,
      "velocity": 80,
      "startTime": 16.25,
      "duration": 0.24895833333333428,
      "endTime": 16.498958333333334
    },
    {
      "instrumentId": 0,
      "instrumentName": "Piano",
      "isPercussion": false,
      "pitch": 76,
      "velocity": 80,
      "startTime": 16.5,
      "duration": 0.24895833333333428,
      "endTime": 16.748958333333334
    },
    {
      "instrumentId": 1,
      "instrumentName": "Piano",
      "isPercussion": false,
      "pitch": 52,
      "velocity": 80,
      "startTime": 16.5,
      "duration": 0.24895833333333428,
      "endTime": 16.748958333333334
    },
    {
      "instrumentId": 1,
      "instrumentName": "Piano",
      "isPercussion": false,
      "pitch": 57,
      "velocity": 80,
      "startTime": 16.5,
      "duration": 0.24895833333333428,
      "endTime": 16.748958333333334
    },
    {
      "instrumentId": 0,
      "instrumentName": "Piano",
      "isPercussion": false,
      "pitch": 76,
      "velocity": 80,
      "startTime": 16.75,
      "duration": 0.24895833333333428,
      "endTime": 16.998958333333334
    },
    {
      "instrumentId": 1,
      "instrumentName": "Piano",
      "isPercussion": false,
      "pitch": 45,
      "velocity": 80,
      "startTime": 16.75,
      "duration": 0.24895833333333428,
      "endTime": 16.998958333333334
    },
    {
      "instrumentId": 0,
      "instrumentName": "Piano",
      "isPercussion": false,
      "pitch": 72,
      "velocity": 80,
      "startTime": 17.0,
      "duration": 0.9989583333333343,
      "endTime": 17.998958333333334
    },
    {
      "instrumentId": 0,
      "instrumentName": "Piano",
      "isPercussion": false,
      "pitch": 76,
      "velocity": 80,
      "startTime": 17.0,
      "duration": 0.9989583333333343,
      "endTime": 17.998958333333334
    },
    {
      "instrumentId": 1,
      "instrumentName": "Piano",
      "isPercussion": false,
      "pitch": 43,
      "velocity": 80,
      "startTime": 17.0,
      "duration": 0.4989583333333343,
      "endTime": 17.498958333333334
    },
    {
      "instrumentId": 1,
      "instrumentName": "Piano",
      "isPercussion": false,
      "pitch": 52,
      "velocity": 80,
      "startTime": 17.5,
      "duration": 0.24895833333333428,
      "endTime": 17.748958333333334
    },
    {
      "instrumentId": 1,
      "instrumentName": "Piano",
      "isPercussion": false,
      "pitch": 55,
      "velocity": 80,
      "startTime": 17.5,
      "duration": 0.24895833333333428,
      "endTime": 17.748958333333334
    },
    {
      "instrumentId": 1,
      "instrumentName": "Piano",
      "isPercussion": false,
      "pitch": 43,
      "velocity": 80,
      "startTime": 17.75,
      "duration": 0.24895833333333428,
      "endTime": 17.998958333333334
    },
    {
      "instrumentId": 1,
      "instrumentName": "Piano",
      "isPercussion": false,
      "pitch": 41,
      "velocity": 80,
      "startTime": 18.0,
      "duration": 0.4989583333333343,
      "endTime": 18.498958333333334
    },
    {
      "instrumentId": 0,
      "instrumentName": "Piano",
      "isPercussion": false,
      "pitch": 69,
      "velocity": 80,
      "startTime": 18.25,
      "duration": 0.24895833333333428,
      "endTime": 18.498958333333334
    },
    {
      "instrumentId": 0,
      "instrumentName": "Piano",
      "isPercussion": false,
      "pitch": 72,
      "velocity": 80,
      "startTime": 18.25,
      "duration": 0.24895833333333428,
      "endTime": 18.498958333333334
    },
    {
      "instrumentId": 0,
      "instrumentName": "Piano",
      "isPercussion": false,
      "pitch": 77,
      "velocity": 80,
      "startTime": 18.25,
      "duration": 0.24895833333333428,
      "endTime": 18.498958333333334
    },
    {
      "instrumentId": 0,
      "instrumentName": "Piano",
      "isPercussion": false,
      "pitch": 77,
      "velocity": 80,
      "startTime": 18.5,
      "duration": 0.24895833333333428,
      "endTime": 18.748958333333334
    },
    {
      "instrumentId": 1,
      "instrumentName": "Piano",
      "isPercussion": false,
      "pitch": 48,
      "velocity": 80,
      "startTime": 18.5,
      "duration": 0.24895833333333428,
      "endTime": 18.748958333333334
    },
    {
      "instrumentId": 1,
      "instrumentName": "Piano",
      "isPercussion": false,
      "pitch": 53,
      "velocity": 80,
      "startTime": 18.5,
      "duration": 0.24895833333333428,
      "endTime": 18.748958333333334
    },
    {
      "instrumentId": 0,
      "instrumentName": "Piano",
      "isPercussion": false,
      "pitch": 77,
      "velocity": 80,
      "startTime": 18.75,
      "duration": 0.24895833333333428,
      "endTime": 18.998958333333334
    },
    {
      "instrumentId": 1,
      "instrumentName": "Piano",
      "isPercussion": false,
      "pitch": 41,
      "velocity": 80,
      "startTime": 18.75,
      "duration": 0.24895833333333428,
      "endTime": 18.998958333333334
    },
    {
      "instrumentId": 0,
      "instrumentName": "Piano",
      "isPercussion": false,
      "pitch": 67,
      "velocity": 80,
      "startTime": 19.0,
      "duration": 0.24895833333333428,
      "endTime": 19.248958333333334
    },
    {
      "instrumentId": 0,
      "instrumentName": "Piano",
      "isPercussion": false,
      "pitch": 72,
      "velocity": 80,
      "startTime": 19.0,
      "duration": 0.24895833333333428,
      "endTime": 19.248958333333334
    },
    {
      "instrumentId": 0,
      "instrumentName": "Piano",
      "isPercussion": false,
      "pitch": 77,
      "velocity": 80,
      "startTime": 19.0,
      "duration": 0.24895833333333428,
      "endTime": 19.248958333333334
    },
    {
      "instrumentId": 1,
      "instrumentName": "Piano",
      "isPercussion": false,
      "pitch": 48,
      "velocity": 80,
      "startTime": 19.0,
      "duration": 0.24895833333333428,
      "endTime": 19.248958333333334
    },
    {
      "instrumentId": 0,
      "instrumentName": "Piano",
      "isPercussion": false,
      "pitch": 67,
      "velocity": 80,
      "startTime": 19.25,
      "duration": 0.7489583333333343,
      "endTime": 19.998958333333334
    },
    {
      "instrumentId": 0,
      "instrumentName": "Piano",
      "isPercussion": false,
      "pitch": 72,
      "velocity": 80,
      "startTime": 19.25,
      "duration": 0.7489583333333343,
      "endTime": 19.998958333333334
    },
    {
      "instrumentId": 0,
      "instrumentName": "Piano",
      "isPercussion": false,
      "pitch": 76,
      "velocity": 80,
      "startTime": 19.25,
      "duration": 0.7489583333333343,
      "endTime": 19.998958333333334
    },
    {
      "instrumentId": 1,
      "instrumentName": "Piano",
      "isPercussion": false,
      "pitch": 55,
      "velocity": 80,
      "startTime": 19.25,
      "duration": 0.24895833333333428,
      "endTime": 19.498958333333334
    },
    {
      "instrumentId": 1,
      "instrumentName": "Piano",
      "isPercussion": false,
      "pitch": 60,
      "velocity": 80,
      "startTime": 19.25,
      "duration": 0.24895833333333428,
      "endTime": 19.498958333333334
    },
    {
      "instrumentId": 1,
      "instrumentName": "Piano",
      "isPercussion": false,
      "pitch": 48,
      "velocity": 80,
      "startTime": 19.5,
      "duration": 0.24895833333333428,
      "endTime": 19.748958333333334
    },
    {
      "instrumentId": 1,
      "instrumentName": "Piano",
      "isPercussion": false,
      "pitch": 43,
      "velocity": 80,
      "startTime": 19.75,
      "duration": 0.24895833333333428,
      "endTime": 19.998958333333334
    },
    {
      "instrumentId": 1,
      "instrumentName": "Piano",
      "isPercussion": false,
      "pitch": 45,
      "velocity": 80,
      "startTime": 20.0,
      "duration": 0.4989583333333343,
      "endTime": 20.498958333333334
    },
    {
      "instrumentId": 0,
      "instrumentName": "Piano",
      "isPercussion": false,
      "pitch": 69,
      "velocity": 80,
      "startTime": 20.5,
      "duration": 0.24895833333333428,
      "endTime": 20.748958333333334
    },
    {
      "instrumentId": 0,
      "instrumentName": "Piano",
      "isPercussion": false,
      "pitch": 77,
      "velocity": 80,
      "startTime": 20.5,
      "duration": 0.24895833333333428,
      "endTime": 20.748958333333334
    },
    {
      "instrumentId": 1,
      "instrumentName": "Piano",
      "isPercussion": false,
      "pitch": 52,
      "velocity": 80,
      "startTime": 20.5,
      "duration": 0.24895833333333428,
      "endTime": 20.748958333333334
    },
    {
      "instrumentId": 1,
      "instrumentName": "Piano",
      "isPercussion": false,
      "pitch": 57,
      "velocity": 80,
      "startTime": 20.5,
      "duration": 0.24895833333333428,
      "endTime": 20.748958333333334
    },
    {
      "instrumentId": 0,
      "instrumentName": "Piano",
      "isPercussion": false,
      "pitch": 69,
      "velocity": 80,
      "startTime": 20.75,
      "duration": 0.24895833333333428,
      "endTime": 20.998958333333334
    },
    {
      "instrumentId": 0,
      "instrumentName": "Piano",
      "isPercussion": false,
      "pitch": 77,
      "velocity": 80,
      "startTime": 20.75,
      "duration": 0.24895833333333428,
      "endTime": 20.998958333333334
    },
    {
      "instrumentId": 1,
      "instrumentName": "Piano",
      "isPercussion": false,
      "pitch": 45,
      "velocity": 80,
      "startTime": 20.75,
      "duration": 0.24895833333333428,
      "endTime": 20.998958333333334
    },
    {
      "instrumentId": 0,
      "instrumentName": "Piano",
      "isPercussion": false,
      "pitch": 69,
      "velocity": 80,
      "startTime": 21.0,
      "duration": 0.24895833333333428,
      "endTime": 21.248958333333334
    },
    {
      "instrumentId": 0,
      "instrumentName": "Piano",
      "isPercussion": false,
      "pitch": 77,
      "velocity": 80,
      "startTime": 21.0,
      "duration": 0.24895833333333428,
      "endTime": 21.248958333333334
    },
    {
      "instrumentId": 1,
      "instrumentName": "Piano",
      "isPercussion": false,
      "pitch": 43,
      "velocity": 80,
      "startTime": 21.0,
      "duration": 0.4989583333333343,
      "endTime": 21.498958333333334
    },
    {
      "instrumentId": 0,
      "instrumentName": "Piano",
      "isPercussion": false,
      "pitch": 67,
      "velocity": 80,
      "startTime": 21.25,
      "duration": 0.24895833333333428,
      "endTime": 21.498958333333334
    },
    {
      "instrumentId": 0,
      "instrumentName": "Piano",
      "isPercussion": false,
      "pitch": 76,
      "velocity": 80,
      "startTime": 21.25,
      "duration": 0.24895833333333428,
      "endTime": 21.498958333333334
    },
    {
      "instrumentId": 0,
      "instrumentName": "Piano",
      "isPercussion": false,
      "pitch": 67,
      "velocity": 80,
      "startTime": 21.5,
      "duration": 0.24895833333333428,
      "endTime": 21.748958333333334
    },
    {
      "instrumentId": 0,
      "instrumentName": "Piano",
      "isPercussion": false,
      "pitch": 76,
      "velocity": 80,
      "startTime": 21.5,
      "duration": 0.24895833333333428,
      "endTime": 21.748958333333334
    },
    {
      "instrumentId": 1,
      "instrumentName": "Piano",
      "isPercussion": false,
      "pitch": 52,
      "velocity": 80,
      "startTime": 21.5,
      "duration": 0.24895833333333428,
      "endTime": 21.748958333333334
    },
    {
      "instrumentId": 1,
      "instrumentName": "Piano",
      "isPercussion": false,
      "pitch": 55,
      "velocity": 80,
      "startTime": 21.5,
      "duration": 0.24895833333333428,
      "endTime": 21.748958333333334
    },
    {
      "instrumentId": 0,
      "instrumentName": "Piano",
      "isPercussion": false,
      "pitch": 67,
      "velocity": 80,
      "startTime": 21.75,
      "duration": 0.24895833333333428,
      "endTime": 21.998958333333334
    },
    {
      "instrumentId": 0,
      "instrumentName": "Piano",
      "isPercussion": false,
      "pitch": 76,
      "velocity": 80,
      "startTime": 21.75,
      "duration": 0.24895833333333428,
      "endTime": 21.998958333333334
    },
    {
      "instrumentId": 1,
      "instrumentName": "Piano",
      "isPercussion": false,
      "pitch": 43,
      "velocity": 80,
      "startTime": 21.75,
      "duration": 0.24895833333333428,
      "endTime": 21.998958333333334
    },
    {
      "instrumentId": 0,
      "instrumentName": "Piano",
      "isPercussion": false,
      "pitch": 65,
      "velocity": 80,
      "startTime": 22.0,
      "duration": 0.4989583333333343,
      "endTime": 22.498958333333334
    },
    {
      "instrumentId": 0,
      "instrumentName": "Piano",
      "isPercussion": false,
      "pitch": 74,
      "velocity": 80,
      "startTime": 22.0,
      "duration": 0.4989583333333343,
      "endTime": 22.498958333333334
    },
    {
      "instrumentId": 1,
      "instrumentName": "Piano",
      "isPercussion": false,
      "pitch": 41,
      "velocity": 80,
      "startTime": 22.0,
      "duration": 0.4989583333333343,
      "endTime": 22.498958333333334
    },
    {
      "instrumentId": 0,
      "instrumentName": "Piano",
      "isPercussion": false,
      "pitch": 65,
      "velocity": 80,
      "startTime": 22.5,
      "duration": 0.24895833333333428,
      "endTime": 22.748958333333334
    },
    {
      "instrumentId": 0,
      "instrumentName": "Piano",
      "isPercussion": false,
      "pitch": 74,
      "velocity": 80,
      "startTime": 22.5,
      "duration": 0.24895833333333428,
      "endTime": 22.748958333333334
    },
    {
      "instrumentId": 1,
      "instrumentName": "Piano",
      "isPercussion": false,
      "pitch": 48,
      "velocity": 80,
      "startTime": 22.5,
      "duration": 0.24895833333333428,
      "endTime": 22.748958333333334
    },
    {
      "instrumentId": 1,
      "instrumentName": "Piano",
      "isPercussion": false,
      "pitch": 53,
      "velocity": 80,
      "startTime": 22.5,
      "duration": 0.24895833333333428,
      "endTime": 22.748958333333334
    },
    {
      "instrumentId": 0,
      "instrumentName": "Piano",
      "isPercussion": false,
      "pitch": 65,
      "velocity": 80,
      "startTime": 22.75,
      "duration": 0.24895833333333428,
      "endTime": 22.998958333333334
    },
    {
      "instrumentId": 0,
      "instrumentName": "Piano",
      "isPercussion": false,
      "pitch": 74,
      "velocity": 80,
      "startTime": 22.75,
      "duration": 0.24895833333333428,
      "endTime": 22.998958333333334
    },
    {
      "instrumentId": 1,
      "instrumentName": "Piano",
      "isPercussion": false,
      "pitch": 41,
      "velocity": 80,
      "startTime": 22.75,
      "duration": 0.24895833333333428,
      "endTime": 22.998958333333334
    },
    {
      "instrumentId": 0,
      "instrumentName": "Piano",
      "isPercussion": false,
      "pitch": 65,
      "velocity": 80,
      "startTime": 23.0,
      "duration": 0.24895833333333428,
      "endTime": 23.248958333333334
    },
    {
      "instrumentId": 0,
      "instrumentName": "Piano",
      "isPercussion": false,
      "pitch": 74,
      "velocity": 80,
      "startTime": 23.0,
      "duration": 0.24895833333333428,
      "endTime": 23.248958333333334
    },
    {
      "instrumentId": 1,
      "instrumentName": "Piano",
      "isPercussion": false,
      "pitch": 36,
      "velocity": 80,
      "startTime": 23.0,
      "duration": 0.24895833333333428,
      "endTime": 23.248958333333334
    },
    {
      "instrumentId": 0,
      "instrumentName": "Piano",
      "isPercussion": false,
      "pitch": 64,
      "velocity": 80,
      "startTime": 23.25,
      "duration": 0.7489583333333343,
      "endTime": 23.998958333333334
    },
    {
      "instrumentId": 0,
      "instrumentName": "Piano",
      "isPercussion": false,
      "pitch": 72,
      "velocity": 80,
      "startTime": 23.25,
      "duration": 0.7489583333333343,
      "endTime": 23.998958333333334
    },
    {
      "instrumentId": 1,
      "instrumentName": "Piano",
      "isPercussion": false,
      "pitch": 43,
      "velocity": 80,
      "startTime": 23.25,
      "duration": 0.24895833333333428,
      "endTime": 23.498958333333334
    },
    {
      "instrumentId": 1,
      "instrumentName": "Piano",
      "isPercussion": false,
      "pitch": 48,
      "velocity": 80,
      "startTime": 23.5,
      "duration": 0.24895833333333428,
      "endTime": 23.748958333333334
    },
    {
      "instrumentId": 1,
      "instrumentName": "Piano",
      "isPercussion": false,
      "pitch": 43,
      "velocity": 80,
      "startTime": 23.75,
      "duration": 0.24895833333333428,
      "endTime": 23.998958333333334
    },
    {
      "instrumentId": 1,
      "instrumentName": "Piano",
      "isPercussion": false,
      "pitch": 45,
      "velocity": 80,
      "startTime": 24.0,
      "duration": 0.4989583333333343,
      "endTime": 24.498958333333334
    },
    {
      "instrumentId": 0,
      "instrumentName": "Piano",
      "isPercussion": false,
      "pitch": 67,
      "velocity": 80,
      "startTime": 24.25,
      "duration": 0.24895833333333428,
      "endTime": 24.498958333333334
    },
    {
      "instrumentId": 0,
      "instrumentName": "Piano",
      "isPercussion": false,
      "pitch": 72,
      "velocity": 80,
      "startTime": 24.25,
      "duration": 0.24895833333333428,
      "endTime": 24.498958333333334
    },
    {
      "instrumentId": 0,
      "instrumentName": "Piano",
      "isPercussion": false,
      "pitch": 76,
      "velocity": 80,
      "startTime": 24.25,
      "duration": 0.24895833333333428,
      "endTime": 24.498958333333334
    },
    {
      "instrumentId": 0,
      "instrumentName": "Piano",
      "isPercussion": false,
      "pitch": 76,
      "velocity": 80,
      "startTime": 24.5,
      "duration": 0.24895833333333428,
      "endTime": 24.748958333333334
    },
    {
      "instrumentId": 1,
      "instrumentName": "Piano",
      "isPercussion": false,
      "pitch": 52,
      "velocity": 80,
      "startTime": 24.5,
      "duration": 0.24895833333333428,
      "endTime": 24.748958333333334
    },
    {
      "instrumentId": 1,
      "instrumentName": "Piano",
      "isPercussion": false,
      "pitch": 57,
      "velocity": 80,
      "startTime": 24.5,
      "duration": 0.24895833333333428,
      "endTime": 24.748958333333334
    },
    {
      "instrumentId": 0,
      "instrumentName": "Piano",
      "isPercussion": false,
      "pitch": 76,
      "velocity": 80,
      "startTime": 24.75,
      "duration": 0.24895833333333428,
      "endTime": 24.998958333333334
    },
    {
      "instrumentId": 1,
      "instrumentName": "Piano",
      "isPercussion": false,
      "pitch": 45,
      "velocity": 80,
      "startTime": 24.75,
      "duration": 0.24895833333333428,
      "endTime": 24.998958333333334
    },
    {
      "instrumentId": 0,
      "instrumentName": "Piano",
      "isPercussion": false,
      "pitch": 72,
      "velocity": 80,
      "startTime": 25.0,
      "duration": 0.9989583333333343,
      "endTime": 25.998958333333334
    },
    {
      "instrumentId": 0,
      "instrumentName": "Piano",
      "isPercussion": false,
      "pitch": 76,
      "velocity": 80,
      "startTime": 25.0,
      "duration": 0.9989583333333343,
      "endTime": 25.998958333333334
    },
    {
      "instrumentId": 1,
      "instrumentName": "Piano",
      "isPercussion": false,
      "pitch": 43,
      "velocity": 80,
      "startTime": 25.0,
      "duration": 0.4989583333333343,
      "endTime": 25.498958333333334
    },
    {
      "instrumentId": 1,
      "instrumentName": "Piano",
      "isPercussion": false,
      "pitch": 52,
      "velocity": 80,
      "startTime": 25.5,
      "duration": 0.24895833333333428,
      "endTime": 25.748958333333334
    },
    {
      "instrumentId": 1,
      "instrumentName": "Piano",
      "isPercussion": false,
      "pitch": 55,
      "velocity": 80,
      "startTime": 25.5,
      "duration": 0.24895833333333428,
      "endTime": 25.748958333333334
    },
    {
      "instrumentId": 1,
      "instrumentName": "Piano",
      "isPercussion": false,
      "pitch": 43,
      "velocity": 80,
      "startTime": 25.75,
      "duration": 0.24895833333333428,
      "endTime": 25.998958333333334
    },
    {
      "instrumentId": 1,
      "instrumentName": "Piano",
      "isPercussion": false,
      "pitch": 41,
      "velocity": 80,
      "startTime": 26.0,
      "duration": 0.4989583333333343,
      "endTime": 26.498958333333334
    },
    {
      "instrumentId": 0,
      "instrumentName": "Piano",
      "isPercussion": false,
      "pitch": 67,
      "velocity": 80,
      "startTime": 26.25,
      "duration": 0.24895833333333428,
      "endTime": 26.498958333333334
    },
    {
      "instrumentId": 0,
      "instrumentName": "Piano",
      "isPercussion": false,
      "pitch": 72,
      "velocity": 80,
      "startTime": 26.25,
      "duration": 0.24895833333333428,
      "endTime": 26.498958333333334
    },
    {
      "instrumentId": 0,
      "instrumentName": "Piano",
      "isPercussion": false,
      "pitch": 77,
      "velocity": 80,
      "startTime": 26.25,
      "duration": 0.24895833333333428,
      "endTime": 26.498958333333334
    },
    {
      "instrumentId": 0,
      "instrumentName": "Piano",
      "isPercussion": false,
      "pitch": 77,
      "velocity": 80,
      "startTime": 26.5,
      "duration": 0.24895833333333428,
      "endTime": 26.748958333333334
    },
    {
      "instrumentId": 1,
      "instrumentName": "Piano",
      "isPercussion": false,
      "pitch": 48,
      "velocity": 80,
      "startTime": 26.5,
      "duration": 0.24895833333333428,
      "endTime": 26.748958333333334
    },
    {
      "instrumentId": 1,
      "instrumentName": "Piano",
      "isPercussion": false,
      "pitch": 53,
      "velocity": 80,
      "startTime": 26.5,
      "duration": 0.24895833333333428,
      "endTime": 26.748958333333334
    },
    {
      "instrumentId": 0,
      "instrumentName": "Piano",
      "isPercussion": false,
      "pitch": 77,
      "velocity": 80,
      "startTime": 26.75,
      "duration": 0.24895833333333428,
      "endTime": 26.998958333333334
    },
    {
      "instrumentId": 1,
      "instrumentName": "Piano",
      "isPercussion": false,
      "pitch": 41,
      "velocity": 80,
      "startTime": 26.75,
      "duration": 0.24895833333333428,
      "endTime": 26.998958333333334
    },
    {
      "instrumentId": 0,
      "instrumentName": "Piano",
      "isPercussion": false,
      "pitch": 67,
      "velocity": 80,
      "startTime": 27.0,
      "duration": 0.24895833333333428,
      "endTime": 27.248958333333334
    },
    {
      "instrumentId": 0,
      "instrumentName": "Piano",
      "isPercussion": false,
      "pitch": 72,
      "velocity": 80,
      "startTime": 27.0,
      "duration": 0.24895833333333428,
      "endTime": 27.248958333333334
    },
    {
      "instrumentId": 0,
      "instrumentName": "Piano",
      "isPercussion": false,
      "pitch": 77,
      "velocity": 80,
      "startTime": 27.0,
      "duration": 0.24895833333333428,
      "endTime": 27.248958333333334
    },
    {
      "instrumentId": 1,
      "instrumentName": "Piano",
      "isPercussion": false,
      "pitch": 48,
      "velocity": 80,
      "startTime": 27.0,
      "duration": 0.24895833333333428,
      "endTime": 27.248958333333334
    },
    {
      "instrumentId": 0,
      "instrumentName": "Piano",
      "isPercussion": false,
      "pitch": 67,
      "velocity": 80,
      "startTime": 27.25,
      "duration": 0.7489583333333343,
      "endTime": 27.998958333333334
    },
    {
      "instrumentId": 0,
      "instrumentName": "Piano",
      "isPercussion": false,
      "pitch": 72,
      "velocity": 80,
      "startTime": 27.25,
      "duration": 0.7489583333333343,
      "endTime": 27.998958333333334
    },
    {
      "instrumentId": 0,
      "instrumentName": "Piano",
      "isPercussion": false,
      "pitch": 76,
      "velocity": 80,
      "startTime": 27.25,
      "duration": 0.7489583333333343,
      "endTime": 27.998958333333334
    },
    {
      "instrumentId": 1,
      "instrumentName": "Piano",
      "isPercussion": false,
      "pitch": 55,
      "velocity": 80,
      "startTime": 27.25,
      "duration": 0.24895833333333428,
      "endTime": 27.498958333333334
    },
    {
      "instrumentId": 1,
      "instrumentName": "Piano",
      "isPercussion": false,
      "pitch": 60,
      "velocity": 80,
      "startTime": 27.25,
      "duration": 0.24895833333333428,
      "endTime": 27.498958333333334
    },
    {
      "instrumentId": 1,
      "instrumentName": "Piano",
      "isPercussion": false,
      "pitch": 48,
      "velocity": 80,
      "startTime": 27.5,
      "duration": 0.24895833333333428,
      "endTime": 27.748958333333334
    },
    {
      "instrumentId": 1,
      "instrumentName": "Piano",
      "isPercussion": false,
      "pitch": 43,
      "velocity": 80,
      "startTime": 27.75,
      "duration": 0.24895833333333428,
      "endTime": 27.998958333333334
    },
    {
      "instrumentId": 1,
      "instrumentName": "Piano",
      "isPercussion": false,
      "pitch": 45,
      "velocity": 80,
      "startTime": 28.0,
      "duration": 0.4989583333333343,
      "endTime": 28.498958333333334
    },
    {
      "instrumentId": 0,
      "instrumentName": "Piano",
      "isPercussion": false,
      "pitch": 69,
      "velocity": 80,
      "startTime": 28.25,
      "duration": 0.24895833333333428,
      "endTime": 28.498958333333334
    },
    {
      "instrumentId": 0,
      "instrumentName": "Piano",
      "isPercussion": false,
      "pitch": 77,
      "velocity": 80,
      "startTime": 28.25,
      "duration": 0.24895833333333428,
      "endTime": 28.498958333333334
    },
    {
      "instrumentId": 0,
      "instrumentName": "Piano",
      "isPercussion": false,
      "pitch": 69,
      "velocity": 80,
      "startTime": 28.5,
      "duration": 0.24895833333333428,
      "endTime": 28.748958333333334
    },
    {
      "instrumentId": 0,
      "instrumentName": "Piano",
      "isPercussion": false,
      "pitch": 77,
      "velocity": 80,
      "startTime": 28.5,
      "duration": 0.24895833333333428,
      "endTime": 28.748958333333334
    },
    {
      "instrumentId": 1,
      "instrumentName": "Piano",
      "isPercussion": false,
      "pitch": 52,
      "velocity": 80,
      "startTime": 28.5,
      "duration": 0.24895833333333428,
      "endTime": 28.748958333333334
    },
    {
      "instrumentId": 1,
      "instrumentName": "Piano",
      "isPercussion": false,
      "pitch": 57,
      "velocity": 80,
      "startTime": 28.5,
      "duration": 0.24895833333333428,
      "endTime": 28.748958333333334
    },
    {
      "instrumentId": 0,
      "instrumentName": "Piano",
      "isPercussion": false,
      "pitch": 69,
      "velocity": 80,
      "startTime": 28.75,
      "duration": 0.24895833333333428,
      "endTime": 28.998958333333334
    },
    {
      "instrumentId": 0,
      "instrumentName": "Piano",
      "isPercussion": false,
      "pitch": 77,
      "velocity": 80,
      "startTime": 28.75,
      "duration": 0.24895833333333428,
      "endTime": 28.998958333333334
    },
    {
      "instrumentId": 1,
      "instrumentName": "Piano",
      "isPercussion": false,
      "pitch": 45,
      "velocity": 80,
      "startTime": 28.75,
      "duration": 0.24895833333333428,
      "endTime": 28.998958333333334
    },
    {
      "instrumentId": 0,
      "instrumentName": "Piano",
      "isPercussion": false,
      "pitch": 69,
      "velocity": 80,
      "startTime": 29.0,
      "duration": 0.33229166666666643,
      "endTime": 29.332291666666666
    },
    {
      "instrumentId": 0,
      "instrumentName": "Piano",
      "isPercussion": false,
      "pitch": 77,
      "velocity": 80,
      "startTime": 29.0,
      "duration": 0.33229166666666643,
      "endTime": 29.332291666666666
    },
    {
      "instrumentId": 1,
      "instrumentName": "Piano",
      "isPercussion": false,
      "pitch": 43,
      "velocity": 80,
      "startTime": 29.0,
      "duration": 0.4989583333333343,
      "endTime": 29.498958333333334
    },
    {
      "instrumentId": 0,
      "instrumentName": "Piano",
      "isPercussion": false,
      "pitch": 67,
      "velocity": 80,
      "startTime": 29.333333333333332,
      "duration": 0.33229166666666643,
      "endTime": 29.665625
    },
    {
      "instrumentId": 0,
      "instrumentName": "Piano",
      "isPercussion": false,
      "pitch": 76,
      "velocity": 80,
      "startTime": 29.333333333333332,
      "duration": 0.33229166666666643,
      "endTime": 29.665625
    },
    {
      "instrumentId": 1,
      "instrumentName": "Piano",
      "isPercussion": false,
      "pitch": 52,
      "velocity": 80,
      "startTime": 29.5,
      "duration": 0.24895833333333428,
      "endTime": 29.748958333333334
    },
    {
      "instrumentId": 1,
      "instrumentName": "Piano",
      "isPercussion": false,
      "pitch": 55,
      "velocity": 80,
      "startTime": 29.5,
      "duration": 0.24895833333333428,
      "endTime": 29.748958333333334
    },
    {
      "instrumentId": 0,
      "instrumentName": "Piano",
      "isPercussion": false,
      "pitch": 65,
      "velocity": 80,
      "startTime": 29.666666666666668,
      "duration": 0.33229166666666643,
      "endTime": 29.998958333333334
    },
    {
      "instrumentId": 0,
      "instrumentName": "Piano",
      "isPercussion": false,
      "pitch": 74,
      "velocity": 80,
      "startTime": 29.666666666666668,
      "duration": 0.33229166666666643,
      "endTime": 29.998958333333334
    },
    {
      "instrumentId": 1,
      "instrumentName": "Piano",
      "isPercussion": false,
      "pitch": 43,
      "velocity": 80,
      "startTime": 29.75,
      "duration": 0.24895833333333428,
      "endTime": 29.998958333333334
    },
    {
      "instrumentId": 0,
      "instrumentName": "Piano",
      "isPercussion": false,
      "pitch": 65,
      "velocity": 80,
      "startTime": 30.0,
      "duration": 0.33229166666666643,
      "endTime": 30.332291666666666
    },
    {
      "instrumentId": 0,
      "instrumentName": "Piano",
      "isPercussion": false,
      "pitch": 74,
      "velocity": 80,
      "startTime": 30.0,
      "duration": 0.33229166666666643,
      "endTime": 30.332291666666666
    },
    {
      "instrumentId": 1,
      "instrumentName": "Piano",
      "isPercussion": false,
      "pitch": 41,
      "velocity": 80,
      "startTime": 30.0,
      "duration": 0.4989583333333343,
      "endTime": 30.498958333333334
    },
    {
      "instrumentId": 0,
      "instrumentName": "Piano",
      "isPercussion": false,
      "pitch": 65,
      "velocity": 80,
      "startTime": 30.333333333333332,
      "duration": 0.33229166666666643,
      "endTime": 30.665625
    },
    {
      "instrumentId": 0,
      "instrumentName": "Piano",
      "isPercussion": false,
      "pitch": 74,
      "velocity": 80,
      "startTime": 30.333333333333332,
      "duration": 0.33229166666666643,
      "endTime": 30.665625
    },
    {
      "instrumentId": 1,
      "instrumentName": "Piano",
      "isPercussion": false,
      "pitch": 48,
      "velocity": 80,
      "startTime": 30.5,
      "duration": 0.24895833333333428,
      "endTime": 30.748958333333334
    },
    {
      "instrumentId": 1,
      "instrumentName": "Piano",
      "isPercussion": false,
      "pitch": 53,
      "velocity": 80,
      "startTime": 30.5,
      "duration": 0.24895833333333428,
      "endTime": 30.748958333333334
    },
    {
      "instrumentId": 0,
      "instrumentName": "Piano",
      "isPercussion": false,
      "pitch": 65,
      "velocity": 80,
      "startTime": 30.666666666666668,
      "duration": 0.33229166666666643,
      "endTime": 30.998958333333334
    },
    {
      "instrumentId": 0,
      "instrumentName": "Piano",
      "isPercussion": false,
      "pitch": 74,
      "velocity": 80,
      "startTime": 30.666666666666668,
      "duration": 0.33229166666666643,
      "endTime": 30.998958333333334
    },
    {
      "instrumentId": 1,
      "instrumentName": "Piano",
      "isPercussion": false,
      "pitch": 41,
      "velocity": 80,
      "startTime": 30.75,
      "duration": 0.24895833333333428,
      "endTime": 30.998958333333334
    },
    {
      "instrumentId": 0,
      "instrumentName": "Piano",
      "isPercussion": false,
      "pitch": 65,
      "velocity": 80,
      "startTime": 31.0,
      "duration": 0.24895833333333428,
      "endTime": 31.248958333333334
    },
    {
      "instrumentId": 0,
      "instrumentName": "Piano",
      "isPercussion": false,
      "pitch": 74,
      "velocity": 80,
      "startTime": 31.0,
      "duration": 0.24895833333333428,
      "endTime": 31.248958333333334
    },
    {
      "instrumentId": 1,
      "instrumentName": "Piano",
      "isPercussion": false,
      "pitch": 36,
      "velocity": 80,
      "startTime": 31.0,
      "duration": 0.24895833333333428,
      "endTime": 31.248958333333334
    },
    {
      "instrumentId": 0,
      "instrumentName": "Piano",
      "isPercussion": false,
      "pitch": 64,
      "velocity": 80,
      "startTime": 31.25,
      "duration": 0.4989583333333343,
      "endTime": 31.748958333333334
    },
    {
      "instrumentId": 0,
      "instrumentName": "Piano",
      "isPercussion": false,
      "pitch": 72,
      "velocity": 80,
      "startTime": 31.25,
      "duration": 0.4989583333333343,
      "endTime": 31.748958333333334
    },
    {
      "instrumentId": 1,
      "instrumentName": "Piano",
      "isPercussion": false,
      "pitch": 43,
      "velocity": 80,
      "startTime": 31.25,
      "duration": 0.24895833333333428,
      "endTime": 31.498958333333334
    },
    {
      "instrumentId": 1,
      "instrumentName": "Piano",
      "isPercussion": false,
      "pitch": 48,
      "velocity": 80,
      "startTime": 31.5,
      "duration": 0.24895833333333428,
      "endTime": 31.748958333333334
    },
    {
      "instrumentId": 0,
      "instrumentName": "Piano",
      "isPercussion": false,
      "pitch": 72,
      "velocity": 80,
      "startTime": 31.75,
      "duration": 0.24895833333333428,
      "endTime": 31.998958333333334
    },
    {
      "instrumentId": 1,
      "instrumentName": "Piano",
      "isPercussion": false,
      "pitch": 43,
      "velocity": 80,
      "startTime": 31.75,
      "duration": 0.24895833333333428,
      "endTime": 31.998958333333334
    },
    {
      "instrumentId": 0,
      "instrumentName": "Piano",
      "isPercussion": false,
      "pitch": 65,
      "velocity": 80,
      "startTime": 32.0,
      "duration": 0.24895833333333428,
      "endTime": 32.248958333333334
    },
    {
      "instrumentId": 0,
      "instrumentName": "Piano",
      "isPercussion": false,
      "pitch": 69,
      "velocity": 80,
      "startTime": 32.0,
      "duration": 0.24895833333333428,
      "endTime": 32.248958333333334
    },
    {
      "instrumentId": 0,
      "instrumentName": "Piano",
      "isPercussion": false,
      "pitch": 72,
      "velocity": 80,
      "startTime": 32.0,
      "duration": 0.24895833333333428,
      "endTime": 32.248958333333334
    },
    {
      "instrumentId": 1,
      "instrumentName": "Piano",
      "isPercussion": false,
      "pitch": 41,
      "velocity": 80,
      "startTime": 32.0,
      "duration": 0.24895833333333428,
      "endTime": 32.248958333333334
    },
    {
      "instrumentId": 0,
      "instrumentName": "Piano",
      "isPercussion": false,
      "pitch": 69,
      "velocity": 80,
      "startTime": 32.25,
      "duration": 0.24895833333333428,
      "endTime": 32.498958333333334
    },
    {
      "instrumentId": 1,
      "instrumentName": "Piano",
      "isPercussion": false,
      "pitch": 48,
      "velocity": 80,
      "startTime": 32.25,
      "duration": 0.24895833333333428,
      "endTime": 32.498958333333334
    },
    {
      "instrumentId": 0,
      "instrumentName": "Piano",
      "isPercussion": false,
      "pitch": 67,
      "velocity": 80,
      "startTime": 32.5,
      "duration": 0.24895833333333428,
      "endTime": 32.748958333333334
    },
    {
      "instrumentId": 1,
      "instrumentName": "Piano",
      "isPercussion": false,
      "pitch": 53,
      "velocity": 80,
      "startTime": 32.5,
      "duration": 0.4989583333333343,
      "endTime": 32.998958333333334
    },
    {
      "instrumentId": 1,
      "instrumentName": "Piano",
      "isPercussion": false,
      "pitch": 57,
      "velocity": 80,
      "startTime": 32.5,
      "duration": 0.4989583333333343,
      "endTime": 32.998958333333334
    },
    {
      "instrumentId": 0,
      "instrumentName": "Piano",
      "isPercussion": false,
      "pitch": 72,
      "velocity": 80,
      "startTime": 32.75,
      "duration": 0.24895833333333428,
      "endTime": 32.998958333333334
    },
    {
      "instrumentId": 1,
      "instrumentName": "Piano",
      "isPercussion": false,
      "pitch": 43,
      "velocity": 80,
      "startTime": 33.0,
      "duration": 0.24895833333333428,
      "endTime": 33.248958333333334
    },
    {
      "instrumentId": 1,
      "instrumentName": "Piano",
      "isPercussion": false,
      "pitch": 50,
      "velocity": 80,
      "startTime": 33.25,
      "duration": 0.24895833333333428,
      "endTime": 33.498958333333334
    },
    {
      "instrumentId": 0,
      "instrumentName": "Piano",
      "isPercussion": false,
      "pitch": 67,
      "velocity": 80,
      "startTime": 33.5,
      "duration": 0.24895833333333428,
      "endTime": 33.748958333333334
    },
    {
      "instrumentId": 0,
      "instrumentName": "Piano",
      "isPercussion": false,
      "pitch": 72,
      "velocity": 80,
      "startTime": 33.5,
      "duration": 0.24895833333333428,
      "endTime": 33.748958333333334
    },
    {
      "instrumentId": 1,
      "instrumentName": "Piano",
      "isPercussion": false,
      "pitch": 55,
      "velocity": 80,
      "startTime": 33.5,
      "duration": 0.4989583333333343,
      "endTime": 33.998958333333334
    },
    {
      "instrumentId": 1,
      "instrumentName": "Piano",
      "isPercussion": false,
      "pitch": 59,
      "velocity": 80,
      "startTime": 33.5,
      "duration": 0.4989583333333343,
      "endTime": 33.998958333333334
    },
    {
      "instrumentId": 0,
      "instrumentName": "Piano",
      "isPercussion": false,
      "pitch": 69,
      "velocity": 80,
      "startTime": 33.75,
      "duration": 0.24895833333333428,
      "endTime": 33.998958333333334
    },
    {
      "instrumentId": 0,
      "instrumentName": "Piano",
      "isPercussion": false,
      "pitch": 64,
      "velocity": 80,
      "startTime": 34.0,
      "duration": 0.24895833333333428,
      "endTime": 34.248958333333334
    },
    {
      "instrumentId": 0,
      "instrumentName": "Piano",
      "isPercussion": false,
      "pitch": 69,
      "velocity": 80,
      "startTime": 34.0,
      "duration": 0.24895833333333428,
      "endTime": 34.248958333333334
    },
    {
      "instrumentId": 0,
      "instrumentName": "Piano",
      "isPercussion": false,
      "pitch": 72,
      "velocity": 80,
      "startTime": 34.0,
      "duration": 0.24895833333333428,
      "endTime": 34.248958333333334
    },
    {
      "instrumentId": 1,
      "instrumentName": "Piano",
      "isPercussion": false,
      "pitch": 45,
      "velocity": 80,
      "startTime": 34.0,
      "duration": 0.24895833333333428,
      "endTime": 34.248958333333334
    },
    {
      "instrumentId": 0,
      "instrumentName": "Piano",
      "isPercussion": false,
      "pitch": 69,
      "velocity": 80,
      "startTime": 34.25,
      "duration": 0.24895833333333428,
      "endTime": 34.498958333333334
    },
    {
      "instrumentId": 1,
      "instrumentName": "Piano",
      "isPercussion": false,
      "pitch": 52,
      "velocity": 80,
      "startTime": 34.25,
      "duration": 0.24895833333333428,
      "endTime": 34.498958333333334
    },
    {
      "instrumentId": 0,
      "instrumentName": "Piano",
      "isPercussion": false,
      "pitch": 67,
      "velocity": 80,
      "startTime": 34.5,
      "duration": 0.24895833333333428,
      "endTime": 34.748958333333334
    },
    {
      "instrumentId": 1,
      "instrumentName": "Piano",
      "isPercussion": false,
      "pitch": 57,
      "velocity": 80,
      "startTime": 34.5,
      "duration": 0.4989583333333343,
      "endTime": 34.998958333333334
    },
    {
      "instrumentId": 1,
      "instrumentName": "Piano",
      "isPercussion": false,
      "pitch": 60,
      "velocity": 80,
      "startTime": 34.5,
      "duration": 0.4989583333333343,
      "endTime": 34.998958333333334
    },
    {
      "instrumentId": 0,
      "instrumentName": "Piano",
      "isPercussion": false,
      "pitch": 67,
      "velocity": 80,
      "startTime": 34.75,
      "duration": 0.24895833333333428,
      "endTime": 34.998958333333334
    },
    {
      "instrumentId": 0,
      "instrumentName": "Piano",
      "isPercussion": false,
      "pitch": 76,
      "velocity": 80,
      "startTime": 34.75,
      "duration": 0.24895833333333428,
      "endTime": 34.998958333333334
    },
    {
      "instrumentId": 1,
      "instrumentName": "Piano",
      "isPercussion": false,
      "pitch": 36,
      "velocity": 80,
      "startTime": 35.0,
      "duration": 0.4989583333333343,
      "endTime": 35.498958333333334
    },
    {
      "instrumentId": 1,
      "instrumentName": "Piano",
      "isPercussion": false,
      "pitch": 43,
      "velocity": 80,
      "startTime": 35.0,
      "duration": 0.4989583333333343,
      "endTime": 35.498958333333334
    },
    {
      "instrumentId": 0,
      "instrumentName": "Piano",
      "isPercussion": false,
      "pitch": 67,
      "velocity": 80,
      "startTime": 35.5,
      "duration": 0.24895833333333428,
      "endTime": 35.748958333333334
    },
    {
      "instrumentId": 0,
      "instrumentName": "Piano",
      "isPercussion": false,
      "pitch": 76,
      "velocity": 80,
      "startTime": 35.5,
      "duration": 0.24895833333333428,
      "endTime": 35.748958333333334
    },
    {
      "instrumentId": 1,
      "instrumentName": "Piano",
      "isPercussion": false,
      "pitch": 48,
      "velocity": 80,
      "startTime": 35.5,
      "duration": 0.4989583333333343,
      "endTime": 35.998958333333334
    },
    {
      "instrumentId": 1,
      "instrumentName": "Piano",
      "isPercussion": false,
      "pitch": 52,
      "velocity": 80,
      "startTime": 35.5,
      "duration": 0.4989583333333343,
      "endTime": 35.998958333333334
    },
    {
      "instrumentId": 0,
      "instrumentName": "Piano",
      "isPercussion": false,
      "pitch": 69,
      "velocity": 80,
      "startTime": 35.75,
      "duration": 0.24895833333333428,
      "endTime": 35.998958333333334
    },
    {
      "instrumentId": 0,
      "instrumentName": "Piano",
      "isPercussion": false,
      "pitch": 77,
      "velocity": 80,
      "startTime": 35.75,
      "duration": 0.24895833333333428,
      "endTime": 35.998958333333334
    },
    {
      "instrumentId": 0,
      "instrumentName": "Piano",
      "isPercussion": false,
      "pitch": 69,
      "velocity": 80,
      "startTime": 36.0,
      "duration": 0.24895833333333428,
      "endTime": 36.248958333333334
    },
    {
      "instrumentId": 0,
      "instrumentName": "Piano",
      "isPercussion": false,
      "pitch": 72,
      "velocity": 80,
      "startTime": 36.0,
      "duration": 0.24895833333333428,
      "endTime": 36.248958333333334
    },
    {
      "instrumentId": 0,
      "instrumentName": "Piano",
      "isPercussion": false,
      "pitch": 77,
      "velocity": 80,
      "startTime": 36.0,
      "duration": 0.24895833333333428,
      "endTime": 36.248958333333334
    },
    {
      "instrumentId": 1,
      "instrumentName": "Piano",
      "isPercussion": false,
      "pitch": 41,
      "velocity": 80,
      "startTime": 36.0,
      "duration": 0.24895833333333428,
      "endTime": 36.248958333333334
    },
    {
      "instrumentId": 0,
      "instrumentName": "Piano",
      "isPercussion": false,
      "pitch": 76,
      "velocity": 80,
      "startTime": 36.25,
      "duration": 0.24895833333333428,
      "endTime": 36.498958333333334
    },
    {
      "instrumentId": 1,
      "instrumentName": "Piano",
      "isPercussion": false,
      "pitch": 48,
      "velocity": 80,
      "startTime": 36.25,
      "duration": 0.24895833333333428,
      "endTime": 36.498958333333334
    },
    {
      "instrumentId": 0,
      "instrumentName": "Piano",
      "isPercussion": false,
      "pitch": 67,
      "velocity": 80,
      "startTime": 36.5,
      "duration": 0.24895833333333428,
      "endTime": 36.748958333333334
    },
    {
      "instrumentId": 0,
      "instrumentName": "Piano",
      "isPercussion": false,
      "pitch": 76,
      "velocity": 80,
      "startTime": 36.5,
      "duration": 0.24895833333333428,
      "endTime": 36.748958333333334
    },
    {
      "instrumentId": 1,
      "instrumentName": "Piano",
      "isPercussion": false,
      "pitch": 53,
      "velocity": 80,
      "startTime": 36.5,
      "duration": 0.4989583333333343,
      "endTime": 36.998958333333334
    },
    {
      "instrumentId": 1,
      "instrumentName": "Piano",
      "isPercussion": false,
      "pitch": 57,
      "velocity": 80,
      "startTime": 36.5,
      "duration": 0.4989583333333343,
      "endTime": 36.998958333333334
    },
    {
      "instrumentId": 0,
      "instrumentName": "Piano",
      "isPercussion": false,
      "pitch": 67,
      "velocity": 80,
      "startTime": 36.75,
      "duration": 0.24895833333333428,
      "endTime": 36.998958333333334
    },
    {
      "instrumentId": 0,
      "instrumentName": "Piano",
      "isPercussion": false,
      "pitch": 76,
      "velocity": 80,
      "startTime": 36.75,
      "duration": 0.24895833333333428,
      "endTime": 36.998958333333334
    },
    {
      "instrumentId": 0,
      "instrumentName": "Piano",
      "isPercussion": false,
      "pitch": 67,
      "velocity": 80,
      "startTime": 37.0,
      "duration": 0.24895833333333428,
      "endTime": 37.248958333333334
    },
    {
      "instrumentId": 0,
      "instrumentName": "Piano",
      "isPercussion": false,
      "pitch": 76,
      "velocity": 80,
      "startTime": 37.0,
      "duration": 0.24895833333333428,
      "endTime": 37.248958333333334
    },
    {
      "instrumentId": 1,
      "instrumentName": "Piano",
      "isPercussion": false,
      "pitch": 43,
      "velocity": 80,
      "startTime": 37.0,
      "duration": 0.24895833333333428,
      "endTime": 37.248958333333334
    },
    {
      "instrumentId": 0,
      "instrumentName": "Piano",
      "isPercussion": false,
      "pitch": 67,
      "velocity": 80,
      "startTime": 37.25,
      "duration": 0.24895833333333428,
      "endTime": 37.498958333333334
    },
    {
      "instrumentId": 0,
      "instrumentName": "Piano",
      "isPercussion": false,
      "pitch": 74,
      "velocity": 80,
      "startTime": 37.25,
      "duration": 0.24895833333333428,
      "endTime": 37.498958333333334
    },
    {
      "instrumentId": 1,
      "instrumentName": "Piano",
      "isPercussion": false,
      "pitch": 50,
      "velocity": 80,
      "startTime": 37.25,
      "duration": 0.24895833333333428,
      "endTime": 37.498958333333334
    },
    {
      "instrumentId": 0,
      "instrumentName": "Piano",
      "isPercussion": false,
      "pitch": 67,
      "velocity": 80,
      "startTime": 37.5,
      "duration": 0.4989583333333343,
      "endTime": 37.998958333333334
    },
    {
      "instrumentId": 0,
      "instrumentName": "Piano",
      "isPercussion": false,
      "pitch": 74,
      "velocity": 80,
      "startTime": 37.5,
      "duration": 0.4989583333333343,
      "endTime": 37.998958333333334
    },
    {
      "instrumentId": 1,
      "instrumentName": "Piano",
      "isPercussion": false,
      "pitch": 55,
      "velocity": 80,
      "startTime": 37.5,
      "duration": 0.4989583333333343,
      "endTime": 37.998958333333334
    },
    {
      "instrumentId": 1,
      "instrumentName": "Piano",
      "isPercussion": false,
      "pitch": 59,
      "velocity": 80,
      "startTime": 37.5,
      "duration": 0.4989583333333343,
      "endTime": 37.998958333333334
    },
    {
      "instrumentId": 0,
      "instrumentName": "Piano",
      "isPercussion": false,
      "pitch": 69,
      "velocity": 80,
      "startTime": 38.0,
      "duration": 0.24895833333333428,
      "endTime": 38.248958333333334
    },
    {
      "instrumentId": 0,
      "instrumentName": "Piano",
      "isPercussion": false,
      "pitch": 74,
      "velocity": 80,
      "startTime": 38.0,
      "duration": 0.24895833333333428,
      "endTime": 38.248958333333334
    },
    {
      "instrumentId": 1,
      "instrumentName": "Piano",
      "isPercussion": false,
      "pitch": 45,
      "velocity": 80,
      "startTime": 38.0,
      "duration": 0.24895833333333428,
      "endTime": 38.248958333333334
    },
    {
      "instrumentId": 0,
      "instrumentName": "Piano",
      "isPercussion": false,
      "pitch": 72,
      "velocity": 80,
      "startTime": 38.25,
      "duration": 0.24895833333333428,
      "endTime": 38.498958333333334
    },
    {
      "instrumentId": 1,
      "instrumentName": "Piano",
      "isPercussion": false,
      "pitch": 52,
      "velocity": 80,
      "startTime": 38.25,
      "duration": 0.24895833333333428,
      "endTime": 38.498958333333334
    },
    {
      "instrumentId": 0,
      "instrumentName": "Piano",
      "isPercussion": false,
      "pitch": 64,
      "velocity": 80,
      "startTime": 38.5,
      "duration": 0.24895833333333428,
      "endTime": 38.748958333333334
    },
    {
      "instrumentId": 0,
      "instrumentName": "Piano",
      "isPercussion": false,
      "pitch": 69,
      "velocity": 80,
      "startTime": 38.5,
      "duration": 0.24895833333333428,
      "endTime": 38.748958333333334
    },
    {
      "instrumentId": 0,
      "instrumentName": "Piano",
      "isPercussion": false,
      "pitch": 72,
      "velocity": 80,
      "startTime": 38.5,
      "duration": 0.24895833333333428,
      "endTime": 38.748958333333334
    },
    {
      "instrumentId": 1,
      "instrumentName": "Piano",
      "isPercussion": false,
      "pitch": 57,
      "velocity": 80,
      "startTime": 38.5,
      "duration": 0.4989583333333343,
      "endTime": 38.998958333333334
    },
    {
      "instrumentId": 1,
      "instrumentName": "Piano",
      "isPercussion": false,
      "pitch": 60,
      "velocity": 80,
      "startTime": 38.5,
      "duration": 0.4989583333333343,
      "endTime": 38.998958333333334
    },
    {
      "instrumentId": 0,
      "instrumentName": "Piano",
      "isPercussion": false,
      "pitch": 72,
      "velocity": 80,
      "startTime": 38.75,
      "duration": 0.24895833333333428,
      "endTime": 38.998958333333334
    },
    {
      "instrumentId": 1,
      "instrumentName": "Piano",
      "isPercussion": false,
      "pitch": 36,
      "velocity": 80,
      "startTime": 39.0,
      "duration": 0.4989583333333343,
      "endTime": 39.498958333333334
    },
    {
      "instrumentId": 1,
      "instrumentName": "Piano",
      "isPercussion": false,
      "pitch": 43,
      "velocity": 80,
      "startTime": 39.0,
      "duration": 0.4989583333333343,
      "endTime": 39.498958333333334
    },
    {
      "instrumentId": 1,
      "instrumentName": "Piano",
      "isPercussion": false,
      "pitch": 48,
      "velocity": 80,
      "startTime": 39.5,
      "duration": 0.24895833333333428,
      "endTime": 39.748958333333334
    },
    {
      "instrumentId": 0,
      "instrumentName": "Piano",
      "isPercussion": false,
      "pitch": 72,
      "velocity": 80,
      "startTime": 39.75,
      "duration": 0.24895833333333428,
      "endTime": 39.998958333333334
    },
    {
      "instrumentId": 1,
      "instrumentName": "Piano",
      "isPercussion": false,
      "pitch": 36,
      "velocity": 80,
      "startTime": 39.75,
      "duration": 0.24895833333333428,
      "endTime": 39.998958333333334
    },
    {
      "instrumentId": 0,
      "instrumentName": "Piano",
      "isPercussion": false,
      "pitch": 65,
      "velocity": 80,
      "startTime": 40.0,
      "duration": 0.24895833333333428,
      "endTime": 40.248958333333334
    },
    {
      "instrumentId": 0,
      "instrumentName": "Piano",
      "isPercussion": false,
      "pitch": 69,
      "velocity": 80,
      "startTime": 40.0,
      "duration": 0.24895833333333428,
      "endTime": 40.248958333333334
    },
    {
      "instrumentId": 0,
      "instrumentName": "Piano",
      "isPercussion": false,
      "pitch": 72,
      "velocity": 80,
      "startTime": 40.0,
      "duration": 0.24895833333333428,
      "endTime": 40.248958333333334
    },
    {
      "instrumentId": 1,
      "instrumentName": "Piano",
      "isPercussion": false,
      "pitch": 41,
      "velocity": 80,
      "startTime": 40.0,
      "duration": 0.24895833333333428,
      "endTime": 40.248958333333334
    },
    {
      "instrumentId": 0,
      "instrumentName": "Piano",
      "isPercussion": false,
      "pitch": 69,
      "velocity": 80,
      "startTime": 40.25,
      "duration": 0.24895833333333428,
      "endTime": 40.498958333333334
    },
    {
      "instrumentId": 1,
      "instrumentName": "Piano",
      "isPercussion": false,
      "pitch": 48,
      "velocity": 80,
      "startTime": 40.25,
      "duration": 0.24895833333333428,
      "endTime": 40.498958333333334
    },
    {
      "instrumentId": 0,
      "instrumentName": "Piano",
      "isPercussion": false,
      "pitch": 67,
      "velocity": 80,
      "startTime": 40.5,
      "duration": 0.24895833333333428,
      "endTime": 40.748958333333334
    },
    {
      "instrumentId": 1,
      "instrumentName": "Piano",
      "isPercussion": false,
      "pitch": 53,
      "velocity": 80,
      "startTime": 40.5,
      "duration": 0.4989583333333343,
      "endTime": 40.998958333333334
    },
    {
      "instrumentId": 1,
      "instrumentName": "Piano",
      "isPercussion": false,
      "pitch": 57,
      "velocity": 80,
      "startTime": 40.5,
      "duration": 0.4989583333333343,
      "endTime": 40.998958333333334
    },
    {
      "instrumentId": 0,
      "instrumentName": "Piano",
      "isPercussion": false,
      "pitch": 72,
      "velocity": 80,
      "startTime": 40.75,
      "duration": 0.24895833333333428,
      "endTime": 40.998958333333334
    },
    {
      "instrumentId": 1,
      "instrumentName": "Piano",
      "isPercussion": false,
      "pitch": 43,
      "velocity": 80,
      "startTime": 41.0,
      "duration": 0.24895833333333428,
      "endTime": 41.248958333333334
    },
    {
      "instrumentId": 1,
      "instrumentName": "Piano",
      "isPercussion": false,
      "pitch": 50,
      "velocity": 80,
      "startTime": 41.25,
      "duration": 0.24895833333333428,
      "endTime": 41.498958333333334
    },
    {
      "instrumentId": 0,
      "instrumentName": "Piano",
      "isPercussion": false,
      "pitch": 67,
      "velocity": 80,
      "startTime": 41.5,
      "duration": 0.24895833333333428,
      "endTime": 41.748958333333334
    },
    {
      "instrumentId": 0,
      "instrumentName": "Piano",
      "isPercussion": false,
      "pitch": 72,
      "velocity": 80,
      "startTime": 41.5,
      "duration": 0.24895833333333428,
      "endTime": 41.748958333333334
    },
    {
      "instrumentId": 1,
      "instrumentName": "Piano",
      "isPercussion": false,
      "pitch": 55,
      "velocity": 80,
      "startTime": 41.5,
      "duration": 0.4989583333333343,
      "endTime": 41.998958333333334
    },
    {
      "instrumentId": 1,
      "instrumentName": "Piano",
      "isPercussion": false,
      "pitch": 59,
      "velocity": 80,
      "startTime": 41.5,
      "duration": 0.4989583333333343,
      "endTime": 41.998958333333334
    },
    {
      "instrumentId": 0,
      "instrumentName": "Piano",
      "isPercussion": false,
      "pitch": 69,
      "velocity": 80,
      "startTime": 41.75,
      "duration": 0.24895833333333428,
      "endTime": 41.998958333333334
    },
    {
      "instrumentId": 0,
      "instrumentName": "Piano",
      "isPercussion": false,
      "pitch": 64,
      "velocity": 80,
      "startTime": 42.0,
      "duration": 0.24895833333333428,
      "endTime": 42.248958333333334
    },
    {
      "instrumentId": 0,
      "instrumentName": "Piano",
      "isPercussion": false,
      "pitch": 69,
      "velocity": 80,
      "startTime": 42.0,
      "duration": 0.24895833333333428,
      "endTime": 42.248958333333334
    },
    {
      "instrumentId": 0,
      "instrumentName": "Piano",
      "isPercussion": false,
      "pitch": 72,
      "velocity": 80,
      "startTime": 42.0,
      "duration": 0.24895833333333428,
      "endTime": 42.248958333333334
    },
    {
      "instrumentId": 1,
      "instrumentName": "Piano",
      "isPercussion": false,
      "pitch": 45,
      "velocity": 80,
      "startTime": 42.0,
      "duration": 0.24895833333333428,
      "endTime": 42.248958333333334
    },
    {
      "instrumentId": 0,
      "instrumentName": "Piano",
      "isPercussion": false,
      "pitch": 69,
      "velocity": 80,
      "startTime": 42.25,
      "duration": 0.24895833333333428,
      "endTime": 42.498958333333334
    },
    {
      "instrumentId": 1,
      "instrumentName": "Piano",
      "isPercussion": false,
      "pitch": 52,
      "velocity": 80,
      "startTime": 42.25,
      "duration": 0.24895833333333428,
      "endTime": 42.498958333333334
    },
    {
      "instrumentId": 0,
      "instrumentName": "Piano",
      "isPercussion": false,
      "pitch": 67,
      "velocity": 80,
      "startTime": 42.5,
      "duration": 0.24895833333333428,
      "endTime": 42.748958333333334
    },
    {
      "instrumentId": 1,
      "instrumentName": "Piano",
      "isPercussion": false,
      "pitch": 57,
      "velocity": 80,
      "startTime": 42.5,
      "duration": 0.4989583333333343,
      "endTime": 42.998958333333334
    },
    {
      "instrumentId": 1,
      "instrumentName": "Piano",
      "isPercussion": false,
      "pitch": 60,
      "velocity": 80,
      "startTime": 42.5,
      "duration": 0.4989583333333343,
      "endTime": 42.998958333333334
    },
    {
      "instrumentId": 0,
      "instrumentName": "Piano",
      "isPercussion": false,
      "pitch": 67,
      "velocity": 80,
      "startTime": 42.75,
      "duration": 0.24895833333333428,
      "endTime": 42.998958333333334
    },
    {
      "instrumentId": 0,
      "instrumentName": "Piano",
      "isPercussion": false,
      "pitch": 76,
      "velocity": 80,
      "startTime": 42.75,
      "duration": 0.24895833333333428,
      "endTime": 42.998958333333334
    },
    {
      "instrumentId": 1,
      "instrumentName": "Piano",
      "isPercussion": false,
      "pitch": 36,
      "velocity": 80,
      "startTime": 43.0,
      "duration": 0.4989583333333343,
      "endTime": 43.498958333333334
    },
    {
      "instrumentId": 1,
      "instrumentName": "Piano",
      "isPercussion": false,
      "pitch": 43,
      "velocity": 80,
      "startTime": 43.0,
      "duration": 0.4989583333333343,
      "endTime": 43.498958333333334
    },
    {
      "instrumentId": 0,
      "instrumentName": "Piano",
      "isPercussion": false,
      "pitch": 67,
      "velocity": 80,
      "startTime": 43.5,
      "duration": 0.24895833333333428,
      "endTime": 43.748958333333334
    },
    {
      "instrumentId": 0,
      "instrumentName": "Piano",
      "isPercussion": false,
      "pitch": 76,
      "velocity": 80,
      "startTime": 43.5,
      "duration": 0.24895833333333428,
      "endTime": 43.748958333333334
    },
    {
      "instrumentId": 1,
      "instrumentName": "Piano",
      "isPercussion": false,
      "pitch": 48,
      "velocity": 80,
      "startTime": 43.5,
      "duration": 0.4989583333333343,
      "endTime": 43.998958333333334
    },
    {
      "instrumentId": 1,
      "instrumentName": "Piano",
      "isPercussion": false,
      "pitch": 52,
      "velocity": 80,
      "startTime": 43.5,
      "duration": 0.4989583333333343,
      "endTime": 43.998958333333334
    },
    {
      "instrumentId": 0,
      "instrumentName": "Piano",
      "isPercussion": false,
      "pitch": 69,
      "velocity": 80,
      "startTime": 43.75,
      "duration": 0.24895833333333428,
      "endTime": 43.998958333333334
    },
    {
      "instrumentId": 0,
      "instrumentName": "Piano",
      "isPercussion": false,
      "pitch": 77,
      "velocity": 80,
      "startTime": 43.75,
      "duration": 0.24895833333333428,
      "endTime": 43.998958333333334
    },
    {
      "instrumentId": 0,
      "instrumentName": "Piano",
      "isPercussion": false,
      "pitch": 69,
      "velocity": 80,
      "startTime": 44.0,
      "duration": 0.24895833333333428,
      "endTime": 44.248958333333334
    },
    {
      "instrumentId": 0,
      "instrumentName": "Piano",
      "isPercussion": false,
      "pitch": 72,
      "velocity": 80,
      "startTime": 44.0,
      "duration": 0.24895833333333428,
      "endTime": 44.248958333333334
    },
    {
      "instrumentId": 0,
      "instrumentName": "Piano",
      "isPercussion": false,
      "pitch": 77,
      "velocity": 80,
      "startTime": 44.0,
      "duration": 0.24895833333333428,
      "endTime": 44.248958333333334
    },
    {
      "instrumentId": 1,
      "instrumentName": "Piano",
      "isPercussion": false,
      "pitch": 41,
      "velocity": 80,
      "startTime": 44.0,
      "duration": 0.24895833333333428,
      "endTime": 44.248958333333334
    },
    {
      "instrumentId": 0,
      "instrumentName": "Piano",
      "isPercussion": false,
      "pitch": 76,
      "velocity": 80,
      "startTime": 44.25,
      "duration": 0.24895833333333428,
      "endTime": 44.498958333333334
    },
    {
      "instrumentId": 1,
      "instrumentName": "Piano",
      "isPercussion": false,
      "pitch": 48,
      "velocity": 80,
      "startTime": 44.25,
      "duration": 0.24895833333333428,
      "endTime": 44.498958333333334
    },
    {
      "instrumentId": 0,
      "instrumentName": "Piano",
      "isPercussion": false,
      "pitch": 67,
      "velocity": 80,
      "startTime": 44.5,
      "duration": 0.24895833333333428,
      "endTime": 44.748958333333334
    },
    {
      "instrumentId": 0,
      "instrumentName": "Piano",
      "isPercussion": false,
      "pitch": 76,
      "velocity": 80,
      "startTime": 44.5,
      "duration": 0.24895833333333428,
      "endTime": 44.748958333333334
    },
    {
      "instrumentId": 1,
      "instrumentName": "Piano",
      "isPercussion": false,
      "pitch": 53,
      "velocity": 80,
      "startTime": 44.5,
      "duration": 0.4989583333333343,
      "endTime": 44.998958333333334
    },
    {
      "instrumentId": 1,
      "instrumentName": "Piano",
      "isPercussion": false,
      "pitch": 57,
      "velocity": 80,
      "startTime": 44.5,
      "duration": 0.4989583333333343,
      "endTime": 44.998958333333334
    },
    {
      "instrumentId": 0,
      "instrumentName": "Piano",
      "isPercussion": false,
      "pitch": 67,
      "velocity": 80,
      "startTime": 44.75,
      "duration": 0.24895833333333428,
      "endTime": 44.998958333333334
    },
    {
      "instrumentId": 0,
      "instrumentName": "Piano",
      "isPercussion": false,
      "pitch": 76,
      "velocity": 80,
      "startTime": 44.75,
      "duration": 0.24895833333333428,
      "endTime": 44.998958333333334
    },
    {
      "instrumentId": 0,
      "instrumentName": "Piano",
      "isPercussion": false,
      "pitch": 67,
      "velocity": 80,
      "startTime": 45.0,
      "duration": 0.24895833333333428,
      "endTime": 45.248958333333334
    },
    {
      "instrumentId": 0,
      "instrumentName": "Piano",
      "isPercussion": false,
      "pitch": 76,
      "velocity": 80,
      "startTime": 45.0,
      "duration": 0.24895833333333428,
      "endTime": 45.248958333333334
    },
    {
      "instrumentId": 1,
      "instrumentName": "Piano",
      "isPercussion": false,
      "pitch": 43,
      "velocity": 80,
      "startTime": 45.0,
      "duration": 0.24895833333333428,
      "endTime": 45.248958333333334
    },
    {
      "instrumentId": 0,
      "instrumentName": "Piano",
      "isPercussion": false,
      "pitch": 67,
      "velocity": 80,
      "startTime": 45.25,
      "duration": 0.24895833333333428,
      "endTime": 45.498958333333334
    },
    {
      "instrumentId": 0,
      "instrumentName": "Piano",
      "isPercussion": false,
      "pitch": 74,
      "velocity": 80,
      "startTime": 45.25,
      "duration": 0.24895833333333428,
      "endTime": 45.498958333333334
    },
    {
      "instrumentId": 1,
      "instrumentName": "Piano",
      "isPercussion": false,
      "pitch": 50,
      "velocity": 80,
      "startTime": 45.25,
      "duration": 0.24895833333333428,
      "endTime": 45.498958333333334
    },
    {
      "instrumentId": 0,
      "instrumentName": "Piano",
      "isPercussion": false,
      "pitch": 67,
      "velocity": 80,
      "startTime": 45.5,
      "duration": 0.4989583333333343,
      "endTime": 45.998958333333334
    },
    {
      "instrumentId": 0,
      "instrumentName": "Piano",
      "isPercussion": false,
      "pitch": 74,
      "velocity": 80,
      "startTime": 45.5,
      "duration": 0.4989583333333343,
      "endTime": 45.998958333333334
    },
    {
      "instrumentId": 1,
      "instrumentName": "Piano",
      "isPercussion": false,
      "pitch": 55,
      "velocity": 80,
      "startTime": 45.5,
      "duration": 0.4989583333333343,
      "endTime": 45.998958333333334
    },
    {
      "instrumentId": 1,
      "instrumentName": "Piano",
      "isPercussion": false,
      "pitch": 59,
      "velocity": 80,
      "startTime": 45.5,
      "duration": 0.4989583333333343,
      "endTime": 45.998958333333334
    },
    {
      "instrumentId": 0,
      "instrumentName": "Piano",
      "isPercussion": false,
      "pitch": 69,
      "velocity": 80,
      "startTime": 46.0,
      "duration": 0.24895833333333428,
      "endTime": 46.248958333333334
    },
    {
      "instrumentId": 0,
      "instrumentName": "Piano",
      "isPercussion": false,
      "pitch": 74,
      "velocity": 80,
      "startTime": 46.0,
      "duration": 0.24895833333333428,
      "endTime": 46.248958333333334
    },
    {
      "instrumentId": 1,
      "instrumentName": "Piano",
      "isPercussion": false,
      "pitch": 45,
      "velocity": 80,
      "startTime": 46.0,
      "duration": 0.24895833333333428,
      "endTime": 46.248958333333334
    },
    {
      "instrumentId": 0,
      "instrumentName": "Piano",
      "isPercussion": false,
      "pitch": 72,
      "velocity": 80,
      "startTime": 46.25,
      "duration": 0.24895833333333428,
      "endTime": 46.498958333333334
    },
    {
      "instrumentId": 1,
      "instrumentName": "Piano",
      "isPercussion": false,
      "pitch": 52,
      "velocity": 80,
      "startTime": 46.25,
      "duration": 0.24895833333333428,
      "endTime": 46.498958333333334
    },
    {
      "instrumentId": 0,
      "instrumentName": "Piano",
      "isPercussion": false,
      "pitch": 64,
      "velocity": 80,
      "startTime": 46.5,
      "duration": 0.24895833333333428,
      "endTime": 46.748958333333334
    },
    {
      "instrumentId": 0,
      "instrumentName": "Piano",
      "isPercussion": false,
      "pitch": 69,
      "velocity": 80,
      "startTime": 46.5,
      "duration": 0.24895833333333428,
      "endTime": 46.748958333333334
    },
    {
      "instrumentId": 0,
      "instrumentName": "Piano",
      "isPercussion": false,
      "pitch": 72,
      "velocity": 80,
      "startTime": 46.5,
      "duration": 0.24895833333333428,
      "endTime": 46.748958333333334
    },
    {
      "instrumentId": 1,
      "instrumentName": "Piano",
      "isPercussion": false,
      "pitch": 57,
      "velocity": 80,
      "startTime": 46.5,
      "duration": 0.4989583333333343,
      "endTime": 46.998958333333334
    },
    {
      "instrumentId": 1,
      "instrumentName": "Piano",
      "isPercussion": false,
      "pitch": 60,
      "velocity": 80,
      "startTime": 46.5,
      "duration": 0.4989583333333343,
      "endTime": 46.998958333333334
    },
    {
      "instrumentId": 0,
      "instrumentName": "Piano",
      "isPercussion": false,
      "pitch": 72,
      "velocity": 80,
      "startTime": 46.75,
      "duration": 0.24895833333333428,
      "endTime": 46.998958333333334
    },
    {
      "instrumentId": 1,
      "instrumentName": "Piano",
      "isPercussion": false,
      "pitch": 36,
      "velocity": 80,
      "startTime": 47.0,
      "duration": 0.4989583333333343,
      "endTime": 47.498958333333334
    },
    {
      "instrumentId": 1,
      "instrumentName": "Piano",
      "isPercussion": false,
      "pitch": 43,
      "velocity": 80,
      "startTime": 47.0,
      "duration": 0.4989583333333343,
      "endTime": 47.498958333333334
    },
    {
      "instrumentId": 1,
      "instrumentName": "Piano",
      "isPercussion": false,
      "pitch": 48,
      "velocity": 80,
      "startTime": 47.5,
      "duration": 0.24895833333333428,
      "endTime": 47.748958333333334
    },
    {
      "instrumentId": 1,
      "instrumentName": "Piano",
      "isPercussion": false,
      "pitch": 36,
      "velocity": 80,
      "startTime": 47.75,
      "duration": 0.24895833333333428,
      "endTime": 47.998958333333334
    },
    {
      "instrumentId": 1,
      "instrumentName": "Piano",
      "isPercussion": false,
      "pitch": 45,
      "velocity": 96,
      "startTime": 48.0,
      "duration": 0.4989583333333343,
      "endTime": 48.498958333333334
    },
    {
      "instrumentId": 0,
      "instrumentName": "Piano",
      "isPercussion": false,
      "pitch": 72,
      "velocity": 96,
      "startTime": 48.5,
      "duration": 0.24895833333333428,
      "endTime": 48.748958333333334
    },
    {
      "instrumentId": 0,
      "instrumentName": "Piano",
      "isPercussion": false,
      "pitch": 76,
      "velocity": 96,
      "startTime": 48.5,
      "duration": 0.24895833333333428,
      "endTime": 48.748958333333334
    },
    {
      "instrumentId": 1,
      "instrumentName": "Piano",
      "isPercussion": false,
      "pitch": 52,
      "velocity": 96,
      "startTime": 48.5,
      "duration": 0.24895833333333428,
      "endTime": 48.748958333333334
    },
    {
      "instrumentId": 1,
      "instrumentName": "Piano",
      "isPercussion": false,
      "pitch": 57,
      "velocity": 96,
      "startTime": 48.5,
      "duration": 0.24895833333333428,
      "endTime": 48.748958333333334
    },
    {
      "instrumentId": 0,
      "instrumentName": "Piano",
      "isPercussion": false,
      "pitch": 72,
      "velocity": 96,
      "startTime": 48.75,
      "duration": 0.24895833333333428,
      "endTime": 48.998958333333334
    },
    {
      "instrumentId": 0,
      "instrumentName": "Piano",
      "isPercussion": false,
      "pitch": 76,
      "velocity": 96,
      "startTime": 48.75,
      "duration": 0.24895833333333428,
      "endTime": 48.998958333333334
    },
    {
      "instrumentId": 1,
      "instrumentName": "Piano",
      "isPercussion": false,
      "pitch": 45,
      "velocity": 96,
      "startTime": 48.75,
      "duration": 0.24895833333333428,
      "endTime": 48.998958333333334
    },
    {
      "instrumentId": 0,
      "instrumentName": "Piano",
      "isPercussion": false,
      "pitch": 71,
      "velocity": 96,
      "startTime": 49.0,
      "duration": 0.24895833333333428,
      "endTime": 49.248958333333334
    },
    {
      "instrumentId": 0,
      "instrumentName": "Piano",
      "isPercussion": false,
      "pitch": 74,
      "velocity": 96,
      "startTime": 49.0,
      "duration": 0.24895833333333428,
      "endTime": 49.248958333333334
    },
    {
      "instrumentId": 1,
      "instrumentName": "Piano",
      "isPercussion": false,
      "pitch": 43,
      "velocity": 96,
      "startTime": 49.0,
      "duration": 0.24895833333333428,
      "endTime": 49.248958333333334
    },
    {
      "instrumentId": 0,
      "instrumentName": "Piano",
      "isPercussion": false,
      "pitch": 71,
      "velocity": 96,
      "startTime": 49.25,
      "duration": 0.24895833333333428,
      "endTime": 49.498958333333334
    },
    {
      "instrumentId": 0,
      "instrumentName": "Piano",
      "isPercussion": false,
      "pitch": 74,
      "velocity": 96,
      "startTime": 49.25,
      "duration": 0.24895833333333428,
      "endTime": 49.498958333333334
    },
    {
      "instrumentId": 1,
      "instrumentName": "Piano",
      "isPercussion": false,
      "pitch": 50,
      "velocity": 96,
      "startTime": 49.25,
      "duration": 0.24895833333333428,
      "endTime": 49.498958333333334
    },
    {
      "instrumentId": 1,
      "instrumentName": "Piano",
      "isPercussion": false,
      "pitch": 55,
      "velocity": 96,
      "startTime": 49.5,
      "duration": 0.24895833333333428,
      "endTime": 49.748958333333334
    },
    {
      "instrumentId": 0,
      "instrumentName": "Piano",
      "isPercussion": false,
      "pitch": 74,
      "velocity": 96,
      "startTime": 49.75,
      "duration": 0.4989583333333343,
      "endTime": 50.248958333333334
    },
    {
      "instrumentId": 0,
      "instrumentName": "Piano",
      "isPercussion": false,
      "pitch": 77,
      "velocity": 96,
      "startTime": 49.75,
      "duration": 0.4989583333333343,
      "endTime": 50.248958333333334
    },
    {
      "instrumentId": 1,
      "instrumentName": "Piano",
      "isPercussion": false,
      "pitch": 43,
      "velocity": 96,
      "startTime": 49.75,
      "duration": 0.24895833333333428,
      "endTime": 49.998958333333334
    },
    {
      "instrumentId": 1,
      "instrumentName": "Piano",
      "isPercussion": false,
      "pitch": 41,
      "velocity": 96,
      "startTime": 50.0,
      "duration": 0.24895833333333428,
      "endTime": 50.248958333333334
    },
    {
      "instrumentId": 0,
      "instrumentName": "Piano",
      "isPercussion": false,
      "pitch": 74,
      "velocity": 96,
      "startTime": 50.25,
      "duration": 0.24895833333333428,
      "endTime": 50.498958333333334
    },
    {
      "instrumentId": 0,
      "instrumentName": "Piano",
      "isPercussion": false,
      "pitch": 77,
      "velocity": 96,
      "startTime": 50.25,
      "duration": 0.24895833333333428,
      "endTime": 50.498958333333334
    },
    {
      "instrumentId": 1,
      "instrumentName": "Piano",
      "isPercussion": false,
      "pitch": 48,
      "velocity": 96,
      "startTime": 50.25,
      "duration": 0.24895833333333428,
      "endTime": 50.498958333333334
    },
    {
      "instrumentId": 0,
      "instrumentName": "Piano",
      "isPercussion": false,
      "pitch": 72,
      "velocity": 96,
      "startTime": 50.5,
      "duration": 0.24895833333333428,
      "endTime": 50.748958333333334
    },
    {
      "instrumentId": 0,
      "instrumentName": "Piano",
      "isPercussion": false,
      "pitch": 76,
      "velocity": 96,
      "startTime": 50.5,
      "duration": 0.24895833333333428,
      "endTime": 50.748958333333334
    },
    {
      "instrumentId": 1,
      "instrumentName": "Piano",
      "isPercussion": false,
      "pitch": 53,
      "velocity": 96,
      "startTime": 50.5,
      "duration": 0.24895833333333428,
      "endTime": 50.748958333333334
    },
    {
      "instrumentId": 0,
      "instrumentName": "Piano",
      "isPercussion": false,
      "pitch": 72,
      "velocity": 96,
      "startTime": 50.75,
      "duration": 0.7489583333333343,
      "endTime": 51.498958333333334
    },
    {
      "instrumentId": 0,
      "instrumentName": "Piano",
      "isPercussion": false,
      "pitch": 76,
      "velocity": 96,
      "startTime": 50.75,
      "duration": 0.7489583333333343,
      "endTime": 51.498958333333334
    },
    {
      "instrumentId": 1,
      "instrumentName": "Piano",
      "isPercussion": false,
      "pitch": 41,
      "velocity": 96,
      "startTime": 50.75,
      "duration": 0.24895833333333428,
      "endTime": 50.998958333333334
    },
    {
      "instrumentId": 1,
      "instrumentName": "Piano",
      "isPercussion": false,
      "pitch": 48,
      "velocity": 96,
      "startTime": 51.0,
      "duration": 0.24895833333333428,
      "endTime": 51.248958333333334
    },
    {
      "instrumentId": 1,
      "instrumentName": "Piano",
      "isPercussion": false,
      "pitch": 55,
      "velocity": 96,
      "startTime": 51.25,
      "duration": 0.24895833333333428,
      "endTime": 51.498958333333334
    },
    {
      "instrumentId": 0,
      "instrumentName": "Piano",
      "isPercussion": false,
      "pitch": 67,
      "velocity": 96,
      "startTime": 51.5,
      "duration": 0.24895833333333428,
      "endTime": 51.748958333333334
    },
    {
      "instrumentId": 0,
      "instrumentName": "Piano",
      "isPercussion": false,
      "pitch": 72,
      "velocity": 96,
      "startTime": 51.5,
      "duration": 0.24895833333333428,
      "endTime": 51.748958333333334
    },
    {
      "instrumentId": 0,
      "instrumentName": "Piano",
      "isPercussion": false,
      "pitch": 77,
      "velocity": 96,
      "startTime": 51.5,
      "duration": 0.24895833333333428,
      "endTime": 51.748958333333334
    },
    {
      "instrumentId": 1,
      "instrumentName": "Piano",
      "isPercussion": false,
      "pitch": 60,
      "velocity": 96,
      "startTime": 51.5,
      "duration": 0.4989583333333343,
      "endTime": 51.998958333333334
    },
    {
      "instrumentId": 0,
      "instrumentName": "Piano",
      "isPercussion": false,
      "pitch": 77,
      "velocity": 96,
      "startTime": 51.75,
      "duration": 0.24895833333333428,
      "endTime": 51.998958333333334
    },
    {
      "instrumentId": 0,
      "instrumentName": "Piano",
      "isPercussion": false,
      "pitch": 74,
      "velocity": 96,
      "startTime": 52.0,
      "duration": 0.4989583333333343,
      "endTime": 52.498958333333334
    },
    {
      "instrumentId": 0,
      "instrumentName": "Piano",
      "isPercussion": false,
      "pitch": 77,
      "velocity": 96,
      "startTime": 52.0,
      "duration": 0.4989583333333343,
      "endTime": 52.498958333333334
    },
    {
      "instrumentId": 1,
      "instrumentName": "Piano",
      "isPercussion": false,
      "pitch": 45,
      "velocity": 96,
      "startTime": 52.0,
      "duration": 0.4989583333333343,
      "endTime": 52.498958333333334
    },
    {
      "instrumentId": 0,
      "instrumentName": "Piano",
      "isPercussion": false,
      "pitch": 72,
      "velocity": 96,
      "startTime": 52.5,
      "duration": 0.4989583333333343,
      "endTime": 52.998958333333334
    },
    {
      "instrumentId": 0,
      "instrumentName": "Piano",
      "isPercussion": false,
      "pitch": 76,
      "velocity": 96,
      "startTime": 52.5,
      "duration": 0.4989583333333343,
      "endTime": 52.998958333333334
    },
    {
      "instrumentId": 1,
      "instrumentName": "Piano",
      "isPercussion": false,
      "pitch": 52,
      "velocity": 96,
      "startTime": 52.5,
      "duration": 0.24895833333333428,
      "endTime": 52.748958333333334
    },
    {
      "instrumentId": 1,
      "instrumentName": "Piano",
      "isPercussion": false,
      "pitch": 57,
      "velocity": 96,
      "startTime": 52.5,
      "duration": 0.24895833333333428,
      "endTime": 52.748958333333334
    },
    {
      "instrumentId": 1,
      "instrumentName": "Piano",
      "isPercussion": false,
      "pitch": 45,
      "velocity": 96,
      "startTime": 52.75,
      "duration": 0.24895833333333428,
      "endTime": 52.998958333333334
    },
    {
      "instrumentId": 0,
      "instrumentName": "Piano",
      "isPercussion": false,
      "pitch": 71,
      "velocity": 96,
      "startTime": 53.0,
      "duration": 0.24895833333333428,
      "endTime": 53.248958333333334
    },
    {
      "instrumentId": 0,
      "instrumentName": "Piano",
      "isPercussion": false,
      "pitch": 74,
      "velocity": 96,
      "startTime": 53.0,
      "duration": 0.24895833333333428,
      "endTime": 53.248958333333334
    },
    {
      "instrumentId": 1,
      "instrumentName": "Piano",
      "isPercussion": false,
      "pitch": 43,
      "velocity": 96,
      "startTime": 53.0,
      "duration": 0.24895833333333428,
      "endTime": 53.248958333333334
    },
    {
      "instrumentId": 0,
      "instrumentName": "Piano",
      "isPercussion": false,
      "pitch": 69,
      "velocity": 96,
      "startTime": 53.25,
      "duration": 0.4989583333333343,
      "endTime": 53.748958333333334
    },
    {
      "instrumentId": 0,
      "instrumentName": "Piano",
      "isPercussion": false,
      "pitch": 76,
      "velocity": 96,
      "startTime": 53.25,
      "duration": 0.4989583333333343,
      "endTime": 53.748958333333334
    },
    {
      "instrumentId": 1,
      "instrumentName": "Piano",
      "isPercussion": false,
      "pitch": 50,
      "velocity": 96,
      "startTime": 53.25,
      "duration": 0.24895833333333428,
      "endTime": 53.498958333333334
    },
    {
      "instrumentId": 1,
      "instrumentName": "Piano",
      "isPercussion": false,
      "pitch": 55,
      "velocity": 96,
      "startTime": 53.5,
      "duration": 0.24895833333333428,
      "endTime": 53.748958333333334
    },
    {
      "instrumentId": 0,
      "instrumentName": "Piano",
      "isPercussion": false,
      "pitch": 67,
      "velocity": 96,
      "startTime": 53.75,
      "duration": 0.4989583333333343,
      "endTime": 54.248958333333334
    },
    {
      "instrumentId": 0,
      "instrumentName": "Piano",
      "isPercussion": false,
      "pitch": 74,
      "velocity": 96,
      "startTime": 53.75,
      "duration": 0.4989583333333343,
      "endTime": 54.248958333333334
    },
    {
      "instrumentId": 1,
      "instrumentName": "Piano",
      "isPercussion": false,
      "pitch": 43,
      "velocity": 96,
      "startTime": 53.75,
      "duration": 0.24895833333333428,
      "endTime": 53.998958333333334
    },
    {
      "instrumentId": 1,
      "instrumentName": "Piano",
      "isPercussion": false,
      "pitch": 41,
      "velocity": 96,
      "startTime": 54.0,
      "duration": 0.24895833333333428,
      "endTime": 54.248958333333334
    },
    {
      "instrumentId": 0,
      "instrumentName": "Piano",
      "isPercussion": false,
      "pitch": 64,
      "velocity": 96,
      "startTime": 54.25,
      "duration": 0.4989583333333343,
      "endTime": 54.748958333333334
    },
    {
      "instrumentId": 0,
      "instrumentName": "Piano",
      "isPercussion": false,
      "pitch": 69,
      "velocity": 96,
      "startTime": 54.25,
      "duration": 0.4989583333333343,
      "endTime": 54.748958333333334
    },
    {
      "instrumentId": 0,
      "instrumentName": "Piano",
      "isPercussion": false,
      "pitch": 72,
      "velocity": 96,
      "startTime": 54.25,
      "duration": 0.4989583333333343,
      "endTime": 54.748958333333334
    },
    {
      "instrumentId": 1,
      "instrumentName": "Piano",
      "isPercussion": false,
      "pitch": 48,
      "velocity": 96,
      "startTime": 54.25,
      "duration": 0.24895833333333428,
      "endTime": 54.498958333333334
    },
    {
      "instrumentId": 1,
      "instrumentName": "Piano",
      "isPercussion": false,
      "pitch": 53,
      "velocity": 96,
      "startTime": 54.5,
      "duration": 0.24895833333333428,
      "endTime": 54.748958333333334
    },
    {
      "instrumentId": 0,
      "instrumentName": "Piano",
      "isPercussion": false,
      "pitch": 64,
      "velocity": 96,
      "startTime": 54.75,
      "duration": 1.2489583333333343,
      "endTime": 55.998958333333334
    },
    {
      "instrumentId": 0,
      "instrumentName": "Piano",
      "isPercussion": false,
      "pitch": 67,
      "velocity": 96,
      "startTime": 54.75,
      "duration": 1.2489583333333343,
      "endTime": 55.998958333333334
    },
    {
      "instrumentId": 0,
      "instrumentName": "Piano",
      "isPercussion": false,
      "pitch": 72,
      "velocity": 96,
      "startTime": 54.75,
      "duration": 1.2489583333333343,
      "endTime": 55.998958333333334
    },
    {
      "instrumentId": 1,
      "instrumentName": "Piano",
      "isPercussion": false,
      "pitch": 41,
      "velocity": 96,
      "startTime": 54.75,
      "duration": 0.24895833333333428,
      "endTime": 54.998958333333334
    },
    {
      "instrumentId": 1,
      "instrumentName": "Piano",
      "isPercussion": false,
      "pitch": 36,
      "velocity": 96,
      "startTime": 55.0,
      "duration": 0.24895833333333428,
      "endTime": 55.248958333333334
    },
    {
      "instrumentId": 1,
      "instrumentName": "Piano",
      "isPercussion": false,
      "pitch": 43,
      "velocity": 96,
      "startTime": 55.25,
      "duration": 0.24895833333333428,
      "endTime": 55.498958333333334
    },
    {
      "instrumentId": 1,
      "instrumentName": "Piano",
      "isPercussion": false,
      "pitch": 48,
      "velocity": 96,
      "startTime": 55.5,
      "duration": 0.4989583333333343,
      "endTime": 55.998958333333334
    },
    {
      "instrumentId": 1,
      "instrumentName": "Piano",
      "isPercussion": false,
      "pitch": 52,
      "velocity": 96,
      "startTime": 55.5,
      "duration": 0.4989583333333343,
      "endTime": 55.998958333333334
    },
    {
      "instrumentId": 1,
      "instrumentName": "Piano",
      "isPercussion": false,
      "pitch": 45,
      "velocity": 96,
      "startTime": 56.0,
      "duration": 0.4989583333333343,
      "endTime": 56.498958333333334
    },
    {
      "instrumentId": 0,
      "instrumentName": "Piano",
      "isPercussion": false,
      "pitch": 72,
      "velocity": 96,
      "startTime": 56.5,
      "duration": 0.24895833333333428,
      "endTime": 56.748958333333334
    },
    {
      "instrumentId": 0,
      "instrumentName": "Piano",
      "isPercussion": false,
      "pitch": 76,
      "velocity": 96,
      "startTime": 56.5,
      "duration": 0.24895833333333428,
      "endTime": 56.748958333333334
    },
    {
      "instrumentId": 1,
      "instrumentName": "Piano",
      "isPercussion": false,
      "pitch": 52,
      "velocity": 96,
      "startTime": 56.5,
      "duration": 0.24895833333333428,
      "endTime": 56.748958333333334
    },
    {
      "instrumentId": 1,
      "instrumentName": "Piano",
      "isPercussion": false,
      "pitch": 57,
      "velocity": 96,
      "startTime": 56.5,
      "duration": 0.24895833333333428,
      "endTime": 56.748958333333334
    },
    {
      "instrumentId": 0,
      "instrumentName": "Piano",
      "isPercussion": false,
      "pitch": 72,
      "velocity": 96,
      "startTime": 56.75,
      "duration": 0.24895833333333428,
      "endTime": 56.998958333333334
    },
    {
      "instrumentId": 0,
      "instrumentName": "Piano",
      "isPercussion": false,
      "pitch": 76,
      "velocity": 96,
      "startTime": 56.75,
      "duration": 0.24895833333333428,
      "endTime": 56.998958333333334
    },
    {
      "instrumentId": 1,
      "instrumentName": "Piano",
      "isPercussion": false,
      "pitch": 45,
      "velocity": 96,
      "startTime": 56.75,
      "duration": 0.24895833333333428,
      "endTime": 56.998958333333334
    },
    {
      "instrumentId": 0,
      "instrumentName": "Piano",
      "isPercussion": false,
      "pitch": 71,
      "velocity": 96,
      "startTime": 57.0,
      "duration": 0.24895833333333428,
      "endTime": 57.248958333333334
    },
    {
      "instrumentId": 0,
      "instrumentName": "Piano",
      "isPercussion": false,
      "pitch": 74,
      "velocity": 96,
      "startTime": 57.0,
      "duration": 0.24895833333333428,
      "endTime": 57.248958333333334
    },
    {
      "instrumentId": 1,
      "instrumentName": "Piano",
      "isPercussion": false,
      "pitch": 43,
      "velocity": 96,
      "startTime": 57.0,
      "duration": 0.24895833333333428,
      "endTime": 57.248958333333334
    },
    {
      "instrumentId": 0,
      "instrumentName": "Piano",
      "isPercussion": false,
      "pitch": 71,
      "velocity": 96,
      "startTime": 57.25,
      "duration": 0.24895833333333428,
      "endTime": 57.498958333333334
    },
    {
      "instrumentId": 0,
      "instrumentName": "Piano",
      "isPercussion": false,
      "pitch": 74,
      "velocity": 96,
      "startTime": 57.25,
      "duration": 0.24895833333333428,
      "endTime": 57.498958333333334
    },
    {
      "instrumentId": 1,
      "instrumentName": "Piano",
      "isPercussion": false,
      "pitch": 50,
      "velocity": 96,
      "startTime": 57.25,
      "duration": 0.24895833333333428,
      "endTime": 57.498958333333334
    },
    {
      "instrumentId": 0,
      "instrumentName": "Piano",
      "isPercussion": false,
      "pitch": 67,
      "velocity": 96,
      "startTime": 57.5,
      "duration": 0.4989583333333343,
      "endTime": 57.998958333333334
    },
    {
      "instrumentId": 0,
      "instrumentName": "Piano",
      "isPercussion": false,
      "pitch": 72,
      "velocity": 96,
      "startTime": 57.5,
      "duration": 0.4989583333333343,
      "endTime": 57.998958333333334
    },
    {
      "instrumentId": 1,
      "instrumentName": "Piano",
      "isPercussion": false,
      "pitch": 55,
      "velocity": 96,
      "startTime": 57.5,
      "duration": 0.24895833333333428,
      "endTime": 57.748958333333334
    },
    {
      "instrumentId": 1,
      "instrumentName": "Piano",
      "isPercussion": false,
      "pitch": 43,
      "velocity": 96,
      "startTime": 57.75,
      "duration": 0.24895833333333428,
      "endTime": 57.998958333333334
    },
    {
      "instrumentId": 0,
      "instrumentName": "Piano",
      "isPercussion": false,
      "pitch": 74,
      "velocity": 96,
      "startTime": 58.0,
      "duration": 0.24895833333333428,
      "endTime": 58.248958333333334
    },
    {
      "instrumentId": 0,
      "instrumentName": "Piano",
      "isPercussion": false,
      "pitch": 77,
      "velocity": 96,
      "startTime": 58.0,
      "duration": 0.24895833333333428,
      "endTime": 58.248958333333334
    },
    {
      "instrumentId": 1,
      "instrumentName": "Piano",
      "isPercussion": false,
      "pitch": 41,
      "velocity": 96,
      "startTime": 58.0,
      "duration": 0.24895833333333428,
      "endTime": 58.248958333333334
    },
    {
      "instrumentId": 0,
      "instrumentName": "Piano",
      "isPercussion": false,
      "pitch": 74,
      "velocity": 96,
      "startTime": 58.25,
      "duration": 0.24895833333333428,
      "endTime": 58.498958333333334
    },
    {
      "instrumentId": 0,
      "instrumentName": "Piano",
      "isPercussion": false,
      "pitch": 77,
      "velocity": 96,
      "startTime": 58.25,
      "duration": 0.24895833333333428,
      "endTime": 58.498958333333334
    },
    {
      "instrumentId": 1,
      "instrumentName": "Piano",
      "isPercussion": false,
      "pitch": 48,
      "velocity": 96,
      "startTime": 58.25,
      "duration": 0.24895833333333428,
      "endTime": 58.498958333333334
    },
    {
      "instrumentId": 0,
      "instrumentName": "Piano",
      "isPercussion": false,
      "pitch": 74,
      "velocity": 96,
      "startTime": 58.5,
      "duration": 0.24895833333333428,
      "endTime": 58.748958333333334
    },
    {
      "instrumentId": 0,
      "instrumentName": "Piano",
      "isPercussion": false,
      "pitch": 77,
      "velocity": 96,
      "startTime": 58.5,
      "duration": 0.24895833333333428,
      "endTime": 58.748958333333334
    },
    {
      "instrumentId": 1,
      "instrumentName": "Piano",
      "isPercussion": false,
      "pitch": 53,
      "velocity": 96,
      "startTime": 58.5,
      "duration": 0.24895833333333428,
      "endTime": 58.748958333333334
    },
    {
      "instrumentId": 0,
      "instrumentName": "Piano",
      "isPercussion": false,
      "pitch": 72,
      "velocity": 96,
      "startTime": 58.75,
      "duration": 0.24895833333333428,
      "endTime": 58.998958333333334
    },
    {
      "instrumentId": 0,
      "instrumentName": "Piano",
      "isPercussion": false,
      "pitch": 76,
      "velocity": 96,
      "startTime": 58.75,
      "duration": 0.24895833333333428,
      "endTime": 58.998958333333334
    },
    {
      "instrumentId": 1,
      "instrumentName": "Piano",
      "isPercussion": false,
      "pitch": 41,
      "velocity": 96,
      "startTime": 58.75,
      "duration": 0.24895833333333428,
      "endTime": 58.998958333333334
    },
    {
      "instrumentId": 0,
      "instrumentName": "Piano",
      "isPercussion": false,
      "pitch": 72,
      "velocity": 96,
      "startTime": 59.0,
      "duration": 0.4989583333333343,
      "endTime": 59.498958333333334
    },
    {
      "instrumentId": 0,
      "instrumentName": "Piano",
      "isPercussion": false,
      "pitch": 76,
      "velocity": 96,
      "startTime": 59.0,
      "duration": 0.4989583333333343,
      "endTime": 59.498958333333334
    },
    {
      "instrumentId": 1,
      "instrumentName": "Piano",
      "isPercussion": false,
      "pitch": 48,
      "velocity": 96,
      "startTime": 59.0,
      "duration": 0.24895833333333428,
      "endTime": 59.248958333333334
    },
    {
      "instrumentId": 1,
      "instrumentName": "Piano",
      "isPercussion": false,
      "pitch": 55,
      "velocity": 96,
      "startTime": 59.25,
      "duration": 0.24895833333333428,
      "endTime": 59.498958333333334
    },
    {
      "instrumentId": 0,
      "instrumentName": "Piano",
      "isPercussion": false,
      "pitch": 72,
      "velocity": 96,
      "startTime": 59.5,
      "duration": 0.24895833333333428,
      "endTime": 59.748958333333334
    },
    {
      "instrumentId": 1,
      "instrumentName": "Piano",
      "isPercussion": false,
      "pitch": 60,
      "velocity": 96,
      "startTime": 59.5,
      "duration": 0.4989583333333343,
      "endTime": 59.998958333333334
    },
    {
      "instrumentId": 0,
      "instrumentName": "Piano",
      "isPercussion": false,
      "pitch": 74,
      "velocity": 96,
      "startTime": 59.75,
      "duration": 0.4989583333333343,
      "endTime": 60.248958333333334
    },
    {
      "instrumentId": 0,
      "instrumentName": "Piano",
      "isPercussion": false,
      "pitch": 77,
      "velocity": 96,
      "startTime": 59.75,
      "duration": 0.4989583333333343,
      "endTime": 60.248958333333334
    },
    {
      "instrumentId": 1,
      "instrumentName": "Piano",
      "isPercussion": false,
      "pitch": 45,
      "velocity": 96,
      "startTime": 60.0,
      "duration": 0.4989583333333343,
      "endTime": 60.498958333333334
    },
    {
      "instrumentId": 0,
      "instrumentName": "Piano",
      "isPercussion": false,
      "pitch": 72,
      "velocity": 96,
      "startTime": 60.25,
      "duration": 0.24895833333333428,
      "endTime": 60.498958333333334
    },
    {
      "instrumentId": 0,
      "instrumentName": "Piano",
      "isPercussion": false,
      "pitch": 76,
      "velocity": 96,
      "startTime": 60.25,
      "duration": 0.24895833333333428,
      "endTime": 60.498958333333334
    },
    {
      "instrumentId": 0,
      "instrumentName": "Piano",
      "isPercussion": false,
      "pitch": 72,
      "velocity": 96,
      "startTime": 60.5,
      "duration": 0.24895833333333428,
      "endTime": 60.748958333333334
    },
    {
      "instrumentId": 0,
      "instrumentName": "Piano",
      "isPercussion": false,
      "pitch": 76,
      "velocity": 96,
      "startTime": 60.5,
      "duration": 0.24895833333333428,
      "endTime": 60.748958333333334
    },
    {
      "instrumentId": 1,
      "instrumentName": "Piano",
      "isPercussion": false,
      "pitch": 52,
      "velocity": 96,
      "startTime": 60.5,
      "duration": 0.24895833333333428,
      "endTime": 60.748958333333334
    },
    {
      "instrumentId": 1,
      "instrumentName": "Piano",
      "isPercussion": false,
      "pitch": 57,
      "velocity": 96,
      "startTime": 60.5,
      "duration": 0.24895833333333428,
      "endTime": 60.748958333333334
    },
    {
      "instrumentId": 0,
      "instrumentName": "Piano",
      "isPercussion": false,
      "pitch": 67,
      "velocity": 96,
      "startTime": 60.75,
      "duration": 0.4989583333333343,
      "endTime": 61.248958333333334
    },
    {
      "instrumentId": 0,
      "instrumentName": "Piano",
      "isPercussion": false,
      "pitch": 74,
      "velocity": 96,
      "startTime": 60.75,
      "duration": 0.4989583333333343,
      "endTime": 61.248958333333334
    },
    {
      "instrumentId": 1,
      "instrumentName": "Piano",
      "isPercussion": false,
      "pitch": 45,
      "velocity": 96,
      "startTime": 60.75,
      "duration": 0.24895833333333428,
      "endTime": 60.998958333333334
    },
    {
      "instrumentId": 1,
      "instrumentName": "Piano",
      "isPercussion": false,
      "pitch": 43,
      "velocity": 96,
      "startTime": 61.0,
      "duration": 0.24895833333333428,
      "endTime": 61.248958333333334
    },
    {
      "instrumentId": 0,
      "instrumentName": "Piano",
      "isPercussion": false,
      "pitch": 69,
      "velocity": 96,
      "startTime": 61.25,
      "duration": 0.4989583333333343,
      "endTime": 61.748958333333334
    },
    {
      "instrumentId": 0,
      "instrumentName": "Piano",
      "isPercussion": false,
      "pitch": 76,
      "velocity": 96,
      "startTime": 61.25,
      "duration": 0.4989583333333343,
      "endTime": 61.748958333333334
    },
    {
      "instrumentId": 1,
      "instrumentName": "Piano",
      "isPercussion": false,
      "pitch": 50,
      "velocity": 96,
      "startTime": 61.25,
      "duration": 0.24895833333333428,
      "endTime": 61.498958333333334
    },
    {
      "instrumentId": 1,
      "instrumentName": "Piano",
      "isPercussion": false,
      "pitch": 55,
      "velocity": 96,
      "startTime": 61.5,
      "duration": 0.24895833333333428,
      "endTime": 61.748958333333334
    },
    {
      "instrumentId": 0,
      "instrumentName": "Piano",
      "isPercussion": false,
      "pitch": 67,
      "velocity": 96,
      "startTime": 61.75,
      "duration": 0.4989583333333343,
      "endTime": 62.248958333333334
    },
    {
      "instrumentId": 0,
      "instrumentName": "Piano",
      "isPercussion": false,
      "pitch": 74,
      "velocity": 96,
      "startTime": 61.75,
      "duration": 0.4989583333333343,
      "endTime": 62.248958333333334
    },
    {
      "instrumentId": 1,
      "instrumentName": "Piano",
      "isPercussion": false,
      "pitch": 43,
      "velocity": 96,
      "startTime": 61.75,
      "duration": 0.24895833333333428,
      "endTime": 61.998958333333334
    },
    {
      "instrumentId": 1,
      "instrumentName": "Piano",
      "isPercussion": false,
      "pitch": 41,
      "velocity": 96,
      "startTime": 62.0,
      "duration": 0.24895833333333428,
      "endTime": 62.248958333333334
    },
    {
      "instrumentId": 0,
      "instrumentName": "Piano",
      "isPercussion": false,
      "pitch": 64,
      "velocity": 96,
      "startTime": 62.25,
      "duration": 0.4989583333333343,
      "endTime": 62.748958333333334
    },
    {
      "instrumentId": 0,
      "instrumentName": "Piano",
      "isPercussion": false,
      "pitch": 69,
      "velocity": 96,
      "startTime": 62.25,
      "duration": 0.4989583333333343,
      "endTime": 62.748958333333334
    },
    {
      "instrumentId": 0,
      "instrumentName": "Piano",
      "isPercussion": false,
      "pitch": 72,
      "velocity": 96,
      "startTime": 62.25,
      "duration": 0.4989583333333343,
      "endTime": 62.748958333333334
    },
    {
      "instrumentId": 1,
      "instrumentName": "Piano",
      "isPercussion": false,
      "pitch": 48,
      "velocity": 96,
      "startTime": 62.25,
      "duration": 0.24895833333333428,
      "endTime": 62.498958333333334
    },
    {
      "instrumentId": 1,
      "instrumentName": "Piano",
      "isPercussion": false,
      "pitch": 53,
      "velocity": 96,
      "startTime": 62.5,
      "duration": 0.24895833333333428,
      "endTime": 62.748958333333334
    },
    {
      "instrumentId": 0,
      "instrumentName": "Piano",
      "isPercussion": false,
      "pitch": 64,
      "velocity": 96,
      "startTime": 62.75,
      "duration": 1.2489583333333343,
      "endTime": 63.998958333333334
    },
    {
      "instrumentId": 0,
      "instrumentName": "Piano",
      "isPercussion": false,
      "pitch": 67,
      "velocity": 96,
      "startTime": 62.75,
      "duration": 1.2489583333333343,
      "endTime": 63.998958333333334
    },
    {
      "instrumentId": 0,
      "instrumentName": "Piano",
      "isPercussion": false,
      "pitch": 72,
      "velocity": 96,
      "startTime": 62.75,
      "duration": 1.2489583333333343,
      "endTime": 63.998958333333334
    },
    {
      "instrumentId": 1,
      "instrumentName": "Piano",
      "isPercussion": false,
      "pitch": 41,
      "velocity": 96,
      "startTime": 62.75,
      "duration": 0.24895833333333428,
      "endTime": 62.998958333333334
    },
    {
      "instrumentId": 1,
      "instrumentName": "Piano",
      "isPercussion": false,
      "pitch": 36,
      "velocity": 96,
      "startTime": 63.0,
      "duration": 0.24895833333333428,
      "endTime": 63.248958333333334
    },
    {
      "instrumentId": 1,
      "instrumentName": "Piano",
      "isPercussion": false,
      "pitch": 43,
      "velocity": 96,
      "startTime": 63.25,
      "duration": 0.24895833333333428,
      "endTime": 63.498958333333334
    },
    {
      "instrumentId": 1,
      "instrumentName": "Piano",
      "isPercussion": false,
      "pitch": 48,
      "velocity": 96,
      "startTime": 63.5,
      "duration": 0.4989583333333343,
      "endTime": 63.998958333333334
    },
    {
      "instrumentId": 1,
      "instrumentName": "Piano",
      "isPercussion": false,
      "pitch": 52,
      "velocity": 96,
      "startTime": 63.5,
      "duration": 0.4989583333333343,
      "endTime": 63.998958333333334
    },
    {
      "instrumentId": 0,
      "instrumentName": "Piano",
      "isPercussion": false,
      "pitch": 72,
      "velocity": 80,
      "startTime": 64.0,
      "duration": 0.24895833333333428,
      "endTime": 64.24895833333333
    },
    {
      "instrumentId": 1,
      "instrumentName": "Piano",
      "isPercussion": false,
      "pitch": 45,
      "velocity": 80,
      "startTime": 64.0,
      "duration": 0.4989583333333343,
      "endTime": 64.49895833333333
    },
    {
      "instrumentId": 0,
      "instrumentName": "Piano",
      "isPercussion": false,
      "pitch": 69,
      "velocity": 80,
      "startTime": 64.25,
      "duration": 0.24895833333333428,
      "endTime": 64.49895833333333
    },
    {
      "instrumentId": 0,
      "instrumentName": "Piano",
      "isPercussion": false,
      "pitch": 67,
      "velocity": 80,
      "startTime": 64.5,
      "duration": 0.24895833333333428,
      "endTime": 64.74895833333333
    },
    {
      "instrumentId": 1,
      "instrumentName": "Piano",
      "isPercussion": false,
      "pitch": 52,
      "velocity": 80,
      "startTime": 64.5,
      "duration": 0.24895833333333428,
      "endTime": 64.74895833333333
    },
    {
      "instrumentId": 1,
      "instrumentName": "Piano",
      "isPercussion": false,
      "pitch": 57,
      "velocity": 80,
      "startTime": 64.5,
      "duration": 0.24895833333333428,
      "endTime": 64.74895833333333
    },
    {
      "instrumentId": 0,
      "instrumentName": "Piano",
      "isPercussion": false,
      "pitch": 69,
      "velocity": 80,
      "startTime": 64.75,
      "duration": 0.24895833333333428,
      "endTime": 64.99895833333333
    },
    {
      "instrumentId": 1,
      "instrumentName": "Piano",
      "isPercussion": false,
      "pitch": 45,
      "velocity": 80,
      "startTime": 64.75,
      "duration": 0.24895833333333428,
      "endTime": 64.99895833333333
    },
    {
      "instrumentId": 0,
      "instrumentName": "Piano",
      "isPercussion": false,
      "pitch": 72,
      "velocity": 80,
      "startTime": 65.0,
      "duration": 0.24895833333333428,
      "endTime": 65.24895833333333
    },
    {
      "instrumentId": 1,
      "instrumentName": "Piano",
      "isPercussion": false,
      "pitch": 43,
      "velocity": 80,
      "startTime": 65.0,
      "duration": 0.4989583333333343,
      "endTime": 65.49895833333333
    },
    {
      "instrumentId": 0,
      "instrumentName": "Piano",
      "isPercussion": false,
      "pitch": 69,
      "velocity": 80,
      "startTime": 65.25,
      "duration": 0.24895833333333428,
      "endTime": 65.49895833333333
    },
    {
      "instrumentId": 0,
      "instrumentName": "Piano",
      "isPercussion": false,
      "pitch": 67,
      "velocity": 80,
      "startTime": 65.5,
      "duration": 0.24895833333333428,
      "endTime": 65.74895833333333
    },
    {
      "instrumentId": 1,
      "instrumentName": "Piano",
      "isPercussion": false,
      "pitch": 52,
      "velocity": 80,
      "startTime": 65.5,
      "duration": 0.24895833333333428,
      "endTime": 65.74895833333333
    },
    {
      "instrumentId": 1,
      "instrumentName": "Piano",
      "isPercussion": false,
      "pitch": 55,
      "velocity": 80,
      "startTime": 65.5,
      "duration": 0.24895833333333428,
      "endTime": 65.74895833333333
    },
    {
      "instrumentId": 0,
      "instrumentName": "Piano",
      "isPercussion": false,
      "pitch": 69,
      "velocity": 80,
      "startTime": 65.75,
      "duration": 0.24895833333333428,
      "endTime": 65.99895833333333
    },
    {
      "instrumentId": 1,
      "instrumentName": "Piano",
      "isPercussion": false,
      "pitch": 43,
      "velocity": 80,
      "startTime": 65.75,
      "duration": 0.24895833333333428,
      "endTime": 65.99895833333333
    },
    {
      "instrumentId": 0,
      "instrumentName": "Piano",
      "isPercussion": false,
      "pitch": 72,
      "velocity": 80,
      "startTime": 66.0,
      "duration": 0.24895833333333428,
      "endTime": 66.24895833333333
    },
    {
      "instrumentId": 1,
      "instrumentName": "Piano",
      "isPercussion": false,
      "pitch": 41,
      "velocity": 80,
      "startTime": 66.0,
      "duration": 0.4989583333333343,
      "endTime": 66.49895833333333
    },
    {
      "instrumentId": 0,
      "instrumentName": "Piano",
      "isPercussion": false,
      "pitch": 69,
      "velocity": 80,
      "startTime": 66.25,
      "duration": 0.24895833333333428,
      "endTime": 66.49895833333333
    },
    {
      "instrumentId": 0,
      "instrumentName": "Piano",
      "isPercussion": false,
      "pitch": 67,
      "velocity": 80,
      "startTime": 66.5,
      "duration": 0.24895833333333428,
      "endTime": 66.74895833333333
    },
    {
      "instrumentId": 1,
      "instrumentName": "Piano",
      "isPercussion": false,
      "pitch": 48,
      "velocity": 80,
      "startTime": 66.5,
      "duration": 0.24895833333333428,
      "endTime": 66.74895833333333
    },
    {
      "instrumentId": 1,
      "instrumentName": "Piano",
      "isPercussion": false,
      "pitch": 53,
      "velocity": 80,
      "startTime": 66.5,
      "duration": 0.24895833333333428,
      "endTime": 66.74895833333333
    },
    {
      "instrumentId": 0,
      "instrumentName": "Piano",
      "isPercussion": false,
      "pitch": 69,
      "velocity": 80,
      "startTime": 66.75,
      "duration": 0.24895833333333428,
      "endTime": 66.99895833333333
    },
    {
      "instrumentId": 1,
      "instrumentName": "Piano",
      "isPercussion": false,
      "pitch": 41,
      "velocity": 80,
      "startTime": 66.75,
      "duration": 0.24895833333333428,
      "endTime": 66.99895833333333
    },
    {
      "instrumentId": 0,
      "instrumentName": "Piano",
      "isPercussion": false,
      "pitch": 76,
      "velocity": 80,
      "startTime": 67.0,
      "duration": 0.24895833333333428,
      "endTime": 67.24895833333333
    },
    {
      "instrumentId": 1,
      "instrumentName": "Piano",
      "isPercussion": false,
      "pitch": 48,
      "velocity": 80,
      "startTime": 67.0,
      "duration": 0.24895833333333428,
      "endTime": 67.24895833333333
    },
    {
      "instrumentId": 0,
      "instrumentName": "Piano",
      "isPercussion": false,
      "pitch": 74,
      "velocity": 80,
      "startTime": 67.25,
      "duration": 0.24895833333333428,
      "endTime": 67.49895833333333
    },
    {
      "instrumentId": 1,
      "instrumentName": "Piano",
      "isPercussion": false,
      "pitch": 55,
      "velocity": 80,
      "startTime": 67.25,
      "duration": 0.24895833333333428,
      "endTime": 67.49895833333333
    },
    {
      "instrumentId": 1,
      "instrumentName": "Piano",
      "isPercussion": false,
      "pitch": 60,
      "velocity": 80,
      "startTime": 67.25,
      "duration": 0.24895833333333428,
      "endTime": 67.49895833333333
    },
    {
      "instrumentId": 0,
      "instrumentName": "Piano",
      "isPercussion": false,
      "pitch": 72,
      "velocity": 80,
      "startTime": 67.5,
      "duration": 0.24895833333333428,
      "endTime": 67.74895833333333
    },
    {
      "instrumentId": 1,
      "instrumentName": "Piano",
      "isPercussion": false,
      "pitch": 48,
      "velocity": 80,
      "startTime": 67.5,
      "duration": 0.24895833333333428,
      "endTime": 67.74895833333333
    },
    {
      "instrumentId": 0,
      "instrumentName": "Piano",
      "isPercussion": false,
      "pitch": 74,
      "velocity": 80,
      "startTime": 67.75,
      "duration": 0.24895833333333428,
      "endTime": 67.99895833333333
    },
    {
      "instrumentId": 1,
      "instrumentName": "Piano",
      "isPercussion": false,
      "pitch": 43,
      "velocity": 80,
      "startTime": 67.75,
      "duration": 0.24895833333333428,
      "endTime": 67.99895833333333
    },
    {
      "instrumentId": 0,
      "instrumentName": "Piano",
      "isPercussion": false,
      "pitch": 72,
      "velocity": 80,
      "startTime": 68.0,
      "duration": 0.24895833333333428,
      "endTime": 68.24895833333333
    },
    {
      "instrumentId": 1,
      "instrumentName": "Piano",
      "isPercussion": false,
      "pitch": 45,
      "velocity": 80,
      "startTime": 68.0,
      "duration": 0.4989583333333343,
      "endTime": 68.49895833333333
    },
    {
      "instrumentId": 0,
      "instrumentName": "Piano",
      "isPercussion": false,
      "pitch": 69,
      "velocity": 80,
      "startTime": 68.25,
      "duration": 0.24895833333333428,
      "endTime": 68.49895833333333
    },
    {
      "instrumentId": 0,
      "instrumentName": "Piano",
      "isPercussion": false,
      "pitch": 67,
      "velocity": 80,
      "startTime": 68.5,
      "duration": 0.24895833333333428,
      "endTime": 68.74895833333333
    },
    {
      "instrumentId": 1,
      "instrumentName": "Piano",
      "isPercussion": false,
      "pitch": 52,
      "velocity": 80,
      "startTime": 68.5,
      "duration": 0.24895833333333428,
      "endTime": 68.74895833333333
    },
    {
      "instrumentId": 1,
      "instrumentName": "Piano",
      "isPercussion": false,
      "pitch": 57,
      "velocity": 80,
      "startTime": 68.5,
      "duration": 0.24895833333333428,
      "endTime": 68.74895833333333
    },
    {
      "instrumentId": 0,
      "instrumentName": "Piano",
      "isPercussion": false,
      "pitch": 69,
      "velocity": 80,
      "startTime": 68.75,
      "duration": 0.24895833333333428,
      "endTime": 68.99895833333333
    },
    {
      "instrumentId": 1,
      "instrumentName": "Piano",
      "isPercussion": false,
      "pitch": 45,
      "velocity": 80,
      "startTime": 68.75,
      "duration": 0.24895833333333428,
      "endTime": 68.99895833333333
    },
    {
      "instrumentId": 0,
      "instrumentName": "Piano",
      "isPercussion": false,
      "pitch": 72,
      "velocity": 80,
      "startTime": 69.0,
      "duration": 0.24895833333333428,
      "endTime": 69.24895833333333
    },
    {
      "instrumentId": 1,
      "instrumentName": "Piano",
      "isPercussion": false,
      "pitch": 43,
      "velocity": 80,
      "startTime": 69.0,
      "duration": 0.4989583333333343,
      "endTime": 69.49895833333333
    },
    {
      "instrumentId": 0,
      "instrumentName": "Piano",
      "isPercussion": false,
      "pitch": 69,
      "velocity": 80,
      "startTime": 69.25,
      "duration": 0.24895833333333428,
      "endTime": 69.49895833333333
    },
    {
      "instrumentId": 0,
      "instrumentName": "Piano",
      "isPercussion": false,
      "pitch": 67,
      "velocity": 80,
      "startTime": 69.5,
      "duration": 0.24895833333333428,
      "endTime": 69.74895833333333
    },
    {
      "instrumentId": 1,
      "instrumentName": "Piano",
      "isPercussion": false,
      "pitch": 52,
      "velocity": 80,
      "startTime": 69.5,
      "duration": 0.24895833333333428,
      "endTime": 69.74895833333333
    },
    {
      "instrumentId": 1,
      "instrumentName": "Piano",
      "isPercussion": false,
      "pitch": 55,
      "velocity": 80,
      "startTime": 69.5,
      "duration": 0.24895833333333428,
      "endTime": 69.74895833333333
    },
    {
      "instrumentId": 0,
      "instrumentName": "Piano",
      "isPercussion": false,
      "pitch": 69,
      "velocity": 80,
      "startTime": 69.75,
      "duration": 0.24895833333333428,
      "endTime": 69.99895833333333
    },
    {
      "instrumentId": 1,
      "instrumentName": "Piano",
      "isPercussion": false,
      "pitch": 43,
      "velocity": 80,
      "startTime": 69.75,
      "duration": 0.24895833333333428,
      "endTime": 69.99895833333333
    },
    {
      "instrumentId": 0,
      "instrumentName": "Piano",
      "isPercussion": false,
      "pitch": 72,
      "velocity": 80,
      "startTime": 70.0,
      "duration": 0.24895833333333428,
      "endTime": 70.24895833333333
    },
    {
      "instrumentId": 1,
      "instrumentName": "Piano",
      "isPercussion": false,
      "pitch": 41,
      "velocity": 80,
      "startTime": 70.0,
      "duration": 0.4989583333333343,
      "endTime": 70.49895833333333
    },
    {
      "instrumentId": 0,
      "instrumentName": "Piano",
      "isPercussion": false,
      "pitch": 69,
      "velocity": 80,
      "startTime": 70.25,
      "duration": 0.24895833333333428,
      "endTime": 70.49895833333333
    },
    {
      "instrumentId": 0,
      "instrumentName": "Piano",
      "isPercussion": false,
      "pitch": 67,
      "velocity": 80,
      "startTime": 70.5,
      "duration": 0.24895833333333428,
      "endTime": 70.74895833333333
    },
    {
      "instrumentId": 1,
      "instrumentName": "Piano",
      "isPercussion": false,
      "pitch": 48,
      "velocity": 80,
      "startTime": 70.5,
      "duration": 0.24895833333333428,
      "endTime": 70.74895833333333
    },
    {
      "instrumentId": 1,
      "instrumentName": "Piano",
      "isPercussion": false,
      "pitch": 53,
      "velocity": 80,
      "startTime": 70.5,
      "duration": 0.24895833333333428,
      "endTime": 70.74895833333333
    },
    {
      "instrumentId": 0,
      "instrumentName": "Piano",
      "isPercussion": false,
      "pitch": 69,
      "velocity": 80,
      "startTime": 70.75,
      "duration": 0.24895833333333428,
      "endTime": 70.99895833333333
    },
    {
      "instrumentId": 1,
      "instrumentName": "Piano",
      "isPercussion": false,
      "pitch": 41,
      "velocity": 80,
      "startTime": 70.75,
      "duration": 0.24895833333333428,
      "endTime": 70.99895833333333
    },
    {
      "instrumentId": 0,
      "instrumentName": "Piano",
      "isPercussion": false,
      "pitch": 72,
      "velocity": 80,
      "startTime": 71.0,
      "duration": 0.9989583333333343,
      "endTime": 71.99895833333333
    },
    {
      "instrumentId": 1,
      "instrumentName": "Piano",
      "isPercussion": false,
      "pitch": 36,
      "velocity": 80,
      "startTime": 71.0,
      "duration": 0.24895833333333428,
      "endTime": 71.24895833333333
    },
    {
      "instrumentId": 1,
      "instrumentName": "Piano",
      "isPercussion": false,
      "pitch": 43,
      "velocity": 80,
      "startTime": 71.25,
      "duration": 0.24895833333333428,
      "endTime": 71.49895833333333
    },
    {
      "instrumentId": 1,
      "instrumentName": "Piano",
      "isPercussion": false,
      "pitch": 48,
      "velocity": 80,
      "startTime": 71.5,
      "duration": 0.24895833333333428,
      "endTime": 71.74895833333333
    },
    {
      "instrumentId": 1,
      "instrumentName": "Piano",
      "isPercussion": false,
      "pitch": 43,
      "velocity": 80,
      "startTime": 71.75,
      "duration": 0.24895833333333428,
      "endTime": 71.99895833333333
    },
    {
      "instrumentId": 1,
      "instrumentName": "Piano",
      "isPercussion": false,
      "pitch": 45,
      "velocity": 80,
      "startTime": 72.0,
      "duration": 0.4989583333333343,
      "endTime": 72.49895833333333
    },
    {
      "instrumentId": 0,
      "instrumentName": "Piano",
      "isPercussion": false,
      "pitch": 67,
      "velocity": 80,
      "startTime": 72.25,
      "duration": 0.24895833333333428,
      "endTime": 72.49895833333333
    },
    {
      "instrumentId": 0,
      "instrumentName": "Piano",
      "isPercussion": false,
      "pitch": 72,
      "velocity": 80,
      "startTime": 72.25,
      "duration": 0.24895833333333428,
      "endTime": 72.49895833333333
    },
    {
      "instrumentId": 0,
      "instrumentName": "Piano",
      "isPercussion": false,
      "pitch": 76,
      "velocity": 80,
      "startTime": 72.25,
      "duration": 0.24895833333333428,
      "endTime": 72.49895833333333
    },
    {
      "instrumentId": 0,
      "instrumentName": "Piano",
      "isPercussion": false,
      "pitch": 72,
      "velocity": 80,
      "startTime": 72.5,
      "duration": 0.24895833333333428,
      "endTime": 72.74895833333333
    },
    {
      "instrumentId": 0,
      "instrumentName": "Piano",
      "isPercussion": false,
      "pitch": 76,
      "velocity": 80,
      "startTime": 72.5,
      "duration": 0.24895833333333428,
      "endTime": 72.74895833333333
    },
    {
      "instrumentId": 1,
      "instrumentName": "Piano",
      "isPercussion": false,
      "pitch": 52,
      "velocity": 80,
      "startTime": 72.5,
      "duration": 0.24895833333333428,
      "endTime": 72.74895833333333
    },
    {
      "instrumentId": 1,
      "instrumentName": "Piano",
      "isPercussion": false,
      "pitch": 57,
      "velocity": 80,
      "startTime": 72.5,
      "duration": 0.24895833333333428,
      "endTime": 72.74895833333333
    },
    {
      "instrumentId": 0,
      "instrumentName": "Piano",
      "isPercussion": false,
      "pitch": 72,
      "velocity": 80,
      "startTime": 72.75,
      "duration": 0.24895833333333428,
      "endTime": 72.99895833333333
    },
    {
      "instrumentId": 0,
      "instrumentName": "Piano",
      "isPercussion": false,
      "pitch": 76,
      "velocity": 80,
      "startTime": 72.75,
      "duration": 0.24895833333333428,
      "endTime": 72.99895833333333
    },
    {
      "instrumentId": 1,
      "instrumentName": "Piano",
      "isPercussion": false,
      "pitch": 45,
      "velocity": 80,
      "startTime": 72.75,
      "duration": 0.24895833333333428,
      "endTime": 72.99895833333333
    },
    {
      "instrumentId": 0,
      "instrumentName": "Piano",
      "isPercussion": false,
      "pitch": 72,
      "velocity": 80,
      "startTime": 73.0,
      "duration": 0.9989583333333343,
      "endTime": 73.99895833333333
    },
    {
      "instrumentId": 0,
      "instrumentName": "Piano",
      "isPercussion": false,
      "pitch": 76,
      "velocity": 80,
      "startTime": 73.0,
      "duration": 0.9989583333333343,
      "endTime": 73.99895833333333
    },
    {
      "instrumentId": 1,
      "instrumentName": "Piano",
      "isPercussion": false,
      "pitch": 43,
      "velocity": 80,
      "startTime": 73.0,
      "duration": 0.4989583333333343,
      "endTime": 73.49895833333333
    },
    {
      "instrumentId": 1,
      "instrumentName": "Piano",
      "isPercussion": false,
      "pitch": 52,
      "velocity": 80,
      "startTime": 73.5,
      "duration": 0.24895833333333428,
      "endTime": 73.74895833333333
    },
    {
      "instrumentId": 1,
      "instrumentName": "Piano",
      "isPercussion": false,
      "pitch": 55,
      "velocity": 80,
      "startTime": 73.5,
      "duration": 0.24895833333333428,
      "endTime": 73.74895833333333
    },
    {
      "instrumentId": 1,
      "instrumentName": "Piano",
      "isPercussion": false,
      "pitch": 43,
      "velocity": 80,
      "startTime": 73.75,
      "duration": 0.24895833333333428,
      "endTime": 73.99895833333333
    },
    {
      "instrumentId": 1,
      "instrumentName": "Piano",
      "isPercussion": false,
      "pitch": 41,
      "velocity": 80,
      "startTime": 74.0,
      "duration": 0.4989583333333343,
      "endTime": 74.49895833333333
    },
    {
      "instrumentId": 0,
      "instrumentName": "Piano",
      "isPercussion": false,
      "pitch": 69,
      "velocity": 80,
      "startTime": 74.25,
      "duration": 0.24895833333333428,
      "endTime": 74.49895833333333
    },
    {
      "instrumentId": 0,
      "instrumentName": "Piano",
      "isPercussion": false,
      "pitch": 74,
      "velocity": 80,
      "startTime": 74.25,
      "duration": 0.24895833333333428,
      "endTime": 74.49895833333333
    },
    {
      "instrumentId": 0,
      "instrumentName": "Piano",
      "isPercussion": false,
      "pitch": 77,
      "velocity": 80,
      "startTime": 74.25,
      "duration": 0.24895833333333428,
      "endTime": 74.49895833333333
    },
    {
      "instrumentId": 0,
      "instrumentName": "Piano",
      "isPercussion": false,
      "pitch": 74,
      "velocity": 80,
      "startTime": 74.5,
      "duration": 0.24895833333333428,
      "endTime": 74.74895833333333
    },
    {
      "instrumentId": 0,
      "instrumentName": "Piano",
      "isPercussion": false,
      "pitch": 77,
      "velocity": 80,
      "startTime": 74.5,
      "duration": 0.24895833333333428,
      "endTime": 74.74895833333333
    },
    {
      "instrumentId": 1,
      "instrumentName": "Piano",
      "isPercussion": false,
      "pitch": 48,
      "velocity": 80,
      "startTime": 74.5,
      "duration": 0.24895833333333428,
      "endTime": 74.74895833333333
    },
    {
      "instrumentId": 1,
      "instrumentName": "Piano",
      "isPercussion": false,
      "pitch": 53,
      "velocity": 80,
      "startTime": 74.5,
      "duration": 0.24895833333333428,
      "endTime": 74.74895833333333
    },
    {
      "instrumentId": 0,
      "instrumentName": "Piano",
      "isPercussion": false,
      "pitch": 74,
      "velocity": 80,
      "startTime": 74.75,
      "duration": 0.24895833333333428,
      "endTime": 74.99895833333333
    },
    {
      "instrumentId": 0,
      "instrumentName": "Piano",
      "isPercussion": false,
      "pitch": 77,
      "velocity": 80,
      "startTime": 74.75,
      "duration": 0.24895833333333428,
      "endTime": 74.99895833333333
    },
    {
      "instrumentId": 1,
      "instrumentName": "Piano",
      "isPercussion": false,
      "pitch": 41,
      "velocity": 80,
      "startTime": 74.75,
      "duration": 0.24895833333333428,
      "endTime": 74.99895833333333
    },
    {
      "instrumentId": 0,
      "instrumentName": "Piano",
      "isPercussion": false,
      "pitch": 69,
      "velocity": 80,
      "startTime": 75.0,
      "duration": 0.24895833333333428,
      "endTime": 75.24895833333333
    },
    {
      "instrumentId": 0,
      "instrumentName": "Piano",
      "isPercussion": false,
      "pitch": 74,
      "velocity": 80,
      "startTime": 75.0,
      "duration": 0.24895833333333428,
      "endTime": 75.24895833333333
    },
    {
      "instrumentId": 0,
      "instrumentName": "Piano",
      "isPercussion": false,
      "pitch": 77,
      "velocity": 80,
      "startTime": 75.0,
      "duration": 0.24895833333333428,
      "endTime": 75.24895833333333
    },
    {
      "instrumentId": 1,
      "instrumentName": "Piano",
      "isPercussion": false,
      "pitch": 48,
      "velocity": 80,
      "startTime": 75.0,
      "duration": 0.24895833333333428,
      "endTime": 75.24895833333333
    },
    {
      "instrumentId": 0,
      "instrumentName": "Piano",
      "isPercussion": false,
      "pitch": 67,
      "velocity": 80,
      "startTime": 75.25,
      "duration": 0.7489583333333343,
      "endTime": 75.99895833333333
    },
    {
      "instrumentId": 0,
      "instrumentName": "Piano",
      "isPercussion": false,
      "pitch": 72,
      "velocity": 80,
      "startTime": 75.25,
      "duration": 0.7489583333333343,
      "endTime": 75.99895833333333
    },
    {
      "instrumentId": 0,
      "instrumentName": "Piano",
      "isPercussion": false,
      "pitch": 76,
      "velocity": 80,
      "startTime": 75.25,
      "duration": 0.7489583333333343,
      "endTime": 75.99895833333333
    },
    {
      "instrumentId": 1,
      "instrumentName": "Piano",
      "isPercussion": false,
      "pitch": 55,
      "velocity": 80,
      "startTime": 75.25,
      "duration": 0.24895833333333428,
      "endTime": 75.49895833333333
    },
    {
      "instrumentId": 1,
      "instrumentName": "Piano",
      "isPercussion": false,
      "pitch": 60,
      "velocity": 80,
      "startTime": 75.25,
      "duration": 0.24895833333333428,
      "endTime": 75.49895833333333
    },
    {
      "instrumentId": 1,
      "instrumentName": "Piano",
      "isPercussion": false,
      "pitch": 48,
      "velocity": 80,
      "startTime": 75.5,
      "duration": 0.24895833333333428,
      "endTime": 75.74895833333333
    },
    {
      "instrumentId": 1,
      "instrumentName": "Piano",
      "isPercussion": false,
      "pitch": 43,
      "velocity": 80,
      "startTime": 75.75,
      "duration": 0.24895833333333428,
      "endTime": 75.99895833333333
    },
    {
      "instrumentId": 1,
      "instrumentName": "Piano",
      "isPercussion": false,
      "pitch": 45,
      "velocity": 80,
      "startTime": 76.0,
      "duration": 0.4989583333333343,
      "endTime": 76.49895833333333
    },
    {
      "instrumentId": 0,
      "instrumentName": "Piano",
      "isPercussion": false,
      "pitch": 69,
      "velocity": 80,
      "startTime": 76.5,
      "duration": 0.24895833333333428,
      "endTime": 76.74895833333333
    },
    {
      "instrumentId": 0,
      "instrumentName": "Piano",
      "isPercussion": false,
      "pitch": 74,
      "velocity": 80,
      "startTime": 76.5,
      "duration": 0.24895833333333428,
      "endTime": 76.74895833333333
    },
    {
      "instrumentId": 0,
      "instrumentName": "Piano",
      "isPercussion": false,
      "pitch": 77,
      "velocity": 80,
      "startTime": 76.5,
      "duration": 0.24895833333333428,
      "endTime": 76.74895833333333
    },
    {
      "instrumentId": 1,
      "instrumentName": "Piano",
      "isPercussion": false,
      "pitch": 52,
      "velocity": 80,
      "startTime": 76.5,
      "duration": 0.24895833333333428,
      "endTime": 76.74895833333333
    },
    {
      "instrumentId": 1,
      "instrumentName": "Piano",
      "isPercussion": false,
      "pitch": 57,
      "velocity": 80,
      "startTime": 76.5,
      "duration": 0.24895833333333428,
      "endTime": 76.74895833333333
    },
    {
      "instrumentId": 0,
      "instrumentName": "Piano",
      "isPercussion": false,
      "pitch": 74,
      "velocity": 80,
      "startTime": 76.75,
      "duration": 0.24895833333333428,
      "endTime": 76.99895833333333
    },
    {
      "instrumentId": 0,
      "instrumentName": "Piano",
      "isPercussion": false,
      "pitch": 77,
      "velocity": 80,
      "startTime": 76.75,
      "duration": 0.24895833333333428,
      "endTime": 76.99895833333333
    },
    {
      "instrumentId": 1,
      "instrumentName": "Piano",
      "isPercussion": false,
      "pitch": 45,
      "velocity": 80,
      "startTime": 76.75,
      "duration": 0.24895833333333428,
      "endTime": 76.99895833333333
    },
    {
      "instrumentId": 0,
      "instrumentName": "Piano",
      "isPercussion": false,
      "pitch": 74,
      "velocity": 80,
      "startTime": 77.0,
      "duration": 0.24895833333333428,
      "endTime": 77.24895833333333
    },
    {
      "instrumentId": 0,
      "instrumentName": "Piano",
      "isPercussion": false,
      "pitch": 77,
      "velocity": 80,
      "startTime": 77.0,
      "duration": 0.24895833333333428,
      "endTime": 77.24895833333333
    },
    {
      "instrumentId": 1,
      "instrumentName": "Piano",
      "isPercussion": false,
      "pitch": 43,
      "velocity": 80,
      "startTime": 77.0,
      "duration": 0.4989583333333343,
      "endTime": 77.49895833333333
    },
    {
      "instrumentId": 0,
      "instrumentName": "Piano",
      "isPercussion": false,
      "pitch": 72,
      "velocity": 80,
      "startTime": 77.25,
      "duration": 0.24895833333333428,
      "endTime": 77.49895833333333
    },
    {
      "instrumentId": 0,
      "instrumentName": "Piano",
      "isPercussion": false,
      "pitch": 76,
      "velocity": 80,
      "startTime": 77.25,
      "duration": 0.24895833333333428,
      "endTime": 77.49895833333333
    },
    {
      "instrumentId": 0,
      "instrumentName": "Piano",
      "isPercussion": false,
      "pitch": 72,
      "velocity": 80,
      "startTime": 77.5,
      "duration": 0.24895833333333428,
      "endTime": 77.74895833333333
    },
    {
      "instrumentId": 0,
      "instrumentName": "Piano",
      "isPercussion": false,
      "pitch": 76,
      "velocity": 80,
      "startTime": 77.5,
      "duration": 0.24895833333333428,
      "endTime": 77.74895833333333
    },
    {
      "instrumentId": 1,
      "instrumentName": "Piano",
      "isPercussion": false,
      "pitch": 52,
      "velocity": 80,
      "startTime": 77.5,
      "duration": 0.24895833333333428,
      "endTime": 77.74895833333333
    },
    {
      "instrumentId": 1,
      "instrumentName": "Piano",
      "isPercussion": false,
      "pitch": 55,
      "velocity": 80,
      "startTime": 77.5,
      "duration": 0.24895833333333428,
      "endTime": 77.74895833333333
    },
    {
      "instrumentId": 0,
      "instrumentName": "Piano",
      "isPercussion": false,
      "pitch": 74,
      "velocity": 80,
      "startTime": 77.75,
      "duration": 0.24895833333333428,
      "endTime": 77.99895833333333
    },
    {
      "instrumentId": 1,
      "instrumentName": "Piano",
      "isPercussion": false,
      "pitch": 43,
      "velocity": 80,
      "startTime": 77.75,
      "duration": 0.24895833333333428,
      "endTime": 77.99895833333333
    },
    {
      "instrumentId": 0,
      "instrumentName": "Piano",
      "isPercussion": false,
      "pitch": 65,
      "velocity": 80,
      "startTime": 78.0,
      "duration": 0.4989583333333343,
      "endTime": 78.49895833333333
    },
    {
      "instrumentId": 0,
      "instrumentName": "Piano",
      "isPercussion": false,
      "pitch": 69,
      "velocity": 80,
      "startTime": 78.0,
      "duration": 0.4989583333333343,
      "endTime": 78.49895833333333
    },
    {
      "instrumentId": 0,
      "instrumentName": "Piano",
      "isPercussion": false,
      "pitch": 74,
      "velocity": 80,
      "startTime": 78.0,
      "duration": 0.4989583333333343,
      "endTime": 78.49895833333333
    },
    {
      "instrumentId": 1,
      "instrumentName": "Piano",
      "isPercussion": false,
      "pitch": 41,
      "velocity": 80,
      "startTime": 78.0,
      "duration": 0.4989583333333343,
      "endTime": 78.49895833333333
    },
    {
      "instrumentId": 0,
      "instrumentName": "Piano",
      "isPercussion": false,
      "pitch": 69,
      "velocity": 80,
      "startTime": 78.5,
      "duration": 0.24895833333333428,
      "endTime": 78.74895833333333
    },
    {
      "instrumentId": 0,
      "instrumentName": "Piano",
      "isPercussion": false,
      "pitch": 74,
      "velocity": 80,
      "startTime": 78.5,
      "duration": 0.24895833333333428,
      "endTime": 78.74895833333333
    },
    {
      "instrumentId": 1,
      "instrumentName": "Piano",
      "isPercussion": false,
      "pitch": 48,
      "velocity": 80,
      "startTime": 78.5,
      "duration": 0.24895833333333428,
      "endTime": 78.74895833333333
    },
    {
      "instrumentId": 1,
      "instrumentName": "Piano",
      "isPercussion": false,
      "pitch": 53,
      "velocity": 80,
      "startTime": 78.5,
      "duration": 0.24895833333333428,
      "endTime": 78.74895833333333
    },
    {
      "instrumentId": 0,
      "instrumentName": "Piano",
      "isPercussion": false,
      "pitch": 69,
      "velocity": 80,
      "startTime": 78.75,
      "duration": 0.24895833333333428,
      "endTime": 78.99895833333333
    },
    {
      "instrumentId": 0,
      "instrumentName": "Piano",
      "isPercussion": false,
      "pitch": 74,
      "velocity": 80,
      "startTime": 78.75,
      "duration": 0.24895833333333428,
      "endTime": 78.99895833333333
    },
    {
      "instrumentId": 1,
      "instrumentName": "Piano",
      "isPercussion": false,
      "pitch": 41,
      "velocity": 80,
      "startTime": 78.75,
      "duration": 0.24895833333333428,
      "endTime": 78.99895833333333
    },
    {
      "instrumentId": 0,
      "instrumentName": "Piano",
      "isPercussion": false,
      "pitch": 69,
      "velocity": 80,
      "startTime": 79.0,
      "duration": 0.24895833333333428,
      "endTime": 79.24895833333333
    },
    {
      "instrumentId": 0,
      "instrumentName": "Piano",
      "isPercussion": false,
      "pitch": 74,
      "velocity": 80,
      "startTime": 79.0,
      "duration": 0.24895833333333428,
      "endTime": 79.24895833333333
    },
    {
      "instrumentId": 1,
      "instrumentName": "Piano",
      "isPercussion": false,
      "pitch": 36,
      "velocity": 80,
      "startTime": 79.0,
      "duration": 0.24895833333333428,
      "endTime": 79.24895833333333
    },
    {
      "instrumentId": 0,
      "instrumentName": "Piano",
      "isPercussion": false,
      "pitch": 64,
      "velocity": 80,
      "startTime": 79.25,
      "duration": 0.7489583333333343,
      "endTime": 79.99895833333333
    },
    {
      "instrumentId": 0,
      "instrumentName": "Piano",
      "isPercussion": false,
      "pitch": 67,
      "velocity": 80,
      "startTime": 79.25,
      "duration": 0.7489583333333343,
      "endTime": 79.99895833333333
    },
    {
      "instrumentId": 0,
      "instrumentName": "Piano",
      "isPercussion": false,
      "pitch": 72,
      "velocity": 80,
      "startTime": 79.25,
      "duration": 0.7489583333333343,
      "endTime": 79.99895833333333
    },
    {
      "instrumentId": 1,
      "instrumentName": "Piano",
      "isPercussion": false,
      "pitch": 43,
      "velocity": 80,
      "startTime": 79.25,
      "duration": 0.24895833333333428,
      "endTime": 79.49895833333333
    },
    {
      "instrumentId": 1,
      "instrumentName": "Piano",
      "isPercussion": false,
      "pitch": 48,
      "velocity": 80,
      "startTime": 79.5,
      "duration": 0.24895833333333428,
      "endTime": 79.74895833333333
    },
    {
      "instrumentId": 1,
      "instrumentName": "Piano",
      "isPercussion": false,
      "pitch": 43,
      "velocity": 80,
      "startTime": 79.75,
      "duration": 0.24895833333333428,
      "endTime": 79.99895833333333
    },
    {
      "instrumentId": 1,
      "instrumentName": "Piano",
      "isPercussion": false,
      "pitch": 45,
      "velocity": 80,
      "startTime": 80.0,
      "duration": 0.4989583333333343,
      "endTime": 80.49895833333333
    },
    {
      "instrumentId": 0,
      "instrumentName": "Piano",
      "isPercussion": false,
      "pitch": 67,
      "velocity": 80,
      "startTime": 80.25,
      "duration": 0.24895833333333428,
      "endTime": 80.49895833333333
    },
    {
      "instrumentId": 0,
      "instrumentName": "Piano",
      "isPercussion": false,
      "pitch": 72,
      "velocity": 80,
      "startTime": 80.25,
      "duration": 0.24895833333333428,
      "endTime": 80.49895833333333
    },
    {
      "instrumentId": 0,
      "instrumentName": "Piano",
      "isPercussion": false,
      "pitch": 76,
      "velocity": 80,
      "startTime": 80.25,
      "duration": 0.24895833333333428,
      "endTime": 80.49895833333333
    },
    {
      "instrumentId": 0,
      "instrumentName": "Piano",
      "isPercussion": false,
      "pitch": 72,
      "velocity": 80,
      "startTime": 80.5,
      "duration": 0.24895833333333428,
      "endTime": 80.74895833333333
    },
    {
      "instrumentId": 0,
      "instrumentName": "Piano",
      "isPercussion": false,
      "pitch": 76,
      "velocity": 80,
      "startTime": 80.5,
      "duration": 0.24895833333333428,
      "endTime": 80.74895833333333
    },
    {
      "instrumentId": 1,
      "instrumentName": "Piano",
      "isPercussion": false,
      "pitch": 52,
      "velocity": 80,
      "startTime": 80.5,
      "duration": 0.24895833333333428,
      "endTime": 80.74895833333333
    },
    {
      "instrumentId": 1,
      "instrumentName": "Piano",
      "isPercussion": false,
      "pitch": 57,
      "velocity": 80,
      "startTime": 80.5,
      "duration": 0.24895833333333428,
      "endTime": 80.74895833333333
    },
    {
      "instrumentId": 0,
      "instrumentName": "Piano",
      "isPercussion": false,
      "pitch": 72,
      "velocity": 80,
      "startTime": 80.75,
      "duration": 0.24895833333333428,
      "endTime": 80.99895833333333
    },
    {
      "instrumentId": 0,
      "instrumentName": "Piano",
      "isPercussion": false,
      "pitch": 76,
      "velocity": 80,
      "startTime": 80.75,
      "duration": 0.24895833333333428,
      "endTime": 80.99895833333333
    },
    {
      "instrumentId": 1,
      "instrumentName": "Piano",
      "isPercussion": false,
      "pitch": 45,
      "velocity": 80,
      "startTime": 80.75,
      "duration": 0.24895833333333428,
      "endTime": 80.99895833333333
    },
    {
      "instrumentId": 0,
      "instrumentName": "Piano",
      "isPercussion": false,
      "pitch": 72,
      "velocity": 80,
      "startTime": 81.0,
      "duration": 0.7489583333333343,
      "endTime": 81.74895833333333
    },
    {
      "instrumentId": 0,
      "instrumentName": "Piano",
      "isPercussion": false,
      "pitch": 76,
      "velocity": 80,
      "startTime": 81.0,
      "duration": 0.7489583333333343,
      "endTime": 81.74895833333333
    },
    {
      "instrumentId": 1,
      "instrumentName": "Piano",
      "isPercussion": false,
      "pitch": 43,
      "velocity": 80,
      "startTime": 81.0,
      "duration": 0.4989583333333343,
      "endTime": 81.49895833333333
    },
    {
      "instrumentId": 1,
      "instrumentName": "Piano",
      "isPercussion": false,
      "pitch": 52,
      "velocity": 80,
      "startTime": 81.5,
      "duration": 0.24895833333333428,
      "endTime": 81.74895833333333
    },
    {
      "instrumentId": 1,
      "instrumentName": "Piano",
      "isPercussion": false,
      "pitch": 55,
      "velocity": 80,
      "startTime": 81.5,
      "duration": 0.24895833333333428,
      "endTime": 81.74895833333333
    },
    {
      "instrumentId": 0,
      "instrumentName": "Piano",
      "isPercussion": false,
      "pitch": 72,
      "velocity": 80,
      "startTime": 81.75,
      "duration": 0.24895833333333428,
      "endTime": 81.99895833333333
    },
    {
      "instrumentId": 1,
      "instrumentName": "Piano",
      "isPercussion": false,
      "pitch": 43,
      "velocity": 80,
      "startTime": 81.75,
      "duration": 0.24895833333333428,
      "endTime": 81.99895833333333
    },
    {
      "instrumentId": 1,
      "instrumentName": "Piano",
      "isPercussion": false,
      "pitch": 41,
      "velocity": 80,
      "startTime": 82.0,
      "duration": 0.4989583333333343,
      "endTime": 82.49895833333333
    },
    {
      "instrumentId": 0,
      "instrumentName": "Piano",
      "isPercussion": false,
      "pitch": 69,
      "velocity": 80,
      "startTime": 82.25,
      "duration": 0.24895833333333428,
      "endTime": 82.49895833333333
    },
    {
      "instrumentId": 0,
      "instrumentName": "Piano",
      "isPercussion": false,
      "pitch": 74,
      "velocity": 80,
      "startTime": 82.25,
      "duration": 0.24895833333333428,
      "endTime": 82.49895833333333
    },
    {
      "instrumentId": 0,
      "instrumentName": "Piano",
      "isPercussion": false,
      "pitch": 77,
      "velocity": 80,
      "startTime": 82.25,
      "duration": 0.24895833333333428,
      "endTime": 82.49895833333333
    },
    {
      "instrumentId": 0,
      "instrumentName": "Piano",
      "isPercussion": false,
      "pitch": 74,
      "velocity": 80,
      "startTime": 82.5,
      "duration": 0.24895833333333428,
      "endTime": 82.74895833333333
    },
    {
      "instrumentId": 0,
      "instrumentName": "Piano",
      "isPercussion": false,
      "pitch": 77,
      "velocity": 80,
      "startTime": 82.5,
      "duration": 0.24895833333333428,
      "endTime": 82.74895833333333
    },
    {
      "instrumentId": 1,
      "instrumentName": "Piano",
      "isPercussion": false,
      "pitch": 48,
      "velocity": 80,
      "startTime": 82.5,
      "duration": 0.24895833333333428,
      "endTime": 82.74895833333333
    },
    {
      "instrumentId": 1,
      "instrumentName": "Piano",
      "isPercussion": false,
      "pitch": 53,
      "velocity": 80,
      "startTime": 82.5,
      "duration": 0.24895833333333428,
      "endTime": 82.74895833333333
    },
    {
      "instrumentId": 0,
      "instrumentName": "Piano",
      "isPercussion": false,
      "pitch": 74,
      "velocity": 80,
      "startTime": 82.75,
      "duration": 0.24895833333333428,
      "endTime": 82.99895833333333
    },
    {
      "instrumentId": 0,
      "instrumentName": "Piano",
      "isPercussion": false,
      "pitch": 77,
      "velocity": 80,
      "startTime": 82.75,
      "duration": 0.24895833333333428,
      "endTime": 82.99895833333333
    },
    {
      "instrumentId": 1,
      "instrumentName": "Piano",
      "isPercussion": false,
      "pitch": 41,
      "velocity": 80,
      "startTime": 82.75,
      "duration": 0.24895833333333428,
      "endTime": 82.99895833333333
    },
    {
      "instrumentId": 0,
      "instrumentName": "Piano",
      "isPercussion": false,
      "pitch": 69,
      "velocity": 80,
      "startTime": 83.0,
      "duration": 0.24895833333333428,
      "endTime": 83.24895833333333
    },
    {
      "instrumentId": 0,
      "instrumentName": "Piano",
      "isPercussion": false,
      "pitch": 74,
      "velocity": 80,
      "startTime": 83.0,
      "duration": 0.24895833333333428,
      "endTime": 83.24895833333333
    },
    {
      "instrumentId": 0,
      "instrumentName": "Piano",
      "isPercussion": false,
      "pitch": 77,
      "velocity": 80,
      "startTime": 83.0,
      "duration": 0.24895833333333428,
      "endTime": 83.24895833333333
    },
    {
      "instrumentId": 1,
      "instrumentName": "Piano",
      "isPercussion": false,
      "pitch": 48,
      "velocity": 80,
      "startTime": 83.0,
      "duration": 0.24895833333333428,
      "endTime": 83.24895833333333
    },
    {
      "instrumentId": 0,
      "instrumentName": "Piano",
      "isPercussion": false,
      "pitch": 67,
      "velocity": 80,
      "startTime": 83.25,
      "duration": 0.7489583333333343,
      "endTime": 83.99895833333333
    },
    {
      "instrumentId": 0,
      "instrumentName": "Piano",
      "isPercussion": false,
      "pitch": 72,
      "velocity": 80,
      "startTime": 83.25,
      "duration": 0.7489583333333343,
      "endTime": 83.99895833333333
    },
    {
      "instrumentId": 0,
      "instrumentName": "Piano",
      "isPercussion": false,
      "pitch": 76,
      "velocity": 80,
      "startTime": 83.25,
      "duration": 0.7489583333333343,
      "endTime": 83.99895833333333
    },
    {
      "instrumentId": 1,
      "instrumentName": "Piano",
      "isPercussion": false,
      "pitch": 55,
      "velocity": 80,
      "startTime": 83.25,
      "duration": 0.24895833333333428,
      "endTime": 83.49895833333333
    },
    {
      "instrumentId": 1,
      "instrumentName": "Piano",
      "isPercussion": false,
      "pitch": 60,
      "velocity": 80,
      "startTime": 83.25,
      "duration": 0.24895833333333428,
      "endTime": 83.49895833333333
    },
    {
      "instrumentId": 1,
      "instrumentName": "Piano",
      "isPercussion": false,
      "pitch": 48,
      "velocity": 80,
      "startTime": 83.5,
      "duration": 0.24895833333333428,
      "endTime": 83.74895833333333
    },
    {
      "instrumentId": 1,
      "instrumentName": "Piano",
      "isPercussion": false,
      "pitch": 43,
      "velocity": 80,
      "startTime": 83.75,
      "duration": 0.24895833333333428,
      "endTime": 83.99895833333333
    },
    {
      "instrumentId": 1,
      "instrumentName": "Piano",
      "isPercussion": false,
      "pitch": 45,
      "velocity": 80,
      "startTime": 84.0,
      "duration": 0.4989583333333343,
      "endTime": 84.49895833333333
    },
    {
      "instrumentId": 0,
      "instrumentName": "Piano",
      "isPercussion": false,
      "pitch": 69,
      "velocity": 80,
      "startTime": 84.25,
      "duration": 0.3739583333333343,
      "endTime": 84.62395833333333
    },
    {
      "instrumentId": 0,
      "instrumentName": "Piano",
      "isPercussion": false,
      "pitch": 74,
      "velocity": 80,
      "startTime": 84.25,
      "duration": 0.3739583333333343,
      "endTime": 84.62395833333333
    },
    {
      "instrumentId": 0,
      "instrumentName": "Piano",
      "isPercussion": false,
      "pitch": 77,
      "velocity": 80,
      "startTime": 84.25,
      "duration": 0.3739583333333343,
      "endTime": 84.62395833333333
    },
    {
      "instrumentId": 1,
      "instrumentName": "Piano",
      "isPercussion": false,
      "pitch": 52,
      "velocity": 80,
      "startTime": 84.5,
      "duration": 0.24895833333333428,
      "endTime": 84.74895833333333
    },
    {
      "instrumentId": 1,
      "instrumentName": "Piano",
      "isPercussion": false,
      "pitch": 57,
      "velocity": 80,
      "startTime": 84.5,
      "duration": 0.24895833333333428,
      "endTime": 84.74895833333333
    },
    {
      "instrumentId": 0,
      "instrumentName": "Piano",
      "isPercussion": false,
      "pitch": 74,
      "velocity": 80,
      "startTime": 84.625,
      "duration": 0.12395833333333428,
      "endTime": 84.74895833333333
    },
    {
      "instrumentId": 0,
      "instrumentName": "Piano",
      "isPercussion": false,
      "pitch": 77,
      "velocity": 80,
      "startTime": 84.625,
      "duration": 0.12395833333333428,
      "endTime": 84.74895833333333
    },
    {
      "instrumentId": 0,
      "instrumentName": "Piano",
      "isPercussion": false,
      "pitch": 72,
      "velocity": 80,
      "startTime": 84.75,
      "duration": 0.4989583333333343,
      "endTime": 85.24895833333333
    },
    {
      "instrumentId": 0,
      "instrumentName": "Piano",
      "isPercussion": false,
      "pitch": 76,
      "velocity": 80,
      "startTime": 84.75,
      "duration": 0.4989583333333343,
      "endTime": 85.24895833333333
    },
    {
      "instrumentId": 1,
      "instrumentName": "Piano",
      "isPercussion": false,
      "pitch": 45,
      "velocity": 80,
      "startTime": 84.75,
      "duration": 0.24895833333333428,
      "endTime": 84.99895833333333
    },
    {
      "instrumentId": 1,
      "instrumentName": "Piano",
      "isPercussion": false,
      "pitch": 43,
      "velocity": 80,
      "startTime": 85.0,
      "duration": 0.4989583333333343,
      "endTime": 85.49895833333333
    },
    {
      "instrumentId": 0,
      "instrumentName": "Piano",
      "isPercussion": false,
      "pitch": 72,
      "velocity": 80,
      "startTime": 85.25,
      "duration": 0.4989583333333343,
      "endTime": 85.74895833333333
    },
    {
      "instrumentId": 0,
      "instrumentName": "Piano",
      "isPercussion": false,
      "pitch": 76,
      "velocity": 80,
      "startTime": 85.25,
      "duration": 0.4989583333333343,
      "endTime": 85.74895833333333
    },
    {
      "instrumentId": 1,
      "instrumentName": "Piano",
      "isPercussion": false,
      "pitch": 52,
      "velocity": 80,
      "startTime": 85.5,
      "duration": 0.24895833333333428,
      "endTime": 85.74895833333333
    },
    {
      "instrumentId": 1,
      "instrumentName": "Piano",
      "isPercussion": false,
      "pitch": 55,
      "velocity": 80,
      "startTime": 85.5,
      "duration": 0.24895833333333428,
      "endTime": 85.74895833333333
    },
    {
      "instrumentId": 0,
      "instrumentName": "Piano",
      "isPercussion": false,
      "pitch": 69,
      "velocity": 80,
      "startTime": 85.75,
      "duration": 0.24895833333333428,
      "endTime": 85.99895833333333
    },
    {
      "instrumentId": 0,
      "instrumentName": "Piano",
      "isPercussion": false,
      "pitch": 74,
      "velocity": 80,
      "startTime": 85.75,
      "duration": 0.24895833333333428,
      "endTime": 85.99895833333333
    },
    {
      "instrumentId": 1,
      "instrumentName": "Piano",
      "isPercussion": false,
      "pitch": 43,
      "velocity": 80,
      "startTime": 85.75,
      "duration": 0.24895833333333428,
      "endTime": 85.99895833333333
    },
    {
      "instrumentId": 0,
      "instrumentName": "Piano",
      "isPercussion": false,
      "pitch": 69,
      "velocity": 80,
      "startTime": 86.0,
      "duration": 0.24895833333333428,
      "endTime": 86.24895833333333
    },
    {
      "instrumentId": 0,
      "instrumentName": "Piano",
      "isPercussion": false,
      "pitch": 74,
      "velocity": 80,
      "startTime": 86.0,
      "duration": 0.24895833333333428,
      "endTime": 86.24895833333333
    },
    {
      "instrumentId": 1,
      "instrumentName": "Piano",
      "isPercussion": false,
      "pitch": 41,
      "velocity": 80,
      "startTime": 86.0,
      "duration": 0.4989583333333343,
      "endTime": 86.49895833333333
    },
    {
      "instrumentId": 0,
      "instrumentName": "Piano",
      "isPercussion": false,
      "pitch": 69,
      "velocity": 80,
      "startTime": 86.25,
      "duration": 0.24895833333333428,
      "endTime": 86.49895833333333
    },
    {
      "instrumentId": 0,
      "instrumentName": "Piano",
      "isPercussion": false,
      "pitch": 74,
      "velocity": 80,
      "startTime": 86.25,
      "duration": 0.24895833333333428,
      "endTime": 86.49895833333333
    },
    {
      "instrumentId": 0,
      "instrumentName": "Piano",
      "isPercussion": false,
      "pitch": 69,
      "velocity": 80,
      "startTime": 86.5,
      "duration": 0.24895833333333428,
      "endTime": 86.74895833333333
    },
    {
      "instrumentId": 0,
      "instrumentName": "Piano",
      "isPercussion": false,
      "pitch": 74,
      "velocity": 80,
      "startTime": 86.5,
      "duration": 0.24895833333333428,
      "endTime": 86.74895833333333
    },
    {
      "instrumentId": 1,
      "instrumentName": "Piano",
      "isPercussion": false,
      "pitch": 48,
      "velocity": 80,
      "startTime": 86.5,
      "duration": 0.24895833333333428,
      "endTime": 86.74895833333333
    },
    {
      "instrumentId": 1,
      "instrumentName": "Piano",
      "isPercussion": false,
      "pitch": 53,
      "velocity": 80,
      "startTime": 86.5,
      "duration": 0.24895833333333428,
      "endTime": 86.74895833333333
    },
    {
      "instrumentId": 0,
      "instrumentName": "Piano",
      "isPercussion": false,
      "pitch": 69,
      "velocity": 80,
      "startTime": 86.75,
      "duration": 0.24895833333333428,
      "endTime": 86.99895833333333
    },
    {
      "instrumentId": 0,
      "instrumentName": "Piano",
      "isPercussion": false,
      "pitch": 72,
      "velocity": 80,
      "startTime": 86.75,
      "duration": 0.24895833333333428,
      "endTime": 86.99895833333333
    },
    {
      "instrumentId": 1,
      "instrumentName": "Piano",
      "isPercussion": false,
      "pitch": 41,
      "velocity": 80,
      "startTime": 86.75,
      "duration": 0.24895833333333428,
      "endTime": 86.99895833333333
    },
    {
      "instrumentId": 0,
      "instrumentName": "Piano",
      "isPercussion": false,
      "pitch": 64,
      "velocity": 80,
      "startTime": 87.0,
      "duration": 0.7489583333333343,
      "endTime": 87.74895833333333
    },
    {
      "instrumentId": 0,
      "instrumentName": "Piano",
      "isPercussion": false,
      "pitch": 67,
      "velocity": 80,
      "startTime": 87.0,
      "duration": 0.7489583333333343,
      "endTime": 87.74895833333333
    },
    {
      "instrumentId": 0,
      "instrumentName": "Piano",
      "isPercussion": false,
      "pitch": 72,
      "velocity": 80,
      "startTime": 87.0,
      "duration": 0.7489583333333343,
      "endTime": 87.74895833333333
    },
    {
      "instrumentId": 1,
      "instrumentName": "Piano",
      "isPercussion": false,
      "pitch": 36,
      "velocity": 80,
      "startTime": 87.0,
      "duration": 0.24895833333333428,
      "endTime": 87.24895833333333
    },
    {
      "instrumentId": 1,
      "instrumentName": "Piano",
      "isPercussion": false,
      "pitch": 43,
      "velocity": 80,
      "startTime": 87.25,
      "duration": 0.24895833333333428,
      "endTime": 87.49895833333333
    },
    {
      "instrumentId": 1,
      "instrumentName": "Piano",
      "isPercussion": false,
      "pitch": 48,
      "velocity": 80,
      "startTime": 87.5,
      "duration": 0.24895833333333428,
      "endTime": 87.74895833333333
    },
    {
      "instrumentId": 0,
      "instrumentName": "Piano",
      "isPercussion": false,
      "pitch": 72,
      "velocity": 80,
      "startTime": 87.75,
      "duration": 0.24895833333333428,
      "endTime": 87.99895833333333
    },
    {
      "instrumentId": 1,
      "instrumentName": "Piano",
      "isPercussion": false,
      "pitch": 43,
      "velocity": 80,
      "startTime": 87.75,
      "duration": 0.24895833333333428,
      "endTime": 87.99895833333333
    },
    {
      "instrumentId": 0,
      "instrumentName": "Piano",
      "isPercussion": false,
      "pitch": 65,
      "velocity": 80,
      "startTime": 88.0,
      "duration": 0.24895833333333428,
      "endTime": 88.24895833333333
    },
    {
      "instrumentId": 0,
      "instrumentName": "Piano",
      "isPercussion": false,
      "pitch": 69,
      "velocity": 80,
      "startTime": 88.0,
      "duration": 0.24895833333333428,
      "endTime": 88.24895833333333
    },
    {
      "instrumentId": 0,
      "instrumentName": "Piano",
      "isPercussion": false,
      "pitch": 72,
      "velocity": 80,
      "startTime": 88.0,
      "duration": 0.24895833333333428,
      "endTime": 88.24895833333333
    },
    {
      "instrumentId": 1,
      "instrumentName": "Piano",
      "isPercussion": false,
      "pitch": 41,
      "velocity": 80,
      "startTime": 88.0,
      "duration": 0.24895833333333428,
      "endTime": 88.24895833333333
    },
    {
      "instrumentId": 0,
      "instrumentName": "Piano",
      "isPercussion": false,
      "pitch": 69,
      "velocity": 80,
      "startTime": 88.25,
      "duration": 0.24895833333333428,
      "endTime": 88.49895833333333
    },
    {
      "instrumentId": 1,
      "instrumentName": "Piano",
      "isPercussion": false,
      "pitch": 48,
      "velocity": 80,
      "startTime": 88.25,
      "duration": 0.24895833333333428,
      "endTime": 88.49895833333333
    },
    {
      "instrumentId": 0,
      "instrumentName": "Piano",
      "isPercussion": false,
      "pitch": 67,
      "velocity": 80,
      "startTime": 88.5,
      "duration": 0.24895833333333428,
      "endTime": 88.74895833333333
    },
    {
      "instrumentId": 1,
      "instrumentName": "Piano",
      "isPercussion": false,
      "pitch": 53,
      "velocity": 80,
      "startTime": 88.5,
      "duration": 0.4989583333333343,
      "endTime": 88.99895833333333
    },
    {
      "instrumentId": 1,
      "instrumentName": "Piano",
      "isPercussion": false,
      "pitch": 57,
      "velocity": 80,
      "startTime": 88.5,
      "duration": 0.4989583333333343,
      "endTime": 88.99895833333333
    },
    {
      "instrumentId": 0,
      "instrumentName": "Piano",
      "isPercussion": false,
      "pitch": 72,
      "velocity": 80,
      "startTime": 88.75,
      "duration": 0.24895833333333428,
      "endTime": 88.99895833333333
    },
    {
      "instrumentId": 1,
      "instrumentName": "Piano",
      "isPercussion": false,
      "pitch": 43,
      "velocity": 80,
      "startTime": 89.0,
      "duration": 0.24895833333333428,
      "endTime": 89.24895833333333
    },
    {
      "instrumentId": 1,
      "instrumentName": "Piano",
      "isPercussion": false,
      "pitch": 50,
      "velocity": 80,
      "startTime": 89.25,
      "duration": 0.24895833333333428,
      "endTime": 89.49895833333333
    },
    {
      "instrumentId": 0,
      "instrumentName": "Piano",
      "isPercussion": false,
      "pitch": 67,
      "velocity": 80,
      "startTime": 89.5,
      "duration": 0.24895833333333428,
      "endTime": 89.74895833333333
    },
    {
      "instrumentId": 0,
      "instrumentName": "Piano",
      "isPercussion": false,
      "pitch": 72,
      "velocity": 80,
      "startTime": 89.5,
      "duration": 0.24895833333333428,
      "endTime": 89.74895833333333
    },
    {
      "instrumentId": 1,
      "instrumentName": "Piano",
      "isPercussion": false,
      "pitch": 55,
      "velocity": 80,
      "startTime": 89.5,
      "duration": 0.4989583333333343,
      "endTime": 89.99895833333333
    },
    {
      "instrumentId": 1,
      "instrumentName": "Piano",
      "isPercussion": false,
      "pitch": 59,
      "velocity": 80,
      "startTime": 89.5,
      "duration": 0.4989583333333343,
      "endTime": 89.99895833333333
    },
    {
      "instrumentId": 0,
      "instrumentName": "Piano",
      "isPercussion": false,
      "pitch": 69,
      "velocity": 80,
      "startTime": 89.75,
      "duration": 0.24895833333333428,
      "endTime": 89.99895833333333
    },
    {
      "instrumentId": 0,
      "instrumentName": "Piano",
      "isPercussion": false,
      "pitch": 64,
      "velocity": 80,
      "startTime": 90.0,
      "duration": 0.24895833333333428,
      "endTime": 90.24895833333333
    },
    {
      "instrumentId": 0,
      "instrumentName": "Piano",
      "isPercussion": false,
      "pitch": 69,
      "velocity": 80,
      "startTime": 90.0,
      "duration": 0.24895833333333428,
      "endTime": 90.24895833333333
    },
    {
      "instrumentId": 0,
      "instrumentName": "Piano",
      "isPercussion": false,
      "pitch": 72,
      "velocity": 80,
      "startTime": 90.0,
      "duration": 0.24895833333333428,
      "endTime": 90.24895833333333
    },
    {
      "instrumentId": 1,
      "instrumentName": "Piano",
      "isPercussion": false,
      "pitch": 45,
      "velocity": 80,
      "startTime": 90.0,
      "duration": 0.24895833333333428,
      "endTime": 90.24895833333333
    },
    {
      "instrumentId": 0,
      "instrumentName": "Piano",
      "isPercussion": false,
      "pitch": 69,
      "velocity": 80,
      "startTime": 90.25,
      "duration": 0.24895833333333428,
      "endTime": 90.49895833333333
    },
    {
      "instrumentId": 1,
      "instrumentName": "Piano",
      "isPercussion": false,
      "pitch": 52,
      "velocity": 80,
      "startTime": 90.25,
      "duration": 0.24895833333333428,
      "endTime": 90.49895833333333
    },
    {
      "instrumentId": 0,
      "instrumentName": "Piano",
      "isPercussion": false,
      "pitch": 67,
      "velocity": 80,
      "startTime": 90.5,
      "duration": 0.24895833333333428,
      "endTime": 90.74895833333333
    },
    {
      "instrumentId": 1,
      "instrumentName": "Piano",
      "isPercussion": false,
      "pitch": 57,
      "velocity": 80,
      "startTime": 90.5,
      "duration": 0.4989583333333343,
      "endTime": 90.99895833333333
    },
    {
      "instrumentId": 1,
      "instrumentName": "Piano",
      "isPercussion": false,
      "pitch": 60,
      "velocity": 80,
      "startTime": 90.5,
      "duration": 0.4989583333333343,
      "endTime": 90.99895833333333
    },
    {
      "instrumentId": 0,
      "instrumentName": "Piano",
      "isPercussion": false,
      "pitch": 67,
      "velocity": 80,
      "startTime": 90.75,
      "duration": 0.24895833333333428,
      "endTime": 90.99895833333333
    },
    {
      "instrumentId": 0,
      "instrumentName": "Piano",
      "isPercussion": false,
      "pitch": 76,
      "velocity": 80,
      "startTime": 90.75,
      "duration": 0.24895833333333428,
      "endTime": 90.99895833333333
    },
    {
      "instrumentId": 1,
      "instrumentName": "Piano",
      "isPercussion": false,
      "pitch": 36,
      "velocity": 80,
      "startTime": 91.0,
      "duration": 0.4989583333333343,
      "endTime": 91.49895833333333
    },
    {
      "instrumentId": 1,
      "instrumentName": "Piano",
      "isPercussion": false,
      "pitch": 43,
      "velocity": 80,
      "startTime": 91.0,
      "duration": 0.4989583333333343,
      "endTime": 91.49895833333333
    },
    {
      "instrumentId": 0,
      "instrumentName": "Piano",
      "isPercussion": false,
      "pitch": 67,
      "velocity": 80,
      "startTime": 91.5,
      "duration": 0.24895833333333428,
      "endTime": 91.74895833333333
    },
    {
      "instrumentId": 0,
      "instrumentName": "Piano",
      "isPercussion": false,
      "pitch": 76,
      "velocity": 80,
      "startTime": 91.5,
      "duration": 0.24895833333333428,
      "endTime": 91.74895833333333
    },
    {
      "instrumentId": 1,
      "instrumentName": "Piano",
      "isPercussion": false,
      "pitch": 48,
      "velocity": 80,
      "startTime": 91.5,
      "duration": 0.4989583333333343,
      "endTime": 91.99895833333333
    },
    {
      "instrumentId": 1,
      "instrumentName": "Piano",
      "isPercussion": false,
      "pitch": 52,
      "velocity": 80,
      "startTime": 91.5,
      "duration": 0.4989583333333343,
      "endTime": 91.99895833333333
    },
    {
      "instrumentId": 0,
      "instrumentName": "Piano",
      "isPercussion": false,
      "pitch": 69,
      "velocity": 80,
      "startTime": 91.75,
      "duration": 0.24895833333333428,
      "endTime": 91.99895833333333
    },
    {
      "instrumentId": 0,
      "instrumentName": "Piano",
      "isPercussion": false,
      "pitch": 77,
      "velocity": 80,
      "startTime": 91.75,
      "duration": 0.24895833333333428,
      "endTime": 91.99895833333333
    },
    {
      "instrumentId": 0,
      "instrumentName": "Piano",
      "isPercussion": false,
      "pitch": 69,
      "velocity": 80,
      "startTime": 92.0,
      "duration": 0.24895833333333428,
      "endTime": 92.24895833333333
    },
    {
      "instrumentId": 0,
      "instrumentName": "Piano",
      "isPercussion": false,
      "pitch": 72,
      "velocity": 80,
      "startTime": 92.0,
      "duration": 0.24895833333333428,
      "endTime": 92.24895833333333
    },
    {
      "instrumentId": 0,
      "instrumentName": "Piano",
      "isPercussion": false,
      "pitch": 77,
      "velocity": 80,
      "startTime": 92.0,
      "duration": 0.24895833333333428,
      "endTime": 92.24895833333333
    },
    {
      "instrumentId": 1,
      "instrumentName": "Piano",
      "isPercussion": false,
      "pitch": 41,
      "velocity": 80,
      "startTime": 92.0,
      "duration": 0.24895833333333428,
      "endTime": 92.24895833333333
    },
    {
      "instrumentId": 0,
      "instrumentName": "Piano",
      "isPercussion": false,
      "pitch": 76,
      "velocity": 80,
      "startTime": 92.25,
      "duration": 0.24895833333333428,
      "endTime": 92.49895833333333
    },
    {
      "instrumentId": 1,
      "instrumentName": "Piano",
      "isPercussion": false,
      "pitch": 48,
      "velocity": 80,
      "startTime": 92.25,
      "duration": 0.24895833333333428,
      "endTime": 92.49895833333333
    },
    {
      "instrumentId": 0,
      "instrumentName": "Piano",
      "isPercussion": false,
      "pitch": 67,
      "velocity": 80,
      "startTime": 92.5,
      "duration": 0.24895833333333428,
      "endTime": 92.74895833333333
    },
    {
      "instrumentId": 0,
      "instrumentName": "Piano",
      "isPercussion": false,
      "pitch": 76,
      "velocity": 80,
      "startTime": 92.5,
      "duration": 0.24895833333333428,
      "endTime": 92.74895833333333
    },
    {
      "instrumentId": 1,
      "instrumentName": "Piano",
      "isPercussion": false,
      "pitch": 53,
      "velocity": 80,
      "startTime": 92.5,
      "duration": 0.4989583333333343,
      "endTime": 92.99895833333333
    },
    {
      "instrumentId": 1,
      "instrumentName": "Piano",
      "isPercussion": false,
      "pitch": 57,
      "velocity": 80,
      "startTime": 92.5,
      "duration": 0.4989583333333343,
      "endTime": 92.99895833333333
    },
    {
      "instrumentId": 0,
      "instrumentName": "Piano",
      "isPercussion": false,
      "pitch": 67,
      "velocity": 80,
      "startTime": 92.75,
      "duration": 0.24895833333333428,
      "endTime": 92.99895833333333
    },
    {
      "instrumentId": 0,
      "instrumentName": "Piano",
      "isPercussion": false,
      "pitch": 76,
      "velocity": 80,
      "startTime": 92.75,
      "duration": 0.24895833333333428,
      "endTime": 92.99895833333333
    },
    {
      "instrumentId": 0,
      "instrumentName": "Piano",
      "isPercussion": false,
      "pitch": 67,
      "velocity": 80,
      "startTime": 93.0,
      "duration": 0.24895833333333428,
      "endTime": 93.24895833333333
    },
    {
      "instrumentId": 0,
      "instrumentName": "Piano",
      "isPercussion": false,
      "pitch": 76,
      "velocity": 80,
      "startTime": 93.0,
      "duration": 0.24895833333333428,
      "endTime": 93.24895833333333
    },
    {
      "instrumentId": 1,
      "instrumentName": "Piano",
      "isPercussion": false,
      "pitch": 43,
      "velocity": 80,
      "startTime": 93.0,
      "duration": 0.24895833333333428,
      "endTime": 93.24895833333333
    },
    {
      "instrumentId": 0,
      "instrumentName": "Piano",
      "isPercussion": false,
      "pitch": 67,
      "velocity": 80,
      "startTime": 93.25,
      "duration": 0.24895833333333428,
      "endTime": 93.49895833333333
    },
    {
      "instrumentId": 0,
      "instrumentName": "Piano",
      "isPercussion": false,
      "pitch": 74,
      "velocity": 80,
      "startTime": 93.25,
      "duration": 0.24895833333333428,
      "endTime": 93.49895833333333
    },
    {
      "instrumentId": 1,
      "instrumentName": "Piano",
      "isPercussion": false,
      "pitch": 50,
      "velocity": 80,
      "startTime": 93.25,
      "duration": 0.24895833333333428,
      "endTime": 93.49895833333333
    },
    {
      "instrumentId": 0,
      "instrumentName": "Piano",
      "isPercussion": false,
      "pitch": 67,
      "velocity": 80,
      "startTime": 93.5,
      "duration": 0.4989583333333343,
      "endTime": 93.99895833333333
    },
    {
      "instrumentId": 0,
      "instrumentName": "Piano",
      "isPercussion": false,
      "pitch": 74,
      "velocity": 80,
      "startTime": 93.5,
      "duration": 0.4989583333333343,
      "endTime": 93.99895833333333
    },
    {
      "instrumentId": 1,
      "instrumentName": "Piano",
      "isPercussion": false,
      "pitch": 55,
      "velocity": 80,
      "startTime": 93.5,
      "duration": 0.4989583333333343,
      "endTime": 93.99895833333333
    },
    {
      "instrumentId": 1,
      "instrumentName": "Piano",
      "isPercussion": false,
      "pitch": 59,
      "velocity": 80,
      "startTime": 93.5,
      "duration": 0.4989583333333343,
      "endTime": 93.99895833333333
    },
    {
      "instrumentId": 0,
      "instrumentName": "Piano",
      "isPercussion": false,
      "pitch": 69,
      "velocity": 80,
      "startTime": 94.0,
      "duration": 0.24895833333333428,
      "endTime": 94.24895833333333
    },
    {
      "instrumentId": 0,
      "instrumentName": "Piano",
      "isPercussion": false,
      "pitch": 74,
      "velocity": 80,
      "startTime": 94.0,
      "duration": 0.24895833333333428,
      "endTime": 94.24895833333333
    },
    {
      "instrumentId": 1,
      "instrumentName": "Piano",
      "isPercussion": false,
      "pitch": 45,
      "velocity": 80,
      "startTime": 94.0,
      "duration": 0.24895833333333428,
      "endTime": 94.24895833333333
    },
    {
      "instrumentId": 0,
      "instrumentName": "Piano",
      "isPercussion": false,
      "pitch": 72,
      "velocity": 80,
      "startTime": 94.25,
      "duration": 0.24895833333333428,
      "endTime": 94.49895833333333
    },
    {
      "instrumentId": 1,
      "instrumentName": "Piano",
      "isPercussion": false,
      "pitch": 52,
      "velocity": 80,
      "startTime": 94.25,
      "duration": 0.24895833333333428,
      "endTime": 94.49895833333333
    },
    {
      "instrumentId": 0,
      "instrumentName": "Piano",
      "isPercussion": false,
      "pitch": 64,
      "velocity": 80,
      "startTime": 94.5,
      "duration": 0.24895833333333428,
      "endTime": 94.74895833333333
    },
    {
      "instrumentId": 0,
      "instrumentName": "Piano",
      "isPercussion": false,
      "pitch": 69,
      "velocity": 80,
      "startTime": 94.5,
      "duration": 0.24895833333333428,
      "endTime": 94.74895833333333
    },
    {
      "instrumentId": 0,
      "instrumentName": "Piano",
      "isPercussion": false,
      "pitch": 72,
      "velocity": 80,
      "startTime": 94.5,
      "duration": 0.24895833333333428,
      "endTime": 94.74895833333333
    },
    {
      "instrumentId": 1,
      "instrumentName": "Piano",
      "isPercussion": false,
      "pitch": 57,
      "velocity": 80,
      "startTime": 94.5,
      "duration": 0.4989583333333343,
      "endTime": 94.99895833333333
    },
    {
      "instrumentId": 1,
      "instrumentName": "Piano",
      "isPercussion": false,
      "pitch": 60,
      "velocity": 80,
      "startTime": 94.5,
      "duration": 0.4989583333333343,
      "endTime": 94.99895833333333
    },
    {
      "instrumentId": 0,
      "instrumentName": "Piano",
      "isPercussion": false,
      "pitch": 72,
      "velocity": 80,
      "startTime": 94.75,
      "duration": 0.24895833333333428,
      "endTime": 94.99895833333333
    },
    {
      "instrumentId": 1,
      "instrumentName": "Piano",
      "isPercussion": false,
      "pitch": 36,
      "velocity": 80,
      "startTime": 95.0,
      "duration": 0.4989583333333343,
      "endTime": 95.49895833333333
    },
    {
      "instrumentId": 1,
      "instrumentName": "Piano",
      "isPercussion": false,
      "pitch": 43,
      "velocity": 80,
      "startTime": 95.0,
      "duration": 0.4989583333333343,
      "endTime": 95.49895833333333
    },
    {
      "instrumentId": 1,
      "instrumentName": "Piano",
      "isPercussion": false,
      "pitch": 48,
      "velocity": 80,
      "startTime": 95.5,
      "duration": 0.24895833333333428,
      "endTime": 95.74895833333333
    },
    {
      "instrumentId": 0,
      "instrumentName": "Piano",
      "isPercussion": false,
      "pitch": 72,
      "velocity": 80,
      "startTime": 95.75,
      "duration": 0.24895833333333428,
      "endTime": 95.99895833333333
    },
    {
      "instrumentId": 1,
      "instrumentName": "Piano",
      "isPercussion": false,
      "pitch": 36,
      "velocity": 80,
      "startTime": 95.75,
      "duration": 0.24895833333333428,
      "endTime": 95.99895833333333
    },
    {
      "instrumentId": 0,
      "instrumentName": "Piano",
      "isPercussion": false,
      "pitch": 65,
      "velocity": 80,
      "startTime": 96.0,
      "duration": 0.24895833333333428,
      "endTime": 96.24895833333333
    },
    {
      "instrumentId": 0,
      "instrumentName": "Piano",
      "isPercussion": false,
      "pitch": 69,
      "velocity": 80,
      "startTime": 96.0,
      "duration": 0.24895833333333428,
      "endTime": 96.24895833333333
    },
    {
      "instrumentId": 0,
      "instrumentName": "Piano",
      "isPercussion": false,
      "pitch": 72,
      "velocity": 80,
      "startTime": 96.0,
      "duration": 0.24895833333333428,
      "endTime": 96.24895833333333
    },
    {
      "instrumentId": 1,
      "instrumentName": "Piano",
      "isPercussion": false,
      "pitch": 41,
      "velocity": 80,
      "startTime": 96.0,
      "duration": 0.24895833333333428,
      "endTime": 96.24895833333333
    },
    {
      "instrumentId": 0,
      "instrumentName": "Piano",
      "isPercussion": false,
      "pitch": 69,
      "velocity": 80,
      "startTime": 96.25,
      "duration": 0.24895833333333428,
      "endTime": 96.49895833333333
    },
    {
      "instrumentId": 1,
      "instrumentName": "Piano",
      "isPercussion": false,
      "pitch": 48,
      "velocity": 80,
      "startTime": 96.25,
      "duration": 0.24895833333333428,
      "endTime": 96.49895833333333
    },
    {
      "instrumentId": 0,
      "instrumentName": "Piano",
      "isPercussion": false,
      "pitch": 67,
      "velocity": 80,
      "startTime": 96.5,
      "duration": 0.24895833333333428,
      "endTime": 96.74895833333333
    },
    {
      "instrumentId": 1,
      "instrumentName": "Piano",
      "isPercussion": false,
      "pitch": 53,
      "velocity": 80,
      "startTime": 96.5,
      "duration": 0.4989583333333343,
      "endTime": 96.99895833333333
    },
    {
      "instrumentId": 1,
      "instrumentName": "Piano",
      "isPercussion": false,
      "pitch": 57,
      "velocity": 80,
      "startTime": 96.5,
      "duration": 0.4989583333333343,
      "endTime": 96.99895833333333
    },
    {
      "instrumentId": 0,
      "instrumentName": "Piano",
      "isPercussion": false,
      "pitch": 72,
      "velocity": 80,
      "startTime": 96.75,
      "duration": 0.24895833333333428,
      "endTime": 96.99895833333333
    },
    {
      "instrumentId": 1,
      "instrumentName": "Piano",
      "isPercussion": false,
      "pitch": 43,
      "velocity": 80,
      "startTime": 97.0,
      "duration": 0.24895833333333428,
      "endTime": 97.24895833333333
    },
    {
      "instrumentId": 1,
      "instrumentName": "Piano",
      "isPercussion": false,
      "pitch": 50,
      "velocity": 80,
      "startTime": 97.25,
      "duration": 0.24895833333333428,
      "endTime": 97.49895833333333
    },
    {
      "instrumentId": 0,
      "instrumentName": "Piano",
      "isPercussion": false,
      "pitch": 67,
      "velocity": 80,
      "startTime": 97.5,
      "duration": 0.24895833333333428,
      "endTime": 97.74895833333333
    },
    {
      "instrumentId": 0,
      "instrumentName": "Piano",
      "isPercussion": false,
      "pitch": 72,
      "velocity": 80,
      "startTime": 97.5,
      "duration": 0.24895833333333428,
      "endTime": 97.74895833333333
    },
    {
      "instrumentId": 1,
      "instrumentName": "Piano",
      "isPercussion": false,
      "pitch": 55,
      "velocity": 80,
      "startTime": 97.5,
      "duration": 0.4989583333333343,
      "endTime": 97.99895833333333
    },
    {
      "instrumentId": 1,
      "instrumentName": "Piano",
      "isPercussion": false,
      "pitch": 59,
      "velocity": 80,
      "startTime": 97.5,
      "duration": 0.4989583333333343,
      "endTime": 97.99895833333333
    },
    {
      "instrumentId": 0,
      "instrumentName": "Piano",
      "isPercussion": false,
      "pitch": 69,
      "velocity": 80,
      "startTime": 97.75,
      "duration": 0.24895833333333428,
      "endTime": 97.99895833333333
    },
    {
      "instrumentId": 0,
      "instrumentName": "Piano",
      "isPercussion": false,
      "pitch": 64,
      "velocity": 80,
      "startTime": 98.0,
      "duration": 0.24895833333333428,
      "endTime": 98.24895833333333
    },
    {
      "instrumentId": 0,
      "instrumentName": "Piano",
      "isPercussion": false,
      "pitch": 69,
      "velocity": 80,
      "startTime": 98.0,
      "duration": 0.24895833333333428,
      "endTime": 98.24895833333333
    },
    {
      "instrumentId": 0,
      "instrumentName": "Piano",
      "isPercussion": false,
      "pitch": 72,
      "velocity": 80,
      "startTime": 98.0,
      "duration": 0.24895833333333428,
      "endTime": 98.24895833333333
    },
    {
      "instrumentId": 1,
      "instrumentName": "Piano",
      "isPercussion": false,
      "pitch": 45,
      "velocity": 80,
      "startTime": 98.0,
      "duration": 0.24895833333333428,
      "endTime": 98.24895833333333
    },
    {
      "instrumentId": 0,
      "instrumentName": "Piano",
      "isPercussion": false,
      "pitch": 69,
      "velocity": 80,
      "startTime": 98.25,
      "duration": 0.24895833333333428,
      "endTime": 98.49895833333333
    },
    {
      "instrumentId": 1,
      "instrumentName": "Piano",
      "isPercussion": false,
      "pitch": 52,
      "velocity": 80,
      "startTime": 98.25,
      "duration": 0.24895833333333428,
      "endTime": 98.49895833333333
    },
    {
      "instrumentId": 0,
      "instrumentName": "Piano",
      "isPercussion": false,
      "pitch": 67,
      "velocity": 80,
      "startTime": 98.5,
      "duration": 0.24895833333333428,
      "endTime": 98.74895833333333
    },
    {
      "instrumentId": 1,
      "instrumentName": "Piano",
      "isPercussion": false,
      "pitch": 57,
      "velocity": 80,
      "startTime": 98.5,
      "duration": 0.4989583333333343,
      "endTime": 98.99895833333333
    },
    {
      "instrumentId": 1,
      "instrumentName": "Piano",
      "isPercussion": false,
      "pitch": 60,
      "velocity": 80,
      "startTime": 98.5,
      "duration": 0.4989583333333343,
      "endTime": 98.99895833333333
    },
    {
      "instrumentId": 0,
      "instrumentName": "Piano",
      "isPercussion": false,
      "pitch": 67,
      "velocity": 80,
      "startTime": 98.75,
      "duration": 0.24895833333333428,
      "endTime": 98.99895833333333
    },
    {
      "instrumentId": 0,
      "instrumentName": "Piano",
      "isPercussion": false,
      "pitch": 76,
      "velocity": 80,
      "startTime": 98.75,
      "duration": 0.24895833333333428,
      "endTime": 98.99895833333333
    },
    {
      "instrumentId": 1,
      "instrumentName": "Piano",
      "isPercussion": false,
      "pitch": 36,
      "velocity": 80,
      "startTime": 99.0,
      "duration": 0.4989583333333343,
      "endTime": 99.49895833333333
    },
    {
      "instrumentId": 1,
      "instrumentName": "Piano",
      "isPercussion": false,
      "pitch": 43,
      "velocity": 80,
      "startTime": 99.0,
      "duration": 0.4989583333333343,
      "endTime": 99.49895833333333
    },
    {
      "instrumentId": 0,
      "instrumentName": "Piano",
      "isPercussion": false,
      "pitch": 67,
      "velocity": 80,
      "startTime": 99.5,
      "duration": 0.24895833333333428,
      "endTime": 99.74895833333333
    },
    {
      "instrumentId": 0,
      "instrumentName": "Piano",
      "isPercussion": false,
      "pitch": 76,
      "velocity": 80,
      "startTime": 99.5,
      "duration": 0.24895833333333428,
      "endTime": 99.74895833333333
    },
    {
      "instrumentId": 1,
      "instrumentName": "Piano",
      "isPercussion": false,
      "pitch": 48,
      "velocity": 80,
      "startTime": 99.5,
      "duration": 0.4989583333333343,
      "endTime": 99.99895833333333
    },
    {
      "instrumentId": 1,
      "instrumentName": "Piano",
      "isPercussion": false,
      "pitch": 52,
      "velocity": 80,
      "startTime": 99.5,
      "duration": 0.4989583333333343,
      "endTime": 99.99895833333333
    },
    {
      "instrumentId": 0,
      "instrumentName": "Piano",
      "isPercussion": false,
      "pitch": 69,
      "velocity": 80,
      "startTime": 99.75,
      "duration": 0.24895833333333428,
      "endTime": 99.99895833333333
    },
    {
      "instrumentId": 0,
      "instrumentName": "Piano",
      "isPercussion": false,
      "pitch": 77,
      "velocity": 80,
      "startTime": 99.75,
      "duration": 0.24895833333333428,
      "endTime": 99.99895833333333
    },
    {
      "instrumentId": 0,
      "instrumentName": "Piano",
      "isPercussion": false,
      "pitch": 69,
      "velocity": 80,
      "startTime": 100.0,
      "duration": 0.24895833333333428,
      "endTime": 100.24895833333333
    },
    {
      "instrumentId": 0,
      "instrumentName": "Piano",
      "isPercussion": false,
      "pitch": 72,
      "velocity": 80,
      "startTime": 100.0,
      "duration": 0.24895833333333428,
      "endTime": 100.24895833333333
    },
    {
      "instrumentId": 0,
      "instrumentName": "Piano",
      "isPercussion": false,
      "pitch": 77,
      "velocity": 80,
      "startTime": 100.0,
      "duration": 0.24895833333333428,
      "endTime": 100.24895833333333
    },
    {
      "instrumentId": 1,
      "instrumentName": "Piano",
      "isPercussion": false,
      "pitch": 41,
      "velocity": 80,
      "startTime": 100.0,
      "duration": 0.24895833333333428,
      "endTime": 100.24895833333333
    },
    {
      "instrumentId": 0,
      "instrumentName": "Piano",
      "isPercussion": false,
      "pitch": 76,
      "velocity": 80,
      "startTime": 100.25,
      "duration": 0.24895833333333428,
      "endTime": 100.49895833333333
    },
    {
      "instrumentId": 1,
      "instrumentName": "Piano",
      "isPercussion": false,
      "pitch": 48,
      "velocity": 80,
      "startTime": 100.25,
      "duration": 0.24895833333333428,
      "endTime": 100.49895833333333
    },
    {
      "instrumentId": 0,
      "instrumentName": "Piano",
      "isPercussion": false,
      "pitch": 67,
      "velocity": 80,
      "startTime": 100.5,
      "duration": 0.24895833333333428,
      "endTime": 100.74895833333333
    },
    {
      "instrumentId": 0,
      "instrumentName": "Piano",
      "isPercussion": false,
      "pitch": 76,
      "velocity": 80,
      "startTime": 100.5,
      "duration": 0.24895833333333428,
      "endTime": 100.74895833333333
    },
    {
      "instrumentId": 1,
      "instrumentName": "Piano",
      "isPercussion": false,
      "pitch": 53,
      "velocity": 80,
      "startTime": 100.5,
      "duration": 0.4989583333333343,
      "endTime": 100.99895833333333
    },
    {
      "instrumentId": 1,
      "instrumentName": "Piano",
      "isPercussion": false,
      "pitch": 57,
      "velocity": 80,
      "startTime": 100.5,
      "duration": 0.4989583333333343,
      "endTime": 100.99895833333333
    },
    {
      "instrumentId": 0,
      "instrumentName": "Piano",
      "isPercussion": false,
      "pitch": 67,
      "velocity": 80,
      "startTime": 100.75,
      "duration": 0.24895833333333428,
      "endTime": 100.99895833333333
    },
    {
      "instrumentId": 0,
      "instrumentName": "Piano",
      "isPercussion": false,
      "pitch": 76,
      "velocity": 80,
      "startTime": 100.75,
      "duration": 0.24895833333333428,
      "endTime": 100.99895833333333
    },
    {
      "instrumentId": 0,
      "instrumentName": "Piano",
      "isPercussion": false,
      "pitch": 67,
      "velocity": 80,
      "startTime": 101.0,
      "duration": 0.24895833333333428,
      "endTime": 101.24895833333333
    },
    {
      "instrumentId": 0,
      "instrumentName": "Piano",
      "isPercussion": false,
      "pitch": 76,
      "velocity": 80,
      "startTime": 101.0,
      "duration": 0.24895833333333428,
      "endTime": 101.24895833333333
    },
    {
      "instrumentId": 1,
      "instrumentName": "Piano",
      "isPercussion": false,
      "pitch": 43,
      "velocity": 80,
      "startTime": 101.0,
      "duration": 0.24895833333333428,
      "endTime": 101.24895833333333
    },
    {
      "instrumentId": 0,
      "instrumentName": "Piano",
      "isPercussion": false,
      "pitch": 67,
      "velocity": 80,
      "startTime": 101.25,
      "duration": 0.24895833333333428,
      "endTime": 101.49895833333333
    },
    {
      "instrumentId": 0,
      "instrumentName": "Piano",
      "isPercussion": false,
      "pitch": 74,
      "velocity": 80,
      "startTime": 101.25,
      "duration": 0.24895833333333428,
      "endTime": 101.49895833333333
    },
    {
      "instrumentId": 1,
      "instrumentName": "Piano",
      "isPercussion": false,
      "pitch": 50,
      "velocity": 80,
      "startTime": 101.25,
      "duration": 0.24895833333333428,
      "endTime": 101.49895833333333
    },
    {
      "instrumentId": 0,
      "instrumentName": "Piano",
      "isPercussion": false,
      "pitch": 67,
      "velocity": 80,
      "startTime": 101.5,
      "duration": 0.4989583333333343,
      "endTime": 101.99895833333333
    },
    {
      "instrumentId": 0,
      "instrumentName": "Piano",
      "isPercussion": false,
      "pitch": 74,
      "velocity": 80,
      "startTime": 101.5,
      "duration": 0.4989583333333343,
      "endTime": 101.99895833333333
    },
    {
      "instrumentId": 1,
      "instrumentName": "Piano",
      "isPercussion": false,
      "pitch": 55,
      "velocity": 80,
      "startTime": 101.5,
      "duration": 0.4989583333333343,
      "endTime": 101.99895833333333
    },
    {
      "instrumentId": 1,
      "instrumentName": "Piano",
      "isPercussion": false,
      "pitch": 59,
      "velocity": 80,
      "startTime": 101.5,
      "duration": 0.4989583333333343,
      "endTime": 101.99895833333333
    },
    {
      "instrumentId": 0,
      "instrumentName": "Piano",
      "isPercussion": false,
      "pitch": 69,
      "velocity": 80,
      "startTime": 102.0,
      "duration": 0.24895833333333428,
      "endTime": 102.24895833333333
    },
    {
      "instrumentId": 0,
      "instrumentName": "Piano",
      "isPercussion": false,
      "pitch": 74,
      "velocity": 80,
      "startTime": 102.0,
      "duration": 0.24895833333333428,
      "endTime": 102.24895833333333
    },
    {
      "instrumentId": 1,
      "instrumentName": "Piano",
      "isPercussion": false,
      "pitch": 45,
      "velocity": 80,
      "startTime": 102.0,
      "duration": 0.24895833333333428,
      "endTime": 102.24895833333333
    },
    {
      "instrumentId": 0,
      "instrumentName": "Piano",
      "isPercussion": false,
      "pitch": 72,
      "velocity": 80,
      "startTime": 102.25,
      "duration": 0.24895833333333428,
      "endTime": 102.49895833333333
    },
    {
      "instrumentId": 1,
      "instrumentName": "Piano",
      "isPercussion": false,
      "pitch": 52,
      "velocity": 80,
      "startTime": 102.25,
      "duration": 0.24895833333333428,
      "endTime": 102.49895833333333
    },
    {
      "instrumentId": 0,
      "instrumentName": "Piano",
      "isPercussion": false,
      "pitch": 64,
      "velocity": 80,
      "startTime": 102.5,
      "duration": 0.24895833333333428,
      "endTime": 102.74895833333333
    },
    {
      "instrumentId": 0,
      "instrumentName": "Piano",
      "isPercussion": false,
      "pitch": 69,
      "velocity": 80,
      "startTime": 102.5,
      "duration": 0.24895833333333428,
      "endTime": 102.74895833333333
    },
    {
      "instrumentId": 0,
      "instrumentName": "Piano",
      "isPercussion": false,
      "pitch": 72,
      "velocity": 80,
      "startTime": 102.5,
      "duration": 0.24895833333333428,
      "endTime": 102.74895833333333
    },
    {
      "instrumentId": 1,
      "instrumentName": "Piano",
      "isPercussion": false,
      "pitch": 57,
      "velocity": 80,
      "startTime": 102.5,
      "duration": 0.4989583333333343,
      "endTime": 102.99895833333333
    },
    {
      "instrumentId": 1,
      "instrumentName": "Piano",
      "isPercussion": false,
      "pitch": 60,
      "velocity": 80,
      "startTime": 102.5,
      "duration": 0.4989583333333343,
      "endTime": 102.99895833333333
    },
    {
      "instrumentId": 0,
      "instrumentName": "Piano",
      "isPercussion": false,
      "pitch": 72,
      "velocity": 80,
      "startTime": 102.75,
      "duration": 0.24895833333333428,
      "endTime": 102.99895833333333
    },
    {
      "instrumentId": 1,
      "instrumentName": "Piano",
      "isPercussion": false,
      "pitch": 36,
      "velocity": 80,
      "startTime": 103.0,
      "duration": 0.24895833333333428,
      "endTime": 103.24895833333333
    },
    {
      "instrumentId": 1,
      "instrumentName": "Piano",
      "isPercussion": false,
      "pitch": 43,
      "velocity": 80,
      "startTime": 103.0,
      "duration": 0.24895833333333428,
      "endTime": 103.24895833333333
    },
    {
      "instrumentId": 1,
      "instrumentName": "Piano",
      "isPercussion": false,
      "pitch": 48,
      "velocity": 80,
      "startTime": 103.25,
      "duration": 0.24895833333333428,
      "endTime": 103.49895833333333
    },
    {
      "instrumentId": 1,
      "instrumentName": "Piano",
      "isPercussion": false,
      "pitch": 52,
      "velocity": 80,
      "startTime": 103.5,
      "duration": 0.24895833333333428,
      "endTime": 103.74895833333333
    },
    {
      "instrumentId": 1,
      "instrumentName": "Piano",
      "isPercussion": false,
      "pitch": 55,
      "velocity": 80,
      "startTime": 103.75,
      "duration": 0.24895833333333428,
      "endTime": 103.99895833333333
    },
    {
      "instrumentId": 1,
      "instrumentName": "Piano",
      "isPercussion": false,
      "pitch": 45,
      "velocity": 96,
      "startTime": 104.0,
      "duration": 0.4989583333333343,
      "endTime": 104.49895833333333
    },
    {
      "instrumentId": 0,
      "instrumentName": "Piano",
      "isPercussion": false,
      "pitch": 72,
      "velocity": 96,
      "startTime": 104.5,
      "duration": 0.24895833333333428,
      "endTime": 104.74895833333333
    },
    {
      "instrumentId": 0,
      "instrumentName": "Piano",
      "isPercussion": false,
      "pitch": 76,
      "velocity": 96,
      "startTime": 104.5,
      "duration": 0.24895833333333428,
      "endTime": 104.74895833333333
    },
    {
      "instrumentId": 1,
      "instrumentName": "Piano",
      "isPercussion": false,
      "pitch": 52,
      "velocity": 96,
      "startTime": 104.5,
      "duration": 0.24895833333333428,
      "endTime": 104.74895833333333
    },
    {
      "instrumentId": 1,
      "instrumentName": "Piano",
      "isPercussion": false,
      "pitch": 57,
      "velocity": 96,
      "startTime": 104.5,
      "duration": 0.24895833333333428,
      "endTime": 104.74895833333333
    },
    {
      "instrumentId": 0,
      "instrumentName": "Piano",
      "isPercussion": false,
      "pitch": 72,
      "velocity": 96,
      "startTime": 104.75,
      "duration": 0.24895833333333428,
      "endTime": 104.99895833333333
    },
    {
      "instrumentId": 0,
      "instrumentName": "Piano",
      "isPercussion": false,
      "pitch": 76,
      "velocity": 96,
      "startTime": 104.75,
      "duration": 0.24895833333333428,
      "endTime": 104.99895833333333
    },
    {
      "instrumentId": 1,
      "instrumentName": "Piano",
      "isPercussion": false,
      "pitch": 45,
      "velocity": 96,
      "startTime": 104.75,
      "duration": 0.24895833333333428,
      "endTime": 104.99895833333333
    },
    {
      "instrumentId": 0,
      "instrumentName": "Piano",
      "isPercussion": false,
      "pitch": 71,
      "velocity": 96,
      "startTime": 105.0,
      "duration": 0.24895833333333428,
      "endTime": 105.24895833333333
    },
    {
      "instrumentId": 0,
      "instrumentName": "Piano",
      "isPercussion": false,
      "pitch": 74,
      "velocity": 96,
      "startTime": 105.0,
      "duration": 0.24895833333333428,
      "endTime": 105.24895833333333
    },
    {
      "instrumentId": 1,
      "instrumentName": "Piano",
      "isPercussion": false,
      "pitch": 43,
      "velocity": 96,
      "startTime": 105.0,
      "duration": 0.24895833333333428,
      "endTime": 105.24895833333333
    },
    {
      "instrumentId": 0,
      "instrumentName": "Piano",
      "isPercussion": false,
      "pitch": 71,
      "velocity": 96,
      "startTime": 105.25,
      "duration": 0.24895833333333428,
      "endTime": 105.49895833333333
    },
    {
      "instrumentId": 0,
      "instrumentName": "Piano",
      "isPercussion": false,
      "pitch": 74,
      "velocity": 96,
      "startTime": 105.25,
      "duration": 0.24895833333333428,
      "endTime": 105.49895833333333
    },
    {
      "instrumentId": 1,
      "instrumentName": "Piano",
      "isPercussion": false,
      "pitch": 50,
      "velocity": 96,
      "startTime": 105.25,
      "duration": 0.24895833333333428,
      "endTime": 105.49895833333333
    },
    {
      "instrumentId": 1,
      "instrumentName": "Piano",
      "isPercussion": false,
      "pitch": 55,
      "velocity": 96,
      "startTime": 105.5,
      "duration": 0.24895833333333428,
      "endTime": 105.74895833333333
    },
    {
      "instrumentId": 0,
      "instrumentName": "Piano",
      "isPercussion": false,
      "pitch": 74,
      "velocity": 96,
      "startTime": 105.75,
      "duration": 0.4989583333333343,
      "endTime": 106.24895833333333
    },
    {
      "instrumentId": 0,
      "instrumentName": "Piano",
      "isPercussion": false,
      "pitch": 77,
      "velocity": 96,
      "startTime": 105.75,
      "duration": 0.4989583333333343,
      "endTime": 106.24895833333333
    },
    {
      "instrumentId": 1,
      "instrumentName": "Piano",
      "isPercussion": false,
      "pitch": 43,
      "velocity": 96,
      "startTime": 105.75,
      "duration": 0.24895833333333428,
      "endTime": 105.99895833333333
    },
    {
      "instrumentId": 1,
      "instrumentName": "Piano",
      "isPercussion": false,
      "pitch": 41,
      "velocity": 96,
      "startTime": 106.0,
      "duration": 0.24895833333333428,
      "endTime": 106.24895833333333
    },
    {
      "instrumentId": 0,
      "instrumentName": "Piano",
      "isPercussion": false,
      "pitch": 74,
      "velocity": 96,
      "startTime": 106.25,
      "duration": 0.24895833333333428,
      "endTime": 106.49895833333333
    },
    {
      "instrumentId": 0,
      "instrumentName": "Piano",
      "isPercussion": false,
      "pitch": 77,
      "velocity": 96,
      "startTime": 106.25,
      "duration": 0.24895833333333428,
      "endTime": 106.49895833333333
    },
    {
      "instrumentId": 1,
      "instrumentName": "Piano",
      "isPercussion": false,
      "pitch": 48,
      "velocity": 96,
      "startTime": 106.25,
      "duration": 0.24895833333333428,
      "endTime": 106.49895833333333
    },
    {
      "instrumentId": 0,
      "instrumentName": "Piano",
      "isPercussion": false,
      "pitch": 72,
      "velocity": 96,
      "startTime": 106.5,
      "duration": 0.24895833333333428,
      "endTime": 106.74895833333333
    },
    {
      "instrumentId": 0,
      "instrumentName": "Piano",
      "isPercussion": false,
      "pitch": 76,
      "velocity": 96,
      "startTime": 106.5,
      "duration": 0.24895833333333428,
      "endTime": 106.74895833333333
    },
    {
      "instrumentId": 1,
      "instrumentName": "Piano",
      "isPercussion": false,
      "pitch": 53,
      "velocity": 96,
      "startTime": 106.5,
      "duration": 0.24895833333333428,
      "endTime": 106.74895833333333
    },
    {
      "instrumentId": 0,
      "instrumentName": "Piano",
      "isPercussion": false,
      "pitch": 72,
      "velocity": 96,
      "startTime": 106.75,
      "duration": 0.7489583333333343,
      "endTime": 107.49895833333333
    },
    {
      "instrumentId": 0,
      "instrumentName": "Piano",
      "isPercussion": false,
      "pitch": 76,
      "velocity": 96,
      "startTime": 106.75,
      "duration": 0.7489583333333343,
      "endTime": 107.49895833333333
    },
    {
      "instrumentId": 1,
      "instrumentName": "Piano",
      "isPercussion": false,
      "pitch": 41,
      "velocity": 96,
      "startTime": 106.75,
      "duration": 0.24895833333333428,
      "endTime": 106.99895833333333
    },
    {
      "instrumentId": 1,
      "instrumentName": "Piano",
      "isPercussion": false,
      "pitch": 48,
      "velocity": 96,
      "startTime": 107.0,
      "duration": 0.24895833333333428,
      "endTime": 107.24895833333333
    },
    {
      "instrumentId": 1,
      "instrumentName": "Piano",
      "isPercussion": false,
      "pitch": 55,
      "velocity": 96,
      "startTime": 107.25,
      "duration": 0.24895833333333428,
      "endTime": 107.49895833333333
    },
    {
      "instrumentId": 0,
      "instrumentName": "Piano",
      "isPercussion": false,
      "pitch": 67,
      "velocity": 96,
      "startTime": 107.5,
      "duration": 0.24895833333333428,
      "endTime": 107.74895833333333
    },
    {
      "instrumentId": 0,
      "instrumentName": "Piano",
      "isPercussion": false,
      "pitch": 72,
      "velocity": 96,
      "startTime": 107.5,
      "duration": 0.24895833333333428,
      "endTime": 107.74895833333333
    },
    {
      "instrumentId": 0,
      "instrumentName": "Piano",
      "isPercussion": false,
      "pitch": 77,
      "velocity": 96,
      "startTime": 107.5,
      "duration": 0.24895833333333428,
      "endTime": 107.74895833333333
    },
    {
      "instrumentId": 1,
      "instrumentName": "Piano",
      "isPercussion": false,
      "pitch": 60,
      "velocity": 96,
      "startTime": 107.5,
      "duration": 0.4989583333333343,
      "endTime": 107.99895833333333
    },
    {
      "instrumentId": 0,
      "instrumentName": "Piano",
      "isPercussion": false,
      "pitch": 77,
      "velocity": 96,
      "startTime": 107.75,
      "duration": 0.24895833333333428,
      "endTime": 107.99895833333333
    },
    {
      "instrumentId": 0,
      "instrumentName": "Piano",
      "isPercussion": false,
      "pitch": 74,
      "velocity": 96,
      "startTime": 108.0,
      "duration": 0.4989583333333343,
      "endTime": 108.49895833333333
    },
    {
      "instrumentId": 0,
      "instrumentName": "Piano",
      "isPercussion": false,
      "pitch": 77,
      "velocity": 96,
      "startTime": 108.0,
      "duration": 0.4989583333333343,
      "endTime": 108.49895833333333
    },
    {
      "instrumentId": 1,
      "instrumentName": "Piano",
      "isPercussion": false,
      "pitch": 45,
      "velocity": 96,
      "startTime": 108.0,
      "duration": 0.4989583333333343,
      "endTime": 108.49895833333333
    },
    {
      "instrumentId": 0,
      "instrumentName": "Piano",
      "isPercussion": false,
      "pitch": 72,
      "velocity": 96,
      "startTime": 108.5,
      "duration": 0.4989583333333343,
      "endTime": 108.99895833333333
    },
    {
      "instrumentId": 0,
      "instrumentName": "Piano",
      "isPercussion": false,
      "pitch": 76,
      "velocity": 96,
      "startTime": 108.5,
      "duration": 0.4989583333333343,
      "endTime": 108.99895833333333
    },
    {
      "instrumentId": 1,
      "instrumentName": "Piano",
      "isPercussion": false,
      "pitch": 52,
      "velocity": 96,
      "startTime": 108.5,
      "duration": 0.24895833333333428,
      "endTime": 108.74895833333333
    },
    {
      "instrumentId": 1,
      "instrumentName": "Piano",
      "isPercussion": false,
      "pitch": 57,
      "velocity": 96,
      "startTime": 108.5,
      "duration": 0.24895833333333428,
      "endTime": 108.74895833333333
    },
    {
      "instrumentId": 1,
      "instrumentName": "Piano",
      "isPercussion": false,
      "pitch": 45,
      "velocity": 96,
      "startTime": 108.75,
      "duration": 0.24895833333333428,
      "endTime": 108.99895833333333
    },
    {
      "instrumentId": 0,
      "instrumentName": "Piano",
      "isPercussion": false,
      "pitch": 71,
      "velocity": 96,
      "startTime": 109.0,
      "duration": 0.24895833333333428,
      "endTime": 109.24895833333333
    },
    {
      "instrumentId": 0,
      "instrumentName": "Piano",
      "isPercussion": false,
      "pitch": 74,
      "velocity": 96,
      "startTime": 109.0,
      "duration": 0.24895833333333428,
      "endTime": 109.24895833333333
    },
    {
      "instrumentId": 1,
      "instrumentName": "Piano",
      "isPercussion": false,
      "pitch": 43,
      "velocity": 96,
      "startTime": 109.0,
      "duration": 0.24895833333333428,
      "endTime": 109.24895833333333
    },
    {
      "instrumentId": 0,
      "instrumentName": "Piano",
      "isPercussion": false,
      "pitch": 69,
      "velocity": 96,
      "startTime": 109.25,
      "duration": 0.4989583333333343,
      "endTime": 109.74895833333333
    },
    {
      "instrumentId": 0,
      "instrumentName": "Piano",
      "isPercussion": false,
      "pitch": 76,
      "velocity": 96,
      "startTime": 109.25,
      "duration": 0.4989583333333343,
      "endTime": 109.74895833333333
    },
    {
      "instrumentId": 1,
      "instrumentName": "Piano",
      "isPercussion": false,
      "pitch": 50,
      "velocity": 96,
      "startTime": 109.25,
      "duration": 0.24895833333333428,
      "endTime": 109.49895833333333
    },
    {
      "instrumentId": 1,
      "instrumentName": "Piano",
      "isPercussion": false,
      "pitch": 55,
      "velocity": 96,
      "startTime": 109.5,
      "duration": 0.24895833333333428,
      "endTime": 109.74895833333333
    },
    {
      "instrumentId": 0,
      "instrumentName": "Piano",
      "isPercussion": false,
      "pitch": 67,
      "velocity": 96,
      "startTime": 109.75,
      "duration": 0.4989583333333343,
      "endTime": 110.24895833333333
    },
    {
      "instrumentId": 0,
      "instrumentName": "Piano",
      "isPercussion": false,
      "pitch": 74,
      "velocity": 96,
      "startTime": 109.75,
      "duration": 0.4989583333333343,
      "endTime": 110.24895833333333
    },
    {
      "instrumentId": 1,
      "instrumentName": "Piano",
      "isPercussion": false,
      "pitch": 43,
      "velocity": 96,
      "startTime": 109.75,
      "duration": 0.24895833333333428,
      "endTime": 109.99895833333333
    },
    {
      "instrumentId": 1,
      "instrumentName": "Piano",
      "isPercussion": false,
      "pitch": 41,
      "velocity": 96,
      "startTime": 110.0,
      "duration": 0.24895833333333428,
      "endTime": 110.24895833333333
    },
    {
      "instrumentId": 0,
      "instrumentName": "Piano",
      "isPercussion": false,
      "pitch": 64,
      "velocity": 96,
      "startTime": 110.25,
      "duration": 0.4989583333333343,
      "endTime": 110.74895833333333
    },
    {
      "instrumentId": 0,
      "instrumentName": "Piano",
      "isPercussion": false,
      "pitch": 69,
      "velocity": 96,
      "startTime": 110.25,
      "duration": 0.4989583333333343,
      "endTime": 110.74895833333333
    },
    {
      "instrumentId": 0,
      "instrumentName": "Piano",
      "isPercussion": false,
      "pitch": 72,
      "velocity": 96,
      "startTime": 110.25,
      "duration": 0.4989583333333343,
      "endTime": 110.74895833333333
    },
    {
      "instrumentId": 1,
      "instrumentName": "Piano",
      "isPercussion": false,
      "pitch": 48,
      "velocity": 96,
      "startTime": 110.25,
      "duration": 0.24895833333333428,
      "endTime": 110.49895833333333
    },
    {
      "instrumentId": 1,
      "instrumentName": "Piano",
      "isPercussion": false,
      "pitch": 53,
      "velocity": 96,
      "startTime": 110.5,
      "duration": 0.24895833333333428,
      "endTime": 110.74895833333333
    },
    {
      "instrumentId": 0,
      "instrumentName": "Piano",
      "isPercussion": false,
      "pitch": 64,
      "velocity": 96,
      "startTime": 110.75,
      "duration": 1.2489583333333343,
      "endTime": 111.99895833333333
    },
    {
      "instrumentId": 0,
      "instrumentName": "Piano",
      "isPercussion": false,
      "pitch": 67,
      "velocity": 96,
      "startTime": 110.75,
      "duration": 1.2489583333333343,
      "endTime": 111.99895833333333
    },
    {
      "instrumentId": 0,
      "instrumentName": "Piano",
      "isPercussion": false,
      "pitch": 72,
      "velocity": 96,
      "startTime": 110.75,
      "duration": 1.2489583333333343,
      "endTime": 111.99895833333333
    },
    {
      "instrumentId": 1,
      "instrumentName": "Piano",
      "isPercussion": false,
      "pitch": 41,
      "velocity": 96,
      "startTime": 110.75,
      "duration": 0.24895833333333428,
      "endTime": 110.99895833333333
    },
    {
      "instrumentId": 1,
      "instrumentName": "Piano",
      "isPercussion": false,
      "pitch": 36,
      "velocity": 96,
      "startTime": 111.0,
      "duration": 0.24895833333333428,
      "endTime": 111.24895833333333
    },
    {
      "instrumentId": 1,
      "instrumentName": "Piano",
      "isPercussion": false,
      "pitch": 43,
      "velocity": 96,
      "startTime": 111.25,
      "duration": 0.24895833333333428,
      "endTime": 111.49895833333333
    },
    {
      "instrumentId": 1,
      "instrumentName": "Piano",
      "isPercussion": false,
      "pitch": 48,
      "velocity": 96,
      "startTime": 111.5,
      "duration": 0.4989583333333343,
      "endTime": 111.99895833333333
    },
    {
      "instrumentId": 1,
      "instrumentName": "Piano",
      "isPercussion": false,
      "pitch": 52,
      "velocity": 96,
      "startTime": 111.5,
      "duration": 0.4989583333333343,
      "endTime": 111.99895833333333
    },
    {
      "instrumentId": 1,
      "instrumentName": "Piano",
      "isPercussion": false,
      "pitch": 45,
      "velocity": 96,
      "startTime": 112.0,
      "duration": 0.4989583333333343,
      "endTime": 112.49895833333333
    },
    {
      "instrumentId": 0,
      "instrumentName": "Piano",
      "isPercussion": false,
      "pitch": 72,
      "velocity": 96,
      "startTime": 112.5,
      "duration": 0.24895833333333428,
      "endTime": 112.74895833333333
    },
    {
      "instrumentId": 0,
      "instrumentName": "Piano",
      "isPercussion": false,
      "pitch": 76,
      "velocity": 96,
      "startTime": 112.5,
      "duration": 0.24895833333333428,
      "endTime": 112.74895833333333
    },
    {
      "instrumentId": 1,
      "instrumentName": "Piano",
      "isPercussion": false,
      "pitch": 52,
      "velocity": 96,
      "startTime": 112.5,
      "duration": 0.24895833333333428,
      "endTime": 112.74895833333333
    },
    {
      "instrumentId": 1,
      "instrumentName": "Piano",
      "isPercussion": false,
      "pitch": 57,
      "velocity": 96,
      "startTime": 112.5,
      "duration": 0.24895833333333428,
      "endTime": 112.74895833333333
    },
    {
      "instrumentId": 0,
      "instrumentName": "Piano",
      "isPercussion": false,
      "pitch": 72,
      "velocity": 96,
      "startTime": 112.75,
      "duration": 0.24895833333333428,
      "endTime": 112.99895833333333
    },
    {
      "instrumentId": 0,
      "instrumentName": "Piano",
      "isPercussion": false,
      "pitch": 76,
      "velocity": 96,
      "startTime": 112.75,
      "duration": 0.24895833333333428,
      "endTime": 112.99895833333333
    },
    {
      "instrumentId": 1,
      "instrumentName": "Piano",
      "isPercussion": false,
      "pitch": 45,
      "velocity": 96,
      "startTime": 112.75,
      "duration": 0.24895833333333428,
      "endTime": 112.99895833333333
    },
    {
      "instrumentId": 0,
      "instrumentName": "Piano",
      "isPercussion": false,
      "pitch": 71,
      "velocity": 96,
      "startTime": 113.0,
      "duration": 0.24895833333333428,
      "endTime": 113.24895833333333
    },
    {
      "instrumentId": 0,
      "instrumentName": "Piano",
      "isPercussion": false,
      "pitch": 74,
      "velocity": 96,
      "startTime": 113.0,
      "duration": 0.24895833333333428,
      "endTime": 113.24895833333333
    },
    {
      "instrumentId": 1,
      "instrumentName": "Piano",
      "isPercussion": false,
      "pitch": 43,
      "velocity": 96,
      "startTime": 113.0,
      "duration": 0.24895833333333428,
      "endTime": 113.24895833333333
    },
    {
      "instrumentId": 0,
      "instrumentName": "Piano",
      "isPercussion": false,
      "pitch": 71,
      "velocity": 96,
      "startTime": 113.25,
      "duration": 0.24895833333333428,
      "endTime": 113.49895833333333
    },
    {
      "instrumentId": 0,
      "instrumentName": "Piano",
      "isPercussion": false,
      "pitch": 74,
      "velocity": 96,
      "startTime": 113.25,
      "duration": 0.24895833333333428,
      "endTime": 113.49895833333333
    },
    {
      "instrumentId": 1,
      "instrumentName": "Piano",
      "isPercussion": false,
      "pitch": 50,
      "velocity": 96,
      "startTime": 113.25,
      "duration": 0.24895833333333428,
      "endTime": 113.49895833333333
    },
    {
      "instrumentId": 0,
      "instrumentName": "Piano",
      "isPercussion": false,
      "pitch": 67,
      "velocity": 96,
      "startTime": 113.5,
      "duration": 0.4989583333333343,
      "endTime": 113.99895833333333
    },
    {
      "instrumentId": 0,
      "instrumentName": "Piano",
      "isPercussion": false,
      "pitch": 72,
      "velocity": 96,
      "startTime": 113.5,
      "duration": 0.4989583333333343,
      "endTime": 113.99895833333333
    },
    {
      "instrumentId": 1,
      "instrumentName": "Piano",
      "isPercussion": false,
      "pitch": 55,
      "velocity": 96,
      "startTime": 113.5,
      "duration": 0.24895833333333428,
      "endTime": 113.74895833333333
    },
    {
      "instrumentId": 1,
      "instrumentName": "Piano",
      "isPercussion": false,
      "pitch": 43,
      "velocity": 96,
      "startTime": 113.75,
      "duration": 0.24895833333333428,
      "endTime": 113.99895833333333
    },
    {
      "instrumentId": 0,
      "instrumentName": "Piano",
      "isPercussion": false,
      "pitch": 74,
      "velocity": 96,
      "startTime": 114.0,
      "duration": 0.24895833333333428,
      "endTime": 114.24895833333333
    },
    {
      "instrumentId": 0,
      "instrumentName": "Piano",
      "isPercussion": false,
      "pitch": 77,
      "velocity": 96,
      "startTime": 114.0,
      "duration": 0.24895833333333428,
      "endTime": 114.24895833333333
    },
    {
      "instrumentId": 1,
      "instrumentName": "Piano",
      "isPercussion": false,
      "pitch": 41,
      "velocity": 96,
      "startTime": 114.0,
      "duration": 0.24895833333333428,
      "endTime": 114.24895833333333
    },
    {
      "instrumentId": 0,
      "instrumentName": "Piano",
      "isPercussion": false,
      "pitch": 74,
      "velocity": 96,
      "startTime": 114.25,
      "duration": 0.24895833333333428,
      "endTime": 114.49895833333333
    },
    {
      "instrumentId": 0,
      "instrumentName": "Piano",
      "isPercussion": false,
      "pitch": 77,
      "velocity": 96,
      "startTime": 114.25,
      "duration": 0.24895833333333428,
      "endTime": 114.49895833333333
    },
    {
      "instrumentId": 1,
      "instrumentName": "Piano",
      "isPercussion": false,
      "pitch": 48,
      "velocity": 96,
      "startTime": 114.25,
      "duration": 0.24895833333333428,
      "endTime": 114.49895833333333
    },
    {
      "instrumentId": 0,
      "instrumentName": "Piano",
      "isPercussion": false,
      "pitch": 74,
      "velocity": 96,
      "startTime": 114.5,
      "duration": 0.24895833333333428,
      "endTime": 114.74895833333333
    },
    {
      "instrumentId": 0,
      "instrumentName": "Piano",
      "isPercussion": false,
      "pitch": 77,
      "velocity": 96,
      "startTime": 114.5,
      "duration": 0.24895833333333428,
      "endTime": 114.74895833333333
    },
    {
      "instrumentId": 1,
      "instrumentName": "Piano",
      "isPercussion": false,
      "pitch": 53,
      "velocity": 96,
      "startTime": 114.5,
      "duration": 0.24895833333333428,
      "endTime": 114.74895833333333
    },
    {
      "instrumentId": 0,
      "instrumentName": "Piano",
      "isPercussion": false,
      "pitch": 72,
      "velocity": 96,
      "startTime": 114.75,
      "duration": 0.24895833333333428,
      "endTime": 114.99895833333333
    },
    {
      "instrumentId": 0,
      "instrumentName": "Piano",
      "isPercussion": false,
      "pitch": 76,
      "velocity": 96,
      "startTime": 114.75,
      "duration": 0.24895833333333428,
      "endTime": 114.99895833333333
    },
    {
      "instrumentId": 1,
      "instrumentName": "Piano",
      "isPercussion": false,
      "pitch": 41,
      "velocity": 96,
      "startTime": 114.75,
      "duration": 0.24895833333333428,
      "endTime": 114.99895833333333
    },
    {
      "instrumentId": 0,
      "instrumentName": "Piano",
      "isPercussion": false,
      "pitch": 72,
      "velocity": 96,
      "startTime": 115.0,
      "duration": 0.4989583333333343,
      "endTime": 115.49895833333333
    },
    {
      "instrumentId": 0,
      "instrumentName": "Piano",
      "isPercussion": false,
      "pitch": 76,
      "velocity": 96,
      "startTime": 115.0,
      "duration": 0.4989583333333343,
      "endTime": 115.49895833333333
    },
    {
      "instrumentId": 1,
      "instrumentName": "Piano",
      "isPercussion": false,
      "pitch": 48,
      "velocity": 96,
      "startTime": 115.0,
      "duration": 0.24895833333333428,
      "endTime": 115.24895833333333
    },
    {
      "instrumentId": 1,
      "instrumentName": "Piano",
      "isPercussion": false,
      "pitch": 55,
      "velocity": 96,
      "startTime": 115.25,
      "duration": 0.24895833333333428,
      "endTime": 115.49895833333333
    },
    {
      "instrumentId": 0,
      "instrumentName": "Piano",
      "isPercussion": false,
      "pitch": 72,
      "velocity": 96,
      "startTime": 115.5,
      "duration": 0.24895833333333428,
      "endTime": 115.74895833333333
    },
    {
      "instrumentId": 1,
      "instrumentName": "Piano",
      "isPercussion": false,
      "pitch": 60,
      "velocity": 96,
      "startTime": 115.5,
      "duration": 0.4989583333333343,
      "endTime": 115.99895833333333
    },
    {
      "instrumentId": 0,
      "instrumentName": "Piano",
      "isPercussion": false,
      "pitch": 74,
      "velocity": 96,
      "startTime": 115.75,
      "duration": 0.4989583333333343,
      "endTime": 116.24895833333333
    },
    {
      "instrumentId": 0,
      "instrumentName": "Piano",
      "isPercussion": false,
      "pitch": 77,
      "velocity": 96,
      "startTime": 115.75,
      "duration": 0.4989583333333343,
      "endTime": 116.24895833333333
    },
    {
      "instrumentId": 1,
      "instrumentName": "Piano",
      "isPercussion": false,
      "pitch": 45,
      "velocity": 96,
      "startTime": 116.0,
      "duration": 0.4989583333333343,
      "endTime": 116.49895833333333
    },
    {
      "instrumentId": 0,
      "instrumentName": "Piano",
      "isPercussion": false,
      "pitch": 72,
      "velocity": 96,
      "startTime": 116.25,
      "duration": 0.24895833333333428,
      "endTime": 116.49895833333333
    },
    {
      "instrumentId": 0,
      "instrumentName": "Piano",
      "isPercussion": false,
      "pitch": 76,
      "velocity": 96,
      "startTime": 116.25,
      "duration": 0.24895833333333428,
      "endTime": 116.49895833333333
    },
    {
      "instrumentId": 0,
      "instrumentName": "Piano",
      "isPercussion": false,
      "pitch": 72,
      "velocity": 96,
      "startTime": 116.5,
      "duration": 0.24895833333333428,
      "endTime": 116.74895833333333
    },
    {
      "instrumentId": 0,
      "instrumentName": "Piano",
      "isPercussion": false,
      "pitch": 76,
      "velocity": 96,
      "startTime": 116.5,
      "duration": 0.24895833333333428,
      "endTime": 116.74895833333333
    },
    {
      "instrumentId": 1,
      "instrumentName": "Piano",
      "isPercussion": false,
      "pitch": 52,
      "velocity": 96,
      "startTime": 116.5,
      "duration": 0.24895833333333428,
      "endTime": 116.74895833333333
    },
    {
      "instrumentId": 1,
      "instrumentName": "Piano",
      "isPercussion": false,
      "pitch": 57,
      "velocity": 96,
      "startTime": 116.5,
      "duration": 0.24895833333333428,
      "endTime": 116.74895833333333
    },
    {
      "instrumentId": 0,
      "instrumentName": "Piano",
      "isPercussion": false,
      "pitch": 67,
      "velocity": 96,
      "startTime": 116.75,
      "duration": 0.4989583333333343,
      "endTime": 117.24895833333333
    },
    {
      "instrumentId": 0,
      "instrumentName": "Piano",
      "isPercussion": false,
      "pitch": 74,
      "velocity": 96,
      "startTime": 116.75,
      "duration": 0.4989583333333343,
      "endTime": 117.24895833333333
    },
    {
      "instrumentId": 1,
      "instrumentName": "Piano",
      "isPercussion": false,
      "pitch": 45,
      "velocity": 96,
      "startTime": 116.75,
      "duration": 0.24895833333333428,
      "endTime": 116.99895833333333
    },
    {
      "instrumentId": 1,
      "instrumentName": "Piano",
      "isPercussion": false,
      "pitch": 43,
      "velocity": 96,
      "startTime": 117.0,
      "duration": 0.24895833333333428,
      "endTime": 117.24895833333333
    },
    {
      "instrumentId": 0,
      "instrumentName": "Piano",
      "isPercussion": false,
      "pitch": 69,
      "velocity": 96,
      "startTime": 117.25,
      "duration": 0.4989583333333343,
      "endTime": 117.74895833333333
    },
    {
      "instrumentId": 0,
      "instrumentName": "Piano",
      "isPercussion": false,
      "pitch": 76,
      "velocity": 96,
      "startTime": 117.25,
      "duration": 0.4989583333333343,
      "endTime": 117.74895833333333
    },
    {
      "instrumentId": 1,
      "instrumentName": "Piano",
      "isPercussion": false,
      "pitch": 50,
      "velocity": 96,
      "startTime": 117.25,
      "duration": 0.24895833333333428,
      "endTime": 117.49895833333333
    },
    {
      "instrumentId": 1,
      "instrumentName": "Piano",
      "isPercussion": false,
      "pitch": 55,
      "velocity": 96,
      "startTime": 117.5,
      "duration": 0.24895833333333428,
      "endTime": 117.74895833333333
    },
    {
      "instrumentId": 0,
      "instrumentName": "Piano",
      "isPercussion": false,
      "pitch": 67,
      "velocity": 96,
      "startTime": 117.75,
      "duration": 0.4989583333333343,
      "endTime": 118.24895833333333
    },
    {
      "instrumentId": 0,
      "instrumentName": "Piano",
      "isPercussion": false,
      "pitch": 74,
      "velocity": 96,
      "startTime": 117.75,
      "duration": 0.4989583333333343,
      "endTime": 118.24895833333333
    },
    {
      "instrumentId": 1,
      "instrumentName": "Piano",
      "isPercussion": false,
      "pitch": 43,
      "velocity": 96,
      "startTime": 117.75,
      "duration": 0.24895833333333428,
      "endTime": 117.99895833333333
    },
    {
      "instrumentId": 1,
      "instrumentName": "Piano",
      "isPercussion": false,
      "pitch": 41,
      "velocity": 96,
      "startTime": 118.0,
      "duration": 0.24895833333333428,
      "endTime": 118.24895833333333
    },
    {
      "instrumentId": 0,
      "instrumentName": "Piano",
      "isPercussion": false,
      "pitch": 64,
      "velocity": 96,
      "startTime": 118.25,
      "duration": 0.4989583333333343,
      "endTime": 118.74895833333333
    },
    {
      "instrumentId": 0,
      "instrumentName": "Piano",
      "isPercussion": false,
      "pitch": 69,
      "velocity": 96,
      "startTime": 118.25,
      "duration": 0.4989583333333343,
      "endTime": 118.74895833333333
    },
    {
      "instrumentId": 0,
      "instrumentName": "Piano",
      "isPercussion": false,
      "pitch": 72,
      "velocity": 96,
      "startTime": 118.25,
      "duration": 0.4989583333333343,
      "endTime": 118.74895833333333
    },
    {
      "instrumentId": 1,
      "instrumentName": "Piano",
      "isPercussion": false,
      "pitch": 48,
      "velocity": 96,
      "startTime": 118.25,
      "duration": 0.24895833333333428,
      "endTime": 118.49895833333333
    },
    {
      "instrumentId": 1,
      "instrumentName": "Piano",
      "isPercussion": false,
      "pitch": 53,
      "velocity": 96,
      "startTime": 118.5,
      "duration": 0.24895833333333428,
      "endTime": 118.74895833333333
    },
    {
      "instrumentId": 0,
      "instrumentName": "Piano",
      "isPercussion": false,
      "pitch": 64,
      "velocity": 96,
      "startTime": 118.75,
      "duration": 1.2489583333333343,
      "endTime": 119.99895833333333
    },
    {
      "instrumentId": 0,
      "instrumentName": "Piano",
      "isPercussion": false,
      "pitch": 67,
      "velocity": 96,
      "startTime": 118.75,
      "duration": 1.2489583333333343,
      "endTime": 119.99895833333333
    },
    {
      "instrumentId": 0,
      "instrumentName": "Piano",
      "isPercussion": false,
      "pitch": 72,
      "velocity": 96,
      "startTime": 118.75,
      "duration": 1.2489583333333343,
      "endTime": 119.99895833333333
    },
    {
      "instrumentId": 1,
      "instrumentName": "Piano",
      "isPercussion": false,
      "pitch": 41,
      "velocity": 96,
      "startTime": 118.75,
      "duration": 0.24895833333333428,
      "endTime": 118.99895833333333
    },
    {
      "instrumentId": 1,
      "instrumentName": "Piano",
      "isPercussion": false,
      "pitch": 36,
      "velocity": 96,
      "startTime": 119.0,
      "duration": 0.24895833333333428,
      "endTime": 119.24895833333333
    },
    {
      "instrumentId": 1,
      "instrumentName": "Piano",
      "isPercussion": false,
      "pitch": 43,
      "velocity": 96,
      "startTime": 119.25,
      "duration": 0.24895833333333428,
      "endTime": 119.49895833333333
    },
    {
      "instrumentId": 1,
      "instrumentName": "Piano",
      "isPercussion": false,
      "pitch": 48,
      "velocity": 96,
      "startTime": 119.5,
      "duration": 0.4989583333333343,
      "endTime": 119.99895833333333
    },
    {
      "instrumentId": 1,
      "instrumentName": "Piano",
      "isPercussion": false,
      "pitch": 52,
      "velocity": 96,
      "startTime": 119.5,
      "duration": 0.4989583333333343,
      "endTime": 119.99895833333333
    },
    {
      "instrumentId": 1,
      "instrumentName": "Piano",
      "isPercussion": false,
      "pitch": 38,
      "velocity": 80,
      "startTime": 120.0,
      "duration": 0.24895833333333428,
      "endTime": 120.24895833333333
    },
    {
      "instrumentId": 1,
      "instrumentName": "Piano",
      "isPercussion": false,
      "pitch": 45,
      "velocity": 80,
      "startTime": 120.25,
      "duration": 0.24895833333333428,
      "endTime": 120.49895833333333
    },
    {
      "instrumentId": 1,
      "instrumentName": "Piano",
      "isPercussion": false,
      "pitch": 50,
      "velocity": 80,
      "startTime": 120.5,
      "duration": 0.4989583333333343,
      "endTime": 120.99895833333333
    },
    {
      "instrumentId": 1,
      "instrumentName": "Piano",
      "isPercussion": false,
      "pitch": 53,
      "velocity": 80,
      "startTime": 120.5,
      "duration": 0.4989583333333343,
      "endTime": 120.99895833333333
    },
    {
      "instrumentId": 0,
      "instrumentName": "Piano",
      "isPercussion": false,
      "pitch": 69,
      "velocity": 80,
      "startTime": 120.75,
      "duration": 0.24895833333333428,
      "endTime": 120.99895833333333
    },
    {
      "instrumentId": 0,
      "instrumentName": "Piano",
      "isPercussion": false,
      "pitch": 72,
      "velocity": 80,
      "startTime": 120.75,
      "duration": 0.24895833333333428,
      "endTime": 120.99895833333333
    },
    {
      "instrumentId": 0,
      "instrumentName": "Piano",
      "isPercussion": false,
      "pitch": 77,
      "velocity": 80,
      "startTime": 120.75,
      "duration": 0.24895833333333428,
      "endTime": 120.99895833333333
    },
    {
      "instrumentId": 0,
      "instrumentName": "Piano",
      "isPercussion": false,
      "pitch": 72,
      "velocity": 80,
      "startTime": 121.0,
      "duration": 0.24895833333333428,
      "endTime": 121.24895833333333
    },
    {
      "instrumentId": 0,
      "instrumentName": "Piano",
      "isPercussion": false,
      "pitch": 77,
      "velocity": 80,
      "startTime": 121.0,
      "duration": 0.24895833333333428,
      "endTime": 121.24895833333333
    },
    {
      "instrumentId": 1,
      "instrumentName": "Piano",
      "isPercussion": false,
      "pitch": 38,
      "velocity": 80,
      "startTime": 121.0,
      "duration": 0.4989583333333343,
      "endTime": 121.49895833333333
    },
    {
      "instrumentId": 1,
      "instrumentName": "Piano",
      "isPercussion": false,
      "pitch": 50,
      "velocity": 80,
      "startTime": 121.0,
      "duration": 0.4989583333333343,
      "endTime": 121.49895833333333
    },
    {
      "instrumentId": 0,
      "instrumentName": "Piano",
      "isPercussion": false,
      "pitch": 72,
      "velocity": 80,
      "startTime": 121.25,
      "duration": 0.4989583333333343,
      "endTime": 121.74895833333333
    },
    {
      "instrumentId": 0,
      "instrumentName": "Piano",
      "isPercussion": false,
      "pitch": 77,
      "velocity": 80,
      "startTime": 121.25,
      "duration": 0.4989583333333343,
      "endTime": 121.74895833333333
    },
    {
      "instrumentId": 1,
      "instrumentName": "Piano",
      "isPercussion": false,
      "pitch": 39,
      "velocity": 80,
      "startTime": 121.5,
      "duration": 0.4989583333333343,
      "endTime": 121.99895833333333
    },
    {
      "instrumentId": 1,
      "instrumentName": "Piano",
      "isPercussion": false,
      "pitch": 51,
      "velocity": 80,
      "startTime": 121.5,
      "duration": 0.4989583333333343,
      "endTime": 121.99895833333333
    },
    {
      "instrumentId": 0,
      "instrumentName": "Piano",
      "isPercussion": false,
      "pitch": 71,
      "velocity": 80,
      "startTime": 121.75,
      "duration": 0.7489583333333343,
      "endTime": 122.49895833333333
    },
    {
      "instrumentId": 0,
      "instrumentName": "Piano",
      "isPercussion": false,
      "pitch": 74,
      "velocity": 80,
      "startTime": 121.75,
      "duration": 0.7489583333333343,
      "endTime": 122.49895833333333
    },
    {
      "instrumentId": 0,
      "instrumentName": "Piano",
      "isPercussion": false,
      "pitch": 80,
      "velocity": 80,
      "startTime": 121.75,
      "duration": 0.7489583333333343,
      "endTime": 122.49895833333333
    },
    {
      "instrumentId": 1,
      "instrumentName": "Piano",
      "isPercussion": false,
      "pitch": 40,
      "velocity": 80,
      "startTime": 122.0,
      "duration": 0.4989583333333343,
      "endTime": 122.49895833333333
    },
    {
      "instrumentId": 1,
      "instrumentName": "Piano",
      "isPercussion": false,
      "pitch": 52,
      "velocity": 80,
      "startTime": 122.0,
      "duration": 0.4989583333333343,
      "endTime": 122.49895833333333
    },
    {
      "instrumentId": 0,
      "instrumentName": "Piano",
      "isPercussion": false,
      "pitch": 71,
      "velocity": 80,
      "startTime": 122.5,
      "duration": 0.24895833333333428,
      "endTime": 122.74895833333333
    },
    {
      "instrumentId": 0,
      "instrumentName": "Piano",
      "isPercussion": false,
      "pitch": 76,
      "velocity": 80,
      "startTime": 122.5,
      "duration": 0.24895833333333428,
      "endTime": 122.74895833333333
    },
    {
      "instrumentId": 1,
      "instrumentName": "Piano",
      "isPercussion": false,
      "pitch": 47,
      "velocity": 80,
      "startTime": 122.5,
      "duration": 0.24895833333333428,
      "endTime": 122.74895833333333
    },
    {
      "instrumentId": 0,
      "instrumentName": "Piano",
      "isPercussion": false,
      "pitch": 71,
      "velocity": 80,
      "startTime": 122.75,
      "duration": 0.7489583333333343,
      "endTime": 123.49895833333333
    },
    {
      "instrumentId": 0,
      "instrumentName": "Piano",
      "isPercussion": false,
      "pitch": 74,
      "velocity": 80,
      "startTime": 122.75,
      "duration": 0.7489583333333343,
      "endTime": 123.49895833333333
    },
    {
      "instrumentId": 1,
      "instrumentName": "Piano",
      "isPercussion": false,
      "pitch": 52,
      "velocity": 80,
      "startTime": 122.75,
      "duration": 0.24895833333333428,
      "endTime": 122.99895833333333
    },
    {
      "instrumentId": 1,
      "instrumentName": "Piano",
      "isPercussion": false,
      "pitch": 52,
      "velocity": 80,
      "startTime": 123.0,
      "duration": 0.4989583333333343,
      "endTime": 123.49895833333333
    },
    {
      "instrumentId": 1,
      "instrumentName": "Piano",
      "isPercussion": false,
      "pitch": 56,
      "velocity": 80,
      "startTime": 123.0,
      "duration": 0.4989583333333343,
      "endTime": 123.49895833333333
    },
    {
      "instrumentId": 0,
      "instrumentName": "Piano",
      "isPercussion": false,
      "pitch": 71,
      "velocity": 80,
      "startTime": 123.5,
      "duration": 0.24895833333333428,
      "endTime": 123.74895833333333
    },
    {
      "instrumentId": 0,
      "instrumentName": "Piano",
      "isPercussion": false,
      "pitch": 76,
      "velocity": 80,
      "startTime": 123.5,
      "duration": 0.24895833333333428,
      "endTime": 123.74895833333333
    },
    {
      "instrumentId": 1,
      "instrumentName": "Piano",
      "isPercussion": false,
      "pitch": 52,
      "velocity": 80,
      "startTime": 123.5,
      "duration": 0.24895833333333428,
      "endTime": 123.74895833333333
    },
    {
      "instrumentId": 0,
      "instrumentName": "Piano",
      "isPercussion": false,
      "pitch": 69,
      "velocity": 80,
      "startTime": 123.75,
      "duration": 0.4989583333333343,
      "endTime": 124.24895833333333
    },
    {
      "instrumentId": 0,
      "instrumentName": "Piano",
      "isPercussion": false,
      "pitch": 72,
      "velocity": 80,
      "startTime": 123.75,
      "duration": 0.4989583333333343,
      "endTime": 124.24895833333333
    },
    {
      "instrumentId": 0,
      "instrumentName": "Piano",
      "isPercussion": false,
      "pitch": 76,
      "velocity": 80,
      "startTime": 123.75,
      "duration": 0.4989583333333343,
      "endTime": 124.24895833333333
    },
    {
      "instrumentId": 1,
      "instrumentName": "Piano",
      "isPercussion": false,
      "pitch": 47,
      "velocity": 80,
      "startTime": 123.75,
      "duration": 0.24895833333333428,
      "endTime": 123.99895833333333
    },
    {
      "instrumentId": 1,
      "instrumentName": "Piano",
      "isPercussion": false,
      "pitch": 45,
      "velocity": 80,
      "startTime": 124.0,
      "duration": 0.24895833333333428,
      "endTime": 124.24895833333333
    },
    {
      "instrumentId": 0,
      "instrumentName": "Piano",
      "isPercussion": false,
      "pitch": 72,
      "velocity": 80,
      "startTime": 124.25,
      "duration": 0.24895833333333428,
      "endTime": 124.49895833333333
    },
    {
      "instrumentId": 1,
      "instrumentName": "Piano",
      "isPercussion": false,
      "pitch": 48,
      "velocity": 80,
      "startTime": 124.25,
      "duration": 0.24895833333333428,
      "endTime": 124.49895833333333
    },
    {
      "instrumentId": 0,
      "instrumentName": "Piano",
      "isPercussion": false,
      "pitch": 72,
      "velocity": 80,
      "startTime": 124.5,
      "duration": 0.4989583333333343,
      "endTime": 124.99895833333333
    },
    {
      "instrumentId": 1,
      "instrumentName": "Piano",
      "isPercussion": false,
      "pitch": 52,
      "velocity": 80,
      "startTime": 124.5,
      "duration": 0.24895833333333428,
      "endTime": 124.74895833333333
    },
    {
      "instrumentId": 1,
      "instrumentName": "Piano",
      "isPercussion": false,
      "pitch": 57,
      "velocity": 80,
      "startTime": 124.5,
      "duration": 0.24895833333333428,
      "endTime": 124.74895833333333
    },
    {
      "instrumentId": 1,
      "instrumentName": "Piano",
      "isPercussion": false,
      "pitch": 45,
      "velocity": 80,
      "startTime": 124.75,
      "duration": 0.24895833333333428,
      "endTime": 124.99895833333333
    },
    {
      "instrumentId": 0,
      "instrumentName": "Piano",
      "isPercussion": false,
      "pitch": 71,
      "velocity": 80,
      "startTime": 125.0,
      "duration": 0.24895833333333428,
      "endTime": 125.24895833333333
    },
    {
      "instrumentId": 0,
      "instrumentName": "Piano",
      "isPercussion": false,
      "pitch": 76,
      "velocity": 80,
      "startTime": 125.0,
      "duration": 0.24895833333333428,
      "endTime": 125.24895833333333
    },
    {
      "instrumentId": 1,
      "instrumentName": "Piano",
      "isPercussion": false,
      "pitch": 43,
      "velocity": 80,
      "startTime": 125.0,
      "duration": 0.24895833333333428,
      "endTime": 125.24895833333333
    },
    {
      "instrumentId": 0,
      "instrumentName": "Piano",
      "isPercussion": false,
      "pitch": 71,
      "velocity": 80,
      "startTime": 125.25,
      "duration": 0.24895833333333428,
      "endTime": 125.49895833333333
    },
    {
      "instrumentId": 0,
      "instrumentName": "Piano",
      "isPercussion": false,
      "pitch": 74,
      "velocity": 80,
      "startTime": 125.25,
      "duration": 0.24895833333333428,
      "endTime": 125.49895833333333
    },
    {
      "instrumentId": 1,
      "instrumentName": "Piano",
      "isPercussion": false,
      "pitch": 47,
      "velocity": 80,
      "startTime": 125.25,
      "duration": 0.24895833333333428,
      "endTime": 125.49895833333333
    },
    {
      "instrumentId": 0,
      "instrumentName": "Piano",
      "isPercussion": false,
      "pitch": 69,
      "velocity": 80,
      "startTime": 125.5,
      "duration": 0.24895833333333428,
      "endTime": 125.74895833333333
    },
    {
      "instrumentId": 0,
      "instrumentName": "Piano",
      "isPercussion": false,
      "pitch": 72,
      "velocity": 80,
      "startTime": 125.5,
      "duration": 0.24895833333333428,
      "endTime": 125.74895833333333
    },
    {
      "instrumentId": 1,
      "instrumentName": "Piano",
      "isPercussion": false,
      "pitch": 50,
      "velocity": 80,
      "startTime": 125.5,
      "duration": 0.24895833333333428,
      "endTime": 125.74895833333333
    },
    {
      "instrumentId": 1,
      "instrumentName": "Piano",
      "isPercussion": false,
      "pitch": 55,
      "velocity": 80,
      "startTime": 125.5,
      "duration": 0.24895833333333428,
      "endTime": 125.74895833333333
    },
    {
      "instrumentId": 0,
      "instrumentName": "Piano",
      "isPercussion": false,
      "pitch": 71,
      "velocity": 80,
      "startTime": 125.75,
      "duration": 0.24895833333333428,
      "endTime": 125.99895833333333
    },
    {
      "instrumentId": 0,
      "instrumentName": "Piano",
      "isPercussion": false,
      "pitch": 74,
      "velocity": 80,
      "startTime": 125.75,
      "duration": 0.24895833333333428,
      "endTime": 125.99895833333333
    },
    {
      "instrumentId": 1,
      "instrumentName": "Piano",
      "isPercussion": false,
      "pitch": 43,
      "velocity": 80,
      "startTime": 125.75,
      "duration": 0.24895833333333428,
      "endTime": 125.99895833333333
    },
    {
      "instrumentId": 0,
      "instrumentName": "Piano",
      "isPercussion": false,
      "pitch": 72,
      "velocity": 80,
      "startTime": 126.0,
      "duration": 0.24895833333333428,
      "endTime": 126.24895833333333
    },
    {
      "instrumentId": 0,
      "instrumentName": "Piano",
      "isPercussion": false,
      "pitch": 76,
      "velocity": 80,
      "startTime": 126.0,
      "duration": 0.24895833333333428,
      "endTime": 126.24895833333333
    },
    {
      "instrumentId": 1,
      "instrumentName": "Piano",
      "isPercussion": false,
      "pitch": 41,
      "velocity": 80,
      "startTime": 126.0,
      "duration": 0.24895833333333428,
      "endTime": 126.24895833333333
    },
    {
      "instrumentId": 0,
      "instrumentName": "Piano",
      "isPercussion": false,
      "pitch": 71,
      "velocity": 80,
      "startTime": 126.25,
      "duration": 0.24895833333333428,
      "endTime": 126.49895833333333
    },
    {
      "instrumentId": 0,
      "instrumentName": "Piano",
      "isPercussion": false,
      "pitch": 74,
      "velocity": 80,
      "startTime": 126.25,
      "duration": 0.24895833333333428,
      "endTime": 126.49895833333333
    },
    {
      "instrumentId": 1,
      "instrumentName": "Piano",
      "isPercussion": false,
      "pitch": 45,
      "velocity": 80,
      "startTime": 126.25,
      "duration": 0.24895833333333428,
      "endTime": 126.49895833333333
    },
    {
      "instrumentId": 0,
      "instrumentName": "Piano",
      "isPercussion": false,
      "pitch": 69,
      "velocity": 80,
      "startTime": 126.5,
      "duration": 0.24895833333333428,
      "endTime": 126.74895833333333
    },
    {
      "instrumentId": 0,
      "instrumentName": "Piano",
      "isPercussion": false,
      "pitch": 72,
      "velocity": 80,
      "startTime": 126.5,
      "duration": 0.24895833333333428,
      "endTime": 126.74895833333333
    },
    {
      "instrumentId": 1,
      "instrumentName": "Piano",
      "isPercussion": false,
      "pitch": 48,
      "velocity": 80,
      "startTime": 126.5,
      "duration": 0.24895833333333428,
      "endTime": 126.74895833333333
    },
    {
      "instrumentId": 1,
      "instrumentName": "Piano",
      "isPercussion": false,
      "pitch": 53,
      "velocity": 80,
      "startTime": 126.5,
      "duration": 0.24895833333333428,
      "endTime": 126.74895833333333
    },
    {
      "instrumentId": 0,
      "instrumentName": "Piano",
      "isPercussion": false,
      "pitch": 71,
      "velocity": 80,
      "startTime": 126.75,
      "duration": 0.24895833333333428,
      "endTime": 126.99895833333333
    },
    {
      "instrumentId": 0,
      "instrumentName": "Piano",
      "isPercussion": false,
      "pitch": 74,
      "velocity": 80,
      "startTime": 126.75,
      "duration": 0.24895833333333428,
      "endTime": 126.99895833333333
    },
    {
      "instrumentId": 1,
      "instrumentName": "Piano",
      "isPercussion": false,
      "pitch": 41,
      "velocity": 80,
      "startTime": 126.75,
      "duration": 0.24895833333333428,
      "endTime": 126.99895833333333
    },
    {
      "instrumentId": 0,
      "instrumentName": "Piano",
      "isPercussion": false,
      "pitch": 67,
      "velocity": 80,
      "startTime": 127.0,
      "duration": 0.3739583333333343,
      "endTime": 127.37395833333333
    },
    {
      "instrumentId": 0,
      "instrumentName": "Piano",
      "isPercussion": false,
      "pitch": 72,
      "velocity": 80,
      "startTime": 127.0,
      "duration": 0.3739583333333343,
      "endTime": 127.37395833333333
    },
    {
      "instrumentId": 0,
      "instrumentName": "Piano",
      "isPercussion": false,
      "pitch": 76,
      "velocity": 80,
      "startTime": 127.0,
      "duration": 0.3739583333333343,
      "endTime": 127.37395833333333
    },
    {
      "instrumentId": 1,
      "instrumentName": "Piano",
      "isPercussion": false,
      "pitch": 40,
      "velocity": 80,
      "startTime": 127.0,
      "duration": 0.24895833333333428,
      "endTime": 127.24895833333333
    },
    {
      "instrumentId": 1,
      "instrumentName": "Piano",
      "isPercussion": false,
      "pitch": 43,
      "velocity": 80,
      "startTime": 127.25,
      "duration": 0.24895833333333428,
      "endTime": 127.49895833333333
    },
    {
      "instrumentId": 0,
      "instrumentName": "Piano",
      "isPercussion": false,
      "pitch": 67,
      "velocity": 80,
      "startTime": 127.375,
      "duration": 0.3739583333333343,
      "endTime": 127.74895833333333
    },
    {
      "instrumentId": 0,
      "instrumentName": "Piano",
      "isPercussion": false,
      "pitch": 72,
      "velocity": 80,
      "startTime": 127.375,
      "duration": 0.3739583333333343,
      "endTime": 127.74895833333333
    },
    {
      "instrumentId": 1,
      "instrumentName": "Piano",
      "isPercussion": false,
      "pitch": 48,
      "velocity": 80,
      "startTime": 127.5,
      "duration": 0.24895833333333428,
      "endTime": 127.74895833333333
    },
    {
      "instrumentId": 0,
      "instrumentName": "Piano",
      "isPercussion": false,
      "pitch": 69,
      "velocity": 80,
      "startTime": 127.75,
      "duration": 0.24895833333333428,
      "endTime": 127.99895833333333
    },
    {
      "instrumentId": 1,
      "instrumentName": "Piano",
      "isPercussion": false,
      "pitch": 52,
      "velocity": 80,
      "startTime": 127.75,
      "duration": 0.24895833333333428,
      "endTime": 127.99895833333333
    },
    {
      "instrumentId": 0,
      "instrumentName": "Piano",
      "isPercussion": false,
      "pitch": 69,
      "velocity": 80,
      "startTime": 128.0,
      "duration": 0.49895833333332007,
      "endTime": 128.49895833333332
    },
    {
      "instrumentId": 0,
      "instrumentName": "Piano",
      "isPercussion": false,
      "pitch": 74,
      "velocity": 80,
      "startTime": 128.0,
      "duration": 0.49895833333332007,
      "endTime": 128.49895833333332
    },
    {
      "instrumentId": 1,
      "instrumentName": "Piano",
      "isPercussion": false,
      "pitch": 38,
      "velocity": 80,
      "startTime": 128.0,
      "duration": 0.24895833333332007,
      "endTime": 128.24895833333332
    },
    {
      "instrumentId": 1,
      "instrumentName": "Piano",
      "isPercussion": false,
      "pitch": 45,
      "velocity": 80,
      "startTime": 128.25,
      "duration": 0.24895833333332007,
      "endTime": 128.49895833333332
    },
    {
      "instrumentId": 0,
      "instrumentName": "Piano",
      "isPercussion": false,
      "pitch": 65,
      "velocity": 80,
      "startTime": 128.5,
      "duration": 0.24895833333332007,
      "endTime": 128.74895833333332
    },
    {
      "instrumentId": 0,
      "instrumentName": "Piano",
      "isPercussion": false,
      "pitch": 72,
      "velocity": 80,
      "startTime": 128.5,
      "duration": 0.24895833333332007,
      "endTime": 128.74895833333332
    },
    {
      "instrumentId": 1,
      "instrumentName": "Piano",
      "isPercussion": false,
      "pitch": 50,
      "velocity": 80,
      "startTime": 128.5,
      "duration": 0.24895833333332007,
      "endTime": 128.74895833333332
    },
    {
      "instrumentId": 0,
      "instrumentName": "Piano",
      "isPercussion": false,
      "pitch": 69,
      "velocity": 80,
      "startTime": 128.75,
      "duration": 0.49895833333332007,
      "endTime": 129.24895833333332
    },
    {
      "instrumentId": 0,
      "instrumentName": "Piano",
      "isPercussion": false,
      "pitch": 74,
      "velocity": 80,
      "startTime": 128.75,
      "duration": 0.49895833333332007,
      "endTime": 129.24895833333332
    },
    {
      "instrumentId": 1,
      "instrumentName": "Piano",
      "isPercussion": false,
      "pitch": 53,
      "velocity": 80,
      "startTime": 128.75,
      "duration": 0.24895833333332007,
      "endTime": 128.99895833333332
    },
    {
      "instrumentId": 1,
      "instrumentName": "Piano",
      "isPercussion": false,
      "pitch": 57,
      "velocity": 80,
      "startTime": 129.0,
      "duration": 0.49895833333332007,
      "endTime": 129.49895833333332
    },
    {
      "instrumentId": 0,
      "instrumentName": "Piano",
      "isPercussion": false,
      "pitch": 65,
      "velocity": 80,
      "startTime": 129.25,
      "duration": 0.24895833333332007,
      "endTime": 129.49895833333332
    },
    {
      "instrumentId": 0,
      "instrumentName": "Piano",
      "isPercussion": false,
      "pitch": 69,
      "velocity": 80,
      "startTime": 129.25,
      "duration": 0.24895833333332007,
      "endTime": 129.49895833333332
    },
    {
      "instrumentId": 0,
      "instrumentName": "Piano",
      "isPercussion": false,
      "pitch": 65,
      "velocity": 80,
      "startTime": 129.5,
      "duration": 0.24895833333332007,
      "endTime": 129.74895833333332
    },
    {
      "instrumentId": 0,
      "instrumentName": "Piano",
      "isPercussion": false,
      "pitch": 69,
      "velocity": 80,
      "startTime": 129.5,
      "duration": 0.24895833333332007,
      "endTime": 129.74895833333332
    },
    {
      "instrumentId": 0,
      "instrumentName": "Piano",
      "isPercussion": false,
      "pitch": 76,
      "velocity": 80,
      "startTime": 129.5,
      "duration": 0.24895833333332007,
      "endTime": 129.74895833333332
    },
    {
      "instrumentId": 1,
      "instrumentName": "Piano",
      "isPercussion": false,
      "pitch": 50,
      "velocity": 80,
      "startTime": 129.5,
      "duration": 0.24895833333332007,
      "endTime": 129.74895833333332
    },
    {
      "instrumentId": 0,
      "instrumentName": "Piano",
      "isPercussion": false,
      "pitch": 76,
      "velocity": 80,
      "startTime": 129.75,
      "duration": 0.24895833333332007,
      "endTime": 129.99895833333332
    },
    {
      "instrumentId": 1,
      "instrumentName": "Piano",
      "isPercussion": false,
      "pitch": 53,
      "velocity": 80,
      "startTime": 129.75,
      "duration": 0.24895833333332007,
      "endTime": 129.99895833333332
    },
    {
      "instrumentId": 0,
      "instrumentName": "Piano",
      "isPercussion": false,
      "pitch": 64,
      "velocity": 80,
      "startTime": 130.0,
      "duration": 0.24895833333332007,
      "endTime": 130.24895833333332
    },
    {
      "instrumentId": 0,
      "instrumentName": "Piano",
      "isPercussion": false,
      "pitch": 68,
      "velocity": 80,
      "startTime": 130.0,
      "duration": 0.24895833333332007,
      "endTime": 130.24895833333332
    },
    {
      "instrumentId": 0,
      "instrumentName": "Piano",
      "isPercussion": false,
      "pitch": 74,
      "velocity": 80,
      "startTime": 130.0,
      "duration": 0.24895833333332007,
      "endTime": 130.24895833333332
    },
    {
      "instrumentId": 1,
      "instrumentName": "Piano",
      "isPercussion": false,
      "pitch": 40,
      "velocity": 80,
      "startTime": 130.0,
      "duration": 0.49895833333332007,
      "endTime": 130.49895833333332
    },
    {
      "instrumentId": 1,
      "instrumentName": "Piano",
      "isPercussion": false,
      "pitch": 50,
      "velocity": 80,
      "startTime": 130.0,
      "duration": 0.49895833333332007,
      "endTime": 130.49895833333332
    },
    {
      "instrumentId": 0,
      "instrumentName": "Piano",
      "isPercussion": false,
      "pitch": 74,
      "velocity": 80,
      "startTime": 130.25,
      "duration": 0.24895833333332007,
      "endTime": 130.49895833333332
    },
    {
      "instrumentId": 0,
      "instrumentName": "Piano",
      "isPercussion": false,
      "pitch": 64,
      "velocity": 80,
      "startTime": 130.5,
      "duration": 0.24895833333332007,
      "endTime": 130.74895833333332
    },
    {
      "instrumentId": 0,
      "instrumentName": "Piano",
      "isPercussion": false,
      "pitch": 72,
      "velocity": 80,
      "startTime": 130.5,
      "duration": 0.24895833333332007,
      "endTime": 130.74895833333332
    },
    {
      "instrumentId": 1,
      "instrumentName": "Piano",
      "isPercussion": false,
      "pitch": 47,
      "velocity": 80,
      "startTime": 130.5,
      "duration": 0.24895833333332007,
      "endTime": 130.74895833333332
    },
    {
      "instrumentId": 0,
      "instrumentName": "Piano",
      "isPercussion": false,
      "pitch": 64,
      "velocity": 80,
      "startTime": 130.75,
      "duration": 0.24895833333332007,
      "endTime": 130.99895833333332
    },
    {
      "instrumentId": 0,
      "instrumentName": "Piano",
      "isPercussion": false,
      "pitch": 72,
      "velocity": 80,
      "startTime": 130.75,
      "duration": 0.24895833333332007,
      "endTime": 130.99895833333332
    },
    {
      "instrumentId": 1,
      "instrumentName": "Piano",
      "isPercussion": false,
      "pitch": 50,
      "velocity": 80,
      "startTime": 130.75,
      "duration": 0.24895833333332007,
      "endTime": 130.99895833333332
    },
    {
      "instrumentId": 1,
      "instrumentName": "Piano",
      "isPercussion": false,
      "pitch": 52,
      "velocity": 80,
      "startTime": 131.0,
      "duration": 0.49895833333332007,
      "endTime": 131.49895833333332
    },
    {
      "instrumentId": 1,
      "instrumentName": "Piano",
      "isPercussion": false,
      "pitch": 56,
      "velocity": 80,
      "startTime": 131.0,
      "duration": 0.49895833333332007,
      "endTime": 131.49895833333332
    },
    {
      "instrumentId": 0,
      "instrumentName": "Piano",
      "isPercussion": false,
      "pitch": 68,
      "velocity": 80,
      "startTime": 131.5,
      "duration": 0.24895833333332007,
      "endTime": 131.74895833333332
    },
    {
      "instrumentId": 0,
      "instrumentName": "Piano",
      "isPercussion": false,
      "pitch": 74,
      "velocity": 80,
      "startTime": 131.5,
      "duration": 0.24895833333332007,
      "endTime": 131.74895833333332
    },
    {
      "instrumentId": 1,
      "instrumentName": "Piano",
      "isPercussion": false,
      "pitch": 47,
      "velocity": 80,
      "startTime": 131.5,
      "duration": 0.49895833333332007,
      "endTime": 131.99895833333332
    },
    {
      "instrumentId": 0,
      "instrumentName": "Piano",
      "isPercussion": false,
      "pitch": 69,
      "velocity": 80,
      "startTime": 131.75,
      "duration": 2.99895833333332,
      "endTime": 134.74895833333332
    },
    {
      "instrumentId": 0,
      "instrumentName": "Piano",
      "isPercussion": false,
      "pitch": 72,
      "velocity": 80,
      "startTime": 131.75,
      "duration": 2.99895833333332,
      "endTime": 134.74895833333332
    },
    {
      "instrumentId": 0,
      "instrumentName": "Piano",
      "isPercussion": false,
      "pitch": 76,
      "velocity": 80,
      "startTime": 131.75,
      "duration": 2.99895833333332,
      "endTime": 134.74895833333332
    },
    {
      "instrumentId": 1,
      "instrumentName": "Piano",
      "isPercussion": false,
      "pitch": 45,
      "velocity": 80,
      "startTime": 132.0,
      "duration": 0.24895833333332007,
      "endTime": 132.24895833333332
    },
    {
      "instrumentId": 1,
      "instrumentName": "Piano",
      "isPercussion": false,
      "pitch": 48,
      "velocity": 80,
      "startTime": 132.25,
      "duration": 0.24895833333332007,
      "endTime": 132.49895833333332
    },
    {
      "instrumentId": 1,
      "instrumentName": "Piano",
      "isPercussion": false,
      "pitch": 52,
      "velocity": 80,
      "startTime": 132.5,
      "duration": 0.24895833333332007,
      "endTime": 132.74895833333332
    },
    {
      "instrumentId": 1,
      "instrumentName": "Piano",
      "isPercussion": false,
      "pitch": 57,
      "velocity": 80,
      "startTime": 132.5,
      "duration": 0.24895833333332007,
      "endTime": 132.74895833333332
    },
    {
      "instrumentId": 1,
      "instrumentName": "Piano",
      "isPercussion": false,
      "pitch": 45,
      "velocity": 80,
      "startTime": 132.75,
      "duration": 0.24895833333332007,
      "endTime": 132.99895833333332
    },
    {
      "instrumentId": 1,
      "instrumentName": "Piano",
      "isPercussion": false,
      "pitch": 43,
      "velocity": 80,
      "startTime": 133.0,
      "duration": 0.24895833333332007,
      "endTime": 133.24895833333332
    },
    {
      "instrumentId": 1,
      "instrumentName": "Piano",
      "isPercussion": false,
      "pitch": 47,
      "velocity": 80,
      "startTime": 133.25,
      "duration": 0.24895833333332007,
      "endTime": 133.49895833333332
    },
    {
      "instrumentId": 1,
      "instrumentName": "Piano",
      "isPercussion": false,
      "pitch": 50,
      "velocity": 80,
      "startTime": 133.5,
      "duration": 0.24895833333332007,
      "endTime": 133.74895833333332
    },
    {
      "instrumentId": 1,
      "instrumentName": "Piano",
      "isPercussion": false,
      "pitch": 55,
      "velocity": 80,
      "startTime": 133.5,
      "duration": 0.24895833333332007,
      "endTime": 133.74895833333332
    },
    {
      "instrumentId": 1,
      "instrumentName": "Piano",
      "isPercussion": false,
      "pitch": 43,
      "velocity": 80,
      "startTime": 133.75,
      "duration": 0.24895833333332007,
      "endTime": 133.99895833333332
    },
    {
      "instrumentId": 1,
      "instrumentName": "Piano",
      "isPercussion": false,
      "pitch": 41,
      "velocity": 80,
      "startTime": 134.0,
      "duration": 0.24895833333332007,
      "endTime": 134.24895833333332
    },
    {
      "instrumentId": 1,
      "instrumentName": "Piano",
      "isPercussion": false,
      "pitch": 45,
      "velocity": 80,
      "startTime": 134.25,
      "duration": 0.24895833333332007,
      "endTime": 134.49895833333332
    },
    {
      "instrumentId": 1,
      "instrumentName": "Piano",
      "isPercussion": false,
      "pitch": 48,
      "velocity": 80,
      "startTime": 134.5,
      "duration": 0.24895833333332007,
      "endTime": 134.74895833333332
    },
    {
      "instrumentId": 1,
      "instrumentName": "Piano",
      "isPercussion": false,
      "pitch": 53,
      "velocity": 80,
      "startTime": 134.5,
      "duration": 0.24895833333332007,
      "endTime": 134.74895833333332
    },
    {
      "instrumentId": 0,
      "instrumentName": "Piano",
      "isPercussion": false,
      "pitch": 65,
      "velocity": 80,
      "startTime": 134.75,
      "duration": 0.24895833333332007,
      "endTime": 134.99895833333332
    },
    {
      "instrumentId": 0,
      "instrumentName": "Piano",
      "isPercussion": false,
      "pitch": 69,
      "velocity": 80,
      "startTime": 134.75,
      "duration": 0.24895833333332007,
      "endTime": 134.99895833333332
    },
    {
      "instrumentId": 0,
      "instrumentName": "Piano",
      "isPercussion": false,
      "pitch": 74,
      "velocity": 80,
      "startTime": 134.75,
      "duration": 0.24895833333332007,
      "endTime": 134.99895833333332
    },
    {
      "instrumentId": 1,
      "instrumentName": "Piano",
      "isPercussion": false,
      "pitch": 41,
      "velocity": 80,
      "startTime": 134.75,
      "duration": 0.24895833333332007,
      "endTime": 134.99895833333332
    },
    {
      "instrumentId": 0,
      "instrumentName": "Piano",
      "isPercussion": false,
      "pitch": 64,
      "velocity": 80,
      "startTime": 135.0,
      "duration": 0.49895833333332007,
      "endTime": 135.49895833333332
    },
    {
      "instrumentId": 0,
      "instrumentName": "Piano",
      "isPercussion": false,
      "pitch": 67,
      "velocity": 80,
      "startTime": 135.0,
      "duration": 0.49895833333332007,
      "endTime": 135.49895833333332
    },
    {
      "instrumentId": 0,
      "instrumentName": "Piano",
      "isPercussion": false,
      "pitch": 72,
      "velocity": 80,
      "startTime": 135.0,
      "duration": 0.49895833333332007,
      "endTime": 135.49895833333332
    },
    {
      "instrumentId": 1,
      "instrumentName": "Piano",
      "isPercussion": false,
      "pitch": 40,
      "velocity": 80,
      "startTime": 135.0,
      "duration": 0.24895833333332007,
      "endTime": 135.24895833333332
    },
    {
      "instrumentId": 1,
      "instrumentName": "Piano",
      "isPercussion": false,
      "pitch": 43,
      "velocity": 80,
      "startTime": 135.25,
      "duration": 0.24895833333332007,
      "endTime": 135.49895833333332
    },
    {
      "instrumentId": 0,
      "instrumentName": "Piano",
      "isPercussion": false,
      "pitch": 69,
      "velocity": 80,
      "startTime": 135.5,
      "duration": 0.49895833333332007,
      "endTime": 135.99895833333332
    },
    {
      "instrumentId": 0,
      "instrumentName": "Piano",
      "isPercussion": false,
      "pitch": 72,
      "velocity": 80,
      "startTime": 135.5,
      "duration": 0.49895833333332007,
      "endTime": 135.99895833333332
    },
    {
      "instrumentId": 0,
      "instrumentName": "Piano",
      "isPercussion": false,
      "pitch": 79,
      "velocity": 80,
      "startTime": 135.5,
      "duration": 0.49895833333332007,
      "endTime": 135.99895833333332
    },
    {
      "instrumentId": 1,
      "instrumentName": "Piano",
      "isPercussion": false,
      "pitch": 48,
      "velocity": 80,
      "startTime": 135.5,
      "duration": 0.24895833333332007,
      "endTime": 135.74895833333332
    },
    {
      "instrumentId": 1,
      "instrumentName": "Piano",
      "isPercussion": false,
      "pitch": 52,
      "velocity": 80,
      "startTime": 135.75,
      "duration": 0.24895833333332007,
      "endTime": 135.99895833333332
    },
    {
      "instrumentId": 0,
      "instrumentName": "Piano",
      "isPercussion": false,
      "pitch": 69,
      "velocity": 80,
      "startTime": 136.0,
      "duration": 1.74895833333332,
      "endTime": 137.74895833333332
    },
    {
      "instrumentId": 0,
      "instrumentName": "Piano",
      "isPercussion": false,
      "pitch": 74,
      "velocity": 80,
      "startTime": 136.0,
      "duration": 1.74895833333332,
      "endTime": 137.74895833333332
    },
    {
      "instrumentId": 0,
      "instrumentName": "Piano",
      "isPercussion": false,
      "pitch": 77,
      "velocity": 80,
      "startTime": 136.0,
      "duration": 1.74895833333332,
      "endTime": 137.74895833333332
    },
    {
      "instrumentId": 1,
      "instrumentName": "Piano",
      "isPercussion": false,
      "pitch": 38,
      "velocity": 80,
      "startTime": 136.0,
      "duration": 0.24895833333332007,
      "endTime": 136.24895833333332
    },
    {
      "instrumentId": 1,
      "instrumentName": "Piano",
      "isPercussion": false,
      "pitch": 45,
      "velocity": 80,
      "startTime": 136.25,
      "duration": 0.24895833333332007,
      "endTime": 136.49895833333332
    },
    {
      "instrumentId": 1,
      "instrumentName": "Piano",
      "isPercussion": false,
      "pitch": 50,
      "velocity": 80,
      "startTime": 136.5,
      "duration": 0.49895833333332007,
      "endTime": 136.99895833333332
    },
    {
      "instrumentId": 1,
      "instrumentName": "Piano",
      "isPercussion": false,
      "pitch": 53,
      "velocity": 80,
      "startTime": 136.5,
      "duration": 0.49895833333332007,
      "endTime": 136.99895833333332
    },
    {
      "instrumentId": 1,
      "instrumentName": "Piano",
      "isPercussion": false,
      "pitch": 53,
      "velocity": 80,
      "startTime": 137.0,
      "duration": 0.24895833333332007,
      "endTime": 137.24895833333332
    },
    {
      "instrumentId": 1,
      "instrumentName": "Piano",
      "isPercussion": false,
      "pitch": 57,
      "velocity": 80,
      "startTime": 137.25,
      "duration": 0.24895833333332007,
      "endTime": 137.49895833333332
    },
    {
      "instrumentId": 1,
      "instrumentName": "Piano",
      "isPercussion": false,
      "pitch": 53,
      "velocity": 80,
      "startTime": 137.5,
      "duration": 0.24895833333332007,
      "endTime": 137.74895833333332
    },
    {
      "instrumentId": 0,
      "instrumentName": "Piano",
      "isPercussion": false,
      "pitch": 69,
      "velocity": 80,
      "startTime": 137.75,
      "duration": 0.9989583333333201,
      "endTime": 138.74895833333332
    },
    {
      "instrumentId": 0,
      "instrumentName": "Piano",
      "isPercussion": false,
      "pitch": 74,
      "velocity": 80,
      "startTime": 137.75,
      "duration": 0.9989583333333201,
      "endTime": 138.74895833333332
    },
    {
      "instrumentId": 0,
      "instrumentName": "Piano",
      "isPercussion": false,
      "pitch": 78,
      "velocity": 80,
      "startTime": 137.75,
      "duration": 0.9989583333333201,
      "endTime": 138.74895833333332
    },
    {
      "instrumentId": 1,
      "instrumentName": "Piano",
      "isPercussion": false,
      "pitch": 50,
      "velocity": 80,
      "startTime": 137.75,
      "duration": 0.24895833333332007,
      "endTime": 137.99895833333332
    },
    {
      "instrumentId": 1,
      "instrumentName": "Piano",
      "isPercussion": false,
      "pitch": 38,
      "velocity": 80,
      "startTime": 138.0,
      "duration": 0.24895833333332007,
      "endTime": 138.24895833333332
    },
    {
      "instrumentId": 1,
      "instrumentName": "Piano",
      "isPercussion": false,
      "pitch": 45,
      "velocity": 80,
      "startTime": 138.25,
      "duration": 0.24895833333332007,
      "endTime": 138.49895833333332
    },
    {
      "instrumentId": 1,
      "instrumentName": "Piano",
      "isPercussion": false,
      "pitch": 50,
      "velocity": 80,
      "startTime": 138.5,
      "duration": 0.49895833333332007,
      "endTime": 138.99895833333332
    },
    {
      "instrumentId": 1,
      "instrumentName": "Piano",
      "isPercussion": false,
      "pitch": 54,
      "velocity": 80,
      "startTime": 138.5,
      "duration": 0.49895833333332007,
      "endTime": 138.99895833333332
    },
    {
      "instrumentId": 0,
      "instrumentName": "Piano",
      "isPercussion": false,
      "pitch": 72,
      "velocity": 80,
      "startTime": 138.75,
      "duration": 0.24895833333332007,
      "endTime": 138.99895833333332
    },
    {
      "instrumentId": 0,
      "instrumentName": "Piano",
      "isPercussion": false,
      "pitch": 72,
      "velocity": 80,
      "startTime": 139.0,
      "duration": 0.49895833333332007,
      "endTime": 139.49895833333332
    },
    {
      "instrumentId": 1,
      "instrumentName": "Piano",
      "isPercussion": false,
      "pitch": 50,
      "velocity": 80,
      "startTime": 139.0,
      "duration": 0.49895833333332007,
      "endTime": 139.49895833333332
    },
    {
      "instrumentId": 1,
      "instrumentName": "Piano",
      "isPercussion": false,
      "pitch": 54,
      "velocity": 80,
      "startTime": 139.0,
      "duration": 0.49895833333332007,
      "endTime": 139.49895833333332
    },
    {
      "instrumentId": 0,
      "instrumentName": "Piano",
      "isPercussion": false,
      "pitch": 74,
      "velocity": 80,
      "startTime": 139.5,
      "duration": 0.24895833333332007,
      "endTime": 139.74895833333332
    },
    {
      "instrumentId": 1,
      "instrumentName": "Piano",
      "isPercussion": false,
      "pitch": 54,
      "velocity": 80,
      "startTime": 139.5,
      "duration": 0.24895833333332007,
      "endTime": 139.74895833333332
    },
    {
      "instrumentId": 0,
      "instrumentName": "Piano",
      "isPercussion": false,
      "pitch": 69,
      "velocity": 80,
      "startTime": 139.75,
      "duration": 1.74895833333332,
      "endTime": 141.49895833333332
    },
    {
      "instrumentId": 0,
      "instrumentName": "Piano",
      "isPercussion": false,
      "pitch": 72,
      "velocity": 80,
      "startTime": 139.75,
      "duration": 1.74895833333332,
      "endTime": 141.49895833333332
    },
    {
      "instrumentId": 0,
      "instrumentName": "Piano",
      "isPercussion": false,
      "pitch": 76,
      "velocity": 80,
      "startTime": 139.75,
      "duration": 1.74895833333332,
      "endTime": 141.49895833333332
    },
    {
      "instrumentId": 1,
      "instrumentName": "Piano",
      "isPercussion": false,
      "pitch": 50,
      "velocity": 80,
      "startTime": 139.75,
      "duration": 0.24895833333332007,
      "endTime": 139.99895833333332
    },
    {
      "instrumentId": 1,
      "instrumentName": "Piano",
      "isPercussion": false,
      "pitch": 45,
      "velocity": 80,
      "startTime": 140.0,
      "duration": 0.24895833333332007,
      "endTime": 140.24895833333332
    },
    {
      "instrumentId": 1,
      "instrumentName": "Piano",
      "isPercussion": false,
      "pitch": 48,
      "velocity": 80,
      "startTime": 140.25,
      "duration": 0.24895833333332007,
      "endTime": 140.49895833333332
    },
    {
      "instrumentId": 1,
      "instrumentName": "Piano",
      "isPercussion": false,
      "pitch": 52,
      "velocity": 80,
      "startTime": 140.5,
      "duration": 0.24895833333332007,
      "endTime": 140.74895833333332
    },
    {
      "instrumentId": 1,
      "instrumentName": "Piano",
      "isPercussion": false,
      "pitch": 57,
      "velocity": 80,
      "startTime": 140.5,
      "duration": 0.24895833333332007,
      "endTime": 140.74895833333332
    },
    {
      "instrumentId": 1,
      "instrumentName": "Piano",
      "isPercussion": false,
      "pitch": 45,
      "velocity": 80,
      "startTime": 140.75,
      "duration": 0.24895833333332007,
      "endTime": 140.99895833333332
    },
    {
      "instrumentId": 1,
      "instrumentName": "Piano",
      "isPercussion": false,
      "pitch": 43,
      "velocity": 80,
      "startTime": 141.0,
      "duration": 0.24895833333332007,
      "endTime": 141.24895833333332
    },
    {
      "instrumentId": 1,
      "instrumentName": "Piano",
      "isPercussion": false,
      "pitch": 47,
      "velocity": 80,
      "startTime": 141.25,
      "duration": 0.24895833333332007,
      "endTime": 141.49895833333332
    },
    {
      "instrumentId": 0,
      "instrumentName": "Piano",
      "isPercussion": false,
      "pitch": 79,
      "velocity": 80,
      "startTime": 141.5,
      "duration": 0.24895833333332007,
      "endTime": 141.74895833333332
    },
    {
      "instrumentId": 1,
      "instrumentName": "Piano",
      "isPercussion": false,
      "pitch": 50,
      "velocity": 80,
      "startTime": 141.5,
      "duration": 0.24895833333332007,
      "endTime": 141.74895833333332
    },
    {
      "instrumentId": 1,
      "instrumentName": "Piano",
      "isPercussion": false,
      "pitch": 55,
      "velocity": 80,
      "startTime": 141.5,
      "duration": 0.24895833333332007,
      "endTime": 141.74895833333332
    },
    {
      "instrumentId": 0,
      "instrumentName": "Piano",
      "isPercussion": false,
      "pitch": 74,
      "velocity": 80,
      "startTime": 141.75,
      "duration": 0.49895833333332007,
      "endTime": 142.24895833333332
    },
    {
      "instrumentId": 1,
      "instrumentName": "Piano",
      "isPercussion": false,
      "pitch": 43,
      "velocity": 80,
      "startTime": 141.75,
      "duration": 0.24895833333332007,
      "endTime": 141.99895833333332
    },
    {
      "instrumentId": 1,
      "instrumentName": "Piano",
      "isPercussion": false,
      "pitch": 41,
      "velocity": 80,
      "startTime": 142.0,
      "duration": 0.24895833333332007,
      "endTime": 142.24895833333332
    },
    {
      "instrumentId": 0,
      "instrumentName": "Piano",
      "isPercussion": false,
      "pitch": 72,
      "velocity": 80,
      "startTime": 142.25,
      "duration": 1.74895833333332,
      "endTime": 143.99895833333332
    },
    {
      "instrumentId": 1,
      "instrumentName": "Piano",
      "isPercussion": false,
      "pitch": 45,
      "velocity": 80,
      "startTime": 142.25,
      "duration": 0.24895833333332007,
      "endTime": 142.49895833333332
    },
    {
      "instrumentId": 1,
      "instrumentName": "Piano",
      "isPercussion": false,
      "pitch": 48,
      "velocity": 80,
      "startTime": 142.5,
      "duration": 0.24895833333332007,
      "endTime": 142.74895833333332
    },
    {
      "instrumentId": 1,
      "instrumentName": "Piano",
      "isPercussion": false,
      "pitch": 53,
      "velocity": 80,
      "startTime": 142.5,
      "duration": 0.24895833333332007,
      "endTime": 142.74895833333332
    },
    {
      "instrumentId": 1,
      "instrumentName": "Piano",
      "isPercussion": false,
      "pitch": 41,
      "velocity": 80,
      "startTime": 142.75,
      "duration": 0.24895833333332007,
      "endTime": 142.99895833333332
    },
    {
      "instrumentId": 1,
      "instrumentName": "Piano",
      "isPercussion": false,
      "pitch": 40,
      "velocity": 80,
      "startTime": 143.0,
      "duration": 0.24895833333332007,
      "endTime": 143.24895833333332
    },
    {
      "instrumentId": 1,
      "instrumentName": "Piano",
      "isPercussion": false,
      "pitch": 43,
      "velocity": 80,
      "startTime": 143.25,
      "duration": 0.24895833333332007,
      "endTime": 143.49895833333332
    },
    {
      "instrumentId": 1,
      "instrumentName": "Piano",
      "isPercussion": false,
      "pitch": 48,
      "velocity": 80,
      "startTime": 143.5,
      "duration": 0.24895833333332007,
      "endTime": 143.74895833333332
    },
    {
      "instrumentId": 1,
      "instrumentName": "Piano",
      "isPercussion": false,
      "pitch": 52,
      "velocity": 80,
      "startTime": 143.75,
      "duration": 0.24895833333332007,
      "endTime": 143.99895833333332
    },
    {
      "instrumentId": 0,
      "instrumentName": "Piano",
      "isPercussion": false,
      "pitch": 65,
      "velocity": 80,
      "startTime": 144.0,
      "duration": 1.99895833333332,
      "endTime": 145.99895833333332
    },
    {
      "instrumentId": 0,
      "instrumentName": "Piano",
      "isPercussion": false,
      "pitch": 69,
      "velocity": 80,
      "startTime": 144.0,
      "duration": 1.99895833333332,
      "endTime": 145.99895833333332
    },
    {
      "instrumentId": 1,
      "instrumentName": "Piano",
      "isPercussion": false,
      "pitch": 38,
      "velocity": 80,
      "startTime": 144.0,
      "duration": 0.24895833333332007,
      "endTime": 144.24895833333332
    },
    {
      "instrumentId": 1,
      "instrumentName": "Piano",
      "isPercussion": false,
      "pitch": 45,
      "velocity": 80,
      "startTime": 144.25,
      "duration": 0.24895833333332007,
      "endTime": 144.49895833333332
    },
    {
      "instrumentId": 1,
      "instrumentName": "Piano",
      "isPercussion": false,
      "pitch": 50,
      "velocity": 80,
      "startTime": 144.5,
      "duration": 0.24895833333332007,
      "endTime": 144.74895833333332
    },
    {
      "instrumentId": 1,
      "instrumentName": "Piano",
      "isPercussion": false,
      "pitch": 45,
      "velocity": 80,
      "startTime": 144.75,
      "duration": 0.24895833333332007,
      "endTime": 144.99895833333332
    },
    {
      "instrumentId": 1,
      "instrumentName": "Piano",
      "isPercussion": false,
      "pitch": 53,
      "velocity": 80,
      "startTime": 145.0,
      "duration": 0.24895833333332007,
      "endTime": 145.24895833333332
    },
    {
      "instrumentId": 1,
      "instrumentName": "Piano",
      "isPercussion": false,
      "pitch": 45,
      "velocity": 80,
      "startTime": 145.25,
      "duration": 0.24895833333332007,
      "endTime": 145.49895833333332
    },
    {
      "instrumentId": 1,
      "instrumentName": "Piano",
      "isPercussion": false,
      "pitch": 50,
      "velocity": 80,
      "startTime": 145.5,
      "duration": 0.24895833333332007,
      "endTime": 145.74895833333332
    },
    {
      "instrumentId": 1,
      "instrumentName": "Piano",
      "isPercussion": false,
      "pitch": 45,
      "velocity": 80,
      "startTime": 145.75,
      "duration": 0.24895833333332007,
      "endTime": 145.99895833333332
    },
    {
      "instrumentId": 1,
      "instrumentName": "Piano",
      "isPercussion": false,
      "pitch": 38,
      "velocity": 80,
      "startTime": 146.0,
      "duration": 0.24895833333332007,
      "endTime": 146.24895833333332
    },
    {
      "instrumentId": 1,
      "instrumentName": "Piano",
      "isPercussion": false,
      "pitch": 45,
      "velocity": 82,
      "startTime": 146.25,
      "duration": 0.24895833333332007,
      "endTime": 146.49895833333332
    },
    {
      "instrumentId": 1,
      "instrumentName": "Piano",
      "isPercussion": false,
      "pitch": 38,
      "velocity": 84,
      "startTime": 146.5,
      "duration": 0.24895833333332007,
      "endTime": 146.74895833333332
    },
    {
      "instrumentId": 1,
      "instrumentName": "Piano",
      "isPercussion": false,
      "pitch": 50,
      "velocity": 84,
      "startTime": 146.5,
      "duration": 0.24895833333332007,
      "endTime": 146.74895833333332
    },
    {
      "instrumentId": 1,
      "instrumentName": "Piano",
      "isPercussion": false,
      "pitch": 45,
      "velocity": 86,
      "startTime": 146.75,
      "duration": 0.24895833333332007,
      "endTime": 146.99895833333332
    },
    {
      "instrumentId": 1,
      "instrumentName": "Piano",
      "isPercussion": false,
      "pitch": 38,
      "velocity": 88,
      "startTime": 147.0,
      "duration": 0.24895833333332007,
      "endTime": 147.24895833333332
    },
    {
      "instrumentId": 1,
      "instrumentName": "Piano",
      "isPercussion": false,
      "pitch": 50,
      "velocity": 88,
      "startTime": 147.0,
      "duration": 0.24895833333332007,
      "endTime": 147.24895833333332
    },
    {
      "instrumentId": 1,
      "instrumentName": "Piano",
      "isPercussion": false,
      "pitch": 45,
      "velocity": 90,
      "startTime": 147.25,
      "duration": 0.24895833333332007,
      "endTime": 147.49895833333332
    },
    {
      "instrumentId": 1,
      "instrumentName": "Piano",
      "isPercussion": false,
      "pitch": 38,
      "velocity": 92,
      "startTime": 147.5,
      "duration": 0.24895833333332007,
      "endTime": 147.74895833333332
    },
    {
      "instrumentId": 1,
      "instrumentName": "Piano",
      "isPercussion": false,
      "pitch": 50,
      "velocity": 92,
      "startTime": 147.5,
      "duration": 0.24895833333332007,
      "endTime": 147.74895833333332
    },
    {
      "instrumentId": 1,
      "instrumentName": "Piano",
      "isPercussion": false,
      "pitch": 45,
      "velocity": 94,
      "startTime": 147.75,
      "duration": 0.24895833333332007,
      "endTime": 147.99895833333332
    },
    {
      "instrumentId": 1,
      "instrumentName": "Piano",
      "isPercussion": false,
      "pitch": 45,
      "velocity": 96,
      "startTime": 148.0,
      "duration": 0.49895833333332007,
      "endTime": 148.49895833333332
    },
    {
      "instrumentId": 0,
      "instrumentName": "Piano",
      "isPercussion": false,
      "pitch": 72,
      "velocity": 96,
      "startTime": 148.5,
      "duration": 0.24895833333332007,
      "endTime": 148.74895833333332
    },
    {
      "instrumentId": 0,
      "instrumentName": "Piano",
      "isPercussion": false,
      "pitch": 76,
      "velocity": 96,
      "startTime": 148.5,
      "duration": 0.24895833333332007,
      "endTime": 148.74895833333332
    },
    {
      "instrumentId": 1,
      "instrumentName": "Piano",
      "isPercussion": false,
      "pitch": 52,
      "velocity": 96,
      "startTime": 148.5,
      "duration": 0.24895833333332007,
      "endTime": 148.74895833333332
    },
    {
      "instrumentId": 1,
      "instrumentName": "Piano",
      "isPercussion": false,
      "pitch": 57,
      "velocity": 96,
      "startTime": 148.5,
      "duration": 0.24895833333332007,
      "endTime": 148.74895833333332
    },
    {
      "instrumentId": 0,
      "instrumentName": "Piano",
      "isPercussion": false,
      "pitch": 72,
      "velocity": 96,
      "startTime": 148.75,
      "duration": 0.24895833333332007,
      "endTime": 148.99895833333332
    },
    {
      "instrumentId": 0,
      "instrumentName": "Piano",
      "isPercussion": false,
      "pitch": 76,
      "velocity": 96,
      "startTime": 148.75,
      "duration": 0.24895833333332007,
      "endTime": 148.99895833333332
    },
    {
      "instrumentId": 1,
      "instrumentName": "Piano",
      "isPercussion": false,
      "pitch": 45,
      "velocity": 96,
      "startTime": 148.75,
      "duration": 0.24895833333332007,
      "endTime": 148.99895833333332
    },
    {
      "instrumentId": 0,
      "instrumentName": "Piano",
      "isPercussion": false,
      "pitch": 71,
      "velocity": 96,
      "startTime": 149.0,
      "duration": 0.24895833333332007,
      "endTime": 149.24895833333332
    },
    {
      "instrumentId": 0,
      "instrumentName": "Piano",
      "isPercussion": false,
      "pitch": 74,
      "velocity": 96,
      "startTime": 149.0,
      "duration": 0.24895833333332007,
      "endTime": 149.24895833333332
    },
    {
      "instrumentId": 1,
      "instrumentName": "Piano",
      "isPercussion": false,
      "pitch": 43,
      "velocity": 96,
      "startTime": 149.0,
      "duration": 0.24895833333332007,
      "endTime": 149.24895833333332
    },
    {
      "instrumentId": 0,
      "instrumentName": "Piano",
      "isPercussion": false,
      "pitch": 71,
      "velocity": 96,
      "startTime": 149.25,
      "duration": 0.24895833333332007,
      "endTime": 149.49895833333332
    },
    {
      "instrumentId": 0,
      "instrumentName": "Piano",
      "isPercussion": false,
      "pitch": 74,
      "velocity": 96,
      "startTime": 149.25,
      "duration": 0.24895833333332007,
      "endTime": 149.49895833333332
    },
    {
      "instrumentId": 1,
      "instrumentName": "Piano",
      "isPercussion": false,
      "pitch": 50,
      "velocity": 96,
      "startTime": 149.25,
      "duration": 0.24895833333332007,
      "endTime": 149.49895833333332
    },
    {
      "instrumentId": 1,
      "instrumentName": "Piano",
      "isPercussion": false,
      "pitch": 55,
      "velocity": 96,
      "startTime": 149.5,
      "duration": 0.24895833333332007,
      "endTime": 149.74895833333332
    },
    {
      "instrumentId": 0,
      "instrumentName": "Piano",
      "isPercussion": false,
      "pitch": 74,
      "velocity": 96,
      "startTime": 149.75,
      "duration": 0.49895833333332007,
      "endTime": 150.24895833333332
    },
    {
      "instrumentId": 0,
      "instrumentName": "Piano",
      "isPercussion": false,
      "pitch": 77,
      "velocity": 96,
      "startTime": 149.75,
      "duration": 0.49895833333332007,
      "endTime": 150.24895833333332
    },
    {
      "instrumentId": 1,
      "instrumentName": "Piano",
      "isPercussion": false,
      "pitch": 43,
      "velocity": 96,
      "startTime": 149.75,
      "duration": 0.24895833333332007,
      "endTime": 149.99895833333332
    },
    {
      "instrumentId": 1,
      "instrumentName": "Piano",
      "isPercussion": false,
      "pitch": 41,
      "velocity": 96,
      "startTime": 150.0,
      "duration": 0.24895833333332007,
      "endTime": 150.24895833333332
    },
    {
      "instrumentId": 0,
      "instrumentName": "Piano",
      "isPercussion": false,
      "pitch": 74,
      "velocity": 96,
      "startTime": 150.25,
      "duration": 0.24895833333332007,
      "endTime": 150.49895833333332
    },
    {
      "instrumentId": 0,
      "instrumentName": "Piano",
      "isPercussion": false,
      "pitch": 77,
      "velocity": 96,
      "startTime": 150.25,
      "duration": 0.24895833333332007,
      "endTime": 150.49895833333332
    },
    {
      "instrumentId": 1,
      "instrumentName": "Piano",
      "isPercussion": false,
      "pitch": 48,
      "velocity": 96,
      "startTime": 150.25,
      "duration": 0.24895833333332007,
      "endTime": 150.49895833333332
    },
    {
      "instrumentId": 0,
      "instrumentName": "Piano",
      "isPercussion": false,
      "pitch": 72,
      "velocity": 96,
      "startTime": 150.5,
      "duration": 0.24895833333332007,
      "endTime": 150.74895833333332
    },
    {
      "instrumentId": 0,
      "instrumentName": "Piano",
      "isPercussion": false,
      "pitch": 76,
      "velocity": 96,
      "startTime": 150.5,
      "duration": 0.24895833333332007,
      "endTime": 150.74895833333332
    },
    {
      "instrumentId": 1,
      "instrumentName": "Piano",
      "isPercussion": false,
      "pitch": 53,
      "velocity": 96,
      "startTime": 150.5,
      "duration": 0.24895833333332007,
      "endTime": 150.74895833333332
    },
    {
      "instrumentId": 0,
      "instrumentName": "Piano",
      "isPercussion": false,
      "pitch": 72,
      "velocity": 96,
      "startTime": 150.75,
      "duration": 0.7489583333333201,
      "endTime": 151.49895833333332
    },
    {
      "instrumentId": 0,
      "instrumentName": "Piano",
      "isPercussion": false,
      "pitch": 76,
      "velocity": 96,
      "startTime": 150.75,
      "duration": 0.7489583333333201,
      "endTime": 151.49895833333332
    },
    {
      "instrumentId": 1,
      "instrumentName": "Piano",
      "isPercussion": false,
      "pitch": 41,
      "velocity": 96,
      "startTime": 150.75,
      "duration": 0.24895833333332007,
      "endTime": 150.99895833333332
    },
    {
      "instrumentId": 1,
      "instrumentName": "Piano",
      "isPercussion": false,
      "pitch": 48,
      "velocity": 96,
      "startTime": 151.0,
      "duration": 0.24895833333332007,
      "endTime": 151.24895833333332
    },
    {
      "instrumentId": 1,
      "instrumentName": "Piano",
      "isPercussion": false,
      "pitch": 55,
      "velocity": 96,
      "startTime": 151.25,
      "duration": 0.24895833333332007,
      "endTime": 151.49895833333332
    },
    {
      "instrumentId": 0,
      "instrumentName": "Piano",
      "isPercussion": false,
      "pitch": 67,
      "velocity": 96,
      "startTime": 151.5,
      "duration": 0.24895833333332007,
      "endTime": 151.74895833333332
    },
    {
      "instrumentId": 0,
      "instrumentName": "Piano",
      "isPercussion": false,
      "pitch": 72,
      "velocity": 96,
      "startTime": 151.5,
      "duration": 0.24895833333332007,
      "endTime": 151.74895833333332
    },
    {
      "instrumentId": 0,
      "instrumentName": "Piano",
      "isPercussion": false,
      "pitch": 77,
      "velocity": 96,
      "startTime": 151.5,
      "duration": 0.24895833333332007,
      "endTime": 151.74895833333332
    },
    {
      "instrumentId": 1,
      "instrumentName": "Piano",
      "isPercussion": false,
      "pitch": 60,
      "velocity": 96,
      "startTime": 151.5,
      "duration": 0.49895833333332007,
      "endTime": 151.99895833333332
    },
    {
      "instrumentId": 0,
      "instrumentName": "Piano",
      "isPercussion": false,
      "pitch": 77,
      "velocity": 96,
      "startTime": 151.75,
      "duration": 0.24895833333332007,
      "endTime": 151.99895833333332
    },
    {
      "instrumentId": 0,
      "instrumentName": "Piano",
      "isPercussion": false,
      "pitch": 74,
      "velocity": 96,
      "startTime": 152.0,
      "duration": 0.49895833333332007,
      "endTime": 152.49895833333332
    },
    {
      "instrumentId": 0,
      "instrumentName": "Piano",
      "isPercussion": false,
      "pitch": 77,
      "velocity": 96,
      "startTime": 152.0,
      "duration": 0.49895833333332007,
      "endTime": 152.49895833333332
    },
    {
      "instrumentId": 1,
      "instrumentName": "Piano",
      "isPercussion": false,
      "pitch": 45,
      "velocity": 96,
      "startTime": 152.0,
      "duration": 0.49895833333332007,
      "endTime": 152.49895833333332
    },
    {
      "instrumentId": 0,
      "instrumentName": "Piano",
      "isPercussion": false,
      "pitch": 72,
      "velocity": 96,
      "startTime": 152.5,
      "duration": 0.49895833333332007,
      "endTime": 152.99895833333332
    },
    {
      "instrumentId": 0,
      "instrumentName": "Piano",
      "isPercussion": false,
      "pitch": 76,
      "velocity": 96,
      "startTime": 152.5,
      "duration": 0.49895833333332007,
      "endTime": 152.99895833333332
    },
    {
      "instrumentId": 1,
      "instrumentName": "Piano",
      "isPercussion": false,
      "pitch": 52,
      "velocity": 96,
      "startTime": 152.5,
      "duration": 0.24895833333332007,
      "endTime": 152.74895833333332
    },
    {
      "instrumentId": 1,
      "instrumentName": "Piano",
      "isPercussion": false,
      "pitch": 57,
      "velocity": 96,
      "startTime": 152.5,
      "duration": 0.24895833333332007,
      "endTime": 152.74895833333332
    },
    {
      "instrumentId": 1,
      "instrumentName": "Piano",
      "isPercussion": false,
      "pitch": 45,
      "velocity": 96,
      "startTime": 152.75,
      "duration": 0.24895833333332007,
      "endTime": 152.99895833333332
    },
    {
      "instrumentId": 0,
      "instrumentName": "Piano",
      "isPercussion": false,
      "pitch": 71,
      "velocity": 96,
      "startTime": 153.0,
      "duration": 0.24895833333332007,
      "endTime": 153.24895833333332
    },
    {
      "instrumentId": 0,
      "instrumentName": "Piano",
      "isPercussion": false,
      "pitch": 74,
      "velocity": 96,
      "startTime": 153.0,
      "duration": 0.24895833333332007,
      "endTime": 153.24895833333332
    },
    {
      "instrumentId": 1,
      "instrumentName": "Piano",
      "isPercussion": false,
      "pitch": 43,
      "velocity": 96,
      "startTime": 153.0,
      "duration": 0.24895833333332007,
      "endTime": 153.24895833333332
    },
    {
      "instrumentId": 0,
      "instrumentName": "Piano",
      "isPercussion": false,
      "pitch": 69,
      "velocity": 96,
      "startTime": 153.25,
      "duration": 0.49895833333332007,
      "endTime": 153.74895833333332
    },
    {
      "instrumentId": 0,
      "instrumentName": "Piano",
      "isPercussion": false,
      "pitch": 76,
      "velocity": 96,
      "startTime": 153.25,
      "duration": 0.49895833333332007,
      "endTime": 153.74895833333332
    },
    {
      "instrumentId": 1,
      "instrumentName": "Piano",
      "isPercussion": false,
      "pitch": 50,
      "velocity": 96,
      "startTime": 153.25,
      "duration": 0.24895833333332007,
      "endTime": 153.49895833333332
    },
    {
      "instrumentId": 1,
      "instrumentName": "Piano",
      "isPercussion": false,
      "pitch": 55,
      "velocity": 96,
      "startTime": 153.5,
      "duration": 0.24895833333332007,
      "endTime": 153.74895833333332
    },
    {
      "instrumentId": 0,
      "instrumentName": "Piano",
      "isPercussion": false,
      "pitch": 67,
      "velocity": 96,
      "startTime": 153.75,
      "duration": 0.49895833333332007,
      "endTime": 154.24895833333332
    },
    {
      "instrumentId": 0,
      "instrumentName": "Piano",
      "isPercussion": false,
      "pitch": 74,
      "velocity": 96,
      "startTime": 153.75,
      "duration": 0.49895833333332007,
      "endTime": 154.24895833333332
    },
    {
      "instrumentId": 1,
      "instrumentName": "Piano",
      "isPercussion": false,
      "pitch": 43,
      "velocity": 96,
      "startTime": 153.75,
      "duration": 0.24895833333332007,
      "endTime": 153.99895833333332
    },
    {
      "instrumentId": 1,
      "instrumentName": "Piano",
      "isPercussion": false,
      "pitch": 41,
      "velocity": 96,
      "startTime": 154.0,
      "duration": 0.24895833333332007,
      "endTime": 154.24895833333332
    },
    {
      "instrumentId": 0,
      "instrumentName": "Piano",
      "isPercussion": false,
      "pitch": 64,
      "velocity": 96,
      "startTime": 154.25,
      "duration": 0.49895833333332007,
      "endTime": 154.74895833333332
    },
    {
      "instrumentId": 0,
      "instrumentName": "Piano",
      "isPercussion": false,
      "pitch": 69,
      "velocity": 96,
      "startTime": 154.25,
      "duration": 0.49895833333332007,
      "endTime": 154.74895833333332
    },
    {
      "instrumentId": 0,
      "instrumentName": "Piano",
      "isPercussion": false,
      "pitch": 72,
      "velocity": 96,
      "startTime": 154.25,
      "duration": 0.49895833333332007,
      "endTime": 154.74895833333332
    },
    {
      "instrumentId": 1,
      "instrumentName": "Piano",
      "isPercussion": false,
      "pitch": 48,
      "velocity": 96,
      "startTime": 154.25,
      "duration": 0.24895833333332007,
      "endTime": 154.49895833333332
    },
    {
      "instrumentId": 1,
      "instrumentName": "Piano",
      "isPercussion": false,
      "pitch": 53,
      "velocity": 96,
      "startTime": 154.5,
      "duration": 0.24895833333332007,
      "endTime": 154.74895833333332
    },
    {
      "instrumentId": 0,
      "instrumentName": "Piano",
      "isPercussion": false,
      "pitch": 64,
      "velocity": 96,
      "startTime": 154.75,
      "duration": 1.24895833333332,
      "endTime": 155.99895833333332
    },
    {
      "instrumentId": 0,
      "instrumentName": "Piano",
      "isPercussion": false,
      "pitch": 67,
      "velocity": 96,
      "startTime": 154.75,
      "duration": 1.24895833333332,
      "endTime": 155.99895833333332
    },
    {
      "instrumentId": 0,
      "instrumentName": "Piano",
      "isPercussion": false,
      "pitch": 72,
      "velocity": 96,
      "startTime": 154.75,
      "duration": 1.24895833333332,
      "endTime": 155.99895833333332
    },
    {
      "instrumentId": 1,
      "instrumentName": "Piano",
      "isPercussion": false,
      "pitch": 41,
      "velocity": 96,
      "startTime": 154.75,
      "duration": 0.24895833333332007,
      "endTime": 154.99895833333332
    },
    {
      "instrumentId": 1,
      "instrumentName": "Piano",
      "isPercussion": false,
      "pitch": 36,
      "velocity": 96,
      "startTime": 155.0,
      "duration": 0.24895833333332007,
      "endTime": 155.24895833333332
    },
    {
      "instrumentId": 1,
      "instrumentName": "Piano",
      "isPercussion": false,
      "pitch": 43,
      "velocity": 96,
      "startTime": 155.25,
      "duration": 0.24895833333332007,
      "endTime": 155.49895833333332
    },
    {
      "instrumentId": 1,
      "instrumentName": "Piano",
      "isPercussion": false,
      "pitch": 48,
      "velocity": 96,
      "startTime": 155.5,
      "duration": 0.49895833333332007,
      "endTime": 155.99895833333332
    },
    {
      "instrumentId": 1,
      "instrumentName": "Piano",
      "isPercussion": false,
      "pitch": 52,
      "velocity": 96,
      "startTime": 155.5,
      "duration": 0.49895833333332007,
      "endTime": 155.99895833333332
    },
    {
      "instrumentId": 1,
      "instrumentName": "Piano",
      "isPercussion": false,
      "pitch": 45,
      "velocity": 96,
      "startTime": 156.0,
      "duration": 0.49895833333332007,
      "endTime": 156.49895833333332
    },
    {
      "instrumentId": 0,
      "instrumentName": "Piano",
      "isPercussion": false,
      "pitch": 72,
      "velocity": 96,
      "startTime": 156.5,
      "duration": 0.24895833333332007,
      "endTime": 156.74895833333332
    },
    {
      "instrumentId": 0,
      "instrumentName": "Piano",
      "isPercussion": false,
      "pitch": 76,
      "velocity": 96,
      "startTime": 156.5,
      "duration": 0.24895833333332007,
      "endTime": 156.74895833333332
    },
    {
      "instrumentId": 1,
      "instrumentName": "Piano",
      "isPercussion": false,
      "pitch": 52,
      "velocity": 96,
      "startTime": 156.5,
      "duration": 0.24895833333332007,
      "endTime": 156.74895833333332
    },
    {
      "instrumentId": 1,
      "instrumentName": "Piano",
      "isPercussion": false,
      "pitch": 57,
      "velocity": 96,
      "startTime": 156.5,
      "duration": 0.24895833333332007,
      "endTime": 156.74895833333332
    },
    {
      "instrumentId": 0,
      "instrumentName": "Piano",
      "isPercussion": false,
      "pitch": 72,
      "velocity": 96,
      "startTime": 156.75,
      "duration": 0.24895833333332007,
      "endTime": 156.99895833333332
    },
    {
      "instrumentId": 0,
      "instrumentName": "Piano",
      "isPercussion": false,
      "pitch": 76,
      "velocity": 96,
      "startTime": 156.75,
      "duration": 0.24895833333332007,
      "endTime": 156.99895833333332
    },
    {
      "instrumentId": 1,
      "instrumentName": "Piano",
      "isPercussion": false,
      "pitch": 45,
      "velocity": 96,
      "startTime": 156.75,
      "duration": 0.24895833333332007,
      "endTime": 156.99895833333332
    },
    {
      "instrumentId": 0,
      "instrumentName": "Piano",
      "isPercussion": false,
      "pitch": 71,
      "velocity": 96,
      "startTime": 157.0,
      "duration": 0.24895833333332007,
      "endTime": 157.24895833333332
    },
    {
      "instrumentId": 0,
      "instrumentName": "Piano",
      "isPercussion": false,
      "pitch": 74,
      "velocity": 96,
      "startTime": 157.0,
      "duration": 0.24895833333332007,
      "endTime": 157.24895833333332
    },
    {
      "instrumentId": 1,
      "instrumentName": "Piano",
      "isPercussion": false,
      "pitch": 43,
      "velocity": 96,
      "startTime": 157.0,
      "duration": 0.24895833333332007,
      "endTime": 157.24895833333332
    },
    {
      "instrumentId": 0,
      "instrumentName": "Piano",
      "isPercussion": false,
      "pitch": 71,
      "velocity": 96,
      "startTime": 157.25,
      "duration": 0.24895833333332007,
      "endTime": 157.49895833333332
    },
    {
      "instrumentId": 0,
      "instrumentName": "Piano",
      "isPercussion": false,
      "pitch": 74,
      "velocity": 96,
      "startTime": 157.25,
      "duration": 0.24895833333332007,
      "endTime": 157.49895833333332
    },
    {
      "instrumentId": 1,
      "instrumentName": "Piano",
      "isPercussion": false,
      "pitch": 50,
      "velocity": 96,
      "startTime": 157.25,
      "duration": 0.24895833333332007,
      "endTime": 157.49895833333332
    },
    {
      "instrumentId": 0,
      "instrumentName": "Piano",
      "isPercussion": false,
      "pitch": 67,
      "velocity": 96,
      "startTime": 157.5,
      "duration": 0.49895833333332007,
      "endTime": 157.99895833333332
    },
    {
      "instrumentId": 0,
      "instrumentName": "Piano",
      "isPercussion": false,
      "pitch": 72,
      "velocity": 96,
      "startTime": 157.5,
      "duration": 0.49895833333332007,
      "endTime": 157.99895833333332
    },
    {
      "instrumentId": 1,
      "instrumentName": "Piano",
      "isPercussion": false,
      "pitch": 55,
      "velocity": 96,
      "startTime": 157.5,
      "duration": 0.24895833333332007,
      "endTime": 157.74895833333332
    },
    {
      "instrumentId": 1,
      "instrumentName": "Piano",
      "isPercussion": false,
      "pitch": 43,
      "velocity": 96,
      "startTime": 157.75,
      "duration": 0.24895833333332007,
      "endTime": 157.99895833333332
    },
    {
      "instrumentId": 0,
      "instrumentName": "Piano",
      "isPercussion": false,
      "pitch": 74,
      "velocity": 96,
      "startTime": 158.0,
      "duration": 0.24895833333332007,
      "endTime": 158.24895833333332
    },
    {
      "instrumentId": 0,
      "instrumentName": "Piano",
      "isPercussion": false,
      "pitch": 77,
      "velocity": 96,
      "startTime": 158.0,
      "duration": 0.24895833333332007,
      "endTime": 158.24895833333332
    },
    {
      "instrumentId": 1,
      "instrumentName": "Piano",
      "isPercussion": false,
      "pitch": 41,
      "velocity": 96,
      "startTime": 158.0,
      "duration": 0.24895833333332007,
      "endTime": 158.24895833333332
    },
    {
      "instrumentId": 0,
      "instrumentName": "Piano",
      "isPercussion": false,
      "pitch": 74,
      "velocity": 96,
      "startTime": 158.25,
      "duration": 0.24895833333332007,
      "endTime": 158.49895833333332
    },
    {
      "instrumentId": 0,
      "instrumentName": "Piano",
      "isPercussion": false,
      "pitch": 77,
      "velocity": 96,
      "startTime": 158.25,
      "duration": 0.24895833333332007,
      "endTime": 158.49895833333332
    },
    {
      "instrumentId": 1,
      "instrumentName": "Piano",
      "isPercussion": false,
      "pitch": 48,
      "velocity": 96,
      "startTime": 158.25,
      "duration": 0.24895833333332007,
      "endTime": 158.49895833333332
    },
    {
      "instrumentId": 0,
      "instrumentName": "Piano",
      "isPercussion": false,
      "pitch": 74,
      "velocity": 96,
      "startTime": 158.5,
      "duration": 0.24895833333332007,
      "endTime": 158.74895833333332
    },
    {
      "instrumentId": 0,
      "instrumentName": "Piano",
      "isPercussion": false,
      "pitch": 77,
      "velocity": 96,
      "startTime": 158.5,
      "duration": 0.24895833333332007,
      "endTime": 158.74895833333332
    },
    {
      "instrumentId": 1,
      "instrumentName": "Piano",
      "isPercussion": false,
      "pitch": 53,
      "velocity": 96,
      "startTime": 158.5,
      "duration": 0.24895833333332007,
      "endTime": 158.74895833333332
    },
    {
      "instrumentId": 0,
      "instrumentName": "Piano",
      "isPercussion": false,
      "pitch": 72,
      "velocity": 96,
      "startTime": 158.75,
      "duration": 0.24895833333332007,
      "endTime": 158.99895833333332
    },
    {
      "instrumentId": 0,
      "instrumentName": "Piano",
      "isPercussion": false,
      "pitch": 76,
      "velocity": 96,
      "startTime": 158.75,
      "duration": 0.24895833333332007,
      "endTime": 158.99895833333332
    },
    {
      "instrumentId": 1,
      "instrumentName": "Piano",
      "isPercussion": false,
      "pitch": 41,
      "velocity": 96,
      "startTime": 158.75,
      "duration": 0.24895833333332007,
      "endTime": 158.99895833333332
    },
    {
      "instrumentId": 0,
      "instrumentName": "Piano",
      "isPercussion": false,
      "pitch": 72,
      "velocity": 96,
      "startTime": 159.0,
      "duration": 0.49895833333332007,
      "endTime": 159.49895833333332
    },
    {
      "instrumentId": 0,
      "instrumentName": "Piano",
      "isPercussion": false,
      "pitch": 76,
      "velocity": 96,
      "startTime": 159.0,
      "duration": 0.49895833333332007,
      "endTime": 159.49895833333332
    },
    {
      "instrumentId": 1,
      "instrumentName": "Piano",
      "isPercussion": false,
      "pitch": 48,
      "velocity": 96,
      "startTime": 159.0,
      "duration": 0.24895833333332007,
      "endTime": 159.24895833333332
    },
    {
      "instrumentId": 1,
      "instrumentName": "Piano",
      "isPercussion": false,
      "pitch": 55,
      "velocity": 96,
      "startTime": 159.25,
      "duration": 0.24895833333332007,
      "endTime": 159.49895833333332
    },
    {
      "instrumentId": 0,
      "instrumentName": "Piano",
      "isPercussion": false,
      "pitch": 72,
      "velocity": 96,
      "startTime": 159.5,
      "duration": 0.24895833333332007,
      "endTime": 159.74895833333332
    },
    {
      "instrumentId": 1,
      "instrumentName": "Piano",
      "isPercussion": false,
      "pitch": 60,
      "velocity": 96,
      "startTime": 159.5,
      "duration": 0.49895833333332007,
      "endTime": 159.99895833333332
    },
    {
      "instrumentId": 0,
      "instrumentName": "Piano",
      "isPercussion": false,
      "pitch": 74,
      "velocity": 96,
      "startTime": 159.75,
      "duration": 0.49895833333332007,
      "endTime": 160.24895833333332
    },
    {
      "instrumentId": 0,
      "instrumentName": "Piano",
      "isPercussion": false,
      "pitch": 77,
      "velocity": 96,
      "startTime": 159.75,
      "duration": 0.49895833333332007,
      "endTime": 160.24895833333332
    },
    {
      "instrumentId": 1,
      "instrumentName": "Piano",
      "isPercussion": false,
      "pitch": 45,
      "velocity": 96,
      "startTime": 160.0,
      "duration": 0.49895833333332007,
      "endTime": 160.49895833333332
    },
    {
      "instrumentId": 0,
      "instrumentName": "Piano",
      "isPercussion": false,
      "pitch": 72,
      "velocity": 96,
      "startTime": 160.25,
      "duration": 0.24895833333332007,
      "endTime": 160.49895833333332
    },
    {
      "instrumentId": 0,
      "instrumentName": "Piano",
      "isPercussion": false,
      "pitch": 76,
      "velocity": 96,
      "startTime": 160.25,
      "duration": 0.24895833333332007,
      "endTime": 160.49895833333332
    },
    {
      "instrumentId": 0,
      "instrumentName": "Piano",
      "isPercussion": false,
      "pitch": 72,
      "velocity": 96,
      "startTime": 160.5,
      "duration": 0.24895833333332007,
      "endTime": 160.74895833333332
    },
    {
      "instrumentId": 0,
      "instrumentName": "Piano",
      "isPercussion": false,
      "pitch": 76,
      "velocity": 96,
      "startTime": 160.5,
      "duration": 0.24895833333332007,
      "endTime": 160.74895833333332
    },
    {
      "instrumentId": 1,
      "instrumentName": "Piano",
      "isPercussion": false,
      "pitch": 52,
      "velocity": 96,
      "startTime": 160.5,
      "duration": 0.24895833333332007,
      "endTime": 160.74895833333332
    },
    {
      "instrumentId": 1,
      "instrumentName": "Piano",
      "isPercussion": false,
      "pitch": 57,
      "velocity": 96,
      "startTime": 160.5,
      "duration": 0.24895833333332007,
      "endTime": 160.74895833333332
    },
    {
      "instrumentId": 0,
      "instrumentName": "Piano",
      "isPercussion": false,
      "pitch": 67,
      "velocity": 96,
      "startTime": 160.75,
      "duration": 0.49895833333332007,
      "endTime": 161.24895833333332
    },
    {
      "instrumentId": 0,
      "instrumentName": "Piano",
      "isPercussion": false,
      "pitch": 74,
      "velocity": 96,
      "startTime": 160.75,
      "duration": 0.49895833333332007,
      "endTime": 161.24895833333332
    },
    {
      "instrumentId": 1,
      "instrumentName": "Piano",
      "isPercussion": false,
      "pitch": 45,
      "velocity": 96,
      "startTime": 160.75,
      "duration": 0.24895833333332007,
      "endTime": 160.99895833333332
    },
    {
      "instrumentId": 1,
      "instrumentName": "Piano",
      "isPercussion": false,
      "pitch": 43,
      "velocity": 96,
      "startTime": 161.0,
      "duration": 0.24895833333332007,
      "endTime": 161.24895833333332
    },
    {
      "instrumentId": 0,
      "instrumentName": "Piano",
      "isPercussion": false,
      "pitch": 69,
      "velocity": 96,
      "startTime": 161.25,
      "duration": 0.49895833333332007,
      "endTime": 161.74895833333332
    },
    {
      "instrumentId": 0,
      "instrumentName": "Piano",
      "isPercussion": false,
      "pitch": 76,
      "velocity": 96,
      "startTime": 161.25,
      "duration": 0.49895833333332007,
      "endTime": 161.74895833333332
    },
    {
      "instrumentId": 1,
      "instrumentName": "Piano",
      "isPercussion": false,
      "pitch": 50,
      "velocity": 96,
      "startTime": 161.25,
      "duration": 0.24895833333332007,
      "endTime": 161.49895833333332
    },
    {
      "instrumentId": 1,
      "instrumentName": "Piano",
      "isPercussion": false,
      "pitch": 55,
      "velocity": 96,
      "startTime": 161.5,
      "duration": 0.24895833333332007,
      "endTime": 161.74895833333332
    },
    {
      "instrumentId": 0,
      "instrumentName": "Piano",
      "isPercussion": false,
      "pitch": 67,
      "velocity": 96,
      "startTime": 161.75,
      "duration": 0.49895833333332007,
      "endTime": 162.24895833333332
    },
    {
      "instrumentId": 0,
      "instrumentName": "Piano",
      "isPercussion": false,
      "pitch": 74,
      "velocity": 96,
      "startTime": 161.75,
      "duration": 0.49895833333332007,
      "endTime": 162.24895833333332
    },
    {
      "instrumentId": 1,
      "instrumentName": "Piano",
      "isPercussion": false,
      "pitch": 43,
      "velocity": 96,
      "startTime": 161.75,
      "duration": 0.24895833333332007,
      "endTime": 161.99895833333332
    },
    {
      "instrumentId": 1,
      "instrumentName": "Piano",
      "isPercussion": false,
      "pitch": 41,
      "velocity": 96,
      "startTime": 162.0,
      "duration": 0.24895833333332007,
      "endTime": 162.24895833333332
    },
    {
      "instrumentId": 0,
      "instrumentName": "Piano",
      "isPercussion": false,
      "pitch": 64,
      "velocity": 96,
      "startTime": 162.25,
      "duration": 0.49895833333332007,
      "endTime": 162.74895833333332
    },
    {
      "instrumentId": 0,
      "instrumentName": "Piano",
      "isPercussion": false,
      "pitch": 69,
      "velocity": 96,
      "startTime": 162.25,
      "duration": 0.49895833333332007,
      "endTime": 162.74895833333332
    },
    {
      "instrumentId": 0,
      "instrumentName": "Piano",
      "isPercussion": false,
      "pitch": 72,
      "velocity": 96,
      "startTime": 162.25,
      "duration": 0.49895833333332007,
      "endTime": 162.74895833333332
    },
    {
      "instrumentId": 1,
      "instrumentName": "Piano",
      "isPercussion": false,
      "pitch": 48,
      "velocity": 96,
      "startTime": 162.25,
      "duration": 0.24895833333332007,
      "endTime": 162.49895833333332
    },
    {
      "instrumentId": 1,
      "instrumentName": "Piano",
      "isPercussion": false,
      "pitch": 53,
      "velocity": 96,
      "startTime": 162.5,
      "duration": 0.24895833333332007,
      "endTime": 162.74895833333332
    },
    {
      "instrumentId": 0,
      "instrumentName": "Piano",
      "isPercussion": false,
      "pitch": 64,
      "velocity": 96,
      "startTime": 162.75,
      "duration": 1.24895833333332,
      "endTime": 163.99895833333332
    },
    {
      "instrumentId": 0,
      "instrumentName": "Piano",
      "isPercussion": false,
      "pitch": 67,
      "velocity": 96,
      "startTime": 162.75,
      "duration": 1.24895833333332,
      "endTime": 163.99895833333332
    },
    {
      "instrumentId": 0,
      "instrumentName": "Piano",
      "isPercussion": false,
      "pitch": 72,
      "velocity": 96,
      "startTime": 162.75,
      "duration": 1.24895833333332,
      "endTime": 163.99895833333332
    },
    {
      "instrumentId": 1,
      "instrumentName": "Piano",
      "isPercussion": false,
      "pitch": 41,
      "velocity": 96,
      "startTime": 162.75,
      "duration": 0.24895833333332007,
      "endTime": 162.99895833333332
    },
    {
      "instrumentId": 1,
      "instrumentName": "Piano",
      "isPercussion": false,
      "pitch": 36,
      "velocity": 96,
      "startTime": 163.0,
      "duration": 0.24895833333332007,
      "endTime": 163.24895833333332
    },
    {
      "instrumentId": 1,
      "instrumentName": "Piano",
      "isPercussion": false,
      "pitch": 43,
      "velocity": 96,
      "startTime": 163.25,
      "duration": 0.24895833333332007,
      "endTime": 163.49895833333332
    },
    {
      "instrumentId": 1,
      "instrumentName": "Piano",
      "isPercussion": false,
      "pitch": 48,
      "velocity": 96,
      "startTime": 163.5,
      "duration": 0.49895833333332007,
      "endTime": 163.99895833333332
    },
    {
      "instrumentId": 1,
      "instrumentName": "Piano",
      "isPercussion": false,
      "pitch": 52,
      "velocity": 96,
      "startTime": 163.5,
      "duration": 0.49895833333332007,
      "endTime": 163.99895833333332
    },
    {
      "instrumentId": 1,
      "instrumentName": "Piano",
      "isPercussion": false,
      "pitch": 55,
      "velocity": 80,
      "startTime": 164.0,
      "duration": 0.9989583333333201,
      "endTime": 164.99895833333332
    },
    {
      "instrumentId": 1,
      "instrumentName": "Piano",
      "isPercussion": false,
      "pitch": 57,
      "velocity": 80,
      "startTime": 164.0,
      "duration": 0.9989583333333201,
      "endTime": 164.99895833333332
    },
    {
      "instrumentId": 1,
      "instrumentName": "Piano",
      "isPercussion": false,
      "pitch": 60,
      "velocity": 80,
      "startTime": 164.0,
      "duration": 0.9989583333333201,
      "endTime": 164.99895833333332
    },
    {
      "instrumentId": 1,
      "instrumentName": "Piano",
      "isPercussion": false,
      "pitch": 64,
      "velocity": 80,
      "startTime": 164.0,
      "duration": 0.9989583333333201,
      "endTime": 164.99895833333332
    },
    {
      "instrumentId": 0,
      "instrumentName": "Piano",
      "isPercussion": false,
      "pitch": 72,
      "velocity": 80,
      "startTime": 164.5,
      "duration": 0.24895833333332007,
      "endTime": 164.74895833333332
    },
    {
      "instrumentId": 0,
      "instrumentName": "Piano",
      "isPercussion": false,
      "pitch": 76,
      "velocity": 80,
      "startTime": 164.5,
      "duration": 0.24895833333332007,
      "endTime": 164.74895833333332
    },
    {
      "instrumentId": 0,
      "instrumentName": "Piano",
      "isPercussion": false,
      "pitch": 72,
      "velocity": 80,
      "startTime": 164.75,
      "duration": 0.24895833333332007,
      "endTime": 164.99895833333332
    },
    {
      "instrumentId": 0,
      "instrumentName": "Piano",
      "isPercussion": false,
      "pitch": 76,
      "velocity": 80,
      "startTime": 164.75,
      "duration": 0.24895833333332007,
      "endTime": 164.99895833333332
    },
    {
      "instrumentId": 0,
      "instrumentName": "Piano",
      "isPercussion": false,
      "pitch": 71,
      "velocity": 80,
      "startTime": 165.0,
      "duration": 0.24895833333332007,
      "endTime": 165.24895833333332
    },
    {
      "instrumentId": 0,
      "instrumentName": "Piano",
      "isPercussion": false,
      "pitch": 74,
      "velocity": 80,
      "startTime": 165.0,
      "duration": 0.24895833333332007,
      "endTime": 165.24895833333332
    },
    {
      "instrumentId": 1,
      "instrumentName": "Piano",
      "isPercussion": false,
      "pitch": 59,
      "velocity": 80,
      "startTime": 165.0,
      "duration": 0.9989583333333201,
      "endTime": 165.99895833333332
    },
    {
      "instrumentId": 0,
      "instrumentName": "Piano",
      "isPercussion": false,
      "pitch": 71,
      "velocity": 80,
      "startTime": 165.25,
      "duration": 0.24895833333332007,
      "endTime": 165.49895833333332
    },
    {
      "instrumentId": 0,
      "instrumentName": "Piano",
      "isPercussion": false,
      "pitch": 74,
      "velocity": 80,
      "startTime": 165.25,
      "duration": 0.24895833333332007,
      "endTime": 165.49895833333332
    },
    {
      "instrumentId": 0,
      "instrumentName": "Piano",
      "isPercussion": false,
      "pitch": 74,
      "velocity": 80,
      "startTime": 165.75,
      "duration": 0.49895833333332007,
      "endTime": 166.24895833333332
    },
    {
      "instrumentId": 0,
      "instrumentName": "Piano",
      "isPercussion": false,
      "pitch": 77,
      "velocity": 80,
      "startTime": 165.75,
      "duration": 0.49895833333332007,
      "endTime": 166.24895833333332
    },
    {
      "instrumentId": 1,
      "instrumentName": "Piano",
      "isPercussion": false,
      "pitch": 57,
      "velocity": 80,
      "startTime": 166.0,
      "duration": 0.9989583333333201,
      "endTime": 166.99895833333332
    },
    {
      "instrumentId": 1,
      "instrumentName": "Piano",
      "isPercussion": false,
      "pitch": 60,
      "velocity": 80,
      "startTime": 166.0,
      "duration": 0.9989583333333201,
      "endTime": 166.99895833333332
    },
    {
      "instrumentId": 1,
      "instrumentName": "Piano",
      "isPercussion": false,
      "pitch": 62,
      "velocity": 80,
      "startTime": 166.0,
      "duration": 0.9989583333333201,
      "endTime": 166.99895833333332
    },
    {
      "instrumentId": 1,
      "instrumentName": "Piano",
      "isPercussion": false,
      "pitch": 65,
      "velocity": 80,
      "startTime": 166.0,
      "duration": 0.9989583333333201,
      "endTime": 166.99895833333332
    },
    {
      "instrumentId": 0,
      "instrumentName": "Piano",
      "isPercussion": false,
      "pitch": 74,
      "velocity": 80,
      "startTime": 166.25,
      "duration": 0.24895833333332007,
      "endTime": 166.49895833333332
    },
    {
      "instrumentId": 0,
      "instrumentName": "Piano",
      "isPercussion": false,
      "pitch": 77,
      "velocity": 80,
      "startTime": 166.25,
      "duration": 0.24895833333332007,
      "endTime": 166.49895833333332
    },
    {
      "instrumentId": 0,
      "instrumentName": "Piano",
      "isPercussion": false,
      "pitch": 72,
      "velocity": 80,
      "startTime": 166.5,
      "duration": 0.24895833333332007,
      "endTime": 166.74895833333332
    },
    {
      "instrumentId": 0,
      "instrumentName": "Piano",
      "isPercussion": false,
      "pitch": 76,
      "velocity": 80,
      "startTime": 166.5,
      "duration": 0.24895833333332007,
      "endTime": 166.74895833333332
    },
    {
      "instrumentId": 0,
      "instrumentName": "Piano",
      "isPercussion": false,
      "pitch": 72,
      "velocity": 80,
      "startTime": 166.75,
      "duration": 0.7489583333333201,
      "endTime": 167.49895833333332
    },
    {
      "instrumentId": 0,
      "instrumentName": "Piano",
      "isPercussion": false,
      "pitch": 76,
      "velocity": 80,
      "startTime": 166.75,
      "duration": 0.7489583333333201,
      "endTime": 167.49895833333332
    },
    {
      "instrumentId": 1,
      "instrumentName": "Piano",
      "isPercussion": false,
      "pitch": 55,
      "velocity": 80,
      "startTime": 167.0,
      "duration": 0.9989583333333201,
      "endTime": 167.99895833333332
    },
    {
      "instrumentId": 1,
      "instrumentName": "Piano",
      "isPercussion": false,
      "pitch": 60,
      "velocity": 80,
      "startTime": 167.0,
      "duration": 0.9989583333333201,
      "endTime": 167.99895833333332
    },
    {
      "instrumentId": 1,
      "instrumentName": "Piano",
      "isPercussion": false,
      "pitch": 64,
      "velocity": 80,
      "startTime": 167.0,
      "duration": 0.9989583333333201,
      "endTime": 167.99895833333332
    },
    {
      "instrumentId": 0,
      "instrumentName": "Piano",
      "isPercussion": false,
      "pitch": 67,
      "velocity": 80,
      "startTime": 167.5,
      "duration": 0.24895833333332007,
      "endTime": 167.74895833333332
    },
    {
      "instrumentId": 0,
      "instrumentName": "Piano",
      "isPercussion": false,
      "pitch": 77,
      "velocity": 80,
      "startTime": 167.5,
      "duration": 0.24895833333332007,
      "endTime": 167.74895833333332
    },
    {
      "instrumentId": 0,
      "instrumentName": "Piano",
      "isPercussion": false,
      "pitch": 77,
      "velocity": 80,
      "startTime": 167.75,
      "duration": 0.24895833333332007,
      "endTime": 167.99895833333332
    },
    {
      "instrumentId": 0,
      "instrumentName": "Piano",
      "isPercussion": false,
      "pitch": 74,
      "velocity": 80,
      "startTime": 168.0,
      "duration": 0.49895833333332007,
      "endTime": 168.49895833333332
    },
    {
      "instrumentId": 0,
      "instrumentName": "Piano",
      "isPercussion": false,
      "pitch": 77,
      "velocity": 80,
      "startTime": 168.0,
      "duration": 0.49895833333332007,
      "endTime": 168.49895833333332
    },
    {
      "instrumentId": 1,
      "instrumentName": "Piano",
      "isPercussion": false,
      "pitch": 64,
      "velocity": 80,
      "startTime": 168.0,
      "duration": 2.25,
      "endTime": 170.25
    },
    {
      "instrumentId": 1,
      "instrumentName": "Piano",
      "isPercussion": false,
      "pitch": 55,
      "velocity": 80,
      "startTime": 168.0,
      "duration": 3.99895833333332,
      "endTime": 171.99895833333332
    },
    {
      "instrumentId": 1,
      "instrumentName": "Piano",
      "isPercussion": false,
      "pitch": 57,
      "velocity": 80,
      "startTime": 168.0,
      "duration": 3.99895833333332,
      "endTime": 171.99895833333332
    },
    {
      "instrumentId": 1,
      "instrumentName": "Piano",
      "isPercussion": false,
      "pitch": 60,
      "velocity": 80,
      "startTime": 168.0,
      "duration": 3.99895833333332,
      "endTime": 171.99895833333332
    },
    {
      "instrumentId": 0,
      "instrumentName": "Piano",
      "isPercussion": false,
      "pitch": 72,
      "velocity": 80,
      "startTime": 168.5,
      "duration": 0.49895833333332007,
      "endTime": 168.99895833333332
    },
    {
      "instrumentId": 0,
      "instrumentName": "Piano",
      "isPercussion": false,
      "pitch": 76,
      "velocity": 80,
      "startTime": 168.5,
      "duration": 0.49895833333332007,
      "endTime": 168.99895833333332
    },
    {
      "instrumentId": 0,
      "instrumentName": "Piano",
      "isPercussion": false,
      "pitch": 67,
      "velocity": 80,
      "startTime": 169.0,
      "duration": 0.24895833333332007,
      "endTime": 169.24895833333332
    },
    {
      "instrumentId": 0,
      "instrumentName": "Piano",
      "isPercussion": false,
      "pitch": 74,
      "velocity": 80,
      "startTime": 169.0,
      "duration": 0.24895833333332007,
      "endTime": 169.24895833333332
    },
    {
      "instrumentId": 0,
      "instrumentName": "Piano",
      "isPercussion": false,
      "pitch": 69,
      "velocity": 80,
      "startTime": 169.25,
      "duration": 0.49895833333332007,
      "endTime": 169.74895833333332
    },
    {
      "instrumentId": 0,
      "instrumentName": "Piano",
      "isPercussion": false,
      "pitch": 76,
      "velocity": 80,
      "startTime": 169.25,
      "duration": 0.49895833333332007,
      "endTime": 169.74895833333332
    },
    {
      "instrumentId": 0,
      "instrumentName": "Piano",
      "isPercussion": false,
      "pitch": 67,
      "velocity": 80,
      "startTime": 169.75,
      "duration": 0.49895833333332007,
      "endTime": 170.24895833333332
    },
    {
      "instrumentId": 0,
      "instrumentName": "Piano",
      "isPercussion": false,
      "pitch": 74,
      "velocity": 80,
      "startTime": 169.75,
      "duration": 0.49895833333332007,
      "endTime": 170.24895833333332
    },
    {
      "instrumentId": 0,
      "instrumentName": "Piano",
      "isPercussion": false,
      "pitch": 72,
      "velocity": 80,
      "startTime": 170.25,
      "duration": 0.49895833333332007,
      "endTime": 170.74895833333332
    },
    {
      "instrumentId": 0,
      "instrumentName": "Piano",
      "isPercussion": false,
      "pitch": 64,
      "velocity": 80,
      "startTime": 170.25,
      "duration": 0.5,
      "endTime": 170.75
    },
    {
      "instrumentId": 0,
      "instrumentName": "Piano",
      "isPercussion": false,
      "pitch": 72,
      "velocity": 80,
      "startTime": 170.75,
      "duration": 1.24895833333332,
      "endTime": 171.99895833333332
    },
    {
      "instrumentId": 0,
      "instrumentName": "Piano",
      "isPercussion": false,
      "pitch": 64,
      "velocity": 80,
      "startTime": 170.75,
      "duration": 1.24895833333332,
      "endTime": 171.99895833333332
    }
  ]
}