{
  "metadata": {
    "file": "twinkle-twinkle-little-star.mid",
    "duration": 30.254018558593753,
    "bpm": 95.00029291756982,
    "totalNotes": 90
  },
  "notes": [
    {
      "instrumentId": 0,
      "instrumentName": "Piano",
      "isPercussion": false,
      "pitch": 60,
      "velocity": 77,
      "startTime": 0.0,
      "duration": 0.601971828125,
      "endTime": 0.601971828125
    },
    {
      "instrumentId": 0,
      "instrumentName": "Piano",
      "isPercussion": false,
      "pitch": 52,
      "velocity": 63,
      "startTime": 0.0,
      "duration": 1.2014765585937501,
      "endTime": 1.2014765585937501
    },
    {
      "instrumentId": 0,
      "instrumentName": "Piano",
      "isPercussion": false,
      "pitch": 48,
      "velocity": 64,
      "startTime": 0.0,
      "duration": 1.2014765585937501,
      "endTime": 1.2014765585937501
    },
    {
      "instrumentId": 0,
      "instrumentName": "Piano",
      "isPercussion": false,
      "pitch": 60,
      "velocity": 83,
      "startTime": 0.631577,
      "duration": 0.6019718281249999,
      "endTime": 1.233548828125
    },
    {
      "instrumentId": 0,
      "instrumentName": "Piano",
      "isPercussion": false,
      "pitch": 67,
      "velocity": 90,
      "startTime": 1.263154,
      "duration": 0.6019718281249999,
      "endTime": 1.865125828125
    },
    {
      "instrumentId": 0,
      "instrumentName": "Piano",
      "isPercussion": false,
      "pitch": 60,
      "velocity": 77,
      "startTime": 1.263154,
      "duration": 1.20147655859375,
      "endTime": 2.46463055859375
    },
    {
      "instrumentId": 0,
      "instrumentName": "Piano",
      "isPercussion": false,
      "pitch": 48,
      "velocity": 71,
      "startTime": 1.263154,
      "duration": 1.20147655859375,
      "endTime": 2.46463055859375
    },
    {
      "instrumentId": 0,
      "instrumentName": "Piano",
      "isPercussion": false,
      "pitch": 67,
      "velocity": 87,
      "startTime": 1.8947310000000002,
      "duration": 0.6019718281249999,
      "endTime": 2.496702828125
    },
    {
      "instrumentId": 0,
      "instrumentName": "Piano",
      "isPercussion": false,
      "pitch": 69,
      "velocity": 86,
      "startTime": 2.526308,
      "duration": 0.6019718281249999,
      "endTime": 3.128279828125
    },
    {
      "instrumentId": 0,
      "instrumentName": "Piano",
      "isPercussion": false,
      "pitch": 60,
      "velocity": 73,
      "startTime": 2.526308,
      "duration": 1.20147655859375,
      "endTime": 3.72778455859375
    },
    {
      "instrumentId": 0,
      "instrumentName": "Piano",
      "isPercussion": false,
      "pitch": 41,
      "velocity": 66,
      "startTime": 2.526308,
      "duration": 1.20147655859375,
      "endTime": 3.72778455859375
    },
    {
      "instrumentId": 0,
      "instrumentName": "Piano",
      "isPercussion": false,
      "pitch": 69,
      "velocity": 83,
      "startTime": 3.1578850000000003,
      "duration": 0.6019718281249999,
      "endTime": 3.759856828125
    },
    {
      "instrumentId": 0,
      "instrumentName": "Piano",
      "isPercussion": false,
      "pitch": 67,
      "velocity": 81,
      "startTime": 3.7894620000000003,
      "duration": 1.2014765585937504,
      "endTime": 4.990938558593751
    },
    {
      "instrumentId": 0,
      "instrumentName": "Piano",
      "isPercussion": false,
      "pitch": 60,
      "velocity": 75,
      "startTime": 3.7894620000000003,
      "duration": 1.2014765585937504,
      "endTime": 4.990938558593751
    },
    {
      "instrumentId": 0,
      "instrumentName": "Piano",
      "isPercussion": false,
      "pitch": 48,
      "velocity": 71,
      "startTime": 3.7894620000000003,
      "duration": 1.2014765585937504,
      "endTime": 4.990938558593751
    },
    {
      "instrumentId": 0,
      "instrumentName": "Piano",
      "isPercussion": false,
      "pitch": 65,
      "velocity": 80,
      "startTime": 5.052616,
      "duration": 0.6019718281250004,
      "endTime": 5.654587828125001
    },
    {
      "instrumentId": 0,
      "instrumentName": "Piano",
      "isPercussion": false,
      "pitch": 57,
      "velocity": 70,
      "startTime": 5.052616,
      "duration": 1.2014765585937504,
      "endTime": 6.254092558593751
    },
    {
      "instrumentId": 0,
      "instrumentName": "Piano",
      "isPercussion": false,
      "pitch": 41,
      "velocity": 68,
      "startTime": 5.052616,
      "duration": 1.2014765585937504,
      "endTime": 6.254092558593751
    },
    {
      "instrumentId": 0,
      "instrumentName": "Piano",
      "isPercussion": false,
      "pitch": 65,
      "velocity": 85,
      "startTime": 5.6841930000000005,
      "duration": 0.6019718281250004,
      "endTime": 6.286164828125001
    },
    {
      "instrumentId": 0,
      "instrumentName": "Piano",
      "isPercussion": false,
      "pitch": 64,
      "velocity": 82,
      "startTime": 6.3157700000000006,
      "duration": 0.6019718281250004,
      "endTime": 6.917741828125001
    },
    {
      "instrumentId": 0,
      "instrumentName": "Piano",
      "isPercussion": false,
      "pitch": 55,
      "velocity": 69,
      "startTime": 6.3157700000000006,
      "duration": 1.2014765585937504,
      "endTime": 7.517246558593751
    },
    {
      "instrumentId": 0,
      "instrumentName": "Piano",
      "isPercussion": false,
      "pitch": 48,
      "velocity": 76,
      "startTime": 6.3157700000000006,
      "duration": 1.2014765585937504,
      "endTime": 7.517246558593751
    },
    {
      "instrumentId": 0,
      "instrumentName": "Piano",
      "isPercussion": false,
      "pitch": 64,
      "velocity": 84,
      "startTime": 6.947347000000001,
      "duration": 0.6019718281250004,
      "endTime": 7.549318828125001
    },
    {
      "instrumentId": 0,
      "instrumentName": "Piano",
      "isPercussion": false,
      "pitch": 62,
      "velocity": 81,
      "startTime": 7.578924000000001,
      "duration": 0.6019718281250004,
      "endTime": 8.180895828125001
    },
    {
      "instrumentId": 0,
      "instrumentName": "Piano",
      "isPercussion": false,
      "pitch": 55,
      "velocity": 71,
      "startTime": 7.578924000000001,
      "duration": 1.2014765585937504,
      "endTime": 8.780400558593751
    },
    {
      "instrumentId": 0,
      "instrumentName": "Piano",
      "isPercussion": false,
      "pitch": 43,
      "velocity": 69,
      "startTime": 7.578924000000001,
      "duration": 1.2014765585937504,
      "endTime": 8.780400558593751
    },
    {
      "instrumentId": 0,
      "instrumentName": "Piano",
      "isPercussion": false,
      "pitch": 62,
      "velocity": 83,
      "startTime": 8.210501,
      "duration": 0.6019718281250004,
      "endTime": 8.812472828125001
    },
    {
      "instrumentId": 0,
      "instrumentName": "Piano",
      "isPercussion": false,
      "pitch": 60,
      "velocity": 81,
      "startTime": 8.842078,
      "duration": 1.2014765585937504,
      "endTime": 10.043554558593751
    },
    {
      "instrumentId": 0,
      "instrumentName": "Piano",
      "isPercussion": false,
      "pitch": 52,
      "velocity": 71,
      "startTime": 8.842078,
      "duration": 1.2014765585937504,
      "endTime": 10.043554558593751
    },
    {
      "instrumentId": 0,
      "instrumentName": "Piano",
      "isPercussion": false,
      "pitch": 48,
      "velocity": 75,
      "startTime": 8.842078,
      "duration": 1.2014765585937504,
      "endTime": 10.043554558593751
    },
    {
      "instrumentId": 0,
      "instrumentName": "Piano",
      "isPercussion": false,
      "pitch": 67,
      "velocity": 94,
      "startTime": 10.105232,
      "duration": 0.6019718281250004,
      "endTime": 10.707203828125001
    },
    {
      "instrumentId": 0,
      "instrumentName": "Piano",
      "isPercussion": false,
      "pitch": 60,
      "velocity": 80,
      "startTime": 10.105232,
      "duration": 1.2014765585937504,
      "endTime": 11.306708558593751
    },
    {
      "instrumentId": 0,
      "instrumentName": "Piano",
      "isPercussion": false,
      "pitch": 48,
      "velocity": 72,
      "startTime": 10.105232,
      "duration": 1.2014765585937504,
      "endTime": 11.306708558593751
    },
    {
      "instrumentId": 0,
      "instrumentName": "Piano",
      "isPercussion": false,
      "pitch": 67,
      "velocity": 83,
      "startTime": 10.736809000000001,
      "duration": 0.6019718281250004,
      "endTime": 11.338780828125001
    },
    {
      "instrumentId": 0,
      "instrumentName": "Piano",
      "isPercussion": false,
      "pitch": 65,
      "velocity": 81,
      "startTime": 11.368386000000001,
      "duration": 0.6019718281250004,
      "endTime": 11.970357828125001
    },
    {
      "instrumentId": 0,
      "instrumentName": "Piano",
      "isPercussion": false,
      "pitch": 57,
      "velocity": 71,
      "startTime": 11.368386000000001,
      "duration": 1.2014765585937504,
      "endTime": 12.569862558593751
    },
    {
      "instrumentId": 0,
      "instrumentName": "Piano",
      "isPercussion": false,
      "pitch": 41,
      "velocity": 68,
      "startTime": 11.368386000000001,
      "duration": 1.2014765585937504,
      "endTime": 12.569862558593751
    },
    {
      "instrumentId": 0,
      "instrumentName": "Piano",
      "isPercussion": false,
      "pitch": 65,
      "velocity": 84,
      "startTime": 11.999963000000001,
      "duration": 0.6019718281250004,
      "endTime": 12.601934828125001
    },
    {
      "instrumentId": 0,
      "instrumentName": "Piano",
      "isPercussion": false,
      "pitch": 64,
      "velocity": 82,
      "startTime": 12.631540000000001,
      "duration": 0.6019718281250004,
      "endTime": 13.233511828125001
    },
    {
      "instrumentId": 0,
      "instrumentName": "Piano",
      "isPercussion": false,
      "pitch": 55,
      "velocity": 70,
      "startTime": 12.631540000000001,
      "duration": 1.2014765585937504,
      "endTime": 13.833016558593751
    },
    {
      "instrumentId": 0,
      "instrumentName": "Piano",
      "isPercussion": false,
      "pitch": 43,
      "velocity": 73,
      "startTime": 12.631540000000001,
      "duration": 1.2014765585937504,
      "endTime": 13.833016558593751
    },
    {
      "instrumentId": 0,
      "instrumentName": "Piano",
      "isPercussion": false,
      "pitch": 64,
      "velocity": 84,
      "startTime": 13.263117000000001,
      "duration": 0.6019718281250004,
      "endTime": 13.865088828125002
    },
    {
      "instrumentId": 0,
      "instrumentName": "Piano",
      "isPercussion": false,
      "pitch": 62,
      "velocity": 82,
      "startTime": 13.894694000000001,
      "duration": 1.2014765585937504,
      "endTime": 15.096170558593752
    },
    {
      "instrumentId": 0,
      "instrumentName": "Piano",
      "isPercussion": false,
      "pitch": 55,
      "velocity": 67,
      "startTime": 13.894694000000001,
      "duration": 1.2014765585937504,
      "endTime": 15.096170558593752
    },
    {
      "instrumentId": 0,
      "instrumentName": "Piano",
      "isPercussion": false,
      "pitch": 43,
      "velocity": 72,
      "startTime": 13.894694000000001,
      "duration": 1.2014765585937504,
      "endTime": 15.096170558593752
    },
    {
      "instrumentId": 0,
      "instrumentName": "Piano",
      "isPercussion": false,
      "pitch": 67,
      "velocity": 90,
      "startTime": 15.157848000000001,
      "duration": 0.6019718281250004,
      "endTime": 15.759819828125002
    },
    {
      "instrumentId": 0,
      "instrumentName": "Piano",
      "isPercussion": false,
      "pitch": 60,
      "velocity": 76,
      "startTime": 15.157848000000001,
      "duration": 1.2014765585937504,
      "endTime": 16.35932455859375
    },
    {
      "instrumentId": 0,
      "instrumentName": "Piano",
      "isPercussion": false,
      "pitch": 48,
      "velocity": 73,
      "startTime": 15.157848000000001,
      "duration": 1.2014765585937504,
      "endTime": 16.35932455859375
    },
    {
      "instrumentId": 0,
      "instrumentName": "Piano",
      "isPercussion": false,
      "pitch": 67,
      "velocity": 84,
      "startTime": 15.789425000000001,
      "duration": 0.6019718281249986,
      "endTime": 16.391396828125
    },
    {
      "instrumentId": 0,
      "instrumentName": "Piano",
      "isPercussion": false,
      "pitch": 65,
      "velocity": 84,
      "startTime": 16.421002,
      "duration": 0.6019718281249986,
      "endTime": 17.022973828125
    },
    {
      "instrumentId": 0,
      "instrumentName": "Piano",
      "isPercussion": false,
      "pitch": 57,
      "velocity": 71,
      "startTime": 16.421002,
      "duration": 1.2014765585937504,
      "endTime": 17.622478558593752
    },
    {
      "instrumentId": 0,
      "instrumentName": "Piano",
      "isPercussion": false,
      "pitch": 41,
      "velocity": 68,
      "startTime": 16.421002,
      "duration": 1.2014765585937504,
      "endTime": 17.622478558593752
    },
    {
      "instrumentId": 0,
      "instrumentName": "Piano",
      "isPercussion": false,
      "pitch": 65,
      "velocity": 85,
      "startTime": 17.052579,
      "duration": 0.6019718281249986,
      "endTime": 17.654550828125
    },
    {
      "instrumentId": 0,
      "instrumentName": "Piano",
      "isPercussion": false,
      "pitch": 64,
      "velocity": 82,
      "startTime": 17.684156,
      "duration": 0.6019718281249986,
      "endTime": 18.286127828125
    },
    {
      "instrumentId": 0,
      "instrumentName": "Piano",
      "isPercussion": false,
      "pitch": 55,
      "velocity": 70,
      "startTime": 17.684156,
      "duration": 1.2014765585937504,
      "endTime": 18.885632558593752
    },
    {
      "instrumentId": 0,
      "instrumentName": "Piano",
      "isPercussion": false,
      "pitch": 43,
      "velocity": 73,
      "startTime": 17.684156,
      "duration": 1.2014765585937504,
      "endTime": 18.885632558593752
    },
    {
      "instrumentId": 0,
      "instrumentName": "Piano",
      "isPercussion": false,
      "pitch": 64,
      "velocity": 82,
      "startTime": 18.315733,
      "duration": 0.6019718281249986,
      "endTime": 18.917704828125
    },
    {
      "instrumentId": 0,
      "instrumentName": "Piano",
      "isPercussion": false,
      "pitch": 62,
      "velocity": 83,
      "startTime": 18.94731,
      "duration": 1.2014765585937504,
      "endTime": 20.148786558593752
    },
    {
      "instrumentId": 0,
      "instrumentName": "Piano",
      "isPercussion": false,
      "pitch": 55,
      "velocity": 70,
      "startTime": 18.94731,
      "duration": 1.2014765585937504,
      "endTime": 20.148786558593752
    },
    {
      "instrumentId": 0,
      "instrumentName": "Piano",
      "isPercussion": false,
      "pitch": 43,
      "velocity": 69,
      "startTime": 18.94731,
      "duration": 1.2014765585937504,
      "endTime": 20.148786558593752
    },
    {
      "instrumentId": 0,
      "instrumentName": "Piano",
      "isPercussion": false,
      "pitch": 60,
      "velocity": 82,
      "startTime": 20.210464,
      "duration": 0.6019718281249986,
      "endTime": 20.812435828125
    },
    {
      "instrumentId": 0,
      "instrumentName": "Piano",
      "isPercussion": false,
      "pitch": 52,
      "velocity": 69,
      "startTime": 20.210464,
      "duration": 1.2014765585937504,
      "endTime": 21.411940558593752
    },
    {
      "instrumentId": 0,
      "instrumentName": "Piano",
      "isPercussion": false,
      "pitch": 48,
      "velocity": 73,
      "startTime": 20.210464,
      "duration": 1.2014765585937504,
      "endTime": 21.411940558593752
    },
    {
      "instrumentId": 0,
      "instrumentName": "Piano",
      "isPercussion": false,
      "pitch": 60,
      "velocity": 83,
      "startTime": 20.842041000000002,
      "duration": 0.6019718281249986,
      "endTime": 21.444012828125
    },
    {
      "instrumentId": 0,
      "instrumentName": "Piano",
      "isPercussion": false,
      "pitch": 67,
      "velocity": 90,
      "startTime": 21.473618000000002,
      "duration": 0.6019718281249986,
      "endTime": 22.075589828125
    },
    {
      "instrumentId": 0,
      "instrumentName": "Piano",
      "isPercussion": false,
      "pitch": 60,
      "velocity": 80,
      "startTime": 21.473618000000002,
      "duration": 1.2014765585937504,
      "endTime": 22.675094558593752
    },
    {
      "instrumentId": 0,
      "instrumentName": "Piano",
      "isPercussion": false,
      "pitch": 48,
      "velocity": 72,
      "startTime": 21.473618000000002,
      "duration": 1.2014765585937504,
      "endTime": 22.675094558593752
    },
    {
      "instrumentId": 0,
      "instrumentName": "Piano",
      "isPercussion": false,
      "pitch": 67,
      "velocity": 83,
      "startTime": 22.105195000000002,
      "duration": 0.6019718281249986,
      "endTime": 22.707166828125
    },
    {
      "instrumentId": 0,
      "instrumentName": "Piano",
      "isPercussion": false,
      "pitch": 69,
      "velocity": 87,
      "startTime": 22.736772000000002,
      "duration": 0.6019718281249986,
      "endTime": 23.338743828125
    },
    {
      "instrumentId": 0,
      "instrumentName": "Piano",
      "isPercussion": false,
      "pitch": 60,
      "velocity": 69,
      "startTime": 22.736772000000002,
      "duration": 1.2014765585937504,
      "endTime": 23.938248558593752
    },
    {
      "instrumentId": 0,
      "instrumentName": "Piano",
      "isPercussion": false,
      "pitch": 41,
      "velocity": 68,
      "startTime": 22.736772000000002,
      "duration": 1.2014765585937504,
      "endTime": 23.938248558593752
    },
    {
      "instrumentId": 0,
      "instrumentName": "Piano",
      "isPercussion": false,
      "pitch": 69,
      "velocity": 81,
      "startTime": 23.368349000000002,
      "duration": 0.6019718281249986,
      "endTime": 23.970320828125
    },
    {
      "instrumentId": 0,
      "instrumentName": "Piano",
      "isPercussion": false,
      "pitch": 67,
      "velocity": 79,
      "startTime": 23.999926000000002,
      "duration": 1.2014765585937504,
      "endTime": 25.201402558593752
    },
    {
      "instrumentId": 0,
      "instrumentName": "Piano",
      "isPercussion": false,
      "pitch": 60,
      "velocity": 72,
      "startTime": 23.999926000000002,
      "duration": 1.2014765585937504,
      "endTime": 25.201402558593752
    },
    {
      "instrumentId": 0,
      "instrumentName": "Piano",
      "isPercussion": false,
      "pitch": 48,
      "velocity": 73,
      "startTime": 23.999926000000002,
      "duration": 1.2014765585937504,
      "endTime": 25.201402558593752
    },
    {
      "instrumentId": 0,
      "instrumentName": "Piano",
      "isPercussion": false,
      "pitch": 65,
      "velocity": 81,
      "startTime": 25.263080000000002,
      "duration": 0.6019718281249986,
      "endTime": 25.865051828125
    },
    {
      "instrumentId": 0,
      "instrumentName": "Piano",
      "isPercussion": false,
      "pitch": 57,
      "velocity": 69,
      "startTime": 25.263080000000002,
      "duration": 1.2014765585937504,
      "endTime": 26.464556558593753
    },
    {
      "instrumentId": 0,
      "instrumentName": "Piano",
      "isPercussion": false,
      "pitch": 41,
      "velocity": 68,
      "startTime": 25.263080000000002,
      "duration": 1.2014765585937504,
      "endTime": 26.464556558593753
    },
    {
      "instrumentId": 0,
      "instrumentName": "Piano",
      "isPercussion": false,
      "pitch": 65,
      "velocity": 83,
      "startTime": 25.894657000000002,
      "duration": 0.6019718281249986,
      "endTime": 26.496628828125
    },
    {
      "instrumentId": 0,
      "instrumentName": "Piano",
      "isPercussion": false,
      "pitch": 64,
      "velocity": 81,
      "startTime": 26.526234000000002,
      "duration": 0.6019718281249986,
      "endTime": 27.128205828125
    },
    {
      "instrumentId": 0,
      "instrumentName": "Piano",
      "isPercussion": false,
      "pitch": 55,
      "velocity": 70,
      "startTime": 26.526234000000002,
      "duration": 1.2014765585937504,
      "endTime": 27.727710558593753
    },
    {
      "instrumentId": 0,
      "instrumentName": "Piano",
      "isPercussion": false,
      "pitch": 48,
      "velocity": 75,
      "startTime": 26.526234000000002,
      "duration": 1.2014765585937504,
      "endTime": 27.727710558593753
    },
    {
      "instrumentId": 0,
      "instrumentName": "Piano",
      "isPercussion": false,
      "pitch": 64,
      "velocity": 84,
      "startTime": 27.157811000000002,
      "duration": 0.6019718281249986,
      "endTime": 27.759782828125
    },
    {
      "instrumentId": 0,
      "instrumentName": "Piano",
      "isPercussion": false,
      "pitch": 62,
      "velocity": 82,
      "startTime": 27.789388000000002,
      "duration": 0.6019718281249986,
      "endTime": 28.391359828125
    },
    {
      "instrumentId": 0,
      "instrumentName": "Piano",
      "isPercussion": false,
      "pitch": 55,
      "velocity": 71,
      "startTime": 27.789388000000002,
      "duration": 1.2014765585937504,
      "endTime": 28.990864558593753
    },
    {
      "instrumentId": 0,
      "instrumentName": "Piano",
      "isPercussion": false,
      "pitch": 43,
      "velocity": 69,
      "startTime": 27.789388000000002,
      "duration": 1.2014765585937504,
      "endTime": 28.990864558593753
    },
    {
      "instrumentId": 0,
      "instrumentName": "Piano",
      "isPercussion": false,
      "pitch": 62,
      "velocity": 83,
      "startTime": 28.420965000000002,
      "duration": 0.6019718281249986,
      "endTime": 29.022936828125
    },
    {
      "instrumentId": 0,
      "instrumentName": "Piano",
      "isPercussion": false,
      "pitch": 60,
      "velocity": 80,
      "startTime": 29.052542000000003,
      "duration": 1.2014765585937504,
      "endTime": 30.254018558593753
    },
    {
      "instrumentId": 0,
      "instrumentName": "Piano",
      "isPercussion": false,
      "pitch": 52,
      "velocity": 70,
      "startTime": 29.052542000000003,
      "duration": 1.2014765585937504,
      "endTime": 30.254018558593753
    },
    {
      "instrumentId": 0,
      "instrumentName": "Piano",
      "isPercussion": false,
      "pitch": 48,
      "velocity": 74,
      "startTime": 29.052542000000003,
      "duration": 1.2014765585937504,
      "endTime": 30.254018558593753
    }
  ]
}