{
  "metadata": {
    "file": "nightcall - kavinsky.mid",
    "duration": 101.05264000000001,
    "bpm": 94.99999208333399,
    "totalNotes": 575
  },
  "notes": [
    {
      "instrumentId": 0,
      "instrumentName": "Addictive Keys",
      "isPercussion": false,
      "pitch": 64,
      "velocity": 40,
      "startTime": 0.0,
      "duration": 0.3157895,
      "endTime": 0.3157895
    },
    {
      "instrumentId": 1,
      "instrumentName": "Addictive Keys",
      "isPercussion": false,
      "pitch": 33,
      "velocity": 48,
      "startTime": 0.0,
      "duration": 0.3157895,
      "endTime": 0.3157895
    },
    {
      "instrumentId": 1,
      "instrumentName": "Addictive Keys",
      "isPercussion": false,
      "pitch": 45,
      "velocity": 48,
      "startTime": 0.0,
      "duration": 0.3157895,
      "endTime": 0.3157895
    },
    {
      "instrumentId": 0,
      "instrumentName": "Addictive Keys",
      "isPercussion": false,
      "pitch": 69,
      "velocity": 64,
      "startTime": 0.3157895,
      "duration": 0.3157895,
      "endTime": 0.631579
    },
    {
      "instrumentId": 0,
      "instrumentName": "Addictive Keys",
      "isPercussion": false,
      "pitch": 72,
      "velocity": 64,
      "startTime": 0.631579,
      "duration": 0.31578950000000006,
      "endTime": 0.9473685000000001
    },
    {
      "instrumentId": 0,
      "instrumentName": "Addictive Keys",
      "isPercussion": false,
      "pitch": 64,
      "velocity": 40,
      "startTime": 0.9473685000000001,
      "duration": 0.31578949999999995,
      "endTime": 1.263158
    },
    {
      "instrumentId": 0,
      "instrumentName": "Addictive Keys",
      "isPercussion": false,
      "pitch": 69,
      "velocity": 64,
      "startTime": 1.263158,
      "duration": 0.31578950000000017,
      "endTime": 1.5789475000000002
    },
    {
      "instrumentId": 0,
      "instrumentName": "Addictive Keys",
      "isPercussion": false,
      "pitch": 72,
      "velocity": 64,
      "startTime": 1.5789475000000002,
      "duration": 0.31578949999999995,
      "endTime": 1.8947370000000001
    },
    {
      "instrumentId": 0,
      "instrumentName": "Addictive Keys",
      "isPercussion": false,
      "pitch": 64,
      "velocity": 40,
      "startTime": 1.8947370000000001,
      "duration": 0.31578950000000017,
      "endTime": 2.2105265000000003
    },
    {
      "instrumentId": 0,
      "instrumentName": "Addictive Keys",
      "isPercussion": false,
      "pitch": 69,
      "velocity": 64,
      "startTime": 2.2105265000000003,
      "duration": 0.3157894999999997,
      "endTime": 2.526316
    },
    {
      "instrumentId": 1,
      "instrumentName": "Addictive Keys",
      "isPercussion": false,
      "pitch": 35,
      "velocity": 48,
      "startTime": 2.2105265000000003,
      "duration": 0.3157894999999997,
      "endTime": 2.526316
    },
    {
      "instrumentId": 1,
      "instrumentName": "Addictive Keys",
      "isPercussion": false,
      "pitch": 47,
      "velocity": 48,
      "startTime": 2.2105265000000003,
      "duration": 0.3157894999999997,
      "endTime": 2.526316
    },
    {
      "instrumentId": 0,
      "instrumentName": "Addictive Keys",
      "isPercussion": false,
      "pitch": 62,
      "velocity": 40,
      "startTime": 2.526316,
      "duration": 0.31578950000000017,
      "endTime": 2.8421055
    },
    {
      "instrumentId": 0,
      "instrumentName": "Addictive Keys",
      "isPercussion": false,
      "pitch": 67,
      "velocity": 64,
      "startTime": 2.8421055,
      "duration": 0.31578950000000017,
      "endTime": 3.1578950000000003
    },
    {
      "instrumentId": 0,
      "instrumentName": "Addictive Keys",
      "isPercussion": false,
      "pitch": 71,
      "velocity": 64,
      "startTime": 3.1578950000000003,
      "duration": 0.3157894999999997,
      "endTime": 3.4736845
    },
    {
      "instrumentId": 0,
      "instrumentName": "Addictive Keys",
      "isPercussion": false,
      "pitch": 62,
      "velocity": 40,
      "startTime": 3.4736845,
      "duration": 0.31578950000000017,
      "endTime": 3.7894740000000002
    },
    {
      "instrumentId": 0,
      "instrumentName": "Addictive Keys",
      "isPercussion": false,
      "pitch": 67,
      "velocity": 64,
      "startTime": 3.7894740000000002,
      "duration": 0.31578950000000017,
      "endTime": 4.1052635
    },
    {
      "instrumentId": 0,
      "instrumentName": "Addictive Keys",
      "isPercussion": false,
      "pitch": 71,
      "velocity": 64,
      "startTime": 4.1052635,
      "duration": 0.31578950000000017,
      "endTime": 4.421053000000001
    },
    {
      "instrumentId": 0,
      "instrumentName": "Addictive Keys",
      "isPercussion": false,
      "pitch": 62,
      "velocity": 40,
      "startTime": 4.421053000000001,
      "duration": 0.3157894999999993,
      "endTime": 4.7368425
    },
    {
      "instrumentId": 1,
      "instrumentName": "Addictive Keys",
      "isPercussion": false,
      "pitch": 31,
      "velocity": 48,
      "startTime": 4.421053000000001,
      "duration": 0.3157894999999993,
      "endTime": 4.7368425
    },
    {
      "instrumentId": 1,
      "instrumentName": "Addictive Keys",
      "isPercussion": false,
      "pitch": 43,
      "velocity": 48,
      "startTime": 4.421053000000001,
      "duration": 0.3157894999999993,
      "endTime": 4.7368425
    },
    {
      "instrumentId": 0,
      "instrumentName": "Addictive Keys",
      "isPercussion": false,
      "pitch": 67,
      "velocity": 64,
      "startTime": 4.7368425,
      "duration": 0.31578950000000017,
      "endTime": 5.052632
    },
    {
      "instrumentId": 1,
      "instrumentName": "Addictive Keys",
      "isPercussion": false,
      "pitch": 29,
      "velocity": 48,
      "startTime": 4.7368425,
      "duration": 0.31578950000000017,
      "endTime": 5.052632
    },
    {
      "instrumentId": 1,
      "instrumentName": "Addictive Keys",
      "isPercussion": false,
      "pitch": 41,
      "velocity": 48,
      "startTime": 4.7368425,
      "duration": 0.31578950000000017,
      "endTime": 5.052632
    },
    {
      "instrumentId": 0,
      "instrumentName": "Addictive Keys",
      "isPercussion": false,
      "pitch": 60,
      "velocity": 40,
      "startTime": 5.052632,
      "duration": 0.31578950000000017,
      "endTime": 5.3684215
    },
    {
      "instrumentId": 0,
      "instrumentName": "Addictive Keys",
      "isPercussion": false,
      "pitch": 65,
      "velocity": 64,
      "startTime": 5.3684215,
      "duration": 0.31578950000000017,
      "endTime": 5.684211
    },
    {
      "instrumentId": 0,
      "instrumentName": "Addictive Keys",
      "isPercussion": false,
      "pitch": 69,
      "velocity": 64,
      "startTime": 5.684211,
      "duration": 0.31578950000000017,
      "endTime": 6.0000005000000005
    },
    {
      "instrumentId": 0,
      "instrumentName": "Addictive Keys",
      "isPercussion": false,
      "pitch": 60,
      "velocity": 40,
      "startTime": 6.0000005000000005,
      "duration": 0.31578950000000017,
      "endTime": 6.315790000000001
    },
    {
      "instrumentId": 0,
      "instrumentName": "Addictive Keys",
      "isPercussion": false,
      "pitch": 65,
      "velocity": 64,
      "startTime": 6.315790000000001,
      "duration": 0.3157894999999993,
      "endTime": 6.6315795
    },
    {
      "instrumentId": 0,
      "instrumentName": "Addictive Keys",
      "isPercussion": false,
      "pitch": 69,
      "velocity": 64,
      "startTime": 6.6315795,
      "duration": 0.31578950000000017,
      "endTime": 6.947369
    },
    {
      "instrumentId": 0,
      "instrumentName": "Addictive Keys",
      "isPercussion": false,
      "pitch": 60,
      "velocity": 40,
      "startTime": 6.947369,
      "duration": 0.31578950000000017,
      "endTime": 7.2631585
    },
    {
      "instrumentId": 1,
      "instrumentName": "Addictive Keys",
      "isPercussion": false,
      "pitch": 29,
      "velocity": 48,
      "startTime": 6.947369,
      "duration": 0.31578950000000017,
      "endTime": 7.2631585
    },
    {
      "instrumentId": 1,
      "instrumentName": "Addictive Keys",
      "isPercussion": false,
      "pitch": 41,
      "velocity": 48,
      "startTime": 6.947369,
      "duration": 0.31578950000000017,
      "endTime": 7.2631585
    },
    {
      "instrumentId": 0,
      "instrumentName": "Addictive Keys",
      "isPercussion": false,
      "pitch": 65,
      "velocity": 64,
      "startTime": 7.2631585,
      "duration": 0.31578950000000017,
      "endTime": 7.5789480000000005
    },
    {
      "instrumentId": 1,
      "instrumentName": "Addictive Keys",
      "isPercussion": false,
      "pitch": 38,
      "velocity": 48,
      "startTime": 7.2631585,
      "duration": 0.31578950000000017,
      "endTime": 7.5789480000000005
    },
    {
      "instrumentId": 1,
      "instrumentName": "Addictive Keys",
      "isPercussion": false,
      "pitch": 50,
      "velocity": 48,
      "startTime": 7.2631585,
      "duration": 0.31578950000000017,
      "endTime": 7.5789480000000005
    },
    {
      "instrumentId": 0,
      "instrumentName": "Addictive Keys",
      "isPercussion": false,
      "pitch": 62,
      "velocity": 40,
      "startTime": 7.5789480000000005,
      "duration": 0.31578950000000017,
      "endTime": 7.894737500000001
    },
    {
      "instrumentId": 0,
      "instrumentName": "Addictive Keys",
      "isPercussion": false,
      "pitch": 65,
      "velocity": 64,
      "startTime": 7.894737500000001,
      "duration": 0.31578950000000017,
      "endTime": 8.210527
    },
    {
      "instrumentId": 0,
      "instrumentName": "Addictive Keys",
      "isPercussion": false,
      "pitch": 69,
      "velocity": 64,
      "startTime": 8.210527,
      "duration": 0.3157894999999993,
      "endTime": 8.5263165
    },
    {
      "instrumentId": 0,
      "instrumentName": "Addictive Keys",
      "isPercussion": false,
      "pitch": 62,
      "velocity": 40,
      "startTime": 8.5263165,
      "duration": 0.31578950000000106,
      "endTime": 8.842106000000001
    },
    {
      "instrumentId": 0,
      "instrumentName": "Addictive Keys",
      "isPercussion": false,
      "pitch": 65,
      "velocity": 64,
      "startTime": 8.842106000000001,
      "duration": 0.3157894999999993,
      "endTime": 9.1578955
    },
    {
      "instrumentId": 0,
      "instrumentName": "Addictive Keys",
      "isPercussion": false,
      "pitch": 69,
      "velocity": 64,
      "startTime": 9.1578955,
      "duration": 0.3157894999999993,
      "endTime": 9.473685
    },
    {
      "instrumentId": 0,
      "instrumentName": "Addictive Keys",
      "isPercussion": false,
      "pitch": 62,
      "velocity": 31,
      "startTime": 9.473685,
      "duration": 0.31578950000000106,
      "endTime": 9.7894745
    },
    {
      "instrumentId": 1,
      "instrumentName": "Addictive Keys",
      "isPercussion": false,
      "pitch": 36,
      "velocity": 48,
      "startTime": 9.473685,
      "duration": 0.31578950000000106,
      "endTime": 9.7894745
    },
    {
      "instrumentId": 1,
      "instrumentName": "Addictive Keys",
      "isPercussion": false,
      "pitch": 48,
      "velocity": 48,
      "startTime": 9.473685,
      "duration": 0.31578950000000106,
      "endTime": 9.7894745
    },
    {
      "instrumentId": 0,
      "instrumentName": "Addictive Keys",
      "isPercussion": false,
      "pitch": 65,
      "velocity": 64,
      "startTime": 9.7894745,
      "duration": 0.3157894999999993,
      "endTime": 10.105264
    },
    {
      "instrumentId": 1,
      "instrumentName": "Addictive Keys",
      "isPercussion": false,
      "pitch": 33,
      "velocity": 48,
      "startTime": 9.7894745,
      "duration": 0.3157894999999993,
      "endTime": 10.105264
    },
    {
      "instrumentId": 1,
      "instrumentName": "Addictive Keys",
      "isPercussion": false,
      "pitch": 45,
      "velocity": 48,
      "startTime": 9.7894745,
      "duration": 0.3157894999999993,
      "endTime": 10.105264
    },
    {
      "instrumentId": 0,
      "instrumentName": "Addictive Keys",
      "isPercussion": false,
      "pitch": 64,
      "velocity": 28,
      "startTime": 10.105264,
      "duration": 0.31578950000000106,
      "endTime": 10.421053500000001
    },
    {
      "instrumentId": 0,
      "instrumentName": "Addictive Keys",
      "isPercussion": false,
      "pitch": 69,
      "velocity": 45,
      "startTime": 10.421053500000001,
      "duration": 0.3157894999999993,
      "endTime": 10.736843
    },
    {
      "instrumentId": 0,
      "instrumentName": "Addictive Keys",
      "isPercussion": false,
      "pitch": 72,
      "velocity": 45,
      "startTime": 10.736843,
      "duration": 0.3157894999999993,
      "endTime": 11.0526325
    },
    {
      "instrumentId": 0,
      "instrumentName": "Addictive Keys",
      "isPercussion": false,
      "pitch": 64,
      "velocity": 28,
      "startTime": 11.0526325,
      "duration": 0.31578950000000106,
      "endTime": 11.368422
    },
    {
      "instrumentId": 0,
      "instrumentName": "Addictive Keys",
      "isPercussion": false,
      "pitch": 69,
      "velocity": 45,
      "startTime": 11.368422,
      "duration": 0.3157894999999993,
      "endTime": 11.6842115
    },
    {
      "instrumentId": 0,
      "instrumentName": "Addictive Keys",
      "isPercussion": false,
      "pitch": 72,
      "velocity": 45,
      "startTime": 11.6842115,
      "duration": 0.31578950000000106,
      "endTime": 12.000001000000001
    },
    {
      "instrumentId": 0,
      "instrumentName": "Addictive Keys",
      "isPercussion": false,
      "pitch": 64,
      "velocity": 28,
      "startTime": 12.000001000000001,
      "duration": 0.3157894999999993,
      "endTime": 12.3157905
    },
    {
      "instrumentId": 0,
      "instrumentName": "Addictive Keys",
      "isPercussion": false,
      "pitch": 69,
      "velocity": 45,
      "startTime": 12.3157905,
      "duration": 0.31578950000000106,
      "endTime": 12.631580000000001
    },
    {
      "instrumentId": 1,
      "instrumentName": "Addictive Keys",
      "isPercussion": false,
      "pitch": 35,
      "velocity": 48,
      "startTime": 12.3157905,
      "duration": 0.31578950000000106,
      "endTime": 12.631580000000001
    },
    {
      "instrumentId": 1,
      "instrumentName": "Addictive Keys",
      "isPercussion": false,
      "pitch": 47,
      "velocity": 48,
      "startTime": 12.3157905,
      "duration": 0.31578950000000106,
      "endTime": 12.631580000000001
    },
    {
      "instrumentId": 0,
      "instrumentName": "Addictive Keys",
      "isPercussion": false,
      "pitch": 62,
      "velocity": 28,
      "startTime": 12.631580000000001,
      "duration": 0.3157894999999993,
      "endTime": 12.9473695
    },
    {
      "instrumentId": 0,
      "instrumentName": "Addictive Keys",
      "isPercussion": false,
      "pitch": 67,
      "velocity": 45,
      "startTime": 12.9473695,
      "duration": 0.3157894999999993,
      "endTime": 13.263159
    },
    {
      "instrumentId": 0,
      "instrumentName": "Addictive Keys",
      "isPercussion": false,
      "pitch": 71,
      "velocity": 45,
      "startTime": 13.263159,
      "duration": 0.31578950000000106,
      "endTime": 13.578948500000001
    },
    {
      "instrumentId": 0,
      "instrumentName": "Addictive Keys",
      "isPercussion": false,
      "pitch": 62,
      "velocity": 28,
      "startTime": 13.578948500000001,
      "duration": 0.3157894999999993,
      "endTime": 13.894738
    },
    {
      "instrumentId": 0,
      "instrumentName": "Addictive Keys",
      "isPercussion": false,
      "pitch": 67,
      "velocity": 45,
      "startTime": 13.894738,
      "duration": 0.31578950000000106,
      "endTime": 14.210527500000001
    },
    {
      "instrumentId": 0,
      "instrumentName": "Addictive Keys",
      "isPercussion": false,
      "pitch": 71,
      "velocity": 45,
      "startTime": 14.210527500000001,
      "duration": 0.3157894999999993,
      "endTime": 14.526317
    },
    {
      "instrumentId": 0,
      "instrumentName": "Addictive Keys",
      "isPercussion": false,
      "pitch": 62,
      "velocity": 28,
      "startTime": 14.526317,
      "duration": 0.3157894999999993,
      "endTime": 14.8421065
    },
    {
      "instrumentId": 1,
      "instrumentName": "Addictive Keys",
      "isPercussion": false,
      "pitch": 31,
      "velocity": 48,
      "startTime": 14.526317,
      "duration": 0.3157894999999993,
      "endTime": 14.8421065
    },
    {
      "instrumentId": 1,
      "instrumentName": "Addictive Keys",
      "isPercussion": false,
      "pitch": 43,
      "velocity": 48,
      "startTime": 14.526317,
      "duration": 0.3157894999999993,
      "endTime": 14.8421065
    },
    {
      "instrumentId": 0,
      "instrumentName": "Addictive Keys",
      "isPercussion": false,
      "pitch": 67,
      "velocity": 45,
      "startTime": 14.8421065,
      "duration": 0.31578950000000106,
      "endTime": 15.157896000000001
    },
    {
      "instrumentId": 1,
      "instrumentName": "Addictive Keys",
      "isPercussion": false,
      "pitch": 29,
      "velocity": 48,
      "startTime": 14.8421065,
      "duration": 0.31578950000000106,
      "endTime": 15.157896000000001
    },
    {
      "instrumentId": 1,
      "instrumentName": "Addictive Keys",
      "isPercussion": false,
      "pitch": 41,
      "velocity": 48,
      "startTime": 14.8421065,
      "duration": 0.31578950000000106,
      "endTime": 15.157896000000001
    },
    {
      "instrumentId": 0,
      "instrumentName": "Addictive Keys",
      "isPercussion": false,
      "pitch": 60,
      "velocity": 28,
      "startTime": 15.157896000000001,
      "duration": 0.3157894999999993,
      "endTime": 15.4736855
    },
    {
      "instrumentId": 0,
      "instrumentName": "Addictive Keys",
      "isPercussion": false,
      "pitch": 65,
      "velocity": 45,
      "startTime": 15.4736855,
      "duration": 0.31578950000000106,
      "endTime": 15.789475000000001
    },
    {
      "instrumentId": 0,
      "instrumentName": "Addictive Keys",
      "isPercussion": false,
      "pitch": 69,
      "velocity": 45,
      "startTime": 15.789475000000001,
      "duration": 0.3157894999999993,
      "endTime": 16.1052645
    },
    {
      "instrumentId": 0,
      "instrumentName": "Addictive Keys",
      "isPercussion": false,
      "pitch": 60,
      "velocity": 28,
      "startTime": 16.1052645,
      "duration": 0.31578950000000106,
      "endTime": 16.421054
    },
    {
      "instrumentId": 0,
      "instrumentName": "Addictive Keys",
      "isPercussion": false,
      "pitch": 65,
      "velocity": 45,
      "startTime": 16.421054,
      "duration": 0.3157894999999975,
      "endTime": 16.7368435
    },
    {
      "instrumentId": 0,
      "instrumentName": "Addictive Keys",
      "isPercussion": false,
      "pitch": 69,
      "velocity": 45,
      "startTime": 16.7368435,
      "duration": 0.31578950000000106,
      "endTime": 17.052633
    },
    {
      "instrumentId": 0,
      "instrumentName": "Addictive Keys",
      "isPercussion": false,
      "pitch": 60,
      "velocity": 28,
      "startTime": 17.052633,
      "duration": 0.31578950000000106,
      "endTime": 17.3684225
    },
    {
      "instrumentId": 1,
      "instrumentName": "Addictive Keys",
      "isPercussion": false,
      "pitch": 29,
      "velocity": 48,
      "startTime": 17.052633,
      "duration": 0.31578950000000106,
      "endTime": 17.3684225
    },
    {
      "instrumentId": 1,
      "instrumentName": "Addictive Keys",
      "isPercussion": false,
      "pitch": 41,
      "velocity": 48,
      "startTime": 17.052633,
      "duration": 0.31578950000000106,
      "endTime": 17.3684225
    },
    {
      "instrumentId": 0,
      "instrumentName": "Addictive Keys",
      "isPercussion": false,
      "pitch": 65,
      "velocity": 45,
      "startTime": 17.3684225,
      "duration": 0.31578950000000106,
      "endTime": 17.684212000000002
    },
    {
      "instrumentId": 1,
      "instrumentName": "Addictive Keys",
      "isPercussion": false,
      "pitch": 38,
      "velocity": 48,
      "startTime": 17.3684225,
      "duration": 0.31578950000000106,
      "endTime": 17.684212000000002
    },
    {
      "instrumentId": 1,
      "instrumentName": "Addictive Keys",
      "isPercussion": false,
      "pitch": 50,
      "velocity": 48,
      "startTime": 17.3684225,
      "duration": 0.31578950000000106,
      "endTime": 17.684212000000002
    },
    {
      "instrumentId": 0,
      "instrumentName": "Addictive Keys",
      "isPercussion": false,
      "pitch": 62,
      "velocity": 28,
      "startTime": 17.684212000000002,
      "duration": 0.3157894999999975,
      "endTime": 18.0000015
    },
    {
      "instrumentId": 0,
      "instrumentName": "Addictive Keys",
      "isPercussion": false,
      "pitch": 65,
      "velocity": 45,
      "startTime": 18.0000015,
      "duration": 0.31578950000000106,
      "endTime": 18.315791
    },
    {
      "instrumentId": 0,
      "instrumentName": "Addictive Keys",
      "isPercussion": false,
      "pitch": 69,
      "velocity": 45,
      "startTime": 18.315791,
      "duration": 0.31578950000000106,
      "endTime": 18.631580500000002
    },
    {
      "instrumentId": 0,
      "instrumentName": "Addictive Keys",
      "isPercussion": false,
      "pitch": 62,
      "velocity": 28,
      "startTime": 18.631580500000002,
      "duration": 0.3157894999999975,
      "endTime": 18.94737
    },
    {
      "instrumentId": 0,
      "instrumentName": "Addictive Keys",
      "isPercussion": false,
      "pitch": 65,
      "velocity": 45,
      "startTime": 18.94737,
      "duration": 0.31578950000000106,
      "endTime": 19.2631595
    },
    {
      "instrumentId": 0,
      "instrumentName": "Addictive Keys",
      "isPercussion": false,
      "pitch": 69,
      "velocity": 57,
      "startTime": 19.2631595,
      "duration": 0.31578950000000106,
      "endTime": 19.578949
    },
    {
      "instrumentId": 0,
      "instrumentName": "Addictive Keys",
      "isPercussion": false,
      "pitch": 69,
      "velocity": 57,
      "startTime": 19.578949,
      "duration": 0.31578950000000106,
      "endTime": 19.894738500000003
    },
    {
      "instrumentId": 0,
      "instrumentName": "Addictive Keys",
      "isPercussion": false,
      "pitch": 62,
      "velocity": 19,
      "startTime": 19.578949,
      "duration": 0.31578950000000106,
      "endTime": 19.894738500000003
    },
    {
      "instrumentId": 1,
      "instrumentName": "Addictive Keys",
      "isPercussion": false,
      "pitch": 36,
      "velocity": 48,
      "startTime": 19.578949,
      "duration": 0.31578950000000106,
      "endTime": 19.894738500000003
    },
    {
      "instrumentId": 1,
      "instrumentName": "Addictive Keys",
      "isPercussion": false,
      "pitch": 48,
      "velocity": 48,
      "startTime": 19.578949,
      "duration": 0.31578950000000106,
      "endTime": 19.894738500000003
    },
    {
      "instrumentId": 0,
      "instrumentName": "Addictive Keys",
      "isPercussion": false,
      "pitch": 69,
      "velocity": 58,
      "startTime": 19.894738500000003,
      "duration": 0.3157894999999975,
      "endTime": 20.210528
    },
    {
      "instrumentId": 0,
      "instrumentName": "Addictive Keys",
      "isPercussion": false,
      "pitch": 65,
      "velocity": 45,
      "startTime": 19.894738500000003,
      "duration": 0.3157894999999975,
      "endTime": 20.210528
    },
    {
      "instrumentId": 1,
      "instrumentName": "Addictive Keys",
      "isPercussion": false,
      "pitch": 33,
      "velocity": 48,
      "startTime": 19.894738500000003,
      "duration": 0.3157894999999975,
      "endTime": 20.210528
    },
    {
      "instrumentId": 1,
      "instrumentName": "Addictive Keys",
      "isPercussion": false,
      "pitch": 45,
      "velocity": 48,
      "startTime": 19.894738500000003,
      "duration": 0.3157894999999975,
      "endTime": 20.210528
    },
    {
      "instrumentId": 0,
      "instrumentName": "Addictive Keys",
      "isPercussion": false,
      "pitch": 72,
      "velocity": 58,
      "startTime": 20.210528,
      "duration": 0.31578950000000106,
      "endTime": 20.5263175
    },
    {
      "instrumentId": 0,
      "instrumentName": "Addictive Keys",
      "isPercussion": false,
      "pitch": 64,
      "velocity": 28,
      "startTime": 20.210528,
      "duration": 0.31578950000000106,
      "endTime": 20.5263175
    },
    {
      "instrumentId": 0,
      "instrumentName": "Addictive Keys",
      "isPercussion": false,
      "pitch": 72,
      "velocity": 58,
      "startTime": 20.5263175,
      "duration": 0.31578950000000106,
      "endTime": 20.842107000000002
    },
    {
      "instrumentId": 0,
      "instrumentName": "Addictive Keys",
      "isPercussion": false,
      "pitch": 69,
      "velocity": 45,
      "startTime": 20.5263175,
      "duration": 0.31578950000000106,
      "endTime": 20.842107000000002
    },
    {
      "instrumentId": 0,
      "instrumentName": "Addictive Keys",
      "isPercussion": false,
      "pitch": 72,
      "velocity": 58,
      "startTime": 20.842107000000002,
      "duration": 0.3157894999999975,
      "endTime": 21.1578965
    },
    {
      "instrumentId": 0,
      "instrumentName": "Addictive Keys",
      "isPercussion": false,
      "pitch": 64,
      "velocity": 28,
      "startTime": 21.1578965,
      "duration": 0.31578950000000106,
      "endTime": 21.473686
    },
    {
      "instrumentId": 0,
      "instrumentName": "Addictive Keys",
      "isPercussion": false,
      "pitch": 72,
      "velocity": 58,
      "startTime": 21.473686,
      "duration": 0.31578950000000106,
      "endTime": 21.7894755
    },
    {
      "instrumentId": 0,
      "instrumentName": "Addictive Keys",
      "isPercussion": false,
      "pitch": 69,
      "velocity": 45,
      "startTime": 21.473686,
      "duration": 0.31578950000000106,
      "endTime": 21.7894755
    },
    {
      "instrumentId": 0,
      "instrumentName": "Addictive Keys",
      "isPercussion": false,
      "pitch": 72,
      "velocity": 58,
      "startTime": 22.105265,
      "duration": 0.31578950000000106,
      "endTime": 22.4210545
    },
    {
      "instrumentId": 0,
      "instrumentName": "Addictive Keys",
      "isPercussion": false,
      "pitch": 64,
      "velocity": 28,
      "startTime": 22.105265,
      "duration": 0.31578950000000106,
      "endTime": 22.4210545
    },
    {
      "instrumentId": 0,
      "instrumentName": "Addictive Keys",
      "isPercussion": false,
      "pitch": 71,
      "velocity": 58,
      "startTime": 22.4210545,
      "duration": 0.31578950000000106,
      "endTime": 22.736844
    },
    {
      "instrumentId": 0,
      "instrumentName": "Addictive Keys",
      "isPercussion": false,
      "pitch": 69,
      "velocity": 45,
      "startTime": 22.4210545,
      "duration": 0.31578950000000106,
      "endTime": 22.736844
    },
    {
      "instrumentId": 1,
      "instrumentName": "Addictive Keys",
      "isPercussion": false,
      "pitch": 35,
      "velocity": 48,
      "startTime": 22.4210545,
      "duration": 0.31578950000000106,
      "endTime": 22.736844
    },
    {
      "instrumentId": 1,
      "instrumentName": "Addictive Keys",
      "isPercussion": false,
      "pitch": 47,
      "velocity": 48,
      "startTime": 22.4210545,
      "duration": 0.31578950000000106,
      "endTime": 22.736844
    },
    {
      "instrumentId": 0,
      "instrumentName": "Addictive Keys",
      "isPercussion": false,
      "pitch": 62,
      "velocity": 28,
      "startTime": 22.736844,
      "duration": 0.31578950000000106,
      "endTime": 23.052633500000002
    },
    {
      "instrumentId": 0,
      "instrumentName": "Addictive Keys",
      "isPercussion": false,
      "pitch": 71,
      "velocity": 59,
      "startTime": 23.052633500000002,
      "duration": 0.3157894999999975,
      "endTime": 23.368423
    },
    {
      "instrumentId": 0,
      "instrumentName": "Addictive Keys",
      "isPercussion": false,
      "pitch": 67,
      "velocity": 45,
      "startTime": 23.052633500000002,
      "duration": 0.3157894999999975,
      "endTime": 23.368423
    },
    {
      "instrumentId": 0,
      "instrumentName": "Addictive Keys",
      "isPercussion": false,
      "pitch": 62,
      "velocity": 28,
      "startTime": 23.6842125,
      "duration": 0.31578950000000106,
      "endTime": 24.000002000000002
    },
    {
      "instrumentId": 0,
      "instrumentName": "Addictive Keys",
      "isPercussion": false,
      "pitch": 71,
      "velocity": 59,
      "startTime": 24.000002000000002,
      "duration": 0.3157894999999975,
      "endTime": 24.3157915
    },
    {
      "instrumentId": 0,
      "instrumentName": "Addictive Keys",
      "isPercussion": false,
      "pitch": 67,
      "velocity": 45,
      "startTime": 24.000002000000002,
      "duration": 0.3157894999999975,
      "endTime": 24.3157915
    },
    {
      "instrumentId": 0,
      "instrumentName": "Addictive Keys",
      "isPercussion": false,
      "pitch": 71,
      "velocity": 59,
      "startTime": 24.3157915,
      "duration": 0.31578950000000106,
      "endTime": 24.631581
    },
    {
      "instrumentId": 0,
      "instrumentName": "Addictive Keys",
      "isPercussion": false,
      "pitch": 62,
      "velocity": 28,
      "startTime": 24.631581,
      "duration": 0.31578950000000106,
      "endTime": 24.9473705
    },
    {
      "instrumentId": 1,
      "instrumentName": "Addictive Keys",
      "isPercussion": false,
      "pitch": 31,
      "velocity": 48,
      "startTime": 24.631581,
      "duration": 0.31578950000000106,
      "endTime": 24.9473705
    },
    {
      "instrumentId": 1,
      "instrumentName": "Addictive Keys",
      "isPercussion": false,
      "pitch": 43,
      "velocity": 48,
      "startTime": 24.631581,
      "duration": 0.31578950000000106,
      "endTime": 24.9473705
    },
    {
      "instrumentId": 0,
      "instrumentName": "Addictive Keys",
      "isPercussion": false,
      "pitch": 69,
      "velocity": 59,
      "startTime": 24.9473705,
      "duration": 0.31578950000000106,
      "endTime": 25.263160000000003
    },
    {
      "instrumentId": 0,
      "instrumentName": "Addictive Keys",
      "isPercussion": false,
      "pitch": 67,
      "velocity": 45,
      "startTime": 24.9473705,
      "duration": 0.31578950000000106,
      "endTime": 25.263160000000003
    },
    {
      "instrumentId": 1,
      "instrumentName": "Addictive Keys",
      "isPercussion": false,
      "pitch": 29,
      "velocity": 48,
      "startTime": 24.9473705,
      "duration": 0.31578950000000106,
      "endTime": 25.263160000000003
    },
    {
      "instrumentId": 1,
      "instrumentName": "Addictive Keys",
      "isPercussion": false,
      "pitch": 41,
      "velocity": 48,
      "startTime": 24.9473705,
      "duration": 0.31578950000000106,
      "endTime": 25.263160000000003
    },
    {
      "instrumentId": 0,
      "instrumentName": "Addictive Keys",
      "isPercussion": false,
      "pitch": 60,
      "velocity": 28,
      "startTime": 25.263160000000003,
      "duration": 0.3157894999999975,
      "endTime": 25.5789495
    },
    {
      "instrumentId": 0,
      "instrumentName": "Addictive Keys",
      "isPercussion": false,
      "pitch": 65,
      "velocity": 45,
      "startTime": 25.5789495,
      "duration": 0.31578950000000106,
      "endTime": 25.894739
    },
    {
      "instrumentId": 0,
      "instrumentName": "Addictive Keys",
      "isPercussion": false,
      "pitch": 69,
      "velocity": 45,
      "startTime": 25.894739,
      "duration": 0.31578950000000106,
      "endTime": 26.210528500000002
    },
    {
      "instrumentId": 0,
      "instrumentName": "Addictive Keys",
      "isPercussion": false,
      "pitch": 60,
      "velocity": 28,
      "startTime": 26.210528500000002,
      "duration": 0.3157894999999975,
      "endTime": 26.526318
    },
    {
      "instrumentId": 0,
      "instrumentName": "Addictive Keys",
      "isPercussion": false,
      "pitch": 69,
      "velocity": 47,
      "startTime": 26.526318,
      "duration": 0.31578950000000106,
      "endTime": 26.8421075
    },
    {
      "instrumentId": 0,
      "instrumentName": "Addictive Keys",
      "isPercussion": false,
      "pitch": 65,
      "velocity": 45,
      "startTime": 26.526318,
      "duration": 0.31578950000000106,
      "endTime": 26.8421075
    },
    {
      "instrumentId": 0,
      "instrumentName": "Addictive Keys",
      "isPercussion": false,
      "pitch": 67,
      "velocity": 45,
      "startTime": 26.8421075,
      "duration": 0.31578950000000106,
      "endTime": 27.157897000000002
    },
    {
      "instrumentId": 0,
      "instrumentName": "Addictive Keys",
      "isPercussion": false,
      "pitch": 69,
      "velocity": 45,
      "startTime": 26.8421075,
      "duration": 0.31578950000000106,
      "endTime": 27.157897000000002
    },
    {
      "instrumentId": 0,
      "instrumentName": "Addictive Keys",
      "isPercussion": false,
      "pitch": 60,
      "velocity": 28,
      "startTime": 27.157897000000002,
      "duration": 0.31578950000000106,
      "endTime": 27.473686500000003
    },
    {
      "instrumentId": 1,
      "instrumentName": "Addictive Keys",
      "isPercussion": false,
      "pitch": 29,
      "velocity": 48,
      "startTime": 27.157897000000002,
      "duration": 0.31578950000000106,
      "endTime": 27.473686500000003
    },
    {
      "instrumentId": 1,
      "instrumentName": "Addictive Keys",
      "isPercussion": false,
      "pitch": 41,
      "velocity": 48,
      "startTime": 27.157897000000002,
      "duration": 0.31578950000000106,
      "endTime": 27.473686500000003
    },
    {
      "instrumentId": 0,
      "instrumentName": "Addictive Keys",
      "isPercussion": false,
      "pitch": 65,
      "velocity": 40,
      "startTime": 27.473686500000003,
      "duration": 0.3157894999999975,
      "endTime": 27.789476
    },
    {
      "instrumentId": 1,
      "instrumentName": "Addictive Keys",
      "isPercussion": false,
      "pitch": 26,
      "velocity": 48,
      "startTime": 27.473686500000003,
      "duration": 0.3157894999999975,
      "endTime": 27.789476
    },
    {
      "instrumentId": 1,
      "instrumentName": "Addictive Keys",
      "isPercussion": false,
      "pitch": 38,
      "velocity": 48,
      "startTime": 27.473686500000003,
      "duration": 0.3157894999999975,
      "endTime": 27.789476
    },
    {
      "instrumentId": 0,
      "instrumentName": "Addictive Keys",
      "isPercussion": false,
      "pitch": 62,
      "velocity": 28,
      "startTime": 27.789476,
      "duration": 0.31578950000000106,
      "endTime": 28.1052655
    },
    {
      "instrumentId": 0,
      "instrumentName": "Addictive Keys",
      "isPercussion": false,
      "pitch": 65,
      "velocity": 36,
      "startTime": 28.1052655,
      "duration": 0.31578950000000106,
      "endTime": 28.421055000000003
    },
    {
      "instrumentId": 0,
      "instrumentName": "Addictive Keys",
      "isPercussion": false,
      "pitch": 69,
      "velocity": 45,
      "startTime": 28.421055000000003,
      "duration": 0.3157894999999975,
      "endTime": 28.7368445
    },
    {
      "instrumentId": 0,
      "instrumentName": "Addictive Keys",
      "isPercussion": false,
      "pitch": 65,
      "velocity": 33,
      "startTime": 28.7368445,
      "duration": 0.31578950000000106,
      "endTime": 29.052634
    },
    {
      "instrumentId": 0,
      "instrumentName": "Addictive Keys",
      "isPercussion": false,
      "pitch": 62,
      "velocity": 28,
      "startTime": 28.7368445,
      "duration": 0.31578950000000106,
      "endTime": 29.052634
    },
    {
      "instrumentId": 0,
      "instrumentName": "Addictive Keys",
      "isPercussion": false,
      "pitch": 69,
      "velocity": 57,
      "startTime": 29.368423500000002,
      "duration": 0.3157894999999975,
      "endTime": 29.684213
    },
    {
      "instrumentId": 0,
      "instrumentName": "Addictive Keys",
      "isPercussion": false,
      "pitch": 69,
      "velocity": 57,
      "startTime": 29.684213,
      "duration": 0.31578950000000106,
      "endTime": 30.0000025
    },
    {
      "instrumentId": 0,
      "instrumentName": "Addictive Keys",
      "isPercussion": false,
      "pitch": 62,
      "velocity": 19,
      "startTime": 29.684213,
      "duration": 0.31578950000000106,
      "endTime": 30.0000025
    },
    {
      "instrumentId": 1,
      "instrumentName": "Addictive Keys",
      "isPercussion": false,
      "pitch": 36,
      "velocity": 48,
      "startTime": 29.684213,
      "duration": 0.31578950000000106,
      "endTime": 30.0000025
    },
    {
      "instrumentId": 1,
      "instrumentName": "Addictive Keys",
      "isPercussion": false,
      "pitch": 48,
      "velocity": 48,
      "startTime": 29.684213,
      "duration": 0.31578950000000106,
      "endTime": 30.0000025
    },
    {
      "instrumentId": 0,
      "instrumentName": "Addictive Keys",
      "isPercussion": false,
      "pitch": 69,
      "velocity": 58,
      "startTime": 30.0000025,
      "duration": 0.31578950000000106,
      "endTime": 30.315792000000002
    },
    {
      "instrumentId": 0,
      "instrumentName": "Addictive Keys",
      "isPercussion": false,
      "pitch": 65,
      "velocity": 45,
      "startTime": 30.0000025,
      "duration": 0.31578950000000106,
      "endTime": 30.315792000000002
    },
    {
      "instrumentId": 1,
      "instrumentName": "Addictive Keys",
      "isPercussion": false,
      "pitch": 33,
      "velocity": 48,
      "startTime": 30.0000025,
      "duration": 0.31578950000000106,
      "endTime": 30.315792000000002
    },
    {
      "instrumentId": 1,
      "instrumentName": "Addictive Keys",
      "isPercussion": false,
      "pitch": 45,
      "velocity": 48,
      "startTime": 30.0000025,
      "duration": 0.31578950000000106,
      "endTime": 30.315792000000002
    },
    {
      "instrumentId": 0,
      "instrumentName": "Addictive Keys",
      "isPercussion": false,
      "pitch": 72,
      "velocity": 58,
      "startTime": 30.315792000000002,
      "duration": 0.31578950000000106,
      "endTime": 30.631581500000003
    },
    {
      "instrumentId": 0,
      "instrumentName": "Addictive Keys",
      "isPercussion": false,
      "pitch": 64,
      "velocity": 28,
      "startTime": 30.315792000000002,
      "duration": 0.31578950000000106,
      "endTime": 30.631581500000003
    },
    {
      "instrumentId": 0,
      "instrumentName": "Addictive Keys",
      "isPercussion": false,
      "pitch": 69,
      "velocity": 45,
      "startTime": 30.631581500000003,
      "duration": 0.3157894999999975,
      "endTime": 30.947371
    },
    {
      "instrumentId": 0,
      "instrumentName": "Addictive Keys",
      "isPercussion": false,
      "pitch": 72,
      "velocity": 58,
      "startTime": 30.947371,
      "duration": 0.31578950000000106,
      "endTime": 31.2631605
    },
    {
      "instrumentId": 0,
      "instrumentName": "Addictive Keys",
      "isPercussion": false,
      "pitch": 64,
      "velocity": 28,
      "startTime": 31.2631605,
      "duration": 0.31578950000000106,
      "endTime": 31.578950000000003
    },
    {
      "instrumentId": 0,
      "instrumentName": "Addictive Keys",
      "isPercussion": false,
      "pitch": 72,
      "velocity": 58,
      "startTime": 31.578950000000003,
      "duration": 0.3157894999999975,
      "endTime": 31.8947395
    },
    {
      "instrumentId": 0,
      "instrumentName": "Addictive Keys",
      "isPercussion": false,
      "pitch": 69,
      "velocity": 45,
      "startTime": 31.578950000000003,
      "duration": 0.3157894999999975,
      "endTime": 31.8947395
    },
    {
      "instrumentId": 0,
      "instrumentName": "Addictive Keys",
      "isPercussion": false,
      "pitch": 72,
      "velocity": 58,
      "startTime": 32.210529,
      "duration": 0.31578950000000106,
      "endTime": 32.5263185
    },
    {
      "instrumentId": 0,
      "instrumentName": "Addictive Keys",
      "isPercussion": false,
      "pitch": 64,
      "velocity": 28,
      "startTime": 32.210529,
      "duration": 0.31578950000000106,
      "endTime": 32.5263185
    },
    {
      "instrumentId": 0,
      "instrumentName": "Addictive Keys",
      "isPercussion": false,
      "pitch": 71,
      "velocity": 58,
      "startTime": 32.5263185,
      "duration": 0.31578950000000106,
      "endTime": 32.842108
    },
    {
      "instrumentId": 0,
      "instrumentName": "Addictive Keys",
      "isPercussion": false,
      "pitch": 69,
      "velocity": 45,
      "startTime": 32.5263185,
      "duration": 0.31578950000000106,
      "endTime": 32.842108
    },
    {
      "instrumentId": 1,
      "instrumentName": "Addictive Keys",
      "isPercussion": false,
      "pitch": 35,
      "velocity": 48,
      "startTime": 32.5263185,
      "duration": 0.31578950000000106,
      "endTime": 32.842108
    },
    {
      "instrumentId": 1,
      "instrumentName": "Addictive Keys",
      "isPercussion": false,
      "pitch": 47,
      "velocity": 48,
      "startTime": 32.5263185,
      "duration": 0.31578950000000106,
      "endTime": 32.842108
    },
    {
      "instrumentId": 0,
      "instrumentName": "Addictive Keys",
      "isPercussion": false,
      "pitch": 62,
      "velocity": 28,
      "startTime": 32.842108,
      "duration": 0.31578950000000106,
      "endTime": 33.157897500000004
    },
    {
      "instrumentId": 0,
      "instrumentName": "Addictive Keys",
      "isPercussion": false,
      "pitch": 67,
      "velocity": 45,
      "startTime": 33.157897500000004,
      "duration": 0.31578949999999395,
      "endTime": 33.473687
    },
    {
      "instrumentId": 0,
      "instrumentName": "Addictive Keys",
      "isPercussion": false,
      "pitch": 71,
      "velocity": 45,
      "startTime": 33.473687,
      "duration": 0.31578950000000106,
      "endTime": 33.7894765
    },
    {
      "instrumentId": 0,
      "instrumentName": "Addictive Keys",
      "isPercussion": false,
      "pitch": 62,
      "velocity": 28,
      "startTime": 33.7894765,
      "duration": 0.31578950000000106,
      "endTime": 34.105266
    },
    {
      "instrumentId": 0,
      "instrumentName": "Addictive Keys",
      "isPercussion": false,
      "pitch": 71,
      "velocity": 59,
      "startTime": 34.105266,
      "duration": 0.31578950000000106,
      "endTime": 34.4210555
    },
    {
      "instrumentId": 0,
      "instrumentName": "Addictive Keys",
      "isPercussion": false,
      "pitch": 67,
      "velocity": 45,
      "startTime": 34.105266,
      "duration": 0.31578950000000106,
      "endTime": 34.4210555
    },
    {
      "instrumentId": 0,
      "instrumentName": "Addictive Keys",
      "isPercussion": false,
      "pitch": 71,
      "velocity": 59,
      "startTime": 34.736845,
      "duration": 0.31578950000000106,
      "endTime": 35.0526345
    },
    {
      "instrumentId": 0,
      "instrumentName": "Addictive Keys",
      "isPercussion": false,
      "pitch": 62,
      "velocity": 28,
      "startTime": 34.736845,
      "duration": 0.31578950000000106,
      "endTime": 35.0526345
    },
    {
      "instrumentId": 1,
      "instrumentName": "Addictive Keys",
      "isPercussion": false,
      "pitch": 31,
      "velocity": 48,
      "startTime": 34.736845,
      "duration": 0.31578950000000106,
      "endTime": 35.0526345
    },
    {
      "instrumentId": 1,
      "instrumentName": "Addictive Keys",
      "isPercussion": false,
      "pitch": 43,
      "velocity": 48,
      "startTime": 34.736845,
      "duration": 0.31578950000000106,
      "endTime": 35.0526345
    },
    {
      "instrumentId": 0,
      "instrumentName": "Addictive Keys",
      "isPercussion": false,
      "pitch": 69,
      "velocity": 59,
      "startTime": 35.0526345,
      "duration": 0.31578950000000106,
      "endTime": 35.368424000000005
    },
    {
      "instrumentId": 0,
      "instrumentName": "Addictive Keys",
      "isPercussion": false,
      "pitch": 67,
      "velocity": 45,
      "startTime": 35.0526345,
      "duration": 0.31578950000000106,
      "endTime": 35.368424000000005
    },
    {
      "instrumentId": 1,
      "instrumentName": "Addictive Keys",
      "isPercussion": false,
      "pitch": 29,
      "velocity": 48,
      "startTime": 35.0526345,
      "duration": 0.31578950000000106,
      "endTime": 35.368424000000005
    },
    {
      "instrumentId": 1,
      "instrumentName": "Addictive Keys",
      "isPercussion": false,
      "pitch": 41,
      "velocity": 48,
      "startTime": 35.0526345,
      "duration": 0.31578950000000106,
      "endTime": 35.368424000000005
    },
    {
      "instrumentId": 0,
      "instrumentName": "Addictive Keys",
      "isPercussion": false,
      "pitch": 60,
      "velocity": 28,
      "startTime": 35.368424000000005,
      "duration": 0.31578949999999395,
      "endTime": 35.6842135
    },
    {
      "instrumentId": 0,
      "instrumentName": "Addictive Keys",
      "isPercussion": false,
      "pitch": 65,
      "velocity": 45,
      "startTime": 35.6842135,
      "duration": 0.31578950000000106,
      "endTime": 36.000003
    },
    {
      "instrumentId": 0,
      "instrumentName": "Addictive Keys",
      "isPercussion": false,
      "pitch": 69,
      "velocity": 45,
      "startTime": 36.000003,
      "duration": 0.31578950000000106,
      "endTime": 36.3157925
    },
    {
      "instrumentId": 0,
      "instrumentName": "Addictive Keys",
      "isPercussion": false,
      "pitch": 60,
      "velocity": 28,
      "startTime": 36.3157925,
      "duration": 0.31578950000000106,
      "endTime": 36.631582
    },
    {
      "instrumentId": 0,
      "instrumentName": "Addictive Keys",
      "isPercussion": false,
      "pitch": 69,
      "velocity": 47,
      "startTime": 36.631582,
      "duration": 0.31578950000000106,
      "endTime": 36.9473715
    },
    {
      "instrumentId": 0,
      "instrumentName": "Addictive Keys",
      "isPercussion": false,
      "pitch": 65,
      "velocity": 45,
      "startTime": 36.631582,
      "duration": 0.31578950000000106,
      "endTime": 36.9473715
    },
    {
      "instrumentId": 0,
      "instrumentName": "Addictive Keys",
      "isPercussion": false,
      "pitch": 67,
      "velocity": 45,
      "startTime": 36.9473715,
      "duration": 0.31578950000000106,
      "endTime": 37.263161000000004
    },
    {
      "instrumentId": 0,
      "instrumentName": "Addictive Keys",
      "isPercussion": false,
      "pitch": 69,
      "velocity": 45,
      "startTime": 36.9473715,
      "duration": 0.31578950000000106,
      "endTime": 37.263161000000004
    },
    {
      "instrumentId": 0,
      "instrumentName": "Addictive Keys",
      "isPercussion": false,
      "pitch": 60,
      "velocity": 28,
      "startTime": 37.263161000000004,
      "duration": 0.31578950000000106,
      "endTime": 37.578950500000005
    },
    {
      "instrumentId": 1,
      "instrumentName": "Addictive Keys",
      "isPercussion": false,
      "pitch": 29,
      "velocity": 48,
      "startTime": 37.263161000000004,
      "duration": 0.31578950000000106,
      "endTime": 37.578950500000005
    },
    {
      "instrumentId": 1,
      "instrumentName": "Addictive Keys",
      "isPercussion": false,
      "pitch": 41,
      "velocity": 48,
      "startTime": 37.263161000000004,
      "duration": 0.31578950000000106,
      "endTime": 37.578950500000005
    },
    {
      "instrumentId": 0,
      "instrumentName": "Addictive Keys",
      "isPercussion": false,
      "pitch": 65,
      "velocity": 40,
      "startTime": 37.578950500000005,
      "duration": 0.31578949999999395,
      "endTime": 37.89474
    },
    {
      "instrumentId": 1,
      "instrumentName": "Addictive Keys",
      "isPercussion": false,
      "pitch": 26,
      "velocity": 48,
      "startTime": 37.578950500000005,
      "duration": 0.31578949999999395,
      "endTime": 37.89474
    },
    {
      "instrumentId": 1,
      "instrumentName": "Addictive Keys",
      "isPercussion": false,
      "pitch": 38,
      "velocity": 48,
      "startTime": 37.578950500000005,
      "duration": 0.31578949999999395,
      "endTime": 37.89474
    },
    {
      "instrumentId": 0,
      "instrumentName": "Addictive Keys",
      "isPercussion": false,
      "pitch": 62,
      "velocity": 28,
      "startTime": 37.89474,
      "duration": 0.31578950000000106,
      "endTime": 38.2105295
    },
    {
      "instrumentId": 0,
      "instrumentName": "Addictive Keys",
      "isPercussion": false,
      "pitch": 65,
      "velocity": 36,
      "startTime": 38.2105295,
      "duration": 0.31578950000000106,
      "endTime": 38.526319
    },
    {
      "instrumentId": 0,
      "instrumentName": "Addictive Keys",
      "isPercussion": false,
      "pitch": 69,
      "velocity": 45,
      "startTime": 38.526319,
      "duration": 0.31578950000000106,
      "endTime": 38.8421085
    },
    {
      "instrumentId": 0,
      "instrumentName": "Addictive Keys",
      "isPercussion": false,
      "pitch": 65,
      "velocity": 33,
      "startTime": 38.8421085,
      "duration": 0.31578950000000106,
      "endTime": 39.157898
    },
    {
      "instrumentId": 0,
      "instrumentName": "Addictive Keys",
      "isPercussion": false,
      "pitch": 62,
      "velocity": 28,
      "startTime": 38.8421085,
      "duration": 0.31578950000000106,
      "endTime": 39.157898
    },
    {
      "instrumentId": 0,
      "instrumentName": "Addictive Keys",
      "isPercussion": false,
      "pitch": 69,
      "velocity": 57,
      "startTime": 39.473687500000004,
      "duration": 0.31578950000000106,
      "endTime": 39.789477000000005
    },
    {
      "instrumentId": 0,
      "instrumentName": "Addictive Keys",
      "isPercussion": false,
      "pitch": 69,
      "velocity": 57,
      "startTime": 39.789477000000005,
      "duration": 0.31578949999999395,
      "endTime": 40.1052665
    },
    {
      "instrumentId": 0,
      "instrumentName": "Addictive Keys",
      "isPercussion": false,
      "pitch": 62,
      "velocity": 19,
      "startTime": 39.789477000000005,
      "duration": 0.31578949999999395,
      "endTime": 40.1052665
    },
    {
      "instrumentId": 1,
      "instrumentName": "Addictive Keys",
      "isPercussion": false,
      "pitch": 36,
      "velocity": 48,
      "startTime": 39.789477000000005,
      "duration": 0.31578949999999395,
      "endTime": 40.1052665
    },
    {
      "instrumentId": 1,
      "instrumentName": "Addictive Keys",
      "isPercussion": false,
      "pitch": 48,
      "velocity": 48,
      "startTime": 39.789477000000005,
      "duration": 0.31578949999999395,
      "endTime": 40.1052665
    },
    {
      "instrumentId": 0,
      "instrumentName": "Addictive Keys",
      "isPercussion": false,
      "pitch": 69,
      "velocity": 58,
      "startTime": 40.1052665,
      "duration": 0.31578950000000106,
      "endTime": 40.421056
    },
    {
      "instrumentId": 0,
      "instrumentName": "Addictive Keys",
      "isPercussion": false,
      "pitch": 65,
      "velocity": 45,
      "startTime": 40.1052665,
      "duration": 0.31578950000000106,
      "endTime": 40.421056
    },
    {
      "instrumentId": 1,
      "instrumentName": "Addictive Keys",
      "isPercussion": false,
      "pitch": 33,
      "velocity": 48,
      "startTime": 40.1052665,
      "duration": 0.31578950000000106,
      "endTime": 40.421056
    },
    {
      "instrumentId": 1,
      "instrumentName": "Addictive Keys",
      "isPercussion": false,
      "pitch": 45,
      "velocity": 48,
      "startTime": 40.1052665,
      "duration": 0.31578950000000106,
      "endTime": 40.421056
    },
    {
      "instrumentId": 0,
      "instrumentName": "Addictive Keys",
      "isPercussion": false,
      "pitch": 72,
      "velocity": 58,
      "startTime": 40.421056,
      "duration": 0.31578950000000106,
      "endTime": 40.7368455
    },
    {
      "instrumentId": 0,
      "instrumentName": "Addictive Keys",
      "isPercussion": false,
      "pitch": 64,
      "velocity": 28,
      "startTime": 40.421056,
      "duration": 0.31578950000000106,
      "endTime": 40.7368455
    },
    {
      "instrumentId": 0,
      "instrumentName": "Addictive Keys",
      "isPercussion": false,
      "pitch": 69,
      "velocity": 45,
      "startTime": 40.7368455,
      "duration": 0.31578950000000106,
      "endTime": 41.052635
    },
    {
      "instrumentId": 0,
      "instrumentName": "Addictive Keys",
      "isPercussion": false,
      "pitch": 72,
      "velocity": 58,
      "startTime": 41.052635,
      "duration": 0.31578950000000106,
      "endTime": 41.3684245
    },
    {
      "instrumentId": 0,
      "instrumentName": "Addictive Keys",
      "isPercussion": false,
      "pitch": 64,
      "velocity": 28,
      "startTime": 41.3684245,
      "duration": 0.31578950000000106,
      "endTime": 41.684214000000004
    },
    {
      "instrumentId": 0,
      "instrumentName": "Addictive Keys",
      "isPercussion": false,
      "pitch": 72,
      "velocity": 58,
      "startTime": 41.684214000000004,
      "duration": 0.31578950000000106,
      "endTime": 42.000003500000005
    },
    {
      "instrumentId": 0,
      "instrumentName": "Addictive Keys",
      "isPercussion": false,
      "pitch": 69,
      "velocity": 45,
      "startTime": 41.684214000000004,
      "duration": 0.31578950000000106,
      "endTime": 42.000003500000005
    },
    {
      "instrumentId": 0,
      "instrumentName": "Addictive Keys",
      "isPercussion": false,
      "pitch": 72,
      "velocity": 59,
      "startTime": 42.15789825,
      "duration": 0.31578950000000106,
      "endTime": 42.47368775
    },
    {
      "instrumentId": 0,
      "instrumentName": "Addictive Keys",
      "isPercussion": false,
      "pitch": 64,
      "velocity": 28,
      "startTime": 42.315793,
      "duration": 0.31578950000000106,
      "endTime": 42.6315825
    },
    {
      "instrumentId": 0,
      "instrumentName": "Addictive Keys",
      "isPercussion": false,
      "pitch": 71,
      "velocity": 58,
      "startTime": 42.6315825,
      "duration": 0.31578950000000106,
      "endTime": 42.947372
    },
    {
      "instrumentId": 0,
      "instrumentName": "Addictive Keys",
      "isPercussion": false,
      "pitch": 69,
      "velocity": 45,
      "startTime": 42.6315825,
      "duration": 0.31578950000000106,
      "endTime": 42.947372
    },
    {
      "instrumentId": 1,
      "instrumentName": "Addictive Keys",
      "isPercussion": false,
      "pitch": 35,
      "velocity": 48,
      "startTime": 42.6315825,
      "duration": 0.31578950000000106,
      "endTime": 42.947372
    },
    {
      "instrumentId": 1,
      "instrumentName": "Addictive Keys",
      "isPercussion": false,
      "pitch": 47,
      "velocity": 48,
      "startTime": 42.6315825,
      "duration": 0.31578950000000106,
      "endTime": 42.947372
    },
    {
      "instrumentId": 0,
      "instrumentName": "Addictive Keys",
      "isPercussion": false,
      "pitch": 62,
      "velocity": 28,
      "startTime": 42.947372,
      "duration": 0.31578950000000106,
      "endTime": 43.2631615
    },
    {
      "instrumentId": 0,
      "instrumentName": "Addictive Keys",
      "isPercussion": false,
      "pitch": 67,
      "velocity": 45,
      "startTime": 43.2631615,
      "duration": 0.31578950000000106,
      "endTime": 43.578951
    },
    {
      "instrumentId": 0,
      "instrumentName": "Addictive Keys",
      "isPercussion": false,
      "pitch": 71,
      "velocity": 45,
      "startTime": 43.578951,
      "duration": 0.31578950000000106,
      "endTime": 43.894740500000005
    },
    {
      "instrumentId": 0,
      "instrumentName": "Addictive Keys",
      "isPercussion": false,
      "pitch": 71,
      "velocity": 59,
      "startTime": 43.894740500000005,
      "duration": 0.31578949999999395,
      "endTime": 44.21053
    },
    {
      "instrumentId": 0,
      "instrumentName": "Addictive Keys",
      "isPercussion": false,
      "pitch": 62,
      "velocity": 28,
      "startTime": 43.894740500000005,
      "duration": 0.31578949999999395,
      "endTime": 44.21053
    },
    {
      "instrumentId": 0,
      "instrumentName": "Addictive Keys",
      "isPercussion": false,
      "pitch": 71,
      "velocity": 59,
      "startTime": 44.21053,
      "duration": 0.31578950000000106,
      "endTime": 44.5263195
    },
    {
      "instrumentId": 0,
      "instrumentName": "Addictive Keys",
      "isPercussion": false,
      "pitch": 67,
      "velocity": 45,
      "startTime": 44.21053,
      "duration": 0.31578950000000106,
      "endTime": 44.5263195
    },
    {
      "instrumentId": 0,
      "instrumentName": "Addictive Keys",
      "isPercussion": false,
      "pitch": 71,
      "velocity": 59,
      "startTime": 44.684214250000004,
      "duration": 0.31578950000000106,
      "endTime": 45.000003750000005
    },
    {
      "instrumentId": 0,
      "instrumentName": "Addictive Keys",
      "isPercussion": false,
      "pitch": 62,
      "velocity": 28,
      "startTime": 44.842109,
      "duration": 0.31578950000000106,
      "endTime": 45.1578985
    },
    {
      "instrumentId": 1,
      "instrumentName": "Addictive Keys",
      "isPercussion": false,
      "pitch": 31,
      "velocity": 48,
      "startTime": 44.842109,
      "duration": 0.31578950000000106,
      "endTime": 45.1578985
    },
    {
      "instrumentId": 1,
      "instrumentName": "Addictive Keys",
      "isPercussion": false,
      "pitch": 43,
      "velocity": 48,
      "startTime": 44.842109,
      "duration": 0.31578950000000106,
      "endTime": 45.1578985
    },
    {
      "instrumentId": 0,
      "instrumentName": "Addictive Keys",
      "isPercussion": false,
      "pitch": 69,
      "velocity": 59,
      "startTime": 45.1578985,
      "duration": 0.31578950000000106,
      "endTime": 45.473688
    },
    {
      "instrumentId": 0,
      "instrumentName": "Addictive Keys",
      "isPercussion": false,
      "pitch": 67,
      "velocity": 45,
      "startTime": 45.1578985,
      "duration": 0.31578950000000106,
      "endTime": 45.473688
    },
    {
      "instrumentId": 1,
      "instrumentName": "Addictive Keys",
      "isPercussion": false,
      "pitch": 29,
      "velocity": 48,
      "startTime": 45.1578985,
      "duration": 0.31578950000000106,
      "endTime": 45.473688
    },
    {
      "instrumentId": 1,
      "instrumentName": "Addictive Keys",
      "isPercussion": false,
      "pitch": 41,
      "velocity": 48,
      "startTime": 45.1578985,
      "duration": 0.31578950000000106,
      "endTime": 45.473688
    },
    {
      "instrumentId": 0,
      "instrumentName": "Addictive Keys",
      "isPercussion": false,
      "pitch": 60,
      "velocity": 28,
      "startTime": 45.473688,
      "duration": 0.31578950000000106,
      "endTime": 45.789477500000004
    },
    {
      "instrumentId": 0,
      "instrumentName": "Addictive Keys",
      "isPercussion": false,
      "pitch": 65,
      "velocity": 45,
      "startTime": 45.789477500000004,
      "duration": 0.31578950000000106,
      "endTime": 46.105267000000005
    },
    {
      "instrumentId": 0,
      "instrumentName": "Addictive Keys",
      "isPercussion": false,
      "pitch": 69,
      "velocity": 45,
      "startTime": 46.105267000000005,
      "duration": 0.31578949999999395,
      "endTime": 46.4210565
    },
    {
      "instrumentId": 0,
      "instrumentName": "Addictive Keys",
      "isPercussion": false,
      "pitch": 60,
      "velocity": 28,
      "startTime": 46.4210565,
      "duration": 0.31578950000000106,
      "endTime": 46.736846
    },
    {
      "instrumentId": 0,
      "instrumentName": "Addictive Keys",
      "isPercussion": false,
      "pitch": 69,
      "velocity": 47,
      "startTime": 46.736846,
      "duration": 0.31578950000000106,
      "endTime": 47.0526355
    },
    {
      "instrumentId": 0,
      "instrumentName": "Addictive Keys",
      "isPercussion": false,
      "pitch": 65,
      "velocity": 45,
      "startTime": 46.736846,
      "duration": 0.31578950000000106,
      "endTime": 47.0526355
    },
    {
      "instrumentId": 0,
      "instrumentName": "Addictive Keys",
      "isPercussion": false,
      "pitch": 67,
      "velocity": 45,
      "startTime": 47.0526355,
      "duration": 0.31578950000000106,
      "endTime": 47.368425
    },
    {
      "instrumentId": 0,
      "instrumentName": "Addictive Keys",
      "isPercussion": false,
      "pitch": 69,
      "velocity": 45,
      "startTime": 47.0526355,
      "duration": 0.31578950000000106,
      "endTime": 47.368425
    },
    {
      "instrumentId": 0,
      "instrumentName": "Addictive Keys",
      "isPercussion": false,
      "pitch": 60,
      "velocity": 28,
      "startTime": 47.368425,
      "duration": 0.31578950000000106,
      "endTime": 47.6842145
    },
    {
      "instrumentId": 1,
      "instrumentName": "Addictive Keys",
      "isPercussion": false,
      "pitch": 29,
      "velocity": 48,
      "startTime": 47.368425,
      "duration": 0.31578950000000106,
      "endTime": 47.6842145
    },
    {
      "instrumentId": 1,
      "instrumentName": "Addictive Keys",
      "isPercussion": false,
      "pitch": 41,
      "velocity": 48,
      "startTime": 47.368425,
      "duration": 0.31578950000000106,
      "endTime": 47.6842145
    },
    {
      "instrumentId": 0,
      "instrumentName": "Addictive Keys",
      "isPercussion": false,
      "pitch": 65,
      "velocity": 40,
      "startTime": 47.6842145,
      "duration": 0.31578950000000106,
      "endTime": 48.000004000000004
    },
    {
      "instrumentId": 1,
      "instrumentName": "Addictive Keys",
      "isPercussion": false,
      "pitch": 26,
      "velocity": 48,
      "startTime": 47.6842145,
      "duration": 0.31578950000000106,
      "endTime": 48.000004000000004
    },
    {
      "instrumentId": 1,
      "instrumentName": "Addictive Keys",
      "isPercussion": false,
      "pitch": 38,
      "velocity": 48,
      "startTime": 47.6842145,
      "duration": 0.31578950000000106,
      "endTime": 48.000004000000004
    },
    {
      "instrumentId": 0,
      "instrumentName": "Addictive Keys",
      "isPercussion": false,
      "pitch": 62,
      "velocity": 28,
      "startTime": 48.000004000000004,
      "duration": 0.31578950000000106,
      "endTime": 48.315793500000005
    },
    {
      "instrumentId": 0,
      "instrumentName": "Addictive Keys",
      "isPercussion": false,
      "pitch": 65,
      "velocity": 36,
      "startTime": 48.315793500000005,
      "duration": 0.31578949999999395,
      "endTime": 48.631583
    },
    {
      "instrumentId": 0,
      "instrumentName": "Addictive Keys",
      "isPercussion": false,
      "pitch": 69,
      "velocity": 45,
      "startTime": 48.631583,
      "duration": 0.31578950000000106,
      "endTime": 48.9473725
    },
    {
      "instrumentId": 0,
      "instrumentName": "Addictive Keys",
      "isPercussion": false,
      "pitch": 65,
      "velocity": 33,
      "startTime": 48.9473725,
      "duration": 0.31578950000000106,
      "endTime": 49.263162
    },
    {
      "instrumentId": 0,
      "instrumentName": "Addictive Keys",
      "isPercussion": false,
      "pitch": 62,
      "velocity": 28,
      "startTime": 48.9473725,
      "duration": 0.31578950000000106,
      "endTime": 49.263162
    },
    {
      "instrumentId": 0,
      "instrumentName": "Addictive Keys",
      "isPercussion": false,
      "pitch": 69,
      "velocity": 57,
      "startTime": 49.5789515,
      "duration": 0.31578950000000106,
      "endTime": 49.894741
    },
    {
      "instrumentId": 0,
      "instrumentName": "Addictive Keys",
      "isPercussion": false,
      "pitch": 69,
      "velocity": 57,
      "startTime": 49.894741,
      "duration": 0.31578950000000106,
      "endTime": 50.210530500000004
    },
    {
      "instrumentId": 0,
      "instrumentName": "Addictive Keys",
      "isPercussion": false,
      "pitch": 62,
      "velocity": 19,
      "startTime": 49.894741,
      "duration": 0.31578950000000106,
      "endTime": 50.210530500000004
    },
    {
      "instrumentId": 1,
      "instrumentName": "Addictive Keys",
      "isPercussion": false,
      "pitch": 36,
      "velocity": 48,
      "startTime": 49.894741,
      "duration": 0.31578950000000106,
      "endTime": 50.210530500000004
    },
    {
      "instrumentId": 1,
      "instrumentName": "Addictive Keys",
      "isPercussion": false,
      "pitch": 48,
      "velocity": 48,
      "startTime": 49.894741,
      "duration": 0.31578950000000106,
      "endTime": 50.210530500000004
    },
    {
      "instrumentId": 0,
      "instrumentName": "Addictive Keys",
      "isPercussion": false,
      "pitch": 69,
      "velocity": 58,
      "startTime": 50.210530500000004,
      "duration": 0.31578950000000106,
      "endTime": 50.526320000000005
    },
    {
      "instrumentId": 0,
      "instrumentName": "Addictive Keys",
      "isPercussion": false,
      "pitch": 65,
      "velocity": 45,
      "startTime": 50.210530500000004,
      "duration": 0.31578950000000106,
      "endTime": 50.526320000000005
    },
    {
      "instrumentId": 1,
      "instrumentName": "Addictive Keys",
      "isPercussion": false,
      "pitch": 33,
      "velocity": 48,
      "startTime": 50.210530500000004,
      "duration": 0.31578950000000106,
      "endTime": 50.526320000000005
    },
    {
      "instrumentId": 1,
      "instrumentName": "Addictive Keys",
      "isPercussion": false,
      "pitch": 45,
      "velocity": 48,
      "startTime": 50.210530500000004,
      "duration": 0.31578950000000106,
      "endTime": 50.526320000000005
    },
    {
      "instrumentId": 0,
      "instrumentName": "Addictive Keys",
      "isPercussion": false,
      "pitch": 72,
      "velocity": 58,
      "startTime": 50.526320000000005,
      "duration": 0.31578949999999395,
      "endTime": 50.8421095
    },
    {
      "instrumentId": 0,
      "instrumentName": "Addictive Keys",
      "isPercussion": false,
      "pitch": 64,
      "velocity": 28,
      "startTime": 50.526320000000005,
      "duration": 0.31578949999999395,
      "endTime": 50.8421095
    },
    {
      "instrumentId": 0,
      "instrumentName": "Addictive Keys",
      "isPercussion": false,
      "pitch": 69,
      "velocity": 45,
      "startTime": 50.8421095,
      "duration": 0.31578950000000106,
      "endTime": 51.157899
    },
    {
      "instrumentId": 0,
      "instrumentName": "Addictive Keys",
      "isPercussion": false,
      "pitch": 72,
      "velocity": 58,
      "startTime": 51.157899,
      "duration": 0.31578950000000106,
      "endTime": 51.4736885
    },
    {
      "instrumentId": 0,
      "instrumentName": "Addictive Keys",
      "isPercussion": false,
      "pitch": 64,
      "velocity": 28,
      "startTime": 51.4736885,
      "duration": 0.31578950000000106,
      "endTime": 51.789478
    },
    {
      "instrumentId": 0,
      "instrumentName": "Addictive Keys",
      "isPercussion": false,
      "pitch": 72,
      "velocity": 58,
      "startTime": 51.789478,
      "duration": 0.31578950000000106,
      "endTime": 52.105267500000004
    },
    {
      "instrumentId": 0,
      "instrumentName": "Addictive Keys",
      "isPercussion": false,
      "pitch": 69,
      "velocity": 45,
      "startTime": 51.789478,
      "duration": 0.31578950000000106,
      "endTime": 52.105267500000004
    },
    {
      "instrumentId": 0,
      "instrumentName": "Addictive Keys",
      "isPercussion": false,
      "pitch": 72,
      "velocity": 59,
      "startTime": 52.26316225,
      "duration": 0.31578950000000106,
      "endTime": 52.57895175
    },
    {
      "instrumentId": 0,
      "instrumentName": "Addictive Keys",
      "isPercussion": false,
      "pitch": 64,
      "velocity": 28,
      "startTime": 52.421057000000005,
      "duration": 0.31578950000000106,
      "endTime": 52.736846500000006
    },
    {
      "instrumentId": 0,
      "instrumentName": "Addictive Keys",
      "isPercussion": false,
      "pitch": 71,
      "velocity": 58,
      "startTime": 52.736846500000006,
      "duration": 0.31578949999999395,
      "endTime": 53.052636
    },
    {
      "instrumentId": 0,
      "instrumentName": "Addictive Keys",
      "isPercussion": false,
      "pitch": 69,
      "velocity": 45,
      "startTime": 52.736846500000006,
      "duration": 0.31578949999999395,
      "endTime": 53.052636
    },
    {
      "instrumentId": 1,
      "instrumentName": "Addictive Keys",
      "isPercussion": false,
      "pitch": 35,
      "velocity": 48,
      "startTime": 52.736846500000006,
      "duration": 0.31578949999999395,
      "endTime": 53.052636
    },
    {
      "instrumentId": 1,
      "instrumentName": "Addictive Keys",
      "isPercussion": false,
      "pitch": 47,
      "velocity": 48,
      "startTime": 52.736846500000006,
      "duration": 0.31578949999999395,
      "endTime": 53.052636
    },
    {
      "instrumentId": 0,
      "instrumentName": "Addictive Keys",
      "isPercussion": false,
      "pitch": 62,
      "velocity": 28,
      "startTime": 53.052636,
      "duration": 0.31578950000000106,
      "endTime": 53.3684255
    },
    {
      "instrumentId": 0,
      "instrumentName": "Addictive Keys",
      "isPercussion": false,
      "pitch": 67,
      "velocity": 45,
      "startTime": 53.3684255,
      "duration": 0.31578950000000106,
      "endTime": 53.684215
    },
    {
      "instrumentId": 0,
      "instrumentName": "Addictive Keys",
      "isPercussion": false,
      "pitch": 71,
      "velocity": 45,
      "startTime": 53.684215,
      "duration": 0.31578950000000106,
      "endTime": 54.0000045
    },
    {
      "instrumentId": 0,
      "instrumentName": "Addictive Keys",
      "isPercussion": false,
      "pitch": 71,
      "velocity": 59,
      "startTime": 54.0000045,
      "duration": 0.31578950000000106,
      "endTime": 54.315794000000004
    },
    {
      "instrumentId": 0,
      "instrumentName": "Addictive Keys",
      "isPercussion": false,
      "pitch": 62,
      "velocity": 28,
      "startTime": 54.0000045,
      "duration": 0.31578950000000106,
      "endTime": 54.315794000000004
    },
    {
      "instrumentId": 0,
      "instrumentName": "Addictive Keys",
      "isPercussion": false,
      "pitch": 71,
      "velocity": 59,
      "startTime": 54.315794000000004,
      "duration": 0.31578950000000106,
      "endTime": 54.631583500000005
    },
    {
      "instrumentId": 0,
      "instrumentName": "Addictive Keys",
      "isPercussion": false,
      "pitch": 67,
      "velocity": 45,
      "startTime": 54.315794000000004,
      "duration": 0.31578950000000106,
      "endTime": 54.631583500000005
    },
    {
      "instrumentId": 0,
      "instrumentName": "Addictive Keys",
      "isPercussion": false,
      "pitch": 71,
      "velocity": 59,
      "startTime": 54.78947825,
      "duration": 0.31578950000000106,
      "endTime": 55.10526775
    },
    {
      "instrumentId": 0,
      "instrumentName": "Addictive Keys",
      "isPercussion": false,
      "pitch": 62,
      "velocity": 28,
      "startTime": 54.947373000000006,
      "duration": 0.31578949999999395,
      "endTime": 55.2631625
    },
    {
      "instrumentId": 1,
      "instrumentName": "Addictive Keys",
      "isPercussion": false,
      "pitch": 31,
      "velocity": 48,
      "startTime": 54.947373000000006,
      "duration": 0.31578949999999395,
      "endTime": 55.2631625
    },
    {
      "instrumentId": 1,
      "instrumentName": "Addictive Keys",
      "isPercussion": false,
      "pitch": 43,
      "velocity": 48,
      "startTime": 54.947373000000006,
      "duration": 0.31578949999999395,
      "endTime": 55.2631625
    },
    {
      "instrumentId": 0,
      "instrumentName": "Addictive Keys",
      "isPercussion": false,
      "pitch": 69,
      "velocity": 59,
      "startTime": 55.2631625,
      "duration": 0.31578950000000106,
      "endTime": 55.578952
    },
    {
      "instrumentId": 0,
      "instrumentName": "Addictive Keys",
      "isPercussion": false,
      "pitch": 67,
      "velocity": 45,
      "startTime": 55.2631625,
      "duration": 0.31578950000000106,
      "endTime": 55.578952
    },
    {
      "instrumentId": 1,
      "instrumentName": "Addictive Keys",
      "isPercussion": false,
      "pitch": 29,
      "velocity": 48,
      "startTime": 55.2631625,
      "duration": 0.31578950000000106,
      "endTime": 55.578952
    },
    {
      "instrumentId": 1,
      "instrumentName": "Addictive Keys",
      "isPercussion": false,
      "pitch": 41,
      "velocity": 48,
      "startTime": 55.2631625,
      "duration": 0.31578950000000106,
      "endTime": 55.578952
    },
    {
      "instrumentId": 0,
      "instrumentName": "Addictive Keys",
      "isPercussion": false,
      "pitch": 60,
      "velocity": 28,
      "startTime": 55.578952,
      "duration": 0.31578950000000106,
      "endTime": 55.8947415
    },
    {
      "instrumentId": 0,
      "instrumentName": "Addictive Keys",
      "isPercussion": false,
      "pitch": 65,
      "velocity": 45,
      "startTime": 55.8947415,
      "duration": 0.31578950000000106,
      "endTime": 56.210531
    },
    {
      "instrumentId": 0,
      "instrumentName": "Addictive Keys",
      "isPercussion": false,
      "pitch": 69,
      "velocity": 45,
      "startTime": 56.210531,
      "duration": 0.31578950000000106,
      "endTime": 56.526320500000004
    },
    {
      "instrumentId": 0,
      "instrumentName": "Addictive Keys",
      "isPercussion": false,
      "pitch": 60,
      "velocity": 28,
      "startTime": 56.526320500000004,
      "duration": 0.31578950000000106,
      "endTime": 56.842110000000005
    },
    {
      "instrumentId": 0,
      "instrumentName": "Addictive Keys",
      "isPercussion": false,
      "pitch": 69,
      "velocity": 47,
      "startTime": 56.842110000000005,
      "duration": 0.31578949999999395,
      "endTime": 57.1578995
    },
    {
      "instrumentId": 0,
      "instrumentName": "Addictive Keys",
      "isPercussion": false,
      "pitch": 65,
      "velocity": 45,
      "startTime": 56.842110000000005,
      "duration": 0.31578949999999395,
      "endTime": 57.1578995
    },
    {
      "instrumentId": 0,
      "instrumentName": "Addictive Keys",
      "isPercussion": false,
      "pitch": 67,
      "velocity": 45,
      "startTime": 57.1578995,
      "duration": 0.31578950000000106,
      "endTime": 57.473689
    },
    {
      "instrumentId": 0,
      "instrumentName": "Addictive Keys",
      "isPercussion": false,
      "pitch": 69,
      "velocity": 45,
      "startTime": 57.1578995,
      "duration": 0.31578950000000106,
      "endTime": 57.473689
    },
    {
      "instrumentId": 0,
      "instrumentName": "Addictive Keys",
      "isPercussion": false,
      "pitch": 60,
      "velocity": 28,
      "startTime": 57.473689,
      "duration": 0.31578950000000106,
      "endTime": 57.7894785
    },
    {
      "instrumentId": 1,
      "instrumentName": "Addictive Keys",
      "isPercussion": false,
      "pitch": 29,
      "velocity": 48,
      "startTime": 57.473689,
      "duration": 0.31578950000000106,
      "endTime": 57.7894785
    },
    {
      "instrumentId": 1,
      "instrumentName": "Addictive Keys",
      "isPercussion": false,
      "pitch": 41,
      "velocity": 48,
      "startTime": 57.473689,
      "duration": 0.31578950000000106,
      "endTime": 57.7894785
    },
    {
      "instrumentId": 0,
      "instrumentName": "Addictive Keys",
      "isPercussion": false,
      "pitch": 65,
      "velocity": 40,
      "startTime": 57.7894785,
      "duration": 0.31578950000000106,
      "endTime": 58.105268
    },
    {
      "instrumentId": 1,
      "instrumentName": "Addictive Keys",
      "isPercussion": false,
      "pitch": 26,
      "velocity": 48,
      "startTime": 57.7894785,
      "duration": 0.31578950000000106,
      "endTime": 58.105268
    },
    {
      "instrumentId": 1,
      "instrumentName": "Addictive Keys",
      "isPercussion": false,
      "pitch": 38,
      "velocity": 48,
      "startTime": 57.7894785,
      "duration": 0.31578950000000106,
      "endTime": 58.105268
    },
    {
      "instrumentId": 0,
      "instrumentName": "Addictive Keys",
      "isPercussion": false,
      "pitch": 62,
      "velocity": 28,
      "startTime": 58.105268,
      "duration": 0.31578950000000106,
      "endTime": 58.4210575
    },
    {
      "instrumentId": 0,
      "instrumentName": "Addictive Keys",
      "isPercussion": false,
      "pitch": 65,
      "velocity": 36,
      "startTime": 58.4210575,
      "duration": 0.31578950000000106,
      "endTime": 58.736847000000004
    },
    {
      "instrumentId": 0,
      "instrumentName": "Addictive Keys",
      "isPercussion": false,
      "pitch": 69,
      "velocity": 45,
      "startTime": 58.736847000000004,
      "duration": 0.31578950000000106,
      "endTime": 59.052636500000006
    },
    {
      "instrumentId": 0,
      "instrumentName": "Addictive Keys",
      "isPercussion": false,
      "pitch": 65,
      "velocity": 33,
      "startTime": 59.052636500000006,
      "duration": 0.31578949999999395,
      "endTime": 59.368426
    },
    {
      "instrumentId": 0,
      "instrumentName": "Addictive Keys",
      "isPercussion": false,
      "pitch": 62,
      "velocity": 28,
      "startTime": 59.052636500000006,
      "duration": 0.31578949999999395,
      "endTime": 59.368426
    },
    {
      "instrumentId": 0,
      "instrumentName": "Addictive Keys",
      "isPercussion": false,
      "pitch": 69,
      "velocity": 45,
      "startTime": 59.6842155,
      "duration": 0.31578950000000106,
      "endTime": 60.000005
    },
    {
      "instrumentId": 0,
      "instrumentName": "Addictive Keys",
      "isPercussion": false,
      "pitch": 62,
      "velocity": 19,
      "startTime": 60.000005,
      "duration": 0.31578950000000106,
      "endTime": 60.3157945
    },
    {
      "instrumentId": 0,
      "instrumentName": "Addictive Keys",
      "isPercussion": false,
      "pitch": 65,
      "velocity": 45,
      "startTime": 60.3157945,
      "duration": 0.31578950000000106,
      "endTime": 60.631584000000004
    },
    {
      "instrumentId": 0,
      "instrumentName": "Addictive Keys",
      "isPercussion": false,
      "pitch": 72,
      "velocity": 53,
      "startTime": 60.631584000000004,
      "duration": 0.31578950000000106,
      "endTime": 60.947373500000005
    },
    {
      "instrumentId": 0,
      "instrumentName": "Addictive Keys",
      "isPercussion": false,
      "pitch": 69,
      "velocity": 51,
      "startTime": 60.631584000000004,
      "duration": 0.31578950000000106,
      "endTime": 60.947373500000005
    },
    {
      "instrumentId": 0,
      "instrumentName": "Addictive Keys",
      "isPercussion": false,
      "pitch": 65,
      "velocity": 51,
      "startTime": 60.631584000000004,
      "duration": 0.31578950000000106,
      "endTime": 60.947373500000005
    },
    {
      "instrumentId": 1,
      "instrumentName": "Addictive Keys",
      "isPercussion": false,
      "pitch": 29,
      "velocity": 32,
      "startTime": 60.631584000000004,
      "duration": 0.31578950000000106,
      "endTime": 60.947373500000005
    },
    {
      "instrumentId": 0,
      "instrumentName": "Addictive Keys",
      "isPercussion": false,
      "pitch": 69,
      "velocity": 22,
      "startTime": 60.947373500000005,
      "duration": 0.31578950000000106,
      "endTime": 61.263163000000006
    },
    {
      "instrumentId": 0,
      "instrumentName": "Addictive Keys",
      "isPercussion": false,
      "pitch": 72,
      "velocity": 53,
      "startTime": 61.263163000000006,
      "duration": 0.31578949999999395,
      "endTime": 61.5789525
    },
    {
      "instrumentId": 1,
      "instrumentName": "Addictive Keys",
      "isPercussion": false,
      "pitch": 41,
      "velocity": 32,
      "startTime": 61.263163000000006,
      "duration": 0.31578949999999395,
      "endTime": 61.5789525
    },
    {
      "instrumentId": 0,
      "instrumentName": "Addictive Keys",
      "isPercussion": false,
      "pitch": 69,
      "velocity": 76,
      "startTime": 61.5789525,
      "duration": 0.31578950000000106,
      "endTime": 61.894742
    },
    {
      "instrumentId": 0,
      "instrumentName": "Addictive Keys",
      "isPercussion": false,
      "pitch": 65,
      "velocity": 23,
      "startTime": 61.5789525,
      "duration": 0.31578950000000106,
      "endTime": 61.894742
    },
    {
      "instrumentId": 1,
      "instrumentName": "Addictive Keys",
      "isPercussion": false,
      "pitch": 29,
      "velocity": 32,
      "startTime": 61.5789525,
      "duration": 0.31578950000000106,
      "endTime": 61.894742
    },
    {
      "instrumentId": 0,
      "instrumentName": "Addictive Keys",
      "isPercussion": false,
      "pitch": 76,
      "velocity": 76,
      "startTime": 61.894742,
      "duration": 0.31578950000000106,
      "endTime": 62.2105315
    },
    {
      "instrumentId": 0,
      "instrumentName": "Addictive Keys",
      "isPercussion": false,
      "pitch": 69,
      "velocity": 40,
      "startTime": 61.894742,
      "duration": 0.31578950000000106,
      "endTime": 62.2105315
    },
    {
      "instrumentId": 0,
      "instrumentName": "Addictive Keys",
      "isPercussion": false,
      "pitch": 74,
      "velocity": 76,
      "startTime": 62.2105315,
      "duration": 0.31578950000000106,
      "endTime": 62.526321
    },
    {
      "instrumentId": 1,
      "instrumentName": "Addictive Keys",
      "isPercussion": false,
      "pitch": 29,
      "velocity": 32,
      "startTime": 62.2105315,
      "duration": 0.31578950000000106,
      "endTime": 62.526321
    },
    {
      "instrumentId": 0,
      "instrumentName": "Addictive Keys",
      "isPercussion": false,
      "pitch": 72,
      "velocity": 56,
      "startTime": 62.526321,
      "duration": 0.31578950000000106,
      "endTime": 62.842110500000004
    },
    {
      "instrumentId": 1,
      "instrumentName": "Addictive Keys",
      "isPercussion": false,
      "pitch": 41,
      "velocity": 32,
      "startTime": 62.526321,
      "duration": 0.31578950000000106,
      "endTime": 62.842110500000004
    },
    {
      "instrumentId": 0,
      "instrumentName": "Addictive Keys",
      "isPercussion": false,
      "pitch": 74,
      "velocity": 57,
      "startTime": 62.842110500000004,
      "duration": 0.31578950000000106,
      "endTime": 63.157900000000005
    },
    {
      "instrumentId": 0,
      "instrumentName": "Addictive Keys",
      "isPercussion": false,
      "pitch": 71,
      "velocity": 46,
      "startTime": 62.842110500000004,
      "duration": 0.31578950000000106,
      "endTime": 63.157900000000005
    },
    {
      "instrumentId": 0,
      "instrumentName": "Addictive Keys",
      "isPercussion": false,
      "pitch": 67,
      "velocity": 46,
      "startTime": 62.842110500000004,
      "duration": 0.31578950000000106,
      "endTime": 63.157900000000005
    },
    {
      "instrumentId": 1,
      "instrumentName": "Addictive Keys",
      "isPercussion": false,
      "pitch": 31,
      "velocity": 32,
      "startTime": 62.842110500000004,
      "duration": 0.31578950000000106,
      "endTime": 63.157900000000005
    },
    {
      "instrumentId": 0,
      "instrumentName": "Addictive Keys",
      "isPercussion": false,
      "pitch": 67,
      "velocity": 28,
      "startTime": 63.157900000000005,
      "duration": 0.31578950000000106,
      "endTime": 63.473689500000006
    },
    {
      "instrumentId": 0,
      "instrumentName": "Addictive Keys",
      "isPercussion": false,
      "pitch": 71,
      "velocity": 43,
      "startTime": 63.473689500000006,
      "duration": 0.31578949999999395,
      "endTime": 63.789479
    },
    {
      "instrumentId": 0,
      "instrumentName": "Addictive Keys",
      "isPercussion": false,
      "pitch": 76,
      "velocity": 56,
      "startTime": 63.473689500000006,
      "duration": 0.6315790000000021,
      "endTime": 64.10526850000001
    },
    {
      "instrumentId": 0,
      "instrumentName": "Addictive Keys",
      "isPercussion": false,
      "pitch": 74,
      "velocity": 45,
      "startTime": 63.789479,
      "duration": 0.31578950000000816,
      "endTime": 64.10526850000001
    },
    {
      "instrumentId": 1,
      "instrumentName": "Addictive Keys",
      "isPercussion": false,
      "pitch": 43,
      "velocity": 32,
      "startTime": 63.789479,
      "duration": 0.31578950000000816,
      "endTime": 64.10526850000001
    },
    {
      "instrumentId": 0,
      "instrumentName": "Addictive Keys",
      "isPercussion": false,
      "pitch": 67,
      "velocity": 15,
      "startTime": 64.10526850000001,
      "duration": 0.31578949999999395,
      "endTime": 64.421058
    },
    {
      "instrumentId": 1,
      "instrumentName": "Addictive Keys",
      "isPercussion": false,
      "pitch": 31,
      "velocity": 32,
      "startTime": 64.10526850000001,
      "duration": 0.31578949999999395,
      "endTime": 64.421058
    },
    {
      "instrumentId": 0,
      "instrumentName": "Addictive Keys",
      "isPercussion": false,
      "pitch": 71,
      "velocity": 28,
      "startTime": 64.421058,
      "duration": 0.31578949999999395,
      "endTime": 64.7368475
    },
    {
      "instrumentId": 0,
      "instrumentName": "Addictive Keys",
      "isPercussion": false,
      "pitch": 74,
      "velocity": 63,
      "startTime": 64.7368475,
      "duration": 0.6315790000000021,
      "endTime": 65.3684265
    },
    {
      "instrumentId": 1,
      "instrumentName": "Addictive Keys",
      "isPercussion": false,
      "pitch": 31,
      "velocity": 32,
      "startTime": 64.7368475,
      "duration": 0.31578950000000816,
      "endTime": 65.052637
    },
    {
      "instrumentId": 1,
      "instrumentName": "Addictive Keys",
      "isPercussion": false,
      "pitch": 43,
      "velocity": 32,
      "startTime": 65.052637,
      "duration": 0.31578949999999395,
      "endTime": 65.3684265
    },
    {
      "instrumentId": 0,
      "instrumentName": "Addictive Keys",
      "isPercussion": false,
      "pitch": 71,
      "velocity": 51,
      "startTime": 65.3684265,
      "duration": 0.31578950000000816,
      "endTime": 65.684216
    },
    {
      "instrumentId": 0,
      "instrumentName": "Addictive Keys",
      "isPercussion": false,
      "pitch": 67,
      "velocity": 51,
      "startTime": 65.3684265,
      "duration": 0.31578950000000816,
      "endTime": 65.684216
    },
    {
      "instrumentId": 0,
      "instrumentName": "Addictive Keys",
      "isPercussion": false,
      "pitch": 64,
      "velocity": 51,
      "startTime": 65.3684265,
      "duration": 0.31578950000000816,
      "endTime": 65.684216
    },
    {
      "instrumentId": 1,
      "instrumentName": "Addictive Keys",
      "isPercussion": false,
      "pitch": 33,
      "velocity": 32,
      "startTime": 65.3684265,
      "duration": 0.31578950000000816,
      "endTime": 65.684216
    },
    {
      "instrumentId": 0,
      "instrumentName": "Addictive Keys",
      "isPercussion": false,
      "pitch": 64,
      "velocity": 14,
      "startTime": 65.684216,
      "duration": 0.31578949999999395,
      "endTime": 66.0000055
    },
    {
      "instrumentId": 1,
      "instrumentName": "Addictive Keys",
      "isPercussion": false,
      "pitch": 28,
      "velocity": 32,
      "startTime": 65.684216,
      "duration": 0.31578949999999395,
      "endTime": 66.0000055
    },
    {
      "instrumentId": 0,
      "instrumentName": "Addictive Keys",
      "isPercussion": false,
      "pitch": 67,
      "velocity": 36,
      "startTime": 66.0000055,
      "duration": 0.31578950000000816,
      "endTime": 66.31579500000001
    },
    {
      "instrumentId": 0,
      "instrumentName": "Addictive Keys",
      "isPercussion": false,
      "pitch": 71,
      "velocity": 53,
      "startTime": 66.31579500000001,
      "duration": 0.31578949999999395,
      "endTime": 66.6315845
    },
    {
      "instrumentId": 1,
      "instrumentName": "Addictive Keys",
      "isPercussion": false,
      "pitch": 40,
      "velocity": 32,
      "startTime": 66.31579500000001,
      "duration": 0.31578949999999395,
      "endTime": 66.6315845
    },
    {
      "instrumentId": 0,
      "instrumentName": "Addictive Keys",
      "isPercussion": false,
      "pitch": 67,
      "velocity": 70,
      "startTime": 66.6315845,
      "duration": 0.31578949999999395,
      "endTime": 66.947374
    },
    {
      "instrumentId": 0,
      "instrumentName": "Addictive Keys",
      "isPercussion": false,
      "pitch": 64,
      "velocity": 17,
      "startTime": 66.6315845,
      "duration": 0.31578949999999395,
      "endTime": 66.947374
    },
    {
      "instrumentId": 1,
      "instrumentName": "Addictive Keys",
      "isPercussion": false,
      "pitch": 28,
      "velocity": 32,
      "startTime": 66.6315845,
      "duration": 0.31578949999999395,
      "endTime": 66.947374
    },
    {
      "instrumentId": 0,
      "instrumentName": "Addictive Keys",
      "isPercussion": false,
      "pitch": 76,
      "velocity": 70,
      "startTime": 66.947374,
      "duration": 0.31578950000000816,
      "endTime": 67.2631635
    },
    {
      "instrumentId": 0,
      "instrumentName": "Addictive Keys",
      "isPercussion": false,
      "pitch": 67,
      "velocity": 41,
      "startTime": 66.947374,
      "duration": 0.31578950000000816,
      "endTime": 67.2631635
    },
    {
      "instrumentId": 0,
      "instrumentName": "Addictive Keys",
      "isPercussion": false,
      "pitch": 74,
      "velocity": 70,
      "startTime": 67.2631635,
      "duration": 0.31578949999999395,
      "endTime": 67.578953
    },
    {
      "instrumentId": 0,
      "instrumentName": "Addictive Keys",
      "isPercussion": false,
      "pitch": 71,
      "velocity": 46,
      "startTime": 67.2631635,
      "duration": 0.31578949999999395,
      "endTime": 67.578953
    },
    {
      "instrumentId": 1,
      "instrumentName": "Addictive Keys",
      "isPercussion": false,
      "pitch": 28,
      "velocity": 32,
      "startTime": 67.2631635,
      "duration": 0.31578949999999395,
      "endTime": 67.578953
    },
    {
      "instrumentId": 0,
      "instrumentName": "Addictive Keys",
      "isPercussion": false,
      "pitch": 72,
      "velocity": 70,
      "startTime": 67.578953,
      "duration": 0.31578950000000816,
      "endTime": 67.8947425
    },
    {
      "instrumentId": 1,
      "instrumentName": "Addictive Keys",
      "isPercussion": false,
      "pitch": 23,
      "velocity": 32,
      "startTime": 67.578953,
      "duration": 0.31578950000000816,
      "endTime": 67.8947425
    },
    {
      "instrumentId": 0,
      "instrumentName": "Addictive Keys",
      "isPercussion": false,
      "pitch": 72,
      "velocity": 70,
      "startTime": 67.8947425,
      "duration": 0.31578949999999395,
      "endTime": 68.210532
    },
    {
      "instrumentId": 0,
      "instrumentName": "Addictive Keys",
      "isPercussion": false,
      "pitch": 69,
      "velocity": 51,
      "startTime": 67.8947425,
      "duration": 0.31578949999999395,
      "endTime": 68.210532
    },
    {
      "instrumentId": 0,
      "instrumentName": "Addictive Keys",
      "isPercussion": false,
      "pitch": 65,
      "velocity": 51,
      "startTime": 67.8947425,
      "duration": 0.31578949999999395,
      "endTime": 68.210532
    },
    {
      "instrumentId": 1,
      "instrumentName": "Addictive Keys",
      "isPercussion": false,
      "pitch": 29,
      "velocity": 32,
      "startTime": 67.8947425,
      "duration": 0.31578949999999395,
      "endTime": 68.210532
    },
    {
      "instrumentId": 0,
      "instrumentName": "Addictive Keys",
      "isPercussion": false,
      "pitch": 65,
      "velocity": 20,
      "startTime": 68.210532,
      "duration": 0.31578950000000816,
      "endTime": 68.52632150000001
    },
    {
      "instrumentId": 0,
      "instrumentName": "Addictive Keys",
      "isPercussion": false,
      "pitch": 69,
      "velocity": 33,
      "startTime": 68.52632150000001,
      "duration": 0.31578949999999395,
      "endTime": 68.842111
    },
    {
      "instrumentId": 1,
      "instrumentName": "Addictive Keys",
      "isPercussion": false,
      "pitch": 29,
      "velocity": 32,
      "startTime": 68.52632150000001,
      "duration": 0.31578949999999395,
      "endTime": 68.842111
    },
    {
      "instrumentId": 0,
      "instrumentName": "Addictive Keys",
      "isPercussion": false,
      "pitch": 72,
      "velocity": 39,
      "startTime": 68.842111,
      "duration": 0.31578949999999395,
      "endTime": 69.1579005
    },
    {
      "instrumentId": 1,
      "instrumentName": "Addictive Keys",
      "isPercussion": false,
      "pitch": 41,
      "velocity": 32,
      "startTime": 68.842111,
      "duration": 0.31578949999999395,
      "endTime": 69.1579005
    },
    {
      "instrumentId": 0,
      "instrumentName": "Addictive Keys",
      "isPercussion": false,
      "pitch": 65,
      "velocity": 26,
      "startTime": 69.1579005,
      "duration": 0.31578950000000816,
      "endTime": 69.47369
    },
    {
      "instrumentId": 1,
      "instrumentName": "Addictive Keys",
      "isPercussion": false,
      "pitch": 29,
      "velocity": 32,
      "startTime": 69.1579005,
      "duration": 0.31578950000000816,
      "endTime": 69.47369
    },
    {
      "instrumentId": 0,
      "instrumentName": "Addictive Keys",
      "isPercussion": false,
      "pitch": 69,
      "velocity": 37,
      "startTime": 69.47369,
      "duration": 0.31578949999999395,
      "endTime": 69.7894795
    },
    {
      "instrumentId": 0,
      "instrumentName": "Addictive Keys",
      "isPercussion": false,
      "pitch": 72,
      "velocity": 49,
      "startTime": 69.7894795,
      "duration": 0.6315790000000021,
      "endTime": 70.4210585
    },
    {
      "instrumentId": 1,
      "instrumentName": "Addictive Keys",
      "isPercussion": false,
      "pitch": 41,
      "velocity": 32,
      "startTime": 69.7894795,
      "duration": 0.31578950000000816,
      "endTime": 70.105269
    },
    {
      "instrumentId": 1,
      "instrumentName": "Addictive Keys",
      "isPercussion": false,
      "pitch": 29,
      "velocity": 32,
      "startTime": 70.105269,
      "duration": 0.31578949999999395,
      "endTime": 70.4210585
    },
    {
      "instrumentId": 0,
      "instrumentName": "Addictive Keys",
      "isPercussion": false,
      "pitch": 69,
      "velocity": 40,
      "startTime": 70.4210585,
      "duration": 0.31578950000000816,
      "endTime": 70.73684800000001
    },
    {
      "instrumentId": 1,
      "instrumentName": "Addictive Keys",
      "isPercussion": false,
      "pitch": 41,
      "velocity": 32,
      "startTime": 70.4210585,
      "duration": 0.31578950000000816,
      "endTime": 70.73684800000001
    },
    {
      "instrumentId": 0,
      "instrumentName": "Addictive Keys",
      "isPercussion": false,
      "pitch": 72,
      "velocity": 53,
      "startTime": 70.73684800000001,
      "duration": 0.31578949999999395,
      "endTime": 71.0526375
    },
    {
      "instrumentId": 0,
      "instrumentName": "Addictive Keys",
      "isPercussion": false,
      "pitch": 69,
      "velocity": 46,
      "startTime": 70.73684800000001,
      "duration": 0.31578949999999395,
      "endTime": 71.0526375
    },
    {
      "instrumentId": 0,
      "instrumentName": "Addictive Keys",
      "isPercussion": false,
      "pitch": 65,
      "velocity": 46,
      "startTime": 70.73684800000001,
      "duration": 0.31578949999999395,
      "endTime": 71.0526375
    },
    {
      "instrumentId": 1,
      "instrumentName": "Addictive Keys",
      "isPercussion": false,
      "pitch": 29,
      "velocity": 32,
      "startTime": 70.73684800000001,
      "duration": 0.31578949999999395,
      "endTime": 71.0526375
    },
    {
      "instrumentId": 0,
      "instrumentName": "Addictive Keys",
      "isPercussion": false,
      "pitch": 69,
      "velocity": 27,
      "startTime": 71.0526375,
      "duration": 0.31578949999999395,
      "endTime": 71.368427
    },
    {
      "instrumentId": 0,
      "instrumentName": "Addictive Keys",
      "isPercussion": false,
      "pitch": 72,
      "velocity": 53,
      "startTime": 71.368427,
      "duration": 0.31578950000000816,
      "endTime": 71.6842165
    },
    {
      "instrumentId": 1,
      "instrumentName": "Addictive Keys",
      "isPercussion": false,
      "pitch": 41,
      "velocity": 32,
      "startTime": 71.368427,
      "duration": 0.31578950000000816,
      "endTime": 71.6842165
    },
    {
      "instrumentId": 0,
      "instrumentName": "Addictive Keys",
      "isPercussion": false,
      "pitch": 69,
      "velocity": 70,
      "startTime": 71.6842165,
      "duration": 0.31578949999999395,
      "endTime": 72.000006
    },
    {
      "instrumentId": 0,
      "instrumentName": "Addictive Keys",
      "isPercussion": false,
      "pitch": 65,
      "velocity": 32,
      "startTime": 71.6842165,
      "duration": 0.31578949999999395,
      "endTime": 72.000006
    },
    {
      "instrumentId": 1,
      "instrumentName": "Addictive Keys",
      "isPercussion": false,
      "pitch": 29,
      "velocity": 32,
      "startTime": 71.6842165,
      "duration": 0.31578949999999395,
      "endTime": 72.000006
    },
    {
      "instrumentId": 0,
      "instrumentName": "Addictive Keys",
      "isPercussion": false,
      "pitch": 76,
      "velocity": 70,
      "startTime": 72.000006,
      "duration": 0.31578950000000816,
      "endTime": 72.31579550000001
    },
    {
      "instrumentId": 0,
      "instrumentName": "Addictive Keys",
      "isPercussion": false,
      "pitch": 69,
      "velocity": 31,
      "startTime": 72.000006,
      "duration": 0.31578950000000816,
      "endTime": 72.31579550000001
    },
    {
      "instrumentId": 0,
      "instrumentName": "Addictive Keys",
      "isPercussion": false,
      "pitch": 74,
      "velocity": 70,
      "startTime": 72.31579550000001,
      "duration": 0.31578949999999395,
      "endTime": 72.631585
    },
    {
      "instrumentId": 1,
      "instrumentName": "Addictive Keys",
      "isPercussion": false,
      "pitch": 29,
      "velocity": 32,
      "startTime": 72.31579550000001,
      "duration": 0.31578949999999395,
      "endTime": 72.631585
    },
    {
      "instrumentId": 0,
      "instrumentName": "Addictive Keys",
      "isPercussion": false,
      "pitch": 72,
      "velocity": 70,
      "startTime": 72.631585,
      "duration": 0.31578950000000816,
      "endTime": 72.94737450000001
    },
    {
      "instrumentId": 1,
      "instrumentName": "Addictive Keys",
      "isPercussion": false,
      "pitch": 41,
      "velocity": 32,
      "startTime": 72.631585,
      "duration": 0.31578950000000816,
      "endTime": 72.94737450000001
    },
    {
      "instrumentId": 0,
      "instrumentName": "Addictive Keys",
      "isPercussion": false,
      "pitch": 74,
      "velocity": 67,
      "startTime": 72.94737450000001,
      "duration": 0.31578949999999395,
      "endTime": 73.263164
    },
    {
      "instrumentId": 0,
      "instrumentName": "Addictive Keys",
      "isPercussion": false,
      "pitch": 71,
      "velocity": 46,
      "startTime": 72.94737450000001,
      "duration": 0.31578949999999395,
      "endTime": 73.263164
    },
    {
      "instrumentId": 0,
      "instrumentName": "Addictive Keys",
      "isPercussion": false,
      "pitch": 67,
      "velocity": 46,
      "startTime": 72.94737450000001,
      "duration": 0.31578949999999395,
      "endTime": 73.263164
    },
    {
      "instrumentId": 1,
      "instrumentName": "Addictive Keys",
      "isPercussion": false,
      "pitch": 31,
      "velocity": 32,
      "startTime": 72.94737450000001,
      "duration": 0.31578949999999395,
      "endTime": 73.263164
    },
    {
      "instrumentId": 0,
      "instrumentName": "Addictive Keys",
      "isPercussion": false,
      "pitch": 67,
      "velocity": 22,
      "startTime": 73.263164,
      "duration": 0.31578949999999395,
      "endTime": 73.5789535
    },
    {
      "instrumentId": 0,
      "instrumentName": "Addictive Keys",
      "isPercussion": false,
      "pitch": 71,
      "velocity": 50,
      "startTime": 73.5789535,
      "duration": 0.31578950000000816,
      "endTime": 73.894743
    },
    {
      "instrumentId": 0,
      "instrumentName": "Addictive Keys",
      "isPercussion": false,
      "pitch": 74,
      "velocity": 53,
      "startTime": 73.894743,
      "duration": 0.31578949999999395,
      "endTime": 74.2105325
    },
    {
      "instrumentId": 1,
      "instrumentName": "Addictive Keys",
      "isPercussion": false,
      "pitch": 43,
      "velocity": 32,
      "startTime": 73.894743,
      "duration": 0.31578949999999395,
      "endTime": 74.2105325
    },
    {
      "instrumentId": 0,
      "instrumentName": "Addictive Keys",
      "isPercussion": false,
      "pitch": 69,
      "velocity": 53,
      "startTime": 74.2105325,
      "duration": 0.31578950000000816,
      "endTime": 74.52632200000001
    },
    {
      "instrumentId": 1,
      "instrumentName": "Addictive Keys",
      "isPercussion": false,
      "pitch": 31,
      "velocity": 32,
      "startTime": 74.2105325,
      "duration": 0.31578950000000816,
      "endTime": 74.52632200000001
    },
    {
      "instrumentId": 0,
      "instrumentName": "Addictive Keys",
      "isPercussion": false,
      "pitch": 71,
      "velocity": 39,
      "startTime": 74.52632200000001,
      "duration": 0.31578949999999395,
      "endTime": 74.8421115
    },
    {
      "instrumentId": 0,
      "instrumentName": "Addictive Keys",
      "isPercussion": false,
      "pitch": 67,
      "velocity": 53,
      "startTime": 74.52632200000001,
      "duration": 0.6315790000000021,
      "endTime": 75.15790100000001
    },
    {
      "instrumentId": 0,
      "instrumentName": "Addictive Keys",
      "isPercussion": false,
      "pitch": 74,
      "velocity": 63,
      "startTime": 74.8421115,
      "duration": 0.6315790000000021,
      "endTime": 75.4736905
    },
    {
      "instrumentId": 1,
      "instrumentName": "Addictive Keys",
      "isPercussion": false,
      "pitch": 31,
      "velocity": 32,
      "startTime": 74.8421115,
      "duration": 0.31578950000000816,
      "endTime": 75.15790100000001
    },
    {
      "instrumentId": 1,
      "instrumentName": "Addictive Keys",
      "isPercussion": false,
      "pitch": 43,
      "velocity": 32,
      "startTime": 75.15790100000001,
      "duration": 0.31578949999999395,
      "endTime": 75.4736905
    },
    {
      "instrumentId": 0,
      "instrumentName": "Addictive Keys",
      "isPercussion": false,
      "pitch": 71,
      "velocity": 42,
      "startTime": 75.4736905,
      "duration": 0.31578949999999395,
      "endTime": 75.78948
    },
    {
      "instrumentId": 0,
      "instrumentName": "Addictive Keys",
      "isPercussion": false,
      "pitch": 67,
      "velocity": 46,
      "startTime": 75.4736905,
      "duration": 0.31578949999999395,
      "endTime": 75.78948
    },
    {
      "instrumentId": 0,
      "instrumentName": "Addictive Keys",
      "isPercussion": false,
      "pitch": 64,
      "velocity": 46,
      "startTime": 75.4736905,
      "duration": 0.31578949999999395,
      "endTime": 75.78948
    },
    {
      "instrumentId": 1,
      "instrumentName": "Addictive Keys",
      "isPercussion": false,
      "pitch": 33,
      "velocity": 32,
      "startTime": 75.4736905,
      "duration": 0.31578949999999395,
      "endTime": 75.78948
    },
    {
      "instrumentId": 0,
      "instrumentName": "Addictive Keys",
      "isPercussion": false,
      "pitch": 64,
      "velocity": 22,
      "startTime": 75.78948,
      "duration": 0.31578950000000816,
      "endTime": 76.1052695
    },
    {
      "instrumentId": 1,
      "instrumentName": "Addictive Keys",
      "isPercussion": false,
      "pitch": 28,
      "velocity": 32,
      "startTime": 75.78948,
      "duration": 0.31578950000000816,
      "endTime": 76.1052695
    },
    {
      "instrumentId": 0,
      "instrumentName": "Addictive Keys",
      "isPercussion": false,
      "pitch": 67,
      "velocity": 35,
      "startTime": 76.1052695,
      "duration": 0.31578949999999395,
      "endTime": 76.421059
    },
    {
      "instrumentId": 0,
      "instrumentName": "Addictive Keys",
      "isPercussion": false,
      "pitch": 71,
      "velocity": 40,
      "startTime": 76.421059,
      "duration": 0.31578950000000816,
      "endTime": 76.73684850000001
    },
    {
      "instrumentId": 1,
      "instrumentName": "Addictive Keys",
      "isPercussion": false,
      "pitch": 40,
      "velocity": 32,
      "startTime": 76.421059,
      "duration": 0.31578950000000816,
      "endTime": 76.73684850000001
    },
    {
      "instrumentId": 0,
      "instrumentName": "Addictive Keys",
      "isPercussion": false,
      "pitch": 67,
      "velocity": 53,
      "startTime": 76.73684850000001,
      "duration": 0.31578949999999395,
      "endTime": 77.052638
    },
    {
      "instrumentId": 0,
      "instrumentName": "Addictive Keys",
      "isPercussion": false,
      "pitch": 64,
      "velocity": 24,
      "startTime": 76.73684850000001,
      "duration": 0.31578949999999395,
      "endTime": 77.052638
    },
    {
      "instrumentId": 1,
      "instrumentName": "Addictive Keys",
      "isPercussion": false,
      "pitch": 28,
      "velocity": 32,
      "startTime": 76.73684850000001,
      "duration": 0.31578949999999395,
      "endTime": 77.052638
    },
    {
      "instrumentId": 0,
      "instrumentName": "Addictive Keys",
      "isPercussion": false,
      "pitch": 67,
      "velocity": 55,
      "startTime": 77.052638,
      "duration": 0.31578950000000816,
      "endTime": 77.36842750000001
    },
    {
      "instrumentId": 0,
      "instrumentName": "Addictive Keys",
      "isPercussion": false,
      "pitch": 71,
      "velocity": 59,
      "startTime": 77.36842750000001,
      "duration": 0.6315789999999879,
      "endTime": 78.0000065
    },
    {
      "instrumentId": 1,
      "instrumentName": "Addictive Keys",
      "isPercussion": false,
      "pitch": 28,
      "velocity": 32,
      "startTime": 77.36842750000001,
      "duration": 0.31578949999999395,
      "endTime": 77.684217
    },
    {
      "instrumentId": 0,
      "instrumentName": "Addictive Keys",
      "isPercussion": false,
      "pitch": 67,
      "velocity": 53,
      "startTime": 77.684217,
      "duration": 0.31578949999999395,
      "endTime": 78.0000065
    },
    {
      "instrumentId": 1,
      "instrumentName": "Addictive Keys",
      "isPercussion": false,
      "pitch": 23,
      "velocity": 32,
      "startTime": 77.684217,
      "duration": 0.31578949999999395,
      "endTime": 78.0000065
    },
    {
      "instrumentId": 0,
      "instrumentName": "Addictive Keys",
      "isPercussion": false,
      "pitch": 72,
      "velocity": 59,
      "startTime": 78.0000065,
      "duration": 0.31578950000000816,
      "endTime": 78.315796
    },
    {
      "instrumentId": 0,
      "instrumentName": "Addictive Keys",
      "isPercussion": false,
      "pitch": 65,
      "velocity": 46,
      "startTime": 78.0000065,
      "duration": 0.31578950000000816,
      "endTime": 78.315796
    },
    {
      "instrumentId": 1,
      "instrumentName": "Addictive Keys",
      "isPercussion": false,
      "pitch": 29,
      "velocity": 32,
      "startTime": 78.0000065,
      "duration": 0.31578950000000816,
      "endTime": 78.315796
    },
    {
      "instrumentId": 0,
      "instrumentName": "Addictive Keys",
      "isPercussion": false,
      "pitch": 65,
      "velocity": 42,
      "startTime": 78.315796,
      "duration": 0.31578949999999395,
      "endTime": 78.6315855
    },
    {
      "instrumentId": 0,
      "instrumentName": "Addictive Keys",
      "isPercussion": false,
      "pitch": 69,
      "velocity": 55,
      "startTime": 78.6315855,
      "duration": 0.31578950000000816,
      "endTime": 78.94737500000001
    },
    {
      "instrumentId": 1,
      "instrumentName": "Addictive Keys",
      "isPercussion": false,
      "pitch": 29,
      "velocity": 32,
      "startTime": 78.6315855,
      "duration": 0.31578950000000816,
      "endTime": 78.94737500000001
    },
    {
      "instrumentId": 0,
      "instrumentName": "Addictive Keys",
      "isPercussion": false,
      "pitch": 72,
      "velocity": 50,
      "startTime": 78.94737500000001,
      "duration": 0.31578949999999395,
      "endTime": 79.2631645
    },
    {
      "instrumentId": 1,
      "instrumentName": "Addictive Keys",
      "isPercussion": false,
      "pitch": 41,
      "velocity": 32,
      "startTime": 78.94737500000001,
      "duration": 0.31578949999999395,
      "endTime": 79.2631645
    },
    {
      "instrumentId": 0,
      "instrumentName": "Addictive Keys",
      "isPercussion": false,
      "pitch": 65,
      "velocity": 24,
      "startTime": 79.2631645,
      "duration": 0.31578950000000816,
      "endTime": 79.57895400000001
    },
    {
      "instrumentId": 1,
      "instrumentName": "Addictive Keys",
      "isPercussion": false,
      "pitch": 29,
      "velocity": 32,
      "startTime": 79.2631645,
      "duration": 0.31578950000000816,
      "endTime": 79.57895400000001
    },
    {
      "instrumentId": 0,
      "instrumentName": "Addictive Keys",
      "isPercussion": false,
      "pitch": 69,
      "velocity": 36,
      "startTime": 79.57895400000001,
      "duration": 0.31578949999999395,
      "endTime": 79.8947435
    },
    {
      "instrumentId": 0,
      "instrumentName": "Addictive Keys",
      "isPercussion": false,
      "pitch": 72,
      "velocity": 50,
      "startTime": 79.8947435,
      "duration": 0.6315790000000021,
      "endTime": 80.5263225
    },
    {
      "instrumentId": 1,
      "instrumentName": "Addictive Keys",
      "isPercussion": false,
      "pitch": 41,
      "velocity": 32,
      "startTime": 79.8947435,
      "duration": 0.31578949999999395,
      "endTime": 80.210533
    },
    {
      "instrumentId": 1,
      "instrumentName": "Addictive Keys",
      "isPercussion": false,
      "pitch": 29,
      "velocity": 32,
      "startTime": 80.210533,
      "duration": 0.31578950000000816,
      "endTime": 80.5263225
    },
    {
      "instrumentId": 0,
      "instrumentName": "Addictive Keys",
      "isPercussion": false,
      "pitch": 69,
      "velocity": 24,
      "startTime": 80.5263225,
      "duration": 0.31578949999999395,
      "endTime": 80.842112
    },
    {
      "instrumentId": 1,
      "instrumentName": "Addictive Keys",
      "isPercussion": false,
      "pitch": 41,
      "velocity": 32,
      "startTime": 80.5263225,
      "duration": 0.31578949999999395,
      "endTime": 80.842112
    },
    {
      "instrumentId": 0,
      "instrumentName": "Addictive Keys",
      "isPercussion": false,
      "pitch": 72,
      "velocity": 53,
      "startTime": 80.842112,
      "duration": 0.31578950000000816,
      "endTime": 81.15790150000001
    },
    {
      "instrumentId": 0,
      "instrumentName": "Addictive Keys",
      "isPercussion": false,
      "pitch": 69,
      "velocity": 51,
      "startTime": 80.842112,
      "duration": 0.31578950000000816,
      "endTime": 81.15790150000001
    },
    {
      "instrumentId": 0,
      "instrumentName": "Addictive Keys",
      "isPercussion": false,
      "pitch": 65,
      "velocity": 51,
      "startTime": 80.842112,
      "duration": 0.31578950000000816,
      "endTime": 81.15790150000001
    },
    {
      "instrumentId": 1,
      "instrumentName": "Addictive Keys",
      "isPercussion": false,
      "pitch": 29,
      "velocity": 32,
      "startTime": 80.842112,
      "duration": 0.31578950000000816,
      "endTime": 81.15790150000001
    },
    {
      "instrumentId": 0,
      "instrumentName": "Addictive Keys",
      "isPercussion": false,
      "pitch": 69,
      "velocity": 22,
      "startTime": 81.15790150000001,
      "duration": 0.31578949999999395,
      "endTime": 81.473691
    },
    {
      "instrumentId": 0,
      "instrumentName": "Addictive Keys",
      "isPercussion": false,
      "pitch": 72,
      "velocity": 53,
      "startTime": 81.473691,
      "duration": 0.31578950000000816,
      "endTime": 81.78948050000001
    },
    {
      "instrumentId": 1,
      "instrumentName": "Addictive Keys",
      "isPercussion": false,
      "pitch": 41,
      "velocity": 32,
      "startTime": 81.473691,
      "duration": 0.31578950000000816,
      "endTime": 81.78948050000001
    },
    {
      "instrumentId": 0,
      "instrumentName": "Addictive Keys",
      "isPercussion": false,
      "pitch": 69,
      "velocity": 76,
      "startTime": 81.78948050000001,
      "duration": 0.31578949999999395,
      "endTime": 82.10527
    },
    {
      "instrumentId": 0,
      "instrumentName": "Addictive Keys",
      "isPercussion": false,
      "pitch": 65,
      "velocity": 23,
      "startTime": 81.78948050000001,
      "duration": 0.31578949999999395,
      "endTime": 82.10527
    },
    {
      "instrumentId": 1,
      "instrumentName": "Addictive Keys",
      "isPercussion": false,
      "pitch": 29,
      "velocity": 32,
      "startTime": 81.78948050000001,
      "duration": 0.31578949999999395,
      "endTime": 82.10527
    },
    {
      "instrumentId": 0,
      "instrumentName": "Addictive Keys",
      "isPercussion": false,
      "pitch": 76,
      "velocity": 76,
      "startTime": 82.10527,
      "duration": 0.31578949999999395,
      "endTime": 82.4210595
    },
    {
      "instrumentId": 0,
      "instrumentName": "Addictive Keys",
      "isPercussion": false,
      "pitch": 69,
      "velocity": 40,
      "startTime": 82.10527,
      "duration": 0.31578949999999395,
      "endTime": 82.4210595
    },
    {
      "instrumentId": 0,
      "instrumentName": "Addictive Keys",
      "isPercussion": false,
      "pitch": 74,
      "velocity": 76,
      "startTime": 82.4210595,
      "duration": 0.31578950000000816,
      "endTime": 82.736849
    },
    {
      "instrumentId": 1,
      "instrumentName": "Addictive Keys",
      "isPercussion": false,
      "pitch": 29,
      "velocity": 32,
      "startTime": 82.4210595,
      "duration": 0.31578950000000816,
      "endTime": 82.736849
    },
    {
      "instrumentId": 0,
      "instrumentName": "Addictive Keys",
      "isPercussion": false,
      "pitch": 72,
      "velocity": 56,
      "startTime": 82.736849,
      "duration": 0.31578949999999395,
      "endTime": 83.0526385
    },
    {
      "instrumentId": 1,
      "instrumentName": "Addictive Keys",
      "isPercussion": false,
      "pitch": 41,
      "velocity": 32,
      "startTime": 82.736849,
      "duration": 0.31578949999999395,
      "endTime": 83.0526385
    },
    {
      "instrumentId": 0,
      "instrumentName": "Addictive Keys",
      "isPercussion": false,
      "pitch": 74,
      "velocity": 57,
      "startTime": 83.0526385,
      "duration": 0.31578950000000816,
      "endTime": 83.36842800000001
    },
    {
      "instrumentId": 0,
      "instrumentName": "Addictive Keys",
      "isPercussion": false,
      "pitch": 71,
      "velocity": 46,
      "startTime": 83.0526385,
      "duration": 0.31578950000000816,
      "endTime": 83.36842800000001
    },
    {
      "instrumentId": 0,
      "instrumentName": "Addictive Keys",
      "isPercussion": false,
      "pitch": 67,
      "velocity": 46,
      "startTime": 83.0526385,
      "duration": 0.31578950000000816,
      "endTime": 83.36842800000001
    },
    {
      "instrumentId": 1,
      "instrumentName": "Addictive Keys",
      "isPercussion": false,
      "pitch": 31,
      "velocity": 32,
      "startTime": 83.0526385,
      "duration": 0.31578950000000816,
      "endTime": 83.36842800000001
    },
    {
      "instrumentId": 0,
      "instrumentName": "Addictive Keys",
      "isPercussion": false,
      "pitch": 67,
      "velocity": 28,
      "startTime": 83.36842800000001,
      "duration": 0.31578949999999395,
      "endTime": 83.6842175
    },
    {
      "instrumentId": 0,
      "instrumentName": "Addictive Keys",
      "isPercussion": false,
      "pitch": 71,
      "velocity": 43,
      "startTime": 83.6842175,
      "duration": 0.31578950000000816,
      "endTime": 84.00000700000001
    },
    {
      "instrumentId": 0,
      "instrumentName": "Addictive Keys",
      "isPercussion": false,
      "pitch": 76,
      "velocity": 56,
      "startTime": 83.6842175,
      "duration": 0.6315790000000021,
      "endTime": 84.3157965
    },
    {
      "instrumentId": 0,
      "instrumentName": "Addictive Keys",
      "isPercussion": false,
      "pitch": 74,
      "velocity": 45,
      "startTime": 84.00000700000001,
      "duration": 0.31578949999999395,
      "endTime": 84.3157965
    },
    {
      "instrumentId": 1,
      "instrumentName": "Addictive Keys",
      "isPercussion": false,
      "pitch": 43,
      "velocity": 32,
      "startTime": 84.00000700000001,
      "duration": 0.31578949999999395,
      "endTime": 84.3157965
    },
    {
      "instrumentId": 0,
      "instrumentName": "Addictive Keys",
      "isPercussion": false,
      "pitch": 67,
      "velocity": 15,
      "startTime": 84.3157965,
      "duration": 0.31578949999999395,
      "endTime": 84.631586
    },
    {
      "instrumentId": 1,
      "instrumentName": "Addictive Keys",
      "isPercussion": false,
      "pitch": 31,
      "velocity": 32,
      "startTime": 84.3157965,
      "duration": 0.31578949999999395,
      "endTime": 84.631586
    },
    {
      "instrumentId": 0,
      "instrumentName": "Addictive Keys",
      "isPercussion": false,
      "pitch": 71,
      "velocity": 28,
      "startTime": 84.631586,
      "duration": 0.31578950000000816,
      "endTime": 84.9473755
    },
    {
      "instrumentId": 0,
      "instrumentName": "Addictive Keys",
      "isPercussion": false,
      "pitch": 74,
      "velocity": 63,
      "startTime": 84.9473755,
      "duration": 0.6315790000000021,
      "endTime": 85.57895450000001
    },
    {
      "instrumentId": 1,
      "instrumentName": "Addictive Keys",
      "isPercussion": false,
      "pitch": 31,
      "velocity": 32,
      "startTime": 84.9473755,
      "duration": 0.31578949999999395,
      "endTime": 85.263165
    },
    {
      "instrumentId": 1,
      "instrumentName": "Addictive Keys",
      "isPercussion": false,
      "pitch": 43,
      "velocity": 32,
      "startTime": 85.263165,
      "duration": 0.31578950000000816,
      "endTime": 85.57895450000001
    },
    {
      "instrumentId": 0,
      "instrumentName": "Addictive Keys",
      "isPercussion": false,
      "pitch": 71,
      "velocity": 51,
      "startTime": 85.57895450000001,
      "duration": 0.31578949999999395,
      "endTime": 85.894744
    },
    {
      "instrumentId": 0,
      "instrumentName": "Addictive Keys",
      "isPercussion": false,
      "pitch": 67,
      "velocity": 51,
      "startTime": 85.57895450000001,
      "duration": 0.31578949999999395,
      "endTime": 85.894744
    },
    {
      "instrumentId": 0,
      "instrumentName": "Addictive Keys",
      "isPercussion": false,
      "pitch": 64,
      "velocity": 51,
      "startTime": 85.57895450000001,
      "duration": 0.31578949999999395,
      "endTime": 85.894744
    },
    {
      "instrumentId": 1,
      "instrumentName": "Addictive Keys",
      "isPercussion": false,
      "pitch": 33,
      "velocity": 32,
      "startTime": 85.57895450000001,
      "duration": 0.31578949999999395,
      "endTime": 85.894744
    },
    {
      "instrumentId": 0,
      "instrumentName": "Addictive Keys",
      "isPercussion": false,
      "pitch": 64,
      "velocity": 14,
      "startTime": 85.894744,
      "duration": 0.31578950000000816,
      "endTime": 86.21053350000001
    },
    {
      "instrumentId": 1,
      "instrumentName": "Addictive Keys",
      "isPercussion": false,
      "pitch": 28,
      "velocity": 32,
      "startTime": 85.894744,
      "duration": 0.31578950000000816,
      "endTime": 86.21053350000001
    },
    {
      "instrumentId": 0,
      "instrumentName": "Addictive Keys",
      "isPercussion": false,
      "pitch": 67,
      "velocity": 36,
      "startTime": 86.21053350000001,
      "duration": 0.31578949999999395,
      "endTime": 86.526323
    },
    {
      "instrumentId": 0,
      "instrumentName": "Addictive Keys",
      "isPercussion": false,
      "pitch": 71,
      "velocity": 53,
      "startTime": 86.526323,
      "duration": 0.31578949999999395,
      "endTime": 86.8421125
    },
    {
      "instrumentId": 1,
      "instrumentName": "Addictive Keys",
      "isPercussion": false,
      "pitch": 40,
      "velocity": 32,
      "startTime": 86.526323,
      "duration": 0.31578949999999395,
      "endTime": 86.8421125
    },
    {
      "instrumentId": 0,
      "instrumentName": "Addictive Keys",
      "isPercussion": false,
      "pitch": 67,
      "velocity": 70,
      "startTime": 86.8421125,
      "duration": 0.31578950000000816,
      "endTime": 87.157902
    },
    {
      "instrumentId": 0,
      "instrumentName": "Addictive Keys",
      "isPercussion": false,
      "pitch": 64,
      "velocity": 17,
      "startTime": 86.8421125,
      "duration": 0.31578950000000816,
      "endTime": 87.157902
    },
    {
      "instrumentId": 1,
      "instrumentName": "Addictive Keys",
      "isPercussion": false,
      "pitch": 28,
      "velocity": 32,
      "startTime": 86.8421125,
      "duration": 0.31578950000000816,
      "endTime": 87.157902
    },
    {
      "instrumentId": 0,
      "instrumentName": "Addictive Keys",
      "isPercussion": false,
      "pitch": 76,
      "velocity": 70,
      "startTime": 87.157902,
      "duration": 0.31578949999999395,
      "endTime": 87.4736915
    },
    {
      "instrumentId": 0,
      "instrumentName": "Addictive Keys",
      "isPercussion": false,
      "pitch": 67,
      "velocity": 41,
      "startTime": 87.157902,
      "duration": 0.31578949999999395,
      "endTime": 87.4736915
    },
    {
      "instrumentId": 0,
      "instrumentName": "Addictive Keys",
      "isPercussion": false,
      "pitch": 74,
      "velocity": 70,
      "startTime": 87.4736915,
      "duration": 0.31578950000000816,
      "endTime": 87.78948100000001
    },
    {
      "instrumentId": 0,
      "instrumentName": "Addictive Keys",
      "isPercussion": false,
      "pitch": 71,
      "velocity": 46,
      "startTime": 87.4736915,
      "duration": 0.31578950000000816,
      "endTime": 87.78948100000001
    },
    {
      "instrumentId": 1,
      "instrumentName": "Addictive Keys",
      "isPercussion": false,
      "pitch": 28,
      "velocity": 32,
      "startTime": 87.4736915,
      "duration": 0.31578950000000816,
      "endTime": 87.78948100000001
    },
    {
      "instrumentId": 0,
      "instrumentName": "Addictive Keys",
      "isPercussion": false,
      "pitch": 72,
      "velocity": 70,
      "startTime": 87.78948100000001,
      "duration": 0.31578949999999395,
      "endTime": 88.1052705
    },
    {
      "instrumentId": 1,
      "instrumentName": "Addictive Keys",
      "isPercussion": false,
      "pitch": 23,
      "velocity": 32,
      "startTime": 87.78948100000001,
      "duration": 0.31578949999999395,
      "endTime": 88.1052705
    },
    {
      "instrumentId": 0,
      "instrumentName": "Addictive Keys",
      "isPercussion": false,
      "pitch": 72,
      "velocity": 70,
      "startTime": 88.1052705,
      "duration": 0.31578949999999395,
      "endTime": 88.42106
    },
    {
      "instrumentId": 0,
      "instrumentName": "Addictive Keys",
      "isPercussion": false,
      "pitch": 69,
      "velocity": 51,
      "startTime": 88.1052705,
      "duration": 0.31578949999999395,
      "endTime": 88.42106
    },
    {
      "instrumentId": 0,
      "instrumentName": "Addictive Keys",
      "isPercussion": false,
      "pitch": 65,
      "velocity": 51,
      "startTime": 88.1052705,
      "duration": 0.31578949999999395,
      "endTime": 88.42106
    },
    {
      "instrumentId": 1,
      "instrumentName": "Addictive Keys",
      "isPercussion": false,
      "pitch": 29,
      "velocity": 32,
      "startTime": 88.1052705,
      "duration": 0.31578949999999395,
      "endTime": 88.42106
    },
    {
      "instrumentId": 0,
      "instrumentName": "Addictive Keys",
      "isPercussion": false,
      "pitch": 65,
      "velocity": 20,
      "startTime": 88.42106,
      "duration": 0.31578950000000816,
      "endTime": 88.7368495
    },
    {
      "instrumentId": 0,
      "instrumentName": "Addictive Keys",
      "isPercussion": false,
      "pitch": 69,
      "velocity": 33,
      "startTime": 88.7368495,
      "duration": 0.31578949999999395,
      "endTime": 89.052639
    },
    {
      "instrumentId": 1,
      "instrumentName": "Addictive Keys",
      "isPercussion": false,
      "pitch": 29,
      "velocity": 32,
      "startTime": 88.7368495,
      "duration": 0.31578949999999395,
      "endTime": 89.052639
    },
    {
      "instrumentId": 0,
      "instrumentName": "Addictive Keys",
      "isPercussion": false,
      "pitch": 72,
      "velocity": 39,
      "startTime": 89.052639,
      "duration": 0.31578950000000816,
      "endTime": 89.36842850000001
    },
    {
      "instrumentId": 1,
      "instrumentName": "Addictive Keys",
      "isPercussion": false,
      "pitch": 41,
      "velocity": 32,
      "startTime": 89.052639,
      "duration": 0.31578950000000816,
      "endTime": 89.36842850000001
    },
    {
      "instrumentId": 0,
      "instrumentName": "Addictive Keys",
      "isPercussion": false,
      "pitch": 65,
      "velocity": 26,
      "startTime": 89.36842850000001,
      "duration": 0.31578949999999395,
      "endTime": 89.684218
    },
    {
      "instrumentId": 1,
      "instrumentName": "Addictive Keys",
      "isPercussion": false,
      "pitch": 29,
      "velocity": 32,
      "startTime": 89.36842850000001,
      "duration": 0.31578949999999395,
      "endTime": 89.684218
    },
    {
      "instrumentId": 0,
      "instrumentName": "Addictive Keys",
      "isPercussion": false,
      "pitch": 69,
      "velocity": 37,
      "startTime": 89.684218,
      "duration": 0.31578950000000816,
      "endTime": 90.00000750000001
    },
    {
      "instrumentId": 0,
      "instrumentName": "Addictive Keys",
      "isPercussion": false,
      "pitch": 72,
      "velocity": 49,
      "startTime": 90.00000750000001,
      "duration": 0.6315789999999879,
      "endTime": 90.6315865
    },
    {
      "instrumentId": 1,
      "instrumentName": "Addictive Keys",
      "isPercussion": false,
      "pitch": 41,
      "velocity": 32,
      "startTime": 90.00000750000001,
      "duration": 0.31578949999999395,
      "endTime": 90.315797
    },
    {
      "instrumentId": 1,
      "instrumentName": "Addictive Keys",
      "isPercussion": false,
      "pitch": 29,
      "velocity": 32,
      "startTime": 90.315797,
      "duration": 0.31578949999999395,
      "endTime": 90.6315865
    },
    {
      "instrumentId": 0,
      "instrumentName": "Addictive Keys",
      "isPercussion": false,
      "pitch": 69,
      "velocity": 40,
      "startTime": 90.6315865,
      "duration": 0.31578950000000816,
      "endTime": 90.947376
    },
    {
      "instrumentId": 1,
      "instrumentName": "Addictive Keys",
      "isPercussion": false,
      "pitch": 41,
      "velocity": 32,
      "startTime": 90.6315865,
      "duration": 0.31578950000000816,
      "endTime": 90.947376
    },
    {
      "instrumentId": 0,
      "instrumentName": "Addictive Keys",
      "isPercussion": false,
      "pitch": 72,
      "velocity": 53,
      "startTime": 90.947376,
      "duration": 0.31578949999999395,
      "endTime": 91.2631655
    },
    {
      "instrumentId": 0,
      "instrumentName": "Addictive Keys",
      "isPercussion": false,
      "pitch": 69,
      "velocity": 46,
      "startTime": 90.947376,
      "duration": 0.31578949999999395,
      "endTime": 91.2631655
    },
    {
      "instrumentId": 0,
      "instrumentName": "Addictive Keys",
      "isPercussion": false,
      "pitch": 65,
      "velocity": 46,
      "startTime": 90.947376,
      "duration": 0.31578949999999395,
      "endTime": 91.2631655
    },
    {
      "instrumentId": 1,
      "instrumentName": "Addictive Keys",
      "isPercussion": false,
      "pitch": 29,
      "velocity": 32,
      "startTime": 90.947376,
      "duration": 0.31578949999999395,
      "endTime": 91.2631655
    },
    {
      "instrumentId": 0,
      "instrumentName": "Addictive Keys",
      "isPercussion": false,
      "pitch": 69,
      "velocity": 27,
      "startTime": 91.2631655,
      "duration": 0.31578950000000816,
      "endTime": 91.57895500000001
    },
    {
      "instrumentId": 0,
      "instrumentName": "Addictive Keys",
      "isPercussion": false,
      "pitch": 72,
      "velocity": 53,
      "startTime": 91.57895500000001,
      "duration": 0.31578949999999395,
      "endTime": 91.8947445
    },
    {
      "instrumentId": 1,
      "instrumentName": "Addictive Keys",
      "isPercussion": false,
      "pitch": 41,
      "velocity": 32,
      "startTime": 91.57895500000001,
      "duration": 0.31578949999999395,
      "endTime": 91.8947445
    },
    {
      "instrumentId": 0,
      "instrumentName": "Addictive Keys",
      "isPercussion": false,
      "pitch": 69,
      "velocity": 70,
      "startTime": 91.8947445,
      "duration": 0.31578950000000816,
      "endTime": 92.21053400000001
    },
    {
      "instrumentId": 0,
      "instrumentName": "Addictive Keys",
      "isPercussion": false,
      "pitch": 65,
      "velocity": 32,
      "startTime": 91.8947445,
      "duration": 0.31578950000000816,
      "endTime": 92.21053400000001
    },
    {
      "instrumentId": 1,
      "instrumentName": "Addictive Keys",
      "isPercussion": false,
      "pitch": 29,
      "velocity": 32,
      "startTime": 91.8947445,
      "duration": 0.31578950000000816,
      "endTime": 92.21053400000001
    },
    {
      "instrumentId": 0,
      "instrumentName": "Addictive Keys",
      "isPercussion": false,
      "pitch": 76,
      "velocity": 70,
      "startTime": 92.21053400000001,
      "duration": 0.31578949999999395,
      "endTime": 92.5263235
    },
    {
      "instrumentId": 0,
      "instrumentName": "Addictive Keys",
      "isPercussion": false,
      "pitch": 69,
      "velocity": 31,
      "startTime": 92.21053400000001,
      "duration": 0.31578949999999395,
      "endTime": 92.5263235
    },
    {
      "instrumentId": 0,
      "instrumentName": "Addictive Keys",
      "isPercussion": false,
      "pitch": 74,
      "velocity": 70,
      "startTime": 92.5263235,
      "duration": 0.31578949999999395,
      "endTime": 92.842113
    },
    {
      "instrumentId": 1,
      "instrumentName": "Addictive Keys",
      "isPercussion": false,
      "pitch": 29,
      "velocity": 32,
      "startTime": 92.5263235,
      "duration": 0.31578949999999395,
      "endTime": 92.842113
    },
    {
      "instrumentId": 0,
      "instrumentName": "Addictive Keys",
      "isPercussion": false,
      "pitch": 72,
      "velocity": 70,
      "startTime": 92.842113,
      "duration": 0.31578950000000816,
      "endTime": 93.1579025
    },
    {
      "instrumentId": 1,
      "instrumentName": "Addictive Keys",
      "isPercussion": false,
      "pitch": 41,
      "velocity": 32,
      "startTime": 92.842113,
      "duration": 0.31578950000000816,
      "endTime": 93.1579025
    },
    {
      "instrumentId": 0,
      "instrumentName": "Addictive Keys",
      "isPercussion": false,
      "pitch": 74,
      "velocity": 67,
      "startTime": 93.1579025,
      "duration": 0.31578949999999395,
      "endTime": 93.473692
    },
    {
      "instrumentId": 0,
      "instrumentName": "Addictive Keys",
      "isPercussion": false,
      "pitch": 71,
      "velocity": 46,
      "startTime": 93.1579025,
      "duration": 0.31578949999999395,
      "endTime": 93.473692
    },
    {
      "instrumentId": 0,
      "instrumentName": "Addictive Keys",
      "isPercussion": false,
      "pitch": 67,
      "velocity": 46,
      "startTime": 93.1579025,
      "duration": 0.31578949999999395,
      "endTime": 93.473692
    },
    {
      "instrumentId": 1,
      "instrumentName": "Addictive Keys",
      "isPercussion": false,
      "pitch": 31,
      "velocity": 32,
      "startTime": 93.1579025,
      "duration": 0.31578949999999395,
      "endTime": 93.473692
    },
    {
      "instrumentId": 0,
      "instrumentName": "Addictive Keys",
      "isPercussion": false,
      "pitch": 67,
      "velocity": 22,
      "startTime": 93.473692,
      "duration": 0.31578950000000816,
      "endTime": 93.78948150000001
    },
    {
      "instrumentId": 0,
      "instrumentName": "Addictive Keys",
      "isPercussion": false,
      "pitch": 71,
      "velocity": 50,
      "startTime": 93.78948150000001,
      "duration": 0.31578949999999395,
      "endTime": 94.105271
    },
    {
      "instrumentId": 0,
      "instrumentName": "Addictive Keys",
      "isPercussion": false,
      "pitch": 74,
      "velocity": 53,
      "startTime": 94.105271,
      "duration": 0.31578950000000816,
      "endTime": 94.42106050000001
    },
    {
      "instrumentId": 1,
      "instrumentName": "Addictive Keys",
      "isPercussion": false,
      "pitch": 43,
      "velocity": 32,
      "startTime": 94.105271,
      "duration": 0.31578950000000816,
      "endTime": 94.42106050000001
    },
    {
      "instrumentId": 0,
      "instrumentName": "Addictive Keys",
      "isPercussion": false,
      "pitch": 69,
      "velocity": 53,
      "startTime": 94.42106050000001,
      "duration": 0.31578949999999395,
      "endTime": 94.73685
    },
    {
      "instrumentId": 1,
      "instrumentName": "Addictive Keys",
      "isPercussion": false,
      "pitch": 31,
      "velocity": 32,
      "startTime": 94.42106050000001,
      "duration": 0.31578949999999395,
      "endTime": 94.73685
    },
    {
      "instrumentId": 0,
      "instrumentName": "Addictive Keys",
      "isPercussion": false,
      "pitch": 71,
      "velocity": 39,
      "startTime": 94.73685,
      "duration": 0.31578949999999395,
      "endTime": 95.0526395
    },
    {
      "instrumentId": 0,
      "instrumentName": "Addictive Keys",
      "isPercussion": false,
      "pitch": 67,
      "velocity": 53,
      "startTime": 94.73685,
      "duration": 0.6315790000000021,
      "endTime": 95.368429
    },
    {
      "instrumentId": 0,
      "instrumentName": "Addictive Keys",
      "isPercussion": false,
      "pitch": 74,
      "velocity": 63,
      "startTime": 95.0526395,
      "duration": 0.6315790000000021,
      "endTime": 95.6842185
    },
    {
      "instrumentId": 1,
      "instrumentName": "Addictive Keys",
      "isPercussion": false,
      "pitch": 31,
      "velocity": 32,
      "startTime": 95.0526395,
      "duration": 0.31578950000000816,
      "endTime": 95.368429
    },
    {
      "instrumentId": 1,
      "instrumentName": "Addictive Keys",
      "isPercussion": false,
      "pitch": 43,
      "velocity": 32,
      "startTime": 95.368429,
      "duration": 0.31578949999999395,
      "endTime": 95.6842185
    },
    {
      "instrumentId": 0,
      "instrumentName": "Addictive Keys",
      "isPercussion": false,
      "pitch": 71,
      "velocity": 42,
      "startTime": 95.6842185,
      "duration": 0.31578950000000816,
      "endTime": 96.00000800000001
    },
    {
      "instrumentId": 0,
      "instrumentName": "Addictive Keys",
      "isPercussion": false,
      "pitch": 67,
      "velocity": 46,
      "startTime": 95.6842185,
      "duration": 0.31578950000000816,
      "endTime": 96.00000800000001
    },
    {
      "instrumentId": 0,
      "instrumentName": "Addictive Keys",
      "isPercussion": false,
      "pitch": 64,
      "velocity": 46,
      "startTime": 95.6842185,
      "duration": 0.31578950000000816,
      "endTime": 96.00000800000001
    },
    {
      "instrumentId": 1,
      "instrumentName": "Addictive Keys",
      "isPercussion": false,
      "pitch": 33,
      "velocity": 32,
      "startTime": 95.6842185,
      "duration": 0.31578950000000816,
      "endTime": 96.00000800000001
    },
    {
      "instrumentId": 0,
      "instrumentName": "Addictive Keys",
      "isPercussion": false,
      "pitch": 64,
      "velocity": 22,
      "startTime": 96.00000800000001,
      "duration": 0.31578949999999395,
      "endTime": 96.3157975
    },
    {
      "instrumentId": 1,
      "instrumentName": "Addictive Keys",
      "isPercussion": false,
      "pitch": 28,
      "velocity": 32,
      "startTime": 96.00000800000001,
      "duration": 0.31578949999999395,
      "endTime": 96.3157975
    },
    {
      "instrumentId": 0,
      "instrumentName": "Addictive Keys",
      "isPercussion": false,
      "pitch": 67,
      "velocity": 35,
      "startTime": 96.3157975,
      "duration": 0.31578950000000816,
      "endTime": 96.63158700000001
    },
    {
      "instrumentId": 0,
      "instrumentName": "Addictive Keys",
      "isPercussion": false,
      "pitch": 71,
      "velocity": 40,
      "startTime": 96.63158700000001,
      "duration": 0.31578949999999395,
      "endTime": 96.9473765
    },
    {
      "instrumentId": 1,
      "instrumentName": "Addictive Keys",
      "isPercussion": false,
      "pitch": 40,
      "velocity": 32,
      "startTime": 96.63158700000001,
      "duration": 0.31578949999999395,
      "endTime": 96.9473765
    },
    {
      "instrumentId": 0,
      "instrumentName": "Addictive Keys",
      "isPercussion": false,
      "pitch": 67,
      "velocity": 53,
      "startTime": 96.9473765,
      "duration": 0.31578949999999395,
      "endTime": 97.263166
    },
    {
      "instrumentId": 0,
      "instrumentName": "Addictive Keys",
      "isPercussion": false,
      "pitch": 64,
      "velocity": 24,
      "startTime": 96.9473765,
      "duration": 0.31578949999999395,
      "endTime": 97.263166
    },
    {
      "instrumentId": 1,
      "instrumentName": "Addictive Keys",
      "isPercussion": false,
      "pitch": 28,
      "velocity": 32,
      "startTime": 96.9473765,
      "duration": 0.31578949999999395,
      "endTime": 97.263166
    },
    {
      "instrumentId": 0,
      "instrumentName": "Addictive Keys",
      "isPercussion": false,
      "pitch": 67,
      "velocity": 55,
      "startTime": 97.263166,
      "duration": 0.31578950000000816,
      "endTime": 97.5789555
    },
    {
      "instrumentId": 0,
      "instrumentName": "Addictive Keys",
      "isPercussion": false,
      "pitch": 71,
      "velocity": 59,
      "startTime": 97.5789555,
      "duration": 0.6315790000000021,
      "endTime": 98.21053450000001
    },
    {
      "instrumentId": 1,
      "instrumentName": "Addictive Keys",
      "isPercussion": false,
      "pitch": 28,
      "velocity": 32,
      "startTime": 97.5789555,
      "duration": 0.31578949999999395,
      "endTime": 97.894745
    },
    {
      "instrumentId": 0,
      "instrumentName": "Addictive Keys",
      "isPercussion": false,
      "pitch": 67,
      "velocity": 53,
      "startTime": 97.894745,
      "duration": 0.31578950000000816,
      "endTime": 98.21053450000001
    },
    {
      "instrumentId": 1,
      "instrumentName": "Addictive Keys",
      "isPercussion": false,
      "pitch": 23,
      "velocity": 32,
      "startTime": 97.894745,
      "duration": 0.31578950000000816,
      "endTime": 98.21053450000001
    },
    {
      "instrumentId": 0,
      "instrumentName": "Addictive Keys",
      "isPercussion": false,
      "pitch": 72,
      "velocity": 59,
      "startTime": 98.21053450000001,
      "duration": 0.31578949999999395,
      "endTime": 98.526324
    },
    {
      "instrumentId": 0,
      "instrumentName": "Addictive Keys",
      "isPercussion": false,
      "pitch": 65,
      "velocity": 46,
      "startTime": 98.21053450000001,
      "duration": 0.31578949999999395,
      "endTime": 98.526324
    },
    {
      "instrumentId": 1,
      "instrumentName": "Addictive Keys",
      "isPercussion": false,
      "pitch": 29,
      "velocity": 32,
      "startTime": 98.21053450000001,
      "duration": 0.31578949999999395,
      "endTime": 98.526324
    },
    {
      "instrumentId": 0,
      "instrumentName": "Addictive Keys",
      "isPercussion": false,
      "pitch": 65,
      "velocity": 42,
      "startTime": 98.526324,
      "duration": 0.31578950000000816,
      "endTime": 98.84211350000001
    },
    {
      "instrumentId": 0,
      "instrumentName": "Addictive Keys",
      "isPercussion": false,
      "pitch": 69,
      "velocity": 55,
      "startTime": 98.84211350000001,
      "duration": 0.31578949999999395,
      "endTime": 99.157903
    },
    {
      "instrumentId": 1,
      "instrumentName": "Addictive Keys",
      "isPercussion": false,
      "pitch": 29,
      "velocity": 32,
      "startTime": 98.84211350000001,
      "duration": 0.31578949999999395,
      "endTime": 99.157903
    },
    {
      "instrumentId": 0,
      "instrumentName": "Addictive Keys",
      "isPercussion": false,
      "pitch": 72,
      "velocity": 50,
      "startTime": 99.157903,
      "duration": 0.31578949999999395,
      "endTime": 99.4736925
    },
    {
      "instrumentId": 1,
      "instrumentName": "Addictive Keys",
      "isPercussion": false,
      "pitch": 41,
      "velocity": 32,
      "startTime": 99.157903,
      "duration": 0.31578949999999395,
      "endTime": 99.4736925
    },
    {
      "instrumentId": 0,
      "instrumentName": "Addictive Keys",
      "isPercussion": false,
      "pitch": 65,
      "velocity": 24,
      "startTime": 99.4736925,
      "duration": 0.31578950000000816,
      "endTime": 99.789482
    },
    {
      "instrumentId": 1,
      "instrumentName": "Addictive Keys",
      "isPercussion": false,
      "pitch": 29,
      "velocity": 32,
      "startTime": 99.4736925,
      "duration": 0.31578950000000816,
      "endTime": 99.789482
    },
    {
      "instrumentId": 0,
      "instrumentName": "Addictive Keys",
      "isPercussion": false,
      "pitch": 69,
      "velocity": 36,
      "startTime": 99.789482,
      "duration": 0.31578949999999395,
      "endTime": 100.1052715
    },
    {
      "instrumentId": 0,
      "instrumentName": "Addictive Keys",
      "isPercussion": false,
      "pitch": 72,
      "velocity": 50,
      "startTime": 100.1052715,
      "duration": 0.6315790000000021,
      "endTime": 100.7368505
    },
    {
      "instrumentId": 1,
      "instrumentName": "Addictive Keys",
      "isPercussion": false,
      "pitch": 41,
      "velocity": 32,
      "startTime": 100.1052715,
      "duration": 0.31578950000000816,
      "endTime": 100.42106100000001
    },
    {
      "instrumentId": 1,
      "instrumentName": "Addictive Keys",
      "isPercussion": false,
      "pitch": 29,
      "velocity": 32,
      "startTime": 100.42106100000001,
      "duration": 0.31578949999999395,
      "endTime": 100.7368505
    },
    {
      "instrumentId": 0,
      "instrumentName": "Addictive Keys",
      "isPercussion": false,
      "pitch": 69,
      "velocity": 24,
      "startTime": 100.7368505,
      "duration": 0.31578950000000816,
      "endTime": 101.05264000000001
    },
    {
      "instrumentId": 1,
      "instrumentName": "Addictive Keys",
      "isPercussion": false,
      "pitch": 41,
      "velocity": 32,
      "startTime": 100.7368505,
      "duration": 0.31578950000000816,
      "endTime": 101.05264000000001
    }
  ]
}